<?xml version="1.0" standalone="no"?>
<!DOCTYPE svg PUBLIC "-//W3C//DTD SVG 1.1//EN" "http://www.w3.org/Graphics/SVG/1.1/DTD/svg11.dtd" >
<svg xmlns="http://www.w3.org/2000/svg">
<metadata></metadata>
<defs>
<font id="focoregular" horiz-adv-x="549" >
<font-face units-per-em="1000" ascent="784" descent="-216" />
<missing-glyph horiz-adv-x="200" />
<glyph unicode="fi" horiz-adv-x="532" d="M405 592h-15q-39 52 -122 52q-55 0 -82.5 -26t-27.5 -84v-64h291v-372q0 -36 8.5 -48.5t39.5 -12.5v-36q-23 -7 -55 -7q-22 0 -37 6.5t-23 15.5t-12.5 26t-5 29.5t-0.5 33.5v292h-206v-397h-85v519q0 97 49 147.5t142 50.5q69 0 117 -24.5t48 -50.5q0 -17 -24 -50z" />
<glyph unicode="&#xd;" horiz-adv-x="180" />
<glyph unicode=" "  horiz-adv-x="200" />
<glyph unicode="&#x09;" horiz-adv-x="200" />
<glyph unicode="&#xa0;" horiz-adv-x="200" />
<glyph unicode="!" horiz-adv-x="225" d="M68 240v431h6q2 0 6.5 0.5t6.5 0.5q67 0 67 -66v-431q-2 -1 -7 -1h-12q-67 0 -67 66zM170 44q0 -26 -16 -42.5t-41 -16.5q-26 0 -42 16.5t-16 42.5q0 27 16 44t42 17q25 0 41 -17.5t16 -43.5z" />
<glyph unicode="#" horiz-adv-x="655" d="M592 175h-136l-20 -146h-69l20 146h-141l-20 -146h-69l20 146h-141l9 65h141l21 147h-141l9 66h141l22 150h69l-22 -150h141l22 150h69l-22 -150h136l-9 -66h-136l-21 -147h136zM396 240l21 147h-141l-21 -147h141z" />
<glyph unicode="$" d="M240 680v79h62v-78q61 -8 108 -29.5t47 -54.5q0 -22 -32 -54q-60 53 -123 60v-221q75 -26 118.5 -70t43.5 -123q0 -73 -33.5 -122t-93.5 -69l-35 -9v-83h-62v79q-74 2 -128 26t-54 55q0 23 28 60q72 -62 154 -65v253q-38 13 -63.5 25.5t-51.5 33.5t-39 52t-13 73 q0 78 46 125.5t121 56.5zM302 67l8 4q67 26 67 105t-68 112l-7 3v-224zM221 596q-61 -22 -61 -91q0 -67 80 -100v197q-12 -2 -19 -6z" />
<glyph unicode="%" horiz-adv-x="823" d="M351 506q0 -84 -41.5 -130.5t-109.5 -46.5q-73 0 -112.5 45.5t-39.5 131.5q0 85 41.5 130.5t109.5 45.5q152 0 152 -176zM770 162q0 -85 -41 -131t-109 -46q-73 0 -112.5 45.5t-39.5 131.5q0 84 42 130t109 46q71 0 111 -45t40 -131zM697 163q0 112 -78 112 q-77 0 -77 -113q0 -114 77 -114q78 0 78 115zM277 507q0 112 -78 112q-76 0 -76 -113t76 -113q78 0 78 114zM677 676l-450 -676h-86l429 644q25 39 64 39q23 0 32 -4z" />
<glyph unicode="&#x26;" horiz-adv-x="698" d="M525 160l128 -157q-26 -12 -49 -12q-39 0 -66 30l-63 72q-95 -104 -208 -104q-107 0 -161 56.5t-54 141.5q0 84 47 141t121 86h-1q-44 57 -44 118q0 67 50.5 108.5t122.5 41.5q59 0 101 -21t42 -48q0 -19 -30 -52h-10q-48 46 -100 46q-38 0 -62.5 -21t-24.5 -59 q0 -41 43 -96q19 -24 167 -206q31 75 31 155q0 36 -1 53h161v-65h-88q-5 -116 -52 -208zM269 63q49 0 85 21.5t71 67.5q-29 35 -82.5 102.5t-80.5 99.5q-126 -53 -126 -161q0 -57 35.5 -93.5t97.5 -36.5z" />
<glyph unicode="(" horiz-adv-x="283" d="M54 299q0 154 45 259.5t88 139.5q25 18 43 18q4 0 25 -3l10 -3q-117 -139 -117 -411q0 -265 115 -414q-14 -8 -32 -8q-21 0 -44 17q-16 12 -35 37.5t-43 72t-39.5 124.5t-15.5 171z" />
<glyph unicode=")" horiz-adv-x="281" d="M221 299q0 -93 -15.5 -171t-39.5 -124.5t-43 -72t-35 -37.5q-23 -17 -44 -17q-18 0 -32 8q115 148 115 414q0 272 -117 411l10 3q21 3 25 3q18 0 43 -18q43 -35 88 -139.5t45 -259.5z" />
<glyph unicode="," horiz-adv-x="226" d="M171 35q0 -57 -31 -105t-70 -48q-25 0 -35 31q20 9 39.5 30t24.5 43q-39 27 -39 61q0 26 14 42t40 16q28 0 42.5 -19.5t14.5 -50.5z" />
<glyph unicode="." horiz-adv-x="225" d="M170 47q0 -27 -16 -44.5t-42 -17.5q-25 0 -41 18t-16 44t16.5 44t40.5 18q25 0 41.5 -18t16.5 -44z" />
<glyph unicode="0" d="M509 326q0 -166 -60 -253.5t-174 -87.5q-237 0 -237 341q0 162 61 252.5t179 90.5q116 0 173.5 -88.5t57.5 -254.5zM419 326q0 142 -37 203.5t-106 61.5q-70 0 -108 -61.5t-38 -203.5q0 -265 146 -265q69 0 106 61.5t37 203.5z" />
<glyph unicode="1" d="M358 0h-86v557l-140 -73q-28 33 -28 53q0 21 22 33l130 72q43 23 62 23q26 0 40 -14v-651z" />
<glyph unicode="2" d="M458 481q0 -129 -129 -263q-92 -97 -150 -143h236q31 0 46.5 -15t15.5 -38q0 -13 -3 -22h-416v70q33 25 66.5 54.5t80 76t81.5 90t59.5 94t24.5 91.5q0 114 -119 114q-80 0 -148 -76h-15q-30 33 -30 51q0 16 17 31q12 12 33 26.5t64.5 30.5t87.5 16q88 0 143 -45t55 -143 z" />
<glyph unicode="3" d="M467 190q0 -92 -57 -148t-168 -56q-114 0 -181 51q-20 15 -20 33q0 19 35 65q66 -74 164 -74q58 0 98.5 29.5t40.5 97.5q0 39 -16 65.5t-41.5 38t-45.5 15.5t-38 4h-36v73h36q17 0 35.5 4.5t40 15t35.5 34.5t14 58q0 96 -114 96q-81 0 -150 -69h-13q-33 28 -33 49 q0 30 64 63.5t138 33.5q98 0 147 -45.5t49 -120.5q0 -61 -30.5 -98.5t-66.5 -54.5q113 -45 113 -160z" />
<glyph unicode="4" d="M347 173h-291v67l267 373q36 51 73 51q23 0 37 -10v-409h31q47 0 47 -44q0 -5 -1.5 -14t-1.5 -14h-75v-173h-86v173zM138 246h209v288z" />
<glyph unicode="5" d="M82 343l32 318h330q3 -7 3 -22q0 -35 -16 -46t-47 -11h-202l-17 -169q42 10 78 10q101 0 164.5 -51.5t63.5 -163.5q0 -97 -60 -159.5t-170 -62.5q-68 0 -113 15.5t-65 31.5q-20 15 -20 35q0 21 33 64q24 -27 67.5 -49t100.5 -22t98 35.5t41 106.5q0 146 -159 146 q-57 0 -114 -19z" />
<glyph unicode="6" d="M494 223q0 -112 -59 -175t-153 -63q-110 0 -165 73.5t-55 212.5q0 99 30.5 178.5t79.5 126t105 70.5t113 24q44 0 44 -42q0 -6 -1.5 -17t-1.5 -16q-11 1 -30 1q-59 0 -105.5 -23t-73.5 -59.5t-41 -66t-21 -57.5q65 57 150 57q90 0 137 -64.5t47 -159.5zM405 217 q0 71 -29 114t-89 43q-76 0 -136 -60q-3 -15 -3 -59q0 -35 5.5 -65.5t19 -62t42.5 -50t70 -18.5q55 0 87.5 42.5t32.5 115.5z" />
<glyph unicode="7" d="M490 603l-286 -603h-94l277 580h-333q-2 6 -2 27q0 25 15.5 39.5t45.5 14.5h338q21 0 30 -7t9 -27v-24z" />
<glyph unicode="8" d="M502 183q0 -98 -64 -148t-165 -50q-106 0 -167.5 48.5t-61.5 145.5q0 54 34 102t82 68q-45 20 -69.5 59t-24.5 85q0 82 61.5 129t145.5 47q88 0 147.5 -43.5t59.5 -126.5q0 -47 -25.5 -86t-70.5 -62q53 -18 85.5 -65.5t32.5 -102.5zM415 184q0 57 -38.5 92t-103.5 35 t-104 -36.5t-39 -93.5q0 -59 39 -92t104 -33q64 0 103 34t39 94zM394 494q0 49 -34.5 77t-86.5 28q-53 0 -87.5 -28.5t-34.5 -78.5q0 -45 35.5 -75.5t86.5 -30.5q50 0 85.5 31.5t35.5 76.5z" />
<glyph unicode="9" d="M55 434q0 111 59 173t154 62q107 0 163.5 -74t56.5 -205q0 -191 -94 -298t-225 -107q-27 0 -40 9t-13 32q0 16 2 34q11 -1 30 -1q59 0 106.5 23t74 58.5t40.5 67.5t19 62q-64 -56 -140 -56q-96 0 -144.5 64t-48.5 156zM144 441q0 -156 121 -156q45 0 83.5 24.5t49.5 49.5 q2 24 2 45q0 32 -5.5 61.5t-19 61t-42 50t-69.5 18.5q-55 0 -87.5 -41.5t-32.5 -112.5z" />
<glyph unicode="?" horiz-adv-x="439" d="M205 682q85 0 141 -44.5t56 -130.5q0 -44 -18 -81.5t-44 -63.5t-52.5 -49t-44.5 -48t-18 -50q0 -23 4 -40q-5 -1 -20 -1q-27 0 -41.5 16.5t-14.5 45.5t16.5 56.5t40 50t47 45.5t40 53t16.5 63q0 53 -33 78t-85 25q-80 0 -137 -57h-12q-25 34 -25 52q0 13 17 27 q67 53 167 53zM252 46q0 -26 -16.5 -43.5t-42.5 -17.5q-24 0 -40.5 17.5t-16.5 43.5t16.5 44t40.5 18q26 0 42.5 -17.5t16.5 -44.5z" />
<glyph unicode="@" horiz-adv-x="792" d="M533 88v-37q-23 -6 -42 -6q-36 0 -58.5 18.5t-22.5 58.5v94h-20q-31 0 -61.5 -4t-70 -16t-64 -40.5t-24.5 -71.5q0 -21 7.5 -41.5t27 -42t61 -35t100.5 -13.5q125 0 201 78t76 236q0 142 -86 218t-225 76q-82 0 -150.5 -27.5t-102.5 -56.5h-11q-26 21 -26 44 q0 18 38.5 44.5t110 47.5t146.5 21q182 0 281.5 -103t99.5 -264q0 -176 -95.5 -280t-265.5 -104q-135 0 -201 55t-66 147q0 177 274 190q33 0 44 -1q-3 52 -27 81.5t-83 29.5q-69 0 -124 -41h-15q-19 25 -19 44q0 22 53.5 43.5t114.5 21.5q179 0 179 -169v-142 q0 -30 8.5 -41t37.5 -12z" />
<glyph unicode="A" horiz-adv-x="625" d="M603 0h-91l-67 180h-270l-65 -180h-88l242 663q20 9 49 9q44 0 59 -41zM422 251l-112 319l-113 -319h225z" />
<glyph unicode="B" horiz-adv-x="567" d="M520 192q0 -106 -68.5 -149t-200.5 -43h-173v667q99 9 163 9q134 0 191 -41.5t57 -125.5q0 -62 -30 -101t-67 -55q128 -32 128 -161zM165 72h63q40 0 67.5 2.5t55 9.5t44 20t26.5 35.5t10 53.5q0 117 -170 117h-96v-238zM402 506q0 58 -42.5 78.5t-123.5 20.5 q-51 0 -71 -4v-220h95q64 0 103 33t39 92z" />
<glyph unicode="C" horiz-adv-x="596" d="M544 51q-12 -12 -29.5 -24t-62.5 -27t-96 -15q-148 0 -221.5 94t-73.5 253q0 158 74.5 254t221.5 96q75 0 137 -31.5t62 -63.5q0 -21 -26 -53h-18q-65 71 -155 71q-46 0 -82.5 -15.5t-59 -41t-37.5 -61.5t-21 -73.5t-6 -80.5q0 -55 11 -101.5t34.5 -86.5t66.5 -62.5 t102 -22.5q92 0 157 75q13 -10 24.5 -26.5t11.5 -27.5t-14 -30z" />
<glyph unicode="D" horiz-adv-x="633" d="M581 346q0 -76 -18.5 -137t-58.5 -109t-108 -74t-161 -26h-156v666q89 10 169 10q333 0 333 -330zM491 341q0 123 -54 190.5t-187 67.5q-49 0 -84 -5v-520h83q127 0 184.5 73t57.5 194z" />
<glyph unicode="E" horiz-adv-x="509" d="M165 594v-206h227v-77h-227v-236h254q62 0 62 -54q0 -3 -0.5 -7.5t-0.5 -6.5v-7h-402v669h386q2 -5 2 -13q0 -30 -12.5 -46t-48.5 -16h-240z" />
<glyph unicode="F" horiz-adv-x="475" d="M165 594v-200h227v-76h-227v-318h-87v669h386q2 -5 2 -13q0 -30 -12.5 -46t-49.5 -16h-239z" />
<glyph unicode="G" horiz-adv-x="651" d="M367 58q50 0 87 14.5t53 30.5v176h-140v71h223v-283q-20 -26 -82.5 -54t-149.5 -28q-148 0 -222.5 95.5t-74.5 256.5q0 157 76 251t227 94q70 0 132 -30t62 -62q0 -22 -26 -54h-17q-22 27 -63 48t-94 21q-59 0 -101 -22.5t-64.5 -61.5t-32.5 -84.5t-10 -99.5 q0 -56 11 -103.5t35 -88t68 -64t103 -23.5z" />
<glyph unicode="H" horiz-adv-x="650" d="M166 609v-223h318v284q3 0 11 1t14 1q24 0 43 -14t19 -49v-609h-87v310h-318v-310h-87v670q3 0 11 1t14 1q62 0 62 -63z" />
<glyph unicode="I" horiz-adv-x="240" d="M164 609v-609h-88v670q3 0 11 1t14 1q24 0 43.5 -14t19.5 -49z" />
<glyph unicode="J" horiz-adv-x="248" d="M171 611v-542q0 -35 -2 -60.5t-11 -63.5t-25.5 -62.5t-49 -42.5t-77.5 -18q-53 0 -53 49q0 17 1 24q72 0 101 28.5t29 97.5v648q7 3 24 3q63 0 63 -61z" />
<glyph unicode="K" horiz-adv-x="562" d="M427 29l-243 311v32l239 267q27 31 56 31q27 0 58 -21l-259 -289l278 -356q-27 -12 -55 -12q-44 0 -74 37zM166 609v-609h-87v670q4 0 11.5 1t12.5 1q24 0 43.5 -14t19.5 -49z" />
<glyph unicode="L" horiz-adv-x="479" d="M78 0v670q3 0 11 1t14 1q24 0 43 -14t19 -49v-533h232q31 0 45.5 -15t14.5 -38q0 -4 -0.5 -9t-0.5 -7v-7h-378z" />
<glyph unicode="M" horiz-adv-x="794" d="M155 672q36 0 54 -37l186 -404l186 402q18 39 60 39q26 0 44 -6l47 -666h-82l-36 526l-178 -374h-85l-169 357l-37 -509h-83l50 666q18 6 43 6z" />
<glyph unicode="N" horiz-adv-x="660" d="M176 639l324 -506v537q1 0 9 1t15 1q57 0 57 -63v-609h-81l-340 519v-519h-81v667q13 5 39 5q21 0 34 -7.5t24 -25.5z" />
<glyph unicode="O" horiz-adv-x="699" d="M638 338q0 -155 -72.5 -254t-219.5 -99q-75 0 -131 28.5t-89 78.5t-49 111.5t-16 133.5q0 71 17.5 132t52 109.5t92.5 76t132 27.5q142 0 212.5 -95.5t70.5 -248.5zM547 337q0 119 -46 192t-148 73q-106 0 -153 -73t-47 -192q0 -121 47 -198t150 -77t150 77t47 198z" />
<glyph unicode="P" horiz-adv-x="538" d="M501 481q0 -120 -73.5 -172t-191.5 -52h-71v-257h-87v667q88 9 158 9q136 0 200.5 -48.5t64.5 -146.5zM411 476q0 127 -168 127q-50 0 -81 -4h2v-269h40q107 0 157 30.5t50 115.5z" />
<glyph unicode="Q" horiz-adv-x="705" d="M641 338q0 -155 -72.5 -254t-219.5 -99q-75 0 -131 28.5t-89 78.5t-49 111.5t-16 133.5q0 71 17.5 132t52 109.5t92.5 76t132 27.5q142 0 212.5 -95.5t70.5 -248.5zM550 337q0 119 -46 192t-148 73q-106 0 -153 -73t-47 -192q0 -121 47 -198t150 -77t150 77t47 198z M595 -114q0 -35 -17 -56.5t-44 -21.5q-44 0 -97 39.5t-81 79.5q6 10 18 19t23 9q15 0 34.5 -10.5t37 -23t51.5 -23.5t75 -12z" />
<glyph unicode="R" horiz-adv-x="556" d="M493 485q0 -79 -42 -130t-105 -65l183 -290q-17 -9 -47 -9q-46 0 -71 39l-156 244h-89v-274h-87v667q62 9 157 9q136 0 196.5 -46t60.5 -145zM402 480q0 70 -41 96t-123 26q-48 0 -75 -4h2v-250h72q165 0 165 132z" />
<glyph unicode="S" horiz-adv-x="496" d="M57 126q80 -65 172 -65q71 0 103.5 33t32.5 82q0 54 -31.5 83t-100.5 50q-44 14 -72 26t-58.5 33t-45 53.5t-14.5 76.5q0 87 59.5 135.5t154.5 48.5q64 0 127 -24.5t63 -60.5q0 -21 -33 -54q-72 62 -157 62q-64 0 -94 -28.5t-30 -71.5q0 -47 34.5 -71.5t112.5 -49.5 q80 -25 127.5 -70t47.5 -125q0 -97 -62 -150.5t-164 -53.5q-78 0 -140 24t-62 57q0 23 30 60z" />
<glyph unicode="T" horiz-adv-x="540" d="M223 0v593h-212l-2 9q-1 5 -1 19q0 20 16 34t45 14h459q0 -3 1 -11t1 -12q0 -23 -16 -38t-45 -15h-158v-593h-88z" />
<glyph unicode="U" horiz-adv-x="637" d="M161 609v-355q0 -91 35 -141t119 -50q88 0 124.5 43.5t36.5 147.5v416q3 0 11 1t14 1q24 0 43 -14t19 -49v-343q0 -49 -5.5 -87t-21.5 -76t-42.5 -62.5t-72.5 -40t-108 -15.5q-131 0 -185 70.5t-54 207.5v407q4 0 11.5 1t12.5 1q24 0 43.5 -14t19.5 -49z" />
<glyph unicode="V" horiz-adv-x="583" d="M574 667l-240 -672h-91l-234 672q15 5 46 5q49 0 67 -56l168 -529l177 529q19 56 69 56q16 0 38 -5z" />
<glyph unicode="W" horiz-adv-x="878" d="M867 667l-213 -672h-87l-124 405l-123 -405h-87l-222 671q18 6 44 6q48 0 65 -55l161 -519l123 413l-43 156q22 5 41 5q46 0 63 -56l146 -514l153 513q17 57 63 57q18 0 40 -5z" />
<glyph unicode="X" horiz-adv-x="561" d="M417 38l-139 229l-157 -267h-95l203 337l-186 323q29 12 52 12q42 0 66 -44l122 -221l131 220q26 44 69 44q26 0 45 -11l-195 -322l205 -338q-23 -10 -47 -10q-26 0 -42.5 11.5t-31.5 36.5z" />
<glyph unicode="Y" horiz-adv-x="524" d="M521 664l-215 -387v-277h-88v275l-215 387q19 11 52 11q24 0 37.5 -9.5t25.5 -31.5l145 -275l145 267q29 48 67 48q19 0 46 -8z" />
<glyph unicode="Z" horiz-adv-x="521" d="M102 669h358q36 0 36 -34v-28l-376 -532h320q31 0 46 -15t15 -38q0 -13 -3 -22h-483v64l370 530h-341l-2 9q-1 5 -1 19q0 20 16 33.5t45 13.5z" />
<glyph unicode="`" horiz-adv-x="365" d="M180 566l-101 109q30 24 57 24t53 -35l84 -110q-22 -16 -42 -16q-26 0 -51 28z" />
<glyph unicode="a" horiz-adv-x="504" d="M425 306v-197q0 -46 9 -57t40 -11v-40q-21 -7 -49 -7q-74 0 -81 57q-60 -60 -152 -60q-62 0 -106 32t-44 108q0 49 25.5 84.5t67.5 53t81.5 25t82.5 8.5q30 0 42 -1v15q0 47 -23 69.5t-81 22.5q-74 0 -136 -43h-10q-19 29 -19 52q0 25 56 44.5t119 19.5q99 0 138.5 -42 t39.5 -133zM342 135v102h-29q-186 0 -186 -101q0 -76 85 -76q49 0 89.5 25t40.5 50z" />
<glyph unicode="b" horiz-adv-x="539" d="M159 644v-214q51 51 137 51q85 0 138.5 -58.5t53.5 -181.5q0 -71 -18 -123.5t-49 -80t-64.5 -40t-70.5 -12.5q-50 0 -82.5 17.5t-46.5 37.5v-40h-83v709h6q1 0 5.5 0.5t6.5 0.5q67 0 67 -66zM397 236q0 173 -127 173q-48 0 -79.5 -20.5t-31.5 -50.5v-225q15 -20 45 -37.5 t68 -17.5q125 0 125 178z" />
<glyph unicode="c" horiz-adv-x="463" d="M282 57q70 0 117 56q33 -33 33 -55q0 -24 -45.5 -48.5t-116.5 -24.5q-29 0 -56 5t-58 21.5t-54 43t-38.5 72.5t-15.5 107q0 70 23.5 121t60.5 77t73 37.5t70 11.5q66 0 111 -25t45 -51q0 -20 -24 -53h-11q-47 55 -117 55q-72 0 -107.5 -47.5t-35.5 -124.5 q0 -80 35.5 -129t110.5 -49z" />
<glyph unicode="d" horiz-adv-x="538" d="M464 644v-644h-83v40q-55 -55 -132 -55q-87 0 -142.5 58.5t-55.5 184.5q0 125 57.5 189t142.5 64q75 0 128 -49v277h6q1 0 5.5 0.5t6.5 0.5q67 0 67 -66zM141 238q0 -181 127 -181q47 0 79 20.5t32 45.5l1 234q-51 51 -116 51q-58 0 -90.5 -43.5t-32.5 -126.5z" />
<glyph unicode="e" horiz-adv-x="498" d="M284 57q83 0 132 57q28 -35 28 -55q0 -27 -49.5 -50.5t-118.5 -23.5q-102 0 -165 61t-63 193q0 119 63 180.5t152 61.5q96 0 144 -59t48 -147q0 -39 -3 -56h-316q3 -76 39.5 -119t108.5 -43zM136 283h234q0 128 -111 128q-52 0 -85.5 -34.5t-37.5 -93.5z" />
<glyph unicode="f" horiz-adv-x="337" d="M363 598h-13q-38 46 -97 46q-47 0 -71 -25.5t-24 -83.5v-65h168v-73h-168v-397h-85v522q0 96 45 145.5t130 49.5q58 0 99 -22.5t41 -44.5q0 -21 -25 -52z" />
<glyph unicode="g" horiz-adv-x="538" d="M464 471v-438q0 -130 -50 -193.5t-178 -63.5q-76 0 -124.5 23.5t-48.5 49.5q0 20 32 55q4 -6 20.5 -17.5t50.5 -24.5t70 -13q88 0 116.5 45.5t28.5 138.5v7q-55 -55 -132 -55q-87 0 -142.5 58.5t-55.5 184.5q0 125 56 189t142 64q83 0 132 -51q5 20 22 31.5t36 11.5 q6 0 13.5 -1t11.5 -1zM141 238q0 -181 127 -181q47 0 79 20.5t32 45.5l1 234q-51 51 -116 51q-58 0 -90.5 -43.5t-32.5 -126.5z" />
<glyph unicode="h" horiz-adv-x="544" d="M385 0v281q0 65 -18 94t-82 29q-55 0 -90.5 -22t-35.5 -50v-332h-85v709h5q1 0 5.5 0.5t6.5 0.5q67 0 67 -66v-222q53 59 151 59q43 0 73.5 -12t47 -30t26 -46.5t12 -52t2.5 -56.5v-284h-85z" />
<glyph unicode="i" horiz-adv-x="241" d="M73 97v378h6q1 0 5.5 0.5t6.5 0.5q67 0 67 -67v-319q0 -31 9 -42t39 -11v-36q-21 -7 -55 -7q-27 0 -44 8.5t-24 25.5t-8.5 31t-1.5 38zM166 624q0 -23 -15.5 -38.5t-38.5 -15.5t-38.5 15.5t-15.5 38.5q0 25 15.5 41t38.5 16t38.5 -16t15.5 -41z" />
<glyph unicode="j" horiz-adv-x="234" d="M80 -48v523h6q1 0 5.5 0.5t6.5 0.5q67 0 67 -68v-455q0 -56 -14.5 -94.5t-38.5 -54.5t-43.5 -22t-39.5 -6q-31 0 -40.5 17t-9.5 49q58 2 79.5 27.5t21.5 82.5zM175 624q0 -23 -15.5 -38.5t-38.5 -15.5t-38.5 15.5t-15.5 38.5q0 25 15.5 41t38.5 16t38.5 -16t15.5 -41z " />
<glyph unicode="k" horiz-adv-x="492" d="M159 0h-85v709h6q1 0 5.5 0.5t6.5 0.5q67 0 67 -67v-643zM367 28l-185 218v33l172 171q29 26 57 26q22 0 51 -21l-192 -189l222 -265q-24 -9 -50 -9q-45 0 -75 36z" />
<glyph unicode="l" horiz-adv-x="241" d="M158 643v-549q0 -33 7.5 -45t40.5 -12v-36q-21 -7 -55 -7q-27 0 -44 8.5t-24 25.5t-8.5 31t-1.5 38v612h6q1 0 5.5 0.5t6.5 0.5q67 0 67 -67z" />
<glyph unicode="m" horiz-adv-x="817" d="M305 481q39 0 76 -16t55 -46q58 62 153 62q49 0 81 -15.5t47 -45.5t20.5 -61t5.5 -75v-284h-85v281q0 32 -2.5 50.5t-12 37.5t-30.5 27t-55 8q-31 0 -60 -13.5t-44 -31.5q4 -31 4 -74v-285h-85v281q0 64 -20.5 93.5t-78.5 29.5q-43 0 -79 -22t-36 -47v-335h-85v472h6 q2 0 6.5 0.5t6.5 0.5q56 0 63 -51q57 59 149 59z" />
<glyph unicode="n" horiz-adv-x="543" d="M91 473q57 0 64 -51q59 59 156 59q50 0 83 -15.5t48.5 -45.5t21 -61t5.5 -75v-284h-85v281q0 65 -18 94t-82 29q-55 0 -90 -21.5t-35 -49.5v-333h-85v472h5q1 0 5.5 0.5t6.5 0.5z" />
<glyph unicode="o" horiz-adv-x="536" d="M488 237q0 -108 -54.5 -180t-166.5 -72t-165.5 69.5t-53.5 179.5q0 106 58.5 176.5t164.5 70.5q110 0 163.5 -69t53.5 -175zM398 236q0 171 -129 171q-70 0 -101 -49.5t-31 -121.5q0 -34 6 -63.5t19.5 -56.5t40.5 -43t64 -16q131 0 131 179z" />
<glyph unicode="p" horiz-adv-x="539" d="M93 473q54 0 65 -48q45 56 138 56q85 0 138.5 -58.5t53.5 -181.5q0 -71 -18 -123.5t-49 -80t-64.5 -40t-70.5 -12.5q-88 0 -127 52v-253h-85v688h6q2 0 6 0.5t7 0.5zM397 236q0 173 -127 173q-47 0 -79 -20t-32 -48v-228q15 -20 45 -37.5t68 -17.5q125 0 125 178z" />
<glyph unicode="q" horiz-adv-x="538" d="M464 471v-687h-85v254q-53 -53 -127 -53q-90 0 -145.5 59.5t-55.5 182.5q0 133 60.5 193.5t142.5 60.5q46 0 78.5 -17t48.5 -35q11 44 58 44q6 0 13.5 -1t11.5 -1zM141 234q0 -177 132 -177q43 0 74.5 21.5t31.5 41.5v238q-41 50 -108 50q-130 0 -130 -174z" />
<glyph unicode="r" horiz-adv-x="348" d="M92 473q57 0 64 -50q16 24 44.5 41t62.5 17q72 0 72 -42q0 -30 -24 -65q-27 25 -66 25q-34 0 -60 -20.5t-26 -46.5v-332h-85v472h7q2 0 6 0.5t5 0.5z" />
<glyph unicode="s" horiz-adv-x="419" d="M330 454q34 -19 34 -39q0 -21 -19 -54l-14 -1q-18 22 -51 37t-68 15q-34 0 -61.5 -13.5t-27.5 -46.5q0 -23 18.5 -38t47 -22.5t61 -18.5t61 -25t47 -43t18.5 -71q0 -70 -53 -109t-130 -39q-50 0 -87 10.5t-52.5 24t-15.5 26.5q0 19 25 59q61 -51 133 -51q96 0 96 72 q0 33 -26 51.5t-63 27.5t-74 20.5t-63 41.5t-26 79q0 63 49.5 98.5t120.5 35.5q75 0 120 -27z" />
<glyph unicode="t" horiz-adv-x="356" d="M82 60q-10 28 -10 86v468h6q1 0 5.5 0.5t6.5 0.5q67 0 67 -65v-80h149v-72h-149v-258q0 -82 65 -82q27 0 51.5 16t31.5 27q29 -36 29 -56t-36 -40t-89 -20q-100 0 -127 75z" />
<glyph unicode="u" horiz-adv-x="537" d="M256 59q50 0 86 24.5t36 47.5v344h6q1 0 5.5 0.5t6.5 0.5q67 0 67 -67v-409h-85v44q-51 -59 -149 -59q-45 0 -76 12.5t-47 29.5t-24.5 46t-10 49.5t-1.5 52.5v300h6q1 0 5.5 0.5t6.5 0.5q67 0 67 -66v-235q0 -71 24 -93.5t77 -22.5z" />
<glyph unicode="v" horiz-adv-x="473" d="M458 464l-180 -468h-87l-176 469q24 8 45 8q28 0 42.5 -16.5t27.5 -55.5l107 -318l109 314q14 42 28 59t44 17q24 0 40 -9z" />
<glyph unicode="w" horiz-adv-x="694" d="M679 465l-143 -469h-85l-94 243l-103 -243h-76l-163 470q26 7 44 7q47 0 63 -52l103 -330l96 235l-51 141q20 6 40 6q44 0 62 -48l120 -335l82 317q16 66 64 66q19 0 41 -8z" />
<glyph unicode="x" horiz-adv-x="437" d="M132 437l89 -142l90 135q30 46 72 46q24 0 44 -9l-160 -234l159 -232q-18 -8 -46 -8q-45 0 -68 34l-97 142l-91 -139q-24 -37 -74 -37q-25 0 -40 7l159 233l-153 235q32 8 49 8q25 0 39.5 -9t27.5 -30z" />
<glyph unicode="y" horiz-adv-x="466" d="M451 464l-182 -529q-27 -78 -62.5 -118.5t-106.5 -40.5q-89 0 -89 45q0 24 23 55q32 -26 66 -26t55.5 25t39.5 81l14 45h-34l-162 464q22 8 44 8q48 0 66 -57l110 -341l110 332q18 66 71 66q20 0 37 -9z" />
<glyph unicode="z" horiz-adv-x="428" d="M405 0h-375v62l259 337h-255q0 74 66 74h254q42 0 42 -35v-24l-264 -340h207q35 0 50.5 -17t15.5 -57z" />
<glyph unicode="&#xa3;" d="M131 0v286h-71v71h70v124q0 96 57.5 142t146.5 46q64 0 119 -26.5t55 -56.5q0 -23 -30 -53h-10q-53 61 -132 61q-120 0 -120 -121v-116h211v-71h-211v-211h233q60 0 60 -52q0 -4 -0.5 -9t-0.5 -7v-7h-377z" />
<glyph unicode="&#xa8;" horiz-adv-x="383" d="M153 608q0 -23 -14 -38t-37 -15t-37 15t-14 38t14.5 38.5t36.5 15.5t36.5 -15.5t14.5 -38.5zM332 608q0 -23 -14 -38t-37 -15t-37 15t-14 38t14.5 38.5t36.5 15.5t36.5 -15.5t14.5 -38.5z" />
<glyph unicode="&#xb8;" horiz-adv-x="363" d="M244 -121q0 -42 -29 -66.5t-66 -24.5q-35 0 -35 31q0 17 5 33q11 -5 26 -5q36 0 36 25q0 15 -20 35.5t-20 39.5q0 22 29 62h59q-29 -29 -29 -44q0 -13 22 -35t22 -51z" />
<glyph unicode="&#xc5;" horiz-adv-x="625" d="M603 0h-91l-67 180h-270l-65 -180h-88l242 663q20 9 49 9q44 0 59 -41zM422 251l-112 319l-113 -319h225zM419 746q0 -46 -29 -77.5t-77 -31.5t-77 31t-29 77q0 47 29 78.5t77 31.5t77 -30t29 -79zM367 745q0 62 -55 62q-25 0 -38.5 -18t-13.5 -43t14 -42.5t39 -17.5 t39.5 17t14.5 42z" />
<glyph unicode="&#xdf;" horiz-adv-x="569" d="M381 556q0 42 -28 64.5t-81 22.5q-59 0 -86 -29.5t-27 -90.5v-523h-85v516q0 99 51.5 150t146.5 51q85 0 140.5 -40t55.5 -110q0 -36 -19 -69t-42 -53t-42 -44t-19 -45q0 -27 16.5 -43t59.5 -38q35 -18 54.5 -31.5t36.5 -42t17 -66.5q0 -67 -44 -108t-127 -41 q-51 0 -88.5 11.5t-53 26t-15.5 27.5q0 16 30 57q62 -52 126 -52q90 0 90 71q0 27 -19.5 46t-47 32t-55.5 28t-47.5 41t-19.5 62q0 30 12.5 55t30.5 43t36 35.5t30.5 39.5t12.5 47z" />
<glyph unicode="&#xe4;" horiz-adv-x="504" d="M425 306v-197q0 -46 9 -57t40 -11v-40q-21 -7 -49 -7q-74 0 -81 57q-60 -60 -152 -60q-62 0 -106 32t-44 108q0 49 25.5 84.5t67.5 53t81.5 25t82.5 8.5q30 0 42 -1v15q0 47 -23 69.5t-81 22.5q-74 0 -136 -43h-10q-19 29 -19 52q0 25 56 44.5t119 19.5q99 0 138.5 -42 t39.5 -133zM342 135v102h-29q-186 0 -186 -101q0 -76 85 -76q49 0 89.5 25t40.5 50zM211 608q0 -23 -14 -38t-37 -15t-37 15t-14 38t14.5 38.5t36.5 15.5t36.5 -15.5t14.5 -38.5zM390 608q0 -23 -14 -38t-37 -15t-37 15t-14 38t14.5 38.5t36.5 15.5t36.5 -15.5t14.5 -38.5z " />
<glyph unicode="&#xe7;" horiz-adv-x="463" d="M282 57q70 0 117 56q33 -33 33 -55q0 -24 -45.5 -48.5t-116.5 -24.5q-29 0 -56 5t-58 21.5t-54 43t-38.5 72.5t-15.5 107q0 70 23.5 121t60.5 77t73 37.5t70 11.5q66 0 111 -25t45 -51q0 -20 -24 -53h-11q-47 55 -117 55q-72 0 -107.5 -47.5t-35.5 -124.5 q0 -80 35.5 -129t110.5 -49zM318 -121q0 -42 -29 -66.5t-66 -24.5q-35 0 -35 31q0 17 5 33q11 -5 26 -5q36 0 36 25q0 15 -20 35.5t-20 39.5q0 22 29 62h59q-29 -29 -29 -44q0 -13 22 -35t22 -51z" />
<glyph unicode="&#xee;" horiz-adv-x="241" d="M73 97v378h6q1 0 5.5 0.5t6.5 0.5q67 0 67 -67v-319q0 -31 9 -42t39 -11v-36q-21 -7 -55 -7q-27 0 -44 8.5t-24 25.5t-8.5 31t-1.5 38zM172 557l-59 64l-59 -66q-17 -20 -42 -20q-21 0 -36 15l88 116q21 28 50 28q27 0 48 -27l92 -120q-19 -12 -37 -12q-24 0 -45 22z" />
<glyph unicode="&#xf5;" horiz-adv-x="536" d="M488 237q0 -108 -54.5 -180t-166.5 -72t-165.5 69.5t-53.5 179.5q0 106 58.5 176.5t164.5 70.5q110 0 163.5 -69t53.5 -175zM398 236q0 171 -129 171q-70 0 -101 -49.5t-31 -121.5q0 -34 6 -63.5t19.5 -56.5t40.5 -43t64 -16q131 0 131 179zM396 662q35 -21 35 -42 q0 -22 -28.5 -44.5t-64.5 -22.5q-27 0 -66.5 16.5t-59.5 16.5q-35 0 -71 -43q-28 21 -28 40q0 23 35.5 44.5t65.5 21.5q26 0 62 -16.5t57 -16.5q33 0 63 46z" />
<glyph unicode="&#xf9;" horiz-adv-x="536" d="M256 59q50 0 86 24.5t36 47.5v344h6q1 0 5.5 0.5t6.5 0.5q67 0 67 -67v-409h-85v44q-51 -59 -149 -59q-45 0 -76 12.5t-47 29.5t-24.5 46t-10 49.5t-1.5 52.5v300h6q1 0 5.5 0.5t6.5 0.5q67 0 67 -66v-235q0 -71 24 -93.5t77 -22.5zM230 566l-101 109q30 24 57 24t53 -35 l84 -110q-22 -16 -42 -16q-26 0 -51 28z" />
<glyph unicode="&#x2da;" horiz-adv-x="361" d="M286 601q0 -46 -29 -77.5t-77 -31.5t-77 31t-29 77q0 47 29 78.5t77 31.5t77 -30t29 -79zM234 600q0 62 -55 62q-25 0 -38.5 -18t-13.5 -43t14 -42.5t39 -17.5t39.5 17t14.5 42z" />
<glyph unicode="&#x391;" horiz-adv-x="625" d="M603 0h-91l-67 180h-270l-65 -180h-88l242 663q20 9 49 9q44 0 59 -41zM422 251l-112 319l-113 -319h225z" />
<glyph unicode="&#x392;" horiz-adv-x="567" d="M520 192q0 -106 -68.5 -149t-200.5 -43h-173v667q99 9 163 9q134 0 191 -41.5t57 -125.5q0 -62 -30 -101t-67 -55q128 -32 128 -161zM165 72h63q40 0 67.5 2.5t55 9.5t44 20t26.5 35.5t10 53.5q0 117 -170 117h-96v-238zM402 506q0 58 -42.5 78.5t-123.5 20.5 q-51 0 -71 -4v-220h95q64 0 103 33t39 92z" />
<glyph unicode="&#x393;" horiz-adv-x="475" d="M165 594v-594h-87v669h386q2 -5 2 -13q0 -30 -12.5 -46t-49.5 -16h-239z" />
<glyph unicode="&#x395;" horiz-adv-x="509" d="M165 594v-206h227v-77h-227v-236h254q62 0 62 -54q0 -3 -0.5 -7.5t-0.5 -6.5v-7h-402v669h386q2 -5 2 -13q0 -30 -12.5 -46t-48.5 -16h-240z" />
<glyph unicode="&#x396;" horiz-adv-x="521" d="M102 669h358q36 0 36 -34v-28l-376 -532h320q31 0 46 -15t15 -38q0 -13 -3 -22h-483v64l370 530h-341l-2 9q-1 5 -1 19q0 20 16 33.5t45 13.5z" />
<glyph unicode="&#x397;" horiz-adv-x="650" d="M166 609v-223h318v284q3 0 11 1t14 1q24 0 43 -14t19 -49v-609h-87v310h-318v-310h-87v670q3 0 11 1t14 1q62 0 62 -63z" />
<glyph unicode="&#x399;" horiz-adv-x="240" d="M164 609v-609h-88v670q3 0 11 1t14 1q24 0 43.5 -14t19.5 -49z" />
<glyph unicode="&#x39a;" horiz-adv-x="562" d="M427 29l-243 311v32l239 267q27 31 56 31q27 0 58 -21l-259 -289l278 -356q-27 -12 -55 -12q-44 0 -74 37zM166 609v-609h-87v670q4 0 11.5 1t12.5 1q24 0 43.5 -14t19.5 -49z" />
<glyph unicode="&#x39b;" horiz-adv-x="583" d="M9 0l240 672h91l234 -672q-15 -5 -46 -5q-49 0 -67 56l-168 529l-177 -529q-19 -56 -69 -56q-16 0 -38 5z" />
<glyph unicode="&#x39c;" horiz-adv-x="794" d="M155 672q36 0 54 -37l186 -404l186 402q18 39 60 39q26 0 44 -6l47 -666h-82l-36 526l-178 -374h-85l-169 357l-37 -509h-83l50 666q18 6 43 6z" />
<glyph unicode="&#x39d;" horiz-adv-x="660" d="M176 639l324 -506v537q1 0 9 1t15 1q57 0 57 -63v-609h-81l-340 519v-519h-81v667q13 5 39 5q21 0 34 -7.5t24 -25.5z" />
<glyph unicode="&#x39f;" horiz-adv-x="699" d="M638 338q0 -155 -72.5 -254t-219.5 -99q-75 0 -131 28.5t-89 78.5t-49 111.5t-16 133.5q0 71 17.5 132t52 109.5t92.5 76t132 27.5q142 0 212.5 -95.5t70.5 -248.5zM547 337q0 119 -46 192t-148 73q-106 0 -153 -73t-47 -192q0 -121 47 -198t150 -77t150 77t47 198z" />
<glyph unicode="&#x3a1;" horiz-adv-x="538" d="M501 481q0 -120 -73.5 -172t-191.5 -52h-71v-257h-87v667q88 9 158 9q136 0 200.5 -48.5t64.5 -146.5zM411 476q0 127 -168 127q-50 0 -81 -4h2v-269h40q107 0 157 30.5t50 115.5z" />
<glyph unicode="&#x3a4;" horiz-adv-x="540" d="M223 0v593h-212l-2 9q-1 5 -1 19q0 20 16 34t45 14h459q0 -3 1 -11t1 -12q0 -23 -16 -38t-45 -15h-158v-593h-88z" />
<glyph unicode="&#x3a5;" horiz-adv-x="524" d="M521 664l-215 -387v-277h-88v275l-215 387q19 11 52 11q24 0 37.5 -9.5t25.5 -31.5l145 -275l145 267q29 48 67 48q19 0 46 -8z" />
<glyph unicode="&#x3a7;" horiz-adv-x="561" d="M417 38l-139 229l-157 -267h-95l203 337l-186 323q29 12 52 12q42 0 66 -44l122 -221l131 220q26 44 69 44q26 0 45 -11l-195 -322l205 -338q-23 -10 -47 -10q-26 0 -42.5 11.5t-31.5 36.5z" />
<glyph unicode="&#x405;" horiz-adv-x="496" d="M57 126q80 -65 172 -65q71 0 103.5 33t32.5 82q0 54 -31.5 83t-100.5 50q-44 14 -72 26t-58.5 33t-45 53.5t-14.5 76.5q0 87 59.5 135.5t154.5 48.5q64 0 127 -24.5t63 -60.5q0 -21 -33 -54q-72 62 -157 62q-64 0 -94 -28.5t-30 -71.5q0 -47 34.5 -71.5t112.5 -49.5 q80 -25 127.5 -70t47.5 -125q0 -97 -62 -150.5t-164 -53.5q-78 0 -140 24t-62 57q0 23 30 60z" />
<glyph unicode="&#x406;" horiz-adv-x="240" d="M164 609v-609h-88v670q3 0 11 1t14 1q24 0 43.5 -14t19.5 -49z" />
<glyph unicode="&#x408;" horiz-adv-x="248" d="M171 611v-542q0 -35 -2 -60.5t-11 -63.5t-25.5 -62.5t-49 -42.5t-77.5 -18q-53 0 -53 49q0 17 1 24q72 0 101 28.5t29 97.5v648q7 3 24 3q63 0 63 -61z" />
<glyph unicode="&#x410;" horiz-adv-x="625" d="M603 0h-91l-67 180h-270l-65 -180h-88l242 663q20 9 49 9q44 0 59 -41zM422 251l-112 319l-113 -319h225z" />
<glyph unicode="&#x412;" horiz-adv-x="567" d="M520 192q0 -106 -68.5 -149t-200.5 -43h-173v667q99 9 163 9q134 0 191 -41.5t57 -125.5q0 -62 -30 -101t-67 -55q128 -32 128 -161zM165 72h63q40 0 67.5 2.5t55 9.5t44 20t26.5 35.5t10 53.5q0 117 -170 117h-96v-238zM402 506q0 58 -42.5 78.5t-123.5 20.5 q-51 0 -71 -4v-220h95q64 0 103 33t39 92z" />
<glyph unicode="&#x415;" horiz-adv-x="509" d="M165 594v-206h227v-77h-227v-236h254q62 0 62 -54q0 -3 -0.5 -7.5t-0.5 -6.5v-7h-402v669h386q2 -5 2 -13q0 -30 -12.5 -46t-48.5 -16h-240z" />
<glyph unicode="&#x417;" d="M467 190q0 -92 -57 -148t-168 -56q-114 0 -181 51q-20 15 -20 33q0 19 35 65q66 -74 164 -74q58 0 98.5 29.5t40.5 97.5q0 39 -16 65.5t-41.5 38t-45.5 15.5t-38 4h-36v73h36q17 0 35.5 4.5t40 15t35.5 34.5t14 58q0 96 -114 96q-81 0 -150 -69h-13q-33 28 -33 49 q0 30 64 63.5t138 33.5q98 0 147 -45.5t49 -120.5q0 -61 -30.5 -98.5t-66.5 -54.5q113 -45 113 -160z" />
<glyph unicode="&#x418;" horiz-adv-x="660" d="M160 133l324 506q11 18 24 25.5t34 7.5q26 0 39 -5v-667h-81v519l-340 -519h-81v609q0 63 57 63q7 0 15 -1t9 -1v-537z" />
<glyph unicode="&#x41a;" horiz-adv-x="562" d="M427 29l-243 311v32l239 267q27 31 56 31q27 0 58 -21l-259 -289l278 -356q-27 -12 -55 -12q-44 0 -74 37zM166 609v-609h-87v670q4 0 11.5 1t12.5 1q24 0 43.5 -14t19.5 -49z" />
<glyph unicode="&#x41c;" horiz-adv-x="794" d="M155 672q36 0 54 -37l186 -404l186 402q18 39 60 39q26 0 44 -6l47 -666h-82l-36 526l-178 -374h-85l-169 357l-37 -509h-83l50 666q18 6 43 6z" />
<glyph unicode="&#x41d;" horiz-adv-x="650" d="M166 609v-223h318v284q3 0 11 1t14 1q24 0 43 -14t19 -49v-609h-87v310h-318v-310h-87v670q3 0 11 1t14 1q62 0 62 -63z" />
<glyph unicode="&#x41e;" horiz-adv-x="699" d="M638 338q0 -155 -72.5 -254t-219.5 -99q-75 0 -131 28.5t-89 78.5t-49 111.5t-16 133.5q0 71 17.5 132t52 109.5t92.5 76t132 27.5q142 0 212.5 -95.5t70.5 -248.5zM547 337q0 119 -46 192t-148 73q-106 0 -153 -73t-47 -192q0 -121 47 -198t150 -77t150 77t47 198z" />
<glyph unicode="&#x420;" horiz-adv-x="538" d="M501 481q0 -120 -73.5 -172t-191.5 -52h-71v-257h-87v667q88 9 158 9q136 0 200.5 -48.5t64.5 -146.5zM411 476q0 127 -168 127q-50 0 -81 -4h2v-269h40q107 0 157 30.5t50 115.5z" />
<glyph unicode="&#x421;" horiz-adv-x="596" d="M544 51q-12 -12 -29.5 -24t-62.5 -27t-96 -15q-148 0 -221.5 94t-73.5 253q0 158 74.5 254t221.5 96q75 0 137 -31.5t62 -63.5q0 -21 -26 -53h-18q-65 71 -155 71q-46 0 -82.5 -15.5t-59 -41t-37.5 -61.5t-21 -73.5t-6 -80.5q0 -55 11 -101.5t34.5 -86.5t66.5 -62.5 t102 -22.5q92 0 157 75q13 -10 24.5 -26.5t11.5 -27.5t-14 -30z" />
<glyph unicode="&#x422;" horiz-adv-x="540" d="M223 0v593h-212l-2 9q-1 5 -1 19q0 20 16 34t45 14h459q0 -3 1 -11t1 -12q0 -23 -16 -38t-45 -15h-158v-593h-88z" />
<glyph unicode="&#x425;" horiz-adv-x="561" d="M417 38l-139 229l-157 -267h-95l203 337l-186 323q29 12 52 12q42 0 66 -44l122 -221l131 220q26 44 69 44q26 0 45 -11l-195 -322l205 -338q-23 -10 -47 -10q-26 0 -42.5 11.5t-31.5 36.5z" />
<glyph unicode="&#x42c;" horiz-adv-x="538" d="M501 195q0 -98 -64.5 -146.5t-200.5 -48.5q-70 0 -158 9v667h87v-257h71q118 0 191.5 -52t73.5 -172zM411 200q0 85 -50 115.5t-157 30.5h-40v-269h-2q31 -4 81 -4q168 0 168 127z" />
<glyph unicode="&#x42f;" horiz-adv-x="556" d="M115 485q0 99 60.5 145t196.5 46q95 0 157 -9v-667h-87v274h-89l-156 -244q-26 -39 -71 -39q-30 0 -47 9l183 290q-63 14 -105 65t-42 130zM206 480q0 -132 165 -132h72v250h2q-27 4 -75 4q-82 0 -123 -26t-41 -96z" />
<glyph unicode="&#x430;" horiz-adv-x="504" d="M425 306v-197q0 -46 9 -57t40 -11v-40q-21 -7 -49 -7q-74 0 -81 57q-60 -60 -152 -60q-62 0 -106 32t-44 108q0 49 25.5 84.5t67.5 53t81.5 25t82.5 8.5q30 0 42 -1v15q0 47 -23 69.5t-81 22.5q-74 0 -136 -43h-10q-19 29 -19 52q0 25 56 44.5t119 19.5q99 0 138.5 -42 t39.5 -133zM342 135v102h-29q-186 0 -186 -101q0 -76 85 -76q49 0 89.5 25t40.5 50z" />
<glyph unicode="&#x435;" horiz-adv-x="498" d="M284 57q83 0 132 57q28 -35 28 -55q0 -27 -49.5 -50.5t-118.5 -23.5q-102 0 -165 61t-63 193q0 119 63 180.5t152 61.5q96 0 144 -59t48 -147q0 -39 -3 -56h-316q3 -76 39.5 -119t108.5 -43zM136 283h234q0 128 -111 128q-52 0 -85.5 -34.5t-37.5 -93.5z" />
<glyph unicode="&#x43a;" horiz-adv-x="492" d="M159 0h-85v475h6q1 0 5.5 0.5t6.5 0.5q67 0 67 -67v-409zM367 28l-185 218v33l172 171q29 26 57 26q22 0 51 -21l-192 -189l222 -265q-24 -9 -50 -9q-45 0 -75 36z" />
<glyph unicode="&#x43e;" horiz-adv-x="536" d="M488 237q0 -108 -54.5 -180t-166.5 -72t-165.5 69.5t-53.5 179.5q0 106 58.5 176.5t164.5 70.5q110 0 163.5 -69t53.5 -175zM398 236q0 171 -129 171q-70 0 -101 -49.5t-31 -121.5q0 -34 6 -63.5t19.5 -56.5t40.5 -43t64 -16q131 0 131 179z" />
<glyph unicode="&#x440;" horiz-adv-x="539" d="M93 473q54 0 65 -48q45 56 138 56q85 0 138.5 -58.5t53.5 -181.5q0 -71 -18 -123.5t-49 -80t-64.5 -40t-70.5 -12.5q-88 0 -127 52v-253h-85v688h6q2 0 6 0.5t7 0.5zM397 236q0 173 -127 173q-47 0 -79 -20t-32 -48v-228q15 -20 45 -37.5t68 -17.5q125 0 125 178z" />
<glyph unicode="&#x441;" horiz-adv-x="463" d="M282 57q70 0 117 56q33 -33 33 -55q0 -24 -45.5 -48.5t-116.5 -24.5q-29 0 -56 5t-58 21.5t-54 43t-38.5 72.5t-15.5 107q0 70 23.5 121t60.5 77t73 37.5t70 11.5q66 0 111 -25t45 -51q0 -20 -24 -53h-11q-47 55 -117 55q-72 0 -107.5 -47.5t-35.5 -124.5 q0 -80 35.5 -129t110.5 -49z" />
<glyph unicode="&#x443;" horiz-adv-x="466" d="M451 464l-182 -529q-27 -78 -62.5 -118.5t-106.5 -40.5q-89 0 -89 45q0 24 23 55q32 -26 66 -26t55.5 25t39.5 81l14 45h-34l-162 464q22 8 44 8q48 0 66 -57l110 -341l110 332q18 66 71 66q20 0 37 -9z" />
<glyph unicode="&#x445;" horiz-adv-x="437" d="M132 437l89 -142l90 135q30 46 72 46q24 0 44 -9l-160 -234l159 -232q-18 -8 -46 -8q-45 0 -68 34l-97 142l-91 -139q-24 -37 -74 -37q-25 0 -40 7l159 233l-153 235q32 8 49 8q25 0 39.5 -9t27.5 -30z" />
<glyph unicode="&#x455;" horiz-adv-x="419" d="M330 454q34 -19 34 -39q0 -21 -19 -54l-14 -1q-18 22 -51 37t-68 15q-34 0 -61.5 -13.5t-27.5 -46.5q0 -23 18.5 -38t47 -22.5t61 -18.5t61 -25t47 -43t18.5 -71q0 -70 -53 -109t-130 -39q-50 0 -87 10.5t-52.5 24t-15.5 26.5q0 19 25 59q61 -51 133 -51q96 0 96 72 q0 33 -26 51.5t-63 27.5t-74 20.5t-63 41.5t-26 79q0 63 49.5 98.5t120.5 35.5q75 0 120 -27z" />
<glyph unicode="&#x456;" horiz-adv-x="241" d="M73 97v378h6q1 0 5.5 0.5t6.5 0.5q67 0 67 -67v-319q0 -31 9 -42t39 -11v-36q-21 -7 -55 -7q-27 0 -44 8.5t-24 25.5t-8.5 31t-1.5 38zM166 624q0 -23 -15.5 -38.5t-38.5 -15.5t-38.5 15.5t-15.5 38.5q0 25 15.5 41t38.5 16t38.5 -16t15.5 -41z" />
<glyph unicode="&#x458;" horiz-adv-x="234" d="M80 -48v523h6q1 0 5.5 0.5t6.5 0.5q67 0 67 -68v-455q0 -56 -14.5 -94.5t-38.5 -54.5t-43.5 -22t-39.5 -6q-31 0 -40.5 17t-9.5 49q58 2 79.5 27.5t21.5 82.5zM175 624q0 -23 -15.5 -38.5t-38.5 -15.5t-38.5 15.5t-15.5 38.5q0 25 15.5 41t38.5 16t38.5 -16t15.5 -41z " />
<glyph unicode="&#x20ac;" d="M105 228h-77v57h70q-1 11 -1 47q0 26 1 38h-70v53h76q20 112 88.5 179t174.5 67q70 0 124.5 -29t54.5 -59q0 -9 -9 -25t-18 -25h-13q-53 62 -138 62q-74 0 -118 -46t-57 -121h241v-56h-249q0 -2 -0.5 -15.5t-0.5 -23.5q0 -34 3 -46h247v-57h-240q34 -170 172 -170 q84 0 139 70q36 -46 36 -60q0 -28 -53 -55t-128 -27q-62 0 -109.5 20.5t-76 57t-45 76.5t-24.5 88z" />
<glyph unicode="&#x25fc;" horiz-adv-x="475" d="M0 475h475v-475h-475v475z" />
</font>
</defs>
</svg>
