<?xml version="1.0" standalone="no"?>
<!DOCTYPE svg PUBLIC "-//W3C//DTD SVG 1.1//EN" "http://www.w3.org/Graphics/SVG/1.1/DTD/svg11.dtd" >
<svg xmlns="http://www.w3.org/2000/svg">
<metadata></metadata>
<defs>
<font id="focoregular" horiz-adv-x="332" >
<font-face units-per-em="1000" ascent="800" descent="-200" />
<missing-glyph horiz-adv-x="200" />
<glyph unicode="ff" horiz-adv-x="640" d="M331 603q-17 21 -38.5 31t-42.5 10q-42 0 -66 -24.5t-24 -84.5v-65h214v52q0 97 45 146t130 49q31 0 57 -7t45 -17t29 -21.5t10 -21.5q0 -14 -8 -27.5t-19 -24.5h-12q-17 21 -41 33.5t-56 12.5q-45 0 -70 -24.5t-25 -84.5v-65h168v-73h-168v-397h-85v397h-214v-397h-86 v522q0 97 45.5 146t130.5 49q26 0 48 -6t37.5 -15t24.5 -20t9 -21q0 -14 -8 -27.5t-19 -24.5h-11z" />
<glyph unicode="fi" horiz-adv-x="532" d="M390 592q-16 21 -47 36.5t-75 15.5q-54 0 -82 -25.5t-28 -84.5v-64h291v-372q0 -34 7.5 -47.5t40.5 -13.5v-36q-10 -3 -25.5 -5t-29.5 -2q-29 0 -44.5 9.5t-23 25t-9 35.5t-1.5 41v292h-206v-397h-85v519q0 97 49 147.5t142 50.5q37 0 67.5 -7.5t52 -18.5t33.5 -24 t12 -25q0 -11 -8 -25t-16 -25h-15z" />
<glyph unicode="fl" horiz-adv-x="541" d="M373 621h1q-18 8 -46.5 15t-57.5 7q-54 0 -82.5 -24.5t-28.5 -83.5v-65h154v-73h-154v-397h-86v520q0 17 2 33t4 28q14 68 66 102t126 34q33 0 61.5 -5t52.5 -13t42.5 -17t30.5 -18v-561q0 -18 0.5 -30.5t5 -20t14.5 -11.5t28 -4v-36q-9 -3 -24 -5t-29 -2q-29 0 -45 8.5 t-23.5 23.5t-9.5 35.5t-2 43.5v516z" />
<glyph unicode="ffi" horiz-adv-x="831" d="M689 592q-16 21 -47 36.5t-75 15.5q-54 0 -82 -25.5t-28 -84.5v-64h291v-372q0 -34 7.5 -47.5t40.5 -13.5v-36q-10 -3 -25.5 -5t-29.5 -2q-29 0 -44.5 9.5t-23 25t-9 35.5t-1.5 41v292h-206v-397h-85v397h-212v-397h-85v522q0 97 45 146t130 49q26 0 48 -6t38 -15t25 -20 t9 -21q0 -14 -8 -27.5t-19 -24.5h-12q-17 21 -38 31t-43 10q-41 0 -65.5 -24.5t-24.5 -84.5v-65h212v49q0 97 49 147.5t142 50.5q37 0 67.5 -7.5t52 -18.5t33.5 -24t12 -25q0 -11 -8 -25t-16 -25h-15z" />
<glyph unicode="ffl" horiz-adv-x="841" d="M673 621h1q-18 8 -46.5 15t-57.5 7q-54 0 -82.5 -24.5t-28.5 -83.5v-65h154v-73h-154v-397h-86v397h-213v-397h-85v522q0 97 45 146t130 49q26 0 48 -6t38 -15t25 -20t9 -21q0 -14 -8 -27.5t-19 -24.5h-12q-17 21 -38 31t-43 10q-41 0 -65.5 -24.5t-24.5 -84.5v-65h213 v50q0 17 2 33t4 28q14 68 66 102t126 34q33 0 61.5 -5t52.5 -13t42.5 -17t30.5 -18v-561q0 -18 0.5 -30.5t5 -20t14.5 -11.5t28 -4v-36q-9 -3 -24 -5t-29 -2q-29 0 -45 8.5t-23.5 23.5t-9.5 35.5t-2 43.5v516z" />
<glyph unicode="&#xd;" horiz-adv-x="180" />
<glyph unicode=" "  horiz-adv-x="200" />
<glyph unicode="&#x09;" horiz-adv-x="200" />
<glyph unicode="&#xa0;" horiz-adv-x="200" />
<glyph unicode="!" horiz-adv-x="225" d="M68 671h6q3 0 6.5 0.5t6.5 0.5q28 0 47.5 -14t19.5 -52v-431q-3 -1 -7 -1h-12q-28 0 -47.5 14t-19.5 52v431zM170 44q0 -26 -16 -42.5t-41 -16.5q-26 0 -42 16.5t-16 42.5t16 43.5t42 17.5q25 0 41 -17.5t16 -43.5z" />
<glyph unicode="&#x22;" horiz-adv-x="328" d="M202 436v245q13 1 15 1q12 0 23 -3.5t20 -11t13.5 -20.5t4.5 -32q0 -12 -1 -33t-2 -46t-2 -51.5t-2 -48.5h-69zM53 436v245q13 1 15 1q12 0 23 -3.5t20 -11t13.5 -20.5t4.5 -32q0 -12 -1 -33t-2 -46t-2 -51.5t-2 -48.5h-69z" />
<glyph unicode="#" horiz-adv-x="655" d="M456 175l-20 -146h-69l20 146h-141l-20 -146h-69l20 146h-141l9 65h141l21 147h-141l9 66h141l22 150h69l-22 -150h141l22 150h69l-22 -150h136l-9 -66h-136l-21 -147h136l-9 -65h-136zM417 387h-141l-21 -147h141z" />
<glyph unicode="$" horiz-adv-x="549" d="M240 759h62v-78q23 -3 49 -9q41 -9 70 -27q15 -10 25.5 -21.5t10.5 -26.5q0 -12 -9 -26t-23 -28q-8 7 -21.5 18t-32 20.5t-43.5 16.5q-12 3 -26 5v-221q30 -11 59 -26q30 -15 53 -37.5t36.5 -54t13.5 -75.5q0 -50 -15.5 -88t-44 -64t-67.5 -39q-17 -5 -35 -9v-83h-62v79 q-48 1 -88 12q-45 12 -71 32q-23 17 -23 37q0 11 8.5 28t19.5 32q30 -26 73 -46q38 -17 81 -19v253q-27 9 -52 20q-33 14 -58.5 35t-41 52t-15.5 77q0 45 15.5 79.5t42.5 57.5t64 35q21 7 45 10v79zM310 71q25 10 40 26t21 36.5t6 42.5q0 28 -7.5 49t-22.5 36.5t-38 26.5 q-3 2 -7 3v-224zM221 596q-22 -8 -35.5 -21.5t-19.5 -32t-6 -37.5q0 -25 9 -43t26.5 -32t44.5 -25v197q-11 -2 -19 -6z" />
<glyph unicode="%" horiz-adv-x="823" d="M351 506q0 -86 -42 -131.5t-109 -45.5q-72 0 -112 45.5t-40 131.5q0 87 42.5 131.5t108.5 44.5q75 0 113.5 -44.5t38.5 -131.5zM770 162q0 -87 -41.5 -132t-108.5 -45q-72 0 -112 45t-40 132q0 43 11.5 76t31.5 55t47.5 33.5t60.5 11.5q70 0 110.5 -44.5t40.5 -131.5z M697 163q0 51 -17 81.5t-61 30.5q-43 0 -60 -31t-17 -82t17.5 -82.5t59.5 -31.5q44 0 61 31.5t17 83.5zM277 507q0 51 -17 81.5t-61 30.5q-42 0 -59 -31t-17 -82t17 -82t59 -31q44 0 61 31t17 83zM227 0h-86l429 644q9 14 24 26.5t40 12.5q10 0 18.5 -1t13.5 -3q6 -2 11 -3z " />
<glyph unicode="&#x26;" horiz-adv-x="698" d="M653 3q-11 -5 -24 -8.5t-25 -3.5q-39 0 -66 30l-63 72q-42 -46 -92 -75t-116 -29q-57 0 -97.5 16.5t-67 43.5t-38.5 63t-12 75q0 45 14 81t37 64.5t53.5 48.5t63.5 33h-1q-23 30 -33.5 56.5t-10.5 61.5q0 34 14 62t37.5 47.5t55 30t66.5 10.5q42 0 71 -9.5t50 -23.5 q22 -17 22 -36q0 -13 -11 -28t-19 -24h-10q-21 20 -44 33t-56 13q-36 0 -61.5 -20.5t-25.5 -59.5q0 -26 12 -49t31 -47q38 -48 83 -103t84 -103q14 35 22 73.5t9 81.5v25.5t-1 27.5h161v-65h-88q-2 -57 -16 -111.5t-36 -96.5zM269 63q51 0 86.5 22.5t69.5 66.5 q-42 51 -82 101.5t-81 100.5q-26 -11 -49 -26t-40 -35t-27 -45t-10 -55q0 -55 34.5 -92.5t98.5 -37.5z" />
<glyph unicode="'" horiz-adv-x="179" d="M49 436v245q13 1 15 1q12 0 23 -3.5t20 -11t13.5 -20.5t4.5 -32q0 -12 -1 -33t-2 -46t-2 -51.5t-2 -48.5h-69z" />
<glyph unicode="(" horiz-adv-x="283" d="M54 299q0 88 15.5 157.5t36.5 119t43.5 80t37.5 42.5q11 8 20.5 13t22.5 5q8 0 14 -1t11 -2q5 -2 10 -3q-6 -7 -25 -33t-39.5 -75t-36.5 -124t-16 -179q0 -109 17.5 -186.5t39.5 -128.5q26 -59 58 -99q-7 -4 -14 -6t-18 -2q-12 0 -22.5 4.5t-21.5 12.5q-12 9 -34.5 36 t-44 75.5t-38 121t-16.5 172.5z" />
<glyph unicode=")" horiz-adv-x="281" d="M221 299q0 -100 -16.5 -172.5t-38 -121t-44 -75.5t-34.5 -36q-11 -8 -21.5 -12.5t-22.5 -4.5q-11 0 -18 2t-14 6q31 40 57 99q22 51 40 128.5t18 186.5q0 104 -16 179t-36.5 124t-39.5 75t-25 33q5 1 10 3q5 1 11 2t14 1q13 0 22.5 -5t20.5 -13q15 -12 37.5 -42.5 t43.5 -80t36.5 -119t15.5 -157.5z" />
<glyph unicode="*" horiz-adv-x="390" d="M51 572q-14 7 -14 26q0 12 7 24q11 20 28 20q9 0 18 -5.5t18 -13.5l42 -39q3 -2 6 -7t3 -10q0 -12 -6.5 -16t-14.5 -4q-6 0 -18 3l-51 15q-8 2 -18 7zM96 434q-9 -9 -22 -9q-16 0 -30 22q-3 5 -4.5 11.5t-1.5 11.5q0 19 14 26q6 3 12 5t11 4l51 16q8 2 13 2q8 0 13 -6 t5 -14q0 -7 -4 -12.5t-9 -10.5zM339 570q-10 -5 -18 -7l-51 -15q-12 -3 -18 -3q-8 0 -14.5 4t-6.5 16q0 5 3 10t6 7l42 39q9 8 18 13.5t18 5.5q17 0 28 -20q7 -12 7 -24q0 -19 -14 -26zM244 478q-5 5 -9 10.5t-4 12.5q0 8 5 14t13 6q5 0 13 -2l51 -16q5 -2 11 -4t12 -5 q14 -7 14 -26q0 -5 -1.5 -11.5t-4.5 -11.5q-14 -22 -30 -22q-13 0 -22 9zM235 684q0 -7 -1.5 -15t-3.5 -13l-12 -48q-3 -12 -6.5 -18t-14.5 -6q-16 0 -21 23l-12 52q-2 5 -3 11.5t-1 13.5q0 13 9 22.5t28 9.5t28.5 -9t9.5 -23zM155 390q0 7 1.5 15.5t3.5 13.5l12 46 q3 11 7 18t15 7q15 0 20 -22l12 -52q2 -6 3 -12.5t1 -12.5q0 -13 -9 -22.5t-28 -9.5t-28.5 8.5t-9.5 22.5z" />
<glyph unicode="+" horiz-adv-x="548" d="M317 298v-161h-82v160h-156v80h156v160h82v-159h157v-80h-157z" />
<glyph unicode="," horiz-adv-x="226" d="M171 35q0 -46 -20 -86t-49 -57q-17 -10 -32 -10q-24 0 -35 31q19 8 39 29t25 44q-12 8 -25.5 23t-13.5 38q0 25 14 41.5t40 16.5q29 0 43 -20.5t14 -49.5z" />
<glyph unicode="-" horiz-adv-x="441" d="M121 231q-21 0 -36 11.5t-15 40.5v10.5t1 10.5q0 5 1 10h251q9 0 18.5 -1t17.5 -6t13.5 -15t5.5 -28q0 -5 -0.5 -11t-0.5 -11q-1 -6 -1 -11h-255z" />
<glyph unicode="." horiz-adv-x="225" d="M170 47q0 -26 -16 -44t-42 -18q-25 0 -41 18t-16 44t16.5 44t40.5 18q25 0 41.5 -18t16.5 -44z" />
<glyph unicode="/" horiz-adv-x="381" d="M98 0h-86l255 630q6 15 19 28.5t38 13.5q10 0 18.5 -1t13.5 -3q6 -2 11 -3z" />
<glyph unicode="0" horiz-adv-x="549" d="M509 326q0 -165 -59.5 -253t-174.5 -88q-116 0 -176.5 85.5t-60.5 255.5q0 79 15 142.5t45 108t75 68.5t105 24q118 0 174.5 -90t56.5 -253zM419 326q0 75 -10 125.5t-29 81.5t-45 44.5t-59 13.5t-60 -13.5t-46 -44.5t-29.5 -81.5t-10.5 -125.5q0 -73 10.5 -123.5 t29.5 -82t46 -45.5t60 -14t59 13.5t45 44.5t29 82t10 125z" />
<glyph unicode="1" horiz-adv-x="549" d="M272 0v557l-140 -73q-8 10 -18 25t-10 28q0 10 6 19t16 14l130 72q19 11 33.5 17t28.5 6q13 0 24 -4.5t16 -9.5v-651h-86z" />
<glyph unicode="2" horiz-adv-x="549" d="M458 481q0 -39 -10 -74t-27.5 -68t-41 -63t-50.5 -58q-42 -44 -81.5 -82t-68.5 -61h236q32 0 47 -15.5t15 -37.5q0 -13 -3 -22h-416v70q19 15 44.5 37.5t54.5 49.5t59 57.5t58 63.5q43 50 69.5 97t26.5 101q0 33 -9.5 54.5t-26 35t-38 19t-45.5 5.5q-26 0 -49 -8 t-41.5 -19.5t-33 -24.5t-24.5 -24h-15q-30 33 -30 51q0 9 5 17t12 14q6 6 22 18t40 24.5t55 21.5t68 9q40 0 76 -10t63 -32t43 -58t16 -88z" />
<glyph unicode="3" horiz-adv-x="549" d="M467 190q0 -44 -13.5 -81.5t-41.5 -64.5t-70.5 -42.5t-99.5 -15.5q-36 0 -66 5.5t-53 14t-38.5 17t-23.5 14.5q-20 15 -20 33q0 11 10.5 28.5t24.5 36.5q9 -10 24 -23t36 -24t47 -19t57 -8q25 0 49.5 6t44.5 20.5t32.5 39t12.5 61.5q0 42 -17 66t-40 37t-46.5 16.5 t-37.5 3.5h-36v73h36q14 0 35 4t41 16t34.5 34t14.5 58q0 96 -114 96q-27 0 -50 -7t-42 -17t-33.5 -22.5t-24.5 -22.5h-13q-15 13 -24 26t-9 23q0 11 10 22.5t23 21.5q28 21 73 37t96 16t88 -12.5t61 -35t35.5 -52.5t11.5 -66q0 -34 -10.5 -60t-25.5 -45t-32 -30.5 t-29 -17.5q15 -6 34.5 -17t37 -29.5t29.5 -46.5t12 -67z" />
<glyph unicode="4" horiz-adv-x="549" d="M56 173v67l267 373q17 23 33 37t40 14q22 0 37 -10v-409h31q26 0 36.5 -12.5t10.5 -31.5q0 -9 -2 -19q-1 -5 -1 -9h-75v-173h-86v173h-291zM347 246v288l-209 -288h209z" />
<glyph unicode="5" horiz-adv-x="549" d="M114 661h330q2 -5 2.5 -10t0.5 -12q0 -38 -18.5 -47.5t-44.5 -9.5h-202l-17 -169q13 3 32.5 6.5t45.5 3.5q46 0 87 -11t72.5 -36.5t50 -66.5t18.5 -101q0 -46 -14.5 -86.5t-43 -70.5t-72 -47.5t-100.5 -17.5q-39 0 -69.5 5.5t-52.5 13t-36 15.5t-20 13q-8 6 -14 14.5 t-6 20.5q0 13 9.5 29t23.5 35q9 -10 24.5 -22.5t36.5 -23t48 -18t59 -7.5q25 0 50 8t45 25t32 44t12 65q0 48 -15 76.5t-38.5 44t-51.5 20.5t-54 5q-34 0 -64 -6t-50 -13l-28 13z" />
<glyph unicode="6" horiz-adv-x="549" d="M494 223q0 -57 -16 -101.5t-44.5 -75t-67.5 -46t-84 -15.5q-111 0 -165.5 74.5t-54.5 211.5q0 91 24 160.5t63 118t88 77t99 38.5q15 3 29 4t25 1q44 0 44 -42q0 -6 -0.5 -12t-1.5 -11t-1 -10q-8 1 -15 1h-15q-63 0 -106.5 -24t-72 -57.5t-43 -68.5t-19.5 -56 q9 8 23.5 18t33.5 18.5t42.5 14.5t50.5 6q48 0 82.5 -18.5t57 -49.5t33.5 -71.5t11 -84.5zM405 217q0 33 -6.5 61.5t-20.5 50t-36.5 33.5t-54.5 12q-25 0 -47 -7t-40 -16.5t-30.5 -20t-18.5 -16.5q-2 -11 -2.5 -28t-0.5 -31q0 -30 5 -64.5t20 -63.5t41.5 -48.5t70.5 -19.5 q55 0 87.5 42.5t32.5 115.5z" />
<glyph unicode="7" horiz-adv-x="549" d="M204 0h-94l277 580h-333q-1 4 -1 8q-1 4 -1 9v10q0 24 15 39t46 15h338q20 0 29.5 -7t9.5 -27v-24z" />
<glyph unicode="8" horiz-adv-x="549" d="M502 183q0 -51 -18 -88.5t-49 -62t-72.5 -36t-89.5 -11.5q-51 0 -93 11.5t-72.5 35.5t-47 60.5t-16.5 86.5q0 28 9.5 54t25 48.5t36.5 40t45 27.5q-46 20 -70 59.5t-24 84.5q0 43 17.5 76t47 55t66.5 33.5t76 11.5q41 0 78.5 -10t66 -31t45.5 -53t17 -76q0 -47 -25.5 -86 t-70.5 -62q27 -9 48.5 -26t37 -39.5t24 -48.5t8.5 -54zM415 184q0 57 -38 92t-104 35q-33 0 -59.5 -10t-45 -27t-28.5 -41t-10 -52q0 -61 40 -93t103 -32t102.5 33.5t39.5 94.5zM394 494q0 25 -9.5 45t-26 33t-38.5 20t-47 7t-47.5 -7t-39 -20.5t-26 -33.5t-9.5 -46 q0 -23 9.5 -42t26 -33.5t38.5 -22.5t48 -8q25 0 47 8.5t38.5 23t26 34t9.5 42.5z" />
<glyph unicode="9" horiz-adv-x="549" d="M55 434q0 57 16 101t44.5 73.5t67.5 45t85 15.5q55 0 96 -19.5t68.5 -56t41.5 -88t14 -115.5q0 -100 -27 -176t-71.5 -127t-102 -76.5t-118.5 -25.5q-25 0 -39 8t-14 33q0 10 0.5 18.5t1.5 15.5q8 -1 15 -1h15q63 0 107 23.5t72.5 57t42.5 69.5t18 61q-9 -8 -21.5 -17.5 t-30 -18t-39.5 -14.5t-49 -6q-51 0 -87.5 18.5t-60 49.5t-34.5 70.5t-11 81.5zM144 441q0 -70 27.5 -113t93.5 -43q25 0 47 7.5t39 19t29.5 24t17.5 23.5q1 9 1.5 20.5t0.5 24.5q0 28 -5 61t-20 62t-41.5 48.5t-69.5 19.5q-54 0 -87 -41t-33 -113z" />
<glyph unicode=":" horiz-adv-x="225" d="M170 47q0 -26 -16 -44t-42 -18q-25 0 -41 18t-16 44t16.5 44t40.5 18q25 0 41.5 -18t16.5 -44zM170 425q0 -26 -16 -44t-42 -18q-25 0 -41 18t-16 44t16.5 44t40.5 18q25 0 41.5 -18t16.5 -44z" />
<glyph unicode=";" horiz-adv-x="238" d="M171 35q0 -46 -20 -86t-49 -57q-17 -10 -32 -10q-24 0 -35 31q19 8 39 29t25 44q-12 8 -25.5 23t-13.5 38q0 25 14 41.5t40 16.5q29 0 43 -20.5t14 -49.5zM183 425q0 -26 -16 -44t-42 -18q-25 0 -41 18t-16 44t16.5 44t40.5 18q25 0 41.5 -18t16.5 -44z" />
<glyph unicode="&#x3c;" horiz-adv-x="549" d="M461 124l-375 175v74l375 172v-87l-261 -122l261 -122v-90z" />
<glyph unicode="=" horiz-adv-x="547" d="M77 385v81h393v-80zM77 203v80h393v-80h-393z" />
<glyph unicode="&#x3e;" horiz-adv-x="549" d="M86 214l262 123l-262 119v89l375 -172v-74l-375 -175v90z" />
<glyph unicode="?" horiz-adv-x="439" d="M205 682q40 0 75.5 -10.5t62.5 -32t43 -54.5t16 -78q0 -30 -8 -54.5t-21 -45.5t-29 -38.5t-32 -32.5q-35 -30 -61 -59.5t-26 -61.5q0 -8 1 -19t3 -21q-4 -1 -9.5 -1h-10.5q-27 0 -41.5 16.5t-14.5 45.5q0 40 24.5 71t56.5 60q30 28 54.5 60.5t24.5 76.5q0 28 -9.5 47.5 t-26 32t-37.5 18t-45 5.5q-27 0 -48.5 -6t-39 -15t-30 -19t-19.5 -17h-12q-8 11 -16.5 25t-8.5 27q0 15 17 27q7 6 21.5 15t35 17.5t48 14.5t62.5 6zM252 46q0 -26 -16.5 -43.5t-42.5 -17.5q-24 0 -40.5 17.5t-16.5 43.5t16.5 44t40.5 18q26 0 42.5 -18t16.5 -44z" />
<glyph unicode="@" horiz-adv-x="792" d="M533 51q-11 -3 -22 -4.5t-20 -1.5q-33 0 -57 17.5t-24 59.5v94h-20q-15 0 -37.5 -1.5t-47 -6t-48.5 -13t-43.5 -23t-31.5 -36.5t-12 -52q0 -18 7 -41t28 -43t59.5 -34t101.5 -14q58 0 109 18t88 56t58.5 97.5t21.5 142.5q0 73 -23.5 128t-65 92t-98.5 55.5t-124 18.5 q-47 0 -88 -9.5t-74 -23t-56 -27.5t-35 -24h-11q-11 9 -18.5 21.5t-7.5 22.5t12 22.5t31 25.5q20 11 47 22.5t59 21t69 15.5t77 6q94 0 165.5 -28.5t119.5 -78t72 -116.5t24 -144q0 -87 -24 -158t-70 -121t-113.5 -77.5t-153.5 -27.5q-70 0 -120.5 15t-83 42t-48 64 t-15.5 81q0 41 14.5 71t37.5 51t52.5 34t60 20.5t59.5 10t50 3.5h24t20 -1q-1 22 -6 42.5t-17.5 35.5t-33.5 24t-53 9q-38 0 -70.5 -12.5t-53.5 -28.5h-15q-10 13 -14.5 23t-4.5 21t14.5 22.5t38.5 21t54 15.5t61 6q84 0 131.5 -40t47.5 -129v-142q0 -28 7.5 -40t38.5 -13 v-37z" />
<glyph unicode="A" horiz-adv-x="625" d="M512 0l-67 180h-270l-65 -180h-88l242 663q7 3 21 6t28 3q19 0 34.5 -8.5t24.5 -32.5l231 -631h-91zM310 570l-113 -319h225z" />
<glyph unicode="B" horiz-adv-x="567" d="M520 192q0 -56 -19 -93t-54 -59t-85 -31t-111 -9h-173v667q41 4 78 6.5t85 2.5q69 0 116.5 -11t76.5 -32t42 -52.5t13 -71.5q0 -35 -10 -61.5t-24.5 -45.5t-31.5 -31t-31 -18q16 -4 38.5 -13.5t42 -27.5t33.5 -47t14 -73zM228 72q45 0 82 4t64 16.5t42 36.5t15 64 q0 35 -14 57.5t-38 36t-54.5 18.5t-63.5 5h-96v-238h63zM402 506q0 31 -12.5 50.5t-34.5 30t-52.5 14.5t-66.5 4q-24 0 -42 -1t-29 -3v-220h95q62 0 102 32.5t40 92.5z" />
<glyph unicode="C" horiz-adv-x="596" d="M544 51q-5 -5 -19 -16t-37.5 -22t-56 -19.5t-75.5 -8.5q-77 0 -133 26t-92 72t-53 110t-17 139t17.5 139.5t54 111t92 73t132.5 26.5q39 0 75 -9t63.5 -23t44 -31t16.5 -32q0 -13 -8.5 -27.5t-17.5 -25.5h-18q-11 12 -25.5 25t-33.5 23t-43 16.5t-53 6.5 q-60 0 -99.5 -23.5t-63 -62t-33.5 -87t-10 -99.5q0 -52 10.5 -101t35.5 -87.5t66 -61.5t102 -23q33 0 60 9.5t46.5 22.5t32.5 25t18 18q11 -9 23.5 -25.5t12.5 -28.5q0 -9 -4 -15.5t-10 -14.5z" />
<glyph unicode="D" horiz-adv-x="633" d="M581 346q0 -91 -30 -166.5t-94 -122.5q-39 -28 -94 -42.5t-128 -14.5h-156v666q53 6 93.5 8t75.5 2q96 0 160 -26t102.5 -71t54.5 -105t16 -128zM491 341q0 56 -11 103.5t-39 82t-74.5 53.5t-116.5 19q-20 0 -41.5 -1t-42.5 -4v-520h83q67 0 113.5 21t75 57t41 84.5 t12.5 104.5z" />
<glyph unicode="E" horiz-adv-x="509" d="M165 388h227v-77h-227v-236h254q33 0 47.5 -15.5t14.5 -38.5q0 -4 -0.5 -7.5t-0.5 -6.5v-7h-402v669h386q2 -6 2 -10.5v-10.5q0 -23 -13 -38.5t-48 -15.5h-240v-206z" />
<glyph unicode="F" horiz-adv-x="475" d="M165 394h227v-76h-227v-318h-87v669h386q2 -6 2 -10.5v-10.5q0 -23 -13 -38.5t-49 -15.5h-239v-200z" />
<glyph unicode="G" horiz-adv-x="651" d="M367 58q29 0 52 5t40.5 12t29.5 14.5t18 13.5v176h-140v71h223v-283q-7 -9 -25.5 -22.5t-48 -27t-69 -23t-89.5 -9.5q-77 0 -133 26t-92.5 73t-54 111.5t-17.5 141.5q0 75 18 138.5t55 109t94.5 71.5t135.5 26q36 0 71 -8.5t62 -22t44 -30t17 -31.5q0 -12 -8 -27t-18 -27 h-17q-9 11 -24 23t-34.5 22.5t-44 17t-54.5 6.5q-61 0 -101 -23t-64 -60.5t-33.5 -85.5t-9.5 -99q0 -53 10.5 -103t36 -89t67 -63t103.5 -24z" />
<glyph unicode="H" horiz-adv-x="650" d="M166 386h318v284q4 0 8 1q4 0 8 0.5t9 0.5q9 0 19.5 -2.5t20 -9t16 -19t6.5 -32.5v-609h-87v310h-318v-310h-87v670q4 0 8 1q4 0 8 0.5t9 0.5q10 0 21 -2.5t20 -9t15 -19t6 -32.5v-223z" />
<glyph unicode="I" horiz-adv-x="240" d="M164 0h-88v670q4 0 8 1q4 0 8 0.5t9 0.5q9 0 19.5 -2.5t20.5 -9t16.5 -19t6.5 -32.5v-609z" />
<glyph unicode="J" horiz-adv-x="248" d="M171 69q0 -21 -1 -43t-3 -45q-3 -29 -13.5 -57.5t-30 -51t-48.5 -36.5t-69 -14q-32 0 -42.5 14t-10.5 35v12.5t1 11.5q73 0 101.5 29t28.5 97v648q5 2 12 2.5t12 0.5q9 0 20 -2t20.5 -9t16 -19t6.5 -31v-542z" />
<glyph unicode="K" horiz-adv-x="562" d="M184 340v32l239 267q16 17 28.5 24t27.5 7q10 0 20.5 -3.5t18.5 -7.5q10 -4 19 -10l-259 -289l278 -356q-12 -5 -27.5 -8.5t-27.5 -3.5q-26 0 -42.5 9t-31.5 28zM166 0h-87v670q4 0 8 1q4 0 7.5 0.5t8.5 0.5q9 0 19.5 -2.5t20.5 -9t16.5 -19t6.5 -32.5v-609z" />
<glyph unicode="L" horiz-adv-x="479" d="M78 670q4 0 8 1q4 0 8 0.5t9 0.5q9 0 19.5 -2.5t20 -9t16 -19t6.5 -32.5v-533h232q32 0 46 -15.5t14 -37.5q0 -5 -0.5 -9t-0.5 -7v-7h-378v670z" />
<glyph unicode="M" horiz-adv-x="794" d="M155 672q21 0 33.5 -10t20.5 -27l186 -404l186 402q11 24 27.5 31.5t32.5 7.5q13 0 25 -2t19 -4l47 -666h-82l-36 526l-178 -374h-85l-169 357l-37 -509h-83l50 666q7 2 18 4t25 2z" />
<glyph unicode="N" horiz-adv-x="660" d="M500 133v537q3 0 7 1q3 0 7.5 0.5t9.5 0.5q9 0 19 -2.5t18.5 -9t14 -19t5.5 -32.5v-609h-81l-340 519v-519h-81v667q6 2 17 3.5t22 1.5q22 0 34.5 -7.5t23.5 -25.5z" />
<glyph unicode="O" horiz-adv-x="699" d="M638 338q0 -72 -16.5 -136t-51.5 -112t-90.5 -76.5t-133.5 -28.5q-77 0 -131.5 29t-88.5 77.5t-49.5 112.5t-15.5 133t17 131.5t53 110t91.5 75.5t132.5 28q75 0 128.5 -27t88 -73.5t50.5 -109.5t16 -134zM547 337q0 54 -10 102t-32.5 84.5t-60 57.5t-91.5 21 q-57 0 -95 -21t-61.5 -57.5t-33.5 -84.5t-10 -102t10 -103.5t33 -88t60.5 -61t93.5 -22.5q55 0 93 22.5t61 61t33 88t10 103.5z" />
<glyph unicode="P" horiz-adv-x="538" d="M501 481q0 -65 -21.5 -108t-58.5 -69t-85 -36.5t-100 -10.5h-71v-257h-87v667q37 4 78.5 6.5t79.5 2.5q137 0 201 -49t64 -146zM411 476q0 37 -13 61.5t-35.5 39t-53.5 20.5t-66 6q-26 0 -45 -1t-36 -3h2v-269h40q49 0 87.5 6t65 22t40.5 44.5t14 73.5z" />
<glyph unicode="Q" horiz-adv-x="705" d="M641 338q0 -72 -16.5 -136t-51.5 -112t-90.5 -76.5t-133.5 -28.5q-77 0 -131.5 29t-88.5 77.5t-49.5 112.5t-15.5 133t17 131.5t53 110t91.5 75.5t132.5 28q75 0 128.5 -27t88 -73.5t50.5 -109.5t16 -134zM550 337q0 54 -10 102t-32.5 84.5t-60 57.5t-91.5 21 q-57 0 -95 -21t-61.5 -57.5t-33.5 -84.5t-10 -102t10 -103.5t33 -88t60.5 -61t93.5 -22.5q55 0 93 22.5t61 61t33 88t10 103.5zM595 -114q0 -36 -17.5 -57t-43.5 -21q-24 0 -50.5 12.5t-51 30.5t-44.5 38.5t-32 37.5q5 10 17.5 19t23.5 9q15 0 30 -8t32 -19 q22 -14 53.5 -27.5t82.5 -14.5z" />
<glyph unicode="R" horiz-adv-x="556" d="M493 485q0 -42 -12 -75t-32 -57t-46.5 -40t-56.5 -23l183 -290q-10 -5 -23 -7t-24 -2q-46 0 -71 39l-156 244h-89v-274h-87v667q36 5 77.5 7t79.5 2q137 0 197 -46.5t60 -144.5zM402 480q0 37 -11.5 61t-33 37.5t-52 18.5t-67.5 5q-24 0 -42 -1t-33 -3h2v-250h72 q37 0 67 7t52 23t34 41t12 61z" />
<glyph unicode="S" horiz-adv-x="496" d="M57 126q32 -26 76.5 -45.5t95.5 -19.5q39 0 65 10t41.5 26t22.5 36.5t7 42.5q0 28 -8.5 49t-25 36.5t-41.5 26.5t-57 21q-37 11 -71 25t-60.5 35t-42.5 52t-16 77q0 45 16.5 79.5t45 57.5t67.5 35t85 12q37 0 79.5 -9.5t72.5 -27.5q16 -10 27 -21.5t11 -26.5 q0 -12 -9.5 -26t-23.5 -28q-8 7 -22 18t-34 20.5t-45.5 16.5t-55.5 7q-35 0 -58.5 -8.5t-38 -22t-21 -32t-6.5 -37.5q0 -25 10 -43t29 -31.5t46 -24.5t62 -22t66.5 -26.5t55.5 -38.5t38.5 -54.5t14.5 -75.5q0 -50 -16.5 -88t-46.5 -64t-71.5 -39t-91.5 -13q-55 0 -102.5 12 t-74.5 32q-25 17 -25 37q0 11 9 28t21 32z" />
<glyph unicode="T" horiz-adv-x="540" d="M223 593h-212q-1 5 -2 9t-1 9v10q0 19 15 33.5t46 14.5h459q0 -5 1 -9q0 -4 0.5 -7.5t0.5 -6.5q0 -22 -15 -37.5t-46 -15.5h-158v-593h-88v593z" />
<glyph unicode="U" horiz-adv-x="637" d="M161 254q0 -42 7.5 -77t25 -60.5t47 -39.5t74.5 -14q68 0 106 26t49 86q6 33 6 79v416q4 0 8 1q4 0 8 0.5t9 0.5q9 0 20 -2.5t20 -9t15.5 -19t6.5 -32.5v-343q0 -20 -0.5 -41t-2.5 -40q-4 -42 -19.5 -78.5t-45.5 -63.5t-74.5 -42.5t-107.5 -15.5q-108 0 -162.5 48 t-70.5 133q-4 21 -5 46t-1 51v407q4 0 8 1q4 0 7.5 0.5t8.5 0.5q9 0 20 -2.5t20.5 -9t16 -19t6.5 -32.5v-355z" />
<glyph unicode="V" horiz-adv-x="583" d="M334 -5h-91l-234 672q7 2 19.5 3.5t26.5 1.5q50 0 67 -56l168 -529l177 529q8 26 25 41t44 15q11 0 19.5 -1.5t18.5 -3.5z" />
<glyph unicode="W" horiz-adv-x="878" d="M654 -5h-87l-124 405l-123 -405h-87l-222 671q7 2 19 4t25 2q27 0 42 -14.5t23 -40.5l161 -519l123 413l-43 156q10 2 20 3.5t21 1.5q47 0 63 -56l146 -514l153 513q8 27 22.5 42t40.5 15q20 0 40 -5z" />
<glyph unicode="X" horiz-adv-x="561" d="M278 267l-157 -267h-95l203 337l-186 323q13 5 27 8.5t25 3.5q42 0 66 -44l122 -221l131 220q17 29 35 36.5t34 7.5q14 0 25 -3t20 -8l-195 -322l205 -338q-12 -5 -24 -7.5t-23 -2.5q-27 0 -43 12t-31 36z" />
<glyph unicode="Y" horiz-adv-x="524" d="M306 277v-277h-88v275l-215 387q9 5 23 8t29 3q26 0 39 -10.5t24 -30.5l145 -275l145 267q11 19 26 33.5t41 14.5q11 0 22 -2t24 -6z" />
<glyph unicode="Z" horiz-adv-x="521" d="M460 669q17 0 26.5 -7.5t9.5 -26.5v-28l-376 -532h320q32 0 46.5 -15.5t14.5 -37.5q0 -13 -3 -22h-483v64l370 530h-341q-1 5 -2 9t-1 9v10q0 19 15 33t46 14h358z" />
<glyph unicode="[" horiz-adv-x="269" d="M60 -134v851h187v-71h-104v-709h104v-71h-187z" />
<glyph unicode="\" horiz-adv-x="381" d="M12 665q5 1 11 3q5 2 13 3t19 1q25 0 38 -13.5t19 -28.5l255 -630h-86z" />
<glyph unicode="]" horiz-adv-x="269" d="M22 -134v71h104v709h-104v71h187v-851h-187z" />
<glyph unicode="^" horiz-adv-x="583" d="M408 299l-123 310q-16 -40 -33.5 -84.5t-34.5 -88.5q-14 -36 -27.5 -70.5t-26.5 -66.5h-80l156 370h92l156 -370h-79z" />
<glyph unicode="_" horiz-adv-x="468" d="M38 -154v63h392v-63h-392z" />
<glyph unicode="`" horiz-adv-x="365" d="M79 675q11 9 27 16.5t30 7.5q19 0 30.5 -10t22.5 -25l84 -110q-8 -6 -19.5 -11t-22.5 -5q-15 0 -27.5 7.5t-23.5 20.5z" />
<glyph unicode="a" horiz-adv-x="504" d="M425 109q0 -24 2 -37.5t7.5 -20t15 -8.5t24.5 -2v-40q-9 -3 -22 -5t-27 -2q-31 0 -54 12.5t-27 44.5q-25 -25 -60 -42.5t-92 -17.5q-26 0 -52.5 6t-48 22t-35.5 43t-14 69q0 52 26.5 85t65.5 52t83.5 26t81.5 8h21t21 -1v15q0 45 -21.5 68.5t-82.5 23.5q-45 0 -76 -11.5 t-60 -31.5h-10q-8 13 -13.5 28t-5.5 24q0 13 16 24.5t41.5 20.5t56.5 14t61 5q51 0 85 -11t55 -33t29.5 -55t8.5 -76v-197zM342 237h-29q-32 0 -65 -4t-60 -15t-44 -30.5t-17 -51.5q0 -30 18 -53t67 -23q26 0 49.5 7.5t41.5 18.5t28.5 24t10.5 25v102z" />
<glyph unicode="b" horiz-adv-x="539" d="M159 430q20 20 53 35.5t84 15.5q39 0 73.5 -13t61 -41.5t42 -74t15.5 -111.5q0 -75 -18.5 -124.5t-48 -78.5t-65.5 -41t-70 -12q-29 0 -50.5 6t-37.5 14.5t-26 18t-15 16.5v-40h-83v709h6q2 0 5.5 0.5t6.5 0.5q28 0 47.5 -14t19.5 -52v-214zM397 236q0 36 -6.5 68t-21 55 t-39 36.5t-60.5 13.5q-49 0 -80 -21t-31 -50v-225q6 -8 16 -17.5t24.5 -17.5t33 -14t39.5 -6q62 0 93.5 46t31.5 132z" />
<glyph unicode="c" horiz-adv-x="463" d="M282 57q27 0 48.5 8.5t36.5 19.5q18 12 32 28q8 -8 20.5 -24.5t12.5 -30.5t-21 -32q-19 -17 -54.5 -29t-86.5 -12q-32 0 -70.5 9t-72 36t-56.5 75.5t-23 128.5q0 74 24 122t59 75.5t74.5 38.5t69.5 11q36 0 64.5 -7.5t49 -19t31.5 -24.5t11 -25t-8 -27t-16 -26h-11 q-17 20 -44 37.5t-73 17.5q-38 0 -65 -13t-44.5 -36.5t-25.5 -55t-8 -67.5q0 -37 8 -69.5t25.5 -56.5t45.5 -38t67 -14z" />
<glyph unicode="d" horiz-adv-x="538" d="M464 0h-83v40q-8 -8 -20 -18t-28.5 -18t-37.5 -13.5t-46 -5.5q-39 0 -75 13t-63.5 41.5t-43.5 75t-16 113.5q0 66 16.5 114t44 78.5t64 45.5t75.5 15q45 0 76.5 -15t51.5 -34v277h6q2 0 5.5 0.5t6.5 0.5q28 0 47.5 -14t19.5 -52v-644zM141 238q0 -39 6 -72t21 -57.5 t39.5 -38t60.5 -13.5q24 0 44.5 6t35.5 15t23 21t8 24v234h1q-6 6 -15.5 15t-24 17t-33.5 13.5t-43 5.5q-57 0 -90 -43t-33 -127z" />
<glyph unicode="e" horiz-adv-x="498" d="M284 57q29 0 50.5 6t37 15t26.5 18.5t18 17.5q11 -14 19.5 -30t8.5 -25q0 -8 -5 -16.5t-17 -17.5q-23 -17 -59 -28.5t-87 -11.5q-47 0 -88.5 13.5t-72.5 43.5t-49 78.5t-18 118.5q0 63 18.5 109t48.5 75.5t68.5 43.5t79.5 14q51 0 87.5 -17t59.5 -45.5t34 -66t11 -77.5 q0 -14 -0.5 -28.5t-2.5 -27.5h-316q3 -73 38.5 -117.5t109.5 -44.5zM370 283q0 27 -5.5 50t-18.5 40.5t-34.5 27.5t-52.5 10q-52 0 -85.5 -34t-37.5 -94h234z" />
<glyph unicode="f" horiz-adv-x="337" d="M350 598q-17 21 -41.5 33.5t-55.5 12.5q-45 0 -70 -24.5t-25 -84.5v-65h168v-73h-168v-397h-85v522q0 97 45 146t130 49q31 0 57 -7t44.5 -17t28.5 -21.5t10 -21.5q0 -14 -8 -27.5t-17 -24.5h-13z" />
<glyph unicode="g" horiz-adv-x="538" d="M464 33q0 -61 -10.5 -108.5t-36.5 -80.5t-70 -50.5t-111 -17.5q-47 0 -82 9t-58 22q-18 11 -25.5 21t-7.5 21q0 13 11.5 29t20.5 26q2 -3 13 -11.5t29.5 -18.5t43.5 -17.5t55 -7.5q48 0 76.5 13.5t44 38t20 58.5t4.5 74v7q-8 -8 -20 -18t-28.5 -18t-37.5 -13.5t-46 -5.5 q-39 0 -75 13t-63.5 41.5t-43.5 75t-16 113.5q0 66 16 114t43 78.5t63 45.5t76 15q47 0 79 -14.5t53 -36.5q5 22 23 32.5t35 10.5q5 0 9 -0.5t8 -0.5q4 -1 8 -1v-438zM141 238q0 -39 6 -72t21 -57.5t39.5 -38t60.5 -13.5q24 0 44.5 6t35.5 15t23 21t8 24v234h1 q-6 6 -15.5 15t-24 17t-33.5 13.5t-43 5.5q-57 0 -90 -43t-33 -127z" />
<glyph unicode="h" horiz-adv-x="544" d="M385 281q0 19 -0.5 36.5t-5.5 32.5q-7 26 -29 40t-65 14q-28 0 -51.5 -6.5t-40 -16.5t-25.5 -23t-9 -26v-332h-85v709h5q2 0 5.5 0.5t6.5 0.5q28 0 47.5 -14t19.5 -52v-222q26 29 66 44t85 15q35 0 61.5 -8.5t45 -23t30.5 -33.5t17 -40q5 -20 6 -44.5t1 -47.5v-284h-85 v281z" />
<glyph unicode="i" horiz-adv-x="241" d="M73 475h6q2 0 5.5 0.5t6.5 0.5q28 0 47.5 -14.5t19.5 -52.5v-319q0 -29 8.5 -41t39.5 -12v-36q-9 -3 -24.5 -5t-30.5 -2q-29 0 -44.5 9t-23 24t-9 33.5t-1.5 36.5v378zM166 624q0 -23 -15.5 -38.5t-38.5 -15.5t-38.5 15.5t-15.5 38.5q0 25 15.5 41t38.5 16t38.5 -16 t15.5 -41z" />
<glyph unicode="j" horiz-adv-x="234" d="M80 475h6q2 0 5.5 0.5t6.5 0.5q29 0 48 -14.5t19 -53.5v-455q0 -60 -15.5 -95t-37 -53.5t-44.5 -23.5t-39 -5q-18 0 -27.5 5.5t-14.5 14.5t-6.5 21t-1.5 25q60 2 80.5 29t20.5 81v523zM175 624q0 -23 -15.5 -38.5t-38.5 -15.5t-38.5 15.5t-15.5 38.5q0 25 15.5 41 t38.5 16t38.5 -16t15.5 -41z" />
<glyph unicode="k" horiz-adv-x="492" d="M74 0v709h6q2 0 5.5 0.5t6.5 0.5q28 0 47.5 -14.5t19.5 -52.5v-643h-85zM182 246v33l172 171q28 26 57 26q11 0 20 -3.5t16 -7.5q8 -4 15 -10l-192 -189l222 -265q-24 -9 -50 -9q-20 0 -39.5 8.5t-35.5 27.5z" />
<glyph unicode="l" horiz-adv-x="241" d="M158 94q0 -15 1 -25.5t5.5 -17.5t14 -10.5t27.5 -3.5v-36q-9 -3 -24.5 -5t-30.5 -2q-29 0 -44.5 9t-23 24t-9 33.5t-1.5 36.5v612h6q2 0 5.5 0.5t6.5 0.5q28 0 47.5 -14.5t19.5 -52.5v-549z" />
<glyph unicode="m" horiz-adv-x="817" d="M305 481q36 0 74 -15t57 -47q23 25 62.5 43.5t90.5 18.5q65 0 101 -30t46 -75q5 -20 6 -44.5t1 -47.5v-284h-85v281q0 19 -0.5 36.5t-5.5 32.5q-7 26 -28.5 40t-65.5 14q-33 0 -61.5 -14t-42.5 -31q2 -17 3 -35.5t1 -38.5v-285h-85v281q0 21 -2 39.5t-7 33.5 q-16 50 -90 50q-22 0 -42.5 -6t-36.5 -16t-26 -22.5t-10 -24.5v-335h-85v472h6q3 0 6.5 0.5t6.5 0.5q26 0 42.5 -12.5t20.5 -38.5q23 24 61 41.5t88 17.5z" />
<glyph unicode="n" horiz-adv-x="543" d="M91 473q23 0 41.5 -11.5t22.5 -39.5q23 23 62.5 41t93.5 18q68 0 104 -30t47 -75q5 -20 6 -44.5t1 -47.5v-284h-85v281q0 19 -0.5 36.5t-5.5 32.5q-7 26 -29 40t-65 14q-57 0 -91 -22.5t-34 -48.5v-333h-85v472h5q2 0 5.5 0.5t6.5 0.5z" />
<glyph unicode="o" horiz-adv-x="536" d="M488 237q0 -49 -12 -94.5t-38.5 -80.5t-68.5 -56t-102 -21t-101.5 20t-67.5 54t-38 79.5t-12 95.5t14 95t42 78.5t69.5 53.5t97.5 20q59 0 100 -20t67 -53.5t38 -77.5t12 -93zM398 236q0 31 -5.5 61.5t-19.5 55t-39 39.5t-65 15q-38 0 -63.5 -15t-40.5 -39.5t-21.5 -55 t-6.5 -61.5t5.5 -63t20.5 -57.5t40 -42t64 -16.5q40 0 66 16.5t40 42t19.5 57.5t5.5 63z" />
<glyph unicode="p" horiz-adv-x="539" d="M93 473q24 0 41.5 -11t23.5 -37q19 23 53 39.5t85 16.5q39 0 73.5 -13t61 -41.5t42 -74t15.5 -111.5q0 -75 -18.5 -124.5t-48 -78.5t-65.5 -41t-70 -12q-54 0 -85 18.5t-42 33.5v-253h-85v688h6q3 0 6 0.5t7 0.5zM397 236q0 36 -6.5 68t-21 55t-39 36.5t-60.5 13.5 q-48 0 -79.5 -20t-31.5 -48v-228q6 -8 16 -17.5t24.5 -17.5t33 -14t39.5 -6q62 0 93.5 46t31.5 132z" />
<glyph unicode="q" horiz-adv-x="538" d="M464 -216h-85v254q-17 -17 -48.5 -35t-78.5 -18q-42 0 -78.5 13.5t-64 42.5t-43 75t-15.5 111q0 73 18.5 122t48 78t65.5 41.5t71 12.5q26 0 47.5 -6t37 -14t26.5 -17t16 -15q6 24 23.5 34t34.5 10q5 0 9 -0.5t8 -0.5q4 -1 8 -1v-687zM141 234q0 -38 6.5 -70t21.5 -56 t40.5 -37.5t63.5 -13.5q23 0 42.5 6.5t33.5 16t22 20.5t8 20v238q-5 6 -14.5 14.5t-23 16.5t-31.5 13.5t-39 5.5q-67 0 -98.5 -43.5t-31.5 -130.5z" />
<glyph unicode="r" horiz-adv-x="348" d="M92 473q23 0 41.5 -11.5t22.5 -38.5q14 21 42 39.5t65 18.5q11 0 23.5 -2t23.5 -6.5t18 -12.5t7 -21q0 -16 -8 -34.5t-16 -30.5q-13 12 -28 18.5t-38 6.5q-17 0 -32.5 -5.5t-27.5 -15t-19 -21.5t-7 -25v-332h-85v472h7q3 0 6 0.5t5 0.5z" />
<glyph unicode="s" horiz-adv-x="419" d="M330 454q20 -11 27 -20.5t7 -18.5q0 -11 -5.5 -25.5t-13.5 -28.5l-14 -1q-17 21 -49.5 36.5t-69.5 15.5q-13 0 -28.5 -2.5t-29 -9t-22.5 -18.5t-9 -30q0 -32 28.5 -46t70.5 -24q30 -7 58 -17.5t49.5 -27t34 -41.5t12.5 -62t-15 -64.5t-40 -46t-58.5 -28t-69.5 -9.5 q-35 0 -63 5.5t-47 13.5q-25 10 -35 20.5t-10 21.5q0 13 7 27t18 32q7 -6 19.5 -15t30 -17t38.5 -13.5t45 -5.5q18 0 35 3.5t30.5 11.5t22 22t8.5 35t-9 34.5t-24 22.5t-33.5 14.5t-37.5 9.5q-29 6 -55.5 15.5t-47 25.5t-33 40t-12.5 58q0 33 14 58.5t38 42t54.5 25 t63.5 8.5q38 0 69.5 -8t50.5 -19z" />
<glyph unicode="t" horiz-adv-x="356" d="M82 60q-7 19 -8.5 41.5t-1.5 44.5v468h6q2 0 5.5 0.5t6.5 0.5q27 0 47 -14t20 -51v-80h149v-72h-149v-258q0 -82 65 -82q16 0 30 5.5t25 13t18.5 14.5t9.5 10q12 -15 20.5 -29t8.5 -27q0 -9 -9 -19.5t-25 -19.5t-39.5 -15t-51.5 -6q-52 0 -83 20t-44 55z" />
<glyph unicode="u" horiz-adv-x="537" d="M256 59q27 0 49.5 7.5t38.5 18.5t25 23.5t9 22.5v344h6q2 0 5.5 0.5t6.5 0.5q28 0 47.5 -14.5t19.5 -52.5v-409h-85v44q-20 -23 -56 -41t-93 -18q-58 0 -90 18t-47.5 46t-18.5 61.5t-3 64.5v300h6q2 0 5.5 0.5t6.5 0.5q28 0 47.5 -14t19.5 -52v-235q0 -39 5.5 -62 t22.5 -35q15 -11 32.5 -15t40.5 -4z" />
<glyph unicode="v" horiz-adv-x="473" d="M278 -4h-87l-176 469q22 8 45 8q30 0 44.5 -18.5t25.5 -53.5l107 -318l109 314q12 36 26 56t46 20q12 0 22.5 -2.5t17.5 -6.5z" />
<glyph unicode="w" horiz-adv-x="694" d="M536 -4h-85l-94 243l-103 -243h-76l-163 470q11 3 21.5 5t22.5 2q47 0 63 -52l103 -330l96 235l-51 141q19 6 40 6q45 0 62 -48l120 -335l82 317q7 27 21 46.5t43 19.5q20 0 41 -8z" />
<glyph unicode="x" horiz-adv-x="437" d="M221 295l90 135q15 23 31 34.5t41 11.5q15 0 25.5 -2.5t18.5 -6.5l-160 -234l159 -232q-8 -4 -22 -6t-24 -2q-17 0 -35.5 7t-32.5 27l-97 142l-91 -139q-14 -22 -32.5 -29.5t-41.5 -7.5q-9 0 -20.5 1.5t-19.5 5.5l159 233l-153 235q9 2 23.5 5t25.5 3q27 0 41 -10t26 -29 z" />
<glyph unicode="y" horiz-adv-x="466" d="M269 -65q-11 -32 -24 -61t-32 -50.5t-46.5 -34.5t-66.5 -13q-38 0 -63.5 11t-25.5 34q0 14 7.5 29t15.5 26q8 -7 24.5 -16.5t41.5 -9.5q35 0 56.5 26t38.5 80l14 45h-34l-162 464q21 8 44 8q26 0 42 -17t24 -40l110 -341l110 332q3 11 8 22.5t13.5 21.5t20.5 16t29 6 q20 0 37 -9z" />
<glyph unicode="z" horiz-adv-x="428" d="M30 0v62l259 337h-255q0 37 15.5 55.5t50.5 18.5h254q42 0 42 -35v-24l-264 -340h207q34 0 50 -16.5t16 -57.5h-375z" />
<glyph unicode="{" horiz-adv-x="317" d="M193 420q0 -45 -14 -76.5t-50 -48.5q19 -8 31 -22t19.5 -32.5t10.5 -40.5t3 -45v-143q0 -25 8.5 -40t22.5 -23.5t32 -11t38 -2.5q3 -13 4 -22.5t1 -16.5q0 -20 -13 -26t-31 -6q-43 0 -71.5 13.5t-46 34.5t-24.5 47t-7 52v150q0 45 -17 71.5t-53 26.5v72q38 0 54 28t16 77 v113q0 36 9 67t28 53.5t48.5 35t69.5 12.5q16 0 27 -7.5t11 -26.5q0 -6 -1 -15.5t-4 -21.5q-21 0 -39 -2.5t-32 -11t-22 -23.5t-8 -40v-149z" />
<glyph unicode="|" horiz-adv-x="259" d="M86 -186v979h78v-979h-78z" />
<glyph unicode="}" horiz-adv-x="316" d="M117 569q0 25 -8 40t-22 23.5t-32 11t-39 2.5q-3 12 -4 21.5t-1 15.5q0 19 11 26.5t27 7.5q40 0 69.5 -12.5t48.5 -35t28 -53.5t9 -67v-113q0 -49 16 -77t54 -28v-72q-36 0 -53 -26.5t-17 -71.5v-150q0 -26 -7.5 -52t-24.5 -47t-45.5 -34.5t-71.5 -13.5q-18 0 -31 6 t-13 26q0 7 1 16.5t4 22.5q20 0 38 2.5t32 11t22.5 23.5t8.5 40v143q0 23 3 45t10.5 40.5t19.5 32.5t31 22q-36 17 -50 48.5t-14 76.5v149z" />
<glyph unicode="~" horiz-adv-x="462" d="M447 658q-2 -36 -13 -63.5t-27.5 -46t-37.5 -28t-43 -9.5q-29 0 -51.5 12t-42.5 26q-2 2 -3.5 2.5t-3.5 2.5q-2 1 -3 2t-3 2q-17 11 -33.5 20t-37.5 9q-29 0 -48 -18t-24 -56h-62q7 68 42.5 106t89.5 38q38 0 64.5 -15t49.5 -31q1 -1 2 -1.5t2 -1.5q13 -10 28 -18.5 t30 -8.5q30 0 44 21.5t18 55.5h63z" />
<glyph unicode="&#xa1;" horiz-adv-x="225" d="M169 -211q-3 -1 -7 -1h-12q-28 0 -47.5 14t-19.5 52v431h6q3 0 6.5 0.5t6.5 0.5q28 0 47.5 -14t19.5 -52v-431zM67 416q0 26 16 42.5t41 16.5q26 0 42 -16.5t16 -42.5t-16 -43.5t-42 -17.5q-25 0 -41 17.5t-16 43.5z" />
<glyph unicode="&#xa2;" horiz-adv-x="549" d="M270 82q-31 4 -64.5 16.5t-61 40.5t-45.5 74t-18 117q0 66 18.5 110.5t46.5 73t61.5 42t62.5 18.5v97h62v-96q29 -3 53.5 -11t42 -18.5t27 -22.5t9.5 -22t-6.5 -22t-13.5 -24l-3 -6h-12q-15 17 -38.5 31.5t-58.5 19.5v-346q23 2 40.5 11t31.5 19q15 11 28 25 q8 -8 19.5 -23.5t11.5 -28.5q0 -8 -6.5 -17t-20.5 -19q-17 -11 -44.5 -22.5t-59.5 -15.5v-101h-62v100zM169 331q0 -70 23 -114.5t78 -59.5v340q-54 -13 -77.5 -57t-23.5 -109z" />
<glyph unicode="&#xa3;" horiz-adv-x="549" d="M131 286h-71v71h70v124q0 51 16.5 87t45 58.5t65 32.5t77.5 10q33 0 64 -7.5t55.5 -19.5t39.5 -26.5t15 -29.5q0 -11 -8.5 -25.5t-21.5 -27.5h-10q-8 9 -20 19.5t-28.5 20t-37.5 15.5t-46 6q-24 0 -46 -5.5t-38.5 -19t-26 -37t-9.5 -59.5v-116h211v-71h-211v-211h233 q32 0 46 -15t14 -37q0 -5 -0.5 -9t-0.5 -7v-7h-377v286z" />
<glyph unicode="&#xa4;" horiz-adv-x="551" d="M454 111l-57 56q-27 -18 -59.5 -28.5t-64.5 -10.5t-63 10t-57 27l-57 -54l-50 49l56 57q-17 25 -27.5 57.5t-10.5 64.5q0 34 10.5 66.5t28.5 58.5h1l-57 54l51 50l54 -54q26 18 58 28.5t64 10.5t64.5 -11.5t58.5 -29.5l57 58l51 -51l-60 -57h1q17 -26 26.5 -58t9.5 -64 t-9.5 -64t-27.5 -57l59 -59zM410 339q0 65 -35 106t-101 41q-67 0 -102.5 -41t-35.5 -106q0 -64 36 -105t102 -41t101 41t35 105z" />
<glyph unicode="&#xa5;" horiz-adv-x="549" d="M344 337h116v-61h-143v-80h143v-61h-143v-135h-88v135h-139v61h139v80h-139v61h111l-166 325q9 5 22.5 8t28.5 3q23 0 38 -11t24 -30l126 -270l127 263q9 20 24.5 33.5t39.5 13.5q13 0 23.5 -2t23.5 -6z" />
<glyph unicode="&#xa6;" horiz-adv-x="259" d="M86 -186v406h78v-406h-78zM164 414h-78v379h78v-379z" />
<glyph unicode="&#xa7;" horiz-adv-x="499" d="M64 292q0 25 8 46t20 37t25.5 27.5t24.5 18.5q-30 19 -47.5 46.5t-17.5 71.5q0 33 14.5 59.5t39 45t57 28.5t69.5 10q28 0 57 -6t52.5 -16.5t38.5 -25t15 -31.5q0 -16 -7.5 -28.5t-16.5 -23.5h-14q-20 23 -51 40.5t-73 17.5q-45 0 -71.5 -18t-26.5 -52q0 -32 24 -50.5 t67 -36.5l78 -34q50 -21 79 -52t29 -86q0 -23 -8 -43.5t-19.5 -37.5t-24.5 -30t-23 -21q20 -17 35.5 -40t15.5 -59q0 -38 -14 -66t-38 -47.5t-55.5 -29t-66.5 -9.5q-49 0 -86 10t-60 25q-24 16 -24 37q0 14 11 29.5t20 26.5q29 -27 64.5 -41t74.5 -14q38 0 65.5 19t27.5 54 q0 17 -6 29t-18 22t-31 19t-45 20l-67 27q-57 23 -79 56t-22 76zM142 303q0 -26 15 -44.5t58 -36.5l91 -39q17 14 34 37t17 52q0 31 -23 51t-54 33l-82 33q-7 -4 -16.5 -11.5t-18.5 -18.5t-15 -25t-6 -31z" />
<glyph unicode="&#xa8;" horiz-adv-x="383" d="M153 608q0 -23 -14 -38t-37 -15t-37 15t-14 38t14.5 38.5t36.5 15.5t36.5 -15.5t14.5 -38.5zM332 608q0 -23 -14 -38t-37 -15t-37 15t-14 38t14.5 38.5t36.5 15.5t36.5 -15.5t14.5 -38.5z" />
<glyph unicode="&#xa9;" horiz-adv-x="793" d="M534 153q-14 -11 -47 -24.5t-81 -13.5q-35 0 -70.5 10t-64 35.5t-47 68t-18.5 108.5q0 65 20.5 108t51.5 68.5t67 36t67 10.5q34 0 61 -8.5t46 -20t28.5 -23.5t9.5 -20q0 -11 -7.5 -24t-16.5 -25h-8q-20 26 -46 40.5t-67 14.5q-35 0 -59.5 -13t-39.5 -35t-22 -50t-7 -59 q0 -30 6.5 -58t22 -50t40 -35.5t60.5 -13.5q26 0 47.5 7.5t35.5 17.5q17 11 30 25q7 -8 18 -20.5t11 -25.5q0 -10 -5.5 -16.5t-15.5 -14.5zM729 332q0 -72 -23 -136t-66 -112t-104.5 -76t-139.5 -28t-140 28t-104.5 76t-65 112t-22.5 136t23 135.5t66 111t104.5 75.5 t139.5 28t139.5 -28t104 -75.5t65.5 -111t23 -135.5zM668 332q0 58 -18 111t-52.5 93.5t-85 64.5t-115.5 24t-115 -24t-84.5 -64.5t-52.5 -93.5t-18 -111t17.5 -111.5t52 -94t85 -65t115.5 -24.5t115.5 24.5t85 65t52.5 94t18 111.5z" />
<glyph unicode="&#xaa;" horiz-adv-x="418" d="M344 387q0 -21 8.5 -28t34.5 -7v-31q-5 -3 -13 -6q-15 -5 -37 -5q-23 0 -40 10t-23 27q-17 -16 -46 -28t-65 -12q-20 0 -40.5 4.5t-37.5 17t-28 34t-11 54.5q0 40 20 65.5t50 39.5t64 19.5t63 5.5h25v9q0 29 -15 46.5t-56 17.5q-35 0 -59 -9.5t-45 -23.5h-10 q-7 11 -11.5 21.5t-4.5 21.5q0 10 12.5 19t32.5 16.5t44 12t48 4.5q80 0 110 -36t30 -103v-156zM269 495h-15q-23 0 -46.5 -3.5t-42.5 -11.5t-31 -23t-12 -38q0 -20 12 -37t45 -17q17 0 33.5 4.5t29 11.5t20 15.5t7.5 16.5v82z" />
<glyph unicode="&#xab;" horiz-adv-x="485" d="M333 275l79 -93q10 -12 13.5 -23t3.5 -22t-5 -24t-12 -22l-135 123q-14 13 -23 28t-9 33q0 17 10.5 32.5t24.5 28.5l129 121q9 -10 15 -23t6 -24q0 -24 -15 -42zM143 275l79 -93q10 -12 13.5 -23t3.5 -22t-5 -24t-12 -22l-135 123q-14 13 -23 28t-9 33q0 17 10.5 32.5 t24.5 28.5l129 121q9 -10 15 -23t6 -24q0 -24 -15 -42z" />
<glyph unicode="&#xac;" horiz-adv-x="562" d="M422 167v175h-357v80h436v-255h-79z" />
<glyph unicode="&#xad;" horiz-adv-x="441" d="M121 231q-21 0 -36 11.5t-15 40.5v10.5t1 10.5q0 5 1 10h251q9 0 18.5 -1t17.5 -6t13.5 -15t5.5 -28q0 -5 -0.5 -11t-0.5 -11q-1 -6 -1 -11h-255z" />
<glyph unicode="&#xae;" horiz-adv-x="793" d="M729 332q0 -72 -23 -136t-66 -112t-104.5 -76t-139.5 -28t-140 28t-104.5 76t-65 112t-22.5 136t23 135.5t66 111t104.5 75.5t139.5 28t139.5 -28t104 -75.5t65.5 -111t23 -135.5zM668 332q0 58 -18 111t-52.5 93.5t-85 64.5t-115.5 24t-115 -24t-84.5 -64.5t-52.5 -93.5 t-18 -111t17.5 -111.5t52 -94t85 -65t115.5 -24.5t115.5 24.5t85 65t52.5 94t18 111.5zM561 130q-9 -5 -18.5 -7t-17.5 -2q-15 0 -28.5 6.5t-23.5 23.5l-85 141h-52v-166h-63v419q28 3 60.5 4.5t52.5 1.5q88 0 126.5 -35.5t38.5 -89.5q0 -27 -8 -48t-21 -36.5t-30.5 -26 t-35.5 -14.5h2zM485 425q0 33 -22.5 50t-73.5 17q-18 0 -31 -0.5t-24 -2.5h2v-138h63q86 0 86 74z" />
<glyph unicode="&#xaf;" horiz-adv-x="368" d="M78 572q-24 0 -35 9t-11 32q0 12 4 27h247q23 0 37.5 -8t14.5 -35q0 -8 -0.5 -14t-1.5 -11h-255z" />
<glyph unicode="&#xb0;" horiz-adv-x="374" d="M319 561q0 -28 -10 -52.5t-27.5 -42.5t-42 -28.5t-53.5 -10.5q-31 0 -55.5 10.5t-42 28.5t-26.5 42.5t-9 52.5q0 27 10 51.5t27.5 42.5t42 28.5t53.5 10.5q61 0 97 -37.5t36 -95.5zM262 561q0 32 -22 54t-54 22t-52.5 -22t-20.5 -54t20.5 -54.5t52.5 -22.5t54 22.5 t22 54.5z" />
<glyph unicode="&#xb1;" horiz-adv-x="540" d="M75 0v80h388v-80h-388zM310 298v-161h-82v160h-153v80h153v160h82v-159h153v-80h-153z" />
<glyph unicode="&#xb2;" d="M48 306v53q24 20 53 49t52 56q24 28 39.5 53.5t15.5 53.5q0 26 -15.5 39t-43.5 13q-27 0 -46.5 -13t-30.5 -26h-11q-11 11 -17 20t-6 19q0 8 3.5 13t9.5 10q5 4 15 10.5t24 12.5t31 10t36 4q53 0 86.5 -26t33.5 -84q0 -40 -21.5 -75.5t-49.5 -67.5q-15 -17 -29.5 -32 t-29.5 -29h102q8 0 16 -1t14 -5t10 -12t4 -22q0 -4 -0.5 -7.5t-0.5 -7.5v-8h-244z" />
<glyph unicode="&#xb3;" d="M289 415q0 -51 -33.5 -84t-100.5 -33q-29 0 -54 7.5t-39 17.5q-15 11 -20 18.5t-5 16.5q0 12 9.5 25t16.5 21q14 -16 37 -30.5t52 -14.5q12 0 23.5 2.5t21.5 8.5t16 17.5t6 29.5q0 19 -8.5 30.5t-19.5 16.5t-23 6.5t-18 1.5h-32v58h33q7 0 17 1.5t19.5 7t16 15t6.5 25.5 q0 45 -55 45q-29 0 -48.5 -11.5t-32.5 -24.5h-13q-8 10 -14 19t-6 17t7.5 16.5t19.5 16.5q15 11 38 18.5t55 7.5q62 0 90.5 -27t28.5 -70q0 -35 -15 -55t-31 -29q9 -5 18.5 -11.5t17.5 -17t13.5 -25t5.5 -33.5z" />
<glyph unicode="&#xb4;" horiz-adv-x="365" d="M181 566q-11 -13 -23.5 -20.5t-27.5 -7.5q-11 0 -22.5 5t-19.5 11l84 110q11 15 22.5 25t30.5 10q14 0 30 -7.5t27 -16.5z" />
<glyph unicode="&#xb5;" horiz-adv-x="582" d="M487 118q0 -29 6.5 -45t28.5 -16q11 0 30 7l10 -68q-12 -5 -27.5 -8t-29.5 -3q-33 0 -54 17t-29 47q-23 -27 -56.5 -45.5t-80.5 -18.5q-40 0 -71 17.5t-49 42.5v-234h-82v659h86v-281q0 -58 30.5 -93t82.5 -35q36 0 59 11.5t36.5 30t18.5 42t5 47.5v278h86v-352z" />
<glyph unicode="&#xb6;" horiz-adv-x="573" d="M262 -118v380h-16q-45 0 -81.5 16t-61.5 43.5t-38.5 64t-13.5 77.5q0 51 16.5 89.5t44.5 64.5t66 39t82 13h186q8 0 17 -1t16.5 -6.5t12 -16t4.5 -28.5v-735h-74v718h-87v-718h-73z" />
<glyph unicode="&#xb7;" horiz-adv-x="250" d="M189 359q0 -26 -16 -44t-42 -18q-25 0 -41 18t-16 44t16.5 44t40.5 18q25 0 41.5 -18t16.5 -44z" />
<glyph unicode="&#xb8;" horiz-adv-x="363" d="M244 -121q0 -22 -8.5 -39t-22 -28.5t-30.5 -17.5t-34 -6q-35 0 -35 31q0 5 1 14t4 19q7 -3 13.5 -4t12.5 -1q17 0 26.5 6t9.5 19q0 12 -6 20t-14 16t-14 16.5t-6 22.5q0 19 11.5 36.5t17.5 25.5h59q-14 -14 -21.5 -23.5t-7.5 -20.5q0 -10 5 -17t13 -14q9 -9 17.5 -21 t8.5 -34z" />
<glyph unicode="&#xb9;" d="M146 306v290l-92 -47q-7 9 -14.5 23t-7.5 22q0 15 20 26l88 49q11 6 21 10.5t20 4.5q21 0 35 -10v-368h-70z" />
<glyph unicode="&#xba;" horiz-adv-x="453" d="M398 497q0 -38 -9.5 -73t-30 -61t-53.5 -41.5t-80 -15.5q-46 0 -78.5 15.5t-52.5 41.5t-29.5 60t-9.5 71q0 39 10.5 73t32.5 59.5t54 40.5t76 15q46 0 78.5 -14.5t53 -40t29.5 -59t9 -71.5zM319 497q0 23 -4 44.5t-14.5 38.5t-28 27.5t-45.5 10.5q-27 0 -45 -10.5 t-29 -27.5t-15.5 -39t-4.5 -45t4.5 -45t15 -39.5t28.5 -28t45 -10.5q28 0 46 10.5t28.5 28t14.5 40t4 45.5z" />
<glyph unicode="&#xbb;" horiz-adv-x="485" d="M260 368q-15 18 -15 42q0 11 6 24t15 23l129 -121q14 -13 24.5 -28.5t10.5 -32.5q0 -18 -9 -33t-23 -28l-135 -123q-7 9 -12 22t-5 24t3.5 22t13.5 23l79 93zM70 368q-15 18 -15 42q0 11 6 24t15 23l129 -121q14 -13 24.5 -28.5t10.5 -32.5q0 -18 -9 -33t-23 -28 l-135 -123q-7 9 -12 22t-5 24t3.5 22t13.5 23l79 93z" />
<glyph unicode="&#xbc;" horiz-adv-x="810" d="M250 0h-82l357 643q10 18 24.5 28.5t39.5 10.5q17 0 27 -4q4 -2 7 -3zM147 306v290l-92 -47q-7 9 -14.5 23t-7.5 22q0 15 20 26l88 49q11 6 21 10.5t20 4.5q21 0 35 -10v-368h-70zM493 72v49l149 225q8 12 19 22.5t26 10.5q8 0 17 -2.5t16 -7.5v-240h14q33 0 33 -33 q0 -4 -2 -14l-2 -10h-43v-71h-68v71h-159zM652 129v148l-97 -148h97z" />
<glyph unicode="&#xbd;" horiz-adv-x="810" d="M223 0h-82l357 643q10 18 24.5 28.5t39.5 10.5q17 0 27 -4q4 -2 7 -3zM136 306v290l-92 -47q-7 9 -14.5 23t-7.5 22q0 15 20 26l88 49q11 6 21 10.5t20 4.5q21 0 35 -10v-368h-70zM511 1v53q24 20 53 49t52 56q24 28 39.5 53.5t15.5 53.5q0 26 -15.5 39t-43.5 13 q-27 0 -46.5 -13t-30.5 -26h-11q-11 11 -17 20t-6 19q0 8 3.5 13t9.5 10q5 4 15 10.5t24 12.5t31 10t36 4q53 0 86.5 -26t33.5 -84q0 -40 -21.5 -75.5t-49.5 -67.5q-15 -17 -29.5 -32t-29.5 -29h102q8 0 16 -1t14 -5t10 -12t4 -22q0 -4 -0.5 -7.5t-0.5 -7.5v-8h-244z" />
<glyph unicode="&#xbe;" horiz-adv-x="810" d="M285 0h-82l357 643q10 18 24.5 28.5t39.5 10.5q17 0 27 -4q4 -2 7 -3zM312 415q0 -51 -33.5 -84t-100.5 -33q-29 0 -54 7.5t-39 17.5q-15 11 -20 18.5t-5 16.5q0 12 9.5 25t16.5 21q14 -16 37 -30.5t52 -14.5q12 0 23.5 2.5t21.5 8.5t16 17.5t6 29.5q0 19 -8.5 30.5 t-19.5 16.5t-23 6.5t-18 1.5h-32v58h33q7 0 17 1.5t19.5 7t16 15t6.5 25.5q0 45 -55 45q-29 0 -48.5 -11.5t-32.5 -24.5h-13q-8 10 -14 19t-6 17t7.5 16.5t19.5 16.5q15 11 38 18.5t55 7.5q62 0 90.5 -27t28.5 -70q0 -35 -15 -55t-31 -29q9 -5 18.5 -11.5t17.5 -17t13.5 -25 t5.5 -33.5zM489 72v49l149 225q8 12 19 22.5t26 10.5q8 0 17 -2.5t16 -7.5v-240h14q33 0 33 -33q0 -4 -2 -14l-2 -10h-43v-71h-68v71h-159zM648 129v148l-97 -148h97z" />
<glyph unicode="&#xbf;" horiz-adv-x="383" d="M208 -222q-40 0 -75.5 10.5t-62.5 32t-43 54.5t-16 78q0 30 8 54.5t21 45.5t29 38.5t32 32.5q35 30 61 59.5t26 61.5q0 8 -1 19t-3 21q4 1 9.5 1h10.5q27 0 41.5 -16.5t14.5 -45.5q0 -20 -7 -37.5t-18 -33.5t-25.5 -30.5t-30.5 -29.5q-15 -14 -29 -29t-25.5 -31.5 t-18 -35.5t-6.5 -41q0 -28 9.5 -47.5t26 -32t37.5 -18t45 -5.5q27 0 48.5 6t39 15t29.5 19t20 17h12q8 -11 16.5 -25t8.5 -27q0 -15 -17 -27q-8 -6 -22 -15t-34.5 -17.5t-48.5 -14.5t-62 -6zM161 414q0 26 16.5 43.5t42.5 17.5q24 0 40.5 -17.5t16.5 -43.5t-16.5 -44 t-40.5 -18q-26 0 -42.5 18t-16.5 44z" />
<glyph unicode="&#xc0;" horiz-adv-x="625" d="M512 0l-67 180h-270l-65 -180h-88l242 663q7 3 21 6t28 3q19 0 34.5 -8.5t24.5 -32.5l231 -631h-91zM310 570l-113 -319h225zM153 819q9 15 25.5 27t33.5 12q14 0 26.5 -6.5t28.5 -19.5l103 -83q-7 -9 -20.5 -17.5t-27.5 -8.5q-11 0 -22.5 5t-25.5 13z" />
<glyph unicode="&#xc1;" horiz-adv-x="625" d="M512 0l-67 180h-270l-65 -180h-88l242 663q7 3 21 6t28 3q19 0 34.5 -8.5t24.5 -32.5l231 -631h-91zM310 570l-113 -319h225zM348 741q-14 -8 -25.5 -13t-22.5 -5q-12 0 -26.5 8.5t-21.5 17.5l103 83q16 13 28.5 19.5t26.5 6.5q17 0 33.5 -12t25.5 -27z" />
<glyph unicode="&#xc2;" horiz-adv-x="625" d="M512 0l-67 180h-270l-65 -180h-88l242 663q7 3 21 6t28 3q19 0 34.5 -8.5t24.5 -32.5l231 -631h-91zM310 570l-113 -319h225zM309 790l-53 -48q-9 -9 -19 -15t-24 -6q-9 0 -19 4.5t-18 11.5l85 98q24 29 50 29t48 -27l87 -103q-8 -5 -18 -9t-19 -4q-12 0 -22.5 5.5 t-23.5 16.5z" />
<glyph unicode="&#xc3;" horiz-adv-x="625" d="M512 0l-67 180h-270l-65 -180h-88l242 663q7 3 21 6t28 3q19 0 34.5 -8.5t24.5 -32.5l231 -631h-91zM310 570l-113 -319h225zM431 847q11 -7 23 -18.5t12 -23.5q0 -13 -12 -28q-13 -16 -33.5 -27.5t-47.5 -11.5q-20 0 -37 5.5t-33 12.5q-14 6 -27.5 10.5t-28.5 4.5 q-20 0 -37.5 -12t-33.5 -31q-9 7 -18.5 18t-9.5 22q0 10 7 19.5t18 17.5q17 14 37 21.5t39 7.5q18 0 32.5 -5t27.5 -11q14 -7 28 -12t31 -5q20 0 34.5 12t28.5 34z" />
<glyph unicode="&#xc4;" horiz-adv-x="625" d="M512 0l-67 180h-270l-65 -180h-88l242 663q7 3 21 6t28 3q19 0 34.5 -8.5t24.5 -32.5l231 -631h-91zM310 570l-113 -319h225zM273 784q0 -23 -14 -38t-37 -15t-37 15t-14 38t14.5 38.5t36.5 15.5t36.5 -15.5t14.5 -38.5zM452 784q0 -23 -14 -38t-37 -15t-37 15t-14 38 t14.5 38.5t36.5 15.5t36.5 -15.5t14.5 -38.5z" />
<glyph unicode="&#xc5;" horiz-adv-x="625" d="M419 746q0 -22 -7.5 -42t-21.5 -35q-11 -13 -27 -21q5 -7 9 -17l231 -631h-91l-67 180h-270l-65 -180h-88l237 650q-14 7 -24 19q-13 15 -20.5 34.5t-7.5 41.5q0 46 28.5 78t77.5 32t77.5 -30t28.5 -79zM310 570l-113 -319h225zM367 745q0 23 -11.5 42.5t-43.5 19.5 q-27 0 -39.5 -19t-12.5 -42q0 -24 13.5 -42t39.5 -18t40 17.5t14 41.5z" />
<glyph unicode="&#xc6;" horiz-adv-x="879" d="M535 388h227v-77h-227v-236h254q33 0 47.5 -15.5t14.5 -38.5q0 -4 -0.5 -7.5t-0.5 -6.5v-7h-402v178h-234l-100 -178h-97l339 585q20 35 40.5 59.5t54.5 24.5h383q2 -6 2 -10.5v-10.5q0 -23 -13 -38.5t-48 -15.5h-240v-206zM448 251v342l-197 -342h197z" />
<glyph unicode="&#xc7;" horiz-adv-x="596" d="M404 -121q0 -22 -8.5 -39t-22 -28.5t-30.5 -17.5t-34 -6q-35 0 -35 31q0 5 1 14t4 19q7 -3 13.5 -4t12.5 -1q17 0 26.5 6t9.5 19q0 12 -6 20t-14 16t-14 16.5t-6 22.5q0 19 11 37q1 1 2 3q-51 5 -91 24q-56 26 -92 72t-53 110t-17 139t17.5 139.5t54 111t92 73 t132.5 26.5q39 0 75 -9t63.5 -23t44 -31t16.5 -32q0 -13 -8.5 -27.5t-17.5 -25.5h-18q-11 12 -25.5 25t-33.5 23t-43 16.5t-53 6.5q-60 0 -99.5 -23.5t-63 -62t-33.5 -87t-10 -99.5q0 -52 10.5 -101t35.5 -87.5t66 -61.5t102 -23q33 0 60 9.5t46.5 22.5t32.5 25t18 18 q11 -9 23.5 -25.5t12.5 -28.5q0 -9 -4 -15.5t-10 -14.5q-5 -5 -19 -16t-37.5 -22t-56.5 -19q-28 -8 -64 -9q-7 -9 -7 -20q0 -10 5 -17t13 -14q9 -9 17.5 -21t8.5 -34z" />
<glyph unicode="&#xc8;" horiz-adv-x="509" d="M165 388h227v-77h-227v-236h254q33 0 47.5 -15.5t14.5 -38.5q0 -4 -0.5 -7.5t-0.5 -6.5v-7h-402v669h386q2 -6 2 -10.5v-10.5q0 -23 -13 -38.5t-48 -15.5h-240v-206zM111 819q9 15 25.5 27t33.5 12q14 0 26.5 -6.5t28.5 -19.5l103 -83q-7 -9 -20.5 -17.5t-27.5 -8.5 q-11 0 -22.5 5t-25.5 13z" />
<glyph unicode="&#xc9;" horiz-adv-x="509" d="M165 388h227v-77h-227v-236h254q33 0 47.5 -15.5t14.5 -38.5q0 -4 -0.5 -7.5t-0.5 -6.5v-7h-402v669h386q2 -6 2 -10.5v-10.5q0 -23 -13 -38.5t-48 -15.5h-240v-206zM293 741q-14 -8 -25.5 -13t-22.5 -5q-12 0 -26.5 8.5t-21.5 17.5l103 83q16 13 28.5 19.5t26.5 6.5 q17 0 33.5 -12t25.5 -27z" />
<glyph unicode="&#xca;" horiz-adv-x="509" d="M165 388h227v-77h-227v-236h254q33 0 47.5 -15.5t14.5 -38.5q0 -4 -0.5 -7.5t-0.5 -6.5v-7h-402v669h386q2 -6 2 -10.5v-10.5q0 -23 -13 -38.5t-48 -15.5h-240v-206zM271 790l-53 -48q-9 -9 -19 -15t-24 -6q-9 0 -19 4.5t-18 11.5l85 98q24 29 50 29t48 -27l87 -103 q-8 -5 -18 -9t-19 -4q-12 0 -22.5 5.5t-23.5 16.5z" />
<glyph unicode="&#xcb;" horiz-adv-x="509" d="M165 388h227v-77h-227v-236h254q33 0 47.5 -15.5t14.5 -38.5q0 -4 -0.5 -7.5t-0.5 -6.5v-7h-402v669h386q2 -6 2 -10.5v-10.5q0 -23 -13 -38.5t-48 -15.5h-240v-206zM233 812q0 -23 -14 -38t-37 -15t-37 15t-14 38t14.5 38.5t36.5 15.5t36.5 -15.5t14.5 -38.5zM412 812 q0 -23 -14 -38t-37 -15t-37 15t-14 38t14.5 38.5t36.5 15.5t36.5 -15.5t14.5 -38.5z" />
<glyph unicode="&#xcc;" horiz-adv-x="240" d="M164 0h-88v670q4 0 8 1q4 0 8 0.5t9 0.5q9 0 19.5 -2.5t20.5 -9t16.5 -19t6.5 -32.5v-609zM-45 819q9 15 25.5 27t33.5 12q14 0 26.5 -6.5t28.5 -19.5l103 -83q-7 -9 -20.5 -17.5t-27.5 -8.5q-11 0 -22.5 5t-25.5 13z" />
<glyph unicode="&#xcd;" horiz-adv-x="240" d="M164 0h-88v670q4 0 8 1q4 0 8 0.5t9 0.5q9 0 19.5 -2.5t20.5 -9t16.5 -19t6.5 -32.5v-609zM146 741q-14 -8 -25.5 -13t-22.5 -5q-12 0 -26.5 8.5t-21.5 17.5l103 83q16 13 28.5 19.5t26.5 6.5q17 0 33.5 -12t25.5 -27z" />
<glyph unicode="&#xce;" horiz-adv-x="240" d="M164 0h-88v670q4 0 8 1q4 0 8 0.5t9 0.5q9 0 19.5 -2.5t20.5 -9t16.5 -19t6.5 -32.5v-609zM115 790l-53 -48q-9 -9 -19 -15t-24 -6q-9 0 -19 4.5t-18 11.5l85 98q24 29 50 29t48 -27l87 -103q-8 -5 -18 -9t-19 -4q-12 0 -22.5 5.5t-23.5 16.5z" />
<glyph unicode="&#xcf;" horiz-adv-x="240" d="M164 0h-88v670q4 0 8 1q4 0 8 0.5t9 0.5q9 0 19.5 -2.5t20.5 -9t16.5 -19t6.5 -32.5v-609zM84 784q0 -23 -14 -38t-37 -15t-37 15t-14 38t14.5 38.5t36.5 15.5t36.5 -15.5t14.5 -38.5zM263 784q0 -23 -14 -38t-37 -15t-37 15t-14 38t14.5 38.5t36.5 15.5t36.5 -15.5 t14.5 -38.5z" />
<glyph unicode="&#xd0;" horiz-adv-x="638" d="M586 346q0 -71 -17 -133.5t-53.5 -110t-93.5 -75t-136 -27.5h-203v316h-66v67h66v283q54 6 94.5 8t75.5 2q96 0 160 -26t102.5 -71t54.5 -105t16 -128zM496 341q0 56 -11.5 103.5t-39 82t-74 53.5t-116.5 19q-20 0 -42 -1t-42 -4v-211h198v-67h-198v-242h50h29t28 1 q70 2 113 27.5t66 63.5t31 84.5t8 90.5z" />
<glyph unicode="&#xd1;" horiz-adv-x="660" d="M500 133v537q3 0 7 1q3 0 7.5 0.5t9.5 0.5q9 0 19 -2.5t18.5 -9t14 -19t5.5 -32.5v-609h-81l-340 519v-519h-81v667q6 2 17 3.5t22 1.5q22 0 34.5 -7.5t23.5 -25.5zM458 847q11 -7 23 -18.5t12 -23.5q0 -13 -12 -28q-13 -16 -33.5 -27.5t-47.5 -11.5q-20 0 -37 5.5 t-33 12.5q-14 6 -27.5 10.5t-28.5 4.5q-20 0 -37.5 -12t-33.5 -31q-9 7 -18.5 18t-9.5 22q0 10 7 19.5t18 17.5q17 14 37 21.5t39 7.5q18 0 32.5 -5t27.5 -11q14 -7 28 -12t31 -5q20 0 34.5 12t28.5 34z" />
<glyph unicode="&#xd2;" horiz-adv-x="699" d="M638 338q0 -72 -16.5 -136t-51.5 -112t-90.5 -76.5t-133.5 -28.5q-77 0 -131.5 29t-88.5 77.5t-49.5 112.5t-15.5 133t17 131.5t53 110t91.5 75.5t132.5 28q75 0 128.5 -27t88 -73.5t50.5 -109.5t16 -134zM547 337q0 54 -10 102t-32.5 84.5t-60 57.5t-91.5 21 q-57 0 -95 -21t-61.5 -57.5t-33.5 -84.5t-10 -102t10 -103.5t33 -88t60.5 -61t93.5 -22.5q55 0 93 22.5t61 61t33 88t10 103.5zM209 819q9 15 25.5 27t33.5 12q14 0 26.5 -6.5t28.5 -19.5l103 -83q-7 -9 -20.5 -17.5t-27.5 -8.5q-11 0 -22.5 5t-25.5 13z" />
<glyph unicode="&#xd3;" horiz-adv-x="699" d="M638 338q0 -72 -16.5 -136t-51.5 -112t-90.5 -76.5t-133.5 -28.5q-77 0 -131.5 29t-88.5 77.5t-49.5 112.5t-15.5 133t17 131.5t53 110t91.5 75.5t132.5 28q75 0 128.5 -27t88 -73.5t50.5 -109.5t16 -134zM547 337q0 54 -10 102t-32.5 84.5t-60 57.5t-91.5 21 q-57 0 -95 -21t-61.5 -57.5t-33.5 -84.5t-10 -102t10 -103.5t33 -88t60.5 -61t93.5 -22.5q55 0 93 22.5t61 61t33 88t10 103.5zM398 741q-14 -8 -25.5 -13t-22.5 -5q-12 0 -26.5 8.5t-21.5 17.5l103 83q16 13 28.5 19.5t26.5 6.5q17 0 33.5 -12t25.5 -27z" />
<glyph unicode="&#xd4;" horiz-adv-x="699" d="M638 338q0 -72 -16.5 -136t-51.5 -112t-90.5 -76.5t-133.5 -28.5q-77 0 -131.5 29t-88.5 77.5t-49.5 112.5t-15.5 133t17 131.5t53 110t91.5 75.5t132.5 28q75 0 128.5 -27t88 -73.5t50.5 -109.5t16 -134zM547 337q0 54 -10 102t-32.5 84.5t-60 57.5t-91.5 21 q-57 0 -95 -21t-61.5 -57.5t-33.5 -84.5t-10 -102t10 -103.5t33 -88t60.5 -61t93.5 -22.5q55 0 93 22.5t61 61t33 88t10 103.5zM357 790l-53 -48q-9 -9 -19 -15t-24 -6q-9 0 -19 4.5t-18 11.5l85 98q24 29 50 29t48 -27l87 -103q-8 -5 -18 -9t-19 -4q-12 0 -22.5 5.5 t-23.5 16.5z" />
<glyph unicode="&#xd5;" horiz-adv-x="699" d="M638 338q0 -72 -16.5 -136t-51.5 -112t-90.5 -76.5t-133.5 -28.5q-77 0 -131.5 29t-88.5 77.5t-49.5 112.5t-15.5 133t17 131.5t53 110t91.5 75.5t132.5 28q75 0 128.5 -27t88 -73.5t50.5 -109.5t16 -134zM547 337q0 54 -10 102t-32.5 84.5t-60 57.5t-91.5 21 q-57 0 -95 -21t-61.5 -57.5t-33.5 -84.5t-10 -102t10 -103.5t33 -88t60.5 -61t93.5 -22.5q55 0 93 22.5t61 61t33 88t10 103.5zM486 847q11 -7 23 -18.5t12 -23.5q0 -13 -12 -28q-13 -16 -33.5 -27.5t-47.5 -11.5q-20 0 -37 5.5t-33 12.5q-14 6 -27.5 10.5t-28.5 4.5 q-20 0 -37.5 -12t-33.5 -31q-9 7 -18.5 18t-9.5 22q0 10 7 19.5t18 17.5q17 14 37 21.5t39 7.5q18 0 32.5 -5t27.5 -11q14 -7 28 -12t31 -5q20 0 34.5 12t28.5 34z" />
<glyph unicode="&#xd6;" horiz-adv-x="699" d="M638 338q0 -72 -16.5 -136t-51.5 -112t-90.5 -76.5t-133.5 -28.5q-77 0 -131.5 29t-88.5 77.5t-49.5 112.5t-15.5 133t17 131.5t53 110t91.5 75.5t132.5 28q75 0 128.5 -27t88 -73.5t50.5 -109.5t16 -134zM547 337q0 54 -10 102t-32.5 84.5t-60 57.5t-91.5 21 q-57 0 -95 -21t-61.5 -57.5t-33.5 -84.5t-10 -102t10 -103.5t33 -88t60.5 -61t93.5 -22.5q55 0 93 22.5t61 61t33 88t10 103.5zM316 812q0 -23 -14 -38t-37 -15t-37 15t-14 38t14.5 38.5t36.5 15.5t36.5 -15.5t14.5 -38.5zM495 812q0 -23 -14 -38t-37 -15t-37 15t-14 38 t14.5 38.5t36.5 15.5t36.5 -15.5t14.5 -38.5z" />
<glyph unicode="&#xd7;" horiz-adv-x="548" d="M406 149l-132 133l-132 -132l-56 57l132 131l-134 133l58 58l133 -134l131 133l56 -57l-132 -133l133 -131z" />
<glyph unicode="&#xd8;" horiz-adv-x="699" d="M638 338q0 -72 -16.5 -136t-51.5 -112t-90.5 -76.5t-133.5 -28.5q-36 0 -66.5 6.5t-56.5 17.5l-57 -95l-67 33l60 106q-52 50 -75 124.5t-23 159.5q0 69 17 131.5t53 110t91.5 75.5t132.5 28q39 0 72 -8t61 -22l43 76l68 -34l-49 -89q45 -48 66.5 -117t21.5 -150z M153 337q0 -59 11.5 -111.5t38.5 -91.5l245 445q-40 23 -95 23q-57 0 -95 -21t-61.5 -57.5t-33.5 -84.5t-10 -102zM547 337q0 54 -9.5 101.5t-32.5 83.5l-243 -441q19 -9 40.5 -14t47.5 -5q55 0 93 22.5t61 61t33 88t10 103.5z" />
<glyph unicode="&#xd9;" horiz-adv-x="637" d="M161 254q0 -42 7.5 -77t25 -60.5t47 -39.5t74.5 -14q68 0 106 26t49 86q6 33 6 79v416q4 0 8 1q4 0 8 0.5t9 0.5q9 0 20 -2.5t20 -9t15.5 -19t6.5 -32.5v-343q0 -20 -0.5 -41t-2.5 -40q-4 -42 -19.5 -78.5t-45.5 -63.5t-74.5 -42.5t-107.5 -15.5q-108 0 -162.5 48 t-70.5 133q-4 21 -5 46t-1 51v407q4 0 8 1q4 0 7.5 0.5t8.5 0.5q9 0 20 -2.5t20.5 -9t16 -19t6.5 -32.5v-355zM157 819q9 15 25.5 27t33.5 12q14 0 26.5 -6.5t28.5 -19.5l103 -83q-7 -9 -20.5 -17.5t-27.5 -8.5q-11 0 -22.5 5t-25.5 13z" />
<glyph unicode="&#xda;" horiz-adv-x="637" d="M161 254q0 -42 7.5 -77t25 -60.5t47 -39.5t74.5 -14q68 0 106 26t49 86q6 33 6 79v416q4 0 8 1q4 0 8 0.5t9 0.5q9 0 20 -2.5t20 -9t15.5 -19t6.5 -32.5v-343q0 -20 -0.5 -41t-2.5 -40q-4 -42 -19.5 -78.5t-45.5 -63.5t-74.5 -42.5t-107.5 -15.5q-108 0 -162.5 48 t-70.5 133q-4 21 -5 46t-1 51v407q4 0 8 1q4 0 7.5 0.5t8.5 0.5q9 0 20 -2.5t20.5 -9t16 -19t6.5 -32.5v-355zM351 741q-14 -8 -25.5 -13t-22.5 -5q-12 0 -26.5 8.5t-21.5 17.5l103 83q16 13 28.5 19.5t26.5 6.5q17 0 33.5 -12t25.5 -27z" />
<glyph unicode="&#xdb;" horiz-adv-x="637" d="M161 254q0 -42 7.5 -77t25 -60.5t47 -39.5t74.5 -14q68 0 106 26t49 86q6 33 6 79v416q4 0 8 1q4 0 8 0.5t9 0.5q9 0 20 -2.5t20 -9t15.5 -19t6.5 -32.5v-343q0 -20 -0.5 -41t-2.5 -40q-4 -42 -19.5 -78.5t-45.5 -63.5t-74.5 -42.5t-107.5 -15.5q-108 0 -162.5 48 t-70.5 133q-4 21 -5 46t-1 51v407q4 0 8 1q4 0 7.5 0.5t8.5 0.5q9 0 20 -2.5t20.5 -9t16 -19t6.5 -32.5v-355zM321 790l-53 -48q-9 -9 -19 -15t-24 -6q-9 0 -19 4.5t-18 11.5l85 98q24 29 50 29t48 -27l87 -103q-8 -5 -18 -9t-19 -4q-12 0 -22.5 5.5t-23.5 16.5z" />
<glyph unicode="&#xdc;" horiz-adv-x="637" d="M161 254q0 -42 7.5 -77t25 -60.5t47 -39.5t74.5 -14q68 0 106 26t49 86q6 33 6 79v416q4 0 8 1q4 0 8 0.5t9 0.5q9 0 20 -2.5t20 -9t15.5 -19t6.5 -32.5v-343q0 -20 -0.5 -41t-2.5 -40q-4 -42 -19.5 -78.5t-45.5 -63.5t-74.5 -42.5t-107.5 -15.5q-108 0 -162.5 48 t-70.5 133q-4 21 -5 46t-1 51v407q4 0 8 1q4 0 7.5 0.5t8.5 0.5q9 0 20 -2.5t20.5 -9t16 -19t6.5 -32.5v-355zM282 784q0 -23 -14 -38t-37 -15t-37 15t-14 38t14.5 38.5t36.5 15.5t36.5 -15.5t14.5 -38.5zM461 784q0 -23 -14 -38t-37 -15t-37 15t-14 38t14.5 38.5t36.5 15.5 t36.5 -15.5t14.5 -38.5z" />
<glyph unicode="&#xdd;" horiz-adv-x="524" d="M306 277v-277h-88v275l-215 387q9 5 23 8t29 3q26 0 39 -10.5t24 -30.5l145 -275l145 267q11 19 26 33.5t41 14.5q11 0 22 -2t24 -6zM296 741q-14 -8 -25.5 -13t-22.5 -5q-12 0 -26.5 8.5t-21.5 17.5l103 83q16 13 28.5 19.5t26.5 6.5q17 0 33.5 -12t25.5 -27z" />
<glyph unicode="&#xde;" horiz-adv-x="547" d="M165 557q20 2 36 2.5t35 0.5q137 0 201 -49.5t64 -145.5q0 -65 -21.5 -108t-58.5 -69t-85 -37t-100 -11h-71v-140h-87v670q4 0 8 1q4 0 8 0.5t9 0.5q9 0 19.5 -2.5t20 -9t16 -19t6.5 -32.5v-52zM411 359q0 37 -13 62t-35.5 39t-53.5 20t-66 6q-26 0 -45 -1t-36 -3h2v-268 h40q49 0 87.5 6t65 21.5t40.5 44t14 73.5z" />
<glyph unicode="&#xdf;" horiz-adv-x="569" d="M381 556q0 41 -27.5 64t-81.5 23q-60 0 -86.5 -30t-26.5 -90v-523h-85v516q0 17 1.5 35t3.5 31q14 67 67 101t126 34q41 0 77 -10t62.5 -29t41.5 -47t15 -64q0 -23 -6.5 -41.5t-17 -34.5t-23 -30t-25.5 -27q-20 -20 -35 -38.5t-15 -39.5q0 -14 4.5 -25t13.5 -20 t23.5 -17.5t34.5 -18.5q21 -11 40.5 -22.5t34.5 -28t24 -38t9 -51.5q0 -64 -42.5 -106.5t-128.5 -42.5q-39 0 -70.5 8t-48.5 16q-38 19 -38 41q0 13 8.5 26.5t21.5 30.5q7 -6 18.5 -15t27.5 -17.5t36 -14t44 -5.5q38 0 64 15.5t26 55.5q0 33 -21 50t-54 32q-20 9 -40 20 t-36.5 26t-27 34.5t-10.5 46.5q0 43 21.5 71t45.5 51q21 21 38 43.5t17 54.5z" />
<glyph unicode="&#xe0;" horiz-adv-x="504" d="M425 109q0 -24 2 -37.5t7.5 -20t15 -8.5t24.5 -2v-40q-9 -3 -22 -5t-27 -2q-31 0 -54 12.5t-27 44.5q-25 -25 -60 -42.5t-92 -17.5q-26 0 -52.5 6t-48 22t-35.5 43t-14 69q0 52 26.5 85t65.5 52t83.5 26t81.5 8h21t21 -1v15q0 45 -21.5 68.5t-82.5 23.5q-45 0 -76 -11.5 t-60 -31.5h-10q-8 13 -13.5 28t-5.5 24q0 13 16 24.5t41.5 20.5t56.5 14t61 5q51 0 85 -11t55 -33t29.5 -55t8.5 -76v-197zM342 237h-29q-32 0 -65 -4t-60 -15t-44 -30.5t-17 -51.5q0 -30 18 -53t67 -23q26 0 49.5 7.5t41.5 18.5t28.5 24t10.5 25v102zM104 675q11 9 27 16.5 t30 7.5q19 0 30.5 -10t22.5 -25l84 -110q-8 -6 -19.5 -11t-22.5 -5q-15 0 -27.5 7.5t-23.5 20.5z" />
<glyph unicode="&#xe1;" horiz-adv-x="504" d="M425 109q0 -24 2 -37.5t7.5 -20t15 -8.5t24.5 -2v-40q-9 -3 -22 -5t-27 -2q-31 0 -54 12.5t-27 44.5q-25 -25 -60 -42.5t-92 -17.5q-26 0 -52.5 6t-48 22t-35.5 43t-14 69q0 52 26.5 85t65.5 52t83.5 26t81.5 8h21t21 -1v15q0 45 -21.5 68.5t-82.5 23.5q-45 0 -76 -11.5 t-60 -31.5h-10q-8 13 -13.5 28t-5.5 24q0 13 16 24.5t41.5 20.5t56.5 14t61 5q51 0 85 -11t55 -33t29.5 -55t8.5 -76v-197zM342 237h-29q-32 0 -65 -4t-60 -15t-44 -30.5t-17 -51.5q0 -30 18 -53t67 -23q26 0 49.5 7.5t41.5 18.5t28.5 24t10.5 25v102zM283 566 q-11 -13 -23.5 -20.5t-27.5 -7.5q-11 0 -22.5 5t-19.5 11l84 110q11 15 22.5 25t30.5 10q14 0 30 -7.5t27 -16.5z" />
<glyph unicode="&#xe2;" horiz-adv-x="504" d="M425 109q0 -24 2 -37.5t7.5 -20t15 -8.5t24.5 -2v-40q-9 -3 -22 -5t-27 -2q-31 0 -54 12.5t-27 44.5q-25 -25 -60 -42.5t-92 -17.5q-26 0 -52.5 6t-48 22t-35.5 43t-14 69q0 52 26.5 85t65.5 52t83.5 26t81.5 8h21t21 -1v15q0 45 -21.5 68.5t-82.5 23.5q-45 0 -76 -11.5 t-60 -31.5h-10q-8 13 -13.5 28t-5.5 24q0 13 16 24.5t41.5 20.5t56.5 14t61 5q51 0 85 -11t55 -33t29.5 -55t8.5 -76v-197zM342 237h-29q-32 0 -65 -4t-60 -15t-44 -30.5t-17 -51.5q0 -30 18 -53t67 -23q26 0 49.5 7.5t41.5 18.5t28.5 24t10.5 25v102zM242 621l-59 -66 q-17 -20 -42 -20q-9 0 -18.5 3.5t-17.5 11.5l88 116q10 13 22 20.5t28 7.5t26.5 -6.5t21.5 -20.5l92 -120q-8 -5 -17 -8.5t-20 -3.5q-24 0 -45 22z" />
<glyph unicode="&#xe3;" horiz-adv-x="504" d="M425 109q0 -24 2 -37.5t7.5 -20t15 -8.5t24.5 -2v-40q-9 -3 -22 -5t-27 -2q-31 0 -54 12.5t-27 44.5q-25 -25 -60 -42.5t-92 -17.5q-26 0 -52.5 6t-48 22t-35.5 43t-14 69q0 52 26.5 85t65.5 52t83.5 26t81.5 8h21t21 -1v15q0 45 -21.5 68.5t-82.5 23.5q-45 0 -76 -11.5 t-60 -31.5h-10q-8 13 -13.5 28t-5.5 24q0 13 16 24.5t41.5 20.5t56.5 14t61 5q51 0 85 -11t55 -33t29.5 -55t8.5 -76v-197zM342 237h-29q-32 0 -65 -4t-60 -15t-44 -30.5t-17 -51.5q0 -30 18 -53t67 -23q26 0 49.5 7.5t41.5 18.5t28.5 24t10.5 25v102zM371 662 q11 -7 23 -18.5t12 -23.5q0 -13 -12 -28q-13 -16 -33.5 -27.5t-47.5 -11.5q-20 0 -37 5.5t-33 12.5q-14 6 -27.5 10.5t-28.5 4.5q-20 0 -37.5 -12t-33.5 -31q-9 7 -18.5 18t-9.5 22q0 10 7 19.5t18 17.5q17 14 37 21.5t39 7.5q18 0 32.5 -5t27.5 -11q14 -7 28 -12t31 -5 q20 0 34.5 12t28.5 34z" />
<glyph unicode="&#xe4;" horiz-adv-x="504" d="M425 109q0 -24 2 -37.5t7.5 -20t15 -8.5t24.5 -2v-40q-9 -3 -22 -5t-27 -2q-31 0 -54 12.5t-27 44.5q-25 -25 -60 -42.5t-92 -17.5q-26 0 -52.5 6t-48 22t-35.5 43t-14 69q0 52 26.5 85t65.5 52t83.5 26t81.5 8h21t21 -1v15q0 45 -21.5 68.5t-82.5 23.5q-45 0 -76 -11.5 t-60 -31.5h-10q-8 13 -13.5 28t-5.5 24q0 13 16 24.5t41.5 20.5t56.5 14t61 5q51 0 85 -11t55 -33t29.5 -55t8.5 -76v-197zM342 237h-29q-32 0 -65 -4t-60 -15t-44 -30.5t-17 -51.5q0 -30 18 -53t67 -23q26 0 49.5 7.5t41.5 18.5t28.5 24t10.5 25v102zM211 608 q0 -23 -14 -38t-37 -15t-37 15t-14 38t14.5 38.5t36.5 15.5t36.5 -15.5t14.5 -38.5zM390 608q0 -23 -14 -38t-37 -15t-37 15t-14 38t14.5 38.5t36.5 15.5t36.5 -15.5t14.5 -38.5z" />
<glyph unicode="&#xe5;" horiz-adv-x="504" d="M425 109q0 -24 2 -37.5t7.5 -20t15 -8.5t24.5 -2v-40q-9 -3 -22 -5t-27 -2q-31 0 -54 12.5t-27 44.5q-25 -25 -60 -42.5t-92 -17.5q-26 0 -52.5 6t-48 22t-35.5 43t-14 69q0 52 26.5 85t65.5 52t83.5 26t81.5 8h21t21 -1v15q0 45 -21.5 68.5t-82.5 23.5q-45 0 -76 -11.5 t-60 -31.5h-10q-8 13 -13.5 28t-5.5 24q0 13 16 24.5t41.5 20.5t56.5 14t61 5q51 0 85 -11t55 -33t29.5 -55t8.5 -76v-197zM342 237h-29q-32 0 -65 -4t-60 -15t-44 -30.5t-17 -51.5q0 -30 18 -53t67 -23q26 0 49.5 7.5t41.5 18.5t28.5 24t10.5 25v102zM350 642 q0 -22 -7.5 -42t-21 -35t-33.5 -23.5t-44 -8.5t-44 8.5t-33.5 23.5t-21 34.5t-7.5 41.5q0 46 28.5 78t77.5 32t77.5 -30t28.5 -79zM298 641q0 23 -11.5 42.5t-43.5 19.5q-27 0 -39.5 -19t-12.5 -42q0 -24 13.5 -42t39.5 -18t40 17.5t14 41.5z" />
<glyph unicode="&#xe6;" horiz-adv-x="787" d="M246 481q65 0 101.5 -18.5t55.5 -56.5q27 38 66 56.5t86 18.5q50 0 85.5 -16t58.5 -43t34 -63t11 -76q0 -14 -0.5 -31.5t-2.5 -31.5h-316q1 -37 10 -67t27 -51.5t45 -33.5t65 -12q29 0 50.5 6t37.5 15t26.5 18.5t17.5 17.5q11 -13 19.5 -27t8.5 -27q0 -8 -7.5 -18 t-20.5 -19q-21 -16 -57 -26.5t-83 -10.5q-59 0 -105 21.5t-75 60.5q-75 -79 -183 -79q-29 0 -57.5 6.5t-51 22.5t-36.5 43t-14 68q0 49 26.5 80.5t65.5 49t84 24t82 6.5h40v22q0 22 -5 39.5t-17 30.5t-32 20t-50 7q-24 0 -43 -3t-34.5 -8.5t-30 -13t-29.5 -17.5h-10 q-8 13 -13.5 28t-5.5 24q0 13 16 24.5t41.5 20.5t57 14t61.5 5zM319 226q-34 0 -68.5 -3.5t-62 -14t-45 -29.5t-17.5 -49q0 -13 4 -26t14 -23t27.5 -16t43.5 -6q28 0 51 7t40.5 17.5t30 21.5t18.5 20q-9 23 -12 49t-4 52h-20zM661 284q-1 28 -7 51.5t-19.5 40.5t-35 26.5 t-52.5 9.5q-52 0 -85 -35t-37 -93h236z" />
<glyph unicode="&#xe7;" horiz-adv-x="463" d="M318 -121q0 -22 -8.5 -39t-22 -28.5t-30.5 -17.5t-34 -6q-35 0 -35 31q0 5 1 14t4 19q7 -3 13.5 -4t12.5 -1q17 0 26.5 6t9.5 19q0 12 -6 20t-14 16t-14 16.5t-6 22.5q0 19 11 37q2 2 3 4q-14 3 -30 6q-38 9 -71.5 36t-56.5 75.5t-23 128.5q0 74 24 122t59 75.5 t74.5 38.5t69.5 11q36 0 64.5 -7.5t49 -19t31.5 -24.5t11 -25t-8 -27t-16 -26h-11q-17 20 -44 37.5t-73 17.5q-38 0 -65 -13t-44.5 -36.5t-25.5 -55t-8 -67.5q0 -37 8 -69.5t25.5 -56.5t45.5 -38t67 -14q27 0 48.5 8.5t36.5 19.5q18 12 32 28q8 -8 20.5 -24.5t12.5 -30.5 t-21 -32q-19 -17 -55 -29q-31 -10 -75 -12q-7 -9 -7 -20q0 -10 5 -17t13 -14q9 -9 17.5 -21t8.5 -34z" />
<glyph unicode="&#xe8;" horiz-adv-x="498" d="M284 57q29 0 50.5 6t37 15t26.5 18.5t18 17.5q11 -14 19.5 -30t8.5 -25q0 -8 -5 -16.5t-17 -17.5q-23 -17 -59 -28.5t-87 -11.5q-47 0 -88.5 13.5t-72.5 43.5t-49 78.5t-18 118.5q0 63 18.5 109t48.5 75.5t68.5 43.5t79.5 14q51 0 87.5 -17t59.5 -45.5t34 -66t11 -77.5 q0 -14 -0.5 -28.5t-2.5 -27.5h-316q3 -73 38.5 -117.5t109.5 -44.5zM370 283q0 27 -5.5 50t-18.5 40.5t-34.5 27.5t-52.5 10q-52 0 -85.5 -34t-37.5 -94h234zM128 675q11 9 27 16.5t30 7.5q19 0 30.5 -10t22.5 -25l84 -110q-8 -6 -19.5 -11t-22.5 -5q-15 0 -27.5 7.5 t-23.5 20.5z" />
<glyph unicode="&#xe9;" horiz-adv-x="498" d="M284 57q29 0 50.5 6t37 15t26.5 18.5t18 17.5q11 -14 19.5 -30t8.5 -25q0 -8 -5 -16.5t-17 -17.5q-23 -17 -59 -28.5t-87 -11.5q-47 0 -88.5 13.5t-72.5 43.5t-49 78.5t-18 118.5q0 63 18.5 109t48.5 75.5t68.5 43.5t79.5 14q51 0 87.5 -17t59.5 -45.5t34 -66t11 -77.5 q0 -14 -0.5 -28.5t-2.5 -27.5h-316q3 -73 38.5 -117.5t109.5 -44.5zM370 283q0 27 -5.5 50t-18.5 40.5t-34.5 27.5t-52.5 10q-52 0 -85.5 -34t-37.5 -94h234zM283 566q-11 -13 -23.5 -20.5t-27.5 -7.5q-11 0 -22.5 5t-19.5 11l84 110q11 15 22.5 25t30.5 10q14 0 30 -7.5 t27 -16.5z" />
<glyph unicode="&#xea;" horiz-adv-x="498" d="M284 57q29 0 50.5 6t37 15t26.5 18.5t18 17.5q11 -14 19.5 -30t8.5 -25q0 -8 -5 -16.5t-17 -17.5q-23 -17 -59 -28.5t-87 -11.5q-47 0 -88.5 13.5t-72.5 43.5t-49 78.5t-18 118.5q0 63 18.5 109t48.5 75.5t68.5 43.5t79.5 14q51 0 87.5 -17t59.5 -45.5t34 -66t11 -77.5 q0 -14 -0.5 -28.5t-2.5 -27.5h-316q3 -73 38.5 -117.5t109.5 -44.5zM370 283q0 27 -5.5 50t-18.5 40.5t-34.5 27.5t-52.5 10q-52 0 -85.5 -34t-37.5 -94h234zM259 621l-59 -66q-17 -20 -42 -20q-9 0 -18.5 3.5t-17.5 11.5l88 116q10 13 22 20.5t28 7.5t26.5 -6.5t21.5 -20.5 l92 -120q-8 -5 -17 -8.5t-20 -3.5q-24 0 -45 22z" />
<glyph unicode="&#xeb;" horiz-adv-x="498" d="M284 57q29 0 50.5 6t37 15t26.5 18.5t18 17.5q11 -14 19.5 -30t8.5 -25q0 -8 -5 -16.5t-17 -17.5q-23 -17 -59 -28.5t-87 -11.5q-47 0 -88.5 13.5t-72.5 43.5t-49 78.5t-18 118.5q0 63 18.5 109t48.5 75.5t68.5 43.5t79.5 14q51 0 87.5 -17t59.5 -45.5t34 -66t11 -77.5 q0 -14 -0.5 -28.5t-2.5 -27.5h-316q3 -73 38.5 -117.5t109.5 -44.5zM370 283q0 27 -5.5 50t-18.5 40.5t-34.5 27.5t-52.5 10q-52 0 -85.5 -34t-37.5 -94h234zM229 608q0 -23 -14 -38t-37 -15t-37 15t-14 38t14.5 38.5t36.5 15.5t36.5 -15.5t14.5 -38.5zM408 608 q0 -23 -14 -38t-37 -15t-37 15t-14 38t14.5 38.5t36.5 15.5t36.5 -15.5t14.5 -38.5z" />
<glyph unicode="&#xec;" horiz-adv-x="241" d="M73 475h6q2 0 5.5 0.5t6.5 0.5q28 0 47.5 -14.5t19.5 -52.5v-319q0 -29 8.5 -41t39.5 -12v-36q-9 -3 -24.5 -5t-30.5 -2q-29 0 -44.5 9t-23 24t-9 33.5t-1.5 36.5v378zM-42 675q11 9 27 16.5t30 7.5q19 0 30.5 -10t22.5 -25l84 -110q-8 -6 -19.5 -11t-22.5 -5 q-15 0 -27.5 7.5t-23.5 20.5z" />
<glyph unicode="&#xed;" horiz-adv-x="241" d="M73 475h6q2 0 5.5 0.5t6.5 0.5q28 0 47.5 -14.5t19.5 -52.5v-319q0 -29 8.5 -41t39.5 -12v-36q-9 -3 -24.5 -5t-30.5 -2q-29 0 -44.5 9t-23 24t-9 33.5t-1.5 36.5v378zM156 566q-11 -13 -23.5 -20.5t-27.5 -7.5q-11 0 -22.5 5t-19.5 11l84 110q11 15 22.5 25t30.5 10 q14 0 30 -7.5t27 -16.5z" />
<glyph unicode="&#xee;" horiz-adv-x="241" d="M73 475h6q2 0 5.5 0.5t6.5 0.5q28 0 47.5 -14.5t19.5 -52.5v-319q0 -29 8.5 -41t39.5 -12v-36q-9 -3 -24.5 -5t-30.5 -2q-29 0 -44.5 9t-23 24t-9 33.5t-1.5 36.5v378zM113 621l-59 -66q-17 -20 -42 -20q-9 0 -18.5 3.5t-17.5 11.5l88 116q10 13 22 20.5t28 7.5 t26.5 -6.5t21.5 -20.5l92 -120q-8 -5 -17 -8.5t-20 -3.5q-24 0 -45 22z" />
<glyph unicode="&#xef;" horiz-adv-x="241" d="M73 475h6q2 0 5.5 0.5t6.5 0.5q28 0 47.5 -14.5t19.5 -52.5v-319q0 -29 8.5 -41t39.5 -12v-36q-9 -3 -24.5 -5t-30.5 -2q-29 0 -44.5 9t-23 24t-9 33.5t-1.5 36.5v378zM79 608q0 -23 -14 -38t-37 -15t-37 15t-14 38t14.5 38.5t36.5 15.5t36.5 -15.5t14.5 -38.5zM258 608 q0 -23 -14 -38t-37 -15t-37 15t-14 38t14.5 38.5t36.5 15.5t36.5 -15.5t14.5 -38.5z" />
<glyph unicode="&#xf0;" horiz-adv-x="551" d="M210 497l-38 53l64 35q-31 14 -64.5 21.5t-63.5 7.5v23q0 19 8.5 33.5t33.5 14.5q27 0 71.5 -11.5t95.5 -41.5l104 57l39 -53l-86 -48q60 -52 89.5 -134.5t29.5 -185.5q0 -70 -16 -123t-45.5 -88.5t-71 -53.5t-92.5 -18q-48 0 -88 15.5t-68.5 45.5t-44 75t-15.5 104 q0 60 17.5 104t47 72t67.5 41.5t80 13.5q41 0 73 -12.5t52 -29.5q-11 38 -36 73.5t-54 58.5zM405 259q0 26 -1 43.5t-6 34.5q-22 22 -56 34.5t-68 12.5q-29 0 -53 -8.5t-41.5 -27.5t-27.5 -49.5t-10 -74.5q0 -83 36.5 -124t94.5 -41q28 0 52.5 11.5t42 35.5t27.5 62t10 91z " />
<glyph unicode="&#xf1;" horiz-adv-x="543" d="M91 473q23 0 41.5 -11.5t22.5 -39.5q23 23 62.5 41t93.5 18q68 0 104 -30t47 -75q5 -20 6 -44.5t1 -47.5v-284h-85v281q0 19 -0.5 36.5t-5.5 32.5q-7 26 -29 40t-65 14q-57 0 -91 -22.5t-34 -48.5v-333h-85v472h5q2 0 5.5 0.5t6.5 0.5zM402 662q11 -7 23 -18.5t12 -23.5 q0 -13 -12 -28q-13 -16 -33.5 -27.5t-47.5 -11.5q-20 0 -37 5.5t-33 12.5q-14 6 -27.5 10.5t-28.5 4.5q-20 0 -37.5 -12t-33.5 -31q-9 7 -18.5 18t-9.5 22q0 10 7 19.5t18 17.5q17 14 37 21.5t39 7.5q18 0 32.5 -5t27.5 -11q14 -7 28 -12t31 -5q20 0 34.5 12t28.5 34z" />
<glyph unicode="&#xf2;" horiz-adv-x="536" d="M488 237q0 -49 -12 -94.5t-38.5 -80.5t-68.5 -56t-102 -21t-101.5 20t-67.5 54t-38 79.5t-12 95.5t14 95t42 78.5t69.5 53.5t97.5 20q59 0 100 -20t67 -53.5t38 -77.5t12 -93zM398 236q0 31 -5.5 61.5t-19.5 55t-39 39.5t-65 15q-38 0 -63.5 -15t-40.5 -39.5t-21.5 -55 t-6.5 -61.5t5.5 -63t20.5 -57.5t40 -42t64 -16.5q40 0 66 16.5t40 42t19.5 57.5t5.5 63zM139 675q11 9 27 16.5t30 7.5q19 0 30.5 -10t22.5 -25l84 -110q-8 -6 -19.5 -11t-22.5 -5q-15 0 -27.5 7.5t-23.5 20.5z" />
<glyph unicode="&#xf3;" horiz-adv-x="536" d="M488 237q0 -49 -12 -94.5t-38.5 -80.5t-68.5 -56t-102 -21t-101.5 20t-67.5 54t-38 79.5t-12 95.5t14 95t42 78.5t69.5 53.5t97.5 20q59 0 100 -20t67 -53.5t38 -77.5t12 -93zM398 236q0 31 -5.5 61.5t-19.5 55t-39 39.5t-65 15q-38 0 -63.5 -15t-40.5 -39.5t-21.5 -55 t-6.5 -61.5t5.5 -63t20.5 -57.5t40 -42t64 -16.5q40 0 66 16.5t40 42t19.5 57.5t5.5 63zM309 566q-11 -13 -23.5 -20.5t-27.5 -7.5q-11 0 -22.5 5t-19.5 11l84 110q11 15 22.5 25t30.5 10q14 0 30 -7.5t27 -16.5z" />
<glyph unicode="&#xf4;" horiz-adv-x="536" d="M488 237q0 -49 -12 -94.5t-38.5 -80.5t-68.5 -56t-102 -21t-101.5 20t-67.5 54t-38 79.5t-12 95.5t14 95t42 78.5t69.5 53.5t97.5 20q59 0 100 -20t67 -53.5t38 -77.5t12 -93zM398 236q0 31 -5.5 61.5t-19.5 55t-39 39.5t-65 15q-38 0 -63.5 -15t-40.5 -39.5t-21.5 -55 t-6.5 -61.5t5.5 -63t20.5 -57.5t40 -42t64 -16.5q40 0 66 16.5t40 42t19.5 57.5t5.5 63zM276 621l-59 -66q-17 -20 -42 -20q-9 0 -18.5 3.5t-17.5 11.5l88 116q10 13 22 20.5t28 7.5t26.5 -6.5t21.5 -20.5l92 -120q-8 -5 -17 -8.5t-20 -3.5q-24 0 -45 22z" />
<glyph unicode="&#xf5;" horiz-adv-x="536" d="M488 237q0 -49 -12 -94.5t-38.5 -80.5t-68.5 -56t-102 -21t-101.5 20t-67.5 54t-38 79.5t-12 95.5t14 95t42 78.5t69.5 53.5t97.5 20q59 0 100 -20t67 -53.5t38 -77.5t12 -93zM398 236q0 31 -5.5 61.5t-19.5 55t-39 39.5t-65 15q-38 0 -63.5 -15t-40.5 -39.5t-21.5 -55 t-6.5 -61.5t5.5 -63t20.5 -57.5t40 -42t64 -16.5q40 0 66 16.5t40 42t19.5 57.5t5.5 63zM396 662q11 -7 23 -18.5t12 -23.5q0 -13 -12 -28q-13 -16 -33.5 -27.5t-47.5 -11.5q-20 0 -37 5.5t-33 12.5q-14 6 -27.5 10.5t-28.5 4.5q-20 0 -37.5 -12t-33.5 -31q-9 7 -18.5 18 t-9.5 22q0 10 7 19.5t18 17.5q17 14 37 21.5t39 7.5q18 0 32.5 -5t27.5 -11q14 -7 28 -12t31 -5q20 0 34.5 12t28.5 34z" />
<glyph unicode="&#xf6;" horiz-adv-x="536" d="M488 237q0 -49 -12 -94.5t-38.5 -80.5t-68.5 -56t-102 -21t-101.5 20t-67.5 54t-38 79.5t-12 95.5t14 95t42 78.5t69.5 53.5t97.5 20q59 0 100 -20t67 -53.5t38 -77.5t12 -93zM398 236q0 31 -5.5 61.5t-19.5 55t-39 39.5t-65 15q-38 0 -63.5 -15t-40.5 -39.5t-21.5 -55 t-6.5 -61.5t5.5 -63t20.5 -57.5t40 -42t64 -16.5q40 0 66 16.5t40 42t19.5 57.5t5.5 63zM237 608q0 -23 -14 -38t-37 -15t-37 15t-14 38t14.5 38.5t36.5 15.5t36.5 -15.5t14.5 -38.5zM416 608q0 -23 -14 -38t-37 -15t-37 15t-14 38t14.5 38.5t36.5 15.5t36.5 -15.5 t14.5 -38.5z" />
<glyph unicode="&#xf7;" horiz-adv-x="547" d="M76 298v80h390v-80h-390zM324 485q0 -24 -15 -41t-38 -17t-38.5 17t-15.5 41t15 41t38 17t38.5 -17t15.5 -41zM324 189q0 -24 -15 -41t-38 -17t-38.5 17t-15.5 41q0 23 15 40t38 17t38.5 -17t15.5 -40z" />
<glyph unicode="&#xf8;" horiz-adv-x="542" d="M491 237q0 -49 -12 -94.5t-38.5 -80.5t-68.5 -56t-102 -21q-34 0 -61.5 7t-50.5 18l-50 -71l-58 35l55 80q-29 35 -41.5 81t-12.5 99q0 50 14 95t42 78.5t69.5 53.5t97.5 20q33 0 60.5 -7t50.5 -19l43 60l59 -35l-49 -68q28 -34 40.5 -79t12.5 -96zM140 236 q0 -27 4 -54.5t14 -51.5l182 260q-28 17 -68 17q-38 0 -63.5 -15t-40.5 -39.5t-21.5 -55t-6.5 -61.5zM401 236q0 26 -3.5 51.5t-12.5 47.5l-182 -260q27 -18 67 -18t66 16.5t40 42t19.5 57.5t5.5 63z" />
<glyph unicode="&#xf9;" horiz-adv-x="536" d="M256 59q27 0 49.5 7.5t38.5 18.5t25 23.5t9 22.5v344h6q2 0 5.5 0.5t6.5 0.5q28 0 47.5 -14.5t19.5 -52.5v-409h-85v44q-20 -23 -56 -41t-93 -18q-58 0 -90 18t-47.5 46t-18.5 61.5t-3 64.5v300h6q2 0 5.5 0.5t6.5 0.5q28 0 47.5 -14t19.5 -52v-235q0 -39 5.5 -62 t22.5 -35q15 -11 32.5 -15t40.5 -4zM129 675q11 9 27 16.5t30 7.5q19 0 30.5 -10t22.5 -25l84 -110q-8 -6 -19.5 -11t-22.5 -5q-15 0 -27.5 7.5t-23.5 20.5z" />
<glyph unicode="&#xfa;" horiz-adv-x="536" d="M256 59q27 0 49.5 7.5t38.5 18.5t25 23.5t9 22.5v344h6q2 0 5.5 0.5t6.5 0.5q28 0 47.5 -14.5t19.5 -52.5v-409h-85v44q-20 -23 -56 -41t-93 -18q-58 0 -90 18t-47.5 46t-18.5 61.5t-3 64.5v300h6q2 0 5.5 0.5t6.5 0.5q28 0 47.5 -14t19.5 -52v-235q0 -39 5.5 -62 t22.5 -35q15 -11 32.5 -15t40.5 -4zM305 566q-11 -13 -23.5 -20.5t-27.5 -7.5q-11 0 -22.5 5t-19.5 11l84 110q11 15 22.5 25t30.5 10q14 0 30 -7.5t27 -16.5z" />
<glyph unicode="&#xfb;" horiz-adv-x="536" d="M256 59q27 0 49.5 7.5t38.5 18.5t25 23.5t9 22.5v344h6q2 0 5.5 0.5t6.5 0.5q28 0 47.5 -14.5t19.5 -52.5v-409h-85v44q-20 -23 -56 -41t-93 -18q-58 0 -90 18t-47.5 46t-18.5 61.5t-3 64.5v300h6q2 0 5.5 0.5t6.5 0.5q28 0 47.5 -14t19.5 -52v-235q0 -39 5.5 -62 t22.5 -35q15 -11 32.5 -15t40.5 -4zM263 621l-59 -66q-17 -20 -42 -20q-9 0 -18.5 3.5t-17.5 11.5l88 116q10 13 22 20.5t28 7.5t26.5 -6.5t21.5 -20.5l92 -120q-8 -5 -17 -8.5t-20 -3.5q-24 0 -45 22z" />
<glyph unicode="&#xfc;" horiz-adv-x="536" d="M256 59q27 0 49.5 7.5t38.5 18.5t25 23.5t9 22.5v344h6q2 0 5.5 0.5t6.5 0.5q28 0 47.5 -14.5t19.5 -52.5v-409h-85v44q-20 -23 -56 -41t-93 -18q-58 0 -90 18t-47.5 46t-18.5 61.5t-3 64.5v300h6q2 0 5.5 0.5t6.5 0.5q28 0 47.5 -14t19.5 -52v-235q0 -39 5.5 -62 t22.5 -35q15 -11 32.5 -15t40.5 -4zM226 608q0 -23 -14 -38t-37 -15t-37 15t-14 38t14.5 38.5t36.5 15.5t36.5 -15.5t14.5 -38.5zM405 608q0 -23 -14 -38t-37 -15t-37 15t-14 38t14.5 38.5t36.5 15.5t36.5 -15.5t14.5 -38.5z" />
<glyph unicode="&#xfd;" horiz-adv-x="466" d="M269 -65q-11 -32 -24 -61t-32 -50.5t-46.5 -34.5t-66.5 -13q-38 0 -63.5 11t-25.5 34q0 14 7.5 29t15.5 26q8 -7 24.5 -16.5t41.5 -9.5q35 0 56.5 26t38.5 80l14 45h-34l-162 464q21 8 44 8q26 0 42 -17t24 -40l110 -341l110 332q3 11 8 22.5t13.5 21.5t20.5 16t29 6 q20 0 37 -9zM269 566q-11 -13 -23.5 -20.5t-27.5 -7.5q-11 0 -22.5 5t-19.5 11l84 110q11 15 22.5 25t30.5 10q14 0 30 -7.5t27 -16.5z" />
<glyph unicode="&#xfe;" horiz-adv-x="538" d="M157 425q19 23 53 39.5t85 16.5q39 0 73.5 -13t61 -41.5t42 -74t15.5 -111.5q0 -75 -18.5 -124.5t-48 -78.5t-65.5 -41t-70 -12q-54 0 -85 18.5t-42 33.5v-253h-85v925h6q2 0 5.5 0.5t6.5 0.5q28 0 47 -14.5t19 -52.5v-218zM396 236q0 36 -6.5 68t-21 55t-39 36.5 t-60.5 13.5q-48 0 -79.5 -20t-31.5 -48v-228q6 -8 16 -17.5t24.5 -17.5t33 -14t39.5 -6q62 0 93.5 46t31.5 132z" />
<glyph unicode="&#xff;" horiz-adv-x="466" d="M269 -65q-11 -32 -24 -61t-32 -50.5t-46.5 -34.5t-66.5 -13q-38 0 -63.5 11t-25.5 34q0 14 7.5 29t15.5 26q8 -7 24.5 -16.5t41.5 -9.5q35 0 56.5 26t38.5 80l14 45h-34l-162 464q21 8 44 8q26 0 42 -17t24 -40l110 -341l110 332q3 11 8 22.5t13.5 21.5t20.5 16t29 6 q20 0 37 -9zM199 608q0 -23 -14 -38t-37 -15t-37 15t-14 38t14.5 38.5t36.5 15.5t36.5 -15.5t14.5 -38.5zM378 608q0 -23 -14 -38t-37 -15t-37 15t-14 38t14.5 38.5t36.5 15.5t36.5 -15.5t14.5 -38.5z" />
<glyph unicode="&#x100;" horiz-adv-x="625" d="M512 0l-67 180h-270l-65 -180h-88l242 663q7 3 21 6t28 3q19 0 34.5 -8.5t24.5 -32.5l231 -631h-91zM310 570l-113 -319h225zM207 746q-26 0 -37 9t-11 32q0 12 4 27h246q23 0 38 -8t15 -34q0 -9 -0.5 -15t-1.5 -11h-253z" />
<glyph unicode="&#x101;" horiz-adv-x="504" d="M425 109q0 -24 2 -37.5t7.5 -20t15 -8.5t24.5 -2v-40q-9 -3 -22 -5t-27 -2q-31 0 -54 12.5t-27 44.5q-25 -25 -60 -42.5t-92 -17.5q-26 0 -52.5 6t-48 22t-35.5 43t-14 69q0 52 26.5 85t65.5 52t83.5 26t81.5 8h21t21 -1v15q0 45 -21.5 68.5t-82.5 23.5q-45 0 -76 -11.5 t-60 -31.5h-10q-8 13 -13.5 28t-5.5 24q0 13 16 24.5t41.5 20.5t56.5 14t61 5q51 0 85 -11t55 -33t29.5 -55t8.5 -76v-197zM342 237h-29q-32 0 -65 -4t-60 -15t-44 -30.5t-17 -51.5q0 -30 18 -53t67 -23q26 0 49.5 7.5t41.5 18.5t28.5 24t10.5 25v102zM143 572q-24 0 -35 9 t-11 32q0 12 4 27h247q23 0 37.5 -8t14.5 -35q0 -8 -0.5 -14t-1.5 -11h-255z" />
<glyph unicode="&#x102;" horiz-adv-x="625" d="M512 0l-67 180h-270l-65 -180h-88l242 663q7 3 21 6t28 3q19 0 34.5 -8.5t24.5 -32.5l231 -631h-91zM310 570l-113 -319h225zM460 872q-14 -63 -51.5 -101.5t-102.5 -38.5q-67 0 -104 36t-52 105q6 4 18 7t20 3q12 0 20.5 -6.5t14.5 -23.5q13 -35 32 -48.5t51 -13.5 q33 0 50.5 13t31.5 48q13 31 37 31q8 0 18 -3t17 -8z" />
<glyph unicode="&#x103;" horiz-adv-x="504" d="M425 109q0 -24 2 -37.5t7.5 -20t15 -8.5t24.5 -2v-40q-9 -3 -22 -5t-27 -2q-31 0 -54 12.5t-27 44.5q-25 -25 -60 -42.5t-92 -17.5q-26 0 -52.5 6t-48 22t-35.5 43t-14 69q0 52 26.5 85t65.5 52t83.5 26t81.5 8h21t21 -1v15q0 45 -21.5 68.5t-82.5 23.5q-45 0 -76 -11.5 t-60 -31.5h-10q-8 13 -13.5 28t-5.5 24q0 13 16 24.5t41.5 20.5t56.5 14t61 5q51 0 85 -11t55 -33t29.5 -55t8.5 -76v-197zM342 237h-29q-32 0 -65 -4t-60 -15t-44 -30.5t-17 -51.5q0 -30 18 -53t67 -23q26 0 49.5 7.5t41.5 18.5t28.5 24t10.5 25v102zM401 673 q-14 -63 -51.5 -101.5t-102.5 -38.5q-67 0 -104 36t-52 105q6 4 18 7t20 3q12 0 20.5 -6.5t14.5 -23.5q13 -35 32 -48.5t51 -13.5q33 0 50.5 13t31.5 48q13 31 37 31q8 0 18 -3t17 -8z" />
<glyph unicode="&#x104;" horiz-adv-x="625" d="M553 -153q17 0 28.5 7.5t19.5 15.5q8 -8 14 -18.5t6 -21.5t-7 -18.5t-17.5 -13t-24 -8t-26.5 -2.5q-39 0 -64 20.5t-25 65.5q0 24 9 47t22.5 42t28.5 33q3 2 5 4h-10l-67 180h-270l-65 -180h-88l242 663q7 3 21 6t28 3q19 0 34.5 -8.5t24.5 -32.5l226 -618h1v-3l4 -10h-4 q-14 -11 -27.5 -25.5t-24.5 -30t-18 -31.5t-7 -31q0 -35 31 -35zM310 570l-113 -319h225z" />
<glyph unicode="&#x105;" horiz-adv-x="504" d="M428 -153q17 0 28.5 7.5t19.5 15.5q8 -8 14 -18.5t6 -21.5t-7 -18.5t-17.5 -13t-24 -8t-26.5 -2.5q-39 0 -64 20.5t-25 65.5q0 24 9 47t22.5 42t28.5 33l2 2q-12 2 -23 8q-23 13 -27 45q-25 -25 -60 -42.5t-92 -17.5q-26 0 -52.5 6t-48 22t-35.5 43t-14 69q0 52 26.5 85 t65.5 52t83.5 26t81.5 8h21q12 0 21 -1v15q0 45 -21.5 68.5t-82.5 23.5q-45 0 -76 -11.5t-60 -31.5h-10q-8 13 -13.5 28t-5.5 24q0 13 16 24.5t41.5 20.5t56.5 14t61 5q51 0 85 -11t55 -33t29.5 -55t8.5 -76v-197q0 -24 2 -37.5t7.5 -20t15 -8.5t24.5 -2v-41 q-14 -11 -27.5 -25.5t-24.5 -30t-18 -31.5t-7 -31q0 -35 31 -35zM342 237h-29q-32 0 -65 -4t-60 -15t-44 -30.5t-17 -51.5q0 -30 18 -53t67 -23q26 0 49.5 7.5t41.5 18.5t28.5 24t10.5 25v102z" />
<glyph unicode="&#x106;" horiz-adv-x="596" d="M544 51q-5 -5 -19 -16t-37.5 -22t-56 -19.5t-75.5 -8.5q-77 0 -133 26t-92 72t-53 110t-17 139t17.5 139.5t54 111t92 73t132.5 26.5q39 0 75 -9t63.5 -23t44 -31t16.5 -32q0 -13 -8.5 -27.5t-17.5 -25.5h-18q-11 12 -25.5 25t-33.5 23t-43 16.5t-53 6.5 q-60 0 -99.5 -23.5t-63 -62t-33.5 -87t-10 -99.5q0 -52 10.5 -101t35.5 -87.5t66 -61.5t102 -23q33 0 60 9.5t46.5 22.5t32.5 25t18 18q11 -9 23.5 -25.5t12.5 -28.5q0 -9 -4 -15.5t-10 -14.5zM373 741q-14 -8 -25.5 -13t-22.5 -5q-12 0 -26.5 8.5t-21.5 17.5l103 83 q16 13 28.5 19.5t26.5 6.5q17 0 33.5 -12t25.5 -27z" />
<glyph unicode="&#x107;" horiz-adv-x="463" d="M282 57q27 0 48.5 8.5t36.5 19.5q18 12 32 28q8 -8 20.5 -24.5t12.5 -30.5t-21 -32q-19 -17 -54.5 -29t-86.5 -12q-32 0 -70.5 9t-72 36t-56.5 75.5t-23 128.5q0 74 24 122t59 75.5t74.5 38.5t69.5 11q36 0 64.5 -7.5t49 -19t31.5 -24.5t11 -25t-8 -27t-16 -26h-11 q-17 20 -44 37.5t-73 17.5q-38 0 -65 -13t-44.5 -36.5t-25.5 -55t-8 -67.5q0 -37 8 -69.5t25.5 -56.5t45.5 -38t67 -14zM298 566q-11 -13 -23.5 -20.5t-27.5 -7.5q-11 0 -22.5 5t-19.5 11l84 110q11 15 22.5 25t30.5 10q14 0 30 -7.5t27 -16.5z" />
<glyph unicode="&#x108;" horiz-adv-x="596" d="M544 51q-5 -5 -19 -16t-37.5 -22t-56 -19.5t-75.5 -8.5q-77 0 -133 26t-92 72t-53 110t-17 139t17.5 139.5t54 111t92 73t132.5 26.5q39 0 75 -9t63.5 -23t44 -31t16.5 -32q0 -13 -8.5 -27.5t-17.5 -25.5h-18q-11 12 -25.5 25t-33.5 23t-43 16.5t-53 6.5 q-60 0 -99.5 -23.5t-63 -62t-33.5 -87t-10 -99.5q0 -52 10.5 -101t35.5 -87.5t66 -61.5t102 -23q33 0 60 9.5t46.5 22.5t32.5 25t18 18q11 -9 23.5 -25.5t12.5 -28.5q0 -9 -4 -15.5t-10 -14.5zM350 790l-53 -48q-9 -9 -19 -15t-24 -6q-9 0 -19 4.5t-18 11.5l85 98 q24 29 50 29t48 -27l87 -103q-8 -5 -18 -9t-19 -4q-12 0 -22.5 5.5t-23.5 16.5z" />
<glyph unicode="&#x109;" horiz-adv-x="463" d="M282 57q27 0 48.5 8.5t36.5 19.5q18 12 32 28q8 -8 20.5 -24.5t12.5 -30.5t-21 -32q-19 -17 -54.5 -29t-86.5 -12q-32 0 -70.5 9t-72 36t-56.5 75.5t-23 128.5q0 74 24 122t59 75.5t74.5 38.5t69.5 11q36 0 64.5 -7.5t49 -19t31.5 -24.5t11 -25t-8 -27t-16 -26h-11 q-17 20 -44 37.5t-73 17.5q-38 0 -65 -13t-44.5 -36.5t-25.5 -55t-8 -67.5q0 -37 8 -69.5t25.5 -56.5t45.5 -38t67 -14zM272 621l-59 -66q-17 -20 -42 -20q-9 0 -18.5 3.5t-17.5 11.5l88 116q10 13 22 20.5t28 7.5t26.5 -6.5t21.5 -20.5l92 -120q-8 -5 -17 -8.5t-20 -3.5 q-24 0 -45 22z" />
<glyph unicode="&#x10a;" horiz-adv-x="596" d="M544 51q-5 -5 -19 -16t-37.5 -22t-56 -19.5t-75.5 -8.5q-77 0 -133 26t-92 72t-53 110t-17 139t17.5 139.5t54 111t92 73t132.5 26.5q39 0 75 -9t63.5 -23t44 -31t16.5 -32q0 -13 -8.5 -27.5t-17.5 -25.5h-18q-11 12 -25.5 25t-33.5 23t-43 16.5t-53 6.5 q-60 0 -99.5 -23.5t-63 -62t-33.5 -87t-10 -99.5q0 -52 10.5 -101t35.5 -87.5t66 -61.5t102 -23q33 0 60 9.5t46.5 22.5t32.5 25t18 18q11 -9 23.5 -25.5t12.5 -28.5q0 -9 -4 -15.5t-10 -14.5zM406 788q0 -24 -16 -41.5t-39 -17.5t-38.5 17.5t-15.5 41.5q0 26 15.5 43.5 t38.5 17.5t39 -17.5t16 -43.5z" />
<glyph unicode="&#x10b;" horiz-adv-x="463" d="M282 57q27 0 48.5 8.5t36.5 19.5q18 12 32 28q8 -8 20.5 -24.5t12.5 -30.5t-21 -32q-19 -17 -54.5 -29t-86.5 -12q-32 0 -70.5 9t-72 36t-56.5 75.5t-23 128.5q0 74 24 122t59 75.5t74.5 38.5t69.5 11q36 0 64.5 -7.5t49 -19t31.5 -24.5t11 -25t-8 -27t-16 -26h-11 q-17 20 -44 37.5t-73 17.5q-38 0 -65 -13t-44.5 -36.5t-25.5 -55t-8 -67.5q0 -37 8 -69.5t25.5 -56.5t45.5 -38t67 -14zM327 602q0 -25 -16 -42t-39 -17t-38.5 17t-15.5 42q0 26 15.5 43.5t38.5 17.5t39 -17.5t16 -43.5z" />
<glyph unicode="&#x10c;" horiz-adv-x="596" d="M544 51q-5 -5 -19 -16t-37.5 -22t-56 -19.5t-75.5 -8.5q-77 0 -133 26t-92 72t-53 110t-17 139t17.5 139.5t54 111t92 73t132.5 26.5q39 0 75 -9t63.5 -23t44 -31t16.5 -32q0 -13 -8.5 -27.5t-17.5 -25.5h-18q-11 12 -25.5 25t-33.5 23t-43 16.5t-53 6.5 q-60 0 -99.5 -23.5t-63 -62t-33.5 -87t-10 -99.5q0 -52 10.5 -101t35.5 -87.5t66 -61.5t102 -23q33 0 60 9.5t46.5 22.5t32.5 25t18 18q11 -9 23.5 -25.5t12.5 -28.5q0 -9 -4 -15.5t-10 -14.5zM408 842q13 11 23.5 16.5t22.5 5.5q9 0 19 -4t18 -9l-87 -103q-22 -27 -48 -27 t-50 29l-85 98q8 7 18 11.5t19 4.5q14 0 24 -6t19 -15l53 -48z" />
<glyph unicode="&#x10d;" horiz-adv-x="463" d="M282 57q27 0 48.5 8.5t36.5 19.5q18 12 32 28q8 -8 20.5 -24.5t12.5 -30.5t-21 -32q-19 -17 -54.5 -29t-86.5 -12q-32 0 -70.5 9t-72 36t-56.5 75.5t-23 128.5q0 74 24 122t59 75.5t74.5 38.5t69.5 11q36 0 64.5 -7.5t49 -19t31.5 -24.5t11 -25t-8 -27t-16 -26h-11 q-17 20 -44 37.5t-73 17.5q-38 0 -65 -13t-44.5 -36.5t-25.5 -55t-8 -67.5q0 -37 8 -69.5t25.5 -56.5t45.5 -38t67 -14zM332 665q21 22 45 22q11 0 20 -3.5t17 -8.5l-92 -120q-11 -14 -21.5 -20.5t-26.5 -6.5t-28 7.5t-22 20.5l-88 116q8 8 17.5 11.5t18.5 3.5q25 0 42 -20 l59 -66z" />
<glyph unicode="&#x10e;" horiz-adv-x="633" d="M581 346q0 -91 -30 -166.5t-94 -122.5q-39 -28 -94 -42.5t-128 -14.5h-156v666q53 6 93.5 8t75.5 2q96 0 160 -26t102.5 -71t54.5 -105t16 -128zM491 341q0 56 -11 103.5t-39 82t-74.5 53.5t-116.5 19q-20 0 -41.5 -1t-42.5 -4v-520h83q67 0 113.5 21t75 57t41 84.5 t12.5 104.5zM321 842q13 11 23.5 16.5t22.5 5.5q9 0 19 -4t18 -9l-87 -103q-22 -27 -48 -27t-50 29l-85 98q8 7 18 11.5t19 4.5q14 0 24 -6t19 -15l53 -48z" />
<glyph unicode="&#x10f;" horiz-adv-x="564" d="M464 0h-83v40q-8 -8 -20 -18t-28.5 -18t-37.5 -13.5t-46 -5.5q-39 0 -75 13t-63.5 41.5t-43.5 75t-16 113.5q0 66 16.5 114t44 78.5t64 45.5t75.5 15q45 0 76.5 -15t51.5 -34v277h6q2 0 5.5 0.5t6.5 0.5q28 0 47.5 -14t19.5 -52v-644zM141 238q0 -39 6 -72t21 -57.5 t39.5 -38t60.5 -13.5q24 0 44.5 6t35.5 15t23 21t8 24v234h1q-6 6 -15.5 15t-24 17t-33.5 13.5t-43 5.5q-57 0 -90 -43t-33 -127zM602 556q-2 -29 -13.5 -45.5t-41.5 -16.5h-11v142q0 15 2 28.5t8 23.5t17.5 16t29.5 6q5 0 10 -0.5t10 -1.5z" />
<glyph unicode="&#x110;" horiz-adv-x="638" d="M586 346q0 -71 -17 -133.5t-53.5 -110t-93.5 -75t-136 -27.5h-203v316h-66v67h66v283q54 6 94.5 8t75.5 2q96 0 160 -26t102.5 -71t54.5 -105t16 -128zM496 341q0 56 -11.5 103.5t-39 82t-74 53.5t-116.5 19q-20 0 -42 -1t-42 -4v-211h198v-67h-198v-242h50h29t28 1 q70 2 113 27.5t66 63.5t31 84.5t8 90.5z" />
<glyph unicode="&#x111;" horiz-adv-x="538" d="M464 614h93v-66h-93v-548h-83v40q-8 -8 -20 -18t-28.5 -18t-37.5 -13.5t-46 -5.5q-39 0 -75 13t-63.5 41.5t-43.5 73.5t-16 110q0 66 16.5 113t44 77t64 44t75.5 14q45 0 76.5 -15t51.5 -34v126h-173v66h173v95h6q2 0 5.5 0.5t6.5 0.5q28 0 47.5 -14t19.5 -52v-30z M141 233q0 -38 6 -70t21 -55.5t39.5 -37t60.5 -13.5q24 0 44.5 6t35.5 15t23 21t8 24v224q-6 6 -15.5 15t-23.5 17t-33 13.5t-43 5.5q-57 0 -90 -40.5t-33 -124.5z" />
<glyph unicode="&#x112;" horiz-adv-x="509" d="M165 388h227v-77h-227v-236h254q33 0 47.5 -15.5t14.5 -38.5q0 -4 -0.5 -7.5t-0.5 -6.5v-7h-402v669h386q2 -6 2 -10.5v-10.5q0 -23 -13 -38.5t-48 -15.5h-240v-206zM158 746q-26 0 -37 9t-11 32q0 12 4 27h246q23 0 38 -8t15 -34q0 -9 -0.5 -15t-1.5 -11h-253z" />
<glyph unicode="&#x113;" horiz-adv-x="498" d="M284 57q29 0 50.5 6t37 15t26.5 18.5t18 17.5q11 -14 19.5 -30t8.5 -25q0 -8 -5 -16.5t-17 -17.5q-23 -17 -59 -28.5t-87 -11.5q-47 0 -88.5 13.5t-72.5 43.5t-49 78.5t-18 118.5q0 63 18.5 109t48.5 75.5t68.5 43.5t79.5 14q51 0 87.5 -17t59.5 -45.5t34 -66t11 -77.5 q0 -14 -0.5 -28.5t-2.5 -27.5h-316q3 -73 38.5 -117.5t109.5 -44.5zM370 283q0 27 -5.5 50t-18.5 40.5t-34.5 27.5t-52.5 10q-52 0 -85.5 -34t-37.5 -94h234zM158 572q-24 0 -35 9t-11 32q0 12 4 27h247q23 0 37.5 -8t14.5 -35q0 -8 -0.5 -14t-1.5 -11h-255z" />
<glyph unicode="&#x114;" horiz-adv-x="509" d="M165 388h227v-77h-227v-236h254q33 0 47.5 -15.5t14.5 -38.5q0 -4 -0.5 -7.5t-0.5 -6.5v-7h-402v669h386q2 -6 2 -10.5v-10.5q0 -23 -13 -38.5t-48 -15.5h-240v-206zM418 872q-14 -63 -51.5 -101.5t-102.5 -38.5q-67 0 -104 36t-52 105q6 4 18 7t20 3q12 0 20.5 -6.5 t14.5 -23.5q13 -35 32 -48.5t51 -13.5q33 0 50.5 13t31.5 48q13 31 37 31q8 0 18 -3t17 -8z" />
<glyph unicode="&#x115;" horiz-adv-x="498" d="M284 57q29 0 50.5 6t37 15t26.5 18.5t18 17.5q11 -14 19.5 -30t8.5 -25q0 -8 -5 -16.5t-17 -17.5q-23 -17 -59 -28.5t-87 -11.5q-47 0 -88.5 13.5t-72.5 43.5t-49 78.5t-18 118.5q0 63 18.5 109t48.5 75.5t68.5 43.5t79.5 14q51 0 87.5 -17t59.5 -45.5t34 -66t11 -77.5 q0 -14 -0.5 -28.5t-2.5 -27.5h-316q3 -73 38.5 -117.5t109.5 -44.5zM370 283q0 27 -5.5 50t-18.5 40.5t-34.5 27.5t-52.5 10q-52 0 -85.5 -34t-37.5 -94h234zM420 673q-14 -63 -51.5 -101.5t-102.5 -38.5q-67 0 -104 36t-52 105q6 4 18 7t20 3q12 0 20.5 -6.5t14.5 -23.5 q13 -35 32 -48.5t51 -13.5q33 0 50.5 13t31.5 48q13 31 37 31q8 0 18 -3t17 -8z" />
<glyph unicode="&#x116;" horiz-adv-x="509" d="M165 388h227v-77h-227v-236h254q33 0 47.5 -15.5t14.5 -38.5q0 -4 -0.5 -7.5t-0.5 -6.5v-7h-402v669h386q2 -6 2 -10.5v-10.5q0 -23 -13 -38.5t-48 -15.5h-240v-206zM317 788q0 -24 -16 -41.5t-39 -17.5t-38.5 17.5t-15.5 41.5q0 26 15.5 43.5t38.5 17.5t39 -17.5 t16 -43.5z" />
<glyph unicode="&#x117;" horiz-adv-x="498" d="M284 57q29 0 50.5 6t37 15t26.5 18.5t18 17.5q11 -14 19.5 -30t8.5 -25q0 -8 -5 -16.5t-17 -17.5q-23 -17 -59 -28.5t-87 -11.5q-47 0 -88.5 13.5t-72.5 43.5t-49 78.5t-18 118.5q0 63 18.5 109t48.5 75.5t68.5 43.5t79.5 14q51 0 87.5 -17t59.5 -45.5t34 -66t11 -77.5 q0 -14 -0.5 -28.5t-2.5 -27.5h-316q3 -73 38.5 -117.5t109.5 -44.5zM370 283q0 27 -5.5 50t-18.5 40.5t-34.5 27.5t-52.5 10q-52 0 -85.5 -34t-37.5 -94h234zM321 602q0 -25 -16 -42t-39 -17t-38.5 17t-15.5 42q0 26 15.5 43.5t38.5 17.5t39 -17.5t16 -43.5z" />
<glyph unicode="&#x118;" horiz-adv-x="509" d="M434 -153q17 0 28.5 7.5t19.5 15.5q8 -8 14 -18.5t6 -21.5t-7 -18.5t-17.5 -13t-24 -8t-26.5 -2.5q-39 0 -64 20.5t-25 65.5q0 24 9 47t22.5 42t28.5 33q3 2 5 4h-325v669h386q2 -6 2 -11v-10q0 -23 -13 -38.5t-48 -15.5h-240v-206h227v-77h-227v-236h254 q33 0 47.5 -15.5t14.5 -38.5q0 -4 -0.5 -7.5t-0.5 -6.5v-7q-14 -11 -27.5 -25.5t-24.5 -30t-18 -31.5t-7 -31q0 -35 31 -35z" />
<glyph unicode="&#x119;" horiz-adv-x="498" d="M330 -153q17 0 28.5 7.5t19.5 15.5q8 -8 14 -18.5t6 -21.5t-7 -18.5t-17.5 -13t-24 -8t-26.5 -2.5q-39 0 -64 20.5t-25 65.5q0 24 9 47t22 42q9 12 18 22h-7q-47 0 -88.5 13.5t-72.5 43.5t-49 78.5t-18 118.5q0 63 18.5 109t48.5 75.5t68.5 43.5t79.5 14q51 0 87.5 -17 t59.5 -45.5t34 -66t11 -77.5q0 -14 -0.5 -28.5t-2.5 -27.5h-316q3 -73 38.5 -117.5t109.5 -44.5q29 0 50.5 6t37 15t26.5 18.5t18 17.5q11 -14 19.5 -30t8.5 -25q0 -8 -5 -16.5t-17 -17.5q-19 -14 -46 -25q-14 -11 -27.5 -25.5t-24.5 -30t-18 -31.5t-7 -31q0 -35 31 -35z M370 283q0 27 -5.5 50t-18.5 40.5t-34.5 27.5t-52.5 10q-52 0 -85.5 -34t-37.5 -94h234z" />
<glyph unicode="&#x11a;" horiz-adv-x="509" d="M165 388h227v-77h-227v-236h254q33 0 47.5 -15.5t14.5 -38.5q0 -4 -0.5 -7.5t-0.5 -6.5v-7h-402v669h386q2 -6 2 -10.5v-10.5q0 -23 -13 -38.5t-48 -15.5h-240v-206zM317 842q13 11 23.5 16.5t22.5 5.5q9 0 19 -4t18 -9l-87 -103q-22 -27 -48 -27t-50 29l-85 98 q8 7 18 11.5t19 4.5q14 0 24 -6t19 -15l53 -48z" />
<glyph unicode="&#x11b;" horiz-adv-x="498" d="M284 57q29 0 50.5 6t37 15t26.5 18.5t18 17.5q11 -14 19.5 -30t8.5 -25q0 -8 -5 -16.5t-17 -17.5q-23 -17 -59 -28.5t-87 -11.5q-47 0 -88.5 13.5t-72.5 43.5t-49 78.5t-18 118.5q0 63 18.5 109t48.5 75.5t68.5 43.5t79.5 14q51 0 87.5 -17t59.5 -45.5t34 -66t11 -77.5 q0 -14 -0.5 -28.5t-2.5 -27.5h-316q3 -73 38.5 -117.5t109.5 -44.5zM370 283q0 27 -5.5 50t-18.5 40.5t-34.5 27.5t-52.5 10q-52 0 -85.5 -34t-37.5 -94h234zM319 665q21 22 45 22q11 0 20 -3.5t17 -8.5l-92 -120q-11 -14 -21.5 -20.5t-26.5 -6.5t-28 7.5t-22 20.5l-88 116 q8 8 17.5 11.5t18.5 3.5q25 0 42 -20l59 -66z" />
<glyph unicode="&#x11c;" horiz-adv-x="651" d="M367 58q29 0 52 5t40.5 12t29.5 14.5t18 13.5v176h-140v71h223v-283q-7 -9 -25.5 -22.5t-48 -27t-69 -23t-89.5 -9.5q-77 0 -133 26t-92.5 73t-54 111.5t-17.5 141.5q0 75 18 138.5t55 109t94.5 71.5t135.5 26q36 0 71 -8.5t62 -22t44 -30t17 -31.5q0 -12 -8 -27t-18 -27 h-17q-9 11 -24 23t-34.5 22.5t-44 17t-54.5 6.5q-61 0 -101 -23t-64 -60.5t-33.5 -85.5t-9.5 -99q0 -53 10.5 -103t36 -89t67 -63t103.5 -24zM352 790l-53 -48q-9 -9 -19 -15t-24 -6q-9 0 -19 4.5t-18 11.5l85 98q24 29 50 29t48 -27l87 -103q-8 -5 -18 -9t-19 -4 q-12 0 -22.5 5.5t-23.5 16.5z" />
<glyph unicode="&#x11d;" horiz-adv-x="538" d="M464 33q0 -61 -10.5 -108.5t-36.5 -80.5t-70 -50.5t-111 -17.5q-47 0 -82 9t-58 22q-18 11 -25.5 21t-7.5 21q0 13 11.5 29t20.5 26q2 -3 13 -11.5t29.5 -18.5t43.5 -17.5t55 -7.5q48 0 76.5 13.5t44 38t20 58.5t4.5 74v7q-8 -8 -20 -18t-28.5 -18t-37.5 -13.5t-46 -5.5 q-39 0 -75 13t-63.5 41.5t-43.5 75t-16 113.5q0 66 16 114t43 78.5t63 45.5t76 15q47 0 79 -14.5t53 -36.5q5 22 23 32.5t35 10.5q5 0 9 -0.5t8 -0.5q4 -1 8 -1v-438zM141 238q0 -39 6 -72t21 -57.5t39.5 -38t60.5 -13.5q24 0 44.5 6t35.5 15t23 21t8 24v234h1 q-6 6 -15.5 15t-24 17t-33.5 13.5t-43 5.5q-57 0 -90 -43t-33 -127zM260 621l-59 -66q-17 -20 -42 -20q-9 0 -18.5 3.5t-17.5 11.5l88 116q10 13 22 20.5t28 7.5t26.5 -6.5t21.5 -20.5l92 -120q-8 -5 -17 -8.5t-20 -3.5q-24 0 -45 22z" />
<glyph unicode="&#x11e;" horiz-adv-x="651" d="M367 58q29 0 52 5t40.5 12t29.5 14.5t18 13.5v176h-140v71h223v-283q-7 -9 -25.5 -22.5t-48 -27t-69 -23t-89.5 -9.5q-77 0 -133 26t-92.5 73t-54 111.5t-17.5 141.5q0 75 18 138.5t55 109t94.5 71.5t135.5 26q36 0 71 -8.5t62 -22t44 -30t17 -31.5q0 -12 -8 -27t-18 -27 h-17q-9 11 -24 23t-34.5 22.5t-44 17t-54.5 6.5q-61 0 -101 -23t-64 -60.5t-33.5 -85.5t-9.5 -99q0 -53 10.5 -103t36 -89t67 -63t103.5 -24zM507 872q-14 -63 -51.5 -101.5t-102.5 -38.5q-67 0 -104 36t-52 105q6 4 18 7t20 3q12 0 20.5 -6.5t14.5 -23.5q13 -35 32 -48.5 t51 -13.5q33 0 50.5 13t31.5 48q13 31 37 31q8 0 18 -3t17 -8z" />
<glyph unicode="&#x11f;" horiz-adv-x="538" d="M464 33q0 -61 -10.5 -108.5t-36.5 -80.5t-70 -50.5t-111 -17.5q-47 0 -82 9t-58 22q-18 11 -25.5 21t-7.5 21q0 13 11.5 29t20.5 26q2 -3 13 -11.5t29.5 -18.5t43.5 -17.5t55 -7.5q48 0 76.5 13.5t44 38t20 58.5t4.5 74v7q-8 -8 -20 -18t-28.5 -18t-37.5 -13.5t-46 -5.5 q-39 0 -75 13t-63.5 41.5t-43.5 75t-16 113.5q0 66 16 114t43 78.5t63 45.5t76 15q47 0 79 -14.5t53 -36.5q5 22 23 32.5t35 10.5q5 0 9 -0.5t8 -0.5q4 -1 8 -1v-438zM141 238q0 -39 6 -72t21 -57.5t39.5 -38t60.5 -13.5q24 0 44.5 6t35.5 15t23 21t8 24v234h1 q-6 6 -15.5 15t-24 17t-33.5 13.5t-43 5.5q-57 0 -90 -43t-33 -127zM419 673q-14 -63 -51.5 -101.5t-102.5 -38.5q-67 0 -104 36t-52 105q6 4 18 7t20 3q12 0 20.5 -6.5t14.5 -23.5q13 -35 32 -48.5t51 -13.5q33 0 50.5 13t31.5 48q13 31 37 31q8 0 18 -3t17 -8z" />
<glyph unicode="&#x120;" horiz-adv-x="651" d="M367 58q29 0 52 5t40.5 12t29.5 14.5t18 13.5v176h-140v71h223v-283q-7 -9 -25.5 -22.5t-48 -27t-69 -23t-89.5 -9.5q-77 0 -133 26t-92.5 73t-54 111.5t-17.5 141.5q0 75 18 138.5t55 109t94.5 71.5t135.5 26q36 0 71 -8.5t62 -22t44 -30t17 -31.5q0 -12 -8 -27t-18 -27 h-17q-9 11 -24 23t-34.5 22.5t-44 17t-54.5 6.5q-61 0 -101 -23t-64 -60.5t-33.5 -85.5t-9.5 -99q0 -53 10.5 -103t36 -89t67 -63t103.5 -24zM402 788q0 -24 -16 -41.5t-39 -17.5t-38.5 17.5t-15.5 41.5q0 26 15.5 43.5t38.5 17.5t39 -17.5t16 -43.5z" />
<glyph unicode="&#x121;" horiz-adv-x="538" d="M464 33q0 -61 -10.5 -108.5t-36.5 -80.5t-70 -50.5t-111 -17.5q-47 0 -82 9t-58 22q-18 11 -25.5 21t-7.5 21q0 13 11.5 29t20.5 26q2 -3 13 -11.5t29.5 -18.5t43.5 -17.5t55 -7.5q48 0 76.5 13.5t44 38t20 58.5t4.5 74v7q-8 -8 -20 -18t-28.5 -18t-37.5 -13.5t-46 -5.5 q-39 0 -75 13t-63.5 41.5t-43.5 75t-16 113.5q0 66 16 114t43 78.5t63 45.5t76 15q47 0 79 -14.5t53 -36.5q5 22 23 32.5t35 10.5q5 0 9 -0.5t8 -0.5q4 -1 8 -1v-438zM141 238q0 -39 6 -72t21 -57.5t39.5 -38t60.5 -13.5q24 0 44.5 6t35.5 15t23 21t8 24v234h1 q-6 6 -15.5 15t-24 17t-33.5 13.5t-43 5.5q-57 0 -90 -43t-33 -127zM317 602q0 -25 -16 -42t-39 -17t-38.5 17t-15.5 42q0 26 15.5 43.5t38.5 17.5t39 -17.5t16 -43.5z" />
<glyph unicode="&#x122;" horiz-adv-x="651" d="M367 58q29 0 52 5t40.5 12t29.5 14.5t18 13.5v176h-140v71h223v-283q-7 -9 -25.5 -22.5t-48 -27t-69 -23t-89.5 -9.5q-77 0 -133 26t-92.5 73t-54 111.5t-17.5 141.5q0 75 18 138.5t55 109t94.5 71.5t135.5 26q36 0 71 -8.5t62 -22t44 -30t17 -31.5q0 -12 -8 -27t-18 -27 h-17q-9 11 -24 23t-34.5 22.5t-44 17t-54.5 6.5q-61 0 -101 -23t-64 -60.5t-33.5 -85.5t-9.5 -99q0 -53 10.5 -103t36 -89t67 -63t103.5 -24zM327 -194q-7 -12 -18.5 -20t-28.5 -8q-6 0 -15.5 2t-14.5 5l46 111q8 20 20 33t36 13q11 0 23 -3t20 -7z" />
<glyph unicode="&#x123;" horiz-adv-x="538" d="M464 33q0 -61 -10.5 -108.5t-36.5 -80.5t-70 -50.5t-111 -17.5q-47 0 -82 9t-58 22q-18 11 -25.5 21t-7.5 21q0 13 11.5 29t20.5 26q2 -3 13 -11.5t29.5 -18.5t43.5 -17.5t55 -7.5q48 0 76.5 13.5t44 38t20 58.5t4.5 74v7q-8 -8 -20 -18t-28.5 -18t-37.5 -13.5t-46 -5.5 q-39 0 -75 13t-63.5 41.5t-43.5 75t-16 113.5q0 66 16 114t43 78.5t63 45.5t76 15q47 0 79 -14.5t53 -36.5q5 22 23 32.5t35 10.5q5 0 9 -0.5t8 -0.5q4 -1 8 -1v-438zM141 238q0 -39 6 -72t21 -57.5t39.5 -38t60.5 -13.5q24 0 44.5 6t35.5 15t23 21t8 24v234h1 q-6 6 -15.5 15t-24 17t-33.5 13.5t-43 5.5q-57 0 -90 -43t-33 -127zM328 584q-8 -18 -20.5 -32t-35.5 -14q-10 0 -22.5 3t-20.5 8l68 126q15 28 45 28q7 0 17.5 -2.5t15.5 -5.5z" />
<glyph unicode="&#x124;" horiz-adv-x="650" d="M166 386h318v284q4 0 8 1q4 0 8 0.5t9 0.5q9 0 19.5 -2.5t20 -9t16 -19t6.5 -32.5v-609h-87v310h-318v-310h-87v670q4 0 8 1q4 0 8 0.5t9 0.5q10 0 21 -2.5t20 -9t15 -19t6 -32.5v-223zM324 790l-53 -48q-9 -9 -19 -15t-24 -6q-9 0 -19 4.5t-18 11.5l85 98q24 29 50 29 t48 -27l87 -103q-8 -5 -18 -9t-19 -4q-12 0 -22.5 5.5t-23.5 16.5z" />
<glyph unicode="&#x125;" horiz-adv-x="544" d="M385 281q0 19 -0.5 36.5t-5.5 32.5q-7 26 -29 40t-65 14q-28 0 -51.5 -6.5t-40 -16.5t-25.5 -23t-9 -26v-332h-85v709h5q2 0 5.5 0.5t6.5 0.5q28 0 47.5 -14t19.5 -52v-222q26 29 66 44t85 15q35 0 61.5 -8.5t45 -23t30.5 -33.5t17 -40q5 -20 6 -44.5t1 -47.5v-284h-85 v281zM203 825l-53 -48q-9 -9 -19 -15t-24 -6q-9 0 -19 4.5t-18 11.5l85 98q24 29 50 29t48 -27l87 -103q-8 -5 -18 -9t-19 -4q-12 0 -22.5 5.5t-23.5 16.5z" />
<glyph unicode="&#x126;" horiz-adv-x="650" d="M166 565h318v105q4 0 8 1q4 0 8 0.5t9 0.5q9 0 19.5 -2.5t20 -9t16 -19t6.5 -32.5v-44h74v-66h-74v-499h-87v310h-318v-310h-87v499h-73v66h73v105q4 0 8 1q4 0 8 0.5t9 0.5q10 0 21 -2.5t20 -9t15 -19t6 -32.5v-44zM166 499v-113h318v113h-318z" />
<glyph unicode="&#x127;" horiz-adv-x="544" d="M385 261q0 19 -0.5 36.5t-5.5 32.5q-7 26 -29 40t-65 14q-28 0 -51.5 -6.5t-40 -16.5t-25.5 -23t-9 -26v-312h-85v548h-74v66h74v95h5q2 0 5.5 0.5t6.5 0.5q28 0 47.5 -14t19.5 -52v-30h204v-66h-204v-146q26 29 66 44t85 15q35 0 61.5 -8.5t45 -23t30.5 -33.5t17 -40 q5 -20 6 -44.5t1 -47.5v-264h-85v261z" />
<glyph unicode="&#x128;" horiz-adv-x="240" d="M164 0h-88v670q4 0 8 1q4 0 8 0.5t9 0.5q9 0 19.5 -2.5t20.5 -9t16.5 -19t6.5 -32.5v-609zM248 847q11 -7 23 -18.5t12 -23.5q0 -13 -12 -28q-13 -16 -33.5 -27.5t-47.5 -11.5q-20 0 -37 5.5t-33 12.5q-14 6 -27.5 10.5t-28.5 4.5q-20 0 -37.5 -12t-33.5 -31 q-9 7 -18.5 18t-9.5 22q0 10 7 19.5t18 17.5q17 14 37 21.5t39 7.5q18 0 32.5 -5t27.5 -11q14 -7 28 -12t31 -5q20 0 34.5 12t28.5 34z" />
<glyph unicode="&#x129;" horiz-adv-x="241" d="M73 475h6q2 0 5.5 0.5t6.5 0.5q28 0 47.5 -14.5t19.5 -52.5v-319q0 -29 8.5 -41t39.5 -12v-36q-9 -3 -24.5 -5t-30.5 -2q-29 0 -44.5 9t-23 24t-9 33.5t-1.5 36.5v378zM245 662q11 -7 23 -18.5t12 -23.5q0 -13 -12 -28q-13 -16 -33.5 -27.5t-47.5 -11.5q-20 0 -37 5.5 t-33 12.5q-14 6 -27.5 10.5t-28.5 4.5q-20 0 -37.5 -12t-33.5 -31q-9 7 -18.5 18t-9.5 22q0 10 7 19.5t18 17.5q17 14 37 21.5t39 7.5q18 0 32.5 -5t27.5 -11q14 -7 28 -12t31 -5q20 0 34.5 12t28.5 34z" />
<glyph unicode="&#x12a;" horiz-adv-x="240" d="M164 0h-88v670q4 0 8 1q4 0 8 0.5t9 0.5q9 0 19.5 -2.5t20.5 -9t16.5 -19t6.5 -32.5v-609zM10 746q-26 0 -37 9t-11 32q0 12 4 27h246q23 0 38 -8t15 -34q0 -9 -0.5 -15t-1.5 -11h-253z" />
<glyph unicode="&#x12b;" horiz-adv-x="241" d="M73 475h6q2 0 5.5 0.5t6.5 0.5q28 0 47.5 -14.5t19.5 -52.5v-319q0 -29 8.5 -41t39.5 -12v-36q-9 -3 -24.5 -5t-30.5 -2q-29 0 -44.5 9t-23 24t-9 33.5t-1.5 36.5v378zM0 572q-24 0 -35 9t-11 32q0 12 4 27h247q23 0 37.5 -8t14.5 -35q0 -8 -0.5 -14t-1.5 -11h-255z" />
<glyph unicode="&#x12c;" horiz-adv-x="240" d="M164 0h-88v670q4 0 8 1q4 0 8 0.5t9 0.5q9 0 19.5 -2.5t20.5 -9t16.5 -19t6.5 -32.5v-609zM267 872q-14 -63 -51.5 -101.5t-102.5 -38.5q-67 0 -104 36t-52 105q6 4 18 7t20 3q12 0 20.5 -6.5t14.5 -23.5q13 -35 32 -48.5t51 -13.5q33 0 50.5 13t31.5 48q13 31 37 31 q8 0 18 -3t17 -8z" />
<glyph unicode="&#x12d;" horiz-adv-x="241" d="M73 475h6q2 0 5.5 0.5t6.5 0.5q28 0 47.5 -14.5t19.5 -52.5v-319q0 -29 8.5 -41t39.5 -12v-36q-9 -3 -24.5 -5t-30.5 -2q-29 0 -44.5 9t-23 24t-9 33.5t-1.5 36.5v378zM268 673q-14 -63 -51.5 -101.5t-102.5 -38.5q-67 0 -104 36t-52 105q6 4 18 7t20 3q12 0 20.5 -6.5 t14.5 -23.5q13 -35 32 -48.5t51 -13.5q33 0 50.5 13t31.5 48q13 31 37 31q8 0 18 -3t17 -8z" />
<glyph unicode="&#x12e;" horiz-adv-x="240" d="M118 -153q17 0 28.5 7.5t19.5 15.5q8 -8 14 -18.5t6 -21.5t-7 -18.5t-17.5 -13t-24 -8t-26.5 -2.5q-39 0 -64 20.5t-25 65.5q0 24 9 47t22.5 42t28.5 33q3 2 5 4h-11v670q4 0 8 1q4 0 8 0.5t9 0.5q9 0 19.5 -2.5t20.5 -9t16.5 -19t6.5 -32.5v-609q-14 -11 -27.5 -25.5 t-24.5 -30t-18 -31.5t-7 -31q0 -35 31 -35z" />
<glyph unicode="&#x12f;" horiz-adv-x="232" d="M160 -153q17 0 28.5 7.5t19.5 15.5q8 -8 14 -18.5t6 -21.5t-7 -18.5t-17.5 -13t-24 -8t-26.5 -2.5q-39 0 -64 20.5t-25 65.5q0 24 9 47t22.5 42t28.5 33q-10 3 -18 7q-15 9 -22.5 24t-9 33.5t-1.5 36.5v378h6q2 0 5.5 0.5t6.5 0.5q28 0 47.5 -14.5t19.5 -52.5v-319 q0 -29 8.5 -41t39.5 -12v-37q-14 -11 -27.5 -25.5t-24.5 -30t-18 -31.5t-7 -31q0 -35 31 -35zM166 624q0 -23 -15.5 -38.5t-38.5 -15.5t-38.5 15.5t-15.5 38.5q0 25 15.5 41t38.5 16t38.5 -16t15.5 -41z" />
<glyph unicode="&#x130;" horiz-adv-x="240" d="M164 0h-88v670q4 0 8 1q4 0 8 0.5t9 0.5q9 0 19.5 -2.5t20.5 -9t16.5 -19t6.5 -32.5v-609zM172 788q0 -24 -16 -41.5t-39 -17.5t-38.5 17.5t-15.5 41.5q0 26 15.5 43.5t38.5 17.5t39 -17.5t16 -43.5z" />
<glyph unicode="&#x131;" horiz-adv-x="241" d="M73 475h6q2 0 5.5 0.5t6.5 0.5q28 0 47.5 -14.5t19.5 -52.5v-319q0 -29 8.5 -41t39.5 -12v-36q-9 -3 -24.5 -5t-30.5 -2q-29 0 -44.5 9t-23 24t-9 33.5t-1.5 36.5v378z" />
<glyph unicode="&#x132;" horiz-adv-x="495" d="M164 0h-88v670q4 0 8 1q4 0 8 0.5t9 0.5q9 0 19.5 -2.5t20.5 -9t16.5 -19t6.5 -32.5v-609zM418 69q0 -21 -1 -43t-3 -45q-3 -29 -13.5 -57.5t-30 -51t-48.5 -36.5t-69 -14q-32 0 -42.5 14t-10.5 35v12.5t1 11.5q73 0 101.5 29t28.5 97v648q5 2 12 2.5t12 0.5q9 0 20 -2 t20.5 -9t16 -19t6.5 -31v-542z" />
<glyph unicode="&#x133;" horiz-adv-x="460" d="M73 475h6q2 0 5.5 0.5t6.5 0.5q28 0 47.5 -14.5t19.5 -52.5v-319q0 -29 8.5 -41t39.5 -12v-36q-9 -3 -24.5 -5t-30.5 -2q-29 0 -44.5 9t-23 24t-9 33.5t-1.5 36.5v378zM166 624q0 -23 -15.5 -38.5t-38.5 -15.5t-38.5 15.5t-15.5 38.5q0 25 15.5 41t38.5 16t38.5 -16 t15.5 -41zM306 475h6q2 0 5.5 0.5t6.5 0.5q29 0 48 -14.5t19 -53.5v-455q0 -60 -15.5 -95t-37 -53.5t-44.5 -23.5t-39 -5q-18 0 -27.5 5.5t-14.5 14.5t-6.5 21t-1.5 25q60 2 80.5 29t20.5 81v523zM401 624q0 -23 -15.5 -38.5t-38.5 -15.5t-38.5 15.5t-15.5 38.5 q0 25 15.5 41t38.5 16t38.5 -16t15.5 -41z" />
<glyph unicode="&#x134;" horiz-adv-x="248" d="M171 69q0 -21 -1 -43t-3 -45q-3 -29 -13.5 -57.5t-30 -51t-48.5 -36.5t-69 -14q-32 0 -42.5 14t-10.5 35v12.5t1 11.5q73 0 101.5 29t28.5 97v648q5 2 12 2.5t12 0.5q9 0 20 -2t20.5 -9t16 -19t6.5 -31v-542zM113 790l-53 -48q-9 -9 -19 -15t-24 -6q-9 0 -19 4.5 t-18 11.5l85 98q24 29 50 29t48 -27l87 -103q-8 -5 -18 -9t-19 -4q-12 0 -22.5 5.5t-23.5 16.5z" />
<glyph unicode="&#x135;" horiz-adv-x="237" d="M83 475h7q2 0 4.5 0.5t4.5 0.5q29 0 48 -14.5t19 -53.5v-455q0 -60 -15.5 -95t-37 -53.5t-45 -23.5t-39.5 -5q-17 0 -27 6t-14.5 15.5t-6 22t-1.5 25.5q60 2 80.5 27.5t20.5 79.5zM115 621l-59 -66q-17 -20 -42 -20q-9 0 -18.5 3.5t-17.5 11.5l88 116q10 13 22 20.5 t28 7.5t26.5 -6.5t21.5 -20.5l92 -120q-8 -5 -17 -8.5t-20 -3.5q-24 0 -45 22z" />
<glyph unicode="&#x136;" horiz-adv-x="562" d="M184 340v32l239 267q16 17 28.5 24t27.5 7q10 0 20.5 -3.5t18.5 -7.5q10 -4 19 -10l-259 -289l278 -356q-12 -5 -27.5 -8.5t-27.5 -3.5q-26 0 -42.5 9t-31.5 28zM166 0h-87v670q4 0 8 1q4 0 7.5 0.5t8.5 0.5q9 0 19.5 -2.5t20.5 -9t16.5 -19t6.5 -32.5v-609zM280 -194 q-7 -12 -18.5 -20t-28.5 -8q-6 0 -15.5 2t-14.5 5l46 111q8 20 20 33t36 13q11 0 23 -3t20 -7z" />
<glyph unicode="&#x137;" horiz-adv-x="483" d="M74 0v709h6q2 0 5.5 0.5t6.5 0.5q28 0 47.5 -14.5t19.5 -52.5v-643h-85zM182 246v33l172 171q28 26 57 26q11 0 20 -3.5t16 -7.5q8 -4 15 -10l-192 -189l222 -265q-24 -9 -50 -9q-20 0 -39.5 8.5t-35.5 27.5zM233 -194q-7 -12 -18.5 -20t-28.5 -8q-6 0 -15.5 2t-14.5 5 l46 111q8 20 20 33t36 13q11 0 23 -3t20 -7z" />
<glyph unicode="&#x138;" horiz-adv-x="483" d="M74 0v472h6q2 0 5.5 0.5t6.5 0.5q28 0 47.5 -14.5t19.5 -52.5v-406h-85zM182 236v33l150 166q13 14 26.5 22.5t34.5 8.5q11 0 20.5 -3.5t16.5 -7.5q8 -4 15 -10l-174 -191l204 -253q-24 -9 -50 -9q-47 0 -77 37z" />
<glyph unicode="&#x139;" horiz-adv-x="479" d="M78 670q4 0 8 1q4 0 8 0.5t9 0.5q9 0 19.5 -2.5t20 -9t16 -19t6.5 -32.5v-533h232q32 0 46 -15.5t14 -37.5q0 -5 -0.5 -9t-0.5 -7v-7h-378v670zM166 741q-14 -8 -25.5 -13t-22.5 -5q-12 0 -26.5 8.5t-21.5 17.5l103 83q16 13 28.5 19.5t26.5 6.5q17 0 33.5 -12t25.5 -27z " />
<glyph unicode="&#x13a;" horiz-adv-x="241" d="M158 94q0 -15 1 -25.5t5.5 -17.5t14 -10.5t27.5 -3.5v-36q-9 -3 -24.5 -5t-30.5 -2q-29 0 -44.5 9t-23 24t-9 33.5t-1.5 36.5v612h6q2 0 5.5 0.5t6.5 0.5q28 0 47.5 -14.5t19.5 -52.5v-549zM163 781q-14 -8 -25.5 -13t-22.5 -5q-12 0 -26.5 8.5t-21.5 17.5l103 83 q16 13 28.5 19.5t26.5 6.5q17 0 33.5 -12t25.5 -27z" />
<glyph unicode="&#x13b;" horiz-adv-x="479" d="M78 670q4 0 8 1q4 0 8 0.5t9 0.5q9 0 19.5 -2.5t20 -9t16 -19t6.5 -32.5v-533h232q32 0 46 -15.5t14 -37.5q0 -5 -0.5 -9t-0.5 -7v-7h-378v670zM248 -194q-7 -12 -18.5 -20t-28.5 -8q-6 0 -15.5 2t-14.5 5l46 111q8 20 20 33t36 13q11 0 23 -3t20 -7z" />
<glyph unicode="&#x13c;" horiz-adv-x="241" d="M158 94q0 -15 1 -25.5t5.5 -17.5t14 -10.5t27.5 -3.5v-36q-9 -3 -24.5 -5t-30.5 -2q-29 0 -44.5 9t-23 24t-9 33.5t-1.5 36.5v612h6q2 0 5.5 0.5t6.5 0.5q28 0 47.5 -14.5t19.5 -52.5v-549zM115 -194q-7 -12 -18.5 -20t-28.5 -8q-6 0 -15.5 2t-14.5 5l46 111q8 20 20 33 t36 13q11 0 23 -3t20 -7z" />
<glyph unicode="&#x13d;" horiz-adv-x="479" d="M78 670q4 0 8 1q4 0 8 0.5t9 0.5q9 0 19.5 -2.5t20 -9t16 -19t6.5 -32.5v-533h232q32 0 46 -15.5t14 -37.5q0 -5 -0.5 -9t-0.5 -7v-7h-378v670zM310 518q-2 -29 -13.5 -45.5t-41.5 -16.5h-11v142q0 15 2 28.5t8 23.5t17.5 16t29.5 6q5 0 10 -0.5t10 -1.5z" />
<glyph unicode="&#x13e;" horiz-adv-x="257" d="M158 94q0 -15 1 -25.5t5.5 -17.5t14 -10.5t27.5 -3.5v-36q-9 -3 -24.5 -5t-30.5 -2q-29 0 -44.5 9t-23 24t-9 33.5t-1.5 36.5v612h6q2 0 5.5 0.5t6.5 0.5q28 0 47.5 -14.5t19.5 -52.5v-549zM295 556q-2 -29 -13.5 -45.5t-41.5 -16.5h-11v142q0 15 2 28.5t8 23.5t17.5 16 t29.5 6q5 0 10 -0.5t10 -1.5z" />
<glyph unicode="&#x13f;" horiz-adv-x="479" d="M78 670q4 0 8 1q4 0 8 0.5t9 0.5q9 0 19.5 -2.5t20 -9t16 -19t6.5 -32.5v-533h232q32 0 46 -15.5t14 -37.5q0 -5 -0.5 -9t-0.5 -7v-7h-378v670zM423 356q0 -24 -16 -41.5t-39 -17.5t-38.5 17.5t-15.5 41.5q0 26 15.5 43.5t38.5 17.5t39 -17.5t16 -43.5z" />
<glyph unicode="&#x140;" horiz-adv-x="290" d="M158 94q0 -15 1 -25.5t5.5 -17.5t14 -10.5t27.5 -3.5v-36q-9 -3 -24.5 -5t-30.5 -2q-29 0 -44.5 9t-23 24t-9 33.5t-1.5 36.5v612h6q2 0 5.5 0.5t6.5 0.5q28 0 47.5 -14.5t19.5 -52.5v-549zM320 382q0 -25 -16 -42t-39 -17t-38.5 17t-15.5 42q0 26 15.5 43.5t38.5 17.5 t39 -17.5t16 -43.5z" />
<glyph unicode="&#x141;" horiz-adv-x="493" d="M91 281l-80 -32l-24 62l104 43v316q4 0 8 1q4 0 8 0.5t9 0.5q9 0 19.5 -2.5t20 -9t16 -19t6.5 -32.5v-222l185 75l27 -63l-212 -88v-235h232q32 0 46 -15.5t14 -37.5q0 -5 -0.5 -9t-0.5 -7v-7h-378v281z" />
<glyph unicode="&#x142;" horiz-adv-x="303" d="M190 443l71 40l34 -60l-105 -59v-266q0 -15 1 -25.5t5.5 -17.5t14 -10.5t27.5 -3.5v-36q-9 -3 -24.5 -5t-30.5 -2q-29 0 -44.5 9t-23 24t-9 33.5t-1.5 36.5v224l-56 -32l-31 61l87 49v310h6q2 0 5.5 0.5t6.5 0.5q28 0 47.5 -14.5t19.5 -52.5v-204z" />
<glyph unicode="&#x143;" horiz-adv-x="660" d="M500 133v537q3 0 7 1q3 0 7.5 0.5t9.5 0.5q9 0 19 -2.5t18.5 -9t14 -19t5.5 -32.5v-609h-81l-340 519v-519h-81v667q6 2 17 3.5t22 1.5q22 0 34.5 -7.5t23.5 -25.5zM361 741q-14 -8 -25.5 -13t-22.5 -5q-12 0 -26.5 8.5t-21.5 17.5l103 83q16 13 28.5 19.5t26.5 6.5 q17 0 33.5 -12t25.5 -27z" />
<glyph unicode="&#x144;" horiz-adv-x="543" d="M91 473q23 0 41.5 -11.5t22.5 -39.5q23 23 62.5 41t93.5 18q68 0 104 -30t47 -75q5 -20 6 -44.5t1 -47.5v-284h-85v281q0 19 -0.5 36.5t-5.5 32.5q-7 26 -29 40t-65 14q-57 0 -91 -22.5t-34 -48.5v-333h-85v472h5q2 0 5.5 0.5t6.5 0.5zM321 566q-11 -13 -23.5 -20.5 t-27.5 -7.5q-11 0 -22.5 5t-19.5 11l84 110q11 15 22.5 25t30.5 10q14 0 30 -7.5t27 -16.5z" />
<glyph unicode="&#x145;" horiz-adv-x="660" d="M500 133v537q3 0 7 1q3 0 7.5 0.5t9.5 0.5q9 0 19 -2.5t18.5 -9t14 -19t5.5 -32.5v-609h-81l-340 519v-519h-81v667q6 2 17 3.5t22 1.5q22 0 34.5 -7.5t23.5 -25.5zM322 -194q-7 -12 -18.5 -20t-28.5 -8q-6 0 -15.5 2t-14.5 5l46 111q8 20 20 33t36 13q11 0 23 -3t20 -7z " />
<glyph unicode="&#x146;" horiz-adv-x="543" d="M91 473q23 0 41.5 -11.5t22.5 -39.5q23 23 62.5 41t93.5 18q68 0 104 -30t47 -75q5 -20 6 -44.5t1 -47.5v-284h-85v281q0 19 -0.5 36.5t-5.5 32.5q-7 26 -29 40t-65 14q-57 0 -91 -22.5t-34 -48.5v-333h-85v472h5q2 0 5.5 0.5t6.5 0.5zM251 -194q-7 -12 -18.5 -20 t-28.5 -8q-6 0 -15.5 2t-14.5 5l46 111q8 20 20 33t36 13q11 0 23 -3t20 -7z" />
<glyph unicode="&#x147;" horiz-adv-x="660" d="M500 133v537q3 0 7 1q3 0 7.5 0.5t9.5 0.5q9 0 19 -2.5t18.5 -9t14 -19t5.5 -32.5v-609h-81l-340 519v-519h-81v667q6 2 17 3.5t22 1.5q22 0 34.5 -7.5t23.5 -25.5zM384 842q13 11 23.5 16.5t22.5 5.5q9 0 19 -4t18 -9l-87 -103q-22 -27 -48 -27t-50 29l-85 98 q8 7 18 11.5t19 4.5q14 0 24 -6t19 -15l53 -48z" />
<glyph unicode="&#x148;" horiz-adv-x="543" d="M91 473q23 0 41.5 -11.5t22.5 -39.5q23 23 62.5 41t93.5 18q68 0 104 -30t47 -75q5 -20 6 -44.5t1 -47.5v-284h-85v281q0 19 -0.5 36.5t-5.5 32.5q-7 26 -29 40t-65 14q-57 0 -91 -22.5t-34 -48.5v-333h-85v472h5q2 0 5.5 0.5t6.5 0.5zM340 665q21 22 45 22q11 0 20 -3.5 t17 -8.5l-92 -120q-11 -14 -21.5 -20.5t-26.5 -6.5t-28 7.5t-22 20.5l-88 116q8 8 17.5 11.5t18.5 3.5q25 0 42 -20l59 -66z" />
<glyph unicode="&#x149;" horiz-adv-x="543" d="M91 473q23 0 41.5 -11.5t22.5 -39.5q23 23 62.5 41t93.5 18q68 0 104 -30t47 -75q5 -20 6 -44.5t1 -47.5v-284h-85v281q0 19 -0.5 36.5t-5.5 32.5q-7 26 -29 40t-65 14q-57 0 -91 -22.5t-34 -48.5v-333h-85v472h5q2 0 5.5 0.5t6.5 0.5zM174 646q0 -40 -19.5 -75 t-45.5 -52q-13 -8 -28 -8q-25 0 -36 27q18 8 37 26t24 39q-10 7 -23.5 20.5t-13.5 33.5t13.5 35.5t37.5 15.5q27 0 40.5 -18t13.5 -44z" />
<glyph unicode="&#x14a;" horiz-adv-x="660" d="M500 132v538q3 0 7 1q3 0 7.5 0.5t9.5 0.5q9 0 19 -2.5t18.5 -9t14 -19t5.5 -32.5v-540q0 -21 -1 -43t-3 -45q-3 -29 -13.5 -57.5t-30 -51t-48.5 -36.5t-69 -14q-32 0 -42 14t-10 35v12.5t1 11.5q68 0 97.5 28.5t31.5 85.5l-334 512v-521h-81v667q6 2 17 3.5t22 1.5 q22 0 34.5 -7.5t23.5 -25.5z" />
<glyph unicode="&#x14b;" horiz-adv-x="544" d="M92 473q23 0 41.5 -11.5t22.5 -39.5q23 23 62.5 41t93.5 18q68 0 104.5 -30t47.5 -75q5 -20 6 -44.5t1 -47.5v-331q0 -60 -15.5 -95t-37 -53.5t-45 -23.5t-39.5 -5q-17 0 -27 6t-14.5 15.5t-6 22t-1.5 25.5q60 2 80 27.5t20 79.5v329q0 19 -0.5 36.5t-5.5 32.5 q-7 26 -29 40t-65 14q-57 0 -91 -22.5t-34 -48.5v-333h-86v472h6q2 0 5.5 0.5t6.5 0.5z" />
<glyph unicode="&#x14c;" horiz-adv-x="699" d="M638 338q0 -72 -16.5 -136t-51.5 -112t-90.5 -76.5t-133.5 -28.5q-77 0 -131.5 29t-88.5 77.5t-49.5 112.5t-15.5 133t17 131.5t53 110t91.5 75.5t132.5 28q75 0 128.5 -27t88 -73.5t50.5 -109.5t16 -134zM547 337q0 54 -10 102t-32.5 84.5t-60 57.5t-91.5 21 q-57 0 -95 -21t-61.5 -57.5t-33.5 -84.5t-10 -102t10 -103.5t33 -88t60.5 -61t93.5 -22.5q55 0 93 22.5t61 61t33 88t10 103.5zM251 746q-26 0 -37 9t-11 32q0 12 4 27h246q23 0 38 -8t15 -34q0 -9 -0.5 -15t-1.5 -11h-253z" />
<glyph unicode="&#x14d;" horiz-adv-x="536" d="M488 237q0 -49 -12 -94.5t-38.5 -80.5t-68.5 -56t-102 -21t-101.5 20t-67.5 54t-38 79.5t-12 95.5t14 95t42 78.5t69.5 53.5t97.5 20q59 0 100 -20t67 -53.5t38 -77.5t12 -93zM398 236q0 31 -5.5 61.5t-19.5 55t-39 39.5t-65 15q-38 0 -63.5 -15t-40.5 -39.5t-21.5 -55 t-6.5 -61.5t5.5 -63t20.5 -57.5t40 -42t64 -16.5q40 0 66 16.5t40 42t19.5 57.5t5.5 63zM165 572q-24 0 -35 9t-11 32q0 12 4 27h247q23 0 37.5 -8t14.5 -35q0 -8 -0.5 -14t-1.5 -11h-255z" />
<glyph unicode="&#x14e;" horiz-adv-x="699" d="M638 338q0 -72 -16.5 -136t-51.5 -112t-90.5 -76.5t-133.5 -28.5q-77 0 -131.5 29t-88.5 77.5t-49.5 112.5t-15.5 133t17 131.5t53 110t91.5 75.5t132.5 28q75 0 128.5 -27t88 -73.5t50.5 -109.5t16 -134zM547 337q0 54 -10 102t-32.5 84.5t-60 57.5t-91.5 21 q-57 0 -95 -21t-61.5 -57.5t-33.5 -84.5t-10 -102t10 -103.5t33 -88t60.5 -61t93.5 -22.5q55 0 93 22.5t61 61t33 88t10 103.5zM510 872q-14 -63 -51.5 -101.5t-102.5 -38.5q-67 0 -104 36t-52 105q6 4 18 7t20 3q12 0 20.5 -6.5t14.5 -23.5q13 -35 32 -48.5t51 -13.5 q33 0 50.5 13t31.5 48q13 31 37 31q8 0 18 -3t17 -8z" />
<glyph unicode="&#x14f;" horiz-adv-x="536" d="M488 237q0 -49 -12 -94.5t-38.5 -80.5t-68.5 -56t-102 -21t-101.5 20t-67.5 54t-38 79.5t-12 95.5t14 95t42 78.5t69.5 53.5t97.5 20q59 0 100 -20t67 -53.5t38 -77.5t12 -93zM398 236q0 31 -5.5 61.5t-19.5 55t-39 39.5t-65 15q-38 0 -63.5 -15t-40.5 -39.5t-21.5 -55 t-6.5 -61.5t5.5 -63t20.5 -57.5t40 -42t64 -16.5q40 0 66 16.5t40 42t19.5 57.5t5.5 63zM431 673q-14 -63 -51.5 -101.5t-102.5 -38.5q-67 0 -104 36t-52 105q6 4 18 7t20 3q12 0 20.5 -6.5t14.5 -23.5q13 -35 32 -48.5t51 -13.5q33 0 50.5 13t31.5 48q13 31 37 31 q8 0 18 -3t17 -8z" />
<glyph unicode="&#x150;" horiz-adv-x="699" d="M638 338q0 -72 -16.5 -136t-51.5 -112t-90.5 -76.5t-133.5 -28.5q-77 0 -131.5 29t-88.5 77.5t-49.5 112.5t-15.5 133t17 131.5t53 110t91.5 75.5t132.5 28q75 0 128.5 -27t88 -73.5t50.5 -109.5t16 -134zM547 337q0 54 -10 102t-32.5 84.5t-60 57.5t-91.5 21 q-57 0 -95 -21t-61.5 -57.5t-33.5 -84.5t-10 -102t10 -103.5t33 -88t60.5 -61t93.5 -22.5q55 0 93 22.5t61 61t33 88t10 103.5zM317 741q-11 -7 -24 -13.5t-24 -6.5t-23.5 7.5t-19.5 18.5l128 97q20 14 34 14q15 0 28 -12.5t23 -26.5zM492 741q-11 -7 -24 -13.5t-24 -6.5 t-23.5 7.5t-19.5 18.5l128 97q18 14 34 14q15 0 28 -12.5t23 -26.5z" />
<glyph unicode="&#x151;" horiz-adv-x="536" d="M488 237q0 -49 -12 -94.5t-38.5 -80.5t-68.5 -56t-102 -21t-101.5 20t-67.5 54t-38 79.5t-12 95.5t14 95t42 78.5t69.5 53.5t97.5 20q59 0 100 -20t67 -53.5t38 -77.5t12 -93zM398 236q0 31 -5.5 61.5t-19.5 55t-39 39.5t-65 15q-38 0 -63.5 -15t-40.5 -39.5t-21.5 -55 t-6.5 -61.5t5.5 -63t20.5 -57.5t40 -42t64 -16.5q40 0 66 16.5t40 42t19.5 57.5t5.5 63zM247 569q-12 -13 -25.5 -22t-28.5 -9q-11 0 -19.5 5t-16.5 11l84 110q11 15 22.5 24.5t29.5 9.5q14 0 28 -7t25 -16zM405 566q-11 -12 -23.5 -20t-29.5 -8q-11 0 -20 4.5t-17 10.5 l84 111q11 15 22.5 24.5t30.5 9.5q14 0 27.5 -7t24.5 -16z" />
<glyph unicode="&#x152;" horiz-adv-x="904" d="M560 388h227v-77h-227v-236h254q33 0 47.5 -15.5t14.5 -38.5q0 -4 -0.5 -7.5t-0.5 -6.5v-7h-512q-77 0 -133.5 26.5t-94 73t-56 108.5t-18.5 133q0 68 19.5 128t58.5 104.5t97 70t135 25.5h488q2 -6 2 -10.5v-10.5q0 -23 -13 -38.5t-48 -15.5h-240v-206zM151 341 q0 -54 12.5 -103t39 -86t68 -59t99.5 -22h103v527h-99q-59 0 -101.5 -20t-69.5 -55t-39.5 -81.5t-12.5 -100.5z" />
<glyph unicode="&#x153;" horiz-adv-x="846" d="M631 57q29 0 51 6t38 15t27 18.5t18 17.5q11 -14 19.5 -30t8.5 -27t-12.5 -23.5t-34 -23t-52 -18t-66.5 -7.5q-64 0 -113 27.5t-74 78.5q-11 -21 -27 -40t-38.5 -33.5t-51.5 -23.5t-65 -9q-56 0 -96 20.5t-65.5 54.5t-37.5 79t-12 94q0 50 14 95t41.5 79t69 54t96.5 20 q67 0 109.5 -30t62.5 -72q24 49 69.5 75.5t102.5 26.5q50 0 86 -17t59 -45.5t34 -66t11 -77.5q0 -14 -0.5 -28.5t-2.5 -27.5h-316q2 -33 11.5 -62.5t27.5 -51.5t44.5 -35t63.5 -13zM398 238q0 31 -6 61t-20.5 54t-39.5 39t-63 15t-63 -15t-40.5 -39.5t-22 -55t-6.5 -61.5 t5.5 -62.5t20.5 -57t40 -42t64 -16.5q40 0 66 16.5t40 42.5t19.5 58t5.5 63zM720 283q-1 28 -7 51.5t-19.5 40.5t-35 26.5t-52.5 9.5q-51 0 -84 -34.5t-38 -93.5h236z" />
<glyph unicode="&#x154;" horiz-adv-x="556" d="M493 485q0 -42 -12 -75t-32 -57t-46.5 -40t-56.5 -23l183 -290q-10 -5 -23 -7t-24 -2q-46 0 -71 39l-156 244h-89v-274h-87v667q36 5 77.5 7t79.5 2q137 0 197 -46.5t60 -144.5zM402 480q0 37 -11.5 61t-33 37.5t-52 18.5t-67.5 5q-24 0 -42 -1t-33 -3h2v-250h72 q37 0 67 7t52 23t34 41t12 61zM280 741q-14 -8 -25.5 -13t-22.5 -5q-12 0 -26.5 8.5t-21.5 17.5l103 83q16 13 28.5 19.5t26.5 6.5q17 0 33.5 -12t25.5 -27z" />
<glyph unicode="&#x155;" horiz-adv-x="348" d="M92 473q23 0 41.5 -11.5t22.5 -38.5q14 21 42 39.5t65 18.5q11 0 23.5 -2t23.5 -6.5t18 -12.5t7 -21q0 -16 -8 -34.5t-16 -30.5q-13 12 -28 18.5t-38 6.5q-17 0 -32.5 -5.5t-27.5 -15t-19 -21.5t-7 -25v-332h-85v472h7q3 0 6 0.5t5 0.5zM245 566q-11 -13 -23.5 -20.5 t-27.5 -7.5q-11 0 -22.5 5t-19.5 11l84 110q11 15 22.5 25t30.5 10q14 0 30 -7.5t27 -16.5z" />
<glyph unicode="&#x156;" horiz-adv-x="556" d="M493 485q0 -42 -12 -75t-32 -57t-46.5 -40t-56.5 -23l183 -290q-10 -5 -23 -7t-24 -2q-46 0 -71 39l-156 244h-89v-274h-87v667q36 5 77.5 7t79.5 2q137 0 197 -46.5t60 -144.5zM402 480q0 37 -11.5 61t-33 37.5t-52 18.5t-67.5 5q-24 0 -42 -1t-33 -3h2v-250h72 q37 0 67 7t52 23t34 41t12 61zM264 -194q-7 -12 -18.5 -20t-28.5 -8q-6 0 -15.5 2t-14.5 5l46 111q8 20 20 33t36 13q11 0 23 -3t20 -7z" />
<glyph unicode="&#x157;" horiz-adv-x="348" d="M92 473q23 0 41.5 -11.5t22.5 -38.5q14 21 42 39.5t65 18.5q11 0 23.5 -2t23.5 -6.5t18 -12.5t7 -21q0 -16 -8 -34.5t-16 -30.5q-13 12 -28 18.5t-38 6.5q-17 0 -32.5 -5.5t-27.5 -15t-19 -21.5t-7 -25v-332h-85v472h7q3 0 6 0.5t5 0.5zM77 -194q-7 -12 -18.5 -20 t-28.5 -8q-6 0 -15.5 2t-14.5 5l46 111q8 20 20 33t36 13q11 0 23 -3t20 -7z" />
<glyph unicode="&#x158;" horiz-adv-x="556" d="M493 485q0 -42 -12 -75t-32 -57t-46.5 -40t-56.5 -23l183 -290q-10 -5 -23 -7t-24 -2q-46 0 -71 39l-156 244h-89v-274h-87v667q36 5 77.5 7t79.5 2q137 0 197 -46.5t60 -144.5zM402 480q0 37 -11.5 61t-33 37.5t-52 18.5t-67.5 5q-24 0 -42 -1t-33 -3h2v-250h72 q37 0 67 7t52 23t34 41t12 61zM305 842q13 11 23.5 16.5t22.5 5.5q9 0 19 -4t18 -9l-87 -103q-22 -27 -48 -27t-50 29l-85 98q8 7 18 11.5t19 4.5q14 0 24 -6t19 -15l53 -48z" />
<glyph unicode="&#x159;" horiz-adv-x="348" d="M92 473q23 0 41.5 -11.5t22.5 -38.5q14 21 42 39.5t65 18.5q11 0 23.5 -2t23.5 -6.5t18 -12.5t7 -21q0 -16 -8 -34.5t-16 -30.5q-13 12 -28 18.5t-38 6.5q-17 0 -32.5 -5.5t-27.5 -15t-19 -21.5t-7 -25v-332h-85v472h7q3 0 6 0.5t5 0.5zM268 665q21 22 45 22 q11 0 20 -3.5t17 -8.5l-92 -120q-11 -14 -21.5 -20.5t-26.5 -6.5t-28 7.5t-22 20.5l-88 116q8 8 17.5 11.5t18.5 3.5q25 0 42 -20l59 -66z" />
<glyph unicode="&#x15a;" horiz-adv-x="496" d="M57 126q32 -26 76.5 -45.5t95.5 -19.5q39 0 65 10t41.5 26t22.5 36.5t7 42.5q0 28 -8.5 49t-25 36.5t-41.5 26.5t-57 21q-37 11 -71 25t-60.5 35t-42.5 52t-16 77q0 45 16.5 79.5t45 57.5t67.5 35t85 12q37 0 79.5 -9.5t72.5 -27.5q16 -10 27 -21.5t11 -26.5 q0 -12 -9.5 -26t-23.5 -28q-8 7 -22 18t-34 20.5t-45.5 16.5t-55.5 7q-35 0 -58.5 -8.5t-38 -22t-21 -32t-6.5 -37.5q0 -25 10 -43t29 -31.5t46 -24.5t62 -22t66.5 -26.5t55.5 -38.5t38.5 -54.5t14.5 -75.5q0 -50 -16.5 -88t-46.5 -64t-71.5 -39t-91.5 -13q-55 0 -102.5 12 t-74.5 32q-25 17 -25 37q0 11 9 28t21 32zM290 741q-14 -8 -25.5 -13t-22.5 -5q-12 0 -26.5 8.5t-21.5 17.5l103 83q16 13 28.5 19.5t26.5 6.5q17 0 33.5 -12t25.5 -27z" />
<glyph unicode="&#x15b;" horiz-adv-x="419" d="M330 454q20 -11 27 -20.5t7 -18.5q0 -11 -5.5 -25.5t-13.5 -28.5l-14 -1q-17 21 -49.5 36.5t-69.5 15.5q-13 0 -28.5 -2.5t-29 -9t-22.5 -18.5t-9 -30q0 -32 28.5 -46t70.5 -24q30 -7 58 -17.5t49.5 -27t34 -41.5t12.5 -62t-15 -64.5t-40 -46t-58.5 -28t-69.5 -9.5 q-35 0 -63 5.5t-47 13.5q-25 10 -35 20.5t-10 21.5q0 13 7 27t18 32q7 -6 19.5 -15t30 -17t38.5 -13.5t45 -5.5q18 0 35 3.5t30.5 11.5t22 22t8.5 35t-9 34.5t-24 22.5t-33.5 14.5t-37.5 9.5q-29 6 -55.5 15.5t-47 25.5t-33 40t-12.5 58q0 33 14 58.5t38 42t54.5 25 t63.5 8.5q38 0 69.5 -8t50.5 -19zM247 566q-11 -13 -23.5 -20.5t-27.5 -7.5q-11 0 -22.5 5t-19.5 11l84 110q11 15 22.5 25t30.5 10q14 0 30 -7.5t27 -16.5z" />
<glyph unicode="&#x15c;" horiz-adv-x="496" d="M57 126q32 -26 76.5 -45.5t95.5 -19.5q39 0 65 10t41.5 26t22.5 36.5t7 42.5q0 28 -8.5 49t-25 36.5t-41.5 26.5t-57 21q-37 11 -71 25t-60.5 35t-42.5 52t-16 77q0 45 16.5 79.5t45 57.5t67.5 35t85 12q37 0 79.5 -9.5t72.5 -27.5q16 -10 27 -21.5t11 -26.5 q0 -12 -9.5 -26t-23.5 -28q-8 7 -22 18t-34 20.5t-45.5 16.5t-55.5 7q-35 0 -58.5 -8.5t-38 -22t-21 -32t-6.5 -37.5q0 -25 10 -43t29 -31.5t46 -24.5t62 -22t66.5 -26.5t55.5 -38.5t38.5 -54.5t14.5 -75.5q0 -50 -16.5 -88t-46.5 -64t-71.5 -39t-91.5 -13q-55 0 -102.5 12 t-74.5 32q-25 17 -25 37q0 11 9 28t21 32zM252 790l-53 -48q-9 -9 -19 -15t-24 -6q-9 0 -19 4.5t-18 11.5l85 98q24 29 50 29t48 -27l87 -103q-8 -5 -18 -9t-19 -4q-12 0 -22.5 5.5t-23.5 16.5z" />
<glyph unicode="&#x15d;" horiz-adv-x="419" d="M330 454q20 -11 27 -20.5t7 -18.5q0 -11 -5.5 -25.5t-13.5 -28.5l-14 -1q-17 21 -49.5 36.5t-69.5 15.5q-13 0 -28.5 -2.5t-29 -9t-22.5 -18.5t-9 -30q0 -32 28.5 -46t70.5 -24q30 -7 58 -17.5t49.5 -27t34 -41.5t12.5 -62t-15 -64.5t-40 -46t-58.5 -28t-69.5 -9.5 q-35 0 -63 5.5t-47 13.5q-25 10 -35 20.5t-10 21.5q0 13 7 27t18 32q7 -6 19.5 -15t30 -17t38.5 -13.5t45 -5.5q18 0 35 3.5t30.5 11.5t22 22t8.5 35t-9 34.5t-24 22.5t-33.5 14.5t-37.5 9.5q-29 6 -55.5 15.5t-47 25.5t-33 40t-12.5 58q0 33 14 58.5t38 42t54.5 25 t63.5 8.5q38 0 69.5 -8t50.5 -19zM209 621l-59 -66q-17 -20 -42 -20q-9 0 -18.5 3.5t-17.5 11.5l88 116q10 13 22 20.5t28 7.5t26.5 -6.5t21.5 -20.5l92 -120q-8 -5 -17 -8.5t-20 -3.5q-24 0 -45 22z" />
<glyph unicode="&#x15e;" horiz-adv-x="496" d="M287 -121q0 -22 -8.5 -39t-22 -28.5t-30.5 -17.5t-34 -6q-35 0 -35 31q0 5 1 14t4 19q7 -3 13.5 -4t12.5 -1q17 0 26.5 6t9.5 19q0 12 -6 20t-14 16t-14 16.5t-6 22.5q0 19 11 37l2 2q-37 3 -71 11q-47 12 -74 32q-25 17 -25 37q0 11 9 28t21 32q32 -26 76.5 -45.5 t95.5 -19.5q39 0 65 10t41.5 26t22.5 36.5t7 42.5q0 28 -8.5 49t-25 36.5t-41.5 26.5t-57 21q-37 11 -71 25t-60.5 35t-42.5 52t-16 77q0 45 16.5 79.5t45 57.5t67.5 35t85 12q37 0 79.5 -9.5t72.5 -27.5q16 -10 27 -21.5t11 -26.5q0 -12 -9.5 -26t-23.5 -28q-8 7 -22 18 t-34 20.5t-45.5 16.5t-55.5 7q-35 0 -58.5 -8.5t-38 -22t-21 -32t-6.5 -37.5q0 -25 10 -43t29 -31.5t46 -24.5t62 -22t66.5 -26.5t55.5 -38.5t38.5 -54.5t14.5 -75.5q0 -50 -16.5 -88t-46.5 -64t-72 -39q-32 -10 -70 -12q-7 -10 -7 -21q0 -10 5 -17t13 -14q9 -9 17.5 -21 t8.5 -34z" />
<glyph unicode="&#x15f;" horiz-adv-x="419" d="M263 -121q0 -22 -8.5 -39t-22 -28.5t-30.5 -17.5t-34 -6q-35 0 -35 31q0 5 1 14t4 19q7 -3 13.5 -4t12.5 -1q17 0 26.5 6t9.5 19q0 12 -6 20t-14 16t-14 16.5t-6 22.5q0 19 11 37q1 1 2 3q-23 1 -43 5q-28 5 -47 13q-25 10 -35 20.5t-10 21.5q0 13 7 27t18 32 q7 -6 19.5 -15t30 -17t38.5 -13.5t45 -5.5q18 0 35 3.5t30.5 11.5t22 22t8.5 35t-9 34.5t-24 22.5t-33.5 14.5t-37.5 9.5q-29 6 -55.5 15.5t-47 25.5t-33 40t-12.5 58q0 33 14 58.5t38 42t54.5 25t63.5 8.5q38 0 69.5 -8t50.5 -19q20 -11 27 -20.5t7 -18.5q0 -11 -5.5 -25.5 t-13.5 -28.5l-14 -1q-17 21 -49.5 36.5t-69.5 15.5q-13 0 -28.5 -2.5t-29 -9t-22.5 -18.5t-9 -30q0 -32 28.5 -46t70.5 -24q30 -7 58 -17.5t49.5 -27t34 -41.5t12.5 -62t-15 -64.5t-40 -46t-59 -27.5q-16 -5 -34 -7l-2 -3q-7 -10 -7 -21q0 -10 5 -17t13 -14q9 -9 17.5 -21 t8.5 -34z" />
<glyph unicode="&#x160;" horiz-adv-x="496" d="M57 126q32 -26 76.5 -45.5t95.5 -19.5q39 0 65 10t41.5 26t22.5 36.5t7 42.5q0 28 -8.5 49t-25 36.5t-41.5 26.5t-57 21q-37 11 -71 25t-60.5 35t-42.5 52t-16 77q0 45 16.5 79.5t45 57.5t67.5 35t85 12q37 0 79.5 -9.5t72.5 -27.5q16 -10 27 -21.5t11 -26.5 q0 -12 -9.5 -26t-23.5 -28q-8 7 -22 18t-34 20.5t-45.5 16.5t-55.5 7q-35 0 -58.5 -8.5t-38 -22t-21 -32t-6.5 -37.5q0 -25 10 -43t29 -31.5t46 -24.5t62 -22t66.5 -26.5t55.5 -38.5t38.5 -54.5t14.5 -75.5q0 -50 -16.5 -88t-46.5 -64t-71.5 -39t-91.5 -13q-55 0 -102.5 12 t-74.5 32q-25 17 -25 37q0 11 9 28t21 32zM300 842q13 11 23.5 16.5t22.5 5.5q9 0 19 -4t18 -9l-87 -103q-22 -27 -48 -27t-50 29l-85 98q8 7 18 11.5t19 4.5q14 0 24 -6t19 -15l53 -48z" />
<glyph unicode="&#x161;" horiz-adv-x="419" d="M330 454q20 -11 27 -20.5t7 -18.5q0 -11 -5.5 -25.5t-13.5 -28.5l-14 -1q-17 21 -49.5 36.5t-69.5 15.5q-13 0 -28.5 -2.5t-29 -9t-22.5 -18.5t-9 -30q0 -32 28.5 -46t70.5 -24q30 -7 58 -17.5t49.5 -27t34 -41.5t12.5 -62t-15 -64.5t-40 -46t-58.5 -28t-69.5 -9.5 q-35 0 -63 5.5t-47 13.5q-25 10 -35 20.5t-10 21.5q0 13 7 27t18 32q7 -6 19.5 -15t30 -17t38.5 -13.5t45 -5.5q18 0 35 3.5t30.5 11.5t22 22t8.5 35t-9 34.5t-24 22.5t-33.5 14.5t-37.5 9.5q-29 6 -55.5 15.5t-47 25.5t-33 40t-12.5 58q0 33 14 58.5t38 42t54.5 25 t63.5 8.5q38 0 69.5 -8t50.5 -19zM267 665q21 22 45 22q11 0 20 -3.5t17 -8.5l-92 -120q-11 -14 -21.5 -20.5t-26.5 -6.5t-28 7.5t-22 20.5l-88 116q8 8 17.5 11.5t18.5 3.5q25 0 42 -20l59 -66z" />
<glyph unicode="&#x162;" horiz-adv-x="540" d="M223 593h-212q-1 5 -2 9t-1 9v10q0 19 15 33.5t46 14.5h459q0 -5 1 -9q0 -4 0.5 -7.5t0.5 -6.5q0 -22 -15 -37.5t-46 -15.5h-158v-593h-88v593zM233 -194q-7 -12 -18.5 -20t-28.5 -8q-6 0 -15.5 2t-14.5 5l46 111q8 20 20 33t36 13q11 0 23 -3t20 -7z" />
<glyph unicode="&#x163;" horiz-adv-x="356" d="M82 60q-7 19 -8.5 41.5t-1.5 44.5v468h6q2 0 5.5 0.5t6.5 0.5q27 0 47 -14t20 -51v-80h149v-72h-149v-258q0 -82 65 -82q16 0 30 5.5t25 13t18.5 14.5t9.5 10q12 -15 20.5 -29t8.5 -27q0 -9 -9 -19.5t-25 -19.5t-39.5 -15t-51.5 -6q-52 0 -83 20t-44 55zM174 -194 q-7 -12 -18.5 -20t-28.5 -8q-6 0 -15.5 2t-14.5 5l46 111q8 20 20 33t36 13q11 0 23 -3t20 -7z" />
<glyph unicode="&#x164;" horiz-adv-x="540" d="M223 593h-212q-1 5 -2 9t-1 9v10q0 19 15 33.5t46 14.5h459q0 -5 1 -9q0 -4 0.5 -7.5t0.5 -6.5q0 -22 -15 -37.5t-46 -15.5h-158v-593h-88v593zM321 842q13 11 23.5 16.5t22.5 5.5q9 0 19 -4t18 -9l-87 -103q-22 -27 -48 -27t-50 29l-85 98q8 7 18 11.5t19 4.5 q14 0 24 -6t19 -15l53 -48z" />
<glyph unicode="&#x165;" horiz-adv-x="356" d="M82 60q-7 19 -8.5 41.5t-1.5 44.5v468h6q2 0 5.5 0.5t6.5 0.5q27 0 47 -14t20 -51v-80h149v-72h-149v-258q0 -82 65 -82q16 0 30 5.5t25 13t18.5 14.5t9.5 10q12 -15 20.5 -29t8.5 -27q0 -9 -9 -19.5t-25 -19.5t-39.5 -15t-51.5 -6q-52 0 -83 20t-44 55zM292 585.381 q-2 -26.9854 -13.5 -42.3389q-11.5 -15.3545 -41.5 -15.3545h-11v132.137q0 13.959 2 26.5205q2 12.5625 8 21.8682t17.5 14.8887t29.5 5.58301q5 0 10 -0.464844q5 -0.46582 10 -1.39551z" />
<glyph unicode="&#x166;" horiz-adv-x="540" d="M223 271h-156v66h156v256h-212q-1 5 -2 9t-1 9v10q0 19 15 33.5t46 14.5h459q0 -5 1 -9q0 -4 0.5 -7.5t0.5 -6.5q0 -22 -15 -37.5t-46 -15.5h-158v-256h165v-66h-165v-271h-88v271z" />
<glyph unicode="&#x167;" horiz-adv-x="349" d="M79 60q-7 19 -8.5 41.5t-1.5 44.5v468h6q2 0 5.5 0.5t6.5 0.5q27 0 47 -14t20 -51v-80h149v-72h-149v-110h149v-72h-149v-76q0 -82 65 -82q16 0 30 5.5t25 13t18.5 14.5t9.5 10q12 -15 20.5 -29t8.5 -27q0 -9 -9 -19.5t-25 -19.5t-39.5 -15t-51.5 -6q-52 0 -83 20t-44 55 z" />
<glyph unicode="&#x168;" horiz-adv-x="637" d="M161 254q0 -42 7.5 -77t25 -60.5t47 -39.5t74.5 -14q68 0 106 26t49 86q6 33 6 79v416q4 0 8 1q4 0 8 0.5t9 0.5q9 0 20 -2.5t20 -9t15.5 -19t6.5 -32.5v-343q0 -20 -0.5 -41t-2.5 -40q-4 -42 -19.5 -78.5t-45.5 -63.5t-74.5 -42.5t-107.5 -15.5q-108 0 -162.5 48 t-70.5 133q-4 21 -5 46t-1 51v407q4 0 8 1q4 0 7.5 0.5t8.5 0.5q9 0 20 -2.5t20.5 -9t16 -19t6.5 -32.5v-355zM451 847q11 -7 23 -18.5t12 -23.5q0 -13 -12 -28q-13 -16 -33.5 -27.5t-47.5 -11.5q-20 0 -37 5.5t-33 12.5q-14 6 -27.5 10.5t-28.5 4.5q-20 0 -37.5 -12 t-33.5 -31q-9 7 -18.5 18t-9.5 22q0 10 7 19.5t18 17.5q17 14 37 21.5t39 7.5q18 0 32.5 -5t27.5 -11q14 -7 28 -12t31 -5q20 0 34.5 12t28.5 34z" />
<glyph unicode="&#x169;" horiz-adv-x="536" d="M256 59q27 0 49.5 7.5t38.5 18.5t25 23.5t9 22.5v344h6q2 0 5.5 0.5t6.5 0.5q28 0 47.5 -14.5t19.5 -52.5v-409h-85v44q-20 -23 -56 -41t-93 -18q-58 0 -90 18t-47.5 46t-18.5 61.5t-3 64.5v300h6q2 0 5.5 0.5t6.5 0.5q28 0 47.5 -14t19.5 -52v-235q0 -39 5.5 -62 t22.5 -35q15 -11 32.5 -15t40.5 -4zM386 662q11 -7 23 -18.5t12 -23.5q0 -13 -12 -28q-13 -16 -33.5 -27.5t-47.5 -11.5q-20 0 -37 5.5t-33 12.5q-14 6 -27.5 10.5t-28.5 4.5q-20 0 -37.5 -12t-33.5 -31q-9 7 -18.5 18t-9.5 22q0 10 7 19.5t18 17.5q17 14 37 21.5t39 7.5 q18 0 32.5 -5t27.5 -11q14 -7 28 -12t31 -5q20 0 34.5 12t28.5 34z" />
<glyph unicode="&#x16a;" horiz-adv-x="637" d="M161 254q0 -42 7.5 -77t25 -60.5t47 -39.5t74.5 -14q68 0 106 26t49 86q6 33 6 79v416q4 0 8 1q4 0 8 0.5t9 0.5q9 0 20 -2.5t20 -9t15.5 -19t6.5 -32.5v-343q0 -20 -0.5 -41t-2.5 -40q-4 -42 -19.5 -78.5t-45.5 -63.5t-74.5 -42.5t-107.5 -15.5q-108 0 -162.5 48 t-70.5 133q-4 21 -5 46t-1 51v407q4 0 8 1q4 0 7.5 0.5t8.5 0.5q9 0 20 -2.5t20.5 -9t16 -19t6.5 -32.5v-355zM204 746q-26 0 -37 9t-11 32q0 12 4 27h246q23 0 38 -8t15 -34q0 -9 -0.5 -15t-1.5 -11h-253z" />
<glyph unicode="&#x16b;" horiz-adv-x="536" d="M256 59q27 0 49.5 7.5t38.5 18.5t25 23.5t9 22.5v344h6q2 0 5.5 0.5t6.5 0.5q28 0 47.5 -14.5t19.5 -52.5v-409h-85v44q-20 -23 -56 -41t-93 -18q-58 0 -90 18t-47.5 46t-18.5 61.5t-3 64.5v300h6q2 0 5.5 0.5t6.5 0.5q28 0 47.5 -14t19.5 -52v-235q0 -39 5.5 -62 t22.5 -35q15 -11 32.5 -15t40.5 -4zM149 572q-24 0 -35 9t-11 32q0 12 4 27h247q23 0 37.5 -8t14.5 -35q0 -8 -0.5 -14t-1.5 -11h-255z" />
<glyph unicode="&#x16c;" horiz-adv-x="637" d="M161 254q0 -42 7.5 -77t25 -60.5t47 -39.5t74.5 -14q68 0 106 26t49 86q6 33 6 79v416q4 0 8 1q4 0 8 0.5t9 0.5q9 0 20 -2.5t20 -9t15.5 -19t6.5 -32.5v-343q0 -20 -0.5 -41t-2.5 -40q-4 -42 -19.5 -78.5t-45.5 -63.5t-74.5 -42.5t-107.5 -15.5q-108 0 -162.5 48 t-70.5 133q-4 21 -5 46t-1 51v407q4 0 8 1q4 0 7.5 0.5t8.5 0.5q9 0 20 -2.5t20.5 -9t16 -19t6.5 -32.5v-355zM471 872q-14 -63 -51.5 -101.5t-102.5 -38.5q-67 0 -104 36t-52 105q6 4 18 7t20 3q12 0 20.5 -6.5t14.5 -23.5q13 -35 32 -48.5t51 -13.5q33 0 50.5 13t31.5 48 q13 31 37 31q8 0 18 -3t17 -8z" />
<glyph unicode="&#x16d;" horiz-adv-x="536" d="M256 59q27 0 49.5 7.5t38.5 18.5t25 23.5t9 22.5v344h6q2 0 5.5 0.5t6.5 0.5q28 0 47.5 -14.5t19.5 -52.5v-409h-85v44q-20 -23 -56 -41t-93 -18q-58 0 -90 18t-47.5 46t-18.5 61.5t-3 64.5v300h6q2 0 5.5 0.5t6.5 0.5q28 0 47.5 -14t19.5 -52v-235q0 -39 5.5 -62 t22.5 -35q15 -11 32.5 -15t40.5 -4zM421 673q-14 -63 -51.5 -101.5t-102.5 -38.5q-67 0 -104 36t-52 105q6 4 18 7t20 3q12 0 20.5 -6.5t14.5 -23.5q13 -35 32 -48.5t51 -13.5q33 0 50.5 13t31.5 48q13 31 37 31q8 0 18 -3t17 -8z" />
<glyph unicode="&#x16e;" horiz-adv-x="637" d="M161 254q0 -42 7.5 -77t25 -60.5t47 -39.5t74.5 -14q68 0 106 26t49 86q6 33 6 79v416q4 0 8 1q4 0 8 0.5t9 0.5q9 0 20 -2.5t20 -9t15.5 -19t6.5 -32.5v-343q0 -20 -0.5 -41t-2.5 -40q-4 -42 -19.5 -78.5t-45.5 -63.5t-74.5 -42.5t-107.5 -15.5q-108 0 -162.5 48 t-70.5 133q-4 21 -5 46t-1 51v407q4 0 8 1q4 0 7.5 0.5t8.5 0.5q9 0 20 -2.5t20.5 -9t16 -19t6.5 -32.5v-355zM428 805q0 -22 -7.5 -42t-21 -35t-33.5 -23.5t-44 -8.5t-44 8.5t-33.5 23.5t-21 34.5t-7.5 41.5q0 46 28.5 78t77.5 32t77.5 -30t28.5 -79zM376 804 q0 23 -11.5 42.5t-43.5 19.5q-27 0 -39.5 -19t-12.5 -42q0 -24 13.5 -42t39.5 -18t40 17.5t14 41.5z" />
<glyph unicode="&#x16f;" horiz-adv-x="536" d="M256 59q27 0 49.5 7.5t38.5 18.5t25 23.5t9 22.5v344h6q2 0 5.5 0.5t6.5 0.5q28 0 47.5 -14.5t19.5 -52.5v-409h-85v44q-20 -23 -56 -41t-93 -18q-58 0 -90 18t-47.5 46t-18.5 61.5t-3 64.5v300h6q2 0 5.5 0.5t6.5 0.5q28 0 47.5 -14t19.5 -52v-235q0 -39 5.5 -62 t22.5 -35q15 -11 32.5 -15t40.5 -4zM371 642q0 -22 -7.5 -42t-21 -35t-33.5 -23.5t-44 -8.5t-44 8.5t-33.5 23.5t-21 34.5t-7.5 41.5q0 46 28.5 78t77.5 32t77.5 -30t28.5 -79zM319 641q0 23 -11.5 42.5t-43.5 19.5q-27 0 -39.5 -19t-12.5 -42q0 -24 13.5 -42t39.5 -18 t40 17.5t14 41.5z" />
<glyph unicode="&#x170;" horiz-adv-x="637" d="M161 254q0 -42 7.5 -77t25 -60.5t47 -39.5t74.5 -14q68 0 106 26t49 86q6 33 6 79v416q4 0 8 1q4 0 8 0.5t9 0.5q9 0 20 -2.5t20 -9t15.5 -19t6.5 -32.5v-343q0 -20 -0.5 -41t-2.5 -40q-4 -42 -19.5 -78.5t-45.5 -63.5t-74.5 -42.5t-107.5 -15.5q-108 0 -162.5 48 t-70.5 133q-4 21 -5 46t-1 51v407q4 0 8 1q4 0 7.5 0.5t8.5 0.5q9 0 20 -2.5t20.5 -9t16 -19t6.5 -32.5v-355zM270 741q-11 -7 -24 -13.5t-24 -6.5t-23.5 7.5t-19.5 18.5l128 97q20 14 34 14q15 0 28 -12.5t23 -26.5zM445 741q-11 -7 -24 -13.5t-24 -6.5t-23.5 7.5 t-19.5 18.5l128 97q18 14 34 14q15 0 28 -12.5t23 -26.5z" />
<glyph unicode="&#x171;" horiz-adv-x="536" d="M256 59q27 0 49.5 7.5t38.5 18.5t25 23.5t9 22.5v344h6q2 0 5.5 0.5t6.5 0.5q28 0 47.5 -14.5t19.5 -52.5v-409h-85v44q-20 -23 -56 -41t-93 -18q-58 0 -90 18t-47.5 46t-18.5 61.5t-3 64.5v300h6q2 0 5.5 0.5t6.5 0.5q28 0 47.5 -14t19.5 -52v-235q0 -39 5.5 -62 t22.5 -35q15 -11 32.5 -15t40.5 -4zM250 569q-12 -13 -25.5 -22t-28.5 -9q-11 0 -19.5 5t-16.5 11l84 110q11 15 22.5 24.5t29.5 9.5q14 0 28 -7t25 -16zM408 566q-11 -12 -23.5 -20t-29.5 -8q-11 0 -20 4.5t-17 10.5l84 111q11 15 22.5 24.5t30.5 9.5q14 0 27.5 -7 t24.5 -16z" />
<glyph unicode="&#x172;" horiz-adv-x="637" d="M376 -153q17 0 28.5 7.5t19.5 15.5q8 -8 14 -18.5t6 -21.5t-7 -18.5t-17.5 -13t-24 -8t-26.5 -2.5q-39 0 -64 20.5t-25 65.5q0 24 9 47t22 42q9 12 18 22h-16q-108 0 -162.5 48t-70.5 133q-4 21 -5 46t-1 51v407q4 0 8 1q4 0 7.5 0.5t8.5 0.5q9 0 20 -2.5t20.5 -9t16 -19 t6.5 -32.5v-355q0 -42 7.5 -77t25 -60.5t47 -39.5t74.5 -14q68 0 106 26t49 86q6 33 6 79v416q4 0 8 1q4 0 8 0.5t9 0.5q9 0 20 -2.5t20 -9t15.5 -19t6.5 -32.5v-343q0 -20 -0.5 -41t-2.5 -40q-4 -42 -19.5 -78.5t-45.5 -63.5t-73 -42v-1q-14 -11 -27.5 -25.5t-24.5 -30 t-18 -31.5t-7 -31q0 -35 31 -35z" />
<glyph unicode="&#x173;" horiz-adv-x="536" d="M417 -153q17 0 28.5 7.5t19.5 15.5q8 -8 14 -18.5t6 -21.5t-7 -18.5t-17.5 -13t-24 -8t-26.5 -2.5q-39 0 -64 20.5t-25 65.5q0 24 9 47t22.5 42t28.5 33q3 2 5 4h-8v44q-20 -23 -56 -41t-93 -18q-58 0 -90 18t-47.5 46t-18.5 61.5t-3 64.5v300h6q2 0 5.5 0.5t6.5 0.5 q28 0 47.5 -14t19.5 -52v-235q0 -39 5.5 -62t22.5 -35q15 -11 32.5 -15t40.5 -4q27 0 49.5 7.5t38.5 18.5t25 23.5t9 22.5v344h6q2 0 5.5 0.5t6.5 0.5q28 0 47.5 -14.5t19.5 -52.5v-409q-14 -11 -27.5 -25.5t-24.5 -30t-18 -31.5t-7 -31q0 -35 31 -35z" />
<glyph unicode="&#x174;" horiz-adv-x="878" d="M654 -5h-87l-124 405l-123 -405h-87l-222 671q7 2 19 4t25 2q27 0 42 -14.5t23 -40.5l161 -519l123 413l-43 156q10 2 20 3.5t21 1.5q47 0 63 -56l146 -514l153 513q8 27 22.5 42t40.5 15q20 0 40 -5zM426 790l-53 -48q-9 -9 -19 -15t-24 -6q-9 0 -19 4.5t-18 11.5l85 98 q24 29 50 29t48 -27l87 -103q-8 -5 -18 -9t-19 -4q-12 0 -22.5 5.5t-23.5 16.5z" />
<glyph unicode="&#x175;" horiz-adv-x="694" d="M536 -4h-85l-94 243l-103 -243h-76l-163 470q11 3 21.5 5t22.5 2q47 0 63 -52l103 -330l96 235l-51 141q19 6 40 6q45 0 62 -48l120 -335l82 317q7 27 21 46.5t43 19.5q20 0 41 -8zM336 621l-59 -66q-17 -20 -42 -20q-9 0 -18.5 3.5t-17.5 11.5l88 116q10 13 22 20.5 t28 7.5t26.5 -6.5t21.5 -20.5l92 -120q-8 -5 -17 -8.5t-20 -3.5q-24 0 -45 22z" />
<glyph unicode="&#x176;" horiz-adv-x="524" d="M306 277v-277h-88v275l-215 387q9 5 23 8t29 3q26 0 39 -10.5t24 -30.5l145 -275l145 267q11 19 26 33.5t41 14.5q11 0 22 -2t24 -6zM263 790l-53 -48q-9 -9 -19 -15t-24 -6q-9 0 -19 4.5t-18 11.5l85 98q24 29 50 29t48 -27l87 -103q-8 -5 -18 -9t-19 -4 q-12 0 -22.5 5.5t-23.5 16.5z" />
<glyph unicode="&#x177;" horiz-adv-x="466" d="M269 -65q-11 -32 -24 -61t-32 -50.5t-46.5 -34.5t-66.5 -13q-38 0 -63.5 11t-25.5 34q0 14 7.5 29t15.5 26q8 -7 24.5 -16.5t41.5 -9.5q35 0 56.5 26t38.5 80l14 45h-34l-162 464q21 8 44 8q26 0 42 -17t24 -40l110 -341l110 332q3 11 8 22.5t13.5 21.5t20.5 16t29 6 q20 0 37 -9zM236 621l-59 -66q-17 -20 -42 -20q-9 0 -18.5 3.5t-17.5 11.5l88 116q10 13 22 20.5t28 7.5t26.5 -6.5t21.5 -20.5l92 -120q-8 -5 -17 -8.5t-20 -3.5q-24 0 -45 22z" />
<glyph unicode="&#x178;" horiz-adv-x="524" d="M306 277v-277h-88v275l-215 387q9 5 23 8t29 3q26 0 39 -10.5t24 -30.5l145 -275l145 267q11 19 26 33.5t41 14.5q11 0 22 -2t24 -6zM224 784q0 -23 -14 -38t-37 -15t-37 15t-14 38t14.5 38.5t36.5 15.5t36.5 -15.5t14.5 -38.5zM403 784q0 -23 -14 -38t-37 -15t-37 15 t-14 38t14.5 38.5t36.5 15.5t36.5 -15.5t14.5 -38.5z" />
<glyph unicode="&#x179;" horiz-adv-x="521" d="M460 669q17 0 26.5 -7.5t9.5 -26.5v-28l-376 -532h320q32 0 46.5 -15.5t14.5 -37.5q0 -13 -3 -22h-483v64l370 530h-341q-1 5 -2 9t-1 9v10q0 19 15 33t46 14h358zM295 741q-14 -8 -25.5 -13t-22.5 -5q-12 0 -26.5 8.5t-21.5 17.5l103 83q16 13 28.5 19.5t26.5 6.5 q17 0 33.5 -12t25.5 -27z" />
<glyph unicode="&#x17a;" horiz-adv-x="428" d="M30 0v62l259 337h-255q0 37 15.5 55.5t50.5 18.5h254q42 0 42 -35v-24l-264 -340h207q34 0 50 -16.5t16 -57.5h-375zM259 566q-11 -13 -23.5 -20.5t-27.5 -7.5q-11 0 -22.5 5t-19.5 11l84 110q11 15 22.5 25t30.5 10q14 0 30 -7.5t27 -16.5z" />
<glyph unicode="&#x17b;" horiz-adv-x="521" d="M460 669q17 0 26.5 -7.5t9.5 -26.5v-28l-376 -532h320q32 0 46.5 -15.5t14.5 -37.5q0 -13 -3 -22h-483v64l370 530h-341q-1 5 -2 9t-1 9v10q0 19 15 33t46 14h358zM334 788q0 -24 -16 -41.5t-39 -17.5t-38.5 17.5t-15.5 41.5q0 26 15.5 43.5t38.5 17.5t39 -17.5t16 -43.5 z" />
<glyph unicode="&#x17c;" horiz-adv-x="428" d="M30 0v62l259 337h-255q0 37 15.5 55.5t50.5 18.5h254q42 0 42 -35v-24l-264 -340h207q34 0 50 -16.5t16 -57.5h-375zM284 602q0 -25 -16 -42t-39 -17t-38.5 17t-15.5 42q0 26 15.5 43.5t38.5 17.5t39 -17.5t16 -43.5z" />
<glyph unicode="&#x17d;" horiz-adv-x="521" d="M460 669q17 0 26.5 -7.5t9.5 -26.5v-28l-376 -532h320q32 0 46.5 -15.5t14.5 -37.5q0 -13 -3 -22h-483v64l370 530h-341q-1 5 -2 9t-1 9v10q0 19 15 33t46 14h358zM333 842q13 11 23.5 16.5t22.5 5.5q9 0 19 -4t18 -9l-87 -103q-22 -27 -48 -27t-50 29l-85 98 q8 7 18 11.5t19 4.5q14 0 24 -6t19 -15l53 -48z" />
<glyph unicode="&#x17e;" horiz-adv-x="428" d="M30 0v62l259 337h-255q0 37 15.5 55.5t50.5 18.5h254q42 0 42 -35v-24l-264 -340h207q34 0 50 -16.5t16 -57.5h-375zM290 665q21 22 45 22q11 0 20 -3.5t17 -8.5l-92 -120q-11 -14 -21.5 -20.5t-26.5 -6.5t-28 7.5t-22 20.5l-88 116q8 8 17.5 11.5t18.5 3.5q25 0 42 -20 l59 -66z" />
<glyph unicode="&#x17f;" horiz-adv-x="297" d="M350 598q-17 21 -41.5 33.5t-55.5 12.5q-45 0 -70 -24.5t-25 -84.5v-535h-85v522q0 97 45 146t130 49q31 0 57 -7t44.5 -17t28.5 -21.5t10 -21.5q0 -14 -8 -27.5t-17 -24.5h-13z" />
<glyph unicode="&#x192;" horiz-adv-x="549" d="M300 371l-67 -308q-19 -85 -69.5 -130.5t-129.5 -45.5q-18 0 -30.5 6.5t-12.5 26.5q0 8 1.5 18t6.5 22q63 0 102 27t53 95l60 286h-100v71h117l19 77q12 46 33 78t48 51.5t57 28t60 8.5q18 0 31 -5t13 -25q0 -8 -1.5 -20t-6.5 -23q-37 -1 -63 -7t-44.5 -20t-30.5 -37.5 t-20 -59.5l-10 -46h158v-71z" />
<glyph unicode="&#x218;" horiz-adv-x="496" d="M57 126q32 -26 76.5 -45.5t95.5 -19.5q39 0 65 10t41.5 26t22.5 36.5t7 42.5q0 28 -8.5 49t-25 36.5t-41.5 26.5t-57 21q-37 11 -71 25t-60.5 35t-42.5 52t-16 77q0 45 16.5 79.5t45 57.5t67.5 35t85 12q37 0 79.5 -9.5t72.5 -27.5q16 -10 27 -21.5t11 -26.5 q0 -12 -9.5 -26t-23.5 -28q-8 7 -22 18t-34 20.5t-45.5 16.5t-55.5 7q-35 0 -58.5 -8.5t-38 -22t-21 -32t-6.5 -37.5q0 -25 10 -43t29 -31.5t46 -24.5t62 -22t66.5 -26.5t55.5 -38.5t38.5 -54.5t14.5 -75.5q0 -50 -16.5 -88t-46.5 -64t-71.5 -39t-91.5 -13q-55 0 -102.5 12 t-74.5 32q-25 17 -25 37q0 11 9 28t21 32zM211 -194q-7 -12 -18.5 -20t-28.5 -8q-6 0 -15.5 2t-14.5 5l46 111q8 20 20 33t36 13q11 0 23 -3t20 -7z" />
<glyph unicode="&#x219;" horiz-adv-x="419" d="M330 454q20 -11 27 -20.5t7 -18.5q0 -11 -5.5 -25.5t-13.5 -28.5l-14 -1q-17 21 -49.5 36.5t-69.5 15.5q-13 0 -28.5 -2.5t-29 -9t-22.5 -18.5t-9 -30q0 -32 28.5 -46t70.5 -24q30 -7 58 -17.5t49.5 -27t34 -41.5t12.5 -62t-15 -64.5t-40 -46t-58.5 -28t-69.5 -9.5 q-35 0 -63 5.5t-47 13.5q-25 10 -35 20.5t-10 21.5q0 13 7 27t18 32q7 -6 19.5 -15t30 -17t38.5 -13.5t45 -5.5q18 0 35 3.5t30.5 11.5t22 22t8.5 35t-9 34.5t-24 22.5t-33.5 14.5t-37.5 9.5q-29 6 -55.5 15.5t-47 25.5t-33 40t-12.5 58q0 33 14 58.5t38 42t54.5 25 t63.5 8.5q38 0 69.5 -8t50.5 -19zM173 -194q-7 -12 -18.5 -20t-28.5 -8q-6 0 -15.5 2t-14.5 5l46 111q8 20 20 33t36 13q11 0 23 -3t20 -7z" />
<glyph unicode="&#x21a;" horiz-adv-x="540" d="M223 593h-212q-1 5 -2 9t-1 9v10q0 19 15 33.5t46 14.5h459q0 -5 1 -9q0 -4 0.5 -7.5t0.5 -6.5q0 -22 -15 -37.5t-46 -15.5h-158v-593h-88v593zM233 -194q-7 -12 -18.5 -20t-28.5 -8q-6 0 -15.5 2t-14.5 5l46 111q8 20 20 33t36 13q11 0 23 -3t20 -7z" />
<glyph unicode="&#x21b;" horiz-adv-x="356" d="M82 60q-7 19 -8.5 41.5t-1.5 44.5v468h6q2 0 5.5 0.5t6.5 0.5q27 0 47 -14t20 -51v-80h149v-72h-149v-258q0 -82 65 -82q16 0 30 5.5t25 13t18.5 14.5t9.5 10q12 -15 20.5 -29t8.5 -27q0 -9 -9 -19.5t-25 -19.5t-39.5 -15t-51.5 -6q-52 0 -83 20t-44 55zM174 -194 q-7 -12 -18.5 -20t-28.5 -8q-6 0 -15.5 2t-14.5 5l46 111q8 20 20 33t36 13q11 0 23 -3t20 -7z" />
<glyph unicode="&#x237;" horiz-adv-x="237" d="M82 475h7q2 0 4.5 0.5t4.5 0.5q29 0 48 -14.5t19 -53.5v-455q0 -60 -15.5 -95t-37 -53.5t-45 -23.5t-39.5 -5q-17 0 -27 6t-14.5 15.5t-6 22t-1.5 25.5q60 2 80.5 27.5t20.5 79.5z" />
<glyph unicode="&#x2bc;" horiz-adv-x="210" d="M149 634q0 -40 -19.5 -75t-45.5 -52q-13 -8 -28 -8q-25 0 -36 27q18 8 37 26t24 39q-10 7 -23.5 20.5t-13.5 33.5t13.5 35.5t37.5 15.5q27 0 40.5 -18t13.5 -44z" />
<glyph unicode="&#x2c6;" horiz-adv-x="377" d="M188 621l-59 -66q-17 -20 -42 -20q-9 0 -18.5 3.5t-17.5 11.5l88 116q10 13 22 20.5t28 7.5t26.5 -6.5t21.5 -20.5l92 -120q-8 -5 -17 -8.5t-20 -3.5q-24 0 -45 22z" />
<glyph unicode="&#x2c7;" horiz-adv-x="377" d="M247 665q21 22 45 22q11 0 20 -3.5t17 -8.5l-92 -120q-11 -14 -21.5 -20.5t-26.5 -6.5t-28 7.5t-22 20.5l-88 116q8 8 17.5 11.5t18.5 3.5q25 0 42 -20l59 -66z" />
<glyph unicode="&#x2c9;" horiz-adv-x="369" d="M77 572q-24 0 -35 9t-11 32q0 12 4 27h247q23 0 37.5 -8t14.5 -35q0 -8 -0.5 -14t-1.5 -11h-255z" />
<glyph unicode="&#x2d8;" horiz-adv-x="373" d="M340 673q-14 -63 -51.5 -101.5t-102.5 -38.5q-67 0 -104 36t-52 105q6 4 18 7t20 3q12 0 20.5 -6.5t14.5 -23.5q13 -35 32 -48.5t51 -13.5q33 0 50.5 13t31.5 48q13 31 37 31q8 0 18 -3t17 -8z" />
<glyph unicode="&#x2d9;" horiz-adv-x="359" d="M234 602q0 -25 -16 -42t-39 -17t-38.5 17t-15.5 42q0 26 15.5 43.5t38.5 17.5t39 -17.5t16 -43.5z" />
<glyph unicode="&#x2da;" horiz-adv-x="361" d="M286 642q0 -22 -7.5 -42t-21 -35t-33.5 -23.5t-44 -8.5t-44 8.5t-33.5 23.5t-21 34.5t-7.5 41.5q0 46 28.5 78t77.5 32t77.5 -30t28.5 -79zM234 641q0 23 -11.5 42.5t-43.5 19.5q-27 0 -39.5 -19t-12.5 -42q0 -24 13.5 -42t39.5 -18t40 17.5t14 41.5z" />
<glyph unicode="&#x2db;" horiz-adv-x="365" d="M196 -153q17 0 28.5 7.5t19.5 15.5q8 -8 14 -18.5t6 -21.5t-7 -18.5t-17.5 -13t-24 -8t-26.5 -2.5q-39 0 -64 20.5t-25 65.5q0 24 9 47t22.5 42t29 33t27.5 22l54 -5v-13q-14 -11 -27.5 -25.5t-24.5 -30t-18 -31.5t-7 -31q0 -35 31 -35z" />
<glyph unicode="&#x2dc;" horiz-adv-x="383" d="M315 662q11 -7 23 -18.5t12 -23.5q0 -13 -12 -28q-13 -16 -33.5 -27.5t-47.5 -11.5q-20 0 -37 5.5t-33 12.5q-14 6 -27.5 10.5t-28.5 4.5q-20 0 -37.5 -12t-33.5 -31q-9 7 -18.5 18t-9.5 22q0 10 7 19.5t18 17.5q17 14 37 21.5t39 7.5q18 0 32.5 -5t27.5 -11 q14 -7 28 -12t31 -5q20 0 34.5 12t28.5 34z" />
<glyph unicode="&#x2dd;" horiz-adv-x="390" d="M128 569q-12 -13 -25.5 -22t-28.5 -9q-11 0 -19.5 5t-16.5 11l84 110q11 15 22.5 24.5t29.5 9.5q14 0 28 -7t25 -16zM286 566q-11 -12 -23.5 -20t-29.5 -8q-11 0 -20 4.5t-17 10.5l84 111q11 15 22.5 24.5t30.5 9.5q14 0 27.5 -7t24.5 -16z" />
<glyph unicode="&#x3a9;" horiz-adv-x="706" d="M639 358q0 -51 -11 -93.5t-29 -77.5t-40.5 -62.5t-46.5 -48.5h133v-76h-234v72q28 20 53.5 47.5t45 62.5t30.5 77t11 92q0 111 -49.5 176t-146.5 65q-49 0 -86.5 -17.5t-63 -49t-38.5 -76.5t-13 -100q0 -49 11.5 -91t31 -76.5t45 -61.5t54.5 -48v-72h-235v76h131 q-24 21 -46.5 47.5t-40.5 60.5t-28.5 75.5t-10.5 92.5q0 69 19.5 127t57 100.5t91.5 66t122 23.5q69 0 122 -22.5t88.5 -64t54 -98.5t18.5 -126z" />
<glyph unicode="&#x3c0;" horiz-adv-x="660" d="M514 120q0 -32 9 -46.5t32 -14.5q19 0 43 10l11 -69q-15 -6 -35.5 -9t-37.5 -3q-47 0 -74.5 24t-30.5 77q-1 17 -1 32v32v241h-185v-394h-84v394h-14q-29 0 -44.5 -10t-30.5 -26l-45 51q29 37 65 49t87 12h434v-76h-99v-274z" />
<glyph unicode="&#x1e80;" horiz-adv-x="878" d="M654 -5h-87l-124 405l-123 -405h-87l-222 671q7 2 19 4t25 2q27 0 42 -14.5t23 -40.5l161 -519l123 413l-43 156q10 2 20 3.5t21 1.5q47 0 63 -56l146 -514l153 513q8 27 22.5 42t40.5 15q20 0 40 -5zM268 819q9 15 25.5 27t33.5 12q14 0 26.5 -6.5t28.5 -19.5l103 -83 q-7 -9 -20.5 -17.5t-27.5 -8.5q-11 0 -22.5 5t-25.5 13z" />
<glyph unicode="&#x1e81;" horiz-adv-x="694" d="M536 -4h-85l-94 243l-103 -243h-76l-163 470q11 3 21.5 5t22.5 2q47 0 63 -52l103 -330l96 235l-51 141q19 6 40 6q45 0 62 -48l120 -335l82 317q7 27 21 46.5t43 19.5q20 0 41 -8zM197 675q11 9 27 16.5t30 7.5q19 0 30.5 -10t22.5 -25l84 -110q-8 -6 -19.5 -11 t-22.5 -5q-15 0 -27.5 7.5t-23.5 20.5z" />
<glyph unicode="&#x1e82;" horiz-adv-x="878" d="M654 -5h-87l-124 405l-123 -405h-87l-222 671q7 2 19 4t25 2q27 0 42 -14.5t23 -40.5l161 -519l123 413l-43 156q10 2 20 3.5t21 1.5q47 0 63 -56l146 -514l153 513q8 27 22.5 42t40.5 15q20 0 40 -5zM430 741q-14 -8 -25.5 -13t-22.5 -5q-12 0 -26.5 8.5t-21.5 17.5 l103 83q16 13 28.5 19.5t26.5 6.5q17 0 33.5 -12t25.5 -27z" />
<glyph unicode="&#x1e83;" horiz-adv-x="694" d="M536 -4h-85l-94 243l-103 -243h-76l-163 470q11 3 21.5 5t22.5 2q47 0 63 -52l103 -330l96 235l-51 141q19 6 40 6q45 0 62 -48l120 -335l82 317q7 27 21 46.5t43 19.5q20 0 41 -8zM334 566q-11 -13 -23.5 -20.5t-27.5 -7.5q-11 0 -22.5 5t-19.5 11l84 110q11 15 22.5 25 t30.5 10q14 0 30 -7.5t27 -16.5z" />
<glyph unicode="&#x1e84;" horiz-adv-x="878" d="M654 -5h-87l-124 405l-123 -405h-87l-222 671q7 2 19 4t25 2q27 0 42 -14.5t23 -40.5l161 -519l123 413l-43 156q10 2 20 3.5t21 1.5q47 0 63 -56l146 -514l153 513q8 27 22.5 42t40.5 15q20 0 40 -5zM398 784q0 -23 -14 -38t-37 -15t-37 15t-14 38t14.5 38.5t36.5 15.5 t36.5 -15.5t14.5 -38.5zM577 784q0 -23 -14 -38t-37 -15t-37 15t-14 38t14.5 38.5t36.5 15.5t36.5 -15.5t14.5 -38.5z" />
<glyph unicode="&#x1e85;" horiz-adv-x="694" d="M536 -4h-85l-94 243l-103 -243h-76l-163 470q11 3 21.5 5t22.5 2q47 0 63 -52l103 -330l96 235l-51 141q19 6 40 6q45 0 62 -48l120 -335l82 317q7 27 21 46.5t43 19.5q20 0 41 -8zM306 608q0 -23 -14 -38t-37 -15t-37 15t-14 38t14.5 38.5t36.5 15.5t36.5 -15.5 t14.5 -38.5zM485 608q0 -23 -14 -38t-37 -15t-37 15t-14 38t14.5 38.5t36.5 15.5t36.5 -15.5t14.5 -38.5z" />
<glyph unicode="&#x1ef2;" horiz-adv-x="524" d="M306 277v-277h-88v275l-215 387q9 5 23 8t29 3q26 0 39 -10.5t24 -30.5l145 -275l145 267q11 19 26 33.5t41 14.5q11 0 22 -2t24 -6zM117 819q9 15 25.5 27t33.5 12q14 0 26.5 -6.5t28.5 -19.5l103 -83q-7 -9 -20.5 -17.5t-27.5 -8.5q-11 0 -22.5 5t-25.5 13z" />
<glyph unicode="&#x1ef3;" horiz-adv-x="466" d="M269 -65q-11 -32 -24 -61t-32 -50.5t-46.5 -34.5t-66.5 -13q-38 0 -63.5 11t-25.5 34q0 14 7.5 29t15.5 26q8 -7 24.5 -16.5t41.5 -9.5q35 0 56.5 26t38.5 80l14 45h-34l-162 464q21 8 44 8q26 0 42 -17t24 -40l110 -341l110 332q3 11 8 22.5t13.5 21.5t20.5 16t29 6 q20 0 37 -9zM104 675q11 9 27 16.5t30 7.5q19 0 30.5 -10t22.5 -25l84 -110q-8 -6 -19.5 -11t-22.5 -5q-15 0 -27.5 7.5t-23.5 20.5z" />
<glyph unicode="&#x2013;" horiz-adv-x="500" d="M52 235q-20 0 -35.5 9.5t-15.5 38.5v10.5t1 9.5q0 4 1 8h441q9 0 18.5 -0.5t17.5 -5t13.5 -14t5.5 -27.5q0 -5 -0.5 -10.5t-0.5 -9.5q-1 -5 -1 -9h-445z" />
<glyph unicode="&#x2014;" horiz-adv-x="1000" d="M55 235q-21 0 -36 9.5t-15 38.5q0 11 0.5 19.5t1.5 8.5h935q9 0 18.5 -0.5t17.5 -5t13.5 -14t5.5 -27.5q0 -11 -0.5 -17.5t-1.5 -11.5h-939z" />
<glyph unicode="&#x2018;" horiz-adv-x="241" d="M55 545q0 45 20 85t49 57q17 10 32 10q24 0 35 -31q-19 -8 -39 -28.5t-25 -44.5q11 -8 25 -23t14 -38t-14 -40t-40 -17q-29 0 -43 20.5t-14 49.5z" />
<glyph unicode="&#x2019;" horiz-adv-x="241" d="M186 626q0 -23 -5.5 -45t-14.5 -41t-21.5 -34t-27.5 -23q-8 -4 -16 -6.5t-16 -2.5q-24 0 -35 30q19 8 39 29t25 44q-11 8 -25 23.5t-14 38.5t14 40t40 17q29 0 43 -20.5t14 -49.5z" />
<glyph unicode="&#x201a;" horiz-adv-x="226" d="M171 36q0 -46 -20 -86t-49 -57q-17 -10 -32 -10q-24 0 -35 31q19 8 39 29t25 44q-12 8 -25.5 23t-13.5 38t14 40.5t40 17.5q29 0 43 -20.5t14 -49.5z" />
<glyph unicode="&#x201c;" horiz-adv-x="415" d="M229 545q0 45 20 85t49 57q17 10 32 10q24 0 35 -31q-19 -8 -39 -28.5t-25 -44.5q11 -8 25 -23t14 -38t-14 -40t-40 -17q-29 0 -43 20.5t-14 49.5zM55 545q0 45 20 85t49 57q17 10 32 10q24 0 35 -31q-19 -8 -39 -28.5t-25 -44.5q11 -8 25 -23t14 -38t-14 -40t-40 -17 q-29 0 -43 20.5t-14 49.5z" />
<glyph unicode="&#x201d;" horiz-adv-x="415" d="M360 626q0 -23 -5.5 -45t-14.5 -41t-21.5 -34t-27.5 -23q-8 -4 -16 -6.5t-16 -2.5q-24 0 -35 30q19 8 39 29t25 44q-11 8 -25 23.5t-14 38.5t14 40t40 17q29 0 43 -20.5t14 -49.5zM186 626q0 -23 -5.5 -45t-14.5 -41t-21.5 -34t-27.5 -23q-8 -4 -16 -6.5t-16 -2.5 q-24 0 -35 30q19 8 39 29t25 44q-11 8 -25 23.5t-14 38.5t14 40t40 17q29 0 43 -20.5t14 -49.5z" />
<glyph unicode="&#x201e;" horiz-adv-x="400" d="M345 36q0 -46 -20 -86t-49 -57q-17 -10 -32 -10q-24 0 -35 31q19 8 39 29t25 44q-12 8 -25.5 23t-13.5 38t14 40.5t40 17.5q29 0 43 -20.5t14 -49.5zM171 36q0 -46 -20 -86t-49 -57q-17 -10 -32 -10q-24 0 -35 31q19 8 39 29t25 44q-12 8 -25.5 23t-13.5 38t14 40.5 t40 17.5q29 0 43 -20.5t14 -49.5z" />
<glyph unicode="&#x2020;" horiz-adv-x="449" d="M259 -118h-80v518h-90q-19 0 -30 5t-17 12.5t-8 16t-2 14.5v7t1 10q1 6 2 13h144v192q3 0 7 1q3 0 6.5 0.5t7.5 0.5q8 0 18.5 -2t19.5 -8.5t15 -18.5t6 -31v-134h98q35 0 47.5 -15t12.5 -35q0 -2 -0.5 -6.5t-1.5 -9.5t-1 -12h-155v-518z" />
<glyph unicode="&#x2021;" horiz-adv-x="449" d="M257 -117h-78v204h-90q-19 0 -30 6t-17 14.5t-8 17.5t-2 16q0 5 0.5 11.5t1.5 12.5h145v237h-90q-19 0 -30 6t-17 14.5t-8 18t-2 16.5q0 6 0.5 12t1.5 12h145v189q3 0 7 1q3 0 6.5 0.5t7.5 0.5q8 0 18 -2t18.5 -8.5t14.5 -18.5t6 -31v-131h99q36 0 48.5 -14.5t12.5 -32.5 q0 -11 -1 -19t-2 -13h-157v-237h99q21 0 33.5 -6t18.5 -14t7.5 -17t1.5 -16q0 -6 -1 -13.5t-2 -11.5h-157v-204z" />
<glyph unicode="&#x2022;" horiz-adv-x="383" d="M320 350q0 -27 -9.5 -50.5t-27 -41t-41 -28t-51.5 -10.5q-29 0 -52.5 10.5t-40.5 28t-26 41t-9 50.5t9 51t26 41.5t40.5 28t52.5 10.5t52.5 -10.5t40.5 -28t26.5 -41.5t9.5 -51z" />
<glyph unicode="&#x2026;" horiz-adv-x="595" d="M357 47q0 -26 -16 -44t-42 -18q-25 0 -41 18t-16 44t16.5 44t40.5 18q25 0 41.5 -18t16.5 -44zM550 47q0 -26 -16 -44t-42 -18q-25 0 -41 18t-16 44t16.5 44t40.5 18q25 0 41.5 -18t16.5 -44zM161 47q0 -26 -16 -44t-42 -18q-25 0 -41 18t-16 44t16.5 44t40.5 18 q25 0 41.5 -18t16.5 -44z" />
<glyph unicode="&#x2030;" horiz-adv-x="1182" d="M1125 162q0 -87 -41.5 -132t-108.5 -45q-72 0 -112 45t-40 132q0 43 11.5 76t31.5 55t47.5 33.5t60.5 11.5q70 0 110.5 -44.5t40.5 -131.5zM1052 163q0 51 -17 81.5t-61 30.5q-43 0 -60 -31t-17 -82t17.5 -82.5t59.5 -31.5q44 0 61 31.5t17 83.5zM351 506 q0 -86 -42 -131.5t-109 -45.5q-72 0 -112 45.5t-40 131.5q0 87 42.5 131.5t108.5 44.5q75 0 113.5 -44.5t38.5 -131.5zM770 162q0 -87 -41.5 -132t-108.5 -45q-72 0 -112 45t-40 132q0 43 11.5 76t31.5 55t47.5 33.5t60.5 11.5q70 0 110.5 -44.5t40.5 -131.5zM697 163 q0 51 -17 81.5t-61 30.5q-43 0 -60 -31t-17 -82t17.5 -82.5t59.5 -31.5q44 0 61 31.5t17 83.5zM277 507q0 51 -17 81.5t-61 30.5q-42 0 -59 -31t-17 -82t17 -82t59 -31q44 0 61 31t17 83zM226 0h-86l430 644q9 14 24 26.5t40 12.5q10 0 18.5 -1t13.5 -3q6 -2 11 -3z" />
<glyph unicode="&#x2039;" horiz-adv-x="295" d="M143 275l79 -93q10 -12 13.5 -23t3.5 -22t-5 -24t-12 -22l-135 123q-14 13 -23 28t-9 33q0 17 10.5 32.5t24.5 28.5l129 121q9 -10 15 -23t6 -24q0 -24 -15 -42z" />
<glyph unicode="&#x203a;" horiz-adv-x="295" d="M70 368q-15 18 -15 42q0 11 6 24t15 23l129 -121q14 -13 24.5 -28.5t10.5 -32.5q0 -18 -9 -33t-23 -28l-135 -123q-7 9 -12 22t-5 24t3.5 22t13.5 23l79 93z" />
<glyph unicode="&#x2044;" horiz-adv-x="117" d="M-91 0h-82l357 643q10 18 24.5 28.5t39.5 10.5q17 0 27 -4q4 -2 7 -3z" />
<glyph unicode="&#x2070;" d="M316 486q0 -92 -41 -140t-110 -48q-72 0 -110.5 49t-38.5 139q0 97 41.5 146.5t107.5 49.5q71 0 111 -48t40 -148zM243 487q0 29 -4 53.5t-13 42t-24 27.5t-37 10q-21 0 -35.5 -10.5t-23 -28.5t-12.5 -42.5t-4 -52.5q0 -26 4 -49t12.5 -40t22.5 -27t35 -10q44 0 61.5 36 t17.5 91z" />
<glyph unicode="&#x2074;" d="M34 377v49l149 225q8 12 19 22.5t26 10.5q8 0 17 -2.5t16 -7.5v-240h14q33 0 33 -33q0 -4 -2 -14l-2 -10h-43v-71h-68v71h-159zM193 434v148l-97 -148h97z" />
<glyph unicode="&#x2075;" d="M57 496l16 183h204v-7q0 -3 0.5 -6.5t0.5 -5.5q0 -23 -11 -31.5t-34 -8.5h-109l-6 -72q7 2 20 4t27 2q24 0 46.5 -6.5t40 -21t28 -37.5t10.5 -56q0 -57 -33 -95.5t-102 -38.5q-32 0 -56.5 7.5t-38.5 15.5q-16 10 -19.5 17t-3.5 16q0 10 7 22.5t17 25.5q12 -13 36 -28.5 t57 -15.5q12 0 24 3t21.5 11t15.5 21.5t6 34.5q0 22 -7 35.5t-17.5 21.5t-24 11t-26.5 3q-20 0 -36.5 -4.5t-31.5 -9.5z" />
<glyph unicode="&#x2076;" d="M295 435q0 -66 -36 -101.5t-92 -35.5q-65 0 -99.5 44t-34.5 118q0 51 14.5 89.5t38 65.5t53 43t58.5 22q8 2 16.5 2.5t13.5 0.5q20 0 26.5 -9t6.5 -22q0 -6 -1.5 -15t-2.5 -11h-22q-27 0 -47.5 -7.5t-36 -20t-26 -28t-15.5 -31.5q14 11 33 17.5t41 6.5q29 0 50 -10.5 t35 -28t20.5 -40.5t6.5 -49zM230 432q0 36 -14.5 56.5t-46.5 20.5q-20 0 -39.5 -6.5t-28.5 -12.5q-1 -4 -1.5 -16t-0.5 -21q0 -17 3.5 -34.5t11.5 -31.5t21.5 -23t34.5 -9q27 0 43.5 19.5t16.5 57.5z" />
<glyph unicode="&#x2077;" d="M135 305h-73l147 308h-174q-1 6 -1 10q-1 4 -1 8v8q0 17 11.5 27.5t31.5 10.5h188q14 0 21.5 -5t7.5 -21v-17z" />
<glyph unicode="&#x2078;" d="M300 414q0 -29 -10.5 -50.5t-29 -36t-43.5 -22t-53 -7.5q-60 0 -98 27t-38 85q0 32 17 56.5t42 38.5q-22 13 -33 33t-11 43q0 26 10 45t26.5 32t38.5 19t46 6t46.5 -5.5t40 -17.5t27.5 -31t10 -45t-12 -45.5t-32 -32.5q25 -14 40.5 -37t15.5 -55zM235 414q0 29 -18.5 45 t-52.5 16q-33 0 -52 -16.5t-19 -45.5t19.5 -45.5t51.5 -16.5t51.5 17t19.5 46zM224 580q0 26 -17 39t-43 13q-25 0 -42 -13.5t-17 -37.5q0 -23 17 -37t42 -14q26 0 43 14.5t17 35.5z" />
<glyph unicode="&#x2079;" d="M34 544q0 65 36.5 102t91.5 37q65 0 98.5 -43.5t33.5 -115.5q0 -60 -16.5 -102.5t-42.5 -70t-60 -40.5t-68 -13q-21 0 -30 6.5t-9 22.5v10t1 9q0 4 1 9q6 -1 11.5 -1h11.5q48 0 80 25.5t43 57.5q-12 -9 -30 -14.5t-38 -5.5q-28 0 -49.5 10t-35.5 27.5t-21.5 40.5t-7.5 49 zM99 548q0 -38 16 -58t49 -20q30 0 44 7.5t17 12.5q2 5 2.5 18.5t0.5 22.5q0 17 -3.5 34t-11 30.5t-20.5 22t-32 8.5q-30 0 -46 -21t-16 -57z" />
<glyph unicode="&#x2080;" d="M316 181q0 -92 -41 -140t-110 -48q-72 0 -110.5 49t-38.5 139q0 97 41.5 146.5t107.5 49.5q71 0 111 -48t40 -148zM243 182q0 29 -4 53.5t-13 42t-24 27.5t-37 10q-21 0 -35.5 -10.5t-23 -28.5t-12.5 -42.5t-4 -52.5q0 -26 4 -49t12.5 -40t22.5 -27t35 -10q44 0 61.5 36 t17.5 91z" />
<glyph unicode="&#x2081;" d="M163 1v290l-92 -47q-7 9 -14.5 23t-7.5 22q0 15 20 26l88 49q11 6 21 10.5t20 4.5q21 0 35 -10v-368h-70z" />
<glyph unicode="&#x2082;" d="M51 1v53q24 20 53 49t52 56q24 28 39.5 53.5t15.5 53.5q0 26 -15.5 39t-43.5 13q-27 0 -46.5 -13t-30.5 -26h-11q-11 11 -17 20t-6 19q0 8 3.5 13t9.5 10q5 4 15 10.5t24 12.5t31 10t36 4q53 0 86.5 -26t33.5 -84q0 -40 -21.5 -75.5t-49.5 -67.5q-15 -17 -29.5 -32 t-29.5 -29h102q8 0 16 -1t14 -5t10 -12t4 -22q0 -4 -0.5 -7.5t-0.5 -7.5v-8h-244z" />
<glyph unicode="&#x2083;" d="M292 110q0 -51 -33.5 -84t-100.5 -33q-29 0 -54 7.5t-39 17.5q-15 11 -20 18.5t-5 16.5q0 12 9.5 25t16.5 21q14 -16 37 -30.5t52 -14.5q12 0 23.5 2.5t21.5 8.5t16 17.5t6 29.5q0 19 -8.5 30.5t-19.5 16.5t-23 6.5t-18 1.5h-32v58h33q7 0 17 1.5t19.5 7t16 15t6.5 25.5 q0 45 -55 45q-29 0 -48.5 -11.5t-32.5 -24.5h-13q-8 10 -14 19t-6 17t7.5 16.5t19.5 16.5q15 11 38 18.5t55 7.5q62 0 90.5 -27t28.5 -70q0 -35 -15 -55t-31 -29q9 -5 18.5 -11.5t17.5 -17t13.5 -25t5.5 -33.5z" />
<glyph unicode="&#x2084;" horiz-adv-x="331" d="M34 72v49l149 225q8 12 19 22.5t26 10.5q8 0 17 -2.5t16 -7.5v-240h14q33 0 33 -33q0 -4 -2 -14l-2 -10h-43v-71h-68v71h-159zM193 129v148l-97 -148h97z" />
<glyph unicode="&#x2085;" d="M64 191l16 183h204v-7q0 -3 0.5 -6.5t0.5 -5.5q0 -23 -11 -31.5t-34 -8.5h-109l-6 -72q7 2 20 4t27 2q24 0 46.5 -6.5t40 -21t28 -37.5t10.5 -56q0 -57 -33 -95.5t-102 -38.5q-32 0 -56.5 7.5t-38.5 15.5q-16 10 -19.5 17t-3.5 16q0 10 7 22.5t17 25.5q12 -13 36 -28.5 t57 -15.5q12 0 24 3t21.5 11t15.5 21.5t6 34.5q0 22 -7 35.5t-17.5 21.5t-24 11t-26.5 3q-20 0 -36.5 -4.5t-31.5 -9.5z" />
<glyph unicode="&#x2086;" d="M305 130q0 -66 -36 -101.5t-92 -35.5q-65 0 -99.5 44t-34.5 118q0 51 14.5 89.5t38 65.5t53 43t58.5 22q8 2 16.5 2.5t13.5 0.5q20 0 26.5 -9t6.5 -22q0 -6 -1.5 -15t-2.5 -11h-22q-27 0 -47.5 -7.5t-36 -20t-26 -28t-15.5 -31.5q14 11 33 17.5t41 6.5q29 0 50 -10.5 t35 -28t20.5 -40.5t6.5 -49zM240 127q0 36 -14.5 56.5t-46.5 20.5q-20 0 -39.5 -6.5t-28.5 -12.5q-1 -4 -1.5 -16t-0.5 -21q0 -17 3.5 -34.5t11.5 -31.5t21.5 -23t34.5 -9q27 0 43.5 19.5t16.5 57.5z" />
<glyph unicode="&#x2087;" d="M135 1h-73l147 308h-174q-1 6 -1 10q-1 4 -1 8v8q0 17 11.5 27.5t31.5 10.5h188q14 0 21.5 -5t7.5 -21v-17z" />
<glyph unicode="&#x2088;" d="M299 109q0 -29 -10.5 -50.5t-29 -36t-43.5 -22t-53 -7.5q-60 0 -98 27t-38 85q0 32 17 56.5t42 38.5q-22 13 -33 33t-11 43q0 26 10 45t26.5 32t38.5 19t46 6t46.5 -5.5t40 -17.5t27.5 -31t10 -45t-12 -45.5t-32 -32.5q25 -14 40.5 -37t15.5 -55zM234 109q0 29 -18.5 45 t-52.5 16q-33 0 -52 -16.5t-19 -45.5t19.5 -45.5t51.5 -16.5t51.5 17t19.5 46zM223 275q0 26 -17 39t-43 13q-25 0 -42 -13.5t-17 -37.5q0 -23 17 -37t42 -14q26 0 43 14.5t17 35.5z" />
<glyph unicode="&#x2089;" d="M35 239q0 65 36.5 102t91.5 37q65 0 98.5 -43.5t33.5 -115.5q0 -60 -16.5 -102.5t-42.5 -70t-60 -40.5t-68 -13q-21 0 -30 6.5t-9 22.5v10t1 9q0 4 1 9q6 -1 11.5 -1h11.5q48 0 80 25.5t43 57.5q-12 -9 -30 -14.5t-38 -5.5q-28 0 -49.5 10t-35.5 27.5t-21.5 40.5t-7.5 49 zM100 243q0 -38 16 -58t49 -20q30 0 44 7.5t17 12.5q2 5 2.5 18.5t0.5 22.5q0 17 -3.5 34t-11 30.5t-20.5 22t-32 8.5q-30 0 -46 -21t-16 -57z" />
<glyph unicode="&#x20ac;" horiz-adv-x="549" d="M28 228v57h70q-1 8 -1 24v23v19.5t1 18.5h-70v53h76q10 55 32 100t55.5 77.5t77.5 50.5t98 18q37 0 69.5 -8.5t57 -21.5t38.5 -28.5t14 -29.5q0 -10 -9.5 -26t-17.5 -24h-13q-7 8 -18 18.5t-27.5 20.5t-39.5 16.5t-53 6.5q-39 0 -69 -13t-51.5 -35.5t-35 -53t-19.5 -65.5 h241v-56h-249q0 -5 -0.5 -15.5t-0.5 -23.5q0 -11 1 -27t2 -19h247v-57h-240q7 -36 20 -67t34 -54t50 -36t68 -13q35 0 61 10.5t43 24.5q20 15 35 35q4 -5 10 -13l12 -16t10 -16.5t4 -14.5q0 -18 -30 -42q-23 -17 -62.5 -28.5t-88.5 -11.5q-64 0 -109.5 21t-75.5 55.5 t-46.5 78t-23.5 87.5h-77z" />
<glyph unicode="&#x2113;" horiz-adv-x="456" d="M180 289q54 60 85.5 123.5t31.5 132.5q0 48 -16 67.5t-38 19.5q-26 0 -44.5 -33t-18.5 -109v-201zM366 115l19.5 -19.5t20.5 -18.5q-27 -40 -65.5 -63t-90.5 -23q-70 0 -108 39.5t-38 127.5q-13 -10 -24.5 -18t-24.5 -17q-5 11 -11.5 22t-13.5 22q19 13 37 27.5t36 30.5 v212q0 71 9.5 119.5t28 78t45 42.5t61.5 13q51 0 84 -37.5t33 -106.5q0 -91 -48 -172.5t-136 -163.5v-20q0 -41 6 -66.5t16.5 -39.5t25 -19.5t31.5 -5.5q32 0 61.5 16.5t45.5 39.5z" />
<glyph unicode="&#x2122;" horiz-adv-x="787" d="M412 670q13 0 24.5 -7t16.5 -20l93 -225l93 224q7 16 19.5 22t24.5 6q6 0 15 -1.5t16 -6.5l18 -364h-63l-11 244l-83 -187h-61l-80 182l-13 -239h-65l23 364q7 5 16 6.5t17 1.5zM315 669q4 -11 4 -23q0 -14 -8.5 -26t-35.5 -12h-75v-310h-67v310h-113q-2 7 -2.5 14 t-0.5 10q0 14 7 25.5t33 11.5h258z" />
<glyph unicode="&#x2126;" horiz-adv-x="706" d="M639 358q0 -51 -11 -93.5t-29 -77.5t-40.5 -62.5t-46.5 -48.5h133v-76h-234v72q28 20 53.5 47.5t45 62.5t30.5 77t11 92q0 111 -49.5 176t-146.5 65q-49 0 -86.5 -17.5t-63 -49t-38.5 -76.5t-13 -100q0 -49 11.5 -91t31 -76.5t45 -61.5t54.5 -48v-72h-235v76h131 q-24 21 -46.5 47.5t-40.5 60.5t-28.5 75.5t-10.5 92.5q0 69 19.5 127t57 100.5t91.5 66t122 23.5q69 0 122 -22.5t88.5 -64t54 -98.5t18.5 -126z" />
<glyph unicode="&#x212e;" horiz-adv-x="742" d="M187 340v-230q75 -75 183 -75q79 0 137.5 35.5t106.5 116.5l44 -26q-29 -45 -59 -77.5t-64 -53.5t-74.5 -30.5t-90.5 -9.5q-75 0 -135 27.5t-102.5 74.5t-65.5 111t-23 137t23 137t65.5 111.5t102.5 74.5t135 27q73 0 133 -26t103 -72.5t67 -111t25 -140.5h-511zM555 386 v183q-79 76 -186 76q-109 0 -182 -76v-183h368z" />
<glyph unicode="&#x2153;" horiz-adv-x="810" d="M138 306v290l-92 -47q-7 9 -14.5 23t-7.5 22q0 15 20 26l88 49q11 6 21 10.5t20 4.5q21 0 35 -10v-368h-70zM234 0h-82l357 643q10 18 24.5 28.5t39.5 10.5q17 0 27 -4q4 -2 7 -3zM757 109q0 -51 -33.5 -84t-100.5 -33q-29 0 -54 7.5t-39 17.5q-15 11 -20 18.5t-5 16.5 q0 12 9.5 25t16.5 21q14 -16 37 -30.5t52 -14.5q12 0 23.5 2.5t21.5 8.5t16 17.5t6 29.5q0 19 -8.5 30.5t-19.5 16.5t-23 6.5t-18 1.5h-32v58h33q7 0 17 1.5t19.5 7t16 15t6.5 25.5q0 45 -55 45q-29 0 -48.5 -11.5t-32.5 -24.5h-13q-8 10 -14 19t-6 17t7.5 16.5t19.5 16.5 q15 11 38 18.5t55 7.5q62 0 90.5 -27t28.5 -70q0 -35 -15 -55t-31 -29q9 -5 18.5 -11.5t17.5 -17t13.5 -25t5.5 -33.5z" />
<glyph unicode="&#x2154;" horiz-adv-x="810" d="M63 306v53q24 20 53 49t52 56q24 28 39.5 53.5t15.5 53.5q0 26 -15.5 39t-43.5 13q-27 0 -46.5 -13t-30.5 -26h-11q-11 11 -17 20t-6 19q0 8 3.5 13t9.5 10q5 4 15 10.5t24 12.5t31 10t36 4q53 0 86.5 -26t33.5 -84q0 -40 -21.5 -75.5t-49.5 -67.5q-15 -17 -29.5 -32 t-29.5 -29h102q8 0 16 -1t14 -5t10 -12t4 -22q0 -4 -0.5 -7.5t-0.5 -7.5v-8h-244zM766 108q0 -51 -33.5 -84t-100.5 -33q-29 0 -54 7.5t-39 17.5q-15 11 -20 18.5t-5 16.5q0 12 9.5 25t16.5 21q14 -16 37 -30.5t52 -14.5q12 0 23.5 2.5t21.5 8.5t16 17.5t6 29.5 q0 19 -8.5 30.5t-19.5 16.5t-23 6.5t-18 1.5h-32v58h33q7 0 17 1.5t19.5 7t16 15t6.5 25.5q0 45 -55 45q-29 0 -48.5 -11.5t-32.5 -24.5h-13q-8 10 -14 19t-6 17t7.5 16.5t19.5 16.5q15 11 38 18.5t55 7.5q62 0 90.5 -27t28.5 -70q0 -35 -15 -55t-31 -29q9 -5 18.5 -11.5 t17.5 -17t13.5 -25t5.5 -33.5zM279 0h-82l357 643q10 18 24.5 28.5t39.5 10.5q17 0 27 -4q4 -2 7 -3z" />
<glyph unicode="&#x2155;" horiz-adv-x="810" d="M129 306v290l-92 -47q-7 9 -14.5 23t-7.5 22q0 15 20 26l88 49q11 6 21 10.5t20 4.5q21 0 35 -10v-368h-70zM222 0h-82l357 643q10 18 24.5 28.5t39.5 10.5q17 0 27 -4q4 -2 7 -3zM512 190l16 183h204v-7q0 -3 0.5 -6.5t0.5 -5.5q0 -23 -11 -31.5t-34 -8.5h-109l-6 -72 q7 2 20 4t27 2q24 0 46.5 -6.5t40 -21t28 -37.5t10.5 -56q0 -57 -33 -95.5t-102 -38.5q-32 0 -56.5 7.5t-38.5 15.5q-16 10 -19.5 17t-3.5 16q0 10 7 22.5t17 25.5q12 -13 36 -28.5t57 -15.5q12 0 24 3t21.5 11t15.5 21.5t6 34.5q0 22 -7 35.5t-17.5 21.5t-24 11t-26.5 3 q-20 0 -36.5 -4.5t-31.5 -9.5z" />
<glyph unicode="&#x2156;" horiz-adv-x="810" d="M272 0h-82l357 643q10 18 24.5 28.5t39.5 10.5q17 0 27 -4q4 -2 7 -3zM56 306v53q24 20 53 49t52 56q24 28 39.5 53.5t15.5 53.5q0 26 -15.5 39t-43.5 13q-27 0 -46.5 -13t-30.5 -26h-11q-11 11 -17 20t-6 19q0 8 3.5 13t9.5 10q5 4 15 10.5t24 12.5t31 10t36 4 q53 0 86.5 -26t33.5 -84q0 -40 -21.5 -75.5t-49.5 -67.5q-15 -17 -29.5 -32t-29.5 -29h102q8 0 16 -1t14 -5t10 -12t4 -22q0 -4 -0.5 -7.5t-0.5 -7.5v-8h-244zM537 188l16 183h204v-7q0 -3 0.5 -6.5t0.5 -5.5q0 -23 -11 -31.5t-34 -8.5h-109l-6 -72q7 2 20 4t27 2 q24 0 46.5 -6.5t40 -21t28 -37.5t10.5 -56q0 -57 -33 -95.5t-102 -38.5q-32 0 -56.5 7.5t-38.5 15.5q-16 10 -19.5 17t-3.5 16q0 10 7 22.5t17 25.5q12 -13 36 -28.5t57 -15.5q12 0 24 3t21.5 11t15.5 21.5t6 34.5q0 22 -7 35.5t-17.5 21.5t-24 11t-26.5 3q-20 0 -36.5 -4.5 t-31.5 -9.5z" />
<glyph unicode="&#x2157;" horiz-adv-x="810" d="M264 0h-82l357 643q10 18 24.5 28.5t39.5 10.5q17 0 27 -4q4 -2 7 -3zM308 415q0 -51 -33.5 -84t-100.5 -33q-29 0 -54 7.5t-39 17.5q-15 11 -20 18.5t-5 16.5q0 12 9.5 25t16.5 21q14 -16 37 -30.5t52 -14.5q12 0 23.5 2.5t21.5 8.5t16 17.5t6 29.5q0 19 -8.5 30.5 t-19.5 16.5t-23 6.5t-18 1.5h-32v58h33q7 0 17 1.5t19.5 7t16 15t6.5 25.5q0 45 -55 45q-29 0 -48.5 -11.5t-32.5 -24.5h-13q-8 10 -14 19t-6 17t7.5 16.5t19.5 16.5q15 11 38 18.5t55 7.5q62 0 90.5 -27t28.5 -70q0 -35 -15 -55t-31 -29q9 -5 18.5 -11.5t17.5 -17t13.5 -25 t5.5 -33.5zM528 189l16 183h204v-7q0 -3 0.5 -6.5t0.5 -5.5q0 -23 -11 -31.5t-34 -8.5h-109l-6 -72q7 2 20 4t27 2q24 0 46.5 -6.5t40 -21t28 -37.5t10.5 -56q0 -57 -33 -95.5t-102 -38.5q-32 0 -56.5 7.5t-38.5 15.5q-16 10 -19.5 17t-3.5 16q0 10 7 22.5t17 25.5 q12 -13 36 -28.5t57 -15.5q12 0 24 3t21.5 11t15.5 21.5t6 34.5q0 22 -7 35.5t-17.5 21.5t-24 11t-26.5 3q-20 0 -36.5 -4.5t-31.5 -9.5z" />
<glyph unicode="&#x2158;" horiz-adv-x="810" d="M279 0h-82l357 643q10 18 24.5 28.5t39.5 10.5q17 0 27 -4q4 -2 7 -3zM50 377v49l149 225q8 12 19 22.5t26 10.5q8 0 17 -2.5t16 -7.5v-240h14q33 0 33 -33q0 -4 -2 -14l-2 -10h-43v-71h-68v71h-159zM209 434v148l-97 -148h97zM544 190l16 183h204v-7q0 -3 0.5 -6.5 t0.5 -5.5q0 -23 -11 -31.5t-34 -8.5h-109l-6 -72q7 2 20 4t27 2q24 0 46.5 -6.5t40 -21t28 -37.5t10.5 -56q0 -57 -33 -95.5t-102 -38.5q-32 0 -56.5 7.5t-38.5 15.5q-16 10 -19.5 17t-3.5 16q0 10 7 22.5t17 25.5q12 -13 36 -28.5t57 -15.5q12 0 24 3t21.5 11t15.5 21.5 t6 34.5q0 22 -7 35.5t-17.5 21.5t-24 11t-26.5 3q-20 0 -36.5 -4.5t-31.5 -9.5z" />
<glyph unicode="&#x2159;" horiz-adv-x="810" d="M242 0h-82l357 643q10 18 24.5 28.5t39.5 10.5q17 0 27 -4q4 -2 7 -3zM151 306v290l-92 -47q-7 9 -14.5 23t-7.5 22q0 15 20 26l88 49q11 6 21 10.5t20 4.5q21 0 35 -10v-368h-70zM752 128q0 -66 -36 -101.5t-92 -35.5q-65 0 -99.5 44t-34.5 118q0 51 14.5 89.5t38 65.5 t53 43t58.5 22q8 2 16.5 2.5t13.5 0.5q20 0 26.5 -9t6.5 -22q0 -6 -1.5 -15t-2.5 -11h-22q-27 0 -47.5 -7.5t-36 -20t-26 -28t-15.5 -31.5q14 11 33 17.5t41 6.5q29 0 50 -10.5t35 -28t20.5 -40.5t6.5 -49zM687 125q0 36 -14.5 56.5t-46.5 20.5q-20 0 -39.5 -6.5 t-28.5 -12.5q-1 -4 -1.5 -16t-0.5 -21q0 -17 3.5 -34.5t11.5 -31.5t21.5 -23t34.5 -9q27 0 43.5 19.5t16.5 57.5z" />
<glyph unicode="&#x215a;" horiz-adv-x="810" d="M87 496l16 183h204v-7q0 -3 0.5 -6.5t0.5 -5.5q0 -23 -11 -31.5t-34 -8.5h-109l-6 -72q7 2 20 4t27 2q24 0 46.5 -6.5t40 -21t28 -37.5t10.5 -56q0 -57 -33 -95.5t-102 -38.5q-32 0 -56.5 7.5t-38.5 15.5q-16 10 -19.5 17t-3.5 16q0 10 7 22.5t17 25.5q12 -13 36 -28.5 t57 -15.5q12 0 24 3t21.5 11t15.5 21.5t6 34.5q0 22 -7 35.5t-17.5 21.5t-24 11t-26.5 3q-20 0 -36.5 -4.5t-31.5 -9.5zM278 0h-82l357 643q10 18 24.5 28.5t39.5 10.5q17 0 27 -4q4 -2 7 -3zM757 128q0 -66 -36 -101.5t-92 -35.5q-65 0 -99.5 44t-34.5 118q0 51 14.5 89.5 t38 65.5t53 43t58.5 22q8 2 16.5 2.5t13.5 0.5q20 0 26.5 -9t6.5 -22q0 -6 -1.5 -15t-2.5 -11h-22q-27 0 -47.5 -7.5t-36 -20t-26 -28t-15.5 -31.5q14 11 33 17.5t41 6.5q29 0 50 -10.5t35 -28t20.5 -40.5t6.5 -49zM692 125q0 36 -14.5 56.5t-46.5 20.5q-20 0 -39.5 -6.5 t-28.5 -12.5q-1 -4 -1.5 -16t-0.5 -21q0 -17 3.5 -34.5t11.5 -31.5t21.5 -23t34.5 -9q27 0 43.5 19.5t16.5 57.5z" />
<glyph unicode="&#x215b;" horiz-adv-x="810" d="M137 306v290l-92 -47q-7 9 -14.5 23t-7.5 22q0 15 20 26l88 49q11 6 21 10.5t20 4.5q21 0 35 -10v-368h-70zM216 0h-82l357 643q10 18 24.5 28.5t39.5 10.5q17 0 27 -4q4 -2 7 -3zM750 107q0 -29 -10.5 -50.5t-29 -36t-43.5 -22t-53 -7.5q-60 0 -98 27t-38 85 q0 32 17 56.5t42 38.5q-22 13 -33 33t-11 43q0 26 10 45t26.5 32t38.5 19t46 6t46.5 -5.5t40 -17.5t27.5 -31t10 -45t-12 -45.5t-32 -32.5q25 -14 40.5 -37t15.5 -55zM685 107q0 29 -18.5 45t-52.5 16q-33 0 -52 -16.5t-19 -45.5t19.5 -45.5t51.5 -16.5t51.5 17t19.5 46z M674 273q0 26 -17 39t-43 13q-25 0 -42 -13.5t-17 -37.5q0 -23 17 -37t42 -14q26 0 43 14.5t17 35.5z" />
<glyph unicode="&#x215c;" horiz-adv-x="810" d="M296 415q0 -51 -33.5 -84t-100.5 -33q-29 0 -54 7.5t-39 17.5q-15 11 -20 18.5t-5 16.5q0 12 9.5 25t16.5 21q14 -16 37 -30.5t52 -14.5q12 0 23.5 2.5t21.5 8.5t16 17.5t6 29.5q0 19 -8.5 30.5t-19.5 16.5t-23 6.5t-18 1.5h-32v58h33q7 0 17 1.5t19.5 7t16 15t6.5 25.5 q0 45 -55 45q-29 0 -48.5 -11.5t-32.5 -24.5h-13q-8 10 -14 19t-6 17t7.5 16.5t19.5 16.5q15 11 38 18.5t55 7.5q62 0 90.5 -27t28.5 -70q0 -35 -15 -55t-31 -29q9 -5 18.5 -11.5t17.5 -17t13.5 -25t5.5 -33.5zM262 0h-82l357 643q10 18 24.5 28.5t39.5 10.5q17 0 27 -4 q4 -2 7 -3zM767 107q0 -29 -10.5 -50.5t-29 -36t-43.5 -22t-53 -7.5q-60 0 -98 27t-38 85q0 32 17 56.5t42 38.5q-22 13 -33 33t-11 43q0 26 10 45t26.5 32t38.5 19t46 6t46.5 -5.5t40 -17.5t27.5 -31t10 -45t-12 -45.5t-32 -32.5q25 -14 40.5 -37t15.5 -55zM702 107 q0 29 -18.5 45t-52.5 16q-33 0 -52 -16.5t-19 -45.5t19.5 -45.5t51.5 -16.5t51.5 17t19.5 46zM691 273q0 26 -17 39t-43 13q-25 0 -42 -13.5t-17 -37.5q0 -23 17 -37t42 -14q26 0 43 14.5t17 35.5z" />
<glyph unicode="&#x215d;" horiz-adv-x="810" d="M256 0h-82l357 643q10 18 24.5 28.5t39.5 10.5q17 0 27 -4q4 -2 7 -3zM65 496l16 183h204v-7q0 -3 0.5 -6.5t0.5 -5.5q0 -23 -11 -31.5t-34 -8.5h-109l-6 -72q7 2 20 4t27 2q24 0 46.5 -6.5t40 -21t28 -37.5t10.5 -56q0 -57 -33 -95.5t-102 -38.5q-32 0 -56.5 7.5 t-38.5 15.5q-16 10 -19.5 17t-3.5 16q0 10 7 22.5t17 25.5q12 -13 36 -28.5t57 -15.5q12 0 24 3t21.5 11t15.5 21.5t6 34.5q0 22 -7 35.5t-17.5 21.5t-24 11t-26.5 3q-20 0 -36.5 -4.5t-31.5 -9.5zM767 106q0 -29 -10.5 -50.5t-29 -36t-43.5 -22t-53 -7.5q-60 0 -98 27 t-38 85q0 32 17 56.5t42 38.5q-22 13 -33 33t-11 43q0 26 10 45t26.5 32t38.5 19t46 6t46.5 -5.5t40 -17.5t27.5 -31t10 -45t-12 -45.5t-32 -32.5q25 -14 40.5 -37t15.5 -55zM702 106q0 29 -18.5 45t-52.5 16q-33 0 -52 -16.5t-19 -45.5t19.5 -45.5t51.5 -16.5t51.5 17 t19.5 46zM691 272q0 26 -17 39t-43 13q-25 0 -42 -13.5t-17 -37.5q0 -23 17 -37t42 -14q26 0 43 14.5t17 35.5z" />
<glyph unicode="&#x215e;" horiz-adv-x="810" d="M207 0h-82l357 643q10 18 24.5 28.5t39.5 10.5q17 0 27 -4q4 -2 7 -3zM155 305h-73l147 308h-174q-1 6 -1 10q-1 4 -1 8v8q0 17 11.5 27.5t31.5 10.5h188q14 0 21.5 -5t7.5 -21v-17zM742 107q0 -29 -10.5 -50.5t-29 -36t-43.5 -22t-53 -7.5q-60 0 -98 27t-38 85 q0 32 17 56.5t42 38.5q-22 13 -33 33t-11 43q0 26 10 45t26.5 32t38.5 19t46 6t46.5 -5.5t40 -17.5t27.5 -31t10 -45t-12 -45.5t-32 -32.5q25 -14 40.5 -37t15.5 -55zM677 107q0 29 -18.5 45t-52.5 16q-33 0 -52 -16.5t-19 -45.5t19.5 -45.5t51.5 -16.5t51.5 17t19.5 46z M666 273q0 26 -17 39t-43 13q-25 0 -42 -13.5t-17 -37.5q0 -23 17 -37t42 -14q26 0 43 14.5t17 35.5z" />
<glyph unicode="&#x2202;" horiz-adv-x="540" d="M488 279q0 -72 -16.5 -127t-46 -92.5t-70 -56.5t-87.5 -19q-46 0 -85.5 15.5t-69 47t-46 79t-16.5 111.5q0 58 15.5 104t43.5 78t66.5 49t84.5 17q39 0 65 -7.5t48 -19.5q-16 35 -44 61.5t-63.5 45.5t-77.5 30t-86 16l15 71q73 -5 140 -31t118 -75t81.5 -123t30.5 -174z M401 272q0 35 -5 65t-10 47h1q-25 14 -52 22t-62 8q-60 0 -96.5 -45t-36.5 -133q0 -85 36 -130t92 -45q28 0 52.5 13t42.5 39.5t28 66t10 92.5z" />
<glyph unicode="&#x2206;" horiz-adv-x="621" d="M18 0l250 669h81l254 -669h-585zM307 562l-175 -487h355z" />
<glyph unicode="&#x220f;" horiz-adv-x="644" d="M623 590h-80v-712h-88v712h-267v-712h-87v712h-80v79h602v-79z" />
<glyph unicode="&#x2211;" horiz-adv-x="508" d="M42 -121v71l209 338l-207 310v71h427v-77h-322l200 -303l-205 -332h335v-78h-437z" />
<glyph unicode="&#x2212;" horiz-adv-x="546" d="M79 298v80h388v-80h-388z" />
<glyph unicode="&#x2215;" horiz-adv-x="391" d="M103 0h-86l255 630q6 15 19 28.5t38 13.5q10 0 18.5 -1t13.5 -3q6 -2 11 -3z" />
<glyph unicode="&#x2219;" horiz-adv-x="251" d="M192 359q0 -26 -16 -44t-42 -18q-25 0 -41 18t-16 44t16.5 44t40.5 18q25 0 41.5 -18t16.5 -44z" />
<glyph unicode="&#x221a;" horiz-adv-x="550" d="M298 0h-59l-117 234h-73v74h120l91 -189l207 606l71 -22z" />
<glyph unicode="&#x221e;" horiz-adv-x="598" d="M560 351q0 -28 -7.5 -56.5t-23.5 -52t-40.5 -38t-58.5 -14.5q-36 0 -69.5 22t-62.5 76q-27 -52 -62 -75t-67 -23q-33 0 -58 13.5t-41 35.5t-24 51t-8 61q0 78 37 119.5t94 41.5q39 0 71 -22t57 -77q47 98 132 98q55 0 93 -41.5t38 -118.5zM490 352q0 43 -18.5 67 t-44.5 24q-30 0 -50 -27t-37 -65q7 -17 16.5 -33.5t21 -29.5t24 -21t27.5 -8q16 0 27.5 8.5t19 21.5t11 29.5t3.5 33.5zM170 259q17 0 30.5 9.5t24 23.5t18 29.5t12.5 28.5q-17 40 -37.5 66t-46.5 26q-15 0 -26.5 -8t-20 -20.5t-12.5 -29t-4 -33.5q0 -43 18.5 -67.5 t43.5 -24.5z" />
<glyph unicode="&#x222b;" horiz-adv-x="364" d="M348 593q-31 0 -55 -6t-40 -20.5t-24.5 -39t-8.5 -61.5v-395q0 -20 -0.5 -40.5t-1.5 -40.5q-5 -97 -60.5 -139.5t-157.5 -43.5v77q31 1 55.5 7t41.5 20.5t25.5 39t8.5 62.5v394v41t2 40q6 95 59.5 138t155.5 44v-77z" />
<glyph unicode="&#x2248;" horiz-adv-x="549" d="M512 208q-20 -15 -54.5 -29t-70.5 -14q-28 0 -56 5.5t-57 13.5t-58.5 13.5t-52.5 5.5q-25 0 -47.5 -8.5t-44.5 -20.5l-33 64q22 14 56 26.5t66 12.5q23 0 55 -6t72 -15q26 -5 50.5 -10.5t47.5 -5.5q27 0 50 8t44 21zM512 397q-20 -15 -55 -29t-70 -14q-28 0 -56 5.5 t-57 12.5q-35 9 -62.5 14.5t-48.5 5.5q-25 0 -47.5 -8.5t-44.5 -19.5l-33 62q10 7 24.5 14.5t31 13.5t33.5 9.5t33 3.5q21 0 48 -5t64 -14q30 -8 58.5 -13.5t54.5 -5.5q27 0 50 8t44 21z" />
<glyph unicode="&#x2260;" horiz-adv-x="548" d="M238 205l-66 -118l-52 27l49 89h-91v79h135l57 102h-192v80h235l64 114l51 -28l-47 -86h89v-80h-133l-57 -102h190v-79z" />
<glyph unicode="&#x2264;" horiz-adv-x="547" d="M466 143l-386 170v76l385 169v-88l-270 -120l271 -118v-89zM80 -1v81h386v-81h-386z" />
<glyph unicode="&#x2265;" horiz-adv-x="547" d="M80 232l272 121l-271 112v93l385 -169v-77l-386 -169v89zM80 -1v81h386v-81h-386z" />
<glyph unicode="&#x25ca;" horiz-adv-x="542" d="M483 357l-213 -375l-211 375l211 364zM270 586l-130 -228l133 -244l130 243z" />
<glyph unicode="&#x25fc;" horiz-adv-x="475" d="M0 475h475v-475h-475v475z" />
<glyph unicode="&#xf001;" horiz-adv-x="532" d="M390 592q-16 21 -47 36.5t-75 15.5q-54 0 -82 -25.5t-28 -84.5v-64h291v-372q0 -34 7.5 -47.5t40.5 -13.5v-36q-10 -3 -25.5 -5t-29.5 -2q-29 0 -44.5 9.5t-23 25t-9 35.5t-1.5 41v292h-206v-397h-85v519q0 97 49 147.5t142 50.5q37 0 67.5 -7.5t52 -18.5t33.5 -24 t12 -25q0 -11 -8 -25t-16 -25h-15z" />
<glyph unicode="&#xf002;" horiz-adv-x="541" d="M373 621h1q-18 8 -46.5 15t-57.5 7q-54 0 -82.5 -24.5t-28.5 -83.5v-65h154v-73h-154v-397h-86v520q0 17 2 33t4 28q14 68 66 102t126 34q33 0 61.5 -5t52.5 -13t42.5 -17t30.5 -18v-561q0 -18 0.5 -30.5t5 -20t14.5 -11.5t28 -4v-36q-9 -3 -24 -5t-29 -2q-29 0 -45 8.5 t-23.5 23.5t-9.5 35.5t-2 43.5v516z" />
<glyph unicode="&#xf506;" horiz-adv-x="810" d="M214 0h-82l357 643q10 18 24.5 28.5t39.5 10.5q17 0 27 -4q4 -2 7 -3zM137 306v290l-92 -47q-7 9 -14.5 23t-7.5 22q0 15 20 26l88 49q11 6 21 10.5t20 4.5q21 0 35 -10v-368h-70zM604 1h-73l147 308h-174q-1 6 -1 10q-1 4 -1 8v8q0 17 11.5 27.5t31.5 10.5h188 q14 0 21.5 -5t7.5 -21v-17z" />
<glyph unicode="&#xf507;" horiz-adv-x="810" d="M274 0h-82l357 643q10 18 24.5 28.5t39.5 10.5q17 0 27 -4q4 -2 7 -3zM54 306v53q24 20 53 49t52 56q24 28 39.5 53.5t15.5 53.5q0 26 -15.5 39t-43.5 13q-27 0 -46.5 -13t-30.5 -26h-11q-11 11 -17 20t-6 19q0 8 3.5 13t9.5 10q5 4 15 10.5t24 12.5t31 10t36 4 q53 0 86.5 -26t33.5 -84q0 -40 -21.5 -75.5t-49.5 -67.5q-15 -17 -29.5 -32t-29.5 -29h102q8 0 16 -1t14 -5t10 -12t4 -22q0 -4 -0.5 -7.5t-0.5 -7.5v-8h-244zM623 1h-73l147 308h-174q-1 6 -1 10q-1 4 -1 8v8q0 17 11.5 27.5t31.5 10.5h188q14 0 21.5 -5t7.5 -21v-17z" />
<glyph unicode="&#xf508;" horiz-adv-x="810" d="M249 0h-82l357 643q10 18 24.5 28.5t39.5 10.5q17 0 27 -4q4 -2 7 -3zM297 415q0 -51 -33.5 -84t-100.5 -33q-29 0 -54 7.5t-39 17.5q-15 11 -20 18.5t-5 16.5q0 12 9.5 25t16.5 21q14 -16 37 -30.5t52 -14.5q12 0 23.5 2.5t21.5 8.5t16 17.5t6 29.5q0 19 -8.5 30.5 t-19.5 16.5t-23 6.5t-18 1.5h-32v58h33q7 0 17 1.5t19.5 7t16 15t6.5 25.5q0 45 -55 45q-29 0 -48.5 -11.5t-32.5 -24.5h-13q-8 10 -14 19t-6 17t7.5 16.5t19.5 16.5q15 11 38 18.5t55 7.5q62 0 90.5 -27t28.5 -70q0 -35 -15 -55t-31 -29q9 -5 18.5 -11.5t17.5 -17t13.5 -25 t5.5 -33.5zM614 1h-73l147 308h-174q-1 6 -1 10q-1 4 -1 8v8q0 17 11.5 27.5t31.5 10.5h188q14 0 21.5 -5t7.5 -21v-17z" />
<glyph unicode="&#xf509;" horiz-adv-x="810" d="M263 0h-82l357 643q10 18 24.5 28.5t39.5 10.5q17 0 27 -4q4 -2 7 -3zM42 377v49l149 225q8 12 19 22.5t26 10.5q8 0 17 -2.5t16 -7.5v-240h14q33 0 33 -33q0 -4 -2 -14l-2 -10h-43v-71h-68v71h-159zM201 434v148l-97 -148h97zM622 1h-73l147 308h-174q-1 6 -1 10 q-1 4 -1 8v8q0 17 11.5 27.5t31.5 10.5h188q14 0 21.5 -5t7.5 -21v-17z" />
<glyph unicode="&#xf50a;" horiz-adv-x="810" d="M250 0h-82l357 643q10 18 24.5 28.5t39.5 10.5q17 0 27 -4q4 -2 7 -3zM64 496l16 183h204v-7q0 -3 0.5 -6.5t0.5 -5.5q0 -23 -11 -31.5t-34 -8.5h-109l-6 -72q7 2 20 4t27 2q24 0 46.5 -6.5t40 -21t28 -37.5t10.5 -56q0 -57 -33 -95.5t-102 -38.5q-32 0 -56.5 7.5 t-38.5 15.5q-16 10 -19.5 17t-3.5 16q0 10 7 22.5t17 25.5q12 -13 36 -28.5t57 -15.5q12 0 24 3t21.5 11t15.5 21.5t6 34.5q0 22 -7 35.5t-17.5 21.5t-24 11t-26.5 3q-20 0 -36.5 -4.5t-31.5 -9.5zM619 1h-73l147 308h-174q-1 6 -1 10q-1 4 -1 8v8q0 17 11.5 27.5t31.5 10.5 h188q14 0 21.5 -5t7.5 -21v-17z" />
<glyph unicode="&#xf50b;" horiz-adv-x="810" d="M252 0h-82l357 643q10 18 24.5 28.5t39.5 10.5q17 0 27 -4q4 -2 7 -3zM305 435q0 -66 -36 -101.5t-92 -35.5q-65 0 -99.5 44t-34.5 118q0 51 14.5 89.5t38 65.5t53 43t58.5 22q8 2 16.5 2.5t13.5 0.5q20 0 26.5 -9t6.5 -22q0 -6 -1.5 -15t-2.5 -11h-22q-27 0 -47.5 -7.5 t-36 -20t-26 -28t-15.5 -31.5q14 11 33 17.5t41 6.5q29 0 50 -10.5t35 -28t20.5 -40.5t6.5 -49zM240 432q0 36 -14.5 56.5t-46.5 20.5q-20 0 -39.5 -6.5t-28.5 -12.5q-1 -4 -1.5 -16t-0.5 -21q0 -17 3.5 -34.5t11.5 -31.5t21.5 -23t34.5 -9q27 0 43.5 19.5t16.5 57.5zM613 1 h-73l147 308h-174q-1 6 -1 10q-1 4 -1 8v8q0 17 11.5 27.5t31.5 10.5h188q14 0 21.5 -5t7.5 -21v-17z" />
<glyph unicode="&#xf50c;" horiz-adv-x="810" d="M227 0h-82l357 643q10 18 24.5 28.5t39.5 10.5q17 0 27 -4q4 -2 7 -3zM138 306v290l-92 -47q-7 9 -14.5 23t-7.5 22q0 15 20 26l88 49q11 6 21 10.5t20 4.5q21 0 35 -10v-368h-70zM495 233q0 65 36.5 102t91.5 37q65 0 98.5 -43.5t33.5 -115.5q0 -60 -16.5 -102.5 t-42.5 -70t-60 -40.5t-68 -13q-21 0 -30 6.5t-9 22.5v10t1 9q0 4 1 9q6 -1 11.5 -1h11.5q48 0 80 25.5t43 57.5q-12 -9 -30 -14.5t-38 -5.5q-28 0 -49.5 10t-35.5 27.5t-21.5 40.5t-7.5 49zM560 237q0 -38 16 -58t49 -20q30 0 44 7.5t17 12.5q2 5 2.5 18.5t0.5 22.5 q0 17 -3.5 34t-11 30.5t-20.5 22t-32 8.5q-30 0 -46 -21t-16 -57z" />
<glyph unicode="&#xf50d;" horiz-adv-x="810" d="M274 0h-82l357 643q10 18 24.5 28.5t39.5 10.5q17 0 27 -4q4 -2 7 -3zM50 306v53q24 20 53 49t52 56q24 28 39.5 53.5t15.5 53.5q0 26 -15.5 39t-43.5 13q-27 0 -46.5 -13t-30.5 -26h-11q-11 11 -17 20t-6 19q0 8 3.5 13t9.5 10q5 4 15 10.5t24 12.5t31 10t36 4 q53 0 86.5 -26t33.5 -84q0 -40 -21.5 -75.5t-49.5 -67.5q-15 -17 -29.5 -32t-29.5 -29h102q8 0 16 -1t14 -5t10 -12t4 -22q0 -4 -0.5 -7.5t-0.5 -7.5v-8h-244zM505 233q0 65 36.5 102t91.5 37q65 0 98.5 -43.5t33.5 -115.5q0 -60 -16.5 -102.5t-42.5 -70t-60 -40.5t-68 -13 q-21 0 -30 6.5t-9 22.5v10t1 9q0 4 1 9q6 -1 11.5 -1h11.5q48 0 80 25.5t43 57.5q-12 -9 -30 -14.5t-38 -5.5q-28 0 -49.5 10t-35.5 27.5t-21.5 40.5t-7.5 49zM570 237q0 -38 16 -58t49 -20q30 0 44 7.5t17 12.5q2 5 2.5 18.5t0.5 22.5q0 17 -3.5 34t-11 30.5t-20.5 22 t-32 8.5q-30 0 -46 -21t-16 -57z" />
<glyph unicode="&#xf50e;" horiz-adv-x="810" d="M276 0h-82l357 643q10 18 24.5 28.5t39.5 10.5q17 0 27 -4q4 -2 7 -3zM44 377v49l149 225q8 12 19 22.5t26 10.5q8 0 17 -2.5t16 -7.5v-240h14q33 0 33 -33q0 -4 -2 -14l-2 -10h-43v-71h-68v71h-159zM203 434v148l-97 -148h97zM516 233q0 65 36.5 102t91.5 37 q65 0 98.5 -43.5t33.5 -115.5q0 -60 -16.5 -102.5t-42.5 -70t-60 -40.5t-68 -13q-21 0 -30 6.5t-9 22.5v10t1 9q0 4 1 9q6 -1 11.5 -1h11.5q48 0 80 25.5t43 57.5q-12 -9 -30 -14.5t-38 -5.5q-28 0 -49.5 10t-35.5 27.5t-21.5 40.5t-7.5 49zM581 237q0 -38 16 -58t49 -20 q30 0 44 7.5t17 12.5q2 5 2.5 18.5t0.5 22.5q0 17 -3.5 34t-11 30.5t-20.5 22t-32 8.5q-30 0 -46 -21t-16 -57z" />
<glyph unicode="&#xf50f;" horiz-adv-x="810" d="M256 0h-82l357 643q10 18 24.5 28.5t39.5 10.5q17 0 27 -4q4 -2 7 -3zM57 496l16 183h204v-7q0 -3 0.5 -6.5t0.5 -5.5q0 -23 -11 -31.5t-34 -8.5h-109l-6 -72q7 2 20 4t27 2q24 0 46.5 -6.5t40 -21t28 -37.5t10.5 -56q0 -57 -33 -95.5t-102 -38.5q-32 0 -56.5 7.5 t-38.5 15.5q-16 10 -19.5 17t-3.5 16q0 10 7 22.5t17 25.5q12 -13 36 -28.5t57 -15.5q12 0 24 3t21.5 11t15.5 21.5t6 34.5q0 22 -7 35.5t-17.5 21.5t-24 11t-26.5 3q-20 0 -36.5 -4.5t-31.5 -9.5zM511 233q0 65 36.5 102t91.5 37q65 0 98.5 -43.5t33.5 -115.5 q0 -60 -16.5 -102.5t-42.5 -70t-60 -40.5t-68 -13q-21 0 -30 6.5t-9 22.5v10t1 9q0 4 1 9q6 -1 11.5 -1h11.5q48 0 80 25.5t43 57.5q-12 -9 -30 -14.5t-38 -5.5q-28 0 -49.5 10t-35.5 27.5t-21.5 40.5t-7.5 49zM576 237q0 -38 16 -58t49 -20q30 0 44 7.5t17 12.5 q2 5 2.5 18.5t0.5 22.5q0 17 -3.5 34t-11 30.5t-20.5 22t-32 8.5q-30 0 -46 -21t-16 -57z" />
<glyph unicode="&#xf510;" horiz-adv-x="810" d="M222 0h-82l357 643q10 18 24.5 28.5t39.5 10.5q17 0 27 -4q4 -2 7 -3zM157 305h-73l147 308h-174q-1 6 -1 10q-1 4 -1 8v8q0 17 11.5 27.5t31.5 10.5h188q14 0 21.5 -5t7.5 -21v-17zM493 233q0 65 36.5 102t91.5 37q65 0 98.5 -43.5t33.5 -115.5q0 -60 -16.5 -102.5 t-42.5 -70t-60 -40.5t-68 -13q-21 0 -30 6.5t-9 22.5v10t1 9q0 4 1 9q6 -1 11.5 -1h11.5q48 0 80 25.5t43 57.5q-12 -9 -30 -14.5t-38 -5.5q-28 0 -49.5 10t-35.5 27.5t-21.5 40.5t-7.5 49zM558 237q0 -38 16 -58t49 -20q30 0 44 7.5t17 12.5q2 5 2.5 18.5t0.5 22.5 q0 17 -3.5 34t-11 30.5t-20.5 22t-32 8.5q-30 0 -46 -21t-16 -57z" />
<glyph unicode="&#xf511;" horiz-adv-x="810" d="M270 0h-82l357 643q10 18 24.5 28.5t39.5 10.5q17 0 27 -4q4 -2 7 -3zM322 414q0 -29 -10.5 -50.5t-29 -36t-43.5 -22t-53 -7.5q-60 0 -98 27t-38 85q0 32 17 56.5t42 38.5q-22 13 -33 33t-11 43q0 26 10 45t26.5 32t38.5 19t46 6t46.5 -5.5t40 -17.5t27.5 -31t10 -45 t-12 -45.5t-32 -32.5q25 -14 40.5 -37t15.5 -55zM257 414q0 29 -18.5 45t-52.5 16q-33 0 -52 -16.5t-19 -45.5t19.5 -45.5t51.5 -16.5t51.5 17t19.5 46zM246 580q0 26 -17 39t-43 13q-25 0 -42 -13.5t-17 -37.5q0 -23 17 -37t42 -14q26 0 43 14.5t17 35.5zM512 233 q0 65 36.5 102t91.5 37q65 0 98.5 -43.5t33.5 -115.5q0 -60 -16.5 -102.5t-42.5 -70t-60 -40.5t-68 -13q-21 0 -30 6.5t-9 22.5v10t1 9q0 4 1 9q6 -1 11.5 -1h11.5q48 0 80 25.5t43 57.5q-12 -9 -30 -14.5t-38 -5.5q-28 0 -49.5 10t-35.5 27.5t-21.5 40.5t-7.5 49zM577 237 q0 -38 16 -58t49 -20q30 0 44 7.5t17 12.5q2 5 2.5 18.5t0.5 22.5q0 17 -3.5 34t-11 30.5t-20.5 22t-32 8.5q-30 0 -46 -21t-16 -57z" />
<glyph unicode="&#xf800;" horiz-adv-x="529" d="M500 326q0 -165 -59.5 -253t-174.5 -88q-116 0 -176.5 85.5t-60.5 255.5q0 79 15 142.5t45 108t75 68.5t105 24q118 0 174.5 -90t56.5 -253zM410 326q0 75 -10 125.5t-29 81.5t-45 44.5t-59 13.5t-60 -13.5t-46 -44.5t-29.5 -81.5t-10.5 -125.5q0 -73 10.5 -123.5 t29.5 -82t46 -45.5t60 -14t59 13.5t45 44.5t29 82t10 125z" />
<glyph unicode="&#xf801;" horiz-adv-x="375" d="M190 0v557l-140 -73q-8 10 -18 25t-10 28q0 10 6 19t16 14l130 72q19 11 33.5 17t28.5 6q13 0 24 -4.5t16 -9.5v-651h-86z" />
<glyph unicode="&#xf802;" horiz-adv-x="500" d="M434 481q0 -39 -10 -74t-27.5 -68t-41 -63t-50.5 -58q-42 -44 -81.5 -82t-68.5 -61h236q32 0 47 -15.5t15 -37.5q0 -13 -3 -22h-416v70q19 15 44.5 37.5t54.5 49.5t59 57.5t58 63.5q43 50 69.5 97t26.5 101q0 33 -9.5 54.5t-26 35t-38 19t-45.5 5.5q-26 0 -49 -8 t-41.5 -19.5t-33 -24.5t-24.5 -24h-15q-30 33 -30 51q0 9 5 17t12 14q6 6 22 18t40 24.5t55 21.5t68 9q40 0 76 -10t63 -32t43 -58t16 -88z" />
<glyph unicode="&#xf803;" horiz-adv-x="496" d="M442 190q0 -44 -13.5 -81.5t-41.5 -64.5t-70.5 -42.5t-99.5 -15.5q-36 0 -66 5.5t-53 14t-38.5 17t-23.5 14.5q-20 15 -20 33q0 11 10.5 28.5t24.5 36.5q9 -10 24 -23t36 -24t47 -19t57 -8q25 0 49.5 6t44.5 20.5t32.5 39t12.5 61.5q0 42 -17 66t-40 37t-46.5 16.5 t-37.5 3.5h-36v73h36q14 0 35 4t41 16t34.5 34t14.5 58q0 96 -114 96q-27 0 -50 -7t-42 -17t-33.5 -22.5t-24.5 -22.5h-13q-15 13 -24 26t-9 23q0 11 10 22.5t23 21.5q28 21 73 37t96 16t88 -12.5t61 -35t35.5 -52.5t11.5 -66q0 -34 -10.5 -60t-25.5 -45t-32 -30.5 t-29 -17.5q15 -6 34.5 -17t37 -29.5t29.5 -46.5t12 -67z" />
<glyph unicode="&#xf804;" horiz-adv-x="525" d="M41 173v67l267 373q17 23 33 37t40 14q22 0 37 -10v-409h31q26 0 36.5 -12.5t10.5 -31.5q0 -9 -2 -19q-1 -5 -1 -9h-75v-173h-86v173h-291zM332 246v288l-209 -288h209z" />
<glyph unicode="&#xf805;" horiz-adv-x="518" d="M102 661h330q2 -5 2.5 -10t0.5 -12q0 -38 -18.5 -47.5t-44.5 -9.5h-202l-17 -169q13 3 32.5 6.5t45.5 3.5q46 0 87 -11t72.5 -36.5t50 -66.5t18.5 -101q0 -46 -14.5 -86.5t-43 -70.5t-72 -47.5t-100.5 -17.5q-39 0 -69.5 5.5t-52.5 13t-36 15.5t-20 13q-8 6 -14 14.5 t-6 20.5q0 13 9.5 29t23.5 35q9 -10 24.5 -22.5t36.5 -23t48 -18t59 -7.5q25 0 50 8t45 25t32 44t12 65q0 48 -15 76.5t-38.5 44t-51.5 20.5t-54 5q-34 0 -64 -6t-50 -13l-28 13z" />
<glyph unicode="&#xf806;" horiz-adv-x="529" d="M485 223q0 -57 -16 -101.5t-44.5 -75t-67.5 -46t-84 -15.5q-111 0 -165.5 74.5t-54.5 211.5q0 91 24 160.5t63 118t88 77t99 38.5q15 3 29 4t25 1q44 0 44 -42q0 -6 -0.5 -12t-1.5 -11t-1 -10q-8 1 -15 1h-15q-63 0 -106.5 -24t-72 -57.5t-43 -68.5t-19.5 -56 q9 8 23.5 18t33.5 18.5t42.5 14.5t50.5 6q48 0 82.5 -18.5t57 -49.5t33.5 -71.5t11 -84.5zM396 217q0 33 -6.5 61.5t-20.5 50t-36.5 33.5t-54.5 12q-25 0 -47 -7t-40 -16.5t-30.5 -20t-18.5 -16.5q-2 -11 -2.5 -28t-0.5 -31q0 -30 5 -64.5t20 -63.5t41.5 -48.5t70.5 -19.5 q55 0 87.5 42.5t32.5 115.5z" />
<glyph unicode="&#xf807;" horiz-adv-x="468" d="M173 0h-94l277 580h-333q-1 4 -1 8q-1 4 -1 9v10q0 24 15 39t46 15h338q20 0 29.5 -7t9.5 -27v-24z" />
<glyph unicode="&#xf808;" horiz-adv-x="548" d="M503 183q0 -51 -18 -88.5t-49 -62t-72.5 -36t-89.5 -11.5q-51 0 -93 11.5t-72.5 35.5t-47 60.5t-16.5 86.5q0 28 9.5 54t25 48.5t36.5 40t45 27.5q-46 20 -70 59.5t-24 84.5q0 43 17.5 76t47 55t66.5 33.5t76 11.5q41 0 78.5 -10t66 -31t45.5 -53t17 -76q0 -47 -25.5 -86 t-70.5 -62q27 -9 48.5 -26t37 -39.5t24 -48.5t8.5 -54zM416 184q0 57 -38 92t-104 35q-33 0 -59.5 -10t-45 -27t-28.5 -41t-10 -52q0 -61 40 -93t103 -32t102.5 33.5t39.5 94.5zM395 494q0 25 -9.5 45t-26 33t-38.5 20t-47 7t-47.5 -7t-39 -20.5t-26 -33.5t-9.5 -46 q0 -23 9.5 -42t26 -33.5t38.5 -22.5t48 -8q25 0 47 8.5t38.5 23t26 34t9.5 42.5z" />
<glyph unicode="&#xf809;" horiz-adv-x="527" d="M45 434q0 57 16 101t44.5 73.5t67.5 45t85 15.5q55 0 96 -19.5t68.5 -56t41.5 -88t14 -115.5q0 -100 -27 -176t-71.5 -127t-102 -76.5t-118.5 -25.5q-25 0 -39 8t-14 33q0 10 0.5 18.5t1.5 15.5q8 -1 15 -1h15q63 0 107 23.5t72.5 57t42.5 69.5t18 61q-9 -8 -21.5 -17.5 t-30 -18t-39.5 -14.5t-49 -6q-51 0 -87.5 18.5t-60 49.5t-34.5 70.5t-11 81.5zM134 441q0 -70 27.5 -113t93.5 -43q25 0 47 7.5t39 19t29.5 24t17.5 23.5q1 9 1.5 20.5t0.5 24.5q0 28 -5 61t-20 62t-41.5 48.5t-69.5 19.5q-54 0 -87 -41t-33 -113z" />
<glyph unicode="&#xf80a;" d="M316 576q0 -92 -41 -140t-110 -48q-72 0 -110.5 49t-38.5 139q0 97 41.5 146.5t107.5 49.5q71 0 111 -48t40 -148zM243 577q0 29 -4 53.5t-13 42t-24 27.5t-37 10q-21 0 -35.5 -10.5t-23 -28.5t-12.5 -42.5t-4 -52.5q0 -26 4 -49t12.5 -40t22.5 -27t35 -10q44 0 61.5 36 t17.5 91z" />
<glyph unicode="&#xf80b;" d="M146 396v290l-92 -47q-7 9 -14.5 23t-7.5 22q0 15 20 26l88 49q11 6 21 10.5t20 4.5q21 0 35 -10v-368h-70z" />
<glyph unicode="&#xf80c;" d="M48 396v53q24 20 53 49t52 56q24 28 39.5 53.5t15.5 53.5q0 26 -15.5 39t-43.5 13q-27 0 -46.5 -13t-30.5 -26h-11q-11 11 -17 20t-6 19q0 8 3.5 13t9.5 10q5 4 15 10.5t24 12.5t31 10t36 4q53 0 86.5 -26t33.5 -84q0 -40 -21.5 -75.5t-49.5 -67.5q-15 -17 -29.5 -32 t-29.5 -29h102q8 0 16 -1t14 -5t10 -12t4 -22q0 -4 -0.5 -7.5t-0.5 -7.5v-8h-244z" />
<glyph unicode="&#xf80d;" d="M289 505q0 -51 -33.5 -84t-100.5 -33q-29 0 -54 7.5t-39 17.5q-15 11 -20 18.5t-5 16.5q0 12 9.5 25t16.5 21q14 -16 37 -30.5t52 -14.5q12 0 23.5 2.5t21.5 8.5t16 17.5t6 29.5q0 19 -8.5 30.5t-19.5 16.5t-23 6.5t-18 1.5h-32v58h33q7 0 17 1.5t19.5 7t16 15t6.5 25.5 q0 45 -55 45q-29 0 -48.5 -11.5t-32.5 -24.5h-13q-8 10 -14 19t-6 17t7.5 16.5t19.5 16.5q15 11 38 18.5t55 7.5q62 0 90.5 -27t28.5 -70q0 -35 -15 -55t-31 -29q9 -5 18.5 -11.5t17.5 -17t13.5 -25t5.5 -33.5z" />
<glyph unicode="&#xf80e;" d="M34 467v49l149 225q8 12 19 22.5t26 10.5q8 0 17 -2.5t16 -7.5v-240h14q33 0 33 -33q0 -4 -2 -14l-2 -10h-43v-71h-68v71h-159zM193 524v148l-97 -148h97z" />
<glyph unicode="&#xf80f;" d="M57 586l16 183h204v-7q0 -3 0.5 -6.5t0.5 -5.5q0 -23 -11 -31.5t-34 -8.5h-109l-6 -72q7 2 20 4t27 2q24 0 46.5 -6.5t40 -21t28 -37.5t10.5 -56q0 -57 -33 -95.5t-102 -38.5q-32 0 -56.5 7.5t-38.5 15.5q-16 10 -19.5 17t-3.5 16q0 10 7 22.5t17 25.5q12 -13 36 -28.5 t57 -15.5q12 0 24 3t21.5 11t15.5 21.5t6 34.5q0 22 -7 35.5t-17.5 21.5t-24 11t-26.5 3q-20 0 -36.5 -4.5t-31.5 -9.5z" />
<glyph unicode="&#xf810;" d="M295 525q0 -66 -36 -101.5t-92 -35.5q-65 0 -99.5 44t-34.5 118q0 51 14.5 89.5t38 65.5t53 43t58.5 22q8 2 16.5 2.5t13.5 0.5q20 0 26.5 -9t6.5 -22q0 -6 -1.5 -15t-2.5 -11h-22q-27 0 -47.5 -7.5t-36 -20t-26 -28t-15.5 -31.5q14 11 33 17.5t41 6.5q29 0 50 -10.5 t35 -28t20.5 -40.5t6.5 -49zM230 522q0 36 -14.5 56.5t-46.5 20.5q-20 0 -39.5 -6.5t-28.5 -12.5q-1 -4 -1.5 -16t-0.5 -21q0 -17 3.5 -34.5t11.5 -31.5t21.5 -23t34.5 -9q27 0 43.5 19.5t16.5 57.5z" />
<glyph unicode="&#xf811;" d="M135 395h-73l147 308h-174q-1 6 -1 10q-1 4 -1 8v8q0 17 11.5 27.5t31.5 10.5h188q14 0 21.5 -5t7.5 -21v-17z" />
<glyph unicode="&#xf812;" d="M300 504q0 -29 -10.5 -50.5t-29 -36t-43.5 -22t-53 -7.5q-60 0 -98 27t-38 85q0 32 17 56.5t42 38.5q-22 13 -33 33t-11 43q0 26 10 45t26.5 32t38.5 19t46 6t46.5 -5.5t40 -17.5t27.5 -31t10 -45t-12 -45.5t-32 -32.5q25 -14 40.5 -37t15.5 -55zM235 504q0 29 -18.5 45 t-52.5 16q-33 0 -52 -16.5t-19 -45.5t19.5 -45.5t51.5 -16.5t51.5 17t19.5 46zM224 670q0 26 -17 39t-43 13q-25 0 -42 -13.5t-17 -37.5q0 -23 17 -37t42 -14q26 0 43 14.5t17 35.5z" />
<glyph unicode="&#xf813;" d="M34 634q0 65 36.5 102t91.5 37q65 0 98.5 -43.5t33.5 -115.5q0 -60 -16.5 -102.5t-42.5 -70t-60 -40.5t-68 -13q-21 0 -30 6.5t-9 22.5v10t1 9q0 4 1 9q6 -1 11.5 -1h11.5q48 0 80 25.5t43 57.5q-12 -9 -30 -14.5t-38 -5.5q-28 0 -49.5 10t-35.5 27.5t-21.5 40.5t-7.5 49 zM99 638q0 -38 16 -58t49 -20q30 0 44 7.5t17 12.5q2 5 2.5 18.5t0.5 22.5q0 17 -3.5 34t-11 30.5t-20.5 22t-32 8.5q-30 0 -46 -21t-16 -57z" />
<glyph unicode="&#xf814;" d="M316 91q0 -92 -41 -140t-110 -48q-72 0 -110.5 49t-38.5 139q0 97 41.5 146.5t107.5 49.5q71 0 111 -48t40 -148zM243 92q0 29 -4 53.5t-13 42t-24 27.5t-37 10q-21 0 -35.5 -10.5t-23 -28.5t-12.5 -42.5t-4 -52.5q0 -26 4 -49t12.5 -40t22.5 -27t35 -10q44 0 61.5 36 t17.5 91z" />
<glyph unicode="&#xf815;" d="M146 -89v290l-92 -47q-7 9 -14.5 23t-7.5 22q0 15 20 26l88 49q11 6 21 10.5t20 4.5q21 0 35 -10v-368h-70z" />
<glyph unicode="&#xf816;" d="M48 -89v53q24 20 53 49t52 56q24 28 39.5 53.5t15.5 53.5q0 26 -15.5 39t-43.5 13q-27 0 -46.5 -13t-30.5 -26h-11q-11 11 -17 20t-6 19q0 8 3.5 13t9.5 10q5 4 15 10.5t24 12.5t31 10t36 4q53 0 86.5 -26t33.5 -84q0 -40 -21.5 -75.5t-49.5 -67.5q-15 -17 -29.5 -32 t-29.5 -29h102q8 0 16 -1t14 -5t10 -12t4 -22q0 -4 -0.5 -7.5t-0.5 -7.5v-8h-244z" />
<glyph unicode="&#xf817;" d="M289 20q0 -51 -33.5 -84t-100.5 -33q-29 0 -54 7.5t-39 17.5q-15 11 -20 18.5t-5 16.5q0 12 9.5 25t16.5 21q14 -16 37 -30.5t52 -14.5q12 0 23.5 2.5t21.5 8.5t16 17.5t6 29.5q0 19 -8.5 30.5t-19.5 16.5t-23 6.5t-18 1.5h-32v58h33q7 0 17 1.5t19.5 7t16 15t6.5 25.5 q0 45 -55 45q-29 0 -48.5 -11.5t-32.5 -24.5h-13q-8 10 -14 19t-6 17t7.5 16.5t19.5 16.5q15 11 38 18.5t55 7.5q62 0 90.5 -27t28.5 -70q0 -35 -15 -55t-31 -29q9 -5 18.5 -11.5t17.5 -17t13.5 -25t5.5 -33.5z" />
<glyph unicode="&#xf818;" d="M34 -18v49l149 225q8 12 19 22.5t26 10.5q8 0 17 -2.5t16 -7.5v-240h14q33 0 33 -33q0 -4 -2 -14l-2 -10h-43v-71h-68v71h-159zM193 39v148l-97 -148h97z" />
<glyph unicode="&#xf819;" d="M57 101l16 183h204v-7q0 -3 0.5 -6.5t0.5 -5.5q0 -23 -11 -31.5t-34 -8.5h-109l-6 -72q7 2 20 4t27 2q24 0 46.5 -6.5t40 -21t28 -37.5t10.5 -56q0 -57 -33 -95.5t-102 -38.5q-32 0 -56.5 7.5t-38.5 15.5q-16 10 -19.5 17t-3.5 16q0 10 7 22.5t17 25.5q12 -13 36 -28.5 t57 -15.5q12 0 24 3t21.5 11t15.5 21.5t6 34.5q0 22 -7 35.5t-17.5 21.5t-24 11t-26.5 3q-20 0 -36.5 -4.5t-31.5 -9.5z" />
<glyph unicode="&#xf81a;" d="M295 40q0 -66 -36 -101.5t-92 -35.5q-65 0 -99.5 44t-34.5 118q0 51 14.5 89.5t38 65.5t53 43t58.5 22q8 2 16.5 2.5t13.5 0.5q20 0 26.5 -9t6.5 -22q0 -6 -1.5 -15t-2.5 -11h-22q-27 0 -47.5 -7.5t-36 -20t-26 -28t-15.5 -31.5q14 11 33 17.5t41 6.5q29 0 50 -10.5 t35 -28t20.5 -40.5t6.5 -49zM230 37q0 36 -14.5 56.5t-46.5 20.5q-20 0 -39.5 -6.5t-28.5 -12.5q-1 -4 -1.5 -16t-0.5 -21q0 -17 3.5 -34.5t11.5 -31.5t21.5 -23t34.5 -9q27 0 43.5 19.5t16.5 57.5z" />
<glyph unicode="&#xf81b;" d="M135 -90h-73l147 308h-174q-1 6 -1 10q-1 4 -1 8v8q0 17 11.5 27.5t31.5 10.5h188q14 0 21.5 -5t7.5 -21v-17z" />
<glyph unicode="&#xf81c;" d="M300 19q0 -29 -10.5 -50.5t-29 -36t-43.5 -22t-53 -7.5q-60 0 -98 27t-38 85q0 32 17 56.5t42 38.5q-22 13 -33 33t-11 43q0 26 10 45t26.5 32t38.5 19t46 6t46.5 -5.5t40 -17.5t27.5 -31t10 -45t-12 -45.5t-32 -32.5q25 -14 40.5 -37t15.5 -55zM235 19q0 29 -18.5 45 t-52.5 16q-33 0 -52 -16.5t-19 -45.5t19.5 -45.5t51.5 -16.5t51.5 17t19.5 46zM224 185q0 26 -17 39t-43 13q-25 0 -42 -13.5t-17 -37.5q0 -23 17 -37t42 -14q26 0 43 14.5t17 35.5z" />
<glyph unicode="&#xf81d;" d="M34 149q0 65 36.5 102t91.5 37q65 0 98.5 -43.5t33.5 -115.5q0 -60 -16.5 -102.5t-42.5 -70t-60 -40.5t-68 -13q-21 0 -30 6.5t-9 22.5v10t1 9q0 4 1 9q6 -1 11.5 -1h11.5q48 0 80 25.5t43 57.5q-12 -9 -30 -14.5t-38 -5.5q-28 0 -49.5 10t-35.5 27.5t-21.5 40.5t-7.5 49 zM99 153q0 -38 16 -58t49 -20q30 0 44 7.5t17 12.5q2 5 2.5 18.5t0.5 22.5q0 17 -3.5 34t-11 30.5t-20.5 22t-32 8.5q-30 0 -46 -21t-16 -57z" />
<glyph horiz-adv-x="241" d="M73 475h6q2 0 5.5 0.5t6.5 0.5q28 0 47.5 -14.5t19.5 -52.5v-319q0 -29 8.5 -41t39.5 -12v-36q-9 -3 -24.5 -5t-30.5 -2q-29 0 -44.5 9t-23 24t-9 33.5t-1.5 36.5v378zM166 624q0 -23 -15.5 -38.5t-38.5 -15.5t-38.5 15.5t-15.5 38.5q0 25 15.5 41t38.5 16t38.5 -16 t15.5 -41z" />
<glyph horiz-adv-x="699" d="M184 340v32l239 267q16 17 28.5 24t27.5 7q10 0 20.5 -3.5t18.5 -7.5q10 -4 19 -10l-259 -289l278 -356q-12 -5 -27.5 -8.5t-27.5 -3.5q-26 0 -42.5 9t-31.5 28zM166 0h-87v670q4 0 8 1q4 0 7.5 0.5t8.5 0.5q9 0 19.5 -2.5t20.5 -9t16.5 -19t6.5 -32.5v-609zM568 545 q0 45 20 85t49 57q17 10 32 10q24 0 35 -31q-19 -8 -39 -28.5t-25 -44.5q11 -8 25 -23t14 -38t-14 -40t-40 -17q-29 0 -43 20.5t-14 49.5z" />
<glyph horiz-adv-x="770" d="M610 133v537q3 0 7 1q3 0 7.5 0.5t9.5 0.5q9 0 19 -2.5t18.5 -9t14 -19t5.5 -32.5v-609h-81l-340 519v-519h-81v667q6 2 17 3.5t22 1.5q22 0 34.5 -7.5t23.5 -25.5zM125 634q0 -40 -19.5 -75t-45.5 -52q-13 -8 -28 -8q-25 0 -36 27q18 8 37 26t24 39q-10 7 -23.5 20.5 t-13.5 33.5t13.5 35.5t37.5 15.5q27 0 40.5 -18t13.5 -44z" />
<glyph horiz-adv-x="396" d="M102 537q-11 -7 -24 -13.5t-24 -6.5t-23.5 7.5t-19.5 18.5l128 97q20 14 34 14q15 0 28 -12.5t23 -26.5zM277 537q-11 -7 -24 -13.5t-24 -6.5t-23.5 7.5t-19.5 18.5l128 97q18 14 34 14q15 0 28 -12.5t23 -26.5z" />
<glyph horiz-adv-x="363" d="M244 -121q0 -22 -8.5 -39t-22 -28.5t-30.5 -17.5t-34 -6q-35 0 -35 31q0 5 1 14t4 19q7 -3 13.5 -4t12.5 -1q17 0 26.5 6t9.5 19q0 12 -6 20t-14 16t-14 16.5t-6 22.5q0 19 11.5 36.5t17.5 25.5h59q-14 -14 -21.5 -23.5t-7.5 -20.5q0 -10 5 -17t13 -14q9 -9 17.5 -21 t8.5 -34z" />
<glyph horiz-adv-x="383" d="M315 643q11 -7 23 -18.5t12 -23.5q0 -13 -12 -28q-13 -16 -33.5 -27.5t-47.5 -11.5q-20 0 -37 5.5t-33 12.5q-14 6 -27.5 10.5t-28.5 4.5q-20 0 -37.5 -12t-33.5 -31q-9 7 -18.5 18t-9.5 22q0 10 7 19.5t18 17.5q17 14 37 21.5t39 7.5q18 0 32.5 -5t27.5 -11 q14 -7 28 -12t31 -5q20 0 34.5 12t28.5 34z" />
<glyph horiz-adv-x="365" d="M196 -153q17 0 28.5 7.5t19.5 15.5q8 -8 14 -18.5t6 -21.5t-7 -18.5t-17.5 -13t-24 -8t-26.5 -2.5q-39 0 -64 20.5t-25 65.5q0 24 9 47t22.5 42t29 33t27.5 22l54 -5v-13q-14 -11 -27.5 -25.5t-24.5 -30t-18 -31.5t-7 -31q0 -35 31 -35z" />
<glyph horiz-adv-x="361" d="M286 601q0 -22 -7.5 -42t-21 -35t-33.5 -23.5t-44 -8.5t-44 8.5t-33.5 23.5t-21 34.5t-7.5 41.5q0 46 28.5 78t77.5 32t77.5 -30t28.5 -79zM234 600q0 23 -11.5 42.5t-43.5 19.5q-27 0 -39.5 -19t-12.5 -42q0 -24 13.5 -42t39.5 -18t40 17.5t14 41.5z" />
<glyph horiz-adv-x="372" d="M238 638q13 11 23.5 16.5t22.5 5.5q9 0 19 -4t18 -9l-87 -103q-22 -27 -48 -27t-50 29l-85 98q8 7 18 11.5t19 4.5q14 0 24 -6t19 -15l53 -48z" />
<glyph horiz-adv-x="368" d="M80 542q-26 0 -37 9t-11 32q0 12 4 27h246q23 0 38 -8t15 -34q0 -9 -0.5 -15t-1.5 -11h-253z" />
<glyph horiz-adv-x="383" d="M153 580q0 -23 -14 -38t-37 -15t-37 15t-14 38t14.5 38.5t36.5 15.5t36.5 -15.5t14.5 -38.5zM332 580q0 -23 -14 -38t-37 -15t-37 15t-14 38t14.5 38.5t36.5 15.5t36.5 -15.5t14.5 -38.5z" />
<glyph horiz-adv-x="359" d="M234 584q0 -24 -16 -41.5t-39 -17.5t-38.5 17.5t-15.5 41.5q0 26 15.5 43.5t38.5 17.5t39 -17.5t16 -43.5z" />
<glyph horiz-adv-x="372" d="M184 586l-53 -48q-9 -9 -19 -15t-24 -6q-9 0 -19 4.5t-18 11.5l85 98q24 29 50 29t48 -27l87 -103q-8 -5 -18 -9t-19 -4q-12 0 -22.5 5.5t-23.5 16.5z" />
<glyph horiz-adv-x="366" d="M178 537q-14 -8 -25.5 -13t-22.5 -5q-12 0 -26.5 8.5t-21.5 17.5l103 83q16 13 28.5 19.5t26.5 6.5q17 0 33.5 -12t25.5 -27z" />
<glyph horiz-adv-x="366" d="M66 615q9 15 25.5 27t33.5 12q14 0 26.5 -6.5t28.5 -19.5l103 -83q-7 -9 -20.5 -17.5t-27.5 -8.5q-11 0 -22.5 5t-25.5 13z" />
<glyph horiz-adv-x="374" d="M346 668q-14 -63 -51.5 -101.5t-102.5 -38.5q-67 0 -104 36t-52 105q6 4 18 7t20 3q12 0 20.5 -6.5t14.5 -23.5q13 -35 32 -48.5t51 -13.5q33 0 50.5 13t31.5 48q13 31 37 31q8 0 18 -3t17 -8z" />
<glyph horiz-adv-x="361" d="M187 -194q-7 -12 -19 -20t-28 -8q-6 0 -15.5 2t-14.5 5l46 111q8 20 20 33t36 13q11 0 23 -3t20 -7z" />
<glyph horiz-adv-x="181" d="M140 556q-2 -29 -13.5 -45.5t-41.5 -16.5h-11v142q0 15 2 28.5t8 23.5t17.5 16t29.5 6q5 0 10 -0.5t10 -1.5z" />
<glyph horiz-adv-x="361" d="M187 -194q-7 -12 -18.5 -20t-28.5 -8q-6 0 -15.5 2t-14.5 5l46 111q8 20 20 33t36 13q11 0 23 -3t20 -7z" />
<glyph horiz-adv-x="362" d="M199 584q-8 -18 -20.5 -32t-35.5 -14q-10 0 -22.5 3t-20.5 8l68 126q15 28 45 28q7 0 17.5 -2.5t15.5 -5.5z" />
</font>
</defs>
</svg>
