<?xml version="1.0" standalone="no"?>
<!DOCTYPE svg PUBLIC "-//W3C//DTD SVG 1.1//EN" "http://www.w3.org/Graphics/SVG/1.1/DTD/svg11.dtd" >
<svg xmlns="http://www.w3.org/2000/svg">
<metadata></metadata>
<defs>
<font id="foco_lightitalic" horiz-adv-x="320" >
<font-face units-per-em="1000" ascent="800" descent="-200" />
<missing-glyph horiz-adv-x="181" />
<glyph unicode="ff" horiz-adv-x="588" d="M471 467h157l-8 -47h-157l-72 -436q-6 -37 -15.5 -71t-27 -60.5t-45 -42.5t-69.5 -16q-19 0 -35 3.5t-28 8.5q-30 13 -30 32q0 7 1 11t6 9l11 14q17 -15 35 -22.5t41 -7.5q25 0 42 12t28 31.5t18 44t11 50.5l71 440h-226l-72 -436q-6 -37 -15.5 -71t-27 -60.5t-45 -42.5 t-69.5 -16q-19 0 -35 3.5t-28 8.5q-30 13 -30 32q0 7 1 11t6 9l11 14q17 -15 35 -22.5t41 -7.5q25 0 42 12t28 31.5t18 44t11 50.5l89 546q7 43 19 75.5t35 60.5q22 26 52 40.5t72 14.5q30 0 52 -7t36.5 -17.5t21.5 -22t7 -20.5q0 -11 -10 -20l-14 -12h-10q-15 29 -37 40 t-50 11q-26 0 -44 -8.5t-33 -26.5t-24.5 -46.5t-13.5 -51.5l-11 -69h226l10 59q7 43 19 75.5t35 60.5q22 26 53.5 40.5t73.5 14.5q30 0 52.5 -7t37.5 -17.5t22.5 -22t7.5 -20.5q0 -11 -10 -20l-14 -12h-10q-15 29 -38.5 40t-51.5 11q-51 0 -80 -35q-15 -18 -24.5 -46.5 t-13.5 -51.5z" />
<glyph unicode="fi" horiz-adv-x="465" d="M187 467h259l-62 -375q-2 -8 -2.5 -16t-0.5 -13q0 -20 8 -27.5t22 -7.5q13 0 25 4l4 -22q-29 -16 -55 -16q-32 0 -47.5 17t-15.5 42q0 11 1.5 21t3.5 24l53 322h-201l-72 -436q-6 -37 -15.5 -71t-27 -60.5t-45 -42.5t-69.5 -16q-19 0 -35 3.5t-28 8.5q-30 13 -30 32 q0 7 1 11t6 9l11 14q17 -15 35 -22.5t41 -7.5q25 0 42 12t28 31.5t18 44t11 50.5l89 546q7 43 20 75.5t36 60.5q22 26 58.5 40.5t78.5 14.5q32 0 57 -9t42 -21t26 -25t9 -22q0 -11 -10 -20l-14 -12h-10q-15 29 -41.5 45t-61.5 16q-26 0 -51 -8.5t-40 -26.5t-25.5 -46.5 t-14.5 -51.5z" />
<glyph unicode="fl" horiz-adv-x="465" d="M187 467h147l-8 -47h-147l-72 -436q-6 -37 -15.5 -71t-27 -60.5t-45 -42.5t-69.5 -16q-19 0 -35 3.5t-28 8.5q-30 13 -30 32q0 7 1 11t6 9l11 14q17 -15 35 -22.5t41 -7.5q25 0 42 12t28 31.5t18 44t11 50.5l89 546q6 40 19 74.5t36 60.5t57 41t84 15q30 0 53 -6t41 -14 t30 -17.5t20 -15.5l-95 -572q-2 -8 -2.5 -16t-0.5 -13q0 -20 8 -27.5t22 -7.5q13 0 25 4l4 -22q-29 -16 -55 -16q-32 0 -47.5 17t-15.5 42q0 11 1.5 21t3.5 24l90 546q-16 13 -38.5 19t-47.5 6q-33 0 -56.5 -10t-39 -28t-24.5 -42.5t-13 -52.5z" />
<glyph unicode="ffi" horiz-adv-x="749" d="M471 467h259l-62 -375q-2 -8 -2.5 -16t-0.5 -13q0 -20 8 -27.5t22 -7.5q13 0 25 4l4 -22q-29 -16 -55 -16q-32 0 -47.5 17t-15.5 42q0 11 1.5 21t3.5 24l53 322h-201l-72 -436q-6 -37 -15.5 -71t-27 -60.5t-45 -42.5t-69.5 -16q-19 0 -35 3.5t-28 8.5q-30 13 -30 32 q0 7 1 11t6 9l11 14q17 -15 35 -22.5t41 -7.5q25 0 42 12t28 31.5t18 44t11 50.5l71 440h-226l-72 -436q-6 -37 -15.5 -71t-27 -60.5t-45 -42.5t-69.5 -16q-19 0 -35 3.5t-28 8.5q-30 13 -30 32q0 7 1 11t6 9l11 14q17 -15 35 -22.5t41 -7.5q25 0 42 12t28 31.5t18 44 t11 50.5l89 546q7 43 19 75.5t35 60.5q22 26 52 40.5t72 14.5q30 0 52 -7t36.5 -17.5t21.5 -22t7 -20.5q0 -11 -10 -20l-14 -12h-10q-15 29 -37 40t-50 11q-26 0 -44 -8.5t-33 -26.5t-24.5 -46.5t-13.5 -51.5l-11 -69h226l10 59q7 43 20 75.5t36 60.5q22 26 58.5 40.5 t78.5 14.5q32 0 57 -9t42 -21t26 -25t9 -22q0 -11 -10 -20l-14 -12h-10q-15 29 -41.5 45t-61.5 16q-26 0 -51 -8.5t-40 -26.5t-25.5 -46.5t-14.5 -51.5z" />
<glyph unicode="ffl" horiz-adv-x="749" d="M423 526q6 40 19 74.5t36 60.5t57 41t84 15q30 0 53 -6t41 -14t30 -17.5t20 -15.5l-95 -572q-2 -8 -2.5 -16t-0.5 -13q0 -20 8 -27.5t22 -7.5q13 0 25 4l4 -22q-29 -16 -55 -16q-32 0 -47.5 17t-15.5 42q0 11 1.5 21t3.5 24l90 546q-16 13 -38.5 19t-47.5 6 q-33 0 -56 -10t-39 -28t-25 -42.5t-13 -52.5l-11 -69h147l-8 -47h-147l-72 -436q-6 -37 -15.5 -71t-27 -60.5t-45 -42.5t-69.5 -16q-19 0 -35 3.5t-28 8.5q-30 13 -30 32q0 7 1 11t6 9l11 14q17 -15 35 -22.5t41 -7.5q25 0 42 12t28 31.5t18 44t11 50.5l71 440h-226 l-72 -436q-6 -37 -15.5 -71t-27 -60.5t-45 -42.5t-69.5 -16q-19 0 -35 3.5t-28 8.5q-30 13 -30 32q0 7 1 11t6 9l11 14q17 -15 35 -22.5t41 -7.5q25 0 42 12t28 31.5t18 44t11 50.5l89 546q7 43 19 75.5t35 60.5q22 26 52 40.5t72 14.5q30 0 52 -7t36.5 -17.5t21.5 -22 t7 -20.5q0 -11 -10 -20l-14 -12h-10q-15 29 -37 40t-50 11q-26 0 -44 -8.5t-33 -26.5t-24.5 -46.5t-13.5 -51.5l-11 -69h226z" />
<glyph unicode="&#xd;" horiz-adv-x="162" />
<glyph unicode=" "  horiz-adv-x="181" />
<glyph unicode="&#x09;" horiz-adv-x="181" />
<glyph unicode="&#xa0;" horiz-adv-x="181" />
<glyph unicode="!" horiz-adv-x="206" d="M132 160q-5 -2 -13 -2q-18 0 -28 11.5t-10 28.5v4.5t1 6.5l76 461q5 1 12 1q18 0 28.5 -11.5t10.5 -28.5v-4.5t-1 -6.5zM89 87q17 0 27 -11.5t12 -27.5q2 -23 -11.5 -43t-39.5 -20q-18 0 -28 11t-12 27q-2 23 11.5 43.5t40.5 20.5z" />
<glyph unicode="&#x22;" horiz-adv-x="310" d="M284 449h-50l38 231q5 1 14 1q20 0 28.5 -13t8.5 -24q0 -3 -0.5 -8.5t-2.5 -15.5zM151 449h-50l38 231q5 1 14 1q20 0 28.5 -13t8.5 -24q0 -3 -0.5 -8.5t-2.5 -15.5z" />
<glyph unicode="#" horiz-adv-x="614" d="M403 191l-46 -162h-52l47 162h-139l-46 -162h-52l46 162h-130l12 45h131l48 167h-131l13 46h131l44 154h52l-44 -154h138l44 154h52l-44 -154h130l-13 -46h-130l-48 -167h130l-13 -45h-130zM412 403h-138l-48 -167h139z" />
<glyph unicode="$" horiz-adv-x="540" d="M245 -94h-49l14 88q-16 1 -34 4t-36 9t-34.5 13.5t-29.5 17.5q-14 11 -19 18.5t-5 18.5q0 14 9 21t17 12q28 -31 59 -46t82 -18l46 281q-24 13 -48.5 29t-44 37t-31.5 47.5t-12 59.5q0 39 14.5 69.5t40.5 52.5t61 34t77 13l15 92h49l-16 -94q40 -5 69.5 -22.5t41.5 -30.5 q8 -8 10 -14t2 -13q0 -18 -22 -31h-9q-16 23 -40 40t-60 22l-42 -255q29 -16 54.5 -33t44 -38t29 -47.5t10.5 -61.5q0 -42 -14.5 -75t-40.5 -57t-62.5 -38t-81.5 -16zM398 173q0 50 -21 78.5t-66 51.5l-43 -258q34 3 58.5 15t40.5 30t23.5 39.5t7.5 43.5zM186 503 q0 -22 6.5 -38.5t18 -30.5t28 -26t36.5 -24l39 235q-67 -1 -97.5 -34.5t-30.5 -81.5z" />
<glyph unicode="%" horiz-adv-x="730" d="M252 681q27 0 47 -10.5t33 -28.5t19.5 -41.5t6.5 -48.5q0 -39 -11 -78t-32 -70t-51.5 -50.5t-69.5 -19.5q-28 0 -48 10.5t-33 28.5t-19.5 41.5t-6.5 48.5q0 39 11 78t32 70t52 50.5t70 19.5zM246 635q-23 0 -42.5 -13.5t-33 -37.5t-21 -58t-7.5 -75q1 -38 17.5 -54.5 t39.5 -16.5q21 0 40 13.5t33 38t21.5 58t7.5 74.5q-1 37 -15.5 54t-39.5 17zM584 332q27 0 47 -10.5t33 -28.5t19.5 -41.5t6.5 -48.5q0 -39 -11 -78t-32 -70t-51.5 -50.5t-69.5 -19.5q-28 0 -48 10.5t-33 28.5t-19.5 41.5t-6.5 48.5q0 39 11 78t32 70t52 50.5t70 19.5z M578 286q-23 0 -42.5 -13.5t-33 -37.5t-21 -58t-7.5 -75q1 -38 17.5 -54.5t39.5 -16.5q21 0 40 13.5t33 38t21.5 58t7.5 74.5q-1 37 -15.5 54t-39.5 17zM571 644q14 20 25.5 28.5t28.5 8.5t28 -7l-467 -674h-60z" />
<glyph unicode="&#x26;" horiz-adv-x="594" d="M499 13q-13 14 -29 31t-33 37q-37 -43 -88.5 -68t-108.5 -25q-32 0 -64.5 9.5t-59 30t-43.5 53.5t-17 80q0 37 12.5 69.5t34 61t50.5 52.5t63 44q-17 36 -27.5 70t-10.5 64q0 37 11.5 66.5t32.5 50t49.5 31.5t62.5 11q22 0 40.5 -6.5t32.5 -16t23 -19.5t13 -17 q8 -16 8 -25q0 -14 -23 -29h-10q-14 34 -36.5 50t-51.5 16q-46 0 -70.5 -29.5t-24.5 -77.5q0 -36 16 -79t43.5 -89.5t63.5 -95t76 -95.5q14 32 21.5 66t7.5 63q0 41 -4.5 69t-14.5 59h150l-7 -42h-84q4 -16 7 -37t3 -41q0 -47 -11 -92.5t-33 -84.5q57 -65 111 -117 q-18 -17 -38 -17q-14 0 -23 3t-20 16zM404 118q-44 51 -88.5 110.5t-78.5 119.5q-54 -33 -87.5 -78.5t-33.5 -102.5q0 -32 10 -56t27.5 -40.5t41 -25t49.5 -8.5q49 0 90 21.5t70 59.5z" />
<glyph unicode="'" horiz-adv-x="177" d="M151 449h-50l38 231q5 1 14 1q20 0 28.5 -13t8.5 -24q0 -3 -0.5 -8.5t-2.5 -15.5z" />
<glyph unicode="(" horiz-adv-x="253" d="M324 708q-51 -56 -85.5 -123t-56 -140t-31 -149.5t-9.5 -150.5q0 -45 4.5 -87t11.5 -77t15.5 -61.5t16.5 -40.5q-5 -2 -10 -3.5t-12 -1.5q-14 0 -22.5 6t-16.5 18q-4 6 -12.5 26.5t-17 53.5t-15 76.5t-6.5 96.5q0 122 21 215t49.5 159t57 106.5t44.5 58.5q24 27 51 27 q14 0 23 -9z" />
<glyph unicode=")" horiz-adv-x="253" d="M-29 -117q51 56 85.5 123t56 140t31 149.5t9.5 150.5q0 45 -4.5 87t-11.5 77t-15.5 61.5t-16.5 40.5q5 2 10 3.5t12 1.5q14 0 22.5 -6t16.5 -18q4 -6 12.5 -26.5t17 -53.5t15 -77t6.5 -96q0 -122 -21 -215t-49.5 -159t-57 -106.5t-44.5 -58.5q-24 -27 -51 -27 q-14 0 -23 9z" />
<glyph unicode="*" horiz-adv-x="354" d="M377 605q0 -9 -4 -16t-12 -9l-63 -19q-2 -1 -6.5 -2t-7.5 -1q-5 0 -8.5 4.5t-3.5 9.5q0 6 4 10l54 54q7 7 15 7q14 0 23 -13t9 -25zM260 686q0 -3 -1 -8t-2 -8l-16 -67q-3 -10 -13 -10t-13 10l-16 68q-3 9 -3 13q0 11 7.5 19.5t24.5 8.5t24.5 -8t7.5 -18zM377 470 q0 -11 -4 -20q-9 -18 -28 -18q-5 0 -10.5 3t-8.5 7l-50 52q-4 4 -4 10q0 5 3 9.5t8 4.5q2 0 6 -1t6 -2l65 -20q17 -6 17 -25zM183 572q0 -5 -3.5 -9.5t-8.5 -4.5q-3 0 -7.5 1t-6.5 2l-62 20q-8 2 -12 9t-4 16q0 12 9 25t23 13q8 0 15 -7l53 -55q4 -4 4 -10zM259 390 q0 -10 -8.5 -18t-23.5 -8q-14 0 -23 8t-9 19q0 3 3 14l17 68q3 10 13 10q9 0 12 -10l15 -64q2 -5 3 -10.5t1 -8.5zM183 504q0 -6 -4 -10l-54 -54q-7 -7 -15 -7q-14 0 -23 13t-9 25q0 9 4 16t12 9l64 19q2 1 6.5 2t6.5 1q6 0 9 -4.5t3 -9.5z" />
<glyph unicode="+" horiz-adv-x="540" d="M230 153l26 159h-148l9 51h147l27 160h53l-26 -160h148l-9 -51h-147l-27 -159h-53z" />
<glyph unicode="," horiz-adv-x="198" d="M12 -86q22 11 43 28.5t26 45.5q-11 4 -19 13.5t-8 25.5q0 26 14 42t34 16t30 -12.5t10 -32.5t-6 -40.5t-15.5 -39t-22.5 -34t-28 -24.5q-7 -5 -15 -8t-16 -3q-9 0 -17 5.5t-10 17.5z" />
<glyph unicode="-" horiz-adv-x="404" d="M123 242q-22 0 -31 8.5t-9 25.5q0 2 0.5 6.5t2.5 11.5h226q22 0 31 -8.5t9 -25.5q0 -2 -0.5 -6.5t-2.5 -11.5h-226z" />
<glyph unicode="." horiz-adv-x="197" d="M93 87q17 0 27 -11.5t12 -27.5q2 -23 -11.5 -43t-39.5 -20q-18 0 -28 11t-12 27q-2 23 11.5 43.5t40.5 20.5z" />
<glyph unicode="/" horiz-adv-x="333" d="M50 0h-60l336 633q11 20 22 30t29 10q6 0 12 -1.5t14 -6.5z" />
<glyph unicode="0" horiz-adv-x="540" d="M246 37q46 0 86 30.5t69.5 84.5t46 127.5t16.5 159.5q0 37 -7 70t-21.5 57t-37.5 38t-54 14q-47 0 -86.5 -31.5t-68 -86t-44.5 -128.5t-16 -158q0 -37 6.5 -69t21 -56t36.5 -38t53 -14zM244 -15q-50 0 -84 20.5t-55 53.5t-30 75.5t-9 87.5q0 76 17.5 155.5t52.5 144.5 t88.5 106.5t124.5 41.5q49 0 83 -20.5t55 -54t30.5 -76.5t9.5 -89q0 -78 -18 -157.5t-53 -143.5t-88.5 -104t-123.5 -40z" />
<glyph unicode="1" horiz-adv-x="540" d="M250 0l97 590l-159 -85q-5 8 -8.5 16t-3.5 16q0 11 6 16.5t17 11.5l166 93q14 7 26 7q17 0 26 -12l-108 -653h-59z" />
<glyph unicode="2" horiz-adv-x="540" d="M53 0l7 49q36 29 85.5 70t100.5 91q41 40 75 77t59 73t38.5 71t13.5 73q0 60 -31.5 87t-85.5 27q-42 0 -83 -22t-69 -61h-8q-10 6 -16.5 13t-6.5 17q0 18 21 38q12 12 29 24t38.5 21.5t46.5 16t53 6.5q87 0 130 -43t43 -117q0 -48 -17.5 -92.5t-47 -85.5t-66.5 -80 t-75 -75q-44 -42 -83.5 -74.5t-65.5 -53.5h279q21 0 29.5 -8t8.5 -25v-6t-2 -11h-400z" />
<glyph unicode="3" horiz-adv-x="540" d="M309 671q43 0 75 -11.5t54 -31.5t33 -47.5t11 -60.5q0 -31 -11 -58t-30 -49t-44.5 -39t-53.5 -27q51 -23 76.5 -61.5t25.5 -87.5q0 -44 -14.5 -82.5t-43 -67.5t-71.5 -46t-101 -17q-32 0 -58 6t-46 14.5t-34.5 19t-23.5 19.5q-14 14 -14 28q0 11 6 19t21 21 q27 -35 63 -55t90 -20q25 0 54 7.5t53 25t40 47.5t16 75q0 34 -11.5 58.5t-29.5 40.5t-40.5 23t-43.5 7h-29l8 49h26q19 0 46 8.5t52.5 26.5t43.5 45.5t18 65.5q0 44 -27.5 73t-91.5 29q-41 0 -77.5 -18.5t-67.5 -56.5h-8q-24 13 -24 29q0 12 7.5 21t13.5 15q9 9 25 19.5 t37 20.5t46.5 16.5t53.5 6.5z" />
<glyph unicode="4" horiz-adv-x="540" d="M360 231l56 331l-286 -331h230zM446 231q21 0 29.5 -7.5t8.5 -24.5v-6t-2 -11h-74l-30 -182h-57l30 182h-294l6 43l360 420q17 20 39 20q8 0 14 -2t11 -4l-71 -428h30z" />
<glyph unicode="5" horiz-adv-x="540" d="M241 -15q-32 0 -58 6t-46 14.5t-34 19t-23 19.5q-14 14 -14 28q0 11 7.5 21t19.5 19q27 -35 62.5 -55t89.5 -20q30 0 59.5 9t52 30.5t36.5 58t14 90.5q0 64 -37.5 102t-103.5 38q-38 0 -62.5 -5.5t-51.5 -13.5l-15 9l60 308h300q0 -23 -9.5 -37.5t-36.5 -14.5h-210 l-39 -206q13 3 35 6.5t52 3.5q41 0 74.5 -15t57 -40.5t36.5 -59.5t13 -71q0 -51 -15 -95.5t-44 -77.5t-72 -52t-98 -19z" />
<glyph unicode="6" horiz-adv-x="540" d="M85 207q1 85 25 168t71.5 149t118.5 106.5t167 40.5q33 0 33 -24q0 -5 -1.5 -12t-5.5 -15h-31q-42 0 -81.5 -10.5t-73.5 -33.5q-48 -32 -86 -83.5t-55 -117.5q13 13 31 23.5t38.5 18t41 11.5t38.5 3q42 -2 75 -17.5t55.5 -42t34 -62t10.5 -75.5q-1 -44 -14.5 -88.5 t-41.5 -80t-69.5 -58t-97.5 -22.5q-40 0 -73.5 15t-58 43.5t-38 70t-12.5 93.5zM143 209q-1 -47 9.5 -79.5t29 -53.5t42 -30.5t47.5 -9.5q65 0 110 50t47 147q1 66 -32 106.5t-90 40.5q-23 0 -46 -6.5t-43 -16.5t-36 -23.5t-26 -26.5q-5 -18 -8.5 -39.5t-3.5 -58.5z" />
<glyph unicode="7" horiz-adv-x="540" d="M111 610q0 21 9.5 37t35.5 16h342q15 0 22 -5t5 -20l-2 -13l-347 -625h-66l339 610h-338z" />
<glyph unicode="8" horiz-adv-x="540" d="M379 349q52 -23 80.5 -62.5t28.5 -87.5q0 -53 -18.5 -93t-49.5 -67t-71.5 -40.5t-85.5 -13.5q-43 0 -79 12.5t-61.5 35t-40 54.5t-14.5 70q0 39 12.5 70.5t34 55.5t49.5 41t58 27q-49 28 -68 61t-19 69q0 46 17 81.5t45.5 59.5t64.5 36.5t74 12.5q39 0 71.5 -11.5t55 -32 t35 -48.5t12.5 -61q0 -35 -11 -62.5t-29.5 -48t-42 -35t-48.5 -23.5zM263 34q33 0 63 10.5t52 30.5t35 50.5t13 71.5q0 26 -10 49t-27.5 40t-41.5 27t-53 10q-31 0 -60.5 -11t-53 -32t-37.5 -52t-14 -71q0 -54 35.5 -88.5t98.5 -34.5zM334 622q-61 0 -101.5 -34.5 t-40.5 -104.5q0 -22 9 -41.5t24.5 -34.5t36.5 -23.5t45 -8.5q27 0 53 9t46 26.5t32.5 44.5t12.5 63q0 45 -30.5 74.5t-86.5 29.5z" />
<glyph unicode="9" horiz-adv-x="540" d="M500 451q-2 -85 -24 -168.5t-67.5 -149.5t-115 -107t-165.5 -41q-33 0 -33 24q0 13 7 28h31q109 0 182 66.5t105 184.5q-13 -14 -31 -25.5t-38 -19.5t-40.5 -12t-38.5 -3q-42 1 -75.5 17t-56.5 42t-35 61t-11 76q1 44 15 88t42 79.5t69.5 57.5t97.5 22q40 0 73.5 -15 t58 -43t38 -69t12.5 -93zM442 449q0 46 -11 79t-29 53t-41 29.5t-47 9.5q-65 0 -110.5 -49t-47.5 -146q-1 -66 33.5 -106t91.5 -40q23 0 46 6.5t42.5 18t35.5 25.5t26 29q5 18 8 37t3 54z" />
<glyph unicode=":" horiz-adv-x="197" d="M93 87q17 0 27 -11.5t12 -27.5q2 -23 -11.5 -43t-39.5 -20q-18 0 -28 11t-12 27q-2 23 11.5 43.5t40.5 20.5zM153 465q17 0 27 -11.5t12 -27.5q2 -23 -11.5 -43t-39.5 -20q-18 0 -28 11t-12 27q-2 23 11.5 43.5t40.5 20.5z" />
<glyph unicode=";" horiz-adv-x="197" d="M-2 -86q22 11 43 28.5t26 45.5q-11 4 -19 13.5t-8 25.5q0 26 14 42t34 16t30 -12.5t10 -32.5t-6 -40.5t-15.5 -39t-22.5 -34t-28 -24.5q-7 -5 -15 -8t-16 -3q-9 0 -17 5.5t-10 17.5zM153 465q17 0 27 -11.5t12 -27.5q2 -23 -11.5 -43t-39.5 -20q-18 0 -28 11t-12 27 q-2 23 11.5 43.5t40.5 20.5z" />
<glyph unicode="&#x3c;" horiz-adv-x="540" d="M493 521l-11 -63l-310 -138l264 -144l-8 -57l-322 181l7 45z" />
<glyph unicode="=" horiz-adv-x="540" d="M94 223l9 51h349l-9 -51h-349zM122 397l9 51h349l-9 -51h-349z" />
<glyph unicode="&#x3e;" horiz-adv-x="540" d="M85 124l11 63l310 138l-264 144l8 57l322 -181l-7 -45z" />
<glyph unicode="?" horiz-adv-x="403" d="M157 87q17 0 27 -11.5t12 -27.5q2 -23 -11.5 -43t-39.5 -20q-18 0 -28 11t-12 27q-2 23 11.5 43.5t40.5 20.5zM110 571q-7 6 -11.5 12t-5.5 14q-1 7 2.5 14.5t8.5 13.5q7 9 20.5 18.5t33 18t44.5 14t55 5.5q70 0 114 -38t44 -106q0 -34 -9 -61.5t-26 -53.5t-42 -51.5 t-57 -55.5q-17 -15 -32.5 -30.5t-27.5 -32.5t-19 -36.5t-7 -43.5q-5 -1 -8.5 -1h-5.5q-33 0 -33 35q0 38 27 71.5t62 68.5q26 25 47.5 46.5t37.5 43t24.5 45.5t8.5 54q0 49 -30 72t-74 23q-80 0 -131 -59h-10z" />
<glyph unicode="@" horiz-adv-x="693" d="M390 220q-18 3 -35.5 3.5t-30.5 0.5q-36 0 -65.5 -11.5t-51.5 -32t-34 -49.5t-12 -65q0 -37 12.5 -63t35.5 -43t55 -25t70 -8q71 0 121.5 32.5t82.5 85t46.5 120t14.5 138.5q0 61 -17 111.5t-50.5 87t-83 56.5t-113.5 20q-72 0 -138.5 -32t-115.5 -89h-8l-10 9 q-12 10 -12 21q0 9 5.5 16t13.5 16q16 17 42.5 36.5t62 36t78 27.5t90.5 11q75 0 133.5 -25.5t98.5 -69.5t61 -104.5t21 -129.5q0 -88 -21 -165t-62.5 -134.5t-102 -90.5t-139.5 -33q-49 0 -90.5 12t-72 35.5t-47.5 58.5t-17 82q0 48 19 85.5t50.5 63t70.5 38.5t80 13h15.5 t20 -0.5t20.5 -1.5t17 -2l2 12q2 11 3 22t1 21q0 39 -20 62.5t-71 23.5q-30 0 -63 -16t-59 -48h-8l-10 9q-9 9 -9 20t10 21q26 27 65 44.5t82 17.5q72 0 105 -37t33 -93q0 -20 -5 -45l-26 -138q-2 -8 -2.5 -16t-0.5 -13q0 -20 8 -27.5t22 -7.5q13 0 25 4l4 -22 q-29 -16 -55 -16q-32 0 -46 17t-14 42q0 11 1 21t4 24z" />
<glyph unicode="A" horiz-adv-x="528" d="M433 0l-32 187h-265l-91 -187h-59l333 664q14 7 28 7q12 0 19.5 -7t9.5 -17l116 -647h-59zM331 585l-169 -348h230z" />
<glyph unicode="B" horiz-adv-x="521" d="M53 0l111 667q17 2 32.5 3.5t32 3t35 2t42.5 0.5q49 0 85 -11t59 -30t34 -45.5t11 -56.5q0 -46 -13.5 -78.5t-33.5 -55t-42.5 -35t-40.5 -18.5q14 -2 33.5 -11.5t37 -26.5t29.5 -41.5t12 -56.5q0 -56 -17.5 -95.5t-50.5 -65t-80.5 -37.5t-107.5 -12h-168zM433 519 q0 57 -30.5 82.5t-100.5 25.5q-20 0 -46 -1.5t-43 -3.5l-42 -253h99q42 0 72.5 12t50.5 33t30 48t10 57zM413 204q0 31 -12 53t-32.5 36t-47.5 20.5t-56 6.5h-102l-45 -271h109q93 0 139.5 36t46.5 119z" />
<glyph unicode="C" horiz-adv-x="534" d="M395 629q-58 0 -105.5 -30t-81 -81t-51.5 -118.5t-18 -142.5q0 -46 10.5 -86t31 -70t52 -47t73.5 -17q52 0 94.5 20t80.5 57l12 -13q11 -11 11 -22q0 -14 -8 -22.5t-23 -19.5q-23 -17 -67 -34.5t-104 -17.5q-62 0 -105 22.5t-69.5 60.5t-38.5 87.5t-12 102.5q0 78 21 154 t62 135.5t102 96.5t142 37q36 0 62.5 -7.5t45.5 -17.5t31 -21t18 -18q15 -18 15 -32q0 -5 -3.5 -14t-23.5 -22h-9q-27 49 -64 64.5t-81 15.5z" />
<glyph unicode="D" horiz-adv-x="589" d="M53 0l110 667q45 5 78.5 7t66.5 2q76 0 125.5 -20.5t79 -54.5t41.5 -78.5t12 -92.5q0 -95 -22.5 -174t-68.5 -136t-115.5 -88.5t-162.5 -31.5h-144zM504 430q0 42 -10 78t-32.5 62t-59 41t-90.5 15h-23.5t-27.5 -1t-26.5 -2t-19.5 -2l-95 -572h81q84 0 142 31.5t94 84.5 t51.5 122t15.5 143z" />
<glyph unicode="E" horiz-adv-x="452" d="M373 50q21 0 29.5 -8t8.5 -25v-6t-2 -11h-356l111 669h337q0 -21 -8.5 -35.5t-34.5 -14.5h-242l-41 -244h211l-8 -50h-211l-46 -275h252z" />
<glyph unicode="F" horiz-adv-x="429" d="M53 0l111 669h337q0 -21 -8.5 -35.5t-34.5 -14.5h-242l-42 -247h211l-8 -50h-211l-53 -322h-60z" />
<glyph unicode="G" horiz-adv-x="602" d="M395 629q-58 0 -105.5 -30t-81 -81t-51.5 -118.5t-18 -142.5q0 -46 10.5 -86t31 -70t52 -47t73.5 -17q60 0 99 20t62 42l32 188h-140l9 50h198l-42 -251q-15 -19 -36.5 -37t-49.5 -32.5t-62 -23t-74 -8.5q-62 0 -105 22.5t-69.5 60.5t-38.5 87.5t-12 102.5q0 78 21 154 t62 135.5t102 96.5t142 37q36 0 62.5 -7.5t45.5 -17.5t31 -21t18 -18q15 -18 15 -32q0 -5 -3.5 -14t-23.5 -22h-9q-27 49 -64 64.5t-81 15.5z" />
<glyph unicode="H" horiz-adv-x="598" d="M490 0h-59l53 321h-319l-53 -321h-59l110 670q5 1 12 1q18 0 29 -11.5t11 -28.5v-4.5t-1 -6.5l-41 -249h319l50 299q5 1 12 1q18 0 29 -11.5t11 -28.5v-4.5t-1 -6.5z" />
<glyph unicode="I" horiz-adv-x="217" d="M112 0h-59l111 670q5 1 12 1q18 0 28.5 -11.5t10.5 -28.5v-4.5t-1 -6.5z" />
<glyph unicode="J" horiz-adv-x="218" d="M116 23q-5 -32 -15 -66t-29 -62t-49.5 -46.5t-76.5 -18.5q-24 0 -30.5 7.5t-6.5 23.5q0 5 2 10.5t4 9.5q8 -2 12 -2h7q31 0 52 10.5t34.5 29t21.5 43.5t13 54l109 654q5 1 12 1q18 0 28.5 -11.5t10.5 -28.5v-4.5t-1 -6.5z" />
<glyph unicode="K" horiz-adv-x="489" d="M467 646q14 14 27.5 19.5t24.5 5.5q19 0 34 -12l-304 -300l211 -363q-9 -3 -15.5 -4t-14.5 -1q-20 0 -32.5 6.5t-23.5 26.5l-188 323l4 25zM112 0h-59l111 670q5 1 12 1q18 0 28.5 -11.5t10.5 -28.5v-4.5t-1 -6.5z" />
<glyph unicode="L" horiz-adv-x="426" d="M53 0l110 670q5 1 13 1q18 0 28.5 -11.5t10.5 -28.5v-4.5t-1 -6.5l-94 -570h239q21 0 29.5 -8t8.5 -25v-6t-2 -11h-342z" />
<glyph unicode="M" horiz-adv-x="715" d="M182 666q10 5 27 5q16 0 24 -7t13 -23l115 -423l254 421q13 22 26.5 27t24.5 5q8 0 16 -1t13 -4l-62 -666h-58l57 571l-250 -411h-59l-111 401l-126 -561h-57z" />
<glyph unicode="N" horiz-adv-x="608" d="M502 0h-57l-244 568l-92 -568h-56l110 666q8 3 13.5 4t11.5 1q13 0 22 -5.5t16 -20.5l236 -556l94 581q5 1 12 1q18 0 28 -11.5t10 -28.5v-4.5t-1 -6.5z" />
<glyph unicode="O" horiz-adv-x="625" d="M286 36q58 0 105 32.5t80 87t51 125t18 145.5q0 39 -8.5 76t-26.5 65.5t-46.5 45.5t-69.5 17q-59 0 -105.5 -33t-78.5 -87t-49 -124.5t-17 -145.5q0 -39 8 -76t25.5 -65.5t45.5 -45.5t68 -17zM284 -15q-57 0 -96.5 22t-64 58t-35.5 82t-11 94q0 78 19.5 156.5t59 141.5 t99 102.5t140.5 39.5q57 0 96.5 -22t64 -58t35.5 -82t11 -94q0 -78 -19.5 -156.5t-59 -141.5t-99 -102.5t-140.5 -39.5z" />
<glyph unicode="P" horiz-adv-x="487" d="M157 272l-45 -272h-57l111 667q31 4 63.5 6.5t74.5 2.5q51 0 89.5 -13.5t64 -36.5t38 -53.5t12.5 -64.5q0 -64 -21.5 -109t-58 -73t-85.5 -41t-104 -13h-82zM446 507q0 58 -37.5 89t-109.5 31q-21 0 -43.5 -1.5t-40.5 -3.5l-50 -300h85q102 0 149 47t47 138z" />
<glyph unicode="Q" horiz-adv-x="625" d="M493 -95q-2 -22 -12 -40t-31 -18q-25 0 -49 11t-46 27.5t-41.5 34.5t-34.5 33q7 8 19 10.5t23 -1.5q13 -5 29 -14.5t36 -19t46.5 -16.5t60.5 -7zM286 36q58 0 105 32.5t80 87t51 125t18 145.5q0 39 -8.5 76t-26.5 65.5t-46.5 45.5t-69.5 17q-59 0 -105.5 -33t-78.5 -87 t-49 -124.5t-17 -145.5q0 -39 8 -76t25.5 -65.5t45.5 -45.5t68 -17zM284 -15q-57 0 -96.5 22t-64 58t-35.5 82t-11 94q0 78 19.5 156.5t59 141.5t99 102.5t140.5 39.5q57 0 96.5 -22t64 -58t35.5 -82t11 -94q0 -78 -19.5 -156.5t-59 -141.5t-99 -102.5t-140.5 -39.5z" />
<glyph unicode="R" horiz-adv-x="494" d="M443 -3q-14 -6 -30 -6q-22 0 -32.5 12t-18.5 32l-107 258h-97l-48 -293h-57l111 668q25 3 42 4.5t32 2t29.5 1t35.5 0.5q46 1 82.5 -12t61.5 -35t38 -51t13 -61q0 -94 -49.5 -146.5t-132.5 -69.5zM436 507q0 65 -40 92.5t-105 27.5q-22 0 -40 -1t-38 -3l-47 -281h75 q42 0 78 9t62 28.5t40.5 51t14.5 76.5z" />
<glyph unicode="S" horiz-adv-x="457" d="M442 631q14 -13 14 -28q0 -19 -23 -34h-9q-25 34 -59 47.5t-72 13.5q-29 0 -54 -8.5t-43.5 -23.5t-29 -35.5t-10.5 -45.5q0 -30 10.5 -51.5t29 -38t43 -31.5t52.5 -33q24 -15 47.5 -32t42 -38t29.5 -48t11 -63q0 -49 -17 -86t-47 -61.5t-71.5 -37t-90.5 -12.5 q-40 0 -76 10.5t-64 28.5q-27 17 -27 38q0 18 25 36q29 -29 63 -45t85 -16q41 0 70.5 11t48.5 29.5t28 43.5t9 53q0 34 -11 57t-29 40.5t-41 30.5t-47 28t-48 31t-43 36.5t-30.5 47t-11.5 62.5q0 41 17 73t45.5 54.5t65.5 34.5t77 12q28 0 51 -5.5t41 -13t30 -16.5t19 -15z " />
<glyph unicode="T" horiz-adv-x="495" d="M565 669q0 -21 -8.5 -35.5t-34.5 -14.5h-171l-102 -619h-59l102 619h-205q0 21 8.5 35.5t34.5 14.5h435z" />
<glyph unicode="U" horiz-adv-x="568" d="M519 251q-8 -52 -22.5 -100t-41.5 -85t-70.5 -59t-109.5 -22q-103 0 -151 49.5t-48 140.5q0 20 3 47.5t7 50.5l65 397q5 1 12 1q18 0 29 -11.5t11 -28.5v-4.5t-1 -6.5l-59 -358q-4 -21 -5 -48t-1 -45q0 -27 7.5 -51.5t24 -42.5t42.5 -29t64 -11q79 0 123.5 52t61.5 158 l70 425q5 1 12 1q18 0 28.5 -11.5t10.5 -28.5v-4.5t-1 -6.5z" />
<glyph unicode="V" horiz-adv-x="523" d="M267 0h-60l-113 668q13 3 25 3q20 0 29.5 -12t13.5 -35l86 -555l264 564q9 20 22 29t35 9q7 0 12.5 -0.5t10.5 -1.5z" />
<glyph unicode="W" horiz-adv-x="771" d="M562 0h-68l-56 415l-183 -415h-67l-94 668q13 3 25 3q20 0 29.5 -12t12.5 -35l73 -551l192 433l-19 162q8 2 12.5 2.5t10.5 0.5q20 0 27.5 -12t10.5 -34l70 -553l225 561q15 38 56 38q7 0 11.5 -0.5t9.5 -1.5z" />
<glyph unicode="X" horiz-adv-x="482" d="M441 -2q-15 -7 -28 -7q-20 0 -30 8.5t-18 29.5l-103 267l-206 -296h-65l245 350l-123 314q17 7 26 7q20 0 30.5 -8.5t18.5 -29.5l91 -237l164 231q15 21 29.5 32.5t34.5 11.5q14 0 27 -7l-230 -321z" />
<glyph unicode="Y" horiz-adv-x="459" d="M282 290l-48 -290h-59l47 286l-128 378q17 7 29 7q17 0 27.5 -8.5t17.5 -29.5l92 -286l181 280q17 26 29 35t33 9q12 0 25 -7z" />
<glyph unicode="Z" horiz-adv-x="465" d="M392 50q21 0 29.5 -8t8.5 -25v-6t-2 -11h-435l6 42q106 148 218 289.5t234 287.5h-354q0 21 8.5 35.5t34.5 14.5h360q17 0 24 -5t7 -19q0 -8 -3.5 -14t-6.5 -10q-114 -132 -229 -275.5t-224 -295.5h324z" />
<glyph unicode="[" horiz-adv-x="249" d="M11 -136l142 853h164l-8 -48h-108l-124 -757h107l-8 -48h-165z" />
<glyph unicode="\" horiz-adv-x="325" d="M84 666q9 5 16.5 6t12.5 1q14 0 21.5 -7.5t12.5 -27.5l137 -638h-57z" />
<glyph unicode="]" horiz-adv-x="249" d="M274 717l-142 -853h-164l8 48h108l124 757h-107l8 48h165z" />
<glyph unicode="^" horiz-adv-x="404" d="M336 310l-68 296l-159 -296h-59l195 350q5 8 14 14.5t22 6.5t19 -6.5t8 -14.5l84 -350h-56z" />
<glyph unicode="_" horiz-adv-x="417" d="M4 -144v44h347v-44h-347z" />
<glyph unicode="`" horiz-adv-x="340" d="M96 653q6 6 16 11.5t21 5.5q15 0 23.5 -5t17.5 -20l70 -114q-3 -4 -10.5 -7.5t-15.5 -3.5q-19 0 -30 14z" />
<glyph unicode="a" horiz-adv-x="465" d="M301 428q-39 0 -73 -22.5t-59.5 -60.5t-40 -87.5t-14.5 -103.5t23 -84.5t75 -30.5q13 0 33 6.5t40 22.5t36.5 41t22.5 63l39 237q-14 8 -32 13.5t-50 5.5zM388 92q-2 -8 -2.5 -16t-0.5 -13q0 -20 8 -27.5t22 -7.5q13 0 25 4l4 -22q-29 -16 -55 -16q-32 0 -46.5 17 t-14.5 42v7q-23 -30 -56.5 -51.5t-72.5 -21.5q-38 0 -65 13t-44.5 35.5t-26 53.5t-8.5 67q0 54 17 110.5t49 103t78.5 76t105.5 29.5q24 0 46 -5t40 -12.5t31.5 -15.5t21.5 -14z" />
<glyph unicode="b" horiz-adv-x="480" d="M195 32q46 0 83.5 22.5t64 59t41 84t14.5 97.5q0 63 -23 95.5t-77 32.5q-16 0 -38 -7t-43.5 -23t-38.5 -42t-23 -63l-40 -239q19 -11 37.5 -14t42.5 -3zM174 404q27 31 64 51t74 20q39 0 66.5 -14.5t45.5 -39t26 -58t8 -72.5q0 -51 -17 -105t-50 -98.5t-83 -73.5 t-116 -29q-42 0 -75 12t-63 30l112 683q5 1 12 1q18 0 28.5 -11.5t10.5 -28.5v-4.5t-1 -6.5z" />
<glyph unicode="c" horiz-adv-x="408" d="M367 82q9 -9 9 -20q0 -13 -8.5 -21.5t-22.5 -19.5q-19 -14 -50.5 -25t-66.5 -11q-30 0 -60 8.5t-55 29.5t-40.5 57t-15.5 91q0 71 21.5 127.5t56 95.5t78 60t87.5 21q49 0 78.5 -16.5t44.5 -37.5q9 -13 9 -24q0 -12 -4.5 -16t-9.5 -9l-12 -10h-8q-12 34 -39 49.5 t-65 15.5q-34 0 -66 -19.5t-56.5 -53t-39 -79.5t-14.5 -99q0 -65 28.5 -104t88.5 -39q34 0 62 14t56 48z" />
<glyph unicode="d" horiz-adv-x="478" d="M299 427q-40 0 -74 -22t-58.5 -59t-38.5 -84t-14 -97q0 -63 23 -94.5t77 -31.5q16 0 38 6.5t43.5 22.5t39 41t23.5 63l38 227q-17 13 -38 20.5t-59 7.5zM402 92q-2 -8 -2.5 -16t-0.5 -13q0 -20 8 -27.5t22 -7.5q13 0 25 4l4 -22q-29 -16 -55 -16q-32 0 -46.5 17t-14.5 42 v7q-27 -32 -65.5 -52.5t-76.5 -20.5q-39 0 -66.5 13.5t-45.5 37.5t-26 57.5t-8 73.5q0 51 16.5 105t48 98.5t78 73.5t106.5 29q29 0 56.5 -10t43.5 -21l43 266q5 1 12 1q18 0 28.5 -11.5t10.5 -28.5v-4.5t-1 -6.5z" />
<glyph unicode="e" horiz-adv-x="432" d="M227 -15q-30 0 -60 8.5t-54.5 29.5t-40 57t-15.5 91q0 71 22 127.5t57 95.5t79.5 60t88.5 21q59 0 90.5 -29t31.5 -81q0 -44 -23 -75.5t-60 -52.5t-83 -31t-92 -10h-27t-26 1v-21q0 -69 31 -106t88 -37q38 0 70.5 15t60.5 50l13 -13q4 -4 7 -9t3 -11q0 -14 -8.5 -22 t-22.5 -19q-20 -14 -51 -26.5t-79 -12.5zM150 237q49 0 89.5 9t69 25.5t44 40t15.5 53.5q0 26 -14 44.5t-52 18.5q-34 0 -64 -15t-53.5 -40.5t-40 -60t-23.5 -74.5q8 -1 16 -1h13z" />
<glyph unicode="f" horiz-adv-x="304" d="M187 467h157l-8 -47h-157l-72 -436q-6 -37 -15.5 -71t-27 -60.5t-45 -42.5t-69.5 -16q-19 0 -35 3.5t-28 8.5q-30 13 -30 32q0 7 1 11t6 9l11 14q17 -15 35 -22.5t41 -7.5q25 0 42 12t28 31.5t18 44t11 50.5l89 546q7 43 19 75.5t35 60.5q22 26 53.5 40.5t73.5 14.5 q30 0 52.5 -7t37.5 -17.5t22.5 -22t7.5 -20.5q0 -11 -10 -20l-14 -12h-10q-15 29 -38.5 40t-51.5 11q-51 0 -80 -35q-15 -18 -24.5 -46.5t-13.5 -51.5z" />
<glyph unicode="g" horiz-adv-x="470" d="M301 428q-39 0 -73 -23t-59.5 -60t-40 -84t-14.5 -96q0 -63 24 -95.5t78 -32.5q17 0 38.5 7t41.5 23t36.5 41.5t22.5 63.5l39 235q-21 14 -43 17.5t-50 3.5zM161 -179q38 0 67 14t49 38.5t33 59t20 76.5l8 50q-26 -32 -60 -53t-76 -21q-40 0 -68 14t-46 38.5t-26 58 t-8 73.5q0 51 17.5 105t50 98.5t79 73.5t104.5 29q52 0 89.5 -16t60.5 -33l-70 -422q-19 -114 -75.5 -172.5t-153.5 -58.5q-31 0 -61.5 7t-53.5 23q-14 11 -22.5 19.5t-8.5 21.5q0 6 3 11t7 9l14 15q28 -34 57.5 -46t69.5 -12z" />
<glyph unicode="h" horiz-adv-x="491" d="M174 403q27 31 66.5 51.5t85.5 20.5q34 0 58 -11t39 -29t22 -42t7 -50q0 -17 -2 -35.5t-5 -35.5l-45 -272h-58l45 272q2 14 4.5 32.5t2.5 34.5q0 41 -20 63.5t-61 22.5q-26 0 -52 -8.5t-47.5 -26t-37 -43t-21.5 -59.5l-48 -288h-58l117 710q5 1 12 1q18 0 28.5 -11.5 t10.5 -28.5v-4.5t-1 -6.5z" />
<glyph unicode="i" horiz-adv-x="203" d="M122 92q-2 -8 -2.5 -16t-0.5 -13q0 -20 8 -27.5t22 -7.5q13 0 25 4l4 -22q-29 -16 -55 -16q-32 0 -47.5 17t-15.5 42q0 11 1.5 21t3.5 24l61 369h5q18 0 31.5 -11t13.5 -31q0 -6 -2 -16q-1 -4 -1 -9zM177 636q17 0 26 -12t9 -28q0 -19 -11.5 -35.5t-34.5 -16.5 q-18 0 -27 11t-9 28q0 20 12 36.5t35 16.5z" />
<glyph unicode="j" horiz-adv-x="198" d="M97 -59q-9 -57 -24 -90t-35 -50q-20 -18 -43 -23t-36 -5q-21 0 -25.5 12.5t-4.5 23.5v9h9q24 0 42 8t29 22t18 36t11 45l88 538h5q18 0 31.5 -11t13.5 -31q0 -6 -2 -16q-1 -4 -1 -9zM177 636q17 0 26 -12t9 -28q0 -19 -11.5 -35.5t-34.5 -16.5q-18 0 -27 11t-9 28 q0 20 12 36.5t35 16.5z" />
<glyph unicode="k" horiz-adv-x="422" d="M107 0h-58l117 710q5 1 12 1q18 0 28.5 -11.5t10.5 -28.5v-4.5t-1 -6.5zM366 53q8 -12 15 -18.5t18 -6.5q10 0 22 4l5 -22q-6 -5 -22 -10.5t-30 -5.5q-23 0 -35.5 6.5t-26.5 27.5l-137 219l4 25l170 160q11 11 27.5 23t36.5 12q8 0 12.5 -2t9.5 -5l11 -8l-210 -192z" />
<glyph unicode="l" horiz-adv-x="203" d="M122 92q-2 -8 -2.5 -16t-0.5 -13q0 -20 8 -27.5t22 -7.5q13 0 25 4l4 -22q-29 -16 -55 -16q-32 0 -47.5 17t-15.5 42q0 11 1.5 21t3.5 24l101 612q5 1 12 1q18 0 28.5 -11.5t10.5 -28.5v-4.5t-1 -6.5z" />
<glyph unicode="m" horiz-adv-x="754" d="M581 425q-23 0 -46.5 -5.5t-44 -20t-35.5 -40t-21 -65.5l-48 -294h-58l45 272q5 29 7.5 61t-9.5 56q-8 16 -24.5 26t-36.5 10q-25 0 -50 -8.5t-46.5 -26t-37 -43t-21.5 -59.5l-48 -288h-58l77 467h5q18 0 30 -11t12 -31q0 -4 -0.5 -8t-0.5 -8q-1 -4 -1 -9 q27 32 67.5 53.5t85.5 21.5q39 0 68.5 -21.5t38.5 -56.5q27 32 65 55t98 23q33 0 56 -11t37.5 -29t21 -42t6.5 -50q0 -17 -2 -35.5t-5 -35.5l-45 -272h-58l45 272q2 14 4.5 32.5t2.5 34.5q0 39 -19 62.5t-57 23.5z" />
<glyph unicode="n" horiz-adv-x="491" d="M342 0l45 272q2 14 4.5 32.5t2.5 34.5q0 41 -20 63.5t-61 22.5q-26 0 -52 -8.5t-47.5 -26t-37 -43t-21.5 -59.5l-48 -288h-58l77 467h5q18 0 30 -11t12 -31q0 -4 -0.5 -8t-0.5 -8q-1 -4 -1 -9q27 32 67.5 53.5t87.5 21.5q34 0 58 -11t39 -29t22 -42t7 -50q0 -17 -2 -35.5 t-5 -35.5l-45 -272h-58z" />
<glyph unicode="o" horiz-adv-x="482" d="M299 475q43 0 73 -16.5t49 -42.5t28 -59t9 -67q0 -55 -15.5 -109.5t-45.5 -98t-75 -70.5t-105 -27q-44 0 -74.5 16t-49.5 42.5t-27.5 59.5t-8.5 67q0 55 16 109.5t46.5 98t75.5 70.5t104 27zM291 427q-40 0 -72.5 -20.5t-55 -56t-35 -81.5t-12.5 -97q0 -27 5.5 -52 t18 -44.5t32.5 -31t50 -11.5q40 0 72.5 20.5t55.5 56t35.5 81.5t12.5 97q0 27 -5.5 52t-18.5 44.5t-33 31t-50 11.5z" />
<glyph unicode="p" horiz-adv-x="481" d="M13 -218l113 685h5q20 0 30.5 -11t10.5 -31v-7l-2 -18q27 32 65 53.5t76 21.5q39 0 67 -14.5t45.5 -39.5t25.5 -58.5t8 -71.5q0 -60 -20 -115.5t-55 -97.5t-83 -67.5t-104 -25.5q-22 0 -46.5 5.5t-41.5 16.5l-37 -225h-57zM198 32q40 0 76.5 21.5t63.5 57.5t43 83.5 t16 100.5q0 60 -21.5 94t-78.5 34q-16 0 -38 -7t-43.5 -23t-38.5 -42t-23 -63l-40 -237q14 -8 33.5 -13.5t50.5 -5.5z" />
<glyph unicode="q" horiz-adv-x="484" d="M295 -218l45 274q-14 -15 -31 -28t-35 -22t-36.5 -14t-34.5 -5q-72 0 -110 42.5t-38 120.5q0 61 18 119t52 104t83 74t112 28q48 0 82 -14.5t58 -32.5l-107 -646h-58zM315 428q-45 0 -81.5 -23.5t-63 -63t-41 -90.5t-14.5 -105q0 -57 26.5 -82t74.5 -25q16 0 38 7.5 t43.5 23.5t39 41.5t23.5 60.5l39 237q-18 10 -36.5 14.5t-47.5 4.5z" />
<glyph unicode="r" horiz-adv-x="327" d="M126 467h5q18 0 30 -11t12 -31q0 -4 -0.5 -8t-0.5 -8q-1 -4 -1 -9q28 35 61 55t68 20q30 0 51.5 -14t21.5 -34q0 -12 -4 -18t-12 -13l-9 -7h-7q-9 23 -24.5 29t-31.5 6q-14 0 -33.5 -7.5t-39 -24t-35.5 -42.5t-22 -62l-48 -288h-58z" />
<glyph unicode="s" horiz-adv-x="373" d="M171 -15q-29 0 -57 5t-54 19q-15 8 -25.5 16.5t-10.5 20.5q0 5 2.5 10.5t6.5 10.5l12 15q21 -20 51 -34.5t70 -14.5q32 0 52 8.5t31.5 22t16 28.5t4.5 29q0 17 -8 30.5t-20.5 25.5t-28 22t-31.5 20q-20 13 -38.5 25.5t-32.5 28t-22 35.5t-8 47q0 25 10 47t29.5 38 t47.5 25.5t63 9.5q43 0 71 -14t43 -28q17 -19 17 -31q0 -5 -1 -9t-6 -9l-15 -13h-7q-18 26 -44.5 41.5t-61.5 15.5q-27 0 -44.5 -6.5t-28 -17t-14.5 -22.5t-4 -24q0 -20 6.5 -33t18.5 -24t30 -22t41 -26q28 -18 46 -33t28.5 -30t14.5 -32t4 -39q0 -29 -11.5 -53.5 t-31.5 -42.5t-48.5 -28t-62.5 -10z" />
<glyph unicode="t" horiz-adv-x="294" d="M176 467h141l-8 -47h-139l-45 -277q-2 -12 -3.5 -23t-1.5 -20q0 -38 17.5 -53t43.5 -15q17 0 36.5 9.5t33.5 27.5l10 -9q5 -5 7.5 -9.5t2.5 -12.5q0 -11 -8 -19.5t-16 -13.5q-14 -9 -31.5 -14.5t-43.5 -5.5q-51 0 -80.5 26t-29.5 77q0 13 1.5 27t3.5 29l77 466q5 1 12 1 q18 0 27.5 -11.5t9.5 -28.5v-4.5t-1 -6.5z" />
<glyph unicode="u" horiz-adv-x="478" d="M400 92q-2 -8 -2.5 -16t-0.5 -13q0 -20 8 -27.5t22 -7.5q13 0 25 4l4 -22q-29 -16 -55 -16q-32 0 -46.5 17t-14.5 42v8q-27 -32 -61.5 -54t-90.5 -22q-58 0 -91 34t-33 97q0 30 6 66l46 285h5q18 0 31.5 -11t13.5 -31q0 -6 -2 -16q-1 -4 -1 -9l-36 -218 q-2 -14 -3.5 -29.5t-1.5 -30.5q0 -42 19.5 -64.5t64.5 -22.5q25 0 49 9t44.5 27t35 43.5t20.5 58.5l49 294h5q18 0 31.5 -11t13.5 -31q0 -6 -2 -16q-1 -4 -1 -9z" />
<glyph unicode="v" horiz-adv-x="405" d="M205 -4h-59l-82 465q8 3 13 4.5t12 1.5q23 0 30.5 -14t11.5 -38l56 -354l177 363q12 24 23.5 33.5t29.5 9.5q9 0 15 -2t11 -5z" />
<glyph unicode="w" horiz-adv-x="623" d="M444 -4h-62l-49 264l-139 -264h-60l-71 466q7 2 12.5 3.5t13.5 1.5q21 0 28.5 -16t10.5 -39l49 -356l142 271l-26 135q9 5 23 5q23 0 31.5 -14t12.5 -37l61 -360l153 362q11 24 23.5 36.5t32.5 12.5q8 0 13 -2t10 -5z" />
<glyph unicode="x" horiz-adv-x="367" d="M70 462q10 5 26 5q21 0 29.5 -8.5t16.5 -25.5l67 -152l118 163q17 23 38 23q14 0 32 -13l-165 -219l107 -239q-5 -2 -11.5 -3t-12.5 -1q-21 0 -30 8.5t-17 25.5l-74 169l-127 -180q-17 -23 -38 -23q-14 0 -32 13l174 238z" />
<glyph unicode="y" horiz-adv-x="409" d="M-25 -153q12 -14 26 -20t31 -6q24 0 43 24.5t45 77.5l36 73h-10l-82 465q15 6 27 6q23 0 30 -14t11 -38l55 -356l177 365q12 24 23.5 33.5t29.5 9.5q9 0 14.5 -2t10.5 -5l-280 -562q-14 -28 -27.5 -51t-29 -39.5t-34.5 -25.5t-44 -9q-8 0 -20 2t-23 7t-19 13t-8 19 q0 8 5 16z" />
<glyph unicode="z" horiz-adv-x="373" d="M7 0l6 38q58 81 135.5 176.5t173.5 203.5h-246q0 21 8.5 35t34.5 14h251q14 0 20.5 -7t6.5 -17v-7t-2 -11q-90 -101 -170 -195.5t-143 -179.5h220q21 0 29.5 -8t8.5 -25v-6t-2 -11h-331z" />
<glyph unicode="{" horiz-adv-x="307" d="M230 442q-4 -25 -9.5 -46.5t-15 -39.5t-24.5 -31t-38 -22q29 -8 36 -35t7 -61q0 -13 -1 -26t-3 -27l-25 -156q-1 -7 -1.5 -13t-0.5 -11q0 -40 17.5 -53t48.5 -13q8 0 14 1t10 2q5 -12 5 -21q0 -17 -13.5 -23.5t-33.5 -6.5q-54 0 -79.5 28.5t-25.5 78.5q0 16 3 33l27 161 q3 21 3 40q0 33 -11.5 55.5t-37.5 22.5l9 53q34 0 54 27.5t28 78.5l23 141q4 23 13 47.5t25.5 45t42 33t63.5 12.5q15 0 27 -5t11 -22q0 -11 -10 -24q-11 5 -27 5q-14 0 -27.5 -4t-25.5 -14.5t-21.5 -27.5t-13.5 -44z" />
<glyph unicode="|" horiz-adv-x="217" d="M27 -188l157 982h55l-157 -982h-55z" />
<glyph unicode="}" horiz-adv-x="307" d="M117 136q4 25 9.5 46.5t15 39.5t24.5 31t38 22q-29 8 -36 35t-7 61q0 13 1 26t3 27l25 156q1 7 1.5 13t0.5 11q0 40 -17.5 53t-48.5 13q-8 0 -14 -1t-10 -2q-5 12 -5 21q0 17 13.5 23.5t33.5 6.5q54 0 79.5 -28.5t25.5 -78.5q0 -17 -3 -33l-27 -161q-3 -21 -3 -40 q0 -33 11.5 -55.5t37.5 -22.5l-9 -53q-34 0 -54 -27.5t-28 -78.5l-23 -141q-4 -23 -13 -47.5t-25.5 -45t-42.5 -33t-63 -12.5q-15 0 -27 5t-11 22q0 11 10 24q11 -5 27 -5q13 0 27 4t26 14.5t21.5 27.5t13.5 44z" />
<glyph unicode="~" horiz-adv-x="414" d="M260 576q-16 14 -30.5 24.5t-33.5 10.5q-26 0 -46.5 -16.5t-31.5 -59.5h-47q17 68 51 95.5t86 27.5q31 0 52.5 -13t38.5 -29q16 -14 31.5 -25.5t34.5 -11.5q26 0 46 16.5t31 59.5h47q-17 -68 -51 -95.5t-86 -27.5q-31 0 -53 14.5t-39 29.5z" />
<glyph unicode="&#xa1;" horiz-adv-x="206" d="M97 298q5 2 13 2q18 0 28 -11.5t10 -28.5v-4.5t-1 -6.5l-76 -461q-5 -1 -12 -1q-18 0 -28.5 11.5t-10.5 28.5v4.5t1 6.5zM140 371q-17 0 -27 11.5t-12 27.5q-2 23 11.5 43t39.5 20q18 0 28 -11t12 -27q2 -23 -11.5 -43.5t-40.5 -20.5z" />
<glyph unicode="&#xa2;" horiz-adv-x="540" d="M350 662h51l-16 -94q41 -4 66.5 -19.5t39.5 -34.5q9 -13 9 -23q0 -12 -4.5 -16t-9.5 -9l-12 -10h-7q-22 58 -90 64l-62 -377q31 2 58 16t53 46l14 -13q9 -9 9 -20q0 -13 -8.5 -21.5t-22.5 -19.5q-18 -13 -48 -23.5t-63 -12.5l-17 -104h-51l18 108q-26 5 -50 17 t-42.5 33.5t-30 53.5t-11.5 78q0 64 18 114.5t47.5 86.5t67.5 57t78 27zM185 286q0 -53 20 -89t60 -49l61 368q-29 -8 -54.5 -27.5t-45 -49t-30.5 -68.5t-11 -85z" />
<glyph unicode="&#xa3;" horiz-adv-x="540" d="M101 345h70l23 138q7 42 23 77t42 61q23 23 57 35.5t76 12.5q39 0 66.5 -10t45.5 -23.5t26 -27.5t8 -23q0 -11 -10 -20l-15 -13h-10q-21 38 -47.5 52t-65.5 14q-29 0 -49 -6.5t-36 -19.5q-20 -17 -33 -43t-19 -60l-24 -144h217l-8 -50h-218l-40 -245h254q21 0 29.5 -8 t8.5 -25v-6t-2 -11h-356l49 295h-70z" />
<glyph unicode="&#xa4;" horiz-adv-x="540" d="M468 120l-51 50q-26 -20 -57.5 -31.5t-66.5 -11.5q-69 0 -122 41l-49 -48l-39 38l49 48q-20 26 -31 59.5t-11 67.5q0 35 11.5 69.5t31.5 60.5l-50 48l39 39l50 -50q26 19 56.5 29.5t64.5 10.5q69 0 123 -42l52 52l39 -39l-52 -51q19 -26 29.5 -59.5t10.5 -67.5 q0 -33 -10 -65.5t-29 -58.5l51 -51zM438 333q0 70 -36.5 114.5t-108.5 44.5t-109 -44.5t-37 -114.5q0 -69 37 -113.5t109 -44.5t108.5 44.5t36.5 113.5z" />
<glyph unicode="&#xa5;" horiz-adv-x="540" d="M89 152l8 46h137l14 90h-137l8 46h116l-108 330q17 7 29 7q17 0 26 -8.5t16 -29.5l90 -287l178 281q17 26 29 35t33 9q12 0 25 -7l-214 -330h113l-8 -46h-139l-14 -90h139l-8 -46h-139l-25 -152h-57l25 152h-137z" />
<glyph unicode="&#xa6;" horiz-adv-x="217" d="M127 419l57 375h55l-59 -375h-53zM146 215l-64 -403h-55l64 403h55z" />
<glyph unicode="&#xa7;" horiz-adv-x="463" d="M353 48q0 -37 -14 -65.5t-38 -47.5t-55.5 -29t-65.5 -10q-33 0 -58 8.5t-41.5 20.5t-25 24.5t-8.5 20.5t5 17t18 19h11q14 -28 39.5 -45t67.5 -17q48 0 77 28.5t29 81.5q0 39 -24.5 62.5t-78.5 49.5q-25 12 -46.5 25t-38 29.5t-26 37.5t-9.5 48q0 54 28 85.5t70 49.5 q-13 17 -19.5 38.5t-6.5 51.5q0 37 14 65t37.5 47t54.5 28.5t65 9.5q33 0 58 -8.5t41.5 -20.5t25 -24.5t8.5 -20.5t-5 -17t-18 -19h-11q-14 28 -39.5 45t-67.5 17q-49 0 -76.5 -27.5t-27.5 -81.5q0 -19 5.5 -32.5t18 -25t31.5 -22t46 -23.5q25 -12 46.5 -25t38 -29t26 -37 t9.5 -48q0 -54 -27 -89t-68 -55q12 -17 18.5 -39t6.5 -51zM361 277q0 34 -24 54.5t-66 40.5q-18 8 -34.5 16.5t-30.5 18.5q-31 -14 -52.5 -35t-21.5 -61q0 -34 24.5 -55t66.5 -41q20 -10 37 -19.5t32 -20.5q29 15 49 39t20 63z" />
<glyph unicode="&#xa8;" horiz-adv-x="340" d="M91 629q16 0 24.5 -9.5t10.5 -23.5q2 -20 -10 -37.5t-36 -17.5q-17 0 -25.5 9t-10.5 23q-2 21 10 38.5t37 17.5zM260 629q16 0 24.5 -9.5t10.5 -23.5q2 -20 -10 -37.5t-36 -17.5q-17 0 -25.5 9t-10.5 23q-2 21 10 38.5t37 17.5z" />
<glyph unicode="&#xa9;" horiz-adv-x="760" d="M734 335q0 -72 -22.5 -135.5t-65 -111t-104 -75.5t-138.5 -28t-138.5 28t-104 75.5t-65 111t-22.5 135.5q0 71 22.5 134t65 110t104 74.5t138.5 27.5t138.5 -27.5t104 -74.5t65 -110t22.5 -134zM682 335q0 59 -18.5 113t-54 95t-87 65.5t-117.5 24.5t-117.5 -24.5 t-87 -65.5t-54 -95t-18.5 -113t18.5 -113.5t54 -96t87 -66.5t117.5 -25t117.5 25t87 66.5t54 96t18.5 113.5zM557 189q0 -9 -17 -26q-16 -14 -48.5 -28.5t-80.5 -14.5q-27 0 -60.5 9t-63 33t-49.5 67t-20 111q0 67 22 110t53 67.5t64 33.5t55 9q49 0 80.5 -13t48.5 -27 q10 -9 13.5 -15.5t3.5 -13.5t-5 -18t-10 -20h-9q-19 26 -46.5 42.5t-72.5 16.5q-38 0 -64 -14t-43 -38t-24.5 -55t-7.5 -65q0 -35 7.5 -66t24 -54.5t43 -37.5t65.5 -14q30 0 52 8t37 19q19 12 30 28q6 -5 14 -14t8 -20z" />
<glyph unicode="&#xaa;" horiz-adv-x="433" d="M280 637q-28 0 -52.5 -15t-43 -41t-29 -61.5t-10.5 -77.5q0 -38 18.5 -61t50.5 -23q13 0 29.5 6t31.5 19t27 33t17 47l26 161q-12 5 -26 9t-39 4zM360 398q-3 -17 -1 -32.5t21 -15.5q4 0 10.5 0.5t11.5 2.5l3 -22q-22 -13 -45 -13q-27 0 -38 14t-11 35v5q-17 -23 -46 -41 t-59 -18q-59 0 -87 36t-28 92q0 43 13 85.5t38.5 77t62 56t84.5 21.5q19 0 36.5 -4t32.5 -9.5t26.5 -12t17.5 -10.5z" />
<glyph unicode="&#xab;" horiz-adv-x="419" d="M297 276l74 -109q6 -8 8 -16.5t2 -13.5q0 -11 -5.5 -19.5t-13.5 -17.5l-100 130q-8 11 -14.5 21t-6.5 23q0 19 12.5 31.5t27.5 25.5l135 115q9 -14 9 -28q0 -19 -18 -37zM143 276l74 -109q6 -8 8 -16.5t2 -13.5q0 -11 -5.5 -19.5t-13.5 -17.5l-100 130q-8 11 -14.5 21 t-6.5 23q0 19 12.5 31.5t27.5 25.5l135 115q9 -14 9 -28q0 -19 -18 -37z" />
<glyph unicode="&#xac;" horiz-adv-x="540" d="M401 189l29 181h-328l8 51h385l-37 -232h-57z" />
<glyph unicode="&#xad;" horiz-adv-x="404" d="M123 242q-22 0 -31 8.5t-9 25.5q0 2 0.5 6.5t2.5 11.5h226q22 0 31 -8.5t9 -25.5q0 -2 -0.5 -6.5t-2.5 -11.5h-226z" />
<glyph unicode="&#xae;" horiz-adv-x="760" d="M559 128q-7 -4 -22 -4q-29 0 -45 27l-91 152h-67v-175h-47v416q29 2 61 3t56 1q79 0 115 -33t36 -85q0 -27 -9 -48.5t-23 -36.5t-33 -24.5t-38 -12.5zM506 428q0 37 -24 57.5t-78 20.5q-28 0 -70 -3v-158h76q96 0 96 83zM734 335q0 -72 -22.5 -135.5t-65 -111t-104 -75.5 t-138.5 -28t-138.5 28t-104 75.5t-65 111t-22.5 135.5q0 71 22.5 134t65 110t104 74.5t138.5 27.5t138.5 -27.5t104 -74.5t65 -110t22.5 -134zM682 335q0 59 -18.5 113t-54 95t-87 65.5t-117.5 24.5t-117.5 -24.5t-87 -65.5t-54 -95t-18.5 -113t18.5 -113.5t54 -96t87 -66.5 t117.5 -25t117.5 25t87 66.5t54 96t18.5 113.5z" />
<glyph unicode="&#xaf;" horiz-adv-x="370" d="M88 558q-21 0 -29.5 7.5t-8.5 24.5q0 2 0.5 6.5t2.5 10.5h229q21 0 29.5 -7.5t8.5 -24.5q0 -2 -0.5 -6.5t-2.5 -10.5h-229z" />
<glyph unicode="&#xb0;" horiz-adv-x="340" d="M211 482q31 0 49.5 24t18.5 59q0 36 -18.5 60t-49.5 24t-49.5 -24t-18.5 -59q0 -36 18.5 -60t49.5 -24zM211 438q-55 0 -87.5 35.5t-32.5 92.5q0 26 9 49t25 40.5t38 27.5t48 10q55 0 87.5 -35.5t32.5 -92.5q0 -26 -9 -49.5t-25 -40.5t-38 -27t-48 -10z" />
<glyph unicode="&#xb1;" horiz-adv-x="540" d="M230 153l26 159h-148l9 51h147l27 160h53l-26 -160h148l-9 -51h-147l-27 -159h-53zM60 -1l9 51h341l-9 -51h-341z" />
<glyph unicode="&#xb2;" d="M60 314l4 39q67 52 101 86q42 41 68.5 74.5t26.5 70.5q0 55 -53 55q-23 0 -41.5 -11t-32.5 -29h-11q-14 12 -14 24q0 10 9 19q17 17 43 28.5t50 11.5q51 0 75 -26t24 -68q0 -27 -9.5 -50.5t-25.5 -45.5t-36.5 -42.5t-40.5 -39.5q-17 -16 -32.5 -29.5t-27.5 -23.5h123 q17 0 23 -6t6 -19v-6t-2 -12h-227z" />
<glyph unicode="&#xb3;" d="M214 681q49 0 74 -25.5t25 -62.5q0 -32 -19.5 -54t-46.5 -36q23 -11 35 -33t12 -44q0 -50 -32.5 -84.5t-97.5 -34.5q-37 0 -58.5 11t-32.5 22q-10 10 -10 21q0 8 5.5 16t19.5 17q15 -20 34 -31.5t44 -11.5q12 0 25.5 3t24.5 11.5t18.5 22.5t7.5 35q0 32 -15 45.5 t-37 13.5h-28l5 42h25q10 0 22.5 3.5t23.5 11t18.5 20.5t7.5 32q0 20 -12.5 33t-40.5 13q-42 0 -75 -40h-11q-9 7 -12 12.5t-3 12.5q0 9 12 21q15 15 39 26.5t53 11.5z" />
<glyph unicode="&#xb4;" horiz-adv-x="340" d="M144 534q-9 -9 -16.5 -11.5t-18.5 -2.5q-8 0 -16.5 3.5t-11.5 7.5l90 110q11 14 22.5 21.5t26.5 7.5q13 0 23 -5.5t16 -11.5z" />
<glyph unicode="&#xb5;" horiz-adv-x="490" d="M67 -189h-58q15 92 25.5 156.5t18.5 114t14.5 89t13.5 81.5t15 92.5t20 122.5h5q18 0 31.5 -11t13.5 -31q0 -6 -2 -16q-1 -4 -1 -9l-37 -223q-2 -14 -3.5 -29.5t-1.5 -30.5q0 -39 24 -60.5t69 -21.5q26 0 50 11.5t43.5 31.5t33.5 48t20 61l47 280h5q18 0 31.5 -11 t13.5 -31q0 -6 -2 -16q-1 -4 -1 -9l-51 -308q-2 -8 -2.5 -16t-0.5 -13q0 -20 8 -27.5t22 -7.5q13 0 25 4l4 -22q-29 -16 -55 -16q-32 0 -46.5 17t-14.5 42v3q-27 -32 -61 -51.5t-88 -19.5q-10 0 -22 2.5t-24.5 8t-24 15t-20.5 24.5z" />
<glyph unicode="&#xb6;" horiz-adv-x="508" d="M197 -118l64 383h-11q-76 0 -121.5 46t-45.5 124q0 64 19.5 108.5t51.5 73t74 41.5t87 13h161q20 0 27.5 -10t7.5 -21q0 -8 -2 -18l-121 -740h-58l122 739h-75l-122 -739h-58zM320 621h-9q-36 0 -66.5 -8.5t-53 -29.5t-35 -56t-12.5 -87q0 -55 28 -90t88 -35h9z" />
<glyph unicode="&#xb7;" horiz-adv-x="222" d="M138 364q16 0 24.5 -10.5t10.5 -24.5q2 -20 -10 -38.5t-36 -18.5q-17 0 -25.5 10t-10.5 24q-2 21 10 39.5t37 18.5z" />
<glyph unicode="&#xb8;" horiz-adv-x="340" d="M132 -208q-13 0 -17.5 6.5t-4.5 15.5q0 10 7 24q5 -2 7.5 -2.5t10.5 -0.5q47 0 47 35q0 9 -4.5 16.5t-10.5 15t-10.5 15.5t-4.5 19q0 23 12 38.5t23 24.5l39 -2q-11 -8 -19 -19t-8 -25q0 -9 5 -17t10.5 -17t10.5 -20t5 -26q0 -22 -9 -37.5t-23.5 -25t-32 -14t-33.5 -4.5z " />
<glyph unicode="&#xb9;" d="M176 314l50 304l-109 -60q-5 7 -7.5 15.5t-2.5 14.5q0 9 5.5 14.5t15.5 10.5l107 62q5 3 11.5 5.5t14.5 2.5q18 0 27 -8l-60 -361h-52z" />
<glyph unicode="&#xba;" horiz-adv-x="412" d="M281 681q33 0 57 -12.5t39.5 -32t23 -44.5t7.5 -50q0 -41 -12 -82t-36 -73.5t-59.5 -53t-81.5 -20.5q-34 0 -58.5 12t-40 32t-22.5 44.5t-7 50.5q0 41 12.5 82t36.5 73.5t59.5 53t81.5 20.5zM273 637q-29 0 -52.5 -15t-40 -40t-25.5 -58t-9 -69q0 -18 4 -36t13.5 -31.5 t25 -22t37.5 -8.5q28 0 51.5 15t40 40t25.5 58t9 69q0 18 -4.5 35.5t-14 31.5t-24.5 22.5t-36 8.5z" />
<glyph unicode="&#xbb;" horiz-adv-x="419" d="M324 272l-74 108q-6 8 -8 16.5t-2 13.5q0 11 5.5 19.5t13.5 17.5l100 -130q8 -11 14.5 -21t6.5 -23q0 -19 -12.5 -31.5t-27.5 -25.5l-135 -115q-9 14 -9 28q0 20 18 38zM170 272l-74 108q-6 8 -8 16.5t-2 13.5q0 11 5.5 19.5t13.5 17.5l100 -130q8 -11 14.5 -21t6.5 -23 q0 -19 -12.5 -31.5t-27.5 -25.5l-135 -115q-9 14 -9 28q0 20 18 38z" />
<glyph unicode="&#xbc;" horiz-adv-x="810" d="M176 314l50 304l-109 -60q-5 7 -7.5 15.5t-2.5 14.5q0 9 5.5 14.5t15.5 10.5l107 62q5 3 11.5 5.5t14.5 2.5q18 0 27 -8l-60 -361h-52zM249 0h-60l415 644q13 20 25 28.5t29 8.5t28 -7zM656 117l28 168l-136 -168h108zM713 117q15 0 21 -5.5t6 -17.5v-6t-2 -11h-42 l-12 -76h-47l13 76h-161l4 33l199 247q5 7 13 10t16 3q14 0 23 -6l-41 -247h10z" />
<glyph unicode="&#xbd;" horiz-adv-x="810" d="M176 314l50 304l-109 -60q-5 7 -7.5 15.5t-2.5 14.5q0 9 5.5 14.5t15.5 10.5l107 62q5 3 11.5 5.5t14.5 2.5q18 0 27 -8l-60 -361h-52zM217 0h-60l415 644q13 20 25 28.5t29 8.5t28 -7zM487 1l4 39q67 52 101 86q42 41 68.5 74.5t26.5 70.5q0 55 -53 55q-23 0 -41.5 -11 t-32.5 -29h-11q-14 12 -14 24q0 10 9 19q17 17 43 28.5t50 11.5q51 0 75 -26t24 -68q0 -27 -9.5 -50.5t-25.5 -45.5t-36.5 -42.5t-40.5 -39.5q-17 -16 -32.5 -29.5t-27.5 -23.5h123q17 0 23 -6t6 -19v-6t-2 -12h-227z" />
<glyph unicode="&#xbe;" horiz-adv-x="810" d="M214 681q49 0 74 -25.5t25 -62.5q0 -32 -19.5 -54t-46.5 -36q23 -11 35 -33t12 -44q0 -50 -32.5 -84.5t-97.5 -34.5q-37 0 -58.5 11t-32.5 22q-10 10 -10 21q0 8 5.5 16t19.5 17q15 -20 34 -31.5t44 -11.5q12 0 25.5 3t24.5 11.5t18.5 22.5t7.5 35q0 32 -15 45.5 t-37 13.5h-28l5 42h25q10 0 22.5 3.5t23.5 11t18.5 20.5t7.5 32q0 20 -12.5 33t-40.5 13q-42 0 -75 -40h-11q-9 7 -12 12.5t-3 12.5q0 9 12 21q15 15 39 26.5t53 11.5zM248 0h-60l415 644q13 20 25 28.5t29 8.5t28 -7zM656 117l28 168l-136 -168h108zM713 117q15 0 21 -5.5 t6 -17.5v-6t-2 -11h-42l-12 -76h-47l13 76h-161l4 33l199 247q5 7 13 10t16 3q14 0 23 -6l-41 -247h10z" />
<glyph unicode="&#xbf;" horiz-adv-x="403" d="M282 373q-17 0 -27 11.5t-12 27.5q-2 23 11.5 43t39.5 20q18 0 28 -11t12 -27q2 -23 -11.5 -43.5t-40.5 -20.5zM329 -111q7 -6 11.5 -12t5.5 -14q1 -7 -2.5 -14.5t-8.5 -13.5q-8 -9 -21 -18.5t-32.5 -18t-44.5 -14t-55 -5.5q-70 0 -114 38t-44 106q0 34 9 61.5t26 53.5 t42 51.5t57 55.5q17 15 32.5 30.5t27.5 32.5t19 36.5t7 43.5q5 1 8.5 1h5.5q33 0 33 -35q0 -38 -27 -71.5t-62 -68.5q-26 -26 -47.5 -47t-37.5 -42.5t-24.5 -45.5t-8.5 -54q0 -49 30 -72t74 -23q80 0 131 59h10z" />
<glyph unicode="&#xc0;" horiz-adv-x="528" d="M433 0l-32 187h-265l-91 -187h-59l333 664q14 7 28 7q12 0 19.5 -7t9.5 -17l116 -647h-59zM331 585l-169 -348h230zM238 814q5 8 16.5 15.5t23.5 7.5q24 0 44 -20l90 -87q-7 -8 -15.5 -12t-15.5 -4t-14.5 2t-15.5 8z" />
<glyph unicode="&#xc1;" horiz-adv-x="528" d="M433 0l-32 187h-265l-91 -187h-59l333 664q14 7 28 7q12 0 19.5 -7t9.5 -17l116 -647h-59zM331 585l-169 -348h230zM338 724q-16 -10 -33 -10q-21 0 -30 16l112 87q12 9 23.5 14.5t24.5 5.5q14 0 24.5 -9.5t14.5 -18.5z" />
<glyph unicode="&#xc2;" horiz-adv-x="528" d="M433 0l-32 187h-265l-91 -187h-59l333 664q14 7 28 7q12 0 19.5 -7t9.5 -17l116 -647h-59zM331 585l-169 -348h230zM357 794l-62 -59q-11 -11 -20 -15t-20 -4q-7 0 -14 2.5t-12 7.5l87 91q13 13 22 20t24 7q17 0 26 -8.5t17 -22.5l56 -91q-6 -3 -13.5 -5.5t-17.5 -2.5 t-16 4.5t-12 13.5z" />
<glyph unicode="&#xc3;" horiz-adv-x="528" d="M433 0l-32 187h-265l-91 -187h-59l333 664q14 7 28 7q12 0 19.5 -7t9.5 -17l116 -647h-59zM331 585l-169 -348h230zM408 782q20 0 35.5 11t31.5 41q20 -8 22.5 -23t-6.5 -29q-11 -17 -30.5 -32t-61.5 -15q-15 0 -28 6t-26 12.5t-26.5 12.5t-28.5 6q-16 0 -32 -6.5 t-32 -36.5q-18 8 -21 23t7 29q12 15 32 27t56 12q17 0 31 -6t27 -13t25 -13t25 -6z" />
<glyph unicode="&#xc4;" horiz-adv-x="528" d="M433 0l-32 187h-265l-91 -187h-59l333 664q14 7 28 7q12 0 19.5 -7t9.5 -17l116 -647h-59zM331 585l-169 -348h230zM275 833q16 0 24.5 -9.5t10.5 -23.5q2 -20 -10 -37.5t-36 -17.5q-17 0 -25.5 9t-10.5 23q-2 21 10 38.5t37 17.5zM444 833q16 0 24.5 -9.5t10.5 -23.5 q2 -20 -10 -37.5t-36 -17.5q-17 0 -25.5 9t-10.5 23q-2 21 10 38.5t37 17.5z" />
<glyph unicode="&#xc5;" horiz-adv-x="528" d="M450 750q0 -36 -19.5 -64.5t-54.5 -37.5v-1l116 -647h-59l-32 187h-265l-91 -187h-59l326 650q-32 11 -49.5 37.5t-17.5 61.5q0 45 27.5 75.5t75.5 30.5t75 -31t27 -74zM331 585l-169 -348h230zM407 750q0 26 -16.5 46t-42.5 20q-27 0 -43.5 -20t-16.5 -46t16 -46.5 t44 -20.5q27 0 43 20t16 47z" />
<glyph unicode="&#xc6;" horiz-adv-x="781" d="M696 50q21 0 29.5 -8t8.5 -25v-6t-2 -11h-350l32 192h-220l-130 -192h-64l435 629q11 16 25.5 28t37.5 12h326q0 -21 -8.5 -35.5t-34.5 -14.5h-236l-41 -244h205l-8 -50h-205l-46 -275h246zM422 242l64 381l-258 -381h194z" />
<glyph unicode="&#xc7;" horiz-adv-x="534" d="M235 -208q-13 0 -17.5 6.5t-4.5 15.5q0 10 7 24q5 -2 7.5 -2.5t10.5 -0.5q47 0 47 35q0 9 -4.5 16.5t-10.5 15t-10.5 15.5t-4.5 19q0 16 6.5 28.5t14.5 21.5q-55 5 -93 29t-61.5 61t-34 84t-10.5 98q0 78 21 154t62 135.5t102 96.5t142 37q36 0 62.5 -7.5t45.5 -17.5 t31 -21t18 -18q15 -18 15 -32q0 -5 -3.5 -14t-23.5 -22h-9q-27 49 -64 64.5t-81 15.5q-58 0 -105.5 -30t-81 -81t-51.5 -118.5t-18 -142.5q0 -46 10.5 -86t31 -70t52 -47t73.5 -17q52 0 94.5 20t80.5 57l12 -13q11 -11 11 -22q0 -14 -8 -22.5t-23 -19.5q-22 -16 -62 -33 t-95 -19q-6 -7 -10 -15t-4 -17t5 -17t10.5 -17t10.5 -20t5 -26q0 -22 -9 -37.5t-23.5 -25t-32 -14t-33.5 -4.5z" />
<glyph unicode="&#xc8;" horiz-adv-x="452" d="M373 50q21 0 29.5 -8t8.5 -25v-6t-2 -11h-356l111 669h337q0 -21 -8.5 -35.5t-34.5 -14.5h-242l-41 -244h211l-8 -50h-211l-46 -275h252zM229 814q5 8 16.5 15.5t23.5 7.5q24 0 44 -20l90 -87q-7 -8 -15.5 -12t-15.5 -4t-14.5 2t-15.5 8z" />
<glyph unicode="&#xc9;" horiz-adv-x="452" d="M373 50q21 0 29.5 -8t8.5 -25v-6t-2 -11h-356l111 669h337q0 -21 -8.5 -35.5t-34.5 -14.5h-242l-41 -244h211l-8 -50h-211l-46 -275h252zM326 724q-16 -10 -33 -10q-21 0 -30 16l112 87q12 9 23.5 14.5t24.5 5.5q14 0 24.5 -9.5t14.5 -18.5z" />
<glyph unicode="&#xca;" horiz-adv-x="452" d="M373 50q21 0 29.5 -8t8.5 -25v-6t-2 -11h-356l111 669h337q0 -21 -8.5 -35.5t-34.5 -14.5h-242l-41 -244h211l-8 -50h-211l-46 -275h252zM352 794l-62 -59q-11 -11 -20 -15t-20 -4q-7 0 -14 2.5t-12 7.5l87 91q13 13 22 20t24 7q17 0 26 -8.5t17 -22.5l56 -91 q-6 -3 -13.5 -5.5t-17.5 -2.5t-16 4.5t-12 13.5z" />
<glyph unicode="&#xcb;" horiz-adv-x="452" d="M373 50q21 0 29.5 -8t8.5 -25v-6t-2 -11h-356l111 669h337q0 -21 -8.5 -35.5t-34.5 -14.5h-242l-41 -244h211l-8 -50h-211l-46 -275h252zM266 833q16 0 24.5 -9.5t10.5 -23.5q2 -20 -10 -37.5t-36 -17.5q-17 0 -25.5 9t-10.5 23q-2 21 10 38.5t37 17.5zM435 833 q16 0 24.5 -9.5t10.5 -23.5q2 -20 -10 -37.5t-36 -17.5q-17 0 -25.5 9t-10.5 23q-2 21 10 38.5t37 17.5z" />
<glyph unicode="&#xcc;" horiz-adv-x="217" d="M112 0h-59l111 670q5 1 12 1q18 0 28.5 -11.5t10.5 -28.5v-4.5t-1 -6.5zM81 814q5 8 16.5 15.5t23.5 7.5q24 0 44 -20l90 -87q-7 -8 -15.5 -12t-15.5 -4t-14.5 2t-15.5 8z" />
<glyph unicode="&#xcd;" horiz-adv-x="217" d="M112 0h-59l111 670q5 1 12 1q18 0 28.5 -11.5t10.5 -28.5v-4.5t-1 -6.5zM202 724q-16 -10 -33 -10q-21 0 -30 16l112 87q12 9 23.5 14.5t24.5 5.5q14 0 24.5 -9.5t14.5 -18.5z" />
<glyph unicode="&#xce;" horiz-adv-x="217" d="M112 0h-59l111 670q5 1 12 1q18 0 28.5 -11.5t10.5 -28.5v-4.5t-1 -6.5zM204 794l-62 -59q-11 -11 -20 -15t-20 -4q-7 0 -14 2.5t-12 7.5l87 91q13 13 22 20t24 7q17 0 26 -8.5t17 -22.5l56 -91q-6 -3 -13.5 -5.5t-17.5 -2.5t-16 4.5t-12 13.5z" />
<glyph unicode="&#xcf;" horiz-adv-x="217" d="M112 0h-59l111 670q5 1 12 1q18 0 28.5 -11.5t10.5 -28.5v-4.5t-1 -6.5zM119 833q16 0 24.5 -9.5t10.5 -23.5q2 -20 -10 -37.5t-36 -17.5q-17 0 -25.5 9t-10.5 23q-2 21 10 38.5t37 17.5zM288 833q16 0 24.5 -9.5t10.5 -23.5q2 -20 -10 -37.5t-36 -17.5q-17 0 -25.5 9 t-10.5 23q-2 21 10 38.5t37 17.5z" />
<glyph unicode="&#xd0;" horiz-adv-x="589" d="M53 0l53 323h-60l8 48h60l49 296q45 5 78.5 7t66.5 2q76 0 125.5 -20.5t79 -54.5t41.5 -78.5t12 -92.5q0 -95 -22.5 -174t-68.5 -136t-115.5 -88.5t-162.5 -31.5h-144zM504 430q0 42 -10 78t-32.5 62t-59 41t-90.5 15h-23.5t-27.5 -1t-26.5 -2t-19.5 -2l-42 -250h172 l-8 -48h-172l-45 -274h81q84 0 142 31.5t94 84.5t51.5 122t15.5 143z" />
<glyph unicode="&#xd1;" horiz-adv-x="608" d="M502 0h-57l-244 568l-92 -568h-56l110 666q8 3 13.5 4t11.5 1q13 0 22 -5.5t16 -20.5l236 -556l94 581q5 1 12 1q18 0 28 -11.5t10 -28.5v-4.5t-1 -6.5zM447 782q20 0 35.5 11t31.5 41q20 -8 22.5 -23t-6.5 -29q-11 -17 -30.5 -32t-61.5 -15q-15 0 -28 6t-26 12.5 t-26.5 12.5t-28.5 6q-16 0 -32 -6.5t-32 -36.5q-18 8 -21 23t7 29q12 15 32 27t56 12q17 0 31 -6t27 -13t25 -13t25 -6z" />
<glyph unicode="&#xd2;" horiz-adv-x="625" d="M286 36q58 0 105 32.5t80 87t51 125t18 145.5q0 39 -8.5 76t-26.5 65.5t-46.5 45.5t-69.5 17q-59 0 -105.5 -33t-78.5 -87t-49 -124.5t-17 -145.5q0 -39 8 -76t25.5 -65.5t45.5 -45.5t68 -17zM284 -15q-57 0 -96.5 22t-64 58t-35.5 82t-11 94q0 78 19.5 156.5t59 141.5 t99 102.5t140.5 39.5q57 0 96.5 -22t64 -58t35.5 -82t11 -94q0 -78 -19.5 -156.5t-59 -141.5t-99 -102.5t-140.5 -39.5zM295 814q5 8 16.5 15.5t23.5 7.5q24 0 44 -20l90 -87q-7 -8 -15.5 -12t-15.5 -4t-14.5 2t-15.5 8z" />
<glyph unicode="&#xd3;" horiz-adv-x="625" d="M286 36q58 0 105 32.5t80 87t51 125t18 145.5q0 39 -8.5 76t-26.5 65.5t-46.5 45.5t-69.5 17q-59 0 -105.5 -33t-78.5 -87t-49 -124.5t-17 -145.5q0 -39 8 -76t25.5 -65.5t45.5 -45.5t68 -17zM284 -15q-57 0 -96.5 22t-64 58t-35.5 82t-11 94q0 78 19.5 156.5t59 141.5 t99 102.5t140.5 39.5q57 0 96.5 -22t64 -58t35.5 -82t11 -94q0 -78 -19.5 -156.5t-59 -141.5t-99 -102.5t-140.5 -39.5zM410 724q-16 -10 -33 -10q-21 0 -30 16l112 87q12 9 23.5 14.5t24.5 5.5q14 0 24.5 -9.5t14.5 -18.5z" />
<glyph unicode="&#xd4;" horiz-adv-x="625" d="M286 36q58 0 105 32.5t80 87t51 125t18 145.5q0 39 -8.5 76t-26.5 65.5t-46.5 45.5t-69.5 17q-59 0 -105.5 -33t-78.5 -87t-49 -124.5t-17 -145.5q0 -39 8 -76t25.5 -65.5t45.5 -45.5t68 -17zM284 -15q-57 0 -96.5 22t-64 58t-35.5 82t-11 94q0 78 19.5 156.5t59 141.5 t99 102.5t140.5 39.5q57 0 96.5 -22t64 -58t35.5 -82t11 -94q0 -78 -19.5 -156.5t-59 -141.5t-99 -102.5t-140.5 -39.5zM414 794l-62 -59q-11 -11 -20 -15t-20 -4q-7 0 -14 2.5t-12 7.5l87 91q13 13 22 20t24 7q17 0 26 -8.5t17 -22.5l56 -91q-6 -3 -13.5 -5.5t-17.5 -2.5 t-16 4.5t-12 13.5z" />
<glyph unicode="&#xd5;" horiz-adv-x="625" d="M286 36q58 0 105 32.5t80 87t51 125t18 145.5q0 39 -8.5 76t-26.5 65.5t-46.5 45.5t-69.5 17q-59 0 -105.5 -33t-78.5 -87t-49 -124.5t-17 -145.5q0 -39 8 -76t25.5 -65.5t45.5 -45.5t68 -17zM284 -15q-57 0 -96.5 22t-64 58t-35.5 82t-11 94q0 78 19.5 156.5t59 141.5 t99 102.5t140.5 39.5q57 0 96.5 -22t64 -58t35.5 -82t11 -94q0 -78 -19.5 -156.5t-59 -141.5t-99 -102.5t-140.5 -39.5zM466 782q20 0 35.5 11t31.5 41q20 -8 22.5 -23t-6.5 -29q-11 -17 -30.5 -32t-61.5 -15q-15 0 -28 6t-26 12.5t-26.5 12.5t-28.5 6q-16 0 -32 -6.5 t-32 -36.5q-18 8 -21 23t7 29q12 15 32 27t56 12q17 0 31 -6t27 -13t25 -13t25 -6z" />
<glyph unicode="&#xd6;" horiz-adv-x="625" d="M286 36q58 0 105 32.5t80 87t51 125t18 145.5q0 39 -8.5 76t-26.5 65.5t-46.5 45.5t-69.5 17q-59 0 -105.5 -33t-78.5 -87t-49 -124.5t-17 -145.5q0 -39 8 -76t25.5 -65.5t45.5 -45.5t68 -17zM284 -15q-57 0 -96.5 22t-64 58t-35.5 82t-11 94q0 78 19.5 156.5t59 141.5 t99 102.5t140.5 39.5q57 0 96.5 -22t64 -58t35.5 -82t11 -94q0 -78 -19.5 -156.5t-59 -141.5t-99 -102.5t-140.5 -39.5zM333 833q16 0 24.5 -9.5t10.5 -23.5q2 -20 -10 -37.5t-36 -17.5q-17 0 -25.5 9t-10.5 23q-2 21 10 38.5t37 17.5zM502 833q16 0 24.5 -9.5t10.5 -23.5 q2 -20 -10 -37.5t-36 -17.5q-17 0 -25.5 9t-10.5 23q-2 21 10 38.5t37 17.5z" />
<glyph unicode="&#xd7;" horiz-adv-x="540" d="M210 511l99 -133l139 134l33 -35l-143 -138l105 -140l-43 -34l-103 138l-147 -139l-33 35l150 143l-100 135z" />
<glyph unicode="&#xd8;" horiz-adv-x="625" d="M598 697l-53 -82q30 -37 43.5 -87t13.5 -103q0 -78 -19.5 -156.5t-59 -141.5t-99 -102.5t-140.5 -39.5q-38 0 -68 10t-53 27l-60 -94l-42 22l68 106q-28 37 -40 85.5t-12 99.5q0 78 19.5 156.5t59 141.5t99 102.5t140.5 39.5q68 0 115 -33l46 71zM286 36q58 0 105 32.5 t80 87t51 125t18 145.5q0 37 -7 71.5t-23 62.5l-315 -490q17 -16 39.5 -25t51.5 -9zM389 630q-59 0 -105.5 -33t-78.5 -87t-49 -124.5t-17 -145.5q0 -35 6 -68t20 -61l313 487q-35 32 -89 32z" />
<glyph unicode="&#xd9;" horiz-adv-x="568" d="M519 251q-8 -52 -22.5 -100t-41.5 -85t-70.5 -59t-109.5 -22q-103 0 -151 49.5t-48 140.5q0 20 3 47.5t7 50.5l65 397q5 1 12 1q18 0 29 -11.5t11 -28.5v-4.5t-1 -6.5l-59 -358q-4 -21 -5 -48t-1 -45q0 -27 7.5 -51.5t24 -42.5t42.5 -29t64 -11q79 0 123.5 52t61.5 158 l70 425q5 1 12 1q18 0 28.5 -11.5t10.5 -28.5v-4.5t-1 -6.5zM260 814q5 8 16.5 15.5t23.5 7.5q24 0 44 -20l90 -87q-7 -8 -15.5 -12t-15.5 -4t-14.5 2t-15.5 8z" />
<glyph unicode="&#xda;" horiz-adv-x="568" d="M519 251q-8 -52 -22.5 -100t-41.5 -85t-70.5 -59t-109.5 -22q-103 0 -151 49.5t-48 140.5q0 20 3 47.5t7 50.5l65 397q5 1 12 1q18 0 29 -11.5t11 -28.5v-4.5t-1 -6.5l-59 -358q-4 -21 -5 -48t-1 -45q0 -27 7.5 -51.5t24 -42.5t42.5 -29t64 -11q79 0 123.5 52t61.5 158 l70 425q5 1 12 1q18 0 28.5 -11.5t10.5 -28.5v-4.5t-1 -6.5zM360 724q-16 -10 -33 -10q-21 0 -30 16l112 87q12 9 23.5 14.5t24.5 5.5q14 0 24.5 -9.5t14.5 -18.5z" />
<glyph unicode="&#xdb;" horiz-adv-x="568" d="M519 251q-8 -52 -22.5 -100t-41.5 -85t-70.5 -59t-109.5 -22q-103 0 -151 49.5t-48 140.5q0 20 3 47.5t7 50.5l65 397q5 1 12 1q18 0 29 -11.5t11 -28.5v-4.5t-1 -6.5l-59 -358q-4 -21 -5 -48t-1 -45q0 -27 7.5 -51.5t24 -42.5t42.5 -29t64 -11q79 0 123.5 52t61.5 158 l70 425q5 1 12 1q18 0 28.5 -11.5t10.5 -28.5v-4.5t-1 -6.5zM376 794l-62 -59q-11 -11 -20 -15t-20 -4q-7 0 -14 2.5t-12 7.5l87 91q13 13 22 20t24 7q17 0 26 -8.5t17 -22.5l56 -91q-6 -3 -13.5 -5.5t-17.5 -2.5t-16 4.5t-12 13.5z" />
<glyph unicode="&#xdc;" horiz-adv-x="568" d="M519 251q-8 -52 -22.5 -100t-41.5 -85t-70.5 -59t-109.5 -22q-103 0 -151 49.5t-48 140.5q0 20 3 47.5t7 50.5l65 397q5 1 12 1q18 0 29 -11.5t11 -28.5v-4.5t-1 -6.5l-59 -358q-4 -21 -5 -48t-1 -45q0 -27 7.5 -51.5t24 -42.5t42.5 -29t64 -11q79 0 123.5 52t61.5 158 l70 425q5 1 12 1q18 0 28.5 -11.5t10.5 -28.5v-4.5t-1 -6.5zM294 833q16 0 24.5 -9.5t10.5 -23.5q2 -20 -10 -37.5t-36 -17.5q-17 0 -25.5 9t-10.5 23q-2 21 10 38.5t37 17.5zM463 833q16 0 24.5 -9.5t10.5 -23.5q2 -20 -10 -37.5t-36 -17.5q-17 0 -25.5 9t-10.5 23 q-2 21 10 38.5t37 17.5z" />
<glyph unicode="&#xdd;" horiz-adv-x="459" d="M282 290l-48 -290h-59l47 286l-128 378q17 7 29 7q17 0 27.5 -8.5t17.5 -29.5l92 -286l181 280q17 26 29 35t33 9q12 0 25 -7zM314 724q-16 -10 -33 -10q-21 0 -30 16l112 87q12 9 23.5 14.5t24.5 5.5q14 0 24.5 -9.5t14.5 -18.5z" />
<glyph unicode="&#xde;" horiz-adv-x="487" d="M114 0h-59l111 670q5 1 12 1q18 0 28.5 -11.5t10.5 -28.5v-4.5t-1 -6.5l-13 -81q36 3 80 3q51 0 89.5 -14t64 -37.5t38 -54.5t12.5 -65q0 -64 -21.5 -109.5t-58 -74t-85.5 -41.5t-104 -13h-82zM425 370q0 58 -37.5 90.5t-109.5 32.5q-21 0 -43.5 -1.5t-40.5 -3.5 l-50 -305h85q102 0 149 48t47 139z" />
<glyph unicode="&#xdf;" horiz-adv-x="506" d="M139 526q8 51 27 91t51 65q24 18 54 26.5t72 8.5q71 0 108.5 -37.5t37.5 -95.5q0 -33 -9.5 -57.5t-24.5 -43.5t-33 -33.5t-35 -28.5q-26 -22 -43.5 -41.5t-17.5 -48.5q0 -10 2 -18.5t9 -17.5t19.5 -19t32.5 -23q28 -18 45 -33t26 -30t12 -32t3 -39q0 -29 -11.5 -53.5 t-31.5 -42.5t-48.5 -28t-62.5 -10q-29 0 -57 5t-54 19q-15 8 -25.5 16.5t-10.5 20.5q0 5 2.5 10.5t6.5 10.5l12 15q21 -20 51 -34.5t70 -14.5q32 0 52 8.5t31.5 22t16 28.5t4.5 29q0 34 -23 56t-55 42q-46 29 -59 54t-13 50q0 23 5.5 40t16 31.5t25.5 27.5t33 27 q16 12 30.5 25t26 28.5t18 34t6.5 41.5q0 41 -22 66t-69 25q-28 0 -51.5 -5.5t-37.5 -18.5q-24 -21 -36 -47.5t-17 -61.5l-91 -552q-6 -37 -15.5 -71t-27 -60.5t-45 -42.5t-69.5 -16q-19 0 -35 3.5t-28 8.5q-30 13 -30 32q0 7 1 11t6 9l11 14q17 -15 35 -22.5t41 -7.5 q25 0 42 12t28 31.5t18 44t11 50.5z" />
<glyph unicode="&#xe0;" horiz-adv-x="465" d="M301 428q-39 0 -73 -22.5t-59.5 -60.5t-40 -87.5t-14.5 -103.5t23 -84.5t75 -30.5q13 0 33 6.5t40 22.5t36.5 41t22.5 63l39 237q-14 8 -32 13.5t-50 5.5zM388 92q-2 -8 -2.5 -16t-0.5 -13q0 -20 8 -27.5t22 -7.5q13 0 25 4l4 -22q-29 -16 -55 -16q-32 0 -46.5 17 t-14.5 42v7q-23 -30 -56.5 -51.5t-72.5 -21.5q-38 0 -65 13t-44.5 35.5t-26 53.5t-8.5 67q0 54 17 110.5t49 103t78.5 76t105.5 29.5q24 0 46 -5t40 -12.5t31.5 -15.5t21.5 -14zM217 653q6 6 16 11.5t21 5.5q15 0 23.5 -5t17.5 -20l70 -114q-3 -4 -10.5 -7.5t-15.5 -3.5 q-19 0 -30 14z" />
<glyph unicode="&#xe1;" horiz-adv-x="465" d="M301 428q-39 0 -73 -22.5t-59.5 -60.5t-40 -87.5t-14.5 -103.5t23 -84.5t75 -30.5q13 0 33 6.5t40 22.5t36.5 41t22.5 63l39 237q-14 8 -32 13.5t-50 5.5zM388 92q-2 -8 -2.5 -16t-0.5 -13q0 -20 8 -27.5t22 -7.5q13 0 25 4l4 -22q-29 -16 -55 -16q-32 0 -46.5 17 t-14.5 42v7q-23 -30 -56.5 -51.5t-72.5 -21.5q-38 0 -65 13t-44.5 35.5t-26 53.5t-8.5 67q0 54 17 110.5t49 103t78.5 76t105.5 29.5q24 0 46 -5t40 -12.5t31.5 -15.5t21.5 -14zM325 534q-9 -9 -16.5 -11.5t-18.5 -2.5q-8 0 -16.5 3.5t-11.5 7.5l90 110q11 14 22.5 21.5 t26.5 7.5q13 0 23 -5.5t16 -11.5z" />
<glyph unicode="&#xe2;" horiz-adv-x="465" d="M301 428q-39 0 -73 -22.5t-59.5 -60.5t-40 -87.5t-14.5 -103.5t23 -84.5t75 -30.5q13 0 33 6.5t40 22.5t36.5 41t22.5 63l39 237q-14 8 -32 13.5t-50 5.5zM388 92q-2 -8 -2.5 -16t-0.5 -13q0 -20 8 -27.5t22 -7.5q13 0 25 4l4 -22q-29 -16 -55 -16q-32 0 -46.5 17 t-14.5 42v7q-23 -30 -56.5 -51.5t-72.5 -21.5q-38 0 -65 13t-44.5 35.5t-26 53.5t-8.5 67q0 54 17 110.5t49 103t78.5 76t105.5 29.5q24 0 46 -5t40 -12.5t31.5 -15.5t21.5 -14zM332 615l-73 -70q-11 -11 -20.5 -15t-16.5 -4q-16 0 -25 10l96 107q12 13 20.5 20t23.5 7 q17 0 25 -8.5t16 -22.5l57 -107q-6 -3 -13 -5.5t-15 -2.5t-16 4.5t-14 13.5z" />
<glyph unicode="&#xe3;" horiz-adv-x="465" d="M301 428q-39 0 -73 -22.5t-59.5 -60.5t-40 -87.5t-14.5 -103.5t23 -84.5t75 -30.5q13 0 33 6.5t40 22.5t36.5 41t22.5 63l39 237q-14 8 -32 13.5t-50 5.5zM388 92q-2 -8 -2.5 -16t-0.5 -13q0 -20 8 -27.5t22 -7.5q13 0 25 4l4 -22q-29 -16 -55 -16q-32 0 -46.5 17 t-14.5 42v7q-23 -30 -56.5 -51.5t-72.5 -21.5q-38 0 -65 13t-44.5 35.5t-26 53.5t-8.5 67q0 54 17 110.5t49 103t78.5 76t105.5 29.5q24 0 46 -5t40 -12.5t31.5 -15.5t21.5 -14zM382 587q20 0 35.5 11t31.5 41q20 -8 22.5 -23t-6.5 -29q-11 -17 -30.5 -32t-61.5 -15 q-15 0 -28 6t-26 12.5t-26.5 12.5t-28.5 6q-16 0 -32 -6.5t-32 -36.5q-18 8 -21 23t7 29q12 15 32 27t56 12q17 0 31 -6t27 -13t25 -13t25 -6z" />
<glyph unicode="&#xe4;" horiz-adv-x="465" d="M301 428q-39 0 -73 -22.5t-59.5 -60.5t-40 -87.5t-14.5 -103.5t23 -84.5t75 -30.5q13 0 33 6.5t40 22.5t36.5 41t22.5 63l39 237q-14 8 -32 13.5t-50 5.5zM388 92q-2 -8 -2.5 -16t-0.5 -13q0 -20 8 -27.5t22 -7.5q13 0 25 4l4 -22q-29 -16 -55 -16q-32 0 -46.5 17 t-14.5 42v7q-23 -30 -56.5 -51.5t-72.5 -21.5q-38 0 -65 13t-44.5 35.5t-26 53.5t-8.5 67q0 54 17 110.5t49 103t78.5 76t105.5 29.5q24 0 46 -5t40 -12.5t31.5 -15.5t21.5 -14zM241 629q16 0 24.5 -9.5t10.5 -23.5q2 -20 -10 -37.5t-36 -17.5q-17 0 -25.5 9t-10.5 23 q-2 21 10 38.5t37 17.5zM410 629q16 0 24.5 -9.5t10.5 -23.5q2 -20 -10 -37.5t-36 -17.5q-17 0 -25.5 9t-10.5 23q-2 21 10 38.5t37 17.5z" />
<glyph unicode="&#xe5;" horiz-adv-x="465" d="M301 428q-39 0 -73 -22.5t-59.5 -60.5t-40 -87.5t-14.5 -103.5t23 -84.5t75 -30.5q13 0 33 6.5t40 22.5t36.5 41t22.5 63l39 237q-14 8 -32 13.5t-50 5.5zM388 92q-2 -8 -2.5 -16t-0.5 -13q0 -20 8 -27.5t22 -7.5q13 0 25 4l4 -22q-29 -16 -55 -16q-32 0 -46.5 17 t-14.5 42v7q-23 -30 -56.5 -51.5t-72.5 -21.5q-38 0 -65 13t-44.5 35.5t-26 53.5t-8.5 67q0 54 17 110.5t49 103t78.5 76t105.5 29.5q24 0 46 -5t40 -12.5t31.5 -15.5t21.5 -14zM437 625q0 -43 -27 -74t-75 -31t-75.5 30.5t-27.5 73.5q0 45 27.5 75.5t75.5 30.5t75 -31 t27 -74zM394 625q0 26 -16.5 46t-42.5 20q-27 0 -43.5 -20t-16.5 -46t16 -46.5t44 -20.5q27 0 43 20t16 47z" />
<glyph unicode="&#xe6;" horiz-adv-x="720" d="M515 -15q-25 0 -48.5 6t-43.5 18.5t-36.5 31.5t-26.5 45q-32 -49 -70.5 -74t-90.5 -25q-38 0 -65 13t-44.5 35.5t-26 53.5t-8.5 67q0 54 17 110.5t49 103t78.5 76t105.5 29.5q24 0 46 -5t39.5 -12.5t30.5 -15t21 -13.5l-8 -42q12 16 28.5 32t37 28.5t44 20t48.5 7.5 q59 0 90.5 -29t31.5 -81q0 -44 -23 -75.5t-60 -52.5t-83 -31t-92 -10h-27t-26 1v-21q0 -69 31 -106t88 -37q38 0 70.5 15t60.5 50l13 -13q4 -4 7 -9t3 -11q0 -14 -8.5 -22t-22.5 -19q-20 -14 -51 -26.5t-79 -12.5zM301 428q-39 0 -73 -22.5t-59.5 -60.5t-40 -87.5 t-14.5 -103.5t23 -84.5t75 -30.5q13 0 33.5 6.5t40 22.5t36 41t22.5 63l39 237q-14 8 -32 13.5t-50 5.5zM438 237q49 0 89.5 9t69 25.5t44 40t15.5 53.5q0 26 -14 44.5t-52 18.5q-34 0 -64 -15t-53.5 -40.5t-40 -60t-23.5 -74.5q8 -1 16 -1h13z" />
<glyph unicode="&#xe7;" horiz-adv-x="408" d="M154 -208q-13 0 -17.5 6.5t-4.5 15.5q0 10 7 24q5 -2 7.5 -2.5t10.5 -0.5q47 0 47 35q0 9 -4.5 16.5t-10.5 15t-10.5 15.5t-4.5 19q0 17 7 29.5t15 22.5q-26 4 -51 15t-44.5 32.5t-31.5 54.5t-12 81q0 71 21.5 127.5t56 95.5t78 60t87.5 21q49 0 78.5 -16.5t44.5 -37.5 q9 -13 9 -24q0 -12 -4.5 -16t-9.5 -9l-12 -10h-8q-12 34 -39 49.5t-65 15.5q-34 0 -66 -19.5t-56.5 -53t-39 -79.5t-14.5 -99q0 -65 28.5 -104t88.5 -39q34 0 62 14t56 48l14 -13q9 -9 9 -20q0 -13 -8.5 -21.5t-22.5 -19.5q-18 -13 -47.5 -23.5t-62.5 -12.5q-6 -7 -10 -15 t-4 -17t5 -17t10.5 -17t10.5 -20t5 -26q0 -22 -9 -37.5t-23.5 -25t-32 -14t-33.5 -4.5z" />
<glyph unicode="&#xe8;" horiz-adv-x="432" d="M227 -15q-30 0 -60 8.5t-54.5 29.5t-40 57t-15.5 91q0 71 22 127.5t57 95.5t79.5 60t88.5 21q59 0 90.5 -29t31.5 -81q0 -44 -23 -75.5t-60 -52.5t-83 -31t-92 -10h-27t-26 1v-21q0 -69 31 -106t88 -37q38 0 70.5 15t60.5 50l13 -13q4 -4 7 -9t3 -11q0 -14 -8.5 -22 t-22.5 -19q-20 -14 -51 -26.5t-79 -12.5zM150 237q49 0 89.5 9t69 25.5t44 40t15.5 53.5q0 26 -14 44.5t-52 18.5q-34 0 -64 -15t-53.5 -40.5t-40 -60t-23.5 -74.5q8 -1 16 -1h13zM202 653q6 6 16 11.5t21 5.5q15 0 23.5 -5t17.5 -20l70 -114q-3 -4 -10.5 -7.5t-15.5 -3.5 q-19 0 -30 14z" />
<glyph unicode="&#xe9;" horiz-adv-x="432" d="M227 -15q-30 0 -60 8.5t-54.5 29.5t-40 57t-15.5 91q0 71 22 127.5t57 95.5t79.5 60t88.5 21q59 0 90.5 -29t31.5 -81q0 -44 -23 -75.5t-60 -52.5t-83 -31t-92 -10h-27t-26 1v-21q0 -69 31 -106t88 -37q38 0 70.5 15t60.5 50l13 -13q4 -4 7 -9t3 -11q0 -14 -8.5 -22 t-22.5 -19q-20 -14 -51 -26.5t-79 -12.5zM150 237q49 0 89.5 9t69 25.5t44 40t15.5 53.5q0 26 -14 44.5t-52 18.5q-34 0 -64 -15t-53.5 -40.5t-40 -60t-23.5 -74.5q8 -1 16 -1h13zM319 534q-9 -9 -16.5 -11.5t-18.5 -2.5q-8 0 -16.5 3.5t-11.5 7.5l90 110q11 14 22.5 21.5 t26.5 7.5q13 0 23 -5.5t16 -11.5z" />
<glyph unicode="&#xea;" horiz-adv-x="432" d="M227 -15q-30 0 -60 8.5t-54.5 29.5t-40 57t-15.5 91q0 71 22 127.5t57 95.5t79.5 60t88.5 21q59 0 90.5 -29t31.5 -81q0 -44 -23 -75.5t-60 -52.5t-83 -31t-92 -10h-27t-26 1v-21q0 -69 31 -106t88 -37q38 0 70.5 15t60.5 50l13 -13q4 -4 7 -9t3 -11q0 -14 -8.5 -22 t-22.5 -19q-20 -14 -51 -26.5t-79 -12.5zM150 237q49 0 89.5 9t69 25.5t44 40t15.5 53.5q0 26 -14 44.5t-52 18.5q-34 0 -64 -15t-53.5 -40.5t-40 -60t-23.5 -74.5q8 -1 16 -1h13zM328 615l-73 -70q-11 -11 -20.5 -15t-16.5 -4q-16 0 -25 10l96 107q12 13 20.5 20t23.5 7 q17 0 25 -8.5t16 -22.5l57 -107q-6 -3 -13 -5.5t-15 -2.5t-16 4.5t-14 13.5z" />
<glyph unicode="&#xeb;" horiz-adv-x="432" d="M227 -15q-30 0 -60 8.5t-54.5 29.5t-40 57t-15.5 91q0 71 22 127.5t57 95.5t79.5 60t88.5 21q59 0 90.5 -29t31.5 -81q0 -44 -23 -75.5t-60 -52.5t-83 -31t-92 -10h-27t-26 1v-21q0 -69 31 -106t88 -37q38 0 70.5 15t60.5 50l13 -13q4 -4 7 -9t3 -11q0 -14 -8.5 -22 t-22.5 -19q-20 -14 -51 -26.5t-79 -12.5zM150 237q49 0 89.5 9t69 25.5t44 40t15.5 53.5q0 26 -14 44.5t-52 18.5q-34 0 -64 -15t-53.5 -40.5t-40 -60t-23.5 -74.5q8 -1 16 -1h13zM238 629q16 0 24.5 -9.5t10.5 -23.5q2 -20 -10 -37.5t-36 -17.5q-17 0 -25.5 9t-10.5 23 q-2 21 10 38.5t37 17.5zM407 629q16 0 24.5 -9.5t10.5 -23.5q2 -20 -10 -37.5t-36 -17.5q-17 0 -25.5 9t-10.5 23q-2 21 10 38.5t37 17.5z" />
<glyph unicode="&#xec;" horiz-adv-x="203" d="M122 92q-2 -8 -2.5 -16t-0.5 -13q0 -20 8 -27.5t22 -7.5q13 0 25 4l4 -22q-29 -16 -55 -16q-32 0 -47.5 17t-15.5 42q0 11 1.5 21t3.5 24l61 369h5q18 0 31.5 -11t13.5 -31q0 -6 -2 -16q-1 -4 -1 -9zM66 653q6 6 16 11.5t21 5.5q15 0 23.5 -5t17.5 -20l70 -114 q-3 -4 -10.5 -7.5t-15.5 -3.5q-19 0 -30 14z" />
<glyph unicode="&#xed;" horiz-adv-x="203" d="M122 92q-2 -8 -2.5 -16t-0.5 -13q0 -20 8 -27.5t22 -7.5q13 0 25 4l4 -22q-29 -16 -55 -16q-32 0 -47.5 17t-15.5 42q0 11 1.5 21t3.5 24l61 369h5q18 0 31.5 -11t13.5 -31q0 -6 -2 -16q-1 -4 -1 -9zM174 534q-9 -9 -16.5 -11.5t-18.5 -2.5q-8 0 -16.5 3.5t-11.5 7.5 l90 110q11 14 22.5 21.5t26.5 7.5q13 0 23 -5.5t16 -11.5z" />
<glyph unicode="&#xee;" horiz-adv-x="203" d="M122 92q-2 -8 -2.5 -16t-0.5 -13q0 -20 8 -27.5t22 -7.5q13 0 25 4l4 -22q-29 -16 -55 -16q-32 0 -47.5 17t-15.5 42q0 11 1.5 21t3.5 24l61 369h5q18 0 31.5 -11t13.5 -31q0 -6 -2 -16q-1 -4 -1 -9zM173 615l-73 -70q-11 -11 -20.5 -15t-16.5 -4q-16 0 -25 10l96 107 q12 13 20.5 20t23.5 7q17 0 25 -8.5t16 -22.5l57 -107q-6 -3 -13 -5.5t-15 -2.5t-16 4.5t-14 13.5z" />
<glyph unicode="&#xef;" horiz-adv-x="203" d="M122 92q-2 -8 -2.5 -16t-0.5 -13q0 -20 8 -27.5t22 -7.5q13 0 25 4l4 -22q-29 -16 -55 -16q-32 0 -47.5 17t-15.5 42q0 11 1.5 21t3.5 24l61 369h5q18 0 31.5 -11t13.5 -31q0 -6 -2 -16q-1 -4 -1 -9zM87 629q16 0 24.5 -9.5t10.5 -23.5q2 -20 -10 -37.5t-36 -17.5 q-17 0 -25.5 9t-10.5 23q-2 21 10 38.5t37 17.5zM256 629q16 0 24.5 -9.5t10.5 -23.5q2 -20 -10 -37.5t-36 -17.5q-17 0 -25.5 9t-10.5 23q-2 21 10 38.5t37 17.5z" />
<glyph unicode="&#xf0;" horiz-adv-x="495" d="M224 506l-16 41l104 45q-54 42 -143 48q0 25 8 34t29 9q17 0 38.5 -4.5t43.5 -13.5t42.5 -21.5t37.5 -27.5l111 48l16 -41l-97 -42q32 -44 49 -99.5t17 -117.5q0 -98 -19 -169t-52.5 -118t-79 -69.5t-98.5 -22.5q-32 0 -60.5 11t-50 33.5t-34.5 56t-13 78.5 q0 75 20 129.5t52.5 90t74.5 53t86 17.5q34 0 64.5 -14.5t47.5 -34.5q-6 54 -18 88.5t-37 65.5zM400 329q-10 30 -40 51.5t-80 21.5q-32 0 -61.5 -13t-52.5 -40.5t-37 -71.5t-14 -106q0 -66 29.5 -102t79.5 -36q35 0 62 14.5t46.5 38t32.5 54.5t21 64t11 65.5t3 59.5z" />
<glyph unicode="&#xf1;" horiz-adv-x="491" d="M342 0l45 272q2 14 4.5 32.5t2.5 34.5q0 41 -20 63.5t-61 22.5q-26 0 -52 -8.5t-47.5 -26t-37 -43t-21.5 -59.5l-48 -288h-58l77 467h5q18 0 30 -11t12 -31q0 -4 -0.5 -8t-0.5 -8q-1 -4 -1 -9q27 32 67.5 53.5t87.5 21.5q34 0 58 -11t39 -29t22 -42t7 -50q0 -17 -2 -35.5 t-5 -35.5l-45 -272h-58zM374 587q20 0 35.5 11t31.5 41q20 -8 22.5 -23t-6.5 -29q-11 -17 -30.5 -32t-61.5 -15q-15 0 -28 6t-26 12.5t-26.5 12.5t-28.5 6q-16 0 -32 -6.5t-32 -36.5q-18 8 -21 23t7 29q12 15 32 27t56 12q17 0 31 -6t27 -13t25 -13t25 -6z" />
<glyph unicode="&#xf2;" horiz-adv-x="482" d="M299 475q43 0 73 -16.5t49 -42.5t28 -59t9 -67q0 -55 -15.5 -109.5t-45.5 -98t-75 -70.5t-105 -27q-44 0 -74.5 16t-49.5 42.5t-27.5 59.5t-8.5 67q0 55 16 109.5t46.5 98t75.5 70.5t104 27zM291 427q-40 0 -72.5 -20.5t-55 -56t-35 -81.5t-12.5 -97q0 -27 5.5 -52 t18 -44.5t32.5 -31t50 -11.5q40 0 72.5 20.5t55.5 56t35.5 81.5t12.5 97q0 27 -5.5 52t-18.5 44.5t-33 31t-50 11.5zM215 653q6 6 16 11.5t21 5.5q15 0 23.5 -5t17.5 -20l70 -114q-3 -4 -10.5 -7.5t-15.5 -3.5q-19 0 -30 14z" />
<glyph unicode="&#xf3;" horiz-adv-x="482" d="M299 475q43 0 73 -16.5t49 -42.5t28 -59t9 -67q0 -55 -15.5 -109.5t-45.5 -98t-75 -70.5t-105 -27q-44 0 -74.5 16t-49.5 42.5t-27.5 59.5t-8.5 67q0 55 16 109.5t46.5 98t75.5 70.5t104 27zM291 427q-40 0 -72.5 -20.5t-55 -56t-35 -81.5t-12.5 -97q0 -27 5.5 -52 t18 -44.5t32.5 -31t50 -11.5q40 0 72.5 20.5t55.5 56t35.5 81.5t12.5 97q0 27 -5.5 52t-18.5 44.5t-33 31t-50 11.5zM330 534q-9 -9 -16.5 -11.5t-18.5 -2.5q-8 0 -16.5 3.5t-11.5 7.5l90 110q11 14 22.5 21.5t26.5 7.5q13 0 23 -5.5t16 -11.5z" />
<glyph unicode="&#xf4;" horiz-adv-x="482" d="M299 475q43 0 73 -16.5t49 -42.5t28 -59t9 -67q0 -55 -15.5 -109.5t-45.5 -98t-75 -70.5t-105 -27q-44 0 -74.5 16t-49.5 42.5t-27.5 59.5t-8.5 67q0 55 16 109.5t46.5 98t75.5 70.5t104 27zM291 427q-40 0 -72.5 -20.5t-55 -56t-35 -81.5t-12.5 -97q0 -27 5.5 -52 t18 -44.5t32.5 -31t50 -11.5q40 0 72.5 20.5t55.5 56t35.5 81.5t12.5 97q0 27 -5.5 52t-18.5 44.5t-33 31t-50 11.5zM324 615l-73 -70q-11 -11 -20.5 -15t-16.5 -4q-16 0 -25 10l96 107q12 13 20.5 20t23.5 7q17 0 25 -8.5t16 -22.5l57 -107q-6 -3 -13 -5.5t-15 -2.5 t-16 4.5t-14 13.5z" />
<glyph unicode="&#xf5;" horiz-adv-x="482" d="M299 475q43 0 73 -16.5t49 -42.5t28 -59t9 -67q0 -55 -15.5 -109.5t-45.5 -98t-75 -70.5t-105 -27q-44 0 -74.5 16t-49.5 42.5t-27.5 59.5t-8.5 67q0 55 16 109.5t46.5 98t75.5 70.5t104 27zM291 427q-40 0 -72.5 -20.5t-55 -56t-35 -81.5t-12.5 -97q0 -27 5.5 -52 t18 -44.5t32.5 -31t50 -11.5q40 0 72.5 20.5t55.5 56t35.5 81.5t12.5 97q0 27 -5.5 52t-18.5 44.5t-33 31t-50 11.5zM370 587q20 0 35.5 11t31.5 41q20 -8 22.5 -23t-6.5 -29q-11 -17 -30.5 -32t-61.5 -15q-15 0 -28 6t-26 12.5t-26.5 12.5t-28.5 6q-16 0 -32 -6.5 t-32 -36.5q-18 8 -21 23t7 29q12 15 32 27t56 12q17 0 31 -6t27 -13t25 -13t25 -6z" />
<glyph unicode="&#xf6;" horiz-adv-x="482" d="M299 475q43 0 73 -16.5t49 -42.5t28 -59t9 -67q0 -55 -15.5 -109.5t-45.5 -98t-75 -70.5t-105 -27q-44 0 -74.5 16t-49.5 42.5t-27.5 59.5t-8.5 67q0 55 16 109.5t46.5 98t75.5 70.5t104 27zM291 427q-40 0 -72.5 -20.5t-55 -56t-35 -81.5t-12.5 -97q0 -27 5.5 -52 t18 -44.5t32.5 -31t50 -11.5q40 0 72.5 20.5t55.5 56t35.5 81.5t12.5 97q0 27 -5.5 52t-18.5 44.5t-33 31t-50 11.5zM229 629q16 0 24.5 -9.5t10.5 -23.5q2 -20 -10 -37.5t-36 -17.5q-17 0 -25.5 9t-10.5 23q-2 21 10 38.5t37 17.5zM398 629q16 0 24.5 -9.5t10.5 -23.5 q2 -20 -10 -37.5t-36 -17.5q-17 0 -25.5 9t-10.5 23q-2 21 10 38.5t37 17.5z" />
<glyph unicode="&#xf7;" horiz-adv-x="540" d="M314 523q17 0 26 -12t9 -28q0 -19 -11.5 -35.5t-34.5 -16.5q-18 0 -27 11t-9 28q0 20 12 36.5t35 16.5zM269 245q17 0 26 -12t9 -28q0 -19 -11.5 -35.5t-34.5 -16.5q-18 0 -27 11t-9 28q0 20 12 36.5t35 16.5zM112 311l9 53h341l-9 -53h-341z" />
<glyph unicode="&#xf8;" horiz-adv-x="482" d="M466 485l-48 -65q21 -26 30.5 -60.5t9.5 -69.5q0 -55 -15.5 -109.5t-45.5 -98t-75 -70.5t-105 -27q-31 0 -55 8t-42 22l-47 -65l-32 23l52 71q-20 26 -28 59t-8 67q0 55 16 109.5t46.5 98t75.5 70.5t104 27q53 0 91 -27l44 60zM222 33q40 0 72.5 20.5t55.5 56t35.5 81.5 t12.5 97q0 22 -4 43t-13 39l-228 -311q26 -26 69 -26zM291 427q-40 0 -72.5 -20.5t-55 -56t-35 -81.5t-12.5 -97q0 -21 3 -41t11 -37l227 309q-26 24 -66 24z" />
<glyph unicode="&#xf9;" horiz-adv-x="478" d="M400 92q-2 -8 -2.5 -16t-0.5 -13q0 -20 8 -27.5t22 -7.5q13 0 25 4l4 -22q-29 -16 -55 -16q-32 0 -46.5 17t-14.5 42v8q-27 -32 -61.5 -54t-90.5 -22q-58 0 -91 34t-33 97q0 30 6 66l46 285h5q18 0 31.5 -11t13.5 -31q0 -6 -2 -16q-1 -4 -1 -9l-36 -218 q-2 -14 -3.5 -29.5t-1.5 -30.5q0 -42 19.5 -64.5t64.5 -22.5q25 0 49 9t44.5 27t35 43.5t20.5 58.5l49 294h5q18 0 31.5 -11t13.5 -31q0 -6 -2 -16q-1 -4 -1 -9zM185 653q6 6 16 11.5t21 5.5q15 0 23.5 -5t17.5 -20l70 -114q-3 -4 -10.5 -7.5t-15.5 -3.5q-19 0 -30 14z" />
<glyph unicode="&#xfa;" horiz-adv-x="478" d="M400 92q-2 -8 -2.5 -16t-0.5 -13q0 -20 8 -27.5t22 -7.5q13 0 25 4l4 -22q-29 -16 -55 -16q-32 0 -46.5 17t-14.5 42v8q-27 -32 -61.5 -54t-90.5 -22q-58 0 -91 34t-33 97q0 30 6 66l46 285h5q18 0 31.5 -11t13.5 -31q0 -6 -2 -16q-1 -4 -1 -9l-36 -218 q-2 -14 -3.5 -29.5t-1.5 -30.5q0 -42 19.5 -64.5t64.5 -22.5q25 0 49 9t44.5 27t35 43.5t20.5 58.5l49 294h5q18 0 31.5 -11t13.5 -31q0 -6 -2 -16q-1 -4 -1 -9zM306 534q-9 -9 -16.5 -11.5t-18.5 -2.5q-8 0 -16.5 3.5t-11.5 7.5l90 110q11 14 22.5 21.5t26.5 7.5 q13 0 23 -5.5t16 -11.5z" />
<glyph unicode="&#xfb;" horiz-adv-x="478" d="M400 92q-2 -8 -2.5 -16t-0.5 -13q0 -20 8 -27.5t22 -7.5q13 0 25 4l4 -22q-29 -16 -55 -16q-32 0 -46.5 17t-14.5 42v8q-27 -32 -61.5 -54t-90.5 -22q-58 0 -91 34t-33 97q0 30 6 66l46 285h5q18 0 31.5 -11t13.5 -31q0 -6 -2 -16q-1 -4 -1 -9l-36 -218 q-2 -14 -3.5 -29.5t-1.5 -30.5q0 -42 19.5 -64.5t64.5 -22.5q25 0 49 9t44.5 27t35 43.5t20.5 58.5l49 294h5q18 0 31.5 -11t13.5 -31q0 -6 -2 -16q-1 -4 -1 -9zM308 615l-73 -70q-11 -11 -20.5 -15t-16.5 -4q-16 0 -25 10l96 107q12 13 20.5 20t23.5 7q17 0 25 -8.5 t16 -22.5l57 -107q-6 -3 -13 -5.5t-15 -2.5t-16 4.5t-14 13.5z" />
<glyph unicode="&#xfc;" horiz-adv-x="478" d="M400 92q-2 -8 -2.5 -16t-0.5 -13q0 -20 8 -27.5t22 -7.5q13 0 25 4l4 -22q-29 -16 -55 -16q-32 0 -46.5 17t-14.5 42v8q-27 -32 -61.5 -54t-90.5 -22q-58 0 -91 34t-33 97q0 30 6 66l46 285h5q18 0 31.5 -11t13.5 -31q0 -6 -2 -16q-1 -4 -1 -9l-36 -218 q-2 -14 -3.5 -29.5t-1.5 -30.5q0 -42 19.5 -64.5t64.5 -22.5q25 0 49 9t44.5 27t35 43.5t20.5 58.5l49 294h5q18 0 31.5 -11t13.5 -31q0 -6 -2 -16q-1 -4 -1 -9zM221 629q16 0 24.5 -9.5t10.5 -23.5q2 -20 -10 -37.5t-36 -17.5q-17 0 -25.5 9t-10.5 23q-2 21 10 38.5 t37 17.5zM390 629q16 0 24.5 -9.5t10.5 -23.5q2 -20 -10 -37.5t-36 -17.5q-17 0 -25.5 9t-10.5 23q-2 21 10 38.5t37 17.5z" />
<glyph unicode="&#xfd;" horiz-adv-x="409" d="M-25 -153q12 -14 26 -20t31 -6q24 0 43 24.5t45 77.5l36 73h-10l-82 465q15 6 27 6q23 0 30 -14t11 -38l55 -356l177 365q12 24 23.5 33.5t29.5 9.5q9 0 14.5 -2t10.5 -5l-280 -562q-14 -28 -27.5 -51t-29 -39.5t-34.5 -25.5t-44 -9q-8 0 -20 2t-23 7t-19 13t-8 19 q0 8 5 16zM279 534q-9 -9 -16.5 -11.5t-18.5 -2.5q-8 0 -16.5 3.5t-11.5 7.5l90 110q11 14 22.5 21.5t26.5 7.5q13 0 23 -5.5t16 -11.5z" />
<glyph unicode="&#xfe;" horiz-adv-x="481" d="M13 -218l153 928q5 1 12 1q18 0 28.5 -11.5t10.5 -28.5v-4.5t-1 -6.5l-44 -257q27 31 64.5 51.5t74.5 20.5q39 0 67 -14.5t45.5 -39.5t25.5 -58.5t8 -71.5q0 -60 -20 -115.5t-55 -97.5t-83 -67.5t-104 -25.5q-22 0 -46.5 5.5t-41.5 16.5l-37 -225h-57zM198 32 q40 0 76.5 21.5t63.5 57.5t43 83.5t16 100.5q0 60 -21.5 94t-78.5 34q-16 0 -38 -7t-43 -23t-38.5 -42t-23.5 -63l-40 -237q14 -8 33.5 -13.5t50.5 -5.5z" />
<glyph unicode="&#xff;" horiz-adv-x="409" d="M-25 -153q12 -14 26 -20t31 -6q24 0 43 24.5t45 77.5l36 73h-10l-82 465q15 6 27 6q23 0 30 -14t11 -38l55 -356l177 365q12 24 23.5 33.5t29.5 9.5q9 0 14.5 -2t10.5 -5l-280 -562q-14 -28 -27.5 -51t-29 -39.5t-34.5 -25.5t-44 -9q-8 0 -20 2t-23 7t-19 13t-8 19 q0 8 5 16zM186 629q16 0 24.5 -9.5t10.5 -23.5q2 -20 -10 -37.5t-36 -17.5q-17 0 -25.5 9t-10.5 23q-2 21 10 38.5t37 17.5zM355 629q16 0 24.5 -9.5t10.5 -23.5q2 -20 -10 -37.5t-36 -17.5q-17 0 -25.5 9t-10.5 23q-2 21 10 38.5t37 17.5z" />
<glyph unicode="&#x100;" horiz-adv-x="528" d="M433 0l-32 187h-265l-91 -187h-59l333 664q14 7 28 7q12 0 19.5 -7t9.5 -17l116 -647h-59zM331 585l-169 -348h230zM249 742q-21 0 -29.5 7.5t-8.5 24.5q0 2 0.5 6.5t2.5 10.5h229q21 0 29.5 -7.5t8.5 -24.5q0 -2 -0.5 -6.5t-2.5 -10.5h-229z" />
<glyph unicode="&#x101;" horiz-adv-x="465" d="M301 428q-39 0 -73 -22.5t-59.5 -60.5t-40 -87.5t-14.5 -103.5t23 -84.5t75 -30.5q13 0 33 6.5t40 22.5t36.5 41t22.5 63l39 237q-14 8 -32 13.5t-50 5.5zM388 92q-2 -8 -2.5 -16t-0.5 -13q0 -20 8 -27.5t22 -7.5q13 0 25 4l4 -22q-29 -16 -55 -16q-32 0 -46.5 17 t-14.5 42v7q-23 -30 -56.5 -51.5t-72.5 -21.5q-38 0 -65 13t-44.5 35.5t-26 53.5t-8.5 67q0 54 17 110.5t49 103t78.5 76t105.5 29.5q24 0 46 -5t40 -12.5t31.5 -15.5t21.5 -14zM219 558q-21 0 -29.5 7.5t-8.5 24.5q0 2 0.5 6.5t2.5 10.5h229q21 0 29.5 -7.5t8.5 -24.5 q0 -2 -0.5 -6.5t-2.5 -10.5h-229z" />
<glyph unicode="&#x102;" horiz-adv-x="528" d="M433 0l-32 187h-265l-91 -187h-59l333 664q14 7 28 7q12 0 19.5 -7t9.5 -17l116 -647h-59zM331 585l-169 -348h230zM297 817q7 -35 23.5 -44t38.5 -9q21 0 45 13t40 50q8 17 15.5 22t18.5 5q8 0 14 -2t12 -5q-36 -125 -149 -125q-58 0 -84.5 30.5t-24.5 95.5q13 5 21 5 q18 0 22 -8.5t8 -27.5z" />
<glyph unicode="&#x103;" horiz-adv-x="465" d="M301 428q-39 0 -73 -22.5t-59.5 -60.5t-40 -87.5t-14.5 -103.5t23 -84.5t75 -30.5q13 0 33 6.5t40 22.5t36.5 41t22.5 63l39 237q-14 8 -32 13.5t-50 5.5zM388 92q-2 -8 -2.5 -16t-0.5 -13q0 -20 8 -27.5t22 -7.5q13 0 25 4l4 -22q-29 -16 -55 -16q-32 0 -46.5 17 t-14.5 42v7q-23 -30 -56.5 -51.5t-72.5 -21.5q-38 0 -65 13t-44.5 35.5t-26 53.5t-8.5 67q0 54 17 110.5t49 103t78.5 76t105.5 29.5q24 0 46 -5t40 -12.5t31.5 -15.5t21.5 -14zM261 624q7 -37 22.5 -49.5t39.5 -12.5q29 0 48.5 16t36.5 55q8 17 15.5 22t18.5 5q8 0 14 -2 t12 -5q-19 -65 -54 -99t-95 -34q-58 0 -84.5 35t-24.5 100q13 5 21 5q18 0 22 -8.5t8 -27.5z" />
<glyph unicode="&#x104;" horiz-adv-x="528" d="M331 585l-169 -348h230zM350 -138q0 21 8 41t20 38t26.5 33t28.5 26l-32 187h-265l-91 -187h-59l333 664q14 7 28 7q12 0 19.5 -7t9.5 -17l116 -647q-15 -9 -30.5 -22.5t-29 -30t-22 -36t-8.5 -40.5q0 -17 8.5 -24t21.5 -7q14 0 24.5 8.5t18.5 16.5q15 -11 15 -25 q0 -10 -6 -17q-9 -10 -26 -16.5t-40 -6.5q-30 0 -49 15t-19 47z" />
<glyph unicode="&#x105;" horiz-adv-x="465" d="M431 -177q-9 -10 -26 -16.5t-40 -6.5q-30 0 -49 15t-19 47q0 20 7 39t18.5 36t25 32t26.5 26q-24 4 -35 20t-11 38v7q-23 -30 -56.5 -51.5t-72.5 -21.5q-38 0 -65 13t-44.5 35.5t-26 53.5t-8.5 67q0 54 17 110.5t49 103t78.5 76t105.5 29.5q24 0 46 -5t40 -12.5 t31.5 -15.5t21.5 -14l-56 -336q-2 -8 -2.5 -16t-0.5 -13q0 -20 8 -27.5t22 -7.5q13 0 25 4l4 -22q-15 -9 -31.5 -24t-30.5 -33.5t-23.5 -39.5t-9.5 -42q0 -17 8.5 -24t21.5 -7q14 0 24.5 8.5t18.5 16.5q15 -11 15 -25q0 -10 -6 -17zM301 428q-39 0 -73 -22.5t-59.5 -60.5 t-40 -87.5t-14.5 -103.5t23 -84.5t75 -30.5q13 0 33 6.5t40 22.5t36.5 41t22.5 63l39 237q-14 8 -32 13.5t-50 5.5z" />
<glyph unicode="&#x106;" horiz-adv-x="534" d="M395 629q-58 0 -105.5 -30t-81 -81t-51.5 -118.5t-18 -142.5q0 -46 10.5 -86t31 -70t52 -47t73.5 -17q52 0 94.5 20t80.5 57l12 -13q11 -11 11 -22q0 -14 -8 -22.5t-23 -19.5q-23 -17 -67 -34.5t-104 -17.5q-62 0 -105 22.5t-69.5 60.5t-38.5 87.5t-12 102.5q0 78 21 154 t62 135.5t102 96.5t142 37q36 0 62.5 -7.5t45.5 -17.5t31 -21t18 -18q15 -18 15 -32q0 -5 -3.5 -14t-23.5 -22h-9q-27 49 -64 64.5t-81 15.5zM394 724q-16 -10 -33 -10q-21 0 -30 16l112 87q12 9 23.5 14.5t24.5 5.5q14 0 24.5 -9.5t14.5 -18.5z" />
<glyph unicode="&#x107;" horiz-adv-x="408" d="M367 82q9 -9 9 -20q0 -13 -8.5 -21.5t-22.5 -19.5q-19 -14 -50.5 -25t-66.5 -11q-30 0 -60 8.5t-55 29.5t-40.5 57t-15.5 91q0 71 21.5 127.5t56 95.5t78 60t87.5 21q49 0 78.5 -16.5t44.5 -37.5q9 -13 9 -24q0 -12 -4.5 -16t-9.5 -9l-12 -10h-8q-12 34 -39 49.5 t-65 15.5q-34 0 -66 -19.5t-56.5 -53t-39 -79.5t-14.5 -99q0 -65 28.5 -104t88.5 -39q34 0 62 14t56 48zM318 534q-9 -9 -16.5 -11.5t-18.5 -2.5q-8 0 -16.5 3.5t-11.5 7.5l90 110q11 14 22.5 21.5t26.5 7.5q13 0 23 -5.5t16 -11.5z" />
<glyph unicode="&#x108;" horiz-adv-x="534" d="M395 629q-58 0 -105.5 -30t-81 -81t-51.5 -118.5t-18 -142.5q0 -46 10.5 -86t31 -70t52 -47t73.5 -17q52 0 94.5 20t80.5 57l12 -13q11 -11 11 -22q0 -14 -8 -22.5t-23 -19.5q-23 -17 -67 -34.5t-104 -17.5q-62 0 -105 22.5t-69.5 60.5t-38.5 87.5t-12 102.5q0 78 21 154 t62 135.5t102 96.5t142 37q36 0 62.5 -7.5t45.5 -17.5t31 -21t18 -18q15 -18 15 -32q0 -5 -3.5 -14t-23.5 -22h-9q-27 49 -64 64.5t-81 15.5zM413 794l-62 -59q-11 -11 -20 -15t-20 -4q-7 0 -14 2.5t-12 7.5l87 91q13 13 22 20t24 7q17 0 26 -8.5t17 -22.5l56 -91 q-6 -3 -13.5 -5.5t-17.5 -2.5t-16 4.5t-12 13.5z" />
<glyph unicode="&#x109;" horiz-adv-x="408" d="M367 82q9 -9 9 -20q0 -13 -8.5 -21.5t-22.5 -19.5q-19 -14 -50.5 -25t-66.5 -11q-30 0 -60 8.5t-55 29.5t-40.5 57t-15.5 91q0 71 21.5 127.5t56 95.5t78 60t87.5 21q49 0 78.5 -16.5t44.5 -37.5q9 -13 9 -24q0 -12 -4.5 -16t-9.5 -9l-12 -10h-8q-12 34 -39 49.5 t-65 15.5q-34 0 -66 -19.5t-56.5 -53t-39 -79.5t-14.5 -99q0 -65 28.5 -104t88.5 -39q34 0 62 14t56 48zM329 615l-73 -70q-11 -11 -20.5 -15t-16.5 -4q-16 0 -25 10l96 107q12 13 20.5 20t23.5 7q17 0 25 -8.5t16 -22.5l57 -107q-6 -3 -13 -5.5t-15 -2.5t-16 4.5t-14 13.5z " />
<glyph unicode="&#x10a;" horiz-adv-x="534" d="M395 629q-58 0 -105.5 -30t-81 -81t-51.5 -118.5t-18 -142.5q0 -46 10.5 -86t31 -70t52 -47t73.5 -17q52 0 94.5 20t80.5 57l12 -13q11 -11 11 -22q0 -14 -8 -22.5t-23 -19.5q-23 -17 -67 -34.5t-104 -17.5q-62 0 -105 22.5t-69.5 60.5t-38.5 87.5t-12 102.5q0 78 21 154 t62 135.5t102 96.5t142 37q36 0 62.5 -7.5t45.5 -17.5t31 -21t18 -18q15 -18 15 -32q0 -5 -3.5 -14t-23.5 -22h-9q-27 49 -64 64.5t-81 15.5zM412 824q19 0 29 -14t10 -28q0 -21 -13 -38.5t-37 -17.5q-20 0 -30 12t-10 28q0 23 13 40.5t38 17.5z" />
<glyph unicode="&#x10b;" horiz-adv-x="408" d="M367 82q9 -9 9 -20q0 -13 -8.5 -21.5t-22.5 -19.5q-19 -14 -50.5 -25t-66.5 -11q-30 0 -60 8.5t-55 29.5t-40.5 57t-15.5 91q0 71 21.5 127.5t56 95.5t78 60t87.5 21q49 0 78.5 -16.5t44.5 -37.5q9 -13 9 -24q0 -12 -4.5 -16t-9.5 -9l-12 -10h-8q-12 34 -39 49.5 t-65 15.5q-34 0 -66 -19.5t-56.5 -53t-39 -79.5t-14.5 -99q0 -65 28.5 -104t88.5 -39q34 0 62 14t56 48zM329 639q19 0 29 -14t10 -28q0 -21 -13 -38.5t-37 -17.5q-20 0 -30 12t-10 28q0 23 13 40.5t38 17.5z" />
<glyph unicode="&#x10c;" horiz-adv-x="534" d="M395 629q-58 0 -105.5 -30t-81 -81t-51.5 -118.5t-18 -142.5q0 -46 10.5 -86t31 -70t52 -47t73.5 -17q52 0 94.5 20t80.5 57l12 -13q11 -11 11 -22q0 -14 -8 -22.5t-23 -19.5q-23 -17 -67 -34.5t-104 -17.5q-62 0 -105 22.5t-69.5 60.5t-38.5 87.5t-12 102.5q0 78 21 154 t62 135.5t102 96.5t142 37q36 0 62.5 -7.5t45.5 -17.5t31 -21t18 -18q15 -18 15 -32q0 -5 -3.5 -14t-23.5 -22h-9q-27 49 -64 64.5t-81 15.5zM405 773l62 59q11 11 20 15t20 4q7 0 14 -2.5t12 -7.5l-87 -91q-13 -13 -22 -20t-24 -7q-17 0 -26 8.5t-17 22.5l-56 91 q6 3 13.5 5.5t17.5 2.5t16 -4.5t12 -13.5z" />
<glyph unicode="&#x10d;" horiz-adv-x="408" d="M367 82q9 -9 9 -20q0 -13 -8.5 -21.5t-22.5 -19.5q-19 -14 -50.5 -25t-66.5 -11q-30 0 -60 8.5t-55 29.5t-40.5 57t-15.5 91q0 71 21.5 127.5t56 95.5t78 60t87.5 21q49 0 78.5 -16.5t44.5 -37.5q9 -13 9 -24q0 -12 -4.5 -16t-9.5 -9l-12 -10h-8q-12 34 -39 49.5 t-65 15.5q-34 0 -66 -19.5t-56.5 -53t-39 -79.5t-14.5 -99q0 -65 28.5 -104t88.5 -39q34 0 62 14t56 48zM318 575l73 70q11 11 20.5 15t16.5 4q16 0 25 -10l-96 -107q-12 -13 -20.5 -20t-23.5 -7q-17 0 -25 8.5t-16 22.5l-57 107q6 3 13 5.5t15 2.5t16 -4.5t14 -13.5z" />
<glyph unicode="&#x10e;" horiz-adv-x="589" d="M53 0l110 667q45 5 78.5 7t66.5 2q76 0 125.5 -20.5t79 -54.5t41.5 -78.5t12 -92.5q0 -95 -22.5 -174t-68.5 -136t-115.5 -88.5t-162.5 -31.5h-144zM504 430q0 42 -10 78t-32.5 62t-59 41t-90.5 15h-23.5t-27.5 -1t-26.5 -2t-19.5 -2l-95 -572h81q84 0 142 31.5t94 84.5 t51.5 122t15.5 143zM342 773l62 59q11 11 20 15t20 4q7 0 14 -2.5t12 -7.5l-87 -91q-13 -13 -22 -20t-24 -7q-17 0 -26 8.5t-17 22.5l-56 91q6 3 13.5 5.5t17.5 2.5t16 -4.5t12 -13.5z" />
<glyph unicode="&#x10f;" horiz-adv-x="509" d="M299 427q-40 0 -74 -22t-58.5 -59t-38.5 -84t-14 -97q0 -63 23 -94.5t77 -31.5q16 0 38 6.5t43.5 22.5t39 41t23.5 63l38 227q-17 13 -38 20.5t-59 7.5zM402 92q-2 -8 -2.5 -16t-0.5 -13q0 -20 8 -27.5t22 -7.5q13 0 25 4l4 -22q-29 -16 -55 -16q-32 0 -46.5 17t-14.5 42 v7q-27 -32 -65.5 -52.5t-76.5 -20.5q-39 0 -66.5 13.5t-45.5 37.5t-26 57.5t-8 73.5q0 51 16.5 105t48 98.5t78 73.5t106.5 29q29 0 56.5 -10t43.5 -21l43 266q5 1 12 1q18 0 28.5 -11.5t10.5 -28.5v-4.5t-1 -6.5zM592 542q-4 -16 -17 -25.5t-30 -9.5h-7l23 140q2 11 4 22.5 t7 20.5t13.5 14.5t23.5 5.5q3 0 7.5 -0.5t10.5 -2.5z" />
<glyph unicode="&#x110;" horiz-adv-x="589" d="M53 0l53 323h-60l8 48h60l49 296q45 5 78.5 7t66.5 2q76 0 125.5 -20.5t79 -54.5t41.5 -78.5t12 -92.5q0 -95 -22.5 -174t-68.5 -136t-115.5 -88.5t-162.5 -31.5h-144zM504 430q0 42 -10 78t-32.5 62t-59 41t-90.5 15h-23.5t-27.5 -1t-26.5 -2t-19.5 -2l-42 -250h172 l-8 -48h-172l-45 -274h81q84 0 142 31.5t94 84.5t51.5 122t15.5 143z" />
<glyph unicode="&#x111;" horiz-adv-x="478" d="M237 565l8 48h185l16 97q5 1 12 1q18 0 28.5 -11.5t10.5 -28.5v-4.5t-1 -6.5l-8 -47h56l-8 -48h-56l-78 -473q-2 -8 -2.5 -16t-0.5 -13q0 -20 8 -27.5t22 -7.5q13 0 25 4l4 -22q-29 -16 -55 -16q-32 0 -46.5 17t-14.5 42v7q-27 -32 -65.5 -52.5t-76.5 -20.5 q-39 0 -66.5 13.5t-45.5 37.5t-26 57.5t-8 73.5q0 51 16.5 105t48 98.5t78 73.5t106.5 29q29 0 56.5 -10t43.5 -21l19 121h-185zM299 427q-40 0 -74 -22t-58.5 -59t-38.5 -84t-14 -97q0 -63 23 -94.5t77 -31.5q16 0 38 6.5t43.5 22.5t39 41t23.5 63l38 227q-17 13 -38 20.5 t-59 7.5z" />
<glyph unicode="&#x112;" horiz-adv-x="452" d="M373 50q21 0 29.5 -8t8.5 -25v-6t-2 -11h-356l111 669h337q0 -21 -8.5 -35.5t-34.5 -14.5h-242l-41 -244h211l-8 -50h-211l-46 -275h252zM246 742q-21 0 -29.5 7.5t-8.5 24.5q0 2 0.5 6.5t2.5 10.5h229q21 0 29.5 -7.5t8.5 -24.5q0 -2 -0.5 -6.5t-2.5 -10.5h-229z" />
<glyph unicode="&#x113;" horiz-adv-x="432" d="M227 -15q-30 0 -60 8.5t-54.5 29.5t-40 57t-15.5 91q0 71 22 127.5t57 95.5t79.5 60t88.5 21q59 0 90.5 -29t31.5 -81q0 -44 -23 -75.5t-60 -52.5t-83 -31t-92 -10h-27t-26 1v-21q0 -69 31 -106t88 -37q38 0 70.5 15t60.5 50l13 -13q4 -4 7 -9t3 -11q0 -14 -8.5 -22 t-22.5 -19q-20 -14 -51 -26.5t-79 -12.5zM150 237q49 0 89.5 9t69 25.5t44 40t15.5 53.5q0 26 -14 44.5t-52 18.5q-34 0 -64 -15t-53.5 -40.5t-40 -60t-23.5 -74.5q8 -1 16 -1h13zM209 558q-21 0 -29.5 7.5t-8.5 24.5q0 2 0.5 6.5t2.5 10.5h229q21 0 29.5 -7.5t8.5 -24.5 q0 -2 -0.5 -6.5t-2.5 -10.5h-229z" />
<glyph unicode="&#x114;" horiz-adv-x="452" d="M373 50q21 0 29.5 -8t8.5 -25v-6t-2 -11h-356l111 669h337q0 -21 -8.5 -35.5t-34.5 -14.5h-242l-41 -244h211l-8 -50h-211l-46 -275h252zM284 817q7 -35 23.5 -44t38.5 -9q21 0 45 13t40 50q8 17 15.5 22t18.5 5q8 0 14 -2t12 -5q-36 -125 -149 -125q-58 0 -84.5 30.5 t-24.5 95.5q13 5 21 5q18 0 22 -8.5t8 -27.5z" />
<glyph unicode="&#x115;" horiz-adv-x="432" d="M227 -15q-30 0 -60 8.5t-54.5 29.5t-40 57t-15.5 91q0 71 22 127.5t57 95.5t79.5 60t88.5 21q59 0 90.5 -29t31.5 -81q0 -44 -23 -75.5t-60 -52.5t-83 -31t-92 -10h-27t-26 1v-21q0 -69 31 -106t88 -37q38 0 70.5 15t60.5 50l13 -13q4 -4 7 -9t3 -11q0 -14 -8.5 -22 t-22.5 -19q-20 -14 -51 -26.5t-79 -12.5zM150 237q49 0 89.5 9t69 25.5t44 40t15.5 53.5q0 26 -14 44.5t-52 18.5q-34 0 -64 -15t-53.5 -40.5t-40 -60t-23.5 -74.5q8 -1 16 -1h13zM247 624q7 -37 22.5 -49.5t39.5 -12.5q29 0 48.5 16t36.5 55q8 17 15.5 22t18.5 5q8 0 14 -2 t12 -5q-19 -65 -54 -99t-95 -34q-58 0 -84.5 35t-24.5 100q13 5 21 5q18 0 22 -8.5t8 -27.5z" />
<glyph unicode="&#x116;" horiz-adv-x="452" d="M373 50q21 0 29.5 -8t8.5 -25v-6t-2 -11h-356l111 669h337q0 -21 -8.5 -35.5t-34.5 -14.5h-242l-41 -244h211l-8 -50h-211l-46 -275h252zM355 824q19 0 29 -14t10 -28q0 -21 -13 -38.5t-37 -17.5q-20 0 -30 12t-10 28q0 23 13 40.5t38 17.5z" />
<glyph unicode="&#x117;" horiz-adv-x="432" d="M227 -15q-30 0 -60 8.5t-54.5 29.5t-40 57t-15.5 91q0 71 22 127.5t57 95.5t79.5 60t88.5 21q59 0 90.5 -29t31.5 -81q0 -44 -23 -75.5t-60 -52.5t-83 -31t-92 -10h-27t-26 1v-21q0 -69 31 -106t88 -37q38 0 70.5 15t60.5 50l13 -13q4 -4 7 -9t3 -11q0 -14 -8.5 -22 t-22.5 -19q-20 -14 -51 -26.5t-79 -12.5zM150 237q49 0 89.5 9t69 25.5t44 40t15.5 53.5q0 26 -14 44.5t-52 18.5q-34 0 -64 -15t-53.5 -40.5t-40 -60t-23.5 -74.5q8 -1 16 -1h13zM325 639q19 0 29 -14t10 -28q0 -21 -13 -38.5t-37 -17.5q-20 0 -30 12t-10 28q0 23 13 40.5 t38 17.5z" />
<glyph unicode="&#x118;" horiz-adv-x="452" d="M277 -138q0 21 8 41t20 38t26.5 33t28.5 26h-307l111 669h337q0 -21 -8.5 -35.5t-34.5 -14.5h-242l-41 -244h211l-8 -50h-211l-46 -275h252q21 0 29.5 -8t8.5 -25v-6t-2 -11q-14 -11 -28 -25.5t-25.5 -31.5t-19 -35.5t-7.5 -36.5q0 -17 8.5 -24t21.5 -7q14 0 24.5 8.5 t18.5 16.5q15 -11 15 -25q0 -10 -6 -17q-9 -10 -26 -16.5t-40 -6.5q-30 0 -49 15t-19 47z" />
<glyph unicode="&#x119;" horiz-adv-x="432" d="M150 237q49 0 89.5 9t69 25.5t44 40t15.5 53.5q0 26 -14 44.5t-52 18.5q-34 0 -64 -15t-53.5 -40.5t-40 -60t-23.5 -74.5q8 -1 16 -1h13zM187 -138q0 36 21.5 69t46.5 56q-7 -1 -13.5 -1.5t-14.5 -0.5q-30 0 -60 8.5t-54.5 29.5t-40 57t-15.5 91q0 71 22 127.5t57 95.5 t79.5 60t88.5 21q59 0 90.5 -29t31.5 -81q0 -44 -23 -75.5t-60 -52.5t-83 -31t-92 -10h-27t-26 1v-21q0 -69 31 -106t88 -37q38 0 70.5 15t60.5 50l13 -13q4 -4 7 -9t3 -11q0 -14 -8.5 -22t-22.5 -19q-7 -5 -14 -9t-15 -9q-15 -9 -30.5 -24t-28.5 -33t-21.5 -38.5 t-8.5 -39.5q0 -17 8.5 -24t21.5 -7q14 0 24.5 8.5t18.5 16.5q15 -11 15 -25q0 -10 -6 -17q-9 -10 -26 -16.5t-40 -6.5q-30 0 -49 15t-19 47z" />
<glyph unicode="&#x11a;" horiz-adv-x="452" d="M373 50q21 0 29.5 -8t8.5 -25v-6t-2 -11h-356l111 669h337q0 -21 -8.5 -35.5t-34.5 -14.5h-242l-41 -244h211l-8 -50h-211l-46 -275h252zM349 773l62 59q11 11 20 15t20 4q7 0 14 -2.5t12 -7.5l-87 -91q-13 -13 -22 -20t-24 -7q-17 0 -26 8.5t-17 22.5l-56 91 q6 3 13.5 5.5t17.5 2.5t16 -4.5t12 -13.5z" />
<glyph unicode="&#x11b;" horiz-adv-x="432" d="M227 -15q-30 0 -60 8.5t-54.5 29.5t-40 57t-15.5 91q0 71 22 127.5t57 95.5t79.5 60t88.5 21q59 0 90.5 -29t31.5 -81q0 -44 -23 -75.5t-60 -52.5t-83 -31t-92 -10h-27t-26 1v-21q0 -69 31 -106t88 -37q38 0 70.5 15t60.5 50l13 -13q4 -4 7 -9t3 -11q0 -14 -8.5 -22 t-22.5 -19q-20 -14 -51 -26.5t-79 -12.5zM150 237q49 0 89.5 9t69 25.5t44 40t15.5 53.5q0 26 -14 44.5t-52 18.5q-34 0 -64 -15t-53.5 -40.5t-40 -60t-23.5 -74.5q8 -1 16 -1h13zM309 575l73 70q11 11 20.5 15t16.5 4q16 0 25 -10l-96 -107q-12 -13 -20.5 -20t-23.5 -7 q-17 0 -25 8.5t-16 22.5l-57 107q6 3 13 5.5t15 2.5t16 -4.5t14 -13.5z" />
<glyph unicode="&#x11c;" horiz-adv-x="602" d="M395 629q-58 0 -105.5 -30t-81 -81t-51.5 -118.5t-18 -142.5q0 -46 10.5 -86t31 -70t52 -47t73.5 -17q60 0 99 20t62 42l32 188h-140l9 50h198l-42 -251q-15 -19 -36.5 -37t-49.5 -32.5t-62 -23t-74 -8.5q-62 0 -105 22.5t-69.5 60.5t-38.5 87.5t-12 102.5q0 78 21 154 t62 135.5t102 96.5t142 37q36 0 62.5 -7.5t45.5 -17.5t31 -21t18 -18q15 -18 15 -32q0 -5 -3.5 -14t-23.5 -22h-9q-27 49 -64 64.5t-81 15.5zM415 794l-62 -59q-11 -11 -20 -15t-20 -4q-7 0 -14 2.5t-12 7.5l87 91q13 13 22 20t24 7q17 0 26 -8.5t17 -22.5l56 -91 q-6 -3 -13.5 -5.5t-17.5 -2.5t-16 4.5t-12 13.5z" />
<glyph unicode="&#x11d;" horiz-adv-x="470" d="M301 428q-39 0 -73 -23t-59.5 -60t-40 -84t-14.5 -96q0 -63 24 -95.5t78 -32.5q17 0 38.5 7t41.5 23t36.5 41.5t22.5 63.5l39 235q-21 14 -43 17.5t-50 3.5zM161 -179q38 0 67 14t49 38.5t33 59t20 76.5l8 50q-26 -32 -60 -53t-76 -21q-40 0 -68 14t-46 38.5t-26 58 t-8 73.5q0 51 17.5 105t50 98.5t79 73.5t104.5 29q52 0 89.5 -16t60.5 -33l-70 -422q-19 -114 -75.5 -172.5t-153.5 -58.5q-31 0 -61.5 7t-53.5 23q-14 11 -22.5 19.5t-8.5 21.5q0 6 3 11t7 9l14 15q28 -34 57.5 -46t69.5 -12zM334 615l-73 -70q-11 -11 -20.5 -15t-16.5 -4 q-16 0 -25 10l96 107q12 13 20.5 20t23.5 7q17 0 25 -8.5t16 -22.5l57 -107q-6 -3 -13 -5.5t-15 -2.5t-16 4.5t-14 13.5z" />
<glyph unicode="&#x11e;" horiz-adv-x="602" d="M395 629q-58 0 -105.5 -30t-81 -81t-51.5 -118.5t-18 -142.5q0 -46 10.5 -86t31 -70t52 -47t73.5 -17q60 0 99 20t62 42l32 188h-140l9 50h198l-42 -251q-15 -19 -36.5 -37t-49.5 -32.5t-62 -23t-74 -8.5q-62 0 -105 22.5t-69.5 60.5t-38.5 87.5t-12 102.5q0 78 21 154 t62 135.5t102 96.5t142 37q36 0 62.5 -7.5t45.5 -17.5t31 -21t18 -18q15 -18 15 -32q0 -5 -3.5 -14t-23.5 -22h-9q-27 49 -64 64.5t-81 15.5zM340 817q7 -35 23.5 -44t38.5 -9q21 0 45 13t40 50q8 17 15.5 22t18.5 5q8 0 14 -2t12 -5q-36 -125 -149 -125q-58 0 -84.5 30.5 t-24.5 95.5q13 5 21 5q18 0 22 -8.5t8 -27.5z" />
<glyph unicode="&#x11f;" horiz-adv-x="470" d="M301 428q-39 0 -73 -23t-59.5 -60t-40 -84t-14.5 -96q0 -63 24 -95.5t78 -32.5q17 0 38.5 7t41.5 23t36.5 41.5t22.5 63.5l39 235q-21 14 -43 17.5t-50 3.5zM161 -179q38 0 67 14t49 38.5t33 59t20 76.5l8 50q-26 -32 -60 -53t-76 -21q-40 0 -68 14t-46 38.5t-26 58 t-8 73.5q0 51 17.5 105t50 98.5t79 73.5t104.5 29q52 0 89.5 -16t60.5 -33l-70 -422q-19 -114 -75.5 -172.5t-153.5 -58.5q-31 0 -61.5 7t-53.5 23q-14 11 -22.5 19.5t-8.5 21.5q0 6 3 11t7 9l14 15q28 -34 57.5 -46t69.5 -12zM273 624q7 -37 22.5 -49.5t39.5 -12.5 q29 0 48.5 16t36.5 55q8 17 15.5 22t18.5 5q8 0 14 -2t12 -5q-19 -65 -54 -99t-95 -34q-58 0 -84.5 35t-24.5 100q13 5 21 5q18 0 22 -8.5t8 -27.5z" />
<glyph unicode="&#x120;" horiz-adv-x="602" d="M395 629q-58 0 -105.5 -30t-81 -81t-51.5 -118.5t-18 -142.5q0 -46 10.5 -86t31 -70t52 -47t73.5 -17q60 0 99 20t62 42l32 188h-140l9 50h198l-42 -251q-15 -19 -36.5 -37t-49.5 -32.5t-62 -23t-74 -8.5q-62 0 -105 22.5t-69.5 60.5t-38.5 87.5t-12 102.5q0 78 21 154 t62 135.5t102 96.5t142 37q36 0 62.5 -7.5t45.5 -17.5t31 -21t18 -18q15 -18 15 -32q0 -5 -3.5 -14t-23.5 -22h-9q-27 49 -64 64.5t-81 15.5zM408 824q19 0 29 -14t10 -28q0 -21 -13 -38.5t-37 -17.5q-20 0 -30 12t-10 28q0 23 13 40.5t38 17.5z" />
<glyph unicode="&#x121;" horiz-adv-x="470" d="M301 428q-39 0 -73 -23t-59.5 -60t-40 -84t-14.5 -96q0 -63 24 -95.5t78 -32.5q17 0 38.5 7t41.5 23t36.5 41.5t22.5 63.5l39 235q-21 14 -43 17.5t-50 3.5zM161 -179q38 0 67 14t49 38.5t33 59t20 76.5l8 50q-26 -32 -60 -53t-76 -21q-40 0 -68 14t-46 38.5t-26 58 t-8 73.5q0 51 17.5 105t50 98.5t79 73.5t104.5 29q52 0 89.5 -16t60.5 -33l-70 -422q-19 -114 -75.5 -172.5t-153.5 -58.5q-31 0 -61.5 7t-53.5 23q-14 11 -22.5 19.5t-8.5 21.5q0 6 3 11t7 9l14 15q28 -34 57.5 -46t69.5 -12zM332 639q19 0 29 -14t10 -28q0 -21 -13 -38.5 t-37 -17.5q-20 0 -30 12t-10 28q0 23 13 40.5t38 17.5z" />
<glyph unicode="&#x122;" horiz-adv-x="602" d="M395 629q-58 0 -105.5 -30t-81 -81t-51.5 -118.5t-18 -142.5q0 -46 10.5 -86t31 -70t52 -47t73.5 -17q60 0 99 20t62 42l32 188h-140l9 50h198l-42 -251q-15 -19 -36.5 -37t-49.5 -32.5t-62 -23t-74 -8.5q-62 0 -105 22.5t-69.5 60.5t-38.5 87.5t-12 102.5q0 78 21 154 t62 135.5t102 96.5t142 37q36 0 62.5 -7.5t45.5 -17.5t31 -21t18 -18q15 -18 15 -32q0 -5 -3.5 -14t-23.5 -22h-9q-27 49 -64 64.5t-81 15.5zM256 -175q-8 -12 -18 -19t-25 -7q-13 0 -18 4l56 109q10 19 21 30t31 11q9 0 15.5 -2.5t12.5 -6.5z" />
<glyph unicode="&#x123;" horiz-adv-x="470" d="M301 428q-39 0 -73 -23t-59.5 -60t-40 -84t-14.5 -96q0 -63 24 -95.5t78 -32.5q17 0 38.5 7t41.5 23t36.5 41.5t22.5 63.5l39 235q-21 14 -43 17.5t-50 3.5zM161 -179q38 0 67 14t49 38.5t33 59t20 76.5l8 50q-26 -32 -60 -53t-76 -21q-40 0 -68 14t-46 38.5t-26 58 t-8 73.5q0 51 17.5 105t50 98.5t79 73.5t104.5 29q52 0 89.5 -16t60.5 -33l-70 -422q-19 -114 -75.5 -172.5t-153.5 -58.5q-31 0 -61.5 7t-53.5 23q-14 11 -22.5 19.5t-8.5 21.5q0 6 3 11t7 9l14 15q28 -34 57.5 -46t69.5 -12zM349 648q8 12 18 19t25 7q13 0 18 -4l-56 -109 q-10 -19 -21 -30t-31 -11q-9 0 -15.5 2.5t-12.5 6.5z" />
<glyph unicode="&#x124;" horiz-adv-x="598" d="M490 0h-59l53 321h-319l-53 -321h-59l110 670q5 1 12 1q18 0 29 -11.5t11 -28.5v-4.5t-1 -6.5l-41 -249h319l50 299q5 1 12 1q18 0 29 -11.5t11 -28.5v-4.5t-1 -6.5zM388 794l-62 -59q-11 -11 -20 -15t-20 -4q-7 0 -14 2.5t-12 7.5l87 91q13 13 22 20t24 7q17 0 26 -8.5 t17 -22.5l56 -91q-6 -3 -13.5 -5.5t-17.5 -2.5t-16 4.5t-12 13.5z" />
<glyph unicode="&#x125;" horiz-adv-x="491" d="M174 403q27 31 66.5 51.5t85.5 20.5q34 0 58 -11t39 -29t22 -42t7 -50q0 -17 -2 -35.5t-5 -35.5l-45 -272h-58l45 272q2 14 4.5 32.5t2.5 34.5q0 41 -20 63.5t-61 22.5q-26 0 -52 -8.5t-47.5 -26t-37 -43t-21.5 -59.5l-48 -288h-58l117 710q5 1 12 1q18 0 28.5 -11.5 t10.5 -28.5v-4.5t-1 -6.5zM301 824l-62 -59q-11 -11 -20 -15t-20 -4q-7 0 -14 2.5t-12 7.5l87 91q13 13 22 20t24 7q17 0 26 -8.5t17 -22.5l56 -91q-6 -3 -13.5 -5.5t-17.5 -2.5t-16 4.5t-12 13.5z" />
<glyph unicode="&#x126;" horiz-adv-x="598" d="M86 558h59l18 112q5 1 12 1q18 0 29 -11.5t11 -28.5v-4.5t-1 -6.5l-11 -62h320l19 112q5 1 12 1q18 0 29 -11.5t11 -28.5v-4.5t-1 -6.5l-11 -62h58l-8 -49h-58l-84 -509h-59l53 321h-319l-53 -321h-59l84 509h-59zM492 371l23 138h-320l-22 -138h319z" />
<glyph unicode="&#x127;" horiz-adv-x="491" d="M86 565l8 48h56l16 97q5 1 12 1q18 0 28.5 -11.5t10.5 -28.5v-4.5t-1 -6.5l-8 -47h186l-8 -48h-186l-26 -162q27 31 66.5 51.5t85.5 20.5q34 0 58 -11t39 -29t22 -42t7 -50q0 -17 -2 -35.5t-5 -35.5l-45 -272h-58l45 272q2 14 4.5 32.5t2.5 34.5q0 41 -20 63.5t-61 22.5 q-26 0 -52 -8.5t-47.5 -26t-37 -43t-21.5 -59.5l-48 -288h-58l93 565h-56z" />
<glyph unicode="&#x128;" horiz-adv-x="217" d="M112 0h-59l111 670q5 1 12 1q18 0 28.5 -11.5t10.5 -28.5v-4.5t-1 -6.5zM250 782q20 0 35.5 11t31.5 41q20 -8 22.5 -23t-6.5 -29q-11 -17 -30.5 -32t-61.5 -15q-15 0 -28 6t-26 12.5t-26.5 12.5t-28.5 6q-16 0 -32 -6.5t-32 -36.5q-18 8 -21 23t7 29q12 15 32 27t56 12 q17 0 31 -6t27 -13t25 -13t25 -6z" />
<glyph unicode="&#x129;" horiz-adv-x="203" d="M122 92q-2 -8 -2.5 -16t-0.5 -13q0 -20 8 -27.5t22 -7.5q13 0 25 4l4 -22q-29 -16 -55 -16q-32 0 -47.5 17t-15.5 42q0 11 1.5 21t3.5 24l61 369h5q18 0 31.5 -11t13.5 -31q0 -6 -2 -16q-1 -4 -1 -9zM215 587q20 0 35.5 11t31.5 41q20 -8 22.5 -23t-6.5 -29 q-11 -17 -30.5 -32t-61.5 -15q-15 0 -28 6t-26 12.5t-26.5 12.5t-28.5 6q-16 0 -32 -6.5t-32 -36.5q-18 8 -21 23t7 29q12 15 32 27t56 12q17 0 31 -6t27 -13t25 -13t25 -6z" />
<glyph unicode="&#x12a;" horiz-adv-x="217" d="M112 0h-59l111 670q5 1 12 1q18 0 28.5 -11.5t10.5 -28.5v-4.5t-1 -6.5zM95 742q-21 0 -29.5 7.5t-8.5 24.5q0 2 0.5 6.5t2.5 10.5h229q21 0 29.5 -7.5t8.5 -24.5q0 -2 -0.5 -6.5t-2.5 -10.5h-229z" />
<glyph unicode="&#x12b;" horiz-adv-x="203" d="M122 92q-2 -8 -2.5 -16t-0.5 -13q0 -20 8 -27.5t22 -7.5q13 0 25 4l4 -22q-29 -16 -55 -16q-32 0 -47.5 17t-15.5 42q0 11 1.5 21t3.5 24l61 369h5q18 0 31.5 -11t13.5 -31q0 -6 -2 -16q-1 -4 -1 -9zM60 558q-21 0 -29.5 7.5t-8.5 24.5q0 2 0.5 6.5t2.5 10.5h229 q21 0 29.5 -7.5t8.5 -24.5q0 -2 -0.5 -6.5t-2.5 -10.5h-229z" />
<glyph unicode="&#x12c;" horiz-adv-x="217" d="M112 0h-59l111 670q5 1 12 1q18 0 28.5 -11.5t10.5 -28.5v-4.5t-1 -6.5zM138 817q7 -35 23.5 -44t38.5 -9q21 0 45 13t40 50q8 17 15.5 22t18.5 5q8 0 14 -2t12 -5q-36 -125 -149 -125q-58 0 -84.5 30.5t-24.5 95.5q13 5 21 5q18 0 22 -8.5t8 -27.5z" />
<glyph unicode="&#x12d;" horiz-adv-x="203" d="M122 92q-2 -8 -2.5 -16t-0.5 -13q0 -20 8 -27.5t22 -7.5q13 0 25 4l4 -22q-29 -16 -55 -16q-32 0 -47.5 17t-15.5 42q0 11 1.5 21t3.5 24l61 369h5q18 0 31.5 -11t13.5 -31q0 -6 -2 -16q-1 -4 -1 -9zM99 624q7 -37 22.5 -49.5t39.5 -12.5q29 0 48.5 16t36.5 55 q8 17 15.5 22t18.5 5q8 0 14 -2t12 -5q-19 -65 -54 -99t-95 -34q-58 0 -84.5 35t-24.5 100q13 5 21 5q18 0 22 -8.5t8 -27.5z" />
<glyph unicode="&#x12e;" horiz-adv-x="217" d="M32 -129q0 -17 8.5 -24t21.5 -7q14 0 24.5 8.5t18.5 16.5q15 -11 15 -25q0 -10 -6 -17q-9 -10 -26 -16.5t-40 -6.5q-30 0 -49 15t-19 47q0 19 7 38.5t17.5 38t23.5 34t25 27.5l111 670q5 1 12 1q18 0 28.5 -11.5t10.5 -28.5v-4.5t-1 -6.5l-102 -620q-14 -11 -28 -25.5 t-25.5 -31.5t-19 -35.5t-7.5 -36.5z" />
<glyph unicode="&#x12f;" horiz-adv-x="203" d="M177 636q17 0 26 -12t9 -28q0 -19 -11.5 -35.5t-34.5 -16.5q-18 0 -27 11t-9 28q0 20 12 36.5t35 16.5zM31 -138q0 20 7 39t18.5 36t25 32t26.5 26q-25 4 -36.5 20t-11.5 38q0 11 1.5 21t3.5 24l61 369h5q18 0 31.5 -11t13.5 -31q0 -6 -2 -16q-1 -4 -1 -9l-51 -308 q-2 -8 -2.5 -16t-0.5 -13q0 -20 8 -27.5t22 -7.5q13 0 25 4l4 -22q-15 -9 -31.5 -24t-30.5 -33.5t-23.5 -39.5t-9.5 -42q0 -17 8.5 -24t21.5 -7q14 0 24.5 8.5t18.5 16.5q15 -11 15 -25q0 -10 -6 -17q-9 -10 -26 -16.5t-40 -6.5q-30 0 -49 15t-19 47z" />
<glyph unicode="&#x130;" horiz-adv-x="217" d="M112 0h-59l111 670q5 1 12 1q18 0 28.5 -11.5t10.5 -28.5v-4.5t-1 -6.5zM210 824q19 0 29 -14t10 -28q0 -21 -13 -38.5t-37 -17.5q-20 0 -30 12t-10 28q0 23 13 40.5t38 17.5z" />
<glyph unicode="&#x131;" horiz-adv-x="203" d="M122 92q-2 -8 -2.5 -16t-0.5 -13q0 -20 8 -27.5t22 -7.5q13 0 25 4l4 -22q-29 -16 -55 -16q-32 0 -47.5 17t-15.5 42q0 11 1.5 21t3.5 24l61 369h5q18 0 31.5 -11t13.5 -31q0 -6 -2 -16q-1 -4 -1 -9z" />
<glyph unicode="&#x132;" horiz-adv-x="436" d="M112 0h-59l111 670q5 1 12 1q18 0 28.5 -11.5t10.5 -28.5v-4.5t-1 -6.5zM334 23q-5 -32 -15 -66t-29 -62t-49.5 -46.5t-76.5 -18.5q-24 0 -30.5 7.5t-6.5 23.5q0 5 2 10.5t4 9.5q8 -2 12 -2h7q31 0 52 10.5t34.5 29t21.5 43.5t13 54l109 654q5 1 12 1q18 0 28.5 -11.5 t10.5 -28.5v-4.5t-1 -6.5z" />
<glyph unicode="&#x133;" horiz-adv-x="399" d="M122 92q-2 -8 -2.5 -16t-0.5 -13q0 -20 8 -27.5t22 -7.5q13 0 25 4l4 -22q-29 -16 -55 -16q-32 0 -47.5 17t-15.5 42q0 11 1.5 21t3.5 24l61 369h5q18 0 31.5 -11t13.5 -31q0 -6 -2 -16q-1 -4 -1 -9zM177 636q17 0 26 -12t9 -28q0 -19 -11.5 -35.5t-34.5 -16.5 q-18 0 -27 11t-9 28q0 20 12 36.5t35 16.5zM298 -59q-9 -57 -24 -90t-35 -50q-20 -18 -43 -23t-36 -5q-21 0 -25.5 12.5t-4.5 23.5v9h9q24 0 42 8t29 22t18 36t11 45l88 538h5q18 0 31.5 -11t13.5 -31q0 -6 -2 -16q-1 -4 -1 -9zM378 636q17 0 26 -12t9 -28 q0 -19 -11.5 -35.5t-34.5 -16.5q-18 0 -27 11t-9 28q0 20 12 36.5t35 16.5z" />
<glyph unicode="&#x134;" horiz-adv-x="218" d="M116 23q-5 -32 -15 -66t-29 -62t-49.5 -46.5t-76.5 -18.5q-24 0 -30.5 7.5t-6.5 23.5q0 5 2 10.5t4 9.5q8 -2 12 -2h7q31 0 52 10.5t34.5 29t21.5 43.5t13 54l109 654q5 1 12 1q18 0 28.5 -11.5t10.5 -28.5v-4.5t-1 -6.5zM204 794l-62 -59q-11 -11 -20 -15t-20 -4 q-7 0 -14 2.5t-12 7.5l87 91q13 13 22 20t24 7q17 0 26 -8.5t17 -22.5l56 -91q-6 -3 -13.5 -5.5t-17.5 -2.5t-16 4.5t-12 13.5z" />
<glyph unicode="&#x135;" horiz-adv-x="198" d="M97 -59q-9 -57 -24 -90t-35 -50q-20 -18 -43 -23t-36 -5q-21 0 -25.5 12.5t-4.5 23.5v9h9q24 0 42 8t29 22t18 36t11 45l88 538h5q18 0 31.5 -11t13.5 -31q0 -6 -2 -16q-1 -4 -1 -9zM172 615l-73 -70q-11 -11 -20.5 -15t-16.5 -4q-16 0 -25 10l96 107q12 13 20.5 20 t23.5 7q17 0 25 -8.5t16 -22.5l57 -107q-6 -3 -13 -5.5t-15 -2.5t-16 4.5t-14 13.5z" />
<glyph unicode="&#x136;" horiz-adv-x="489" d="M467 646q14 14 27.5 19.5t24.5 5.5q19 0 34 -12l-304 -300l211 -363q-9 -3 -15.5 -4t-14.5 -1q-20 0 -32.5 6.5t-23.5 26.5l-188 323l4 25zM112 0h-59l111 670q5 1 12 1q18 0 28.5 -11.5t10.5 -28.5v-4.5t-1 -6.5zM204 -175q-8 -12 -18 -19t-25 -7q-13 0 -18 4l56 109 q10 19 21 30t31 11q9 0 15.5 -2.5t12.5 -6.5z" />
<glyph unicode="&#x137;" horiz-adv-x="422" d="M107 0h-58l117 710q5 1 12 1q18 0 28.5 -11.5t10.5 -28.5v-4.5t-1 -6.5zM366 53q8 -12 15 -18.5t18 -6.5q10 0 22 4l5 -22q-6 -5 -22 -10.5t-30 -5.5q-23 0 -35.5 6.5t-26.5 27.5l-137 219l4 25l170 160q11 11 27.5 23t36.5 12q8 0 12.5 -2t9.5 -5l11 -8l-210 -192z M166 -175q-8 -12 -18 -19t-25 -7q-13 0 -18 4l56 109q10 19 21 30t31 11q9 0 15.5 -2.5t12.5 -6.5z" />
<glyph unicode="&#x138;" horiz-adv-x="415" d="M107 0h-58l77 466q5 1 12 1q18 0 28.5 -11.5t10.5 -28.5v-4.5t-1 -6.5zM361 53q8 -11 15 -18t18 -7q10 0 22 4l5 -22q-6 -5 -22 -10.5t-30 -5.5q-23 0 -35.5 7t-26.5 27l-134 201l4 25l177 188q8 8 21 16.5t31 8.5q8 0 16 -2.5t17 -11.5l-205 -212z" />
<glyph unicode="&#x139;" horiz-adv-x="426" d="M53 0l110 670q5 1 13 1q18 0 28.5 -11.5t10.5 -28.5v-4.5t-1 -6.5l-94 -570h239q21 0 29.5 -8t8.5 -25v-6t-2 -11h-342zM210 724q-16 -10 -33 -10q-21 0 -30 16l112 87q12 9 23.5 14.5t24.5 5.5q14 0 24.5 -9.5t14.5 -18.5z" />
<glyph unicode="&#x13a;" horiz-adv-x="203" d="M122 92q-2 -8 -2.5 -16t-0.5 -13q0 -20 8 -27.5t22 -7.5q13 0 25 4l4 -22q-29 -16 -55 -16q-32 0 -47.5 17t-15.5 42q0 11 1.5 21t3.5 24l101 612q5 1 12 1q18 0 28.5 -11.5t10.5 -28.5v-4.5t-1 -6.5zM194 764q-16 -10 -33 -10q-21 0 -30 16l112 87q12 9 23.5 14.5 t24.5 5.5q14 0 24.5 -9.5t14.5 -18.5z" />
<glyph unicode="&#x13b;" horiz-adv-x="426" d="M53 0l110 670q5 1 13 1q18 0 28.5 -11.5t10.5 -28.5v-4.5t-1 -6.5l-94 -570h239q21 0 29.5 -8t8.5 -25v-6t-2 -11h-342zM186 -175q-8 -12 -18 -19t-25 -7q-13 0 -18 4l56 109q10 19 21 30t31 11q9 0 15.5 -2.5t12.5 -6.5z" />
<glyph unicode="&#x13c;" horiz-adv-x="203" d="M122 92q-2 -8 -2.5 -16t-0.5 -13q0 -20 8 -27.5t22 -7.5q13 0 25 4l4 -22q-29 -16 -55 -16q-32 0 -47.5 17t-15.5 42q0 11 1.5 21t3.5 24l101 612q5 1 12 1q18 0 28.5 -11.5t10.5 -28.5v-4.5t-1 -6.5zM58 -175q-8 -12 -18 -19t-25 -7q-13 0 -18 4l56 109q10 19 21 30 t31 11q9 0 15.5 -2.5t12.5 -6.5z" />
<glyph unicode="&#x13d;" horiz-adv-x="426" d="M53 0l110 670q5 1 13 1q18 0 28.5 -11.5t10.5 -28.5v-4.5t-1 -6.5l-94 -570h239q21 0 29.5 -8t8.5 -25v-6t-2 -11h-342zM343 504q-4 -16 -17 -25.5t-30 -9.5h-7l23 140q2 11 4 22.5t7 20.5t13.5 14.5t23.5 5.5q3 0 7.5 -0.5t10.5 -2.5z" />
<glyph unicode="&#x13e;" horiz-adv-x="235" d="M122 92q-2 -8 -2.5 -16t-0.5 -13q0 -20 8 -27.5t22 -7.5q13 0 25 4l4 -22q-29 -16 -55 -16q-32 0 -47.5 17t-15.5 42q0 11 1.5 21t3.5 24l101 612q5 1 12 1q18 0 28.5 -11.5t10.5 -28.5v-4.5t-1 -6.5zM312 542q-4 -16 -17 -25.5t-30 -9.5h-7l23 140q2 11 4 22.5t7 20.5 t13.5 14.5t23.5 5.5q3 0 7.5 -0.5t10.5 -2.5z" />
<glyph unicode="&#x13f;" horiz-adv-x="426" d="M53 0l110 670q5 1 13 1q18 0 28.5 -11.5t10.5 -28.5v-4.5t-1 -6.5l-94 -570h239q21 0 29.5 -8t8.5 -25v-6t-2 -11h-342zM366 400q16 0 24.5 -10.5t10.5 -24.5q2 -20 -10 -38.5t-36 -18.5q-17 0 -25.5 10t-10.5 24q-2 21 10 39.5t37 18.5z" />
<glyph unicode="&#x140;" horiz-adv-x="299" d="M122 92q-2 -8 -2.5 -16t-0.5 -13q0 -20 8 -27.5t22 -7.5q13 0 25 4l4 -22q-29 -16 -55 -16q-32 0 -47.5 17t-15.5 42q0 11 1.5 21t3.5 24l101 612q5 1 12 1q18 0 28.5 -11.5t10.5 -28.5v-4.5t-1 -6.5zM294 430q19 0 29 -14t10 -28q0 -21 -13 -38.5t-37 -17.5 q-20 0 -30 12t-10 28q0 23 13 40.5t38 17.5z" />
<glyph unicode="&#x141;" horiz-adv-x="426" d="M18 286l86 30l59 354q5 1 13 1q18 0 28.5 -11.5t10.5 -28.5v-4.5t-1 -6.5l-47 -283l185 64l14 -45l-208 -72l-38 -234h239q21 0 29.5 -8t8.5 -25v-6t-2 -11h-342l43 263l-64 -22z" />
<glyph unicode="&#x142;" horiz-adv-x="278" d="M162 92q-2 -8 -2.5 -16t-0.5 -13q0 -20 8 -27.5t22 -7.5q13 0 25 4l4 -22q-29 -16 -55 -16q-32 0 -47.5 17t-15.5 42q0 11 1.5 21t3.5 24l39 238l-78 -42l-22 40l109 58l53 318q5 1 12 1q18 0 28.5 -11.5t10.5 -28.5v-4.5t-1 -6.5l-40 -241l83 45l22 -40l-114 -61z" />
<glyph unicode="&#x143;" horiz-adv-x="608" d="M502 0h-57l-244 568l-92 -568h-56l110 666q8 3 13.5 4t11.5 1q13 0 22 -5.5t16 -20.5l236 -556l94 581q5 1 12 1q18 0 28 -11.5t10 -28.5v-4.5t-1 -6.5zM391 724q-16 -10 -33 -10q-21 0 -30 16l112 87q12 9 23.5 14.5t24.5 5.5q14 0 24.5 -9.5t14.5 -18.5z" />
<glyph unicode="&#x144;" horiz-adv-x="491" d="M342 0l45 272q2 14 4.5 32.5t2.5 34.5q0 41 -20 63.5t-61 22.5q-26 0 -52 -8.5t-47.5 -26t-37 -43t-21.5 -59.5l-48 -288h-58l77 467h5q18 0 30 -11t12 -31q0 -4 -0.5 -8t-0.5 -8q-1 -4 -1 -9q27 32 67.5 53.5t87.5 21.5q34 0 58 -11t39 -29t22 -42t7 -50q0 -17 -2 -35.5 t-5 -35.5l-45 -272h-58zM320 534q-9 -9 -16.5 -11.5t-18.5 -2.5q-8 0 -16.5 3.5t-11.5 7.5l90 110q11 14 22.5 21.5t26.5 7.5q13 0 23 -5.5t16 -11.5z" />
<glyph unicode="&#x145;" horiz-adv-x="608" d="M502 0h-57l-244 568l-92 -568h-56l110 666q8 3 13.5 4t11.5 1q13 0 22 -5.5t16 -20.5l236 -556l94 581q5 1 12 1q18 0 28 -11.5t10 -28.5v-4.5t-1 -6.5zM238 -175q-8 -12 -18 -19t-25 -7q-13 0 -18 4l56 109q10 19 21 30t31 11q9 0 15.5 -2.5t12.5 -6.5z" />
<glyph unicode="&#x146;" horiz-adv-x="491" d="M342 0l45 272q2 14 4.5 32.5t2.5 34.5q0 41 -20 63.5t-61 22.5q-26 0 -52 -8.5t-47.5 -26t-37 -43t-21.5 -59.5l-48 -288h-58l77 467h5q18 0 30 -11t12 -31q0 -4 -0.5 -8t-0.5 -8q-1 -4 -1 -9q27 32 67.5 53.5t87.5 21.5q34 0 58 -11t39 -29t22 -42t7 -50q0 -17 -2 -35.5 t-5 -35.5l-45 -272h-58zM182 -175q-8 -12 -18 -19t-25 -7q-13 0 -18 4l56 109q10 19 21 30t31 11q9 0 15.5 -2.5t12.5 -6.5z" />
<glyph unicode="&#x147;" horiz-adv-x="608" d="M502 0h-57l-244 568l-92 -568h-56l110 666q8 3 13.5 4t11.5 1q13 0 22 -5.5t16 -20.5l236 -556l94 581q5 1 12 1q18 0 28 -11.5t10 -28.5v-4.5t-1 -6.5zM392 773l62 59q11 11 20 15t20 4q7 0 14 -2.5t12 -7.5l-87 -91q-13 -13 -22 -20t-24 -7q-17 0 -26 8.5t-17 22.5 l-56 91q6 3 13.5 5.5t17.5 2.5t16 -4.5t12 -13.5z" />
<glyph unicode="&#x148;" horiz-adv-x="491" d="M342 0l45 272q2 14 4.5 32.5t2.5 34.5q0 41 -20 63.5t-61 22.5q-26 0 -52 -8.5t-47.5 -26t-37 -43t-21.5 -59.5l-48 -288h-58l77 467h5q18 0 30 -11t12 -31q0 -4 -0.5 -8t-0.5 -8q-1 -4 -1 -9q27 32 67.5 53.5t87.5 21.5q34 0 58 -11t39 -29t22 -42t7 -50q0 -17 -2 -35.5 t-5 -35.5l-45 -272h-58zM321 575l73 70q11 11 20.5 15t16.5 4q16 0 25 -10l-96 -107q-12 -13 -20.5 -20t-23.5 -7q-17 0 -25 8.5t-16 22.5l-57 107q6 3 13 5.5t15 2.5t16 -4.5t14 -13.5z" />
<glyph unicode="&#x149;" horiz-adv-x="491" d="M342 0l45 272q2 14 4.5 32.5t2.5 34.5q0 41 -20 63.5t-61 22.5q-26 0 -52 -8.5t-47.5 -26t-37 -43t-21.5 -59.5l-48 -288h-58l77 467h5q18 0 30 -11t12 -31q0 -4 -0.5 -8t-0.5 -8q-1 -4 -1 -9q27 32 67.5 53.5t87.5 21.5q34 0 58 -11t39 -29t22 -42t7 -50q0 -17 -2 -35.5 t-5 -35.5l-45 -272h-58zM104 526q22 11 41.5 26.5t24.5 43.5q-11 4 -19.5 13.5t-8.5 25.5q0 26 14.5 42t34.5 16t30 -12.5t10 -32.5q0 -40 -20.5 -77t-49.5 -56q-7 -5 -15 -8t-16 -3q-9 0 -16.5 5t-9.5 17z" />
<glyph unicode="&#x14a;" horiz-adv-x="608" d="M506 23q-5 -32 -15 -66t-29 -62t-49.5 -46.5t-76.5 -18.5q-24 0 -30.5 7.5t-6.5 23.5q0 5 2 10.5t4 9.5q8 -2 12 -2h7q29 0 49.5 9.5t34 26.5t22 39.5t13.5 49.5l-242 564l-92 -568h-56l110 666q8 3 13.5 4t11.5 1q13 0 22 -5.5t16 -20.5l236 -556l94 581q5 1 12 1 q18 0 28 -11.5t10 -28.5v-4.5t-1 -6.5z" />
<glyph unicode="&#x14b;" horiz-adv-x="491" d="M390 -59q-9 -57 -24 -90t-35 -50q-20 -18 -43 -23t-36 -5q-21 0 -25.5 12.5t-4.5 23.5v9h9q24 0 42 8t29 22t18 36t11 45l56 343q2 14 4.5 32.5t2.5 34.5q0 41 -20 63.5t-61 22.5q-26 0 -52 -8.5t-47.5 -26t-37 -43t-21.5 -59.5l-48 -288h-58l77 467h5q18 0 30 -11 t12 -31q0 -4 -0.5 -8t-0.5 -8q-1 -4 -1 -9q27 32 67.5 53.5t87.5 21.5q34 0 58 -11t39 -29t22 -42t7 -50q0 -17 -2 -35.5t-5 -35.5z" />
<glyph unicode="&#x14c;" horiz-adv-x="625" d="M286 36q58 0 105 32.5t80 87t51 125t18 145.5q0 39 -8.5 76t-26.5 65.5t-46.5 45.5t-69.5 17q-59 0 -105.5 -33t-78.5 -87t-49 -124.5t-17 -145.5q0 -39 8 -76t25.5 -65.5t45.5 -45.5t68 -17zM284 -15q-57 0 -96.5 22t-64 58t-35.5 82t-11 94q0 78 19.5 156.5t59 141.5 t99 102.5t140.5 39.5q57 0 96.5 -22t64 -58t35.5 -82t11 -94q0 -78 -19.5 -156.5t-59 -141.5t-99 -102.5t-140.5 -39.5zM311 742q-21 0 -29.5 7.5t-8.5 24.5q0 2 0.5 6.5t2.5 10.5h229q21 0 29.5 -7.5t8.5 -24.5q0 -2 -0.5 -6.5t-2.5 -10.5h-229z" />
<glyph unicode="&#x14d;" horiz-adv-x="482" d="M299 475q43 0 73 -16.5t49 -42.5t28 -59t9 -67q0 -55 -15.5 -109.5t-45.5 -98t-75 -70.5t-105 -27q-44 0 -74.5 16t-49.5 42.5t-27.5 59.5t-8.5 67q0 55 16 109.5t46.5 98t75.5 70.5t104 27zM291 427q-40 0 -72.5 -20.5t-55 -56t-35 -81.5t-12.5 -97q0 -27 5.5 -52 t18 -44.5t32.5 -31t50 -11.5q40 0 72.5 20.5t55.5 56t35.5 81.5t12.5 97q0 27 -5.5 52t-18.5 44.5t-33 31t-50 11.5zM210 558q-21 0 -29.5 7.5t-8.5 24.5q0 2 0.5 6.5t2.5 10.5h229q21 0 29.5 -7.5t8.5 -24.5q0 -2 -0.5 -6.5t-2.5 -10.5h-229z" />
<glyph unicode="&#x14e;" horiz-adv-x="625" d="M286 36q58 0 105 32.5t80 87t51 125t18 145.5q0 39 -8.5 76t-26.5 65.5t-46.5 45.5t-69.5 17q-59 0 -105.5 -33t-78.5 -87t-49 -124.5t-17 -145.5q0 -39 8 -76t25.5 -65.5t45.5 -45.5t68 -17zM284 -15q-57 0 -96.5 22t-64 58t-35.5 82t-11 94q0 78 19.5 156.5t59 141.5 t99 102.5t140.5 39.5q57 0 96.5 -22t64 -58t35.5 -82t11 -94q0 -78 -19.5 -156.5t-59 -141.5t-99 -102.5t-140.5 -39.5zM357 817q7 -35 23.5 -44t38.5 -9q21 0 45 13t40 50q8 17 15.5 22t18.5 5q8 0 14 -2t12 -5q-36 -125 -149 -125q-58 0 -84.5 30.5t-24.5 95.5q13 5 21 5 q18 0 22 -8.5t8 -27.5z" />
<glyph unicode="&#x14f;" horiz-adv-x="482" d="M299 475q43 0 73 -16.5t49 -42.5t28 -59t9 -67q0 -55 -15.5 -109.5t-45.5 -98t-75 -70.5t-105 -27q-44 0 -74.5 16t-49.5 42.5t-27.5 59.5t-8.5 67q0 55 16 109.5t46.5 98t75.5 70.5t104 27zM291 427q-40 0 -72.5 -20.5t-55 -56t-35 -81.5t-12.5 -97q0 -27 5.5 -52 t18 -44.5t32.5 -31t50 -11.5q40 0 72.5 20.5t55.5 56t35.5 81.5t12.5 97q0 27 -5.5 52t-18.5 44.5t-33 31t-50 11.5zM259 624q7 -37 22.5 -49.5t39.5 -12.5q29 0 48.5 16t36.5 55q8 17 15.5 22t18.5 5q8 0 14 -2t12 -5q-19 -65 -54 -99t-95 -34q-58 0 -84.5 35t-24.5 100 q13 5 21 5q18 0 22 -8.5t8 -27.5z" />
<glyph unicode="&#x150;" horiz-adv-x="625" d="M286 36q58 0 105 32.5t80 87t51 125t18 145.5q0 39 -8.5 76t-26.5 65.5t-46.5 45.5t-69.5 17q-59 0 -105.5 -33t-78.5 -87t-49 -124.5t-17 -145.5q0 -39 8 -76t25.5 -65.5t45.5 -45.5t68 -17zM284 -15q-57 0 -96.5 22t-64 58t-35.5 82t-11 94q0 78 19.5 156.5t59 141.5 t99 102.5t140.5 39.5q57 0 96.5 -22t64 -58t35.5 -82t11 -94q0 -78 -19.5 -156.5t-59 -141.5t-99 -102.5t-140.5 -39.5zM341 724q-16 -10 -33 -10q-21 0 -30 16l112 87q12 9 23.5 14.5t24.5 5.5q14 0 24.5 -9.5t14.5 -18.5zM499 724q-16 -10 -33 -10q-21 0 -30 16l112 87 q12 9 23.5 14.5t24.5 5.5q14 0 24.5 -9.5t14.5 -18.5z" />
<glyph unicode="&#x151;" horiz-adv-x="482" d="M299 475q43 0 73 -16.5t49 -42.5t28 -59t9 -67q0 -55 -15.5 -109.5t-45.5 -98t-75 -70.5t-105 -27q-44 0 -74.5 16t-49.5 42.5t-27.5 59.5t-8.5 67q0 55 16 109.5t46.5 98t75.5 70.5t104 27zM291 427q-40 0 -72.5 -20.5t-55 -56t-35 -81.5t-12.5 -97q0 -27 5.5 -52 t18 -44.5t32.5 -31t50 -11.5q40 0 72.5 20.5t55.5 56t35.5 81.5t12.5 97q0 27 -5.5 52t-18.5 44.5t-33 31t-50 11.5zM268 534q-9 -9 -16.5 -11.5t-16.5 -2.5q-8 0 -15 3.5t-10 7.5l92 110q11 14 22 21.5t26 7.5q13 0 21 -5.5t14 -11.5zM406 534q-9 -9 -16.5 -11.5 t-16.5 -2.5q-8 0 -15 3.5t-10 7.5l92 110q11 14 22 21.5t26 7.5q13 0 21 -5.5t14 -11.5z" />
<glyph unicode="&#x152;" horiz-adv-x="797" d="M712 50q21 0 29.5 -8t8.5 -25v-6t-2 -11h-459q-57 0 -97.5 18t-66 50.5t-37 76.5t-11.5 96q0 82 19 159t58.5 137t100.5 96t145 36h440q0 -21 -8.5 -35.5t-34.5 -14.5h-236l-41 -244h205l-8 -50h-205l-46 -275h246zM139 240q0 -86 36 -138t116 -52h115l94 569h-106 q-63 0 -110.5 -29.5t-79.5 -81t-48.5 -120.5t-16.5 -148z" />
<glyph unicode="&#x153;" horiz-adv-x="764" d="M559 -15q-54 0 -95.5 24.5t-61.5 84.5q-31 -47 -75 -78t-110 -31q-44 0 -74.5 16t-49.5 42.5t-27.5 59.5t-8.5 67q0 55 16 109.5t46.5 98t75.5 70.5t104 27q33 0 57 -9t41.5 -25t29 -36.5t18.5 -42.5q37 53 85.5 83t105.5 30q59 0 90.5 -29t31.5 -81q0 -44 -23 -75.5 t-60 -52.5t-83 -31t-92 -10h-27t-26 1v-21q0 -69 31 -106t88 -37q38 0 70.5 15t60.5 50l13 -13q4 -4 7 -9t3 -11q0 -14 -8.5 -22t-22.5 -19q-20 -14 -51 -26.5t-79 -12.5zM291 427q-40 0 -72.5 -20.5t-55 -56t-35 -81.5t-12.5 -97q0 -27 5.5 -52t18 -44.5t32.5 -31t50 -11.5 q33 0 60.5 14t49 38.5t36.5 57.5t23 72l4 27q3 22 3 46q0 27 -5.5 52t-18.5 44.5t-33 31t-50 11.5zM482 237q49 0 89.5 9t69 25.5t44 40t15.5 53.5q0 26 -14 44.5t-52 18.5q-34 0 -64 -15t-53.5 -40.5t-40 -60t-23.5 -74.5q8 -1 16 -1h13z" />
<glyph unicode="&#x154;" horiz-adv-x="494" d="M443 -3q-14 -6 -30 -6q-22 0 -32.5 12t-18.5 32l-107 258h-97l-48 -293h-57l111 668q25 3 42 4.5t32 2t29.5 1t35.5 0.5q46 1 82.5 -12t61.5 -35t38 -51t13 -61q0 -94 -49.5 -146.5t-132.5 -69.5zM436 507q0 65 -40 92.5t-105 27.5q-22 0 -40 -1t-38 -3l-47 -281h75 q42 0 78 9t62 28.5t40.5 51t14.5 76.5zM323 724q-16 -10 -33 -10q-21 0 -30 16l112 87q12 9 23.5 14.5t24.5 5.5q14 0 24.5 -9.5t14.5 -18.5z" />
<glyph unicode="&#x155;" horiz-adv-x="327" d="M126 467h5q18 0 30 -11t12 -31q0 -4 -0.5 -8t-0.5 -8q-1 -4 -1 -9q28 35 61 55t68 20q30 0 51.5 -14t21.5 -34q0 -12 -4 -18t-12 -13l-9 -7h-7q-9 23 -24.5 29t-31.5 6q-14 0 -33.5 -7.5t-39 -24t-35.5 -42.5t-22 -62l-48 -288h-58zM268 534q-9 -9 -16.5 -11.5 t-18.5 -2.5q-8 0 -16.5 3.5t-11.5 7.5l90 110q11 14 22.5 21.5t26.5 7.5q13 0 23 -5.5t16 -11.5z" />
<glyph unicode="&#x156;" horiz-adv-x="494" d="M443 -3q-14 -6 -30 -6q-22 0 -32.5 12t-18.5 32l-107 258h-97l-48 -293h-57l111 668q25 3 42 4.5t32 2t29.5 1t35.5 0.5q46 1 82.5 -12t61.5 -35t38 -51t13 -61q0 -94 -49.5 -146.5t-132.5 -69.5zM436 507q0 65 -40 92.5t-105 27.5q-22 0 -40 -1t-38 -3l-47 -281h75 q42 0 78 9t62 28.5t40.5 51t14.5 76.5zM196 -175q-8 -12 -18 -19t-25 -7q-13 0 -18 4l56 109q10 19 21 30t31 11q9 0 15.5 -2.5t12.5 -6.5z" />
<glyph unicode="&#x157;" horiz-adv-x="327" d="M126 467h5q18 0 30 -11t12 -31q0 -4 -0.5 -8t-0.5 -8q-1 -4 -1 -9q28 35 61 55t68 20q30 0 51.5 -14t21.5 -34q0 -12 -4 -18t-12 -13l-9 -7h-7q-9 23 -24.5 29t-31.5 6q-14 0 -33.5 -7.5t-39 -24t-35.5 -42.5t-22 -62l-48 -288h-58zM30 -175q-8 -12 -18 -19t-25 -7 q-13 0 -18 4l56 109q10 19 21 30t31 11q9 0 15.5 -2.5t12.5 -6.5z" />
<glyph unicode="&#x158;" horiz-adv-x="494" d="M443 -3q-14 -6 -30 -6q-22 0 -32.5 12t-18.5 32l-107 258h-97l-48 -293h-57l111 668q25 3 42 4.5t32 2t29.5 1t35.5 0.5q46 1 82.5 -12t61.5 -35t38 -51t13 -61q0 -94 -49.5 -146.5t-132.5 -69.5zM436 507q0 65 -40 92.5t-105 27.5q-22 0 -40 -1t-38 -3l-47 -281h75 q42 0 78 9t62 28.5t40.5 51t14.5 76.5zM316 773l62 59q11 11 20 15t20 4q7 0 14 -2.5t12 -7.5l-87 -91q-13 -13 -22 -20t-24 -7q-17 0 -26 8.5t-17 22.5l-56 91q6 3 13.5 5.5t17.5 2.5t16 -4.5t12 -13.5z" />
<glyph unicode="&#x159;" horiz-adv-x="327" d="M126 467h5q18 0 30 -11t12 -31q0 -4 -0.5 -8t-0.5 -8q-1 -4 -1 -9q28 35 61 55t68 20q30 0 51.5 -14t21.5 -34q0 -12 -4 -18t-12 -13l-9 -7h-7q-9 23 -24.5 29t-31.5 6q-14 0 -33.5 -7.5t-39 -24t-35.5 -42.5t-22 -62l-48 -288h-58zM258 575l73 70q11 11 20.5 15t16.5 4 q16 0 25 -10l-96 -107q-12 -13 -20.5 -20t-23.5 -7q-17 0 -25 8.5t-16 22.5l-57 107q6 3 13 5.5t15 2.5t16 -4.5t14 -13.5z" />
<glyph unicode="&#x15a;" horiz-adv-x="457" d="M442 631q14 -13 14 -28q0 -19 -23 -34h-9q-25 34 -59 47.5t-72 13.5q-29 0 -54 -8.5t-43.5 -23.5t-29 -35.5t-10.5 -45.5q0 -30 10.5 -51.5t29 -38t43 -31.5t52.5 -33q24 -15 47.5 -32t42 -38t29.5 -48t11 -63q0 -49 -17 -86t-47 -61.5t-71.5 -37t-90.5 -12.5 q-40 0 -76 10.5t-64 28.5q-27 17 -27 38q0 18 25 36q29 -29 63 -45t85 -16q41 0 70.5 11t48.5 29.5t28 43.5t9 53q0 34 -11 57t-29 40.5t-41 30.5t-47 28t-48 31t-43 36.5t-30.5 47t-11.5 62.5q0 41 17 73t45.5 54.5t65.5 34.5t77 12q28 0 51 -5.5t41 -13t30 -16.5t19 -15z M298 724q-16 -10 -33 -10q-21 0 -30 16l112 87q12 9 23.5 14.5t24.5 5.5q14 0 24.5 -9.5t14.5 -18.5z" />
<glyph unicode="&#x15b;" horiz-adv-x="373" d="M171 -15q-29 0 -57 5t-54 19q-15 8 -25.5 16.5t-10.5 20.5q0 5 2.5 10.5t6.5 10.5l12 15q21 -20 51 -34.5t70 -14.5q32 0 52 8.5t31.5 22t16 28.5t4.5 29q0 17 -8 30.5t-20.5 25.5t-28 22t-31.5 20q-20 13 -38.5 25.5t-32.5 28t-22 35.5t-8 47q0 25 10 47t29.5 38 t47.5 25.5t63 9.5q43 0 71 -14t43 -28q17 -19 17 -31q0 -5 -1 -9t-6 -9l-15 -13h-7q-18 26 -44.5 41.5t-61.5 15.5q-27 0 -44.5 -6.5t-28 -17t-14.5 -22.5t-4 -24q0 -20 6.5 -33t18.5 -24t30 -22t41 -26q28 -18 46 -33t28.5 -30t14.5 -32t4 -39q0 -29 -11.5 -53.5 t-31.5 -42.5t-48.5 -28t-62.5 -10zM258 534q-9 -9 -16.5 -11.5t-18.5 -2.5q-8 0 -16.5 3.5t-11.5 7.5l90 110q11 14 22.5 21.5t26.5 7.5q13 0 23 -5.5t16 -11.5z" />
<glyph unicode="&#x15c;" horiz-adv-x="457" d="M442 631q14 -13 14 -28q0 -19 -23 -34h-9q-25 34 -59 47.5t-72 13.5q-29 0 -54 -8.5t-43.5 -23.5t-29 -35.5t-10.5 -45.5q0 -30 10.5 -51.5t29 -38t43 -31.5t52.5 -33q24 -15 47.5 -32t42 -38t29.5 -48t11 -63q0 -49 -17 -86t-47 -61.5t-71.5 -37t-90.5 -12.5 q-40 0 -76 10.5t-64 28.5q-27 17 -27 38q0 18 25 36q29 -29 63 -45t85 -16q41 0 70.5 11t48.5 29.5t28 43.5t9 53q0 34 -11 57t-29 40.5t-41 30.5t-47 28t-48 31t-43 36.5t-30.5 47t-11.5 62.5q0 41 17 73t45.5 54.5t65.5 34.5t77 12q28 0 51 -5.5t41 -13t30 -16.5t19 -15z M317 794l-62 -59q-11 -11 -20 -15t-20 -4q-7 0 -14 2.5t-12 7.5l87 91q13 13 22 20t24 7q17 0 26 -8.5t17 -22.5l56 -91q-6 -3 -13.5 -5.5t-17.5 -2.5t-16 4.5t-12 13.5z" />
<glyph unicode="&#x15d;" horiz-adv-x="373" d="M171 -15q-29 0 -57 5t-54 19q-15 8 -25.5 16.5t-10.5 20.5q0 5 2.5 10.5t6.5 10.5l12 15q21 -20 51 -34.5t70 -14.5q32 0 52 8.5t31.5 22t16 28.5t4.5 29q0 17 -8 30.5t-20.5 25.5t-28 22t-31.5 20q-20 13 -38.5 25.5t-32.5 28t-22 35.5t-8 47q0 25 10 47t29.5 38 t47.5 25.5t63 9.5q43 0 71 -14t43 -28q17 -19 17 -31q0 -5 -1 -9t-6 -9l-15 -13h-7q-18 26 -44.5 41.5t-61.5 15.5q-27 0 -44.5 -6.5t-28 -17t-14.5 -22.5t-4 -24q0 -20 6.5 -33t18.5 -24t30 -22t41 -26q28 -18 46 -33t28.5 -30t14.5 -32t4 -39q0 -29 -11.5 -53.5 t-31.5 -42.5t-48.5 -28t-62.5 -10zM256 615l-73 -70q-11 -11 -20.5 -15t-16.5 -4q-16 0 -25 10l96 107q12 13 20.5 20t23.5 7q17 0 25 -8.5t16 -22.5l57 -107q-6 -3 -13 -5.5t-15 -2.5t-16 4.5t-14 13.5z" />
<glyph unicode="&#x15e;" horiz-adv-x="457" d="M148 -208q-13 0 -17.5 6.5t-4.5 15.5q0 10 7 24q5 -2 7.5 -2.5t10.5 -0.5q47 0 47 35q0 9 -4.5 16.5t-10.5 15t-10.5 15.5t-4.5 19q0 16 6 28t14 21q-38 1 -72.5 11.5t-60.5 27.5q-27 17 -27 38q0 18 25 36q29 -29 63 -45t85 -16q41 0 70.5 11t48.5 29.5t28 43.5t9 53 q0 34 -11 57t-29 40.5t-41 30.5t-47 28t-48 31t-43 36.5t-30.5 47t-11.5 62.5q0 41 17 73t45.5 54.5t65.5 34.5t77 12q28 0 51 -5.5t41 -13t30 -16.5t19 -15q14 -13 14 -28q0 -19 -23 -34h-9q-25 34 -59 47.5t-72 13.5q-29 0 -54 -8.5t-43.5 -23.5t-29 -35.5t-10.5 -45.5 q0 -30 10.5 -51.5t29 -38t43 -31.5t52.5 -33q24 -15 47.5 -32t42 -38t29.5 -48t11 -63q0 -45 -14 -79t-39.5 -58.5t-60 -39t-76.5 -18.5q-7 -7 -11.5 -15.5t-4.5 -18.5q0 -9 5 -17t10.5 -17t10.5 -20t5 -26q0 -22 -9 -37.5t-23.5 -25t-32 -14t-33.5 -4.5z" />
<glyph unicode="&#x15f;" horiz-adv-x="373" d="M103 -208q-13 0 -17.5 6.5t-4.5 15.5q0 10 7 24q5 -2 7.5 -2.5t10.5 -0.5q47 0 47 35q0 9 -4.5 16.5t-10.5 15t-10.5 15.5t-4.5 19q0 16 6.5 28.5t14.5 21.5q-23 2 -43.5 7t-40.5 16q-15 8 -25.5 16.5t-10.5 20.5q0 5 2.5 10.5t6.5 10.5l12 15q21 -20 51 -34.5t70 -14.5 q32 0 52 8.5t31.5 22t16 28.5t4.5 29q0 17 -8 30.5t-20.5 25.5t-28 22t-31.5 20q-20 13 -38.5 25.5t-32.5 28t-22 35.5t-8 47q0 25 10 47t29.5 38t47.5 25.5t63 9.5q43 0 71 -14t43 -28q17 -19 17 -31q0 -5 -1 -9t-6 -9l-15 -13h-7q-18 26 -44.5 41.5t-61.5 15.5 q-27 0 -44.5 -6.5t-28 -17t-14.5 -22.5t-4 -24q0 -20 6.5 -33t18.5 -24t30 -22t41 -26q28 -18 46 -33t28.5 -30t14.5 -32t4 -39q0 -27 -10 -50.5t-29 -41t-45 -28.5t-57 -13q-6 -7 -10 -15t-4 -18q0 -9 5 -17t10.5 -17t10.5 -20t5 -26q0 -22 -9 -37.5t-23.5 -25t-32 -14 t-33.5 -4.5z" />
<glyph unicode="&#x160;" horiz-adv-x="457" d="M442 631q14 -13 14 -28q0 -19 -23 -34h-9q-25 34 -59 47.5t-72 13.5q-29 0 -54 -8.5t-43.5 -23.5t-29 -35.5t-10.5 -45.5q0 -30 10.5 -51.5t29 -38t43 -31.5t52.5 -33q24 -15 47.5 -32t42 -38t29.5 -48t11 -63q0 -49 -17 -86t-47 -61.5t-71.5 -37t-90.5 -12.5 q-40 0 -76 10.5t-64 28.5q-27 17 -27 38q0 18 25 36q29 -29 63 -45t85 -16q41 0 70.5 11t48.5 29.5t28 43.5t9 53q0 34 -11 57t-29 40.5t-41 30.5t-47 28t-48 31t-43 36.5t-30.5 47t-11.5 62.5q0 41 17 73t45.5 54.5t65.5 34.5t77 12q28 0 51 -5.5t41 -13t30 -16.5t19 -15z M316 773l62 59q11 11 20 15t20 4q7 0 14 -2.5t12 -7.5l-87 -91q-13 -13 -22 -20t-24 -7q-17 0 -26 8.5t-17 22.5l-56 91q6 3 13.5 5.5t17.5 2.5t16 -4.5t12 -13.5z" />
<glyph unicode="&#x161;" horiz-adv-x="373" d="M171 -15q-29 0 -57 5t-54 19q-15 8 -25.5 16.5t-10.5 20.5q0 5 2.5 10.5t6.5 10.5l12 15q21 -20 51 -34.5t70 -14.5q32 0 52 8.5t31.5 22t16 28.5t4.5 29q0 17 -8 30.5t-20.5 25.5t-28 22t-31.5 20q-20 13 -38.5 25.5t-32.5 28t-22 35.5t-8 47q0 25 10 47t29.5 38 t47.5 25.5t63 9.5q43 0 71 -14t43 -28q17 -19 17 -31q0 -5 -1 -9t-6 -9l-15 -13h-7q-18 26 -44.5 41.5t-61.5 15.5q-27 0 -44.5 -6.5t-28 -17t-14.5 -22.5t-4 -24q0 -20 6.5 -33t18.5 -24t30 -22t41 -26q28 -18 46 -33t28.5 -30t14.5 -32t4 -39q0 -29 -11.5 -53.5 t-31.5 -42.5t-48.5 -28t-62.5 -10zM251 575l73 70q11 11 20.5 15t16.5 4q16 0 25 -10l-96 -107q-12 -13 -20.5 -20t-23.5 -7q-17 0 -25 8.5t-16 22.5l-57 107q6 3 13 5.5t15 2.5t16 -4.5t14 -13.5z" />
<glyph unicode="&#x162;" horiz-adv-x="495" d="M565 669q0 -21 -8.5 -35.5t-34.5 -14.5h-171l-102 -619h-59l102 619h-205q0 21 8.5 35.5t34.5 14.5h435zM168 -175q-8 -12 -18 -19t-25 -7q-13 0 -18 4l56 109q10 19 21 30t31 11q9 0 15.5 -2.5t12.5 -6.5z" />
<glyph unicode="&#x163;" horiz-adv-x="294" d="M176 467h141l-8 -47h-139l-45 -277q-2 -12 -3.5 -23t-1.5 -20q0 -38 17.5 -53t43.5 -15q17 0 36.5 9.5t33.5 27.5l10 -9q5 -5 7.5 -9.5t2.5 -12.5q0 -11 -8 -19.5t-16 -13.5q-14 -9 -31.5 -14.5t-43.5 -5.5q-51 0 -80.5 26t-29.5 77q0 13 1.5 27t3.5 29l77 466q5 1 12 1 q18 0 27.5 -11.5t9.5 -28.5v-4.5t-1 -6.5zM118 -175q-8 -12 -18 -19t-25 -7q-13 0 -18 4l56 109q10 19 21 30t31 11q9 0 15.5 -2.5t12.5 -6.5z" />
<glyph unicode="&#x164;" horiz-adv-x="495" d="M565 669q0 -21 -8.5 -35.5t-34.5 -14.5h-171l-102 -619h-59l102 619h-205q0 21 8.5 35.5t34.5 14.5h435zM342 773l62 59q11 11 20 15t20 4q7 0 14 -2.5t12 -7.5l-87 -91q-13 -13 -22 -20t-24 -7q-17 0 -26 8.5t-17 22.5l-56 91q6 3 13.5 5.5t17.5 2.5t16 -4.5t12 -13.5z " />
<glyph unicode="&#x165;" horiz-adv-x="294" d="M304 556q-4 -16 -16.5 -25.5t-29.5 -9.5h-7l20 126q2 11 4 22.5t6.5 20.5t13 14.5t23.5 5.5q3 0 7.5 -0.5t10.5 -2.5zM176 467h141l-8 -47h-139l-45 -277q-2 -12 -3.5 -23t-1.5 -20q0 -38 17.5 -53t43.5 -15q17 0 36.5 9.5t33.5 27.5l10 -9q5 -5 7.5 -9.5t2.5 -12.5 q0 -11 -8 -19.5t-16 -13.5q-14 -9 -31.5 -14.5t-43.5 -5.5q-51 0 -80.5 26t-29.5 77q0 13 1.5 27t3.5 29l77 466q5 1 12 1q18 0 27.5 -11.5t9.5 -28.5v-4.5t-1 -6.5z" />
<glyph unicode="&#x166;" horiz-adv-x="495" d="M89 343h158l46 276h-205q0 21 8.5 35.5t34.5 14.5h435q0 -21 -8.5 -35.5t-34.5 -14.5h-171l-46 -276h174l-8 -49h-174l-48 -294h-59l48 294h-158z" />
<glyph unicode="&#x167;" horiz-adv-x="294" d="M176 467h141l-8 -47h-139l-23 -138h139l-8 -47h-138l-15 -92q-2 -12 -3.5 -23t-1.5 -20q0 -38 17.5 -53t43.5 -15q17 0 36.5 9.5t33.5 27.5l10 -9q5 -5 7.5 -9.5t2.5 -12.5q0 -11 -8 -19.5t-16 -13.5q-14 -9 -31.5 -14.5t-43.5 -5.5q-51 0 -80.5 26t-29.5 77q0 13 1.5 27 t3.5 29l77 466q5 1 12 1q18 0 27.5 -11.5t9.5 -28.5v-4.5t-1 -6.5z" />
<glyph unicode="&#x168;" horiz-adv-x="568" d="M519 251q-8 -52 -22.5 -100t-41.5 -85t-70.5 -59t-109.5 -22q-103 0 -151 49.5t-48 140.5q0 20 3 47.5t7 50.5l65 397q5 1 12 1q18 0 29 -11.5t11 -28.5v-4.5t-1 -6.5l-59 -358q-4 -21 -5 -48t-1 -45q0 -27 7.5 -51.5t24 -42.5t42.5 -29t64 -11q79 0 123.5 52t61.5 158 l70 425q5 1 12 1q18 0 28.5 -11.5t10.5 -28.5v-4.5t-1 -6.5zM432 782q20 0 35.5 11t31.5 41q20 -8 22.5 -23t-6.5 -29q-11 -17 -30.5 -32t-61.5 -15q-15 0 -28 6t-26 12.5t-26.5 12.5t-28.5 6q-16 0 -32 -6.5t-32 -36.5q-18 8 -21 23t7 29q12 15 32 27t56 12q17 0 31 -6 t27 -13t25 -13t25 -6z" />
<glyph unicode="&#x169;" horiz-adv-x="478" d="M400 92q-2 -8 -2.5 -16t-0.5 -13q0 -20 8 -27.5t22 -7.5q13 0 25 4l4 -22q-29 -16 -55 -16q-32 0 -46.5 17t-14.5 42v8q-27 -32 -61.5 -54t-90.5 -22q-58 0 -91 34t-33 97q0 30 6 66l46 285h5q18 0 31.5 -11t13.5 -31q0 -6 -2 -16q-1 -4 -1 -9l-36 -218 q-2 -14 -3.5 -29.5t-1.5 -30.5q0 -42 19.5 -64.5t64.5 -22.5q25 0 49 9t44.5 27t35 43.5t20.5 58.5l49 294h5q18 0 31.5 -11t13.5 -31q0 -6 -2 -16q-1 -4 -1 -9zM348 587q20 0 35.5 11t31.5 41q20 -8 22.5 -23t-6.5 -29q-11 -17 -30.5 -32t-61.5 -15q-15 0 -28 6t-26 12.5 t-26.5 12.5t-28.5 6q-16 0 -32 -6.5t-32 -36.5q-18 8 -21 23t7 29q12 15 32 27t56 12q17 0 31 -6t27 -13t25 -13t25 -6z" />
<glyph unicode="&#x16a;" horiz-adv-x="568" d="M519 251q-8 -52 -22.5 -100t-41.5 -85t-70.5 -59t-109.5 -22q-103 0 -151 49.5t-48 140.5q0 20 3 47.5t7 50.5l65 397q5 1 12 1q18 0 29 -11.5t11 -28.5v-4.5t-1 -6.5l-59 -358q-4 -21 -5 -48t-1 -45q0 -27 7.5 -51.5t24 -42.5t42.5 -29t64 -11q79 0 123.5 52t61.5 158 l70 425q5 1 12 1q18 0 28.5 -11.5t10.5 -28.5v-4.5t-1 -6.5zM269 742q-21 0 -29.5 7.5t-8.5 24.5q0 2 0.5 6.5t2.5 10.5h229q21 0 29.5 -7.5t8.5 -24.5q0 -2 -0.5 -6.5t-2.5 -10.5h-229z" />
<glyph unicode="&#x16b;" horiz-adv-x="478" d="M400 92q-2 -8 -2.5 -16t-0.5 -13q0 -20 8 -27.5t22 -7.5q13 0 25 4l4 -22q-29 -16 -55 -16q-32 0 -46.5 17t-14.5 42v8q-27 -32 -61.5 -54t-90.5 -22q-58 0 -91 34t-33 97q0 30 6 66l46 285h5q18 0 31.5 -11t13.5 -31q0 -6 -2 -16q-1 -4 -1 -9l-36 -218 q-2 -14 -3.5 -29.5t-1.5 -30.5q0 -42 19.5 -64.5t64.5 -22.5q25 0 49 9t44.5 27t35 43.5t20.5 58.5l49 294h5q18 0 31.5 -11t13.5 -31q0 -6 -2 -16q-1 -4 -1 -9zM193 558q-21 0 -29.5 7.5t-8.5 24.5q0 2 0.5 6.5t2.5 10.5h229q21 0 29.5 -7.5t8.5 -24.5q0 -2 -0.5 -6.5 t-2.5 -10.5h-229z" />
<glyph unicode="&#x16c;" horiz-adv-x="568" d="M519 251q-8 -52 -22.5 -100t-41.5 -85t-70.5 -59t-109.5 -22q-103 0 -151 49.5t-48 140.5q0 20 3 47.5t7 50.5l65 397q5 1 12 1q18 0 29 -11.5t11 -28.5v-4.5t-1 -6.5l-59 -358q-4 -21 -5 -48t-1 -45q0 -27 7.5 -51.5t24 -42.5t42.5 -29t64 -11q79 0 123.5 52t61.5 158 l70 425q5 1 12 1q18 0 28.5 -11.5t10.5 -28.5v-4.5t-1 -6.5zM312 817q7 -35 23.5 -44t38.5 -9q21 0 45 13t40 50q8 17 15.5 22t18.5 5q8 0 14 -2t12 -5q-36 -125 -149 -125q-58 0 -84.5 30.5t-24.5 95.5q13 5 21 5q18 0 22 -8.5t8 -27.5z" />
<glyph unicode="&#x16d;" horiz-adv-x="478" d="M400 92q-2 -8 -2.5 -16t-0.5 -13q0 -20 8 -27.5t22 -7.5q13 0 25 4l4 -22q-29 -16 -55 -16q-32 0 -46.5 17t-14.5 42v8q-27 -32 -61.5 -54t-90.5 -22q-58 0 -91 34t-33 97q0 30 6 66l46 285h5q18 0 31.5 -11t13.5 -31q0 -6 -2 -16q-1 -4 -1 -9l-36 -218 q-2 -14 -3.5 -29.5t-1.5 -30.5q0 -42 19.5 -64.5t64.5 -22.5q25 0 49 9t44.5 27t35 43.5t20.5 58.5l49 294h5q18 0 31.5 -11t13.5 -31q0 -6 -2 -16q-1 -4 -1 -9zM230 624q7 -37 22.5 -49.5t39.5 -12.5q29 0 48.5 16t36.5 55q8 17 15.5 22t18.5 5q8 0 14 -2t12 -5 q-19 -65 -54 -99t-95 -34q-58 0 -84.5 35t-24.5 100q13 5 21 5q18 0 22 -8.5t8 -27.5z" />
<glyph unicode="&#x16e;" horiz-adv-x="568" d="M519 251q-8 -52 -22.5 -100t-41.5 -85t-70.5 -59t-109.5 -22q-103 0 -151 49.5t-48 140.5q0 20 3 47.5t7 50.5l65 397q5 1 12 1q18 0 29 -11.5t11 -28.5v-4.5t-1 -6.5l-59 -358q-4 -21 -5 -48t-1 -45q0 -27 7.5 -51.5t24 -42.5t42.5 -29t64 -11q79 0 123.5 52t61.5 158 l70 425q5 1 12 1q18 0 28.5 -11.5t10.5 -28.5v-4.5t-1 -6.5zM462 809q0 -43 -27 -74t-75 -31t-75.5 30.5t-27.5 73.5q0 45 27.5 75.5t75.5 30.5t75 -31t27 -74zM419 809q0 26 -16.5 46t-42.5 20q-27 0 -43.5 -20t-16.5 -46t16 -46.5t44 -20.5q27 0 43 20t16 47z" />
<glyph unicode="&#x16f;" horiz-adv-x="478" d="M400 92q-2 -8 -2.5 -16t-0.5 -13q0 -20 8 -27.5t22 -7.5q13 0 25 4l4 -22q-29 -16 -55 -16q-32 0 -46.5 17t-14.5 42v8q-27 -32 -61.5 -54t-90.5 -22q-58 0 -91 34t-33 97q0 30 6 66l46 285h5q18 0 31.5 -11t13.5 -31q0 -6 -2 -16q-1 -4 -1 -9l-36 -218 q-2 -14 -3.5 -29.5t-1.5 -30.5q0 -42 19.5 -64.5t64.5 -22.5q25 0 49 9t44.5 27t35 43.5t20.5 58.5l49 294h5q18 0 31.5 -11t13.5 -31q0 -6 -2 -16q-1 -4 -1 -9zM390 625q0 -43 -27 -74t-75 -31t-75.5 30.5t-27.5 73.5q0 45 27.5 75.5t75.5 30.5t75 -31t27 -74zM347 625 q0 26 -16.5 46t-42.5 20q-27 0 -43.5 -20t-16.5 -46t16 -46.5t44 -20.5q27 0 43 20t16 47z" />
<glyph unicode="&#x170;" horiz-adv-x="568" d="M519 251q-8 -52 -22.5 -100t-41.5 -85t-70.5 -59t-109.5 -22q-103 0 -151 49.5t-48 140.5q0 20 3 47.5t7 50.5l65 397q5 1 12 1q18 0 29 -11.5t11 -28.5v-4.5t-1 -6.5l-59 -358q-4 -21 -5 -48t-1 -45q0 -27 7.5 -51.5t24 -42.5t42.5 -29t64 -11q79 0 123.5 52t61.5 158 l70 425q5 1 12 1q18 0 28.5 -11.5t10.5 -28.5v-4.5t-1 -6.5zM298 724q-16 -10 -33 -10q-21 0 -30 16l112 87q12 9 23.5 14.5t24.5 5.5q14 0 24.5 -9.5t14.5 -18.5zM456 724q-16 -10 -33 -10q-21 0 -30 16l112 87q12 9 23.5 14.5t24.5 5.5q14 0 24.5 -9.5t14.5 -18.5z" />
<glyph unicode="&#x171;" horiz-adv-x="478" d="M400 92q-2 -8 -2.5 -16t-0.5 -13q0 -20 8 -27.5t22 -7.5q13 0 25 4l4 -22q-29 -16 -55 -16q-32 0 -46.5 17t-14.5 42v8q-27 -32 -61.5 -54t-90.5 -22q-58 0 -91 34t-33 97q0 30 6 66l46 285h5q18 0 31.5 -11t13.5 -31q0 -6 -2 -16q-1 -4 -1 -9l-36 -218 q-2 -14 -3.5 -29.5t-1.5 -30.5q0 -42 19.5 -64.5t64.5 -22.5q25 0 49 9t44.5 27t35 43.5t20.5 58.5l49 294h5q18 0 31.5 -11t13.5 -31q0 -6 -2 -16q-1 -4 -1 -9zM237 534q-9 -9 -16.5 -11.5t-16.5 -2.5q-8 0 -15 3.5t-10 7.5l92 110q11 14 22 21.5t26 7.5q13 0 21 -5.5 t14 -11.5zM375 534q-9 -9 -16.5 -11.5t-16.5 -2.5q-8 0 -15 3.5t-10 7.5l92 110q11 14 22 21.5t26 7.5q13 0 21 -5.5t14 -11.5z" />
<glyph unicode="&#x172;" horiz-adv-x="568" d="M243 -138q0 37 21.5 69.5t46.5 55.5q-8 -1 -17 -1.5t-19 -0.5q-103 0 -151 49.5t-48 140.5q0 20 3 47.5t7 50.5l65 397q5 1 12 1q18 0 29 -11.5t11 -28.5v-4.5t-1 -6.5l-59 -358q-4 -21 -5 -48t-1 -45q0 -27 7.5 -51.5t24 -42.5t42.5 -29t64 -11q79 0 123.5 52t61.5 158 l70 425q5 1 12 1q18 0 28.5 -11.5t10.5 -28.5v-4.5t-1 -6.5l-61 -369q-6 -39 -15.5 -76t-24.5 -68.5t-37.5 -57t-54.5 -41.5q-15 -9 -31 -24t-29.5 -33.5t-22.5 -39t-9 -40.5q0 -17 8.5 -24t21.5 -7q14 0 24.5 8.5t18.5 16.5q15 -11 15 -25q0 -10 -6 -17q-9 -10 -26 -16.5 t-40 -6.5q-30 0 -49 15t-19 47z" />
<glyph unicode="&#x173;" horiz-adv-x="478" d="M309 -138q0 20 7 39t18.5 36t25 32t26.5 26q-24 4 -35 20t-11 38v8q-27 -32 -61.5 -54t-90.5 -22q-58 0 -91 34t-33 97q0 30 6 66l46 285h5q18 0 31.5 -11t13.5 -31q0 -6 -2 -16q-1 -4 -1 -9l-36 -218q-2 -14 -3.5 -29.5t-1.5 -30.5q0 -42 19.5 -64.5t64.5 -22.5 q25 0 49 9t44.5 27t35 43.5t20.5 58.5l49 294h5q18 0 31.5 -11t13.5 -31q0 -6 -2 -16q-1 -4 -1 -9l-51 -308q-2 -8 -2.5 -16t-0.5 -13q0 -20 8 -27.5t22 -7.5q13 0 25 4l4 -22q-15 -9 -31.5 -24t-30.5 -33.5t-23.5 -39.5t-9.5 -42q0 -17 8.5 -24t21.5 -7q14 0 24.5 8.5 t18.5 16.5q15 -11 15 -25q0 -10 -6 -17q-9 -10 -26 -16.5t-40 -6.5q-30 0 -49 15t-19 47z" />
<glyph unicode="&#x174;" horiz-adv-x="771" d="M562 0h-68l-56 415l-183 -415h-67l-94 668q13 3 25 3q20 0 29.5 -12t12.5 -35l73 -551l192 433l-19 162q8 2 12.5 2.5t10.5 0.5q20 0 27.5 -12t10.5 -34l70 -553l225 561q15 38 56 38q7 0 11.5 -0.5t9.5 -1.5zM466 794l-62 -59q-11 -11 -20 -15t-20 -4q-7 0 -14 2.5 t-12 7.5l87 91q13 13 22 20t24 7q17 0 26 -8.5t17 -22.5l56 -91q-6 -3 -13.5 -5.5t-17.5 -2.5t-16 4.5t-12 13.5z" />
<glyph unicode="&#x175;" horiz-adv-x="623" d="M444 -4h-62l-49 264l-139 -264h-60l-71 466q7 2 12.5 3.5t13.5 1.5q21 0 28.5 -16t10.5 -39l49 -356l142 271l-26 135q9 5 23 5q23 0 31.5 -14t12.5 -37l61 -360l153 362q11 24 23.5 36.5t32.5 12.5q8 0 13 -2t10 -5zM369 615l-73 -70q-11 -11 -20.5 -15t-16.5 -4 q-16 0 -25 10l96 107q12 13 20.5 20t23.5 7q17 0 25 -8.5t16 -22.5l57 -107q-6 -3 -13 -5.5t-15 -2.5t-16 4.5t-14 13.5z" />
<glyph unicode="&#x176;" horiz-adv-x="459" d="M282 290l-48 -290h-59l47 286l-128 378q17 7 29 7q17 0 27.5 -8.5t17.5 -29.5l92 -286l181 280q17 26 29 35t33 9q12 0 25 -7zM333 794l-62 -59q-11 -11 -20 -15t-20 -4q-7 0 -14 2.5t-12 7.5l87 91q13 13 22 20t24 7q17 0 26 -8.5t17 -22.5l56 -91q-6 -3 -13.5 -5.5 t-17.5 -2.5t-16 4.5t-12 13.5z" />
<glyph unicode="&#x177;" horiz-adv-x="409" d="M-25 -153q12 -14 26 -20t31 -6q24 0 43 24.5t45 77.5l36 73h-10l-82 465q15 6 27 6q23 0 30 -14t11 -38l55 -356l177 365q12 24 23.5 33.5t29.5 9.5q9 0 14.5 -2t10.5 -5l-280 -562q-14 -28 -27.5 -51t-29 -39.5t-34.5 -25.5t-44 -9q-8 0 -20 2t-23 7t-19 13t-8 19 q0 8 5 16zM278 615l-73 -70q-11 -11 -20.5 -15t-16.5 -4q-16 0 -25 10l96 107q12 13 20.5 20t23.5 7q17 0 25 -8.5t16 -22.5l57 -107q-6 -3 -13 -5.5t-15 -2.5t-16 4.5t-14 13.5z" />
<glyph unicode="&#x178;" horiz-adv-x="459" d="M282 290l-48 -290h-59l47 286l-128 378q17 7 29 7q17 0 27.5 -8.5t17.5 -29.5l92 -286l181 280q17 26 29 35t33 9q12 0 25 -7zM253 833q16 0 24.5 -9.5t10.5 -23.5q2 -20 -10 -37.5t-36 -17.5q-17 0 -25.5 9t-10.5 23q-2 21 10 38.5t37 17.5zM422 833q16 0 24.5 -9.5 t10.5 -23.5q2 -20 -10 -37.5t-36 -17.5q-17 0 -25.5 9t-10.5 23q-2 21 10 38.5t37 17.5z" />
<glyph unicode="&#x179;" horiz-adv-x="465" d="M392 50q21 0 29.5 -8t8.5 -25v-6t-2 -11h-435l6 42q106 148 218 289.5t234 287.5h-354q0 21 8.5 35.5t34.5 14.5h360q17 0 24 -5t7 -19q0 -8 -3.5 -14t-6.5 -10q-114 -132 -229 -275.5t-224 -295.5h324zM315 724q-16 -10 -33 -10q-21 0 -30 16l112 87q12 9 23.5 14.5 t24.5 5.5q14 0 24.5 -9.5t14.5 -18.5z" />
<glyph unicode="&#x17a;" horiz-adv-x="373" d="M7 0l6 38q58 81 135.5 176.5t173.5 203.5h-246q0 21 8.5 35t34.5 14h251q14 0 20.5 -7t6.5 -17v-7t-2 -11q-90 -101 -170 -195.5t-143 -179.5h220q21 0 29.5 -8t8.5 -25v-6t-2 -11h-331zM260 534q-9 -9 -16.5 -11.5t-18.5 -2.5q-8 0 -16.5 3.5t-11.5 7.5l90 110 q11 14 22.5 21.5t26.5 7.5q13 0 23 -5.5t16 -11.5z" />
<glyph unicode="&#x17b;" horiz-adv-x="465" d="M392 50q21 0 29.5 -8t8.5 -25v-6t-2 -11h-435l6 42q106 148 218 289.5t234 287.5h-354q0 21 8.5 35.5t34.5 14.5h360q17 0 24 -5t7 -19q0 -8 -3.5 -14t-6.5 -10q-114 -132 -229 -275.5t-224 -295.5h324zM334 824q19 0 29 -14t10 -28q0 -21 -13 -38.5t-37 -17.5 q-20 0 -30 12t-10 28q0 23 13 40.5t38 17.5z" />
<glyph unicode="&#x17c;" horiz-adv-x="373" d="M7 0l6 38q58 81 135.5 176.5t173.5 203.5h-246q0 21 8.5 35t34.5 14h251q14 0 20.5 -7t6.5 -17v-7t-2 -11q-90 -101 -170 -195.5t-143 -179.5h220q21 0 29.5 -8t8.5 -25v-6t-2 -11h-331zM256 639q19 0 29 -14t10 -28q0 -21 -13 -38.5t-37 -17.5q-20 0 -30 12t-10 28 q0 23 13 40.5t38 17.5z" />
<glyph unicode="&#x17d;" horiz-adv-x="465" d="M392 50q21 0 29.5 -8t8.5 -25v-6t-2 -11h-435l6 42q106 148 218 289.5t234 287.5h-354q0 21 8.5 35.5t34.5 14.5h360q17 0 24 -5t7 -19q0 -8 -3.5 -14t-6.5 -10q-114 -132 -229 -275.5t-224 -295.5h324zM325 773l62 59q11 11 20 15t20 4q7 0 14 -2.5t12 -7.5l-87 -91 q-13 -13 -22 -20t-24 -7q-17 0 -26 8.5t-17 22.5l-56 91q6 3 13.5 5.5t17.5 2.5t16 -4.5t12 -13.5z" />
<glyph unicode="&#x17e;" horiz-adv-x="373" d="M7 0l6 38q58 81 135.5 176.5t173.5 203.5h-246q0 21 8.5 35t34.5 14h251q14 0 20.5 -7t6.5 -17v-7t-2 -11q-90 -101 -170 -195.5t-143 -179.5h220q21 0 29.5 -8t8.5 -25v-6t-2 -11h-331zM254 575l73 70q11 11 20.5 15t16.5 4q16 0 25 -10l-96 -107q-12 -13 -20.5 -20 t-23.5 -7q-17 0 -25 8.5t-16 22.5l-57 107q6 3 13 5.5t15 2.5t16 -4.5t14 -13.5z" />
<glyph unicode="&#x17f;" horiz-adv-x="197" d="M104 -16q-6 -37 -15.5 -71t-27 -60.5t-45 -42.5t-69.5 -16q-19 0 -35 3.5t-28 8.5q-30 13 -30 32q0 7 1 11t6 9l11 14q17 -15 35 -22.5t41 -7.5q25 0 42 12t28 31.5t18 44t11 50.5l89 546q7 43 19 75.5t35 60.5q22 26 53.5 40.5t73.5 14.5q30 0 52.5 -7t37.5 -17.5 t22.5 -22t7.5 -20.5q0 -11 -10 -20l-14 -12h-10q-15 29 -38.5 40t-51.5 11q-51 0 -80 -35q-15 -18 -24.5 -46.5t-13.5 -51.5z" />
<glyph unicode="&#x192;" horiz-adv-x="540" d="M23 -63q33 0 59 6.5t45.5 22.5t34 42t24.5 64l86 312h-113l8 50h119l22 84q13 49 34 81t46.5 50t54.5 25t59 7q13 0 19 -7t6 -18q0 -9 -5 -21q-32 0 -56.5 -4.5t-43.5 -17.5t-33.5 -36.5t-24.5 -61.5l-22 -81h161l-8 -50h-167l-90 -328q-13 -48 -33 -79.5t-45.5 -50.5 t-55 -27t-61.5 -8q-13 0 -19 7t-6 18q0 9 5 21z" />
<glyph unicode="&#x218;" horiz-adv-x="457" d="M442 631q14 -13 14 -28q0 -19 -23 -34h-9q-25 34 -59 47.5t-72 13.5q-29 0 -54 -8.5t-43.5 -23.5t-29 -35.5t-10.5 -45.5q0 -30 10.5 -51.5t29 -38t43 -31.5t52.5 -33q24 -15 47.5 -32t42 -38t29.5 -48t11 -63q0 -49 -17 -86t-47 -61.5t-71.5 -37t-90.5 -12.5 q-40 0 -76 10.5t-64 28.5q-27 17 -27 38q0 18 25 36q29 -29 63 -45t85 -16q41 0 70.5 11t48.5 29.5t28 43.5t9 53q0 34 -11 57t-29 40.5t-41 30.5t-47 28t-48 31t-43 36.5t-30.5 47t-11.5 62.5q0 41 17 73t45.5 54.5t65.5 34.5t77 12q28 0 51 -5.5t41 -13t30 -16.5t19 -15z M170 -175q-8 -12 -18 -19t-25 -7q-13 0 -18 4l56 109q10 19 21 30t31 11q9 0 15.5 -2.5t12.5 -6.5z" />
<glyph unicode="&#x219;" horiz-adv-x="373" d="M171 -15q-29 0 -57 5t-54 19q-15 8 -25.5 16.5t-10.5 20.5q0 5 2.5 10.5t6.5 10.5l12 15q21 -20 51 -34.5t70 -14.5q32 0 52 8.5t31.5 22t16 28.5t4.5 29q0 17 -8 30.5t-20.5 25.5t-28 22t-31.5 20q-20 13 -38.5 25.5t-32.5 28t-22 35.5t-8 47q0 25 10 47t29.5 38 t47.5 25.5t63 9.5q43 0 71 -14t43 -28q17 -19 17 -31q0 -5 -1 -9t-6 -9l-15 -13h-7q-18 26 -44.5 41.5t-61.5 15.5q-27 0 -44.5 -6.5t-28 -17t-14.5 -22.5t-4 -24q0 -20 6.5 -33t18.5 -24t30 -22t41 -26q28 -18 46 -33t28.5 -30t14.5 -32t4 -39q0 -29 -11.5 -53.5 t-31.5 -42.5t-48.5 -28t-62.5 -10zM115 -175q-8 -12 -18 -19t-25 -7q-13 0 -18 4l56 109q10 19 21 30t31 11q9 0 15.5 -2.5t12.5 -6.5z" />
<glyph unicode="&#x21a;" horiz-adv-x="495" d="M565 669q0 -21 -8.5 -35.5t-34.5 -14.5h-171l-102 -619h-59l102 619h-205q0 21 8.5 35.5t34.5 14.5h435zM168 -175q-8 -12 -18 -19t-25 -7q-13 0 -18 4l56 109q10 19 21 30t31 11q9 0 15.5 -2.5t12.5 -6.5z" />
<glyph unicode="&#x21b;" horiz-adv-x="294" d="M176 467h141l-8 -47h-139l-45 -277q-2 -12 -3.5 -23t-1.5 -20q0 -38 17.5 -53t43.5 -15q17 0 36.5 9.5t33.5 27.5l10 -9q5 -5 7.5 -9.5t2.5 -12.5q0 -11 -8 -19.5t-16 -13.5q-14 -9 -31.5 -14.5t-43.5 -5.5q-51 0 -80.5 26t-29.5 77q0 13 1.5 27t3.5 29l77 466q5 1 12 1 q18 0 27.5 -11.5t9.5 -28.5v-4.5t-1 -6.5zM113 -175q-8 -12 -18 -19t-25 -7q-13 0 -18 4l56 109q10 19 21 30t31 11q9 0 15.5 -2.5t12.5 -6.5z" />
<glyph unicode="&#x237;" horiz-adv-x="198" d="M97 -59q-9 -57 -24 -90t-35 -50q-20 -18 -43 -23t-36 -5q-21 0 -25.5 12.5t-4.5 23.5v9h9q24 0 42 8t29 22t18 36t11 45l88 538h5q18 0 31.5 -11t13.5 -31q0 -6 -2 -16q-1 -4 -1 -9z" />
<glyph unicode="&#x2bc;" horiz-adv-x="340" d="M106 526q22 11 41.5 26.5t24.5 43.5q-11 4 -19.5 13.5t-8.5 25.5q0 26 14.5 42t34.5 16t30 -12.5t10 -32.5q0 -40 -20.5 -77t-49.5 -56q-7 -5 -15 -8t-16 -3q-9 0 -16.5 5t-9.5 17z" />
<glyph unicode="&#x2c6;" horiz-adv-x="340" d="M186 615l-73 -70q-11 -11 -20.5 -15t-16.5 -4q-16 0 -25 10l96 107q12 13 20.5 20t23.5 7q17 0 25 -8.5t16 -22.5l57 -107q-6 -3 -13 -5.5t-15 -2.5t-16 4.5t-14 13.5z" />
<glyph unicode="&#x2c7;" horiz-adv-x="340" d="M154 575l73 70q11 11 20.5 15t16.5 4q16 0 25 -10l-96 -107q-12 -13 -20.5 -20t-23.5 -7q-17 0 -25 8.5t-16 22.5l-57 107q6 3 13 5.5t15 2.5t16 -4.5t14 -13.5z" />
<glyph unicode="&#x2c9;" horiz-adv-x="340" d="M73 558q-21 0 -29.5 7.5t-8.5 24.5q0 2 0.5 6.5t2.5 10.5h229q21 0 29.5 -7.5t8.5 -24.5q0 -2 -0.5 -6.5t-2.5 -10.5h-229z" />
<glyph unicode="&#x2d8;" horiz-adv-x="340" d="M93 624q7 -37 22.5 -49.5t39.5 -12.5q29 0 48.5 16t36.5 55q8 17 15.5 22t18.5 5q8 0 14 -2t12 -5q-19 -65 -54 -99t-95 -34q-58 0 -84.5 35t-24.5 100q13 5 21 5q18 0 22 -8.5t8 -27.5z" />
<glyph unicode="&#x2d9;" horiz-adv-x="340" d="M176 639q19 0 29 -14t10 -28q0 -21 -13 -38.5t-37 -17.5q-20 0 -30 12t-10 28q0 23 13 40.5t38 17.5z" />
<glyph unicode="&#x2da;" horiz-adv-x="340" d="M272 625q0 -43 -27 -74t-75 -31t-75.5 30.5t-27.5 73.5q0 45 27.5 75.5t75.5 30.5t75 -31t27 -74zM229 625q0 26 -16.5 46t-42.5 20q-27 0 -43.5 -20t-16.5 -46t16 -46.5t44 -20.5q27 0 43 20t16 47z" />
<glyph unicode="&#x2db;" horiz-adv-x="340" d="M148 -129q0 -17 8.5 -24t21.5 -7q14 0 24.5 8.5t18.5 16.5q15 -11 15 -25q0 -10 -6 -17q-9 -10 -26 -16.5t-40 -6.5q-30 0 -49 15t-19 47q0 26 12 50.5t28.5 45t35 36t31.5 23.5l40 -7q-15 -9 -31.5 -24t-30.5 -33.5t-23.5 -39.5t-9.5 -42z" />
<glyph unicode="&#x2dc;" horiz-adv-x="340" d="M226 587q20 0 35.5 11t31.5 41q20 -8 22.5 -23t-6.5 -29q-11 -17 -30.5 -32t-61.5 -15q-15 0 -28 6t-26 12.5t-26.5 12.5t-28.5 6q-16 0 -32 -6.5t-32 -36.5q-18 8 -21 23t7 29q12 15 32 27t56 12q17 0 31 -6t27 -13t25 -13t25 -6z" />
<glyph unicode="&#x2dd;" horiz-adv-x="340" d="M71 534q-9 -9 -16.5 -11.5t-16.5 -2.5q-8 0 -15 3.5t-10 7.5l92 110q11 14 22 21.5t26 7.5q13 0 21 -5.5t14 -11.5zM209 534q-9 -9 -16.5 -11.5t-16.5 -2.5q-8 0 -15 3.5t-10 7.5l92 110q11 14 22 21.5t26 7.5q13 0 21 -5.5t14 -11.5z" />
<glyph unicode="&#x3a9;" horiz-adv-x="612" d="M157 50q-42 45 -62.5 106.5t-20.5 127.5q0 71 19.5 140.5t58 124t94.5 88.5t129 34q57 0 97 -20.5t65 -54.5t36.5 -78.5t11.5 -92.5q0 -58 -12.5 -113t-35.5 -103.5t-54.5 -89t-68.5 -69.5h137l-8 -50h-214l8 51q46 24 80.5 65t58 91t35.5 106.5t12 112.5q0 39 -8.5 74.5 t-27.5 62t-48 42t-70 15.5q-52 0 -95 -27.5t-73.5 -73.5t-47.5 -107.5t-17 -128.5q0 -26 3 -56.5t12.5 -61t27 -60.5t45.5 -54l-8 -51h-197l8 50h130z" />
<glyph unicode="&#x3c0;" horiz-adv-x="595" d="M456 109q-3 -17 -3 -28q0 -22 7.5 -32t28.5 -10q19 0 37 8l3 -45q-13 -6 -29 -8.5t-30 -2.5q-36 0 -56 17t-20 55q0 12 3 29l54 324h-191l-69 -416h-58l69 416h-9q-30 0 -51 -16t-38 -37l-38 31q26 38 59.5 55.5t84.5 17.5h397l-7 -51h-94z" />
<glyph unicode="&#x1e80;" horiz-adv-x="771" d="M562 0h-68l-56 415l-183 -415h-67l-94 668q13 3 25 3q20 0 29.5 -12t12.5 -35l73 -551l192 433l-19 162q8 2 12.5 2.5t10.5 0.5q20 0 27.5 -12t10.5 -34l70 -553l225 561q15 38 56 38q7 0 11.5 -0.5t9.5 -1.5zM339 814q5 8 16.5 15.5t23.5 7.5q24 0 44 -20l90 -87 q-7 -8 -15.5 -12t-15.5 -4t-14.5 2t-15.5 8z" />
<glyph unicode="&#x1e81;" horiz-adv-x="623" d="M444 -4h-62l-49 264l-139 -264h-60l-71 466q7 2 12.5 3.5t13.5 1.5q21 0 28.5 -16t10.5 -39l49 -356l142 271l-26 135q9 5 23 5q23 0 31.5 -14t12.5 -37l61 -360l153 362q11 24 23.5 36.5t32.5 12.5q8 0 13 -2t10 -5zM240 653q6 6 16 11.5t21 5.5q15 0 23.5 -5t17.5 -20 l70 -114q-3 -4 -10.5 -7.5t-15.5 -3.5q-19 0 -30 14z" />
<glyph unicode="&#x1e82;" horiz-adv-x="771" d="M562 0h-68l-56 415l-183 -415h-67l-94 668q13 3 25 3q20 0 29.5 -12t12.5 -35l73 -551l192 433l-19 162q8 2 12.5 2.5t10.5 0.5q20 0 27.5 -12t10.5 -34l70 -553l225 561q15 38 56 38q7 0 11.5 -0.5t9.5 -1.5zM447 724q-16 -10 -33 -10q-21 0 -30 16l112 87 q12 9 23.5 14.5t24.5 5.5q14 0 24.5 -9.5t14.5 -18.5z" />
<glyph unicode="&#x1e83;" horiz-adv-x="623" d="M444 -4h-62l-49 264l-139 -264h-60l-71 466q7 2 12.5 3.5t13.5 1.5q21 0 28.5 -16t10.5 -39l49 -356l142 271l-26 135q9 5 23 5q23 0 31.5 -14t12.5 -37l61 -360l153 362q11 24 23.5 36.5t32.5 12.5q8 0 13 -2t10 -5zM349 534q-9 -9 -16.5 -11.5t-18.5 -2.5 q-8 0 -16.5 3.5t-11.5 7.5l90 110q11 14 22.5 21.5t26.5 7.5q13 0 23 -5.5t16 -11.5z" />
<glyph unicode="&#x1e84;" horiz-adv-x="771" d="M562 0h-68l-56 415l-183 -415h-67l-94 668q13 3 25 3q20 0 29.5 -12t12.5 -35l73 -551l192 433l-19 162q8 2 12.5 2.5t10.5 0.5q20 0 27.5 -12t10.5 -34l70 -553l225 561q15 38 56 38q7 0 11.5 -0.5t9.5 -1.5zM385 833q16 0 24.5 -9.5t10.5 -23.5q2 -20 -10 -37.5 t-36 -17.5q-17 0 -25.5 9t-10.5 23q-2 21 10 38.5t37 17.5zM554 833q16 0 24.5 -9.5t10.5 -23.5q2 -20 -10 -37.5t-36 -17.5q-17 0 -25.5 9t-10.5 23q-2 21 10 38.5t37 17.5z" />
<glyph unicode="&#x1e85;" horiz-adv-x="623" d="M444 -4h-62l-49 264l-139 -264h-60l-71 466q7 2 12.5 3.5t13.5 1.5q21 0 28.5 -16t10.5 -39l49 -356l142 271l-26 135q9 5 23 5q23 0 31.5 -14t12.5 -37l61 -360l153 362q11 24 23.5 36.5t32.5 12.5q8 0 13 -2t10 -5zM270 629q16 0 24.5 -9.5t10.5 -23.5q2 -20 -10 -37.5 t-36 -17.5q-17 0 -25.5 9t-10.5 23q-2 21 10 38.5t37 17.5zM439 629q16 0 24.5 -9.5t10.5 -23.5q2 -20 -10 -37.5t-36 -17.5q-17 0 -25.5 9t-10.5 23q-2 21 10 38.5t37 17.5z" />
<glyph unicode="&#x1ef2;" horiz-adv-x="459" d="M282 290l-48 -290h-59l47 286l-128 378q17 7 29 7q17 0 27.5 -8.5t17.5 -29.5l92 -286l181 280q17 26 29 35t33 9q12 0 25 -7zM189 814q5 8 16.5 15.5t23.5 7.5q24 0 44 -20l90 -87q-7 -8 -15.5 -12t-15.5 -4t-14.5 2t-15.5 8z" />
<glyph unicode="&#x1ef3;" horiz-adv-x="409" d="M-25 -153q12 -14 26 -20t31 -6q24 0 43 24.5t45 77.5l36 73h-10l-82 465q15 6 27 6q23 0 30 -14t11 -38l55 -356l177 365q12 24 23.5 33.5t29.5 9.5q9 0 14.5 -2t10.5 -5l-280 -562q-14 -28 -27.5 -51t-29 -39.5t-34.5 -25.5t-44 -9q-8 0 -20 2t-23 7t-19 13t-8 19 q0 8 5 16zM149 653q6 6 16 11.5t21 5.5q15 0 23.5 -5t17.5 -20l70 -114q-3 -4 -10.5 -7.5t-15.5 -3.5q-19 0 -30 14z" />
<glyph unicode="&#x2013;" horiz-adv-x="500" d="M55 242q-22 0 -31 8.5t-9 25.5q0 2 0.5 6.5t2.5 11.5h457q22 0 31 -8.5t9 -25.5q0 -2 -0.5 -6.5t-2.5 -11.5h-457z" />
<glyph unicode="&#x2014;" horiz-adv-x="1000" d="M55 242q-22 0 -31 8.5t-9 25.5q0 2 0.5 6.5t2.5 11.5h957q22 0 31 -8.5t9 -25.5q0 -2 -0.5 -6.5t-2.5 -11.5h-957z" />
<glyph unicode="&#x2018;" horiz-adv-x="208" d="M254 672q-22 -11 -41.5 -26.5t-24.5 -43.5q11 -4 19.5 -13.5t8.5 -25.5q0 -26 -14.5 -42t-34.5 -16t-30 12.5t-10 32.5q0 40 20.5 77t49.5 56q7 5 15 8t16 3q9 0 16.5 -5t9.5 -17z" />
<glyph unicode="&#x2019;" horiz-adv-x="208" d="M107 526q22 11 41.5 26.5t24.5 43.5q-11 4 -19.5 13.5t-8.5 25.5q0 26 14.5 42t34.5 16t30 -12.5t10 -32.5q0 -40 -20.5 -77t-49.5 -56q-7 -5 -15 -8t-16 -3q-9 0 -16.5 5t-9.5 17z" />
<glyph unicode="&#x201a;" horiz-adv-x="208" d="M8 -84q22 11 41.5 26.5t24.5 43.5q-11 4 -19.5 13.5t-8.5 25.5q0 26 14.5 42t34.5 16t30 -12.5t10 -32.5q0 -40 -20.5 -77t-49.5 -56q-7 -5 -15 -8t-16 -3q-9 0 -16.5 5t-9.5 17z" />
<glyph unicode="&#x201c;" horiz-adv-x="352" d="M398 672q-22 -11 -41.5 -26.5t-24.5 -43.5q11 -4 19.5 -13.5t8.5 -25.5q0 -26 -14.5 -42t-34.5 -16t-30 12.5t-10 32.5q0 40 20.5 77t49.5 56q7 5 15 8t16 3q9 0 16.5 -5t9.5 -17zM254 672q-22 -11 -41.5 -26.5t-24.5 -43.5q11 -4 19.5 -13.5t8.5 -25.5q0 -26 -14.5 -42 t-34.5 -16t-30 12.5t-10 32.5q0 40 20.5 77t49.5 56q7 5 15 8t16 3q9 0 16.5 -5t9.5 -17z" />
<glyph unicode="&#x201d;" horiz-adv-x="352" d="M251 526q22 11 41.5 26.5t24.5 43.5q-11 4 -19.5 13.5t-8.5 25.5q0 26 14.5 42t34.5 16t30 -12.5t10 -32.5q0 -40 -20.5 -77t-49.5 -56q-7 -5 -15 -8t-16 -3q-9 0 -16.5 5t-9.5 17zM107 526q22 11 41.5 26.5t24.5 43.5q-11 4 -19.5 13.5t-8.5 25.5q0 26 14.5 42t34.5 16 t30 -12.5t10 -32.5q0 -40 -20.5 -77t-49.5 -56q-7 -5 -15 -8t-16 -3q-9 0 -16.5 5t-9.5 17z" />
<glyph unicode="&#x201e;" horiz-adv-x="341" d="M167 -84q22 11 41.5 26.5t24.5 43.5q-11 4 -19.5 13.5t-8.5 25.5q0 26 14.5 42t34.5 16t30 -12.5t10 -32.5q0 -40 -20.5 -77t-49.5 -56q-7 -5 -15 -8t-16 -3q-9 0 -16.5 5t-9.5 17zM23 -84q22 11 41.5 26.5t24.5 43.5q-11 4 -19.5 13.5t-8.5 25.5q0 26 14.5 42t34.5 16 t30 -12.5t10 -32.5q0 -40 -20.5 -77t-49.5 -56q-7 -5 -15 -8t-16 -3q-9 0 -16.5 5t-9.5 17z" />
<glyph unicode="&#x2020;" horiz-adv-x="404" d="M270 413l-88 -532h-59l88 532h-94q-22 0 -31 8.5t-9 25.5q0 2 0.5 6.5t2.5 11.5h140l34 205q5 1 12 1q18 0 28.5 -11.5t10.5 -28.5v-4.5t-1 -6.5l-26 -155h94q22 0 31 -8.5t9 -25.5q0 -2 -0.5 -6.5t-2.5 -11.5h-139z" />
<glyph unicode="&#x2021;" horiz-adv-x="404" d="M211 413h-94q-22 0 -31 8.5t-9 25.5q0 2 0.5 6.5t2.5 11.5h140l34 205q5 1 12 1q18 0 28.5 -11.5t10.5 -28.5v-4.5t-1 -6.5l-26 -155h94q22 0 31 -8.5t9 -25.5q0 -2 -0.5 -6.5t-2.5 -11.5h-139l-43 -262h93q22 0 31 -8.5t9 -25.5q0 -2 -0.5 -6.5t-2.5 -11.5h-139 l-35 -217h-59l35 217h-94q-22 0 -31 8.5t-9 25.5q0 2 0.5 6.5t2.5 11.5h140z" />
<glyph unicode="&#x2022;" horiz-adv-x="391" d="M351 350q0 -26 -9.5 -48.5t-26 -39t-39.5 -26.5t-50 -10q-28 0 -51 10t-39 26.5t-25 39t-9 48.5q0 25 9 48t25 40t39 27t51 10t51 -10t39.5 -27t25.5 -40t9 -48z" />
<glyph unicode="&#x2026;" horiz-adv-x="559" d="M93 87q17 0 27 -11.5t12 -27.5q2 -23 -11.5 -43t-39.5 -20q-18 0 -28 11t-12 27q-2 23 11.5 43.5t40.5 20.5zM276 87q17 0 27 -11.5t12 -27.5q2 -23 -11.5 -43t-39.5 -20q-18 0 -28 11t-12 27q-2 23 11.5 43.5t40.5 20.5zM455 87q17 0 27 -11.5t12 -27.5q2 -23 -11.5 -43 t-39.5 -20q-18 0 -28 11t-12 27q-2 23 11.5 43.5t40.5 20.5z" />
<glyph unicode="&#x2030;" horiz-adv-x="1050" d="M252 681q27 0 47 -10.5t33 -28.5t19.5 -41.5t6.5 -48.5q0 -39 -11 -78t-32 -70t-51.5 -50.5t-69.5 -19.5q-28 0 -48 10.5t-33 28.5t-19.5 41.5t-6.5 48.5q0 39 11 78t32 70t52 50.5t70 19.5zM246 635q-23 0 -42.5 -13.5t-33 -37.5t-21 -58t-7.5 -75q1 -38 17.5 -54.5 t39.5 -16.5q21 0 40 13.5t33 38t21.5 58t7.5 74.5q-1 37 -15.5 54t-39.5 17zM584 332q27 0 47 -10.5t33 -28.5t19.5 -41.5t6.5 -48.5q0 -39 -11 -78t-32 -70t-51.5 -50.5t-69.5 -19.5q-28 0 -48 10.5t-33 28.5t-19.5 41.5t-6.5 48.5q0 39 11 78t32 70t52 50.5t70 19.5z M578 286q-23 0 -42.5 -13.5t-33 -37.5t-21 -58t-7.5 -75q1 -38 17.5 -54.5t39.5 -16.5q21 0 40 13.5t33 38t21.5 58t7.5 74.5q-1 37 -15.5 54t-39.5 17zM186 0h-60l445 644q13 20 25 28.5t29 8.5q10 0 14.5 -1.5t5.5 -1.5l8 -4zM904 332q27 0 47 -10.5t33 -28.5t19.5 -41.5 t6.5 -48.5q0 -39 -11 -78t-32 -70t-51.5 -50.5t-69.5 -19.5q-28 0 -48 10.5t-33 28.5t-19.5 41.5t-6.5 48.5q0 39 11 78t32 70t52 50.5t70 19.5zM898 286q-23 0 -42.5 -13.5t-33 -37.5t-21 -58t-7.5 -75q1 -38 17.5 -54.5t39.5 -16.5q21 0 40 13.5t33 38t21.5 58t7.5 74.5 q-1 37 -15.5 54t-39.5 17z" />
<glyph unicode="&#x2039;" horiz-adv-x="265" d="M143 276l74 -109q6 -8 8 -16.5t2 -13.5q0 -11 -5.5 -19.5t-13.5 -17.5l-100 130q-8 11 -14.5 21t-6.5 23q0 19 12.5 31.5t27.5 25.5l135 115q9 -14 9 -28q0 -19 -18 -37z" />
<glyph unicode="&#x203a;" horiz-adv-x="265" d="M170 272l-74 108q-6 8 -8 16.5t-2 13.5q0 11 5.5 19.5t13.5 17.5l100 -130q8 -11 14.5 -21t6.5 -23q0 -19 -12.5 -31.5t-27.5 -25.5l-135 -115q-9 14 -9 28q0 20 18 38z" />
<glyph unicode="&#x2044;" horiz-adv-x="77" d="M-111 0h-60l415 644q13 20 25 28.5t29 8.5t28 -7z" />
<glyph unicode="&#x2070;" d="M170 353q24 0 44.5 14t35 40t23 63t8.5 83q0 37 -14 60t-43 23q-23 0 -43 -15t-35 -41.5t-23.5 -63.5t-8.5 -81q0 -36 14 -59t42 -23zM169 307q-30 0 -50.5 11t-33 29.5t-18 42.5t-5.5 49q0 42 11 85.5t32 78t51.5 56.5t69.5 22q30 0 50.5 -11t33 -29.5t18.5 -42.5t6 -50 q0 -44 -10.5 -87t-31.5 -77t-52 -55.5t-71 -21.5z" />
<glyph unicode="&#x2074;" d="M229 430l28 168l-136 -168h108zM286 430q15 0 21 -5.5t6 -17.5v-6t-2 -11h-42l-12 -76h-47l13 76h-161l4 33l199 247q5 7 13 10t16 3q14 0 23 -6l-41 -247h10z" />
<glyph unicode="&#x2075;" d="M173 351q29 -2 53.5 20t24.5 74q0 31 -15 49.5t-50 18.5q-18 0 -34.5 -3.5t-27.5 -7.5l-16 9l34 168h174q0 -19 -7 -30.5t-27 -11.5h-103l-18 -89q7 2 19 3t23 1q45 0 72.5 -29t27.5 -77q0 -29 -9 -54t-26 -44t-41.5 -30t-55.5 -11q-37 0 -58.5 11t-32.5 22 q-10 10 -10 21q0 8 5.5 16t19.5 17q15 -20 34 -31.5t44 -11.5z" />
<glyph unicode="&#x2076;" d="M81 432q1 46 14 90.5t39.5 80t65.5 57t92 21.5q26 0 26 -20q0 -3 -1.5 -8.5t-5.5 -11.5h-22q-44 0 -78 -22q-42 -29 -63 -80q13 11 33 18.5t39 6.5q48 -2 72 -35t23 -80q0 -25 -7.5 -50t-23 -45.5t-39.5 -33.5t-58 -13q-45 0 -76 33t-30 92zM129 434q0 -46 18.5 -65.5 t41.5 -19.5q35 0 55.5 26t20.5 74q0 31 -12 52t-43 21q-24 0 -43 -10t-30 -24q-2 -9 -5 -23.5t-3 -30.5z" />
<glyph unicode="&#x2077;" d="M145 312h-56l184 319h-167l2 15q2 14 13 22t26 8h168q11 0 17.5 -3.5t4.5 -16.5l-1 -8z" />
<glyph unicode="&#x2078;" d="M323 593q0 -35 -19 -56.5t-44 -32.5q24 -14 36 -32.5t12 -44.5q0 -30 -10.5 -52.5t-28 -37.5t-40.5 -22.5t-48 -7.5q-50 0 -81.5 26.5t-31.5 71.5q0 38 22.5 64t52.5 40q-20 13 -29 30t-9 35q0 26 10 46t26 33.5t37 20.5t43 7q45 0 73.5 -24.5t28.5 -63.5zM181 347 q32 0 55 19.5t23 59.5q0 25 -16.5 41.5t-44.5 16.5q-31 0 -56.5 -20t-25.5 -59q0 -26 18 -42t47 -16zM220 642q-29 0 -49 -16t-20 -51q0 -21 15.5 -35t38.5 -14q26 0 48 16t22 51q0 21 -15 35t-40 14z" />
<glyph unicode="&#x2079;" d="M321 556q-1 -48 -14.5 -93t-40 -79.5t-65.5 -55.5t-91 -21q-27 0 -27 20q0 3 1.5 8.5t5.5 11.5h19q21 0 43 5.5t39 16.5q42 29 63 80q-13 -11 -33.5 -18.5t-39.5 -6.5q-48 2 -73 35t-24 80q0 25 7.5 50t23 45.5t40 33.5t59.5 13q45 0 76.5 -33t30.5 -92zM273 554 q0 46 -19 65.5t-42 19.5q-38 0 -58 -26t-20 -74q0 -31 13 -52t44 -21q24 0 43.5 8.5t30.5 22.5q2 9 5 25t3 32z" />
<glyph unicode="&#x2080;" d="M141 40q24 0 44.5 14t35 40t23 63t8.5 83q0 37 -14 60t-43 23q-23 0 -43 -15t-35 -41.5t-23.5 -63.5t-8.5 -81q0 -36 14 -59t42 -23zM140 -6q-30 0 -50.5 11t-33 29.5t-18 42.5t-5.5 49q0 42 11 85.5t32 78t51.5 56.5t69.5 22q30 0 50.5 -11t33 -29.5t18.5 -42.5t6 -50 q0 -44 -10.5 -87t-31.5 -77t-52 -55.5t-71 -21.5z" />
<glyph unicode="&#x2081;" d="M147 1l50 304l-109 -60q-5 7 -7.5 15.5t-2.5 14.5q0 9 5.5 14.5t15.5 10.5l107 62q5 3 11.5 5.5t14.5 2.5q18 0 27 -8l-60 -361h-52z" />
<glyph unicode="&#x2082;" d="M31 1l4 39q67 52 101 86q42 41 68.5 74.5t26.5 70.5q0 55 -53 55q-23 0 -41.5 -11t-32.5 -29h-11q-14 12 -14 24q0 10 9 19q17 17 43 28.5t50 11.5q51 0 75 -26t24 -68q0 -27 -9.5 -50.5t-25.5 -45.5t-36.5 -42.5t-40.5 -39.5q-17 -16 -32.5 -29.5t-27.5 -23.5h123 q17 0 23 -6t6 -19v-6t-2 -12h-227z" />
<glyph unicode="&#x2083;" d="M185 368q49 0 74 -25.5t25 -62.5q0 -32 -19.5 -54t-46.5 -36q23 -11 35 -33t12 -44q0 -50 -32.5 -84.5t-97.5 -34.5q-37 0 -58.5 11t-32.5 22q-10 10 -10 21q0 8 5.5 16t19.5 17q15 -20 34 -31.5t44 -11.5q12 0 25.5 3t24.5 11.5t18.5 22.5t7.5 35q0 32 -15 45.5 t-37 13.5h-28l5 42h25q10 0 22.5 3.5t23.5 11t18.5 20.5t7.5 32q0 20 -12.5 33t-40.5 13q-42 0 -75 -40h-11q-9 7 -12 12.5t-3 12.5q0 9 12 21q15 15 39 26.5t53 11.5z" />
<glyph unicode="&#x2084;" d="M200 117l28 168l-136 -168h108zM257 117q15 0 21 -5.5t6 -17.5v-6t-2 -11h-42l-12 -76h-47l13 76h-161l4 33l199 247q5 7 13 10t16 3q14 0 23 -6l-41 -247h10z" />
<glyph unicode="&#x2085;" d="M144 38q29 -2 53.5 20t24.5 74q0 31 -15 49.5t-50 18.5q-18 0 -34.5 -3.5t-27.5 -7.5l-16 9l34 168h174q0 -19 -7 -30.5t-27 -11.5h-103l-18 -89q7 2 19 3t23 1q45 0 72.5 -29t27.5 -77q0 -29 -9 -54t-26 -44t-41.5 -30t-55.5 -11q-37 0 -58.5 11t-32.5 22q-10 10 -10 21 q0 8 5.5 16t19.5 17q15 -20 34 -31.5t44 -11.5z" />
<glyph unicode="&#x2086;" d="M52 119q1 46 14 90.5t39.5 80t65.5 57t92 21.5q26 0 26 -20q0 -3 -1.5 -8.5t-5.5 -11.5h-22q-44 0 -78 -22q-42 -29 -63 -80q13 11 33 18.5t39 6.5q48 -2 72 -35t23 -80q0 -25 -7.5 -50t-23 -45.5t-39.5 -33.5t-58 -13q-45 0 -76 33t-30 92zM100 121q0 -46 18.5 -65.5 t41.5 -19.5q35 0 55.5 26t20.5 74q0 31 -12 52t-43 21q-24 0 -43 -10t-30 -24q-2 -9 -5 -23.5t-3 -30.5z" />
<glyph unicode="&#x2087;" d="M116 -1h-56l184 319h-167l2 15q2 14 13 22t26 8h168q11 0 17.5 -3.5t4.5 -16.5l-1 -8z" />
<glyph unicode="&#x2088;" d="M294 280q0 -35 -19 -56.5t-44 -32.5q24 -14 36 -32.5t12 -44.5q0 -30 -10.5 -52.5t-28 -37.5t-40.5 -22.5t-48 -7.5q-50 0 -81.5 26.5t-31.5 71.5q0 38 22.5 64t52.5 40q-20 13 -29 30t-9 35q0 26 10 46t26 33.5t37 20.5t43 7q45 0 73.5 -24.5t28.5 -63.5zM152 34 q32 0 55 19.5t23 59.5q0 25 -16.5 41.5t-44.5 16.5q-31 0 -56.5 -20t-25.5 -59q0 -26 18 -42t47 -16zM191 329q-29 0 -49 -16t-20 -51q0 -21 15.5 -35t38.5 -14q26 0 48 16t22 51q0 21 -15 35t-40 14z" />
<glyph unicode="&#x2089;" d="M292 243q-1 -48 -14.5 -93t-40 -79.5t-65.5 -55.5t-91 -21q-27 0 -27 20q0 3 1.5 8.5t5.5 11.5h19q21 0 43 5.5t39 16.5q42 29 63 80q-13 -11 -33.5 -18.5t-39.5 -6.5q-48 2 -73 35t-24 80q0 25 7.5 50t23 45.5t40 33.5t59.5 13q45 0 76.5 -33t30.5 -92zM244 241 q0 46 -19 65.5t-42 19.5q-38 0 -58 -26t-20 -74q0 -31 13 -52t44 -21q24 0 43.5 8.5t30.5 22.5q2 9 5 25t3 32z" />
<glyph unicode="&#x20ac;" horiz-adv-x="540" d="M79 420h58q13 52 37 98t59 79.5t81 53t105 19.5q32 0 55.5 -7.5t40 -17t26.5 -19.5l15 -15q8 -9 11 -17.5t3 -15.5q0 -5 -3.5 -14t-23.5 -22h-7q-21 43 -53 59.5t-73 16.5q-83 -1 -135.5 -55.5t-75.5 -142.5h242l-7 -47h-246q-7 -42 -9 -88h240l-7 -47h-233q2 -42 11 -79 t27 -64t45 -42.5t65 -15.5q48 0 85 19.5t71 54.5l10 -13q11 -11 11 -22q0 -14 -7.5 -22.5t-21.5 -19.5q-23 -17 -59 -33t-93 -16t-95.5 20.5t-62.5 55.5t-35 81t-13 96h-68l8 47h60q2 45 9 88h-55z" />
<glyph unicode="&#x2113;" horiz-adv-x="456" d="M180 289q54 60 85.5 123.5t31.5 132.5q0 48 -16 67.5t-38 19.5q-26 0 -44.5 -33t-18.5 -109v-201zM366 115l19.5 -19.5t20.5 -18.5q-27 -40 -65.5 -63t-90.5 -23q-70 0 -108 39.5t-38 127.5q-13 -10 -24.5 -18t-24.5 -17q-5 11 -11.5 22t-13.5 22q19 13 37 27.5t36 30.5 v212q0 71 9.5 119.5t28 78t45 42.5t61.5 13q51 0 84 -37.5t33 -106.5q0 -91 -48 -172.5t-136 -163.5v-20q0 -41 6 -66.5t16.5 -39.5t25 -19.5t31.5 -5.5q32 0 61.5 16.5t45.5 39.5z" />
<glyph unicode="&#x2122;" horiz-adv-x="767" d="M448 681q13 0 20 -5.5t11 -13.5l102 -246l102 244q6 14 15 17.5t18 3.5q12 0 24 -5l18 -363h-48l-12 272l-94 -212h-48l-90 201l-16 -261h-48l23 363q12 5 23 5zM360 681q2 -10 2 -16q0 -11 -7 -20t-29 -9h-83v-323h-50v323h-115q-1 3 -1 15q0 11 6.5 20.5t29.5 9.5h247z " />
<glyph unicode="&#x2126;" horiz-adv-x="612" d="M163 50q-42 45 -62.5 106.5t-20.5 127.5q0 71 19.5 140.5t58 124t94.5 88.5t129 34q57 0 97 -20.5t65 -54.5t36.5 -78.5t11.5 -92.5q0 -58 -12.5 -113t-35.5 -103.5t-54.5 -89t-68.5 -69.5h137l-8 -50h-214l8 51q46 24 80.5 65t58 91t35.5 106.5t12 112.5q0 39 -8.5 74.5 t-27.5 62t-48 42t-70 15.5q-52 0 -95 -27.5t-73.5 -73.5t-47.5 -107.5t-17 -128.5q0 -26 3 -56.5t12.5 -61t27 -60.5t45.5 -54l-8 -51h-197l8 50h130z" />
<glyph unicode="&#x212e;" horiz-adv-x="670" d="M187 340v-230q75 -75 183 -75q79 0 137.5 35.5t106.5 116.5l44 -26q-29 -45 -59 -77.5t-64 -53.5t-74.5 -30.5t-90.5 -9.5q-75 0 -135 27.5t-102.5 74.5t-65.5 111t-23 137t23 137t65.5 111.5t102.5 74.5t135 27q73 0 133 -26t103 -72.5t67 -111t25 -140.5h-511zM555 386 v183q-79 76 -186 76q-109 0 -182 -76v-183h368z" />
<glyph unicode="&#x2153;" horiz-adv-x="810" d="M176 314l50 304l-109 -60q-5 7 -7.5 15.5t-2.5 14.5q0 9 5.5 14.5t15.5 10.5l107 62q5 3 11.5 5.5t14.5 2.5q18 0 27 -8l-60 -361h-52zM216 0h-60l415 644q13 20 25 28.5t29 8.5t28 -7zM641 368q49 0 74 -25.5t25 -62.5q0 -32 -19.5 -54t-46.5 -36q23 -11 35 -33t12 -44 q0 -50 -32.5 -84.5t-97.5 -34.5q-37 0 -58.5 11t-32.5 22q-10 10 -10 21q0 8 5.5 16t19.5 17q15 -20 34 -31.5t44 -11.5q12 0 25.5 3t24.5 11.5t18.5 22.5t7.5 35q0 32 -15 45.5t-37 13.5h-28l5 42h25q10 0 22.5 3.5t23.5 11t18.5 20.5t7.5 32q0 20 -12.5 33t-40.5 13 q-42 0 -75 -40h-11q-9 7 -12 12.5t-3 12.5q0 9 12 21q15 15 39 26.5t53 11.5z" />
<glyph unicode="&#x2154;" horiz-adv-x="810" d="M60 314l4 39q67 52 101 86q42 41 68.5 74.5t26.5 70.5q0 55 -53 55q-23 0 -41.5 -11t-32.5 -29h-11q-14 12 -14 24q0 10 9 19q17 17 43 28.5t50 11.5q51 0 75 -26t24 -68q0 -27 -9.5 -50.5t-25.5 -45.5t-36.5 -42.5t-40.5 -39.5q-17 -16 -32.5 -29.5t-27.5 -23.5h123 q17 0 23 -6t6 -19v-6t-2 -12h-227zM227 0h-60l415 644q13 20 25 28.5t29 8.5t28 -7zM641 368q49 0 74 -25.5t25 -62.5q0 -32 -19.5 -54t-46.5 -36q23 -11 35 -33t12 -44q0 -50 -32.5 -84.5t-97.5 -34.5q-37 0 -58.5 11t-32.5 22q-10 10 -10 21q0 8 5.5 16t19.5 17 q15 -20 34 -31.5t44 -11.5q12 0 25.5 3t24.5 11.5t18.5 22.5t7.5 35q0 32 -15 45.5t-37 13.5h-28l5 42h25q10 0 22.5 3.5t23.5 11t18.5 20.5t7.5 32q0 20 -12.5 33t-40.5 13q-42 0 -75 -40h-11q-9 7 -12 12.5t-3 12.5q0 9 12 21q15 15 39 26.5t53 11.5z" />
<glyph unicode="&#x2155;" horiz-adv-x="810" d="M176 314l50 304l-109 -60q-5 7 -7.5 15.5t-2.5 14.5q0 9 5.5 14.5t15.5 10.5l107 62q5 3 11.5 5.5t14.5 2.5q18 0 27 -8l-60 -361h-52zM218 0h-60l415 644q13 20 25 28.5t29 8.5t28 -7zM610 38q29 -2 53.5 20t24.5 74q0 31 -15 49.5t-50 18.5q-18 0 -34.5 -3.5 t-27.5 -7.5l-16 9l34 168h174q0 -19 -7 -30.5t-27 -11.5h-103l-18 -89q7 2 19 3t23 1q45 0 72.5 -29t27.5 -77q0 -29 -9 -54t-26 -44t-41.5 -30t-55.5 -11q-37 0 -58.5 11t-32.5 22q-10 10 -10 21q0 8 5.5 16t19.5 17q15 -20 34 -31.5t44 -11.5z" />
<glyph unicode="&#x2156;" horiz-adv-x="810" d="M70 314l4 39q67 52 101 86q42 41 68.5 74.5t26.5 70.5q0 55 -53 55q-23 0 -41.5 -11t-32.5 -29h-11q-14 12 -14 24q0 10 9 19q17 17 43 28.5t50 11.5q51 0 75 -26t24 -68q0 -27 -9.5 -50.5t-25.5 -45.5t-36.5 -42.5t-40.5 -39.5q-17 -16 -32.5 -29.5t-27.5 -23.5h123 q17 0 23 -6t6 -19v-6t-2 -12h-227zM230 0h-60l415 644q13 20 25 28.5t29 8.5t28 -7zM610 38q29 -2 53.5 20t24.5 74q0 31 -15 49.5t-50 18.5q-18 0 -34.5 -3.5t-27.5 -7.5l-16 9l34 168h174q0 -19 -7 -30.5t-27 -11.5h-103l-18 -89q7 2 19 3t23 1q45 0 72.5 -29t27.5 -77 q0 -29 -9 -54t-26 -44t-41.5 -30t-55.5 -11q-37 0 -58.5 11t-32.5 22q-10 10 -10 21q0 8 5.5 16t19.5 17q15 -20 34 -31.5t44 -11.5z" />
<glyph unicode="&#x2157;" horiz-adv-x="810" d="M224 681q49 0 74 -25.5t25 -62.5q0 -32 -19.5 -54t-46.5 -36q23 -11 35 -33t12 -44q0 -50 -32.5 -84.5t-97.5 -34.5q-37 0 -58.5 11t-32.5 22q-10 10 -10 21q0 8 5.5 16t19.5 17q15 -20 34 -31.5t44 -11.5q12 0 25.5 3t24.5 11.5t18.5 22.5t7.5 35q0 32 -15 45.5 t-37 13.5h-28l5 42h25q10 0 22.5 3.5t23.5 11t18.5 20.5t7.5 32q0 20 -12.5 33t-40.5 13q-42 0 -75 -40h-11q-9 7 -12 12.5t-3 12.5q0 9 12 21q15 15 39 26.5t53 11.5zM224 0h-60l415 644q13 20 25 28.5t29 8.5t28 -7zM610 38q29 -2 53.5 20t24.5 74q0 31 -15 49.5t-50 18.5 q-18 0 -34.5 -3.5t-27.5 -7.5l-16 9l34 168h174q0 -19 -7 -30.5t-27 -11.5h-103l-18 -89q7 2 19 3t23 1q45 0 72.5 -29t27.5 -77q0 -29 -9 -54t-26 -44t-41.5 -30t-55.5 -11q-37 0 -58.5 11t-32.5 22q-10 10 -10 21q0 8 5.5 16t19.5 17q15 -20 34 -31.5t44 -11.5z" />
<glyph unicode="&#x2158;" horiz-adv-x="810" d="M239 430l28 168l-136 -168h108zM296 430q15 0 21 -5.5t6 -17.5v-6t-2 -11h-42l-12 -76h-47l13 76h-161l4 33l199 247q5 7 13 10t16 3q14 0 23 -6l-41 -247h10zM236 0h-60l415 644q13 20 25 28.5t29 8.5t28 -7zM610 38q29 -2 53.5 20t24.5 74q0 31 -15 49.5t-50 18.5 q-18 0 -34.5 -3.5t-27.5 -7.5l-16 9l34 168h174q0 -19 -7 -30.5t-27 -11.5h-103l-18 -89q7 2 19 3t23 1q45 0 72.5 -29t27.5 -77q0 -29 -9 -54t-26 -44t-41.5 -30t-55.5 -11q-37 0 -58.5 11t-32.5 22q-10 10 -10 21q0 8 5.5 16t19.5 17q15 -20 34 -31.5t44 -11.5z" />
<glyph unicode="&#x2159;" horiz-adv-x="810" d="M176 314l50 304l-109 -60q-5 7 -7.5 15.5t-2.5 14.5q0 9 5.5 14.5t15.5 10.5l107 62q5 3 11.5 5.5t14.5 2.5q18 0 27 -8l-60 -361h-52zM219 0h-60l415 644q13 20 25 28.5t29 8.5t28 -7zM508 119q1 46 14 90.5t39.5 80t65.5 57t92 21.5q26 0 26 -20q0 -3 -1.5 -8.5 t-5.5 -11.5h-22q-44 0 -78 -22q-42 -29 -63 -80q13 11 33 18.5t39 6.5q48 -2 72 -35t23 -80q0 -25 -7.5 -50t-23 -45.5t-39.5 -33.5t-58 -13q-45 0 -76 33t-30 92zM556 121q0 -46 18.5 -65.5t41.5 -19.5q35 0 55.5 26t20.5 74q0 31 -12 52t-43 21q-24 0 -43 -10t-30 -24 q-2 -9 -5 -23.5t-3 -30.5z" />
<glyph unicode="&#x215a;" horiz-adv-x="810" d="M173 351q29 -2 53.5 20t24.5 74q0 31 -15 49.5t-50 18.5q-18 0 -34.5 -3.5t-27.5 -7.5l-16 9l34 168h174q0 -19 -7 -30.5t-27 -11.5h-103l-18 -89q7 2 19 3t23 1q45 0 72.5 -29t27.5 -77q0 -29 -9 -54t-26 -44t-41.5 -30t-55.5 -11q-37 0 -58.5 11t-32.5 22 q-10 10 -10 21q0 8 5.5 16t19.5 17q15 -20 34 -31.5t44 -11.5zM233 0h-60l415 644q13 20 25 28.5t29 8.5t28 -7zM508 119q1 46 14 90.5t39.5 80t65.5 57t92 21.5q26 0 26 -20q0 -3 -1.5 -8.5t-5.5 -11.5h-22q-44 0 -78 -22q-42 -29 -63 -80q13 11 33 18.5t39 6.5 q48 -2 72 -35t23 -80q0 -25 -7.5 -50t-23 -45.5t-39.5 -33.5t-58 -13q-45 0 -76 33t-30 92zM556 121q0 -46 18.5 -65.5t41.5 -19.5q35 0 55.5 26t20.5 74q0 31 -12 52t-43 21q-24 0 -43 -10t-30 -24q-2 -9 -5 -23.5t-3 -30.5z" />
<glyph unicode="&#x215b;" horiz-adv-x="810" d="M176 314l50 304l-109 -60q-5 7 -7.5 15.5t-2.5 14.5q0 9 5.5 14.5t15.5 10.5l107 62q5 3 11.5 5.5t14.5 2.5q18 0 27 -8l-60 -361h-52zM211 0h-60l415 644q13 20 25 28.5t29 8.5t28 -7zM760 280q0 -35 -19 -56.5t-44 -32.5q24 -14 36 -32.5t12 -44.5q0 -30 -10.5 -52.5 t-28 -37.5t-40.5 -22.5t-48 -7.5q-50 0 -81.5 26.5t-31.5 71.5q0 38 22.5 64t52.5 40q-20 13 -29 30t-9 35q0 26 10 46t26 33.5t37 20.5t43 7q45 0 73.5 -24.5t28.5 -63.5zM618 34q32 0 55 19.5t23 59.5q0 25 -16.5 41.5t-44.5 16.5q-31 0 -56.5 -20t-25.5 -59q0 -26 18 -42 t47 -16zM657 329q-29 0 -49 -16t-20 -51q0 -21 15.5 -35t38.5 -14q26 0 48 16t22 51q0 21 -15 35t-40 14z" />
<glyph unicode="&#x215c;" horiz-adv-x="810" d="M224 681q49 0 74 -25.5t25 -62.5q0 -32 -19.5 -54t-46.5 -36q23 -11 35 -33t12 -44q0 -50 -32.5 -84.5t-97.5 -34.5q-37 0 -58.5 11t-32.5 22q-10 10 -10 21q0 8 5.5 16t19.5 17q15 -20 34 -31.5t44 -11.5q12 0 25.5 3t24.5 11.5t18.5 22.5t7.5 35q0 32 -15 45.5 t-37 13.5h-28l5 42h25q10 0 22.5 3.5t23.5 11t18.5 20.5t7.5 32q0 20 -12.5 33t-40.5 13q-42 0 -75 -40h-11q-9 7 -12 12.5t-3 12.5q0 9 12 21q15 15 39 26.5t53 11.5zM235 0h-60l415 644q13 20 25 28.5t29 8.5t28 -7zM760 280q0 -35 -19 -56.5t-44 -32.5q24 -14 36 -32.5 t12 -44.5q0 -30 -10.5 -52.5t-28 -37.5t-40.5 -22.5t-48 -7.5q-50 0 -81.5 26.5t-31.5 71.5q0 38 22.5 64t52.5 40q-20 13 -29 30t-9 35q0 26 10 46t26 33.5t37 20.5t43 7q45 0 73.5 -24.5t28.5 -63.5zM618 34q32 0 55 19.5t23 59.5q0 25 -16.5 41.5t-44.5 16.5 q-31 0 -56.5 -20t-25.5 -59q0 -26 18 -42t47 -16zM657 329q-29 0 -49 -16t-20 -51q0 -21 15.5 -35t38.5 -14q26 0 48 16t22 51q0 21 -15 35t-40 14z" />
<glyph unicode="&#x215d;" horiz-adv-x="810" d="M183 351q29 -2 53.5 20t24.5 74q0 31 -15 49.5t-50 18.5q-18 0 -34.5 -3.5t-27.5 -7.5l-16 9l34 168h174q0 -19 -7 -30.5t-27 -11.5h-103l-18 -89q7 2 19 3t23 1q45 0 72.5 -29t27.5 -77q0 -29 -9 -54t-26 -44t-41.5 -30t-55.5 -11q-37 0 -58.5 11t-32.5 22 q-10 10 -10 21q0 8 5.5 16t19.5 17q15 -20 34 -31.5t44 -11.5zM231 0h-60l415 644q13 20 25 28.5t29 8.5t28 -7zM760 280q0 -35 -19 -56.5t-44 -32.5q24 -14 36 -32.5t12 -44.5q0 -30 -10.5 -52.5t-28 -37.5t-40.5 -22.5t-48 -7.5q-50 0 -81.5 26.5t-31.5 71.5q0 38 22.5 64 t52.5 40q-20 13 -29 30t-9 35q0 26 10 46t26 33.5t37 20.5t43 7q45 0 73.5 -24.5t28.5 -63.5zM618 34q32 0 55 19.5t23 59.5q0 25 -16.5 41.5t-44.5 16.5q-31 0 -56.5 -20t-25.5 -59q0 -26 18 -42t47 -16zM657 329q-29 0 -49 -16t-20 -51q0 -21 15.5 -35t38.5 -14 q26 0 48 16t22 51q0 21 -15 35t-40 14z" />
<glyph unicode="&#x215e;" horiz-adv-x="810" d="M155 312h-56l184 319h-167l2 15q2 14 13 22t26 8h168q11 0 17.5 -3.5t4.5 -16.5l-1 -8zM200 0h-60l415 644q13 20 25 28.5t29 8.5t28 -7zM760 280q0 -35 -19 -56.5t-44 -32.5q24 -14 36 -32.5t12 -44.5q0 -30 -10.5 -52.5t-28 -37.5t-40.5 -22.5t-48 -7.5 q-50 0 -81.5 26.5t-31.5 71.5q0 38 22.5 64t52.5 40q-20 13 -29 30t-9 35q0 26 10 46t26 33.5t37 20.5t43 7q45 0 73.5 -24.5t28.5 -63.5zM618 34q32 0 55 19.5t23 59.5q0 25 -16.5 41.5t-44.5 16.5q-31 0 -56.5 -20t-25.5 -59q0 -26 18 -42t47 -16zM657 329q-29 0 -49 -16 t-20 -51q0 -21 15.5 -35t38.5 -14q26 0 48 16t22 51q0 21 -15 35t-40 14z" />
<glyph unicode="&#x2202;" horiz-adv-x="483" d="M171 681q72 -7 125 -33t88.5 -67t53 -96.5t17.5 -120.5q0 -98 -18.5 -169t-51.5 -118t-78.5 -69.5t-98.5 -22.5q-32 0 -61 11.5t-51 35.5t-35.5 61t-13.5 87q0 76 18 133t49.5 95t73 57.5t89.5 19.5q34 0 65.5 -13.5t48.5 -35.5q-6 31 -20 63.5t-40.5 60t-68 48 t-102.5 27.5zM391 360q-10 30 -42 51.5t-82 21.5q-33 0 -62 -15t-51.5 -45.5t-35.5 -77t-13 -108.5q0 -75 31 -114.5t81 -39.5q49 0 82.5 27t53.5 72.5t29 104.5t9 123z" />
<glyph unicode="&#x2206;" horiz-adv-x="541" d="M-11 0l331 669h54l125 -669h-510zM333 582l-257 -531h353z" />
<glyph unicode="&#x220f;" horiz-adv-x="596" d="M504 615h-275l-101 -615h-59l101 615h-78l9 54h539l-9 -54h-68l-102 -615h-59z" />
<glyph unicode="&#x2211;" horiz-adv-x="451" d="M-11 -122l9 55l259 358q-2 4 -19 39q-7 15 -18 38.5t-27 57.5t-37 80.5t-48 108.5l9 54h387l-9 -53h-325l149 -333l-259 -352h333l-8 -53h-396z" />
<glyph unicode="&#x2212;" horiz-adv-x="540" d="M112 312l9 51h341l-9 -51h-341z" />
<glyph unicode="&#x2215;" horiz-adv-x="333" d="M50 0h-60l336 633q11 20 22 30t29 10q6 0 12 -1.5t14 -6.5z" />
<glyph unicode="&#x2219;" horiz-adv-x="262" d="M161 387q17 0 27 -11.5t12 -27.5q2 -23 -11.5 -43t-39.5 -20q-18 0 -28 11t-12 27q-2 23 11.5 43.5t40.5 20.5z" />
<glyph unicode="&#x221a;" horiz-adv-x="486" d="M123 234h-67l6 47h103l57 -197q69 159 138 317t138 318l48 -24l-305 -695h-47z" />
<glyph unicode="&#x221e;" horiz-adv-x="589" d="M525 372q1 40 -16 62t-46 22q-38 0 -65.5 -30.5t-49.5 -78.5q3 -20 10.5 -39t17.5 -33.5t22 -23.5t26 -9q26 0 45 11.5t31 30t18.5 41.5t6.5 47zM114 325q-1 -40 16 -62t46 -22q38 0 65.5 30.5t49.5 78.5q-3 20 -10.5 39t-17.5 33.5t-22.5 23.5t-25.5 9q-26 0 -45 -11.5 t-31 -30t-18.5 -41.5t-6.5 -47zM312 294q-29 -51 -62.5 -75t-79.5 -24q-54 0 -83 33t-28 95q1 34 11.5 66.5t30 57.5t48 40t65.5 15q36 0 65 -22.5t48 -76.5q29 51 62.5 75t79.5 24q54 0 83 -33t28 -95q-1 -34 -11.5 -66.5t-30 -57.5t-48 -40t-65.5 -15q-36 0 -65 22.5 t-48 76.5z" />
<glyph unicode="&#x222b;" horiz-adv-x="315" d="M175 485q8 50 23.5 85t41 56.5t62 32t85.5 10.5l-9 -51q-29 0 -52.5 -6t-41.5 -22t-30 -43.5t-19 -70.5l-80 -485q-8 -50 -24 -85.5t-42 -57.5t-62.5 -32t-85.5 -10l9 51q29 0 52.5 6.5t42 22.5t31 43.5t19.5 69.5z" />
<glyph unicode="&#x2248;" horiz-adv-x="522" d="M186 398q-28 0 -51.5 -8t-46.5 -19l-17 43q23 13 56 23.5t64 10.5q30 0 57.5 -5t61.5 -15q29 -8 51 -12.5t45 -4.5q29 0 52.5 8t48.5 21l17 -42q-20 -14 -54 -25.5t-69 -11.5q-26 0 -52.5 5t-51.5 13q-32 10 -58.5 14.5t-52.5 4.5zM156 217q-28 0 -52 -8t-47 -19l-16 43 q23 13 56 23.5t64 10.5q30 0 57.5 -5t61.5 -15q28 -8 50.5 -12.5t45.5 -4.5q29 0 52 8t49 21l17 -42q-21 -14 -54.5 -25.5t-68.5 -11.5q-26 0 -52.5 5t-52.5 13q-32 10 -58 14.5t-52 4.5z" />
<glyph unicode="&#x2260;" horiz-adv-x="540" d="M241 223l-77 -119l-37 26l60 93h-93l9 51h117l80 123h-178l9 51h202l75 115l37 -26l-58 -89h93l-9 -51h-117l-80 -123h178l-9 -51h-202z" />
<glyph unicode="&#x2264;" horiz-adv-x="540" d="M106 0l9 51h341l-9 -51h-341zM532 521l-11 -63l-310 -138l264 -144l-8 -57l-322 181l7 45z" />
<glyph unicode="&#x2265;" horiz-adv-x="540" d="M52 0l9 51h341l-9 -51h-341zM72 124l11 63l310 138l-264 144l8 57l322 -181l-7 -45z" />
<glyph unicode="&#x25ca;" horiz-adv-x="499" d="M333 726l134 -374l-255 -374l-134 374zM136 350l91 -261l181 265l-90 261z" />
<glyph unicode="&#x25fc;" horiz-adv-x="465" d="M0 465h465v-465h-465v465z" />
<glyph unicode="&#xf001;" horiz-adv-x="465" d="M187 467h259l-62 -375q-2 -8 -2.5 -16t-0.5 -13q0 -20 8 -27.5t22 -7.5q13 0 25 4l4 -22q-29 -16 -55 -16q-32 0 -47.5 17t-15.5 42q0 11 1.5 21t3.5 24l53 322h-201l-72 -436q-6 -37 -15.5 -71t-27 -60.5t-45 -42.5t-69.5 -16q-19 0 -35 3.5t-28 8.5q-30 13 -30 32 q0 7 1 11t6 9l11 14q17 -15 35 -22.5t41 -7.5q25 0 42 12t28 31.5t18 44t11 50.5l89 546q7 43 20 75.5t36 60.5q22 26 58.5 40.5t78.5 14.5q32 0 57 -9t42 -21t26 -25t9 -22q0 -11 -10 -20l-14 -12h-10q-15 29 -41.5 45t-61.5 16q-26 0 -51 -8.5t-40 -26.5t-25.5 -46.5 t-14.5 -51.5z" />
<glyph unicode="&#xf002;" horiz-adv-x="465" d="M187 467h147l-8 -47h-147l-72 -436q-6 -37 -15.5 -71t-27 -60.5t-45 -42.5t-69.5 -16q-19 0 -35 3.5t-28 8.5q-30 13 -30 32q0 7 1 11t6 9l11 14q17 -15 35 -22.5t41 -7.5q25 0 42 12t28 31.5t18 44t11 50.5l89 546q6 40 19 74.5t36 60.5t57 41t84 15q30 0 53 -6t41 -14 t30 -17.5t20 -15.5l-95 -572q-2 -8 -2.5 -16t-0.5 -13q0 -20 8 -27.5t22 -7.5q13 0 25 4l4 -22q-29 -16 -55 -16q-32 0 -47.5 17t-15.5 42q0 11 1.5 21t3.5 24l90 546q-16 13 -38.5 19t-47.5 6q-33 0 -56.5 -10t-39 -28t-24.5 -42.5t-13 -52.5z" />
<glyph unicode="&#xf506;" horiz-adv-x="810" d="M176 314l50 304l-109 -60q-5 7 -7.5 15.5t-2.5 14.5q0 9 5.5 14.5t15.5 10.5l107 62q5 3 11.5 5.5t14.5 2.5q18 0 27 -8l-60 -361h-52zM209 0h-60l415 644q13 20 25 28.5t29 8.5t28 -7zM582 -1h-56l184 319h-167l2 15q2 14 13 22t26 8h168q11 0 17.5 -3.5t4.5 -16.5 l-1 -8z" />
<glyph unicode="&#xf507;" horiz-adv-x="810" d="M70 314l4 39q67 52 101 86q42 41 68.5 74.5t26.5 70.5q0 55 -53 55q-23 0 -41.5 -11t-32.5 -29h-11q-14 12 -14 24q0 10 9 19q17 17 43 28.5t50 11.5q51 0 75 -26t24 -68q0 -27 -9.5 -50.5t-25.5 -45.5t-36.5 -42.5t-40.5 -39.5q-17 -16 -32.5 -29.5t-27.5 -23.5h123 q17 0 23 -6t6 -19v-6t-2 -12h-227zM222 0h-60l415 644q13 20 25 28.5t29 8.5t28 -7zM582 -1h-56l184 319h-167l2 15q2 14 13 22t26 8h168q11 0 17.5 -3.5t4.5 -16.5l-1 -8z" />
<glyph unicode="&#xf508;" horiz-adv-x="810" d="M224 681q49 0 74 -25.5t25 -62.5q0 -32 -19.5 -54t-46.5 -36q23 -11 35 -33t12 -44q0 -50 -32.5 -84.5t-97.5 -34.5q-37 0 -58.5 11t-32.5 22q-10 10 -10 21q0 8 5.5 16t19.5 17q15 -20 34 -31.5t44 -11.5q12 0 25.5 3t24.5 11.5t18.5 22.5t7.5 35q0 32 -15 45.5 t-37 13.5h-28l5 42h25q10 0 22.5 3.5t23.5 11t18.5 20.5t7.5 32q0 20 -12.5 33t-40.5 13q-42 0 -75 -40h-11q-9 7 -12 12.5t-3 12.5q0 9 12 21q15 15 39 26.5t53 11.5zM210 0h-60l415 644q13 20 25 28.5t29 8.5t28 -7zM582 -1h-56l184 319h-167l2 15q2 14 13 22t26 8h168 q11 0 17.5 -3.5t4.5 -16.5l-1 -8z" />
<glyph unicode="&#xf509;" horiz-adv-x="810" d="M239 430l28 168l-136 -168h108zM296 430q15 0 21 -5.5t6 -17.5v-6t-2 -11h-42l-12 -76h-47l13 76h-161l4 33l199 247q5 7 13 10t16 3q14 0 23 -6l-41 -247h10zM221 0h-60l415 644q13 20 25 28.5t29 8.5t28 -7zM582 -1h-56l184 319h-167l2 15q2 14 13 22t26 8h168 q11 0 17.5 -3.5t4.5 -16.5l-1 -8z" />
<glyph unicode="&#xf50a;" horiz-adv-x="810" d="M183 351q29 -2 53.5 20t24.5 74q0 31 -15 49.5t-50 18.5q-18 0 -34.5 -3.5t-27.5 -7.5l-16 9l34 168h174q0 -19 -7 -30.5t-27 -11.5h-103l-18 -89q7 2 19 3t23 1q45 0 72.5 -29t27.5 -77q0 -29 -9 -54t-26 -44t-41.5 -30t-55.5 -11q-37 0 -58.5 11t-32.5 22 q-10 10 -10 21q0 8 5.5 16t19.5 17q15 -20 34 -31.5t44 -11.5zM217 0h-60l415 644q13 20 25 28.5t29 8.5t28 -7zM582 -1h-56l184 319h-167l2 15q2 14 13 22t26 8h168q11 0 17.5 -3.5t4.5 -16.5l-1 -8z" />
<glyph unicode="&#xf50b;" horiz-adv-x="810" d="M91 432q1 46 14 90.5t39.5 80t65.5 57t92 21.5q26 0 26 -20q0 -3 -1.5 -8.5t-5.5 -11.5h-22q-44 0 -78 -22q-42 -29 -63 -80q13 11 33 18.5t39 6.5q48 -2 72 -35t23 -80q0 -25 -7.5 -50t-23 -45.5t-39.5 -33.5t-58 -13q-45 0 -76 33t-30 92zM139 434q0 -46 18.5 -65.5 t41.5 -19.5q35 0 55.5 26t20.5 74q0 31 -12 52t-43 21q-24 0 -43 -10t-30 -24q-2 -9 -5 -23.5t-3 -30.5zM224 0h-60l415 644q13 20 25 28.5t29 8.5t28 -7zM582 -1h-56l184 319h-167l2 15q2 14 13 22t26 8h168q11 0 17.5 -3.5t4.5 -16.5l-1 -8z" />
<glyph unicode="&#xf50c;" horiz-adv-x="810" d="M176 314l50 304l-109 -60q-5 7 -7.5 15.5t-2.5 14.5q0 9 5.5 14.5t15.5 10.5l107 62q5 3 11.5 5.5t14.5 2.5q18 0 27 -8l-60 -361h-52zM210 0h-60l415 644q13 20 25 28.5t29 8.5t28 -7zM758 243q-1 -48 -14.5 -93t-40 -79.5t-65.5 -55.5t-91 -21q-27 0 -27 20 q0 3 1.5 8.5t5.5 11.5h19q21 0 43 5.5t39 16.5q42 29 63 80q-13 -11 -33.5 -18.5t-39.5 -6.5q-48 2 -73 35t-24 80q0 25 7.5 50t23 45.5t40 33.5t59.5 13q45 0 76.5 -33t30.5 -92zM710 241q0 46 -19 65.5t-42 19.5q-38 0 -58 -26t-20 -74q0 -31 13 -52t44 -21q24 0 43.5 8.5 t30.5 22.5q2 9 5 25t3 32z" />
<glyph unicode="&#xf50d;" horiz-adv-x="810" d="M70 314l4 39q67 52 101 86q42 41 68.5 74.5t26.5 70.5q0 55 -53 55q-23 0 -41.5 -11t-32.5 -29h-11q-14 12 -14 24q0 10 9 19q17 17 43 28.5t50 11.5q51 0 75 -26t24 -68q0 -27 -9.5 -50.5t-25.5 -45.5t-36.5 -42.5t-40.5 -39.5q-17 -16 -32.5 -29.5t-27.5 -23.5h123 q17 0 23 -6t6 -19v-6t-2 -12h-227zM220 0h-60l415 644q13 20 25 28.5t29 8.5t28 -7zM758 243q-1 -48 -14.5 -93t-40 -79.5t-65.5 -55.5t-91 -21q-27 0 -27 20q0 3 1.5 8.5t5.5 11.5h19q21 0 43 5.5t39 16.5q42 29 63 80q-13 -11 -33.5 -18.5t-39.5 -6.5q-48 2 -73 35t-24 80 q0 25 7.5 50t23 45.5t40 33.5t59.5 13q45 0 76.5 -33t30.5 -92zM710 241q0 46 -19 65.5t-42 19.5q-38 0 -58 -26t-20 -74q0 -31 13 -52t44 -21q24 0 43.5 8.5t30.5 22.5q2 9 5 25t3 32z" />
<glyph unicode="&#xf50e;" horiz-adv-x="810" d="M239 430l28 168l-136 -168h108zM296 430q15 0 21 -5.5t6 -17.5v-6t-2 -11h-42l-12 -76h-47l13 76h-161l4 33l199 247q5 7 13 10t16 3q14 0 23 -6l-41 -247h10zM235 0h-60l415 644q13 20 25 28.5t29 8.5t28 -7zM758 243q-1 -48 -14.5 -93t-40 -79.5t-65.5 -55.5t-91 -21 q-27 0 -27 20q0 3 1.5 8.5t5.5 11.5h19q21 0 43 5.5t39 16.5q42 29 63 80q-13 -11 -33.5 -18.5t-39.5 -6.5q-48 2 -73 35t-24 80q0 25 7.5 50t23 45.5t40 33.5t59.5 13q45 0 76.5 -33t30.5 -92zM710 241q0 46 -19 65.5t-42 19.5q-38 0 -58 -26t-20 -74q0 -31 13 -52t44 -21 q24 0 43.5 8.5t30.5 22.5q2 9 5 25t3 32z" />
<glyph unicode="&#xf50f;" horiz-adv-x="810" d="M183 351q29 -2 53.5 20t24.5 74q0 31 -15 49.5t-50 18.5q-18 0 -34.5 -3.5t-27.5 -7.5l-16 9l34 168h174q0 -19 -7 -30.5t-27 -11.5h-103l-18 -89q7 2 19 3t23 1q45 0 72.5 -29t27.5 -77q0 -29 -9 -54t-26 -44t-41.5 -30t-55.5 -11q-37 0 -58.5 11t-32.5 22 q-10 10 -10 21q0 8 5.5 16t19.5 17q15 -20 34 -31.5t44 -11.5zM224 0h-60l415 644q13 20 25 28.5t29 8.5t28 -7zM758 243q-1 -48 -14.5 -93t-40 -79.5t-65.5 -55.5t-91 -21q-27 0 -27 20q0 3 1.5 8.5t5.5 11.5h19q21 0 43 5.5t39 16.5q42 29 63 80q-13 -11 -33.5 -18.5 t-39.5 -6.5q-48 2 -73 35t-24 80q0 25 7.5 50t23 45.5t40 33.5t59.5 13q45 0 76.5 -33t30.5 -92zM710 241q0 46 -19 65.5t-42 19.5q-38 0 -58 -26t-20 -74q0 -31 13 -52t44 -21q24 0 43.5 8.5t30.5 22.5q2 9 5 25t3 32z" />
<glyph unicode="&#xf510;" horiz-adv-x="810" d="M155 312h-56l184 319h-167l2 15q2 14 13 22t26 8h168q11 0 17.5 -3.5t4.5 -16.5l-1 -8zM190 0h-60l415 644q13 20 25 28.5t29 8.5t28 -7zM758 243q-1 -48 -14.5 -93t-40 -79.5t-65.5 -55.5t-91 -21q-27 0 -27 20q0 3 1.5 8.5t5.5 11.5h19q21 0 43 5.5t39 16.5 q42 29 63 80q-13 -11 -33.5 -18.5t-39.5 -6.5q-48 2 -73 35t-24 80q0 25 7.5 50t23 45.5t40 33.5t59.5 13q45 0 76.5 -33t30.5 -92zM710 241q0 46 -19 65.5t-42 19.5q-38 0 -58 -26t-20 -74q0 -31 13 -52t44 -21q24 0 43.5 8.5t30.5 22.5q2 9 5 25t3 32z" />
<glyph unicode="&#xf511;" horiz-adv-x="810" d="M343 593q0 -35 -19 -56.5t-44 -32.5q24 -14 36 -32.5t12 -44.5q0 -30 -10.5 -52.5t-28 -37.5t-40.5 -22.5t-48 -7.5q-50 0 -81.5 26.5t-31.5 71.5q0 38 22.5 64t52.5 40q-20 13 -29 30t-9 35q0 26 10 46t26 33.5t37 20.5t43 7q45 0 73.5 -24.5t28.5 -63.5zM201 347 q32 0 55 19.5t23 59.5q0 25 -16.5 41.5t-44.5 16.5q-31 0 -56.5 -20t-25.5 -59q0 -26 18 -42t47 -16zM240 642q-29 0 -49 -16t-20 -51q0 -21 15.5 -35t38.5 -14q26 0 48 16t22 51q0 21 -15 35t-40 14zM237 0h-60l415 644q13 20 25 28.5t29 8.5t28 -7zM758 243 q-1 -48 -14.5 -93t-40 -79.5t-65.5 -55.5t-91 -21q-27 0 -27 20q0 3 1.5 8.5t5.5 11.5h19q21 0 43 5.5t39 16.5q42 29 63 80q-13 -11 -33.5 -18.5t-39.5 -6.5q-48 2 -73 35t-24 80q0 25 7.5 50t23 45.5t40 33.5t59.5 13q45 0 76.5 -33t30.5 -92zM710 241q0 46 -19 65.5 t-42 19.5q-38 0 -58 -26t-20 -74q0 -31 13 -52t44 -21q24 0 43.5 8.5t30.5 22.5q2 9 5 25t3 32z" />
<glyph unicode="&#xf800;" horiz-adv-x="518" d="M232 37q46 0 86 30.5t69.5 84.5t46 127.5t16.5 159.5q0 37 -7 70t-21.5 57t-37.5 38t-54 14q-47 0 -86.5 -31.5t-68 -86t-44.5 -128.5t-16 -158q0 -37 6.5 -69t21 -56t36.5 -38t53 -14zM230 -15q-50 0 -84 20.5t-55 53.5t-30 75.5t-9 87.5q0 76 17.5 155.5t52.5 144.5 t88.5 106.5t124.5 41.5q49 0 83 -20.5t55 -54t30.5 -76.5t9.5 -89q0 -78 -18 -157.5t-53 -143.5t-88.5 -104t-123.5 -40z" />
<glyph unicode="&#xf801;" horiz-adv-x="386" d="M170 0l97 590l-159 -85q-5 8 -8.5 16t-3.5 16q0 11 6 16.5t17 11.5l166 93q14 7 26 7q17 0 26 -12l-108 -653h-59z" />
<glyph unicode="&#xf802;" horiz-adv-x="488" d="M17 0l7 49q36 29 85.5 70t100.5 91q41 40 75 77t59 73t38.5 71t13.5 73q0 60 -31.5 87t-85.5 27q-42 0 -83 -22t-69 -61h-8q-10 6 -16.5 13t-6.5 17q0 18 21 38q12 12 29 24t38.5 21.5t46.5 16t53 6.5q87 0 130 -43t43 -117q0 -48 -17.5 -92.5t-47 -85.5t-66.5 -80 t-75 -75q-44 -42 -83.5 -74.5t-65.5 -53.5h279q21 0 29.5 -8t8.5 -25v-6t-2 -11h-400z" />
<glyph unicode="&#xf803;" horiz-adv-x="477" d="M278 671q43 0 75 -11.5t54 -31.5t33 -47.5t11 -60.5q0 -31 -11 -58t-30 -49t-44.5 -39t-53.5 -27q51 -23 76.5 -61.5t25.5 -87.5q0 -44 -14.5 -82.5t-43 -67.5t-71.5 -46t-101 -17q-32 0 -58 6t-46 14.5t-34.5 19t-23.5 19.5q-14 14 -14 28q0 11 6 19t21 21 q27 -35 63 -55t90 -20q25 0 54 7.5t53 25t40 47.5t16 75q0 34 -11.5 58.5t-29.5 40.5t-40.5 23t-43.5 7h-29l8 49h26q19 0 46 8.5t52.5 26.5t43.5 45.5t18 65.5q0 44 -27.5 73t-91.5 29q-41 0 -77.5 -18.5t-67.5 -56.5h-8q-24 13 -24 29q0 12 7.5 21t13.5 15q9 9 25 19.5 t37 20.5t46.5 16.5t53.5 6.5z" />
<glyph unicode="&#xf804;" horiz-adv-x="508" d="M346 231l56 331l-286 -331h230zM432 231q21 0 29.5 -7.5t8.5 -24.5v-6t-2 -11h-74l-30 -182h-57l30 182h-294l6 43l360 420q17 20 39 20q8 0 14 -2t11 -4l-71 -428h30z" />
<glyph unicode="&#xf805;" horiz-adv-x="489" d="M210 -15q-32 0 -58 6t-46 14.5t-34 19t-23 19.5q-14 14 -14 28q0 11 7.5 21t19.5 19q27 -35 62.5 -55t89.5 -20q30 0 59.5 9t52 30.5t36.5 58t14 90.5q0 64 -37.5 102t-103.5 38q-38 0 -62.5 -5.5t-51.5 -13.5l-15 9l60 308h300q0 -23 -9.5 -37.5t-36.5 -14.5h-210 l-39 -206q13 3 35 6.5t52 3.5q41 0 74.5 -15t57 -40.5t36.5 -59.5t13 -71q0 -51 -15 -95.5t-44 -77.5t-72 -52t-98 -19z" />
<glyph unicode="&#xf806;" horiz-adv-x="518" d="M72 207q1 85 25 168t71.5 149t118.5 106.5t167 40.5q33 0 33 -24q0 -5 -1.5 -12t-5.5 -15h-31q-42 0 -81.5 -10.5t-73.5 -33.5q-48 -32 -86 -83.5t-55 -117.5q13 13 31 23.5t38.5 18t41 11.5t38.5 3q42 -2 75 -17.5t55.5 -42t34 -62t10.5 -75.5q-1 -44 -14.5 -88.5 t-41.5 -80t-69.5 -58t-97.5 -22.5q-40 0 -73.5 15t-58 43.5t-38 70t-12.5 93.5zM130 209q-1 -47 9.5 -79.5t29 -53.5t42 -30.5t47.5 -9.5q65 0 110 50t47 147q1 66 -32 106.5t-90 40.5q-23 0 -46 -6.5t-43 -16.5t-36 -23.5t-26 -26.5q-5 -18 -8.5 -39.5t-3.5 -58.5z" />
<glyph unicode="&#xf807;" horiz-adv-x="451" d="M63 610q0 21 9.5 37t35.5 16h342q15 0 22 -5t5 -20l-2 -13l-347 -625h-66l339 610h-338z" />
<glyph unicode="&#xf808;" horiz-adv-x="530" d="M365 349q52 -23 80.5 -62.5t28.5 -87.5q0 -53 -18.5 -93t-49.5 -67t-71.5 -40.5t-85.5 -13.5q-43 0 -79 12.5t-61.5 35t-40 54.5t-14.5 70q0 39 12.5 70.5t34 55.5t49.5 41t58 27q-49 28 -68 61t-19 69q0 46 17 81.5t45.5 59.5t64.5 36.5t74 12.5q39 0 71.5 -11.5t55 -32 t35 -48.5t12.5 -61q0 -35 -11 -62.5t-29.5 -48t-42 -35t-48.5 -23.5zM249 34q33 0 63 10.5t52 30.5t35 50.5t13 71.5q0 26 -10 49t-27.5 40t-41.5 27t-53 10q-31 0 -60.5 -11t-53 -32t-37.5 -52t-14 -71q0 -54 35.5 -88.5t98.5 -34.5zM320 622q-61 0 -101.5 -34.5 t-40.5 -104.5q0 -22 9 -41.5t24.5 -34.5t36.5 -23.5t45 -8.5q27 0 53 9t46 26.5t32.5 44.5t12.5 63q0 45 -30.5 74.5t-86.5 29.5z" />
<glyph unicode="&#xf809;" horiz-adv-x="519" d="M482 451q-2 -85 -24 -168.5t-67.5 -149.5t-115 -107t-165.5 -41q-33 0 -33 24q0 13 7 28h31q109 0 182 66.5t105 184.5q-13 -14 -31 -25.5t-38 -19.5t-40.5 -12t-38.5 -3q-42 1 -75.5 17t-56.5 42t-35 61t-11 76q1 44 15 88t42 79.5t69.5 57.5t97.5 22q40 0 73.5 -15 t58 -43t38 -69t12.5 -93zM424 449q0 46 -11 79t-29 53t-41 29.5t-47 9.5q-65 0 -110.5 -49t-47.5 -146q-1 -66 33.5 -106t91.5 -40q23 0 46 6.5t42.5 18t35.5 25.5t26 29q5 18 8 37t3 54z" />
<glyph unicode="&#xf80a;" d="M170 443q24 0 44.5 14t35 40t23 63t8.5 83q0 37 -14 60t-43 23q-23 0 -43 -15t-35 -41.5t-23.5 -63.5t-8.5 -81q0 -36 14 -59t42 -23zM169 397q-30 0 -50.5 11t-33 29.5t-18 42.5t-5.5 49q0 42 11 85.5t32 78t51.5 56.5t69.5 22q30 0 50.5 -11t33 -29.5t18.5 -42.5t6 -50 q0 -44 -10.5 -87t-31.5 -77t-52 -55.5t-71 -21.5z" />
<glyph unicode="&#xf80b;" d="M176 404l50 304l-109 -60q-5 7 -7.5 15.5t-2.5 14.5q0 9 5.5 14.5t15.5 10.5l107 62q5 3 11.5 5.5t14.5 2.5q18 0 27 -8l-60 -361h-52z" />
<glyph unicode="&#xf80c;" d="M60 404l4 39q67 52 101 86q42 41 68.5 74.5t26.5 70.5q0 55 -53 55q-23 0 -41.5 -11t-32.5 -29h-11q-14 12 -14 24q0 10 9 19q17 17 43 28.5t50 11.5q51 0 75 -26t24 -68q0 -27 -9.5 -50.5t-25.5 -45.5t-36.5 -42.5t-40.5 -39.5q-17 -16 -32.5 -29.5t-27.5 -23.5h123 q17 0 23 -6t6 -19v-6t-2 -12h-227z" />
<glyph unicode="&#xf80d;" d="M214 771q49 0 74 -25.5t25 -62.5q0 -32 -19.5 -54t-46.5 -36q23 -11 35 -33t12 -44q0 -50 -32.5 -84.5t-97.5 -34.5q-37 0 -58.5 11t-32.5 22q-10 10 -10 21q0 8 5.5 16t19.5 17q15 -20 34 -31.5t44 -11.5q12 0 25.5 3t24.5 11.5t18.5 22.5t7.5 35q0 32 -15 45.5 t-37 13.5h-28l5 42h25q10 0 22.5 3.5t23.5 11t18.5 20.5t7.5 32q0 20 -12.5 33t-40.5 13q-42 0 -75 -40h-11q-9 7 -12 12.5t-3 12.5q0 9 12 21q15 15 39 26.5t53 11.5z" />
<glyph unicode="&#xf80e;" d="M229 520l28 168l-136 -168h108zM286 520q15 0 21 -5.5t6 -17.5v-6t-2 -11h-42l-12 -76h-47l13 76h-161l4 33l199 247q5 7 13 10t16 3q14 0 23 -6l-41 -247h10z" />
<glyph unicode="&#xf80f;" d="M173 441q29 -2 53.5 20t24.5 74q0 31 -15 49.5t-50 18.5q-18 0 -34.5 -3.5t-27.5 -7.5l-16 9l34 168h174q0 -19 -7 -30.5t-27 -11.5h-103l-18 -89q7 2 19 3t23 1q45 0 72.5 -29t27.5 -77q0 -29 -9 -54t-26 -44t-41.5 -30t-55.5 -11q-37 0 -58.5 11t-32.5 22 q-10 10 -10 21q0 8 5.5 16t19.5 17q15 -20 34 -31.5t44 -11.5z" />
<glyph unicode="&#xf810;" d="M81 522q1 46 14 90.5t39.5 80t65.5 57t92 21.5q26 0 26 -20q0 -3 -1.5 -8.5t-5.5 -11.5h-22q-44 0 -78 -22q-42 -29 -63 -80q13 11 33 18.5t39 6.5q48 -2 72 -35t23 -80q0 -25 -7.5 -50t-23 -45.5t-39.5 -33.5t-58 -13q-45 0 -76 33t-30 92zM129 524q0 -46 18.5 -65.5 t41.5 -19.5q35 0 55.5 26t20.5 74q0 31 -12 52t-43 21q-24 0 -43 -10t-30 -24q-2 -9 -5 -23.5t-3 -30.5z" />
<glyph unicode="&#xf811;" d="M145 402h-56l184 319h-167l2 15q2 14 13 22t26 8h168q11 0 17.5 -3.5t4.5 -16.5l-1 -8z" />
<glyph unicode="&#xf812;" d="M323 683q0 -35 -19 -56.5t-44 -32.5q24 -14 36 -32.5t12 -44.5q0 -30 -10.5 -52.5t-28 -37.5t-40.5 -22.5t-48 -7.5q-50 0 -81.5 26.5t-31.5 71.5q0 38 22.5 64t52.5 40q-20 13 -29 30t-9 35q0 26 10 46t26 33.5t37 20.5t43 7q45 0 73.5 -24.5t28.5 -63.5zM181 437 q32 0 55 19.5t23 59.5q0 25 -16.5 41.5t-44.5 16.5q-31 0 -56.5 -20t-25.5 -59q0 -26 18 -42t47 -16zM220 732q-29 0 -49 -16t-20 -51q0 -21 15.5 -35t38.5 -14q26 0 48 16t22 51q0 21 -15 35t-40 14z" />
<glyph unicode="&#xf813;" d="M321 646q-1 -48 -14.5 -93t-40 -79.5t-65.5 -55.5t-91 -21q-27 0 -27 20q0 3 1.5 8.5t5.5 11.5h19q21 0 43 5.5t39 16.5q42 29 63 80q-13 -11 -33.5 -18.5t-39.5 -6.5q-48 2 -73 35t-24 80q0 25 7.5 50t23 45.5t40 33.5t59.5 13q45 0 76.5 -33t30.5 -92zM273 644 q0 46 -19 65.5t-42 19.5q-38 0 -58 -26t-20 -74q0 -31 13 -52t44 -21q24 0 43.5 8.5t30.5 22.5q2 9 5 25t3 32z" />
<glyph unicode="&#xf814;" d="M141 -50q24 0 44.5 14t35 40t23 63t8.5 83q0 37 -14 60t-43 23q-23 0 -43 -15t-35 -41.5t-23.5 -63.5t-8.5 -81q0 -36 14 -59t42 -23zM140 -96q-30 0 -50.5 11t-33 29.5t-18 42.5t-5.5 49q0 42 11 85.5t32 78t51.5 56.5t69.5 22q30 0 50.5 -11t33 -29.5t18.5 -42.5t6 -50 q0 -44 -10.5 -87t-31.5 -77t-52 -55.5t-71 -21.5z" />
<glyph unicode="&#xf815;" d="M147 -89l50 304l-109 -60q-5 7 -7.5 15.5t-2.5 14.5q0 9 5.5 14.5t15.5 10.5l107 62q5 3 11.5 5.5t14.5 2.5q18 0 27 -8l-60 -361h-52z" />
<glyph unicode="&#xf816;" d="M31 -89l4 39q67 52 101 86q42 41 68.5 74.5t26.5 70.5q0 55 -53 55q-23 0 -41.5 -11t-32.5 -29h-11q-14 12 -14 24q0 10 9 19q17 17 43 28.5t50 11.5q51 0 75 -26t24 -68q0 -27 -9.5 -50.5t-25.5 -45.5t-36.5 -42.5t-40.5 -39.5q-17 -16 -32.5 -29.5t-27.5 -23.5h123 q17 0 23 -6t6 -19v-6t-2 -12h-227z" />
<glyph unicode="&#xf817;" d="M185 278q49 0 74 -25.5t25 -62.5q0 -32 -19.5 -54t-46.5 -36q23 -11 35 -33t12 -44q0 -50 -32.5 -84.5t-97.5 -34.5q-37 0 -58.5 11t-32.5 22q-10 10 -10 21q0 8 5.5 16t19.5 17q15 -20 34 -31.5t44 -11.5q12 0 25.5 3t24.5 11.5t18.5 22.5t7.5 35q0 32 -15 45.5 t-37 13.5h-28l5 42h25q10 0 22.5 3.5t23.5 11t18.5 20.5t7.5 32q0 20 -12.5 33t-40.5 13q-42 0 -75 -40h-11q-9 7 -12 12.5t-3 12.5q0 9 12 21q15 15 39 26.5t53 11.5z" />
<glyph unicode="&#xf818;" d="M200 27l28 168l-136 -168h108zM257 27q15 0 21 -5.5t6 -17.5v-6t-2 -11h-42l-12 -76h-47l13 76h-161l4 33l199 247q5 7 13 10t16 3q14 0 23 -6l-41 -247h10z" />
<glyph unicode="&#xf819;" d="M144 -52q29 -2 53.5 20t24.5 74q0 31 -15 49.5t-50 18.5q-18 0 -34.5 -3.5t-27.5 -7.5l-16 9l34 168h174q0 -19 -7 -30.5t-27 -11.5h-103l-18 -89q7 2 19 3t23 1q45 0 72.5 -29t27.5 -77q0 -29 -9 -54t-26 -44t-41.5 -30t-55.5 -11q-37 0 -58.5 11t-32.5 22 q-10 10 -10 21q0 8 5.5 16t19.5 17q15 -20 34 -31.5t44 -11.5z" />
<glyph unicode="&#xf81a;" d="M52 29q1 46 14 90.5t39.5 80t65.5 57t92 21.5q26 0 26 -20q0 -3 -1.5 -8.5t-5.5 -11.5h-22q-44 0 -78 -22q-42 -29 -63 -80q13 11 33 18.5t39 6.5q48 -2 72 -35t23 -80q0 -25 -7.5 -50t-23 -45.5t-39.5 -33.5t-58 -13q-45 0 -76 33t-30 92zM100 31q0 -46 18.5 -65.5 t41.5 -19.5q35 0 55.5 26t20.5 74q0 31 -12 52t-43 21q-24 0 -43 -10t-30 -24q-2 -9 -5 -23.5t-3 -30.5z" />
<glyph unicode="&#xf81b;" d="M116 -91h-56l184 319h-167l2 15q2 14 13 22t26 8h168q11 0 17.5 -3.5t4.5 -16.5l-1 -8z" />
<glyph unicode="&#xf81c;" d="M294 190q0 -35 -19 -56.5t-44 -32.5q24 -14 36 -32.5t12 -44.5q0 -30 -10.5 -52.5t-28 -37.5t-40.5 -22.5t-48 -7.5q-50 0 -81.5 26.5t-31.5 71.5q0 38 22.5 64t52.5 40q-20 13 -29 30t-9 35q0 26 10 46t26 33.5t37 20.5t43 7q45 0 73.5 -24.5t28.5 -63.5zM152 -56 q32 0 55 19.5t23 59.5q0 25 -16.5 41.5t-44.5 16.5q-31 0 -56.5 -20t-25.5 -59q0 -26 18 -42t47 -16zM191 239q-29 0 -49 -16t-20 -51q0 -21 15.5 -35t38.5 -14q26 0 48 16t22 51q0 21 -15 35t-40 14z" />
<glyph unicode="&#xf81d;" d="M292 153q-1 -48 -14.5 -93t-40 -79.5t-65.5 -55.5t-91 -21q-27 0 -27 20q0 3 1.5 8.5t5.5 11.5h19q21 0 43 5.5t39 16.5q42 29 63 80q-13 -11 -33.5 -18.5t-39.5 -6.5q-48 2 -73 35t-24 80q0 25 7.5 50t23 45.5t40 33.5t59.5 13q45 0 76.5 -33t30.5 -92zM244 151 q0 46 -19 65.5t-42 19.5q-38 0 -58 -26t-20 -74q0 -31 13 -52t44 -21q24 0 43.5 8.5t30.5 22.5q2 9 5 25t3 32z" />
<glyph horiz-adv-x="203" d="M122 92q-2 -8 -2.5 -16t-0.5 -13q0 -20 8 -27.5t22 -7.5q13 0 25 4l4 -22q-29 -16 -55 -16q-32 0 -47.5 17t-15.5 42q0 11 1.5 21t3.5 24l61 369h5q18 0 31.5 -11t13.5 -31q0 -6 -2 -16q-1 -4 -1 -9zM177 636q17 0 26 -12t9 -28q0 -19 -11.5 -35.5t-34.5 -16.5 q-18 0 -27 11t-9 28q0 20 12 36.5t35 16.5z" />
<glyph horiz-adv-x="630" d="M469 646q14 14 27.5 19.5t24.5 5.5q19 0 34 -12l-304 -300l211 -363q-9 -3 -15.5 -4t-14.5 -1q-20 0 -32.5 6.5t-23.5 26.5l-188 323l4 25zM114 0h-59l111 670q5 1 12 1q18 0 28.5 -11.5t10.5 -28.5v-4.5t-1 -6.5zM710 672q-22 -11 -41.5 -26.5t-24.5 -43.5 q11 -4 19.5 -13.5t8.5 -25.5q0 -26 -14.5 -42t-34.5 -16t-30 12.5t-10 32.5q0 40 20.5 77t49.5 56q7 5 15 8t16 3q9 0 16.5 -5t9.5 -17z" />
<glyph horiz-adv-x="673" d="M567 0h-57l-244 568l-92 -568h-56l110 666q8 3 13.5 4t11.5 1q13 0 22 -5.5t16 -20.5l236 -556l94 581q5 1 12 1q18 0 28 -11.5t10 -28.5v-4.5t-1 -6.5zM32 526q22 11 41.5 26.5t24.5 43.5q-11 4 -19.5 13.5t-8.5 25.5q0 26 14.5 42t34.5 16t30 -12.5t10 -32.5 q0 -40 -20.5 -77t-49.5 -56q-7 -5 -15 -8t-16 -3q-9 0 -16.5 5t-9.5 17z" />
<glyph horiz-adv-x="340" d="M55 724q-16 -10 -33 -10q-21 0 -30 16l112 87q12 9 23.5 14.5t24.5 5.5q14 0 24.5 -9.5t14.5 -18.5zM213 724q-16 -10 -33 -10q-21 0 -30 16l112 87q12 9 23.5 14.5t24.5 5.5q14 0 24.5 -9.5t14.5 -18.5z" />
<glyph horiz-adv-x="340" d="M132 -208q-13 0 -17.5 6.5t-4.5 15.5q0 10 7 24q5 -2 7.5 -2.5t10.5 -0.5q47 0 47 35q0 9 -4.5 16.5t-10.5 15t-10.5 15.5t-4.5 19q0 23 12 38.5t23 24.5l39 -2q-11 -8 -19 -19t-8 -25q0 -9 5 -17t10.5 -17t10.5 -20t5 -26q0 -22 -9 -37.5t-23.5 -25t-32 -14t-33.5 -4.5z " />
<glyph horiz-adv-x="340" d="M226 782q20 0 35.5 11t31.5 41q20 -8 22.5 -23t-6.5 -29q-11 -17 -30.5 -32t-61.5 -15q-15 0 -28 6t-26 12.5t-26.5 12.5t-28.5 6q-16 0 -32 -6.5t-32 -36.5q-18 8 -21 23t7 29q12 15 32 27t56 12q17 0 31 -6t27 -13t25 -13t25 -6z" />
<glyph horiz-adv-x="340" d="M148 -129q0 -17 8.5 -24t21.5 -7q14 0 24.5 8.5t18.5 16.5q15 -11 15 -25q0 -10 -6 -17q-9 -10 -26 -16.5t-40 -6.5q-30 0 -49 15t-19 47q0 26 12 50.5t28.5 45t35 36t31.5 23.5l40 -7q-15 -9 -31.5 -24t-30.5 -33.5t-23.5 -39.5t-9.5 -42z" />
<glyph horiz-adv-x="340" d="M272 809q0 -43 -27 -74t-75 -31t-75.5 30.5t-27.5 73.5q0 45 27.5 75.5t75.5 30.5t75 -31t27 -74zM229 809q0 26 -16.5 46t-42.5 20q-27 0 -43.5 -20t-16.5 -46t16 -46.5t44 -20.5q27 0 43 20t16 47z" />
<glyph horiz-adv-x="340" d="M158 773l62 59q11 11 20 15t20 4q7 0 14 -2.5t12 -7.5l-87 -91q-13 -13 -22 -20t-24 -7q-17 0 -26 8.5t-17 22.5l-56 91q6 3 13.5 5.5t17.5 2.5t16 -4.5t12 -13.5z" />
<glyph horiz-adv-x="340" d="M73 742q-21 0 -29.5 7.5t-8.5 24.5q0 2 0.5 6.5t2.5 10.5h229q21 0 29.5 -7.5t8.5 -24.5q0 -2 -0.5 -6.5t-2.5 -10.5h-229z" />
<glyph horiz-adv-x="340" d="M91 833q16 0 24.5 -9.5t10.5 -23.5q2 -20 -10 -37.5t-36 -17.5q-17 0 -25.5 9t-10.5 23q-2 21 10 38.5t37 17.5zM260 833q16 0 24.5 -9.5t10.5 -23.5q2 -20 -10 -37.5t-36 -17.5q-17 0 -25.5 9t-10.5 23q-2 21 10 38.5t37 17.5z" />
<glyph horiz-adv-x="340" d="M176 824q19 0 29 -14t10 -28q0 -21 -13 -38.5t-37 -17.5q-20 0 -30 12t-10 28q0 23 13 40.5t38 17.5z" />
<glyph horiz-adv-x="340" d="M182 794l-62 -59q-11 -11 -20 -15t-20 -4q-7 0 -14 2.5t-12 7.5l87 91q13 13 22 20t24 7q17 0 26 -8.5t17 -22.5l56 -91q-6 -3 -13.5 -5.5t-17.5 -2.5t-16 4.5t-12 13.5z" />
<glyph horiz-adv-x="340" d="M133 724q-16 -10 -33 -10q-21 0 -30 16l112 87q12 9 23.5 14.5t24.5 5.5q14 0 24.5 -9.5t14.5 -18.5z" />
<glyph horiz-adv-x="340" d="M83 814q5 8 16.5 15.5t23.5 7.5q24 0 44 -20l90 -87q-7 -8 -15.5 -12t-15.5 -4t-14.5 2t-15.5 8z" />
<glyph horiz-adv-x="340" d="M93 817q7 -35 23.5 -44t38.5 -9q21 0 45 13t40 50q8 17 15.5 22t18.5 5q8 0 14 -2t12 -5q-36 -125 -149 -125q-58 0 -84.5 30.5t-24.5 95.5q13 5 21 5q18 0 22 -8.5t8 -27.5z" />
<glyph horiz-adv-x="340" d="M163 -175q-8 -12 -18 -19t-25 -7q-13 0 -18 4l56 109q10 19 21 30t31 11q9 0 15.5 -2.5t12.5 -6.5z" />
<glyph horiz-adv-x="340" d="M179 542q-4 -16 -17 -25.5t-30 -9.5h-7l23 140q2 11 4 22.5t7 20.5t13.5 14.5t23.5 5.5q3 0 7.5 -0.5t10.5 -2.5z" />
<glyph horiz-adv-x="340" d="M163 -175q-8 -12 -18 -19t-25 -7q-13 0 -18 4l56 109q10 19 21 30t31 11q9 0 15.5 -2.5t12.5 -6.5z" />
<glyph horiz-adv-x="340" d="M177 648q8 12 18 19t25 7q13 0 18 -4l-56 -109q-10 -19 -21 -30t-31 -11q-9 0 -15.5 2.5t-12.5 6.5z" />
</font>
</defs>
</svg>
