<?xml version="1.0" standalone="no"?>
<!DOCTYPE svg PUBLIC "-//W3C//DTD SVG 1.1//EN" "http://www.w3.org/Graphics/SVG/1.1/DTD/svg11.dtd" >
<svg xmlns="http://www.w3.org/2000/svg">
<metadata></metadata>
<defs>
<font id="focobold" horiz-adv-x="370" >
<font-face units-per-em="1000" ascent="800" descent="-200" />
<missing-glyph horiz-adv-x="230" />
<glyph unicode="ff" horiz-adv-x="660" d="M672 572q-17 17 -42.5 28t-57.5 11q-38 0 -60.5 -20t-22.5 -68v-47h160v-103h-160v-373h-135v373h-155v-373h-135v519q0 97 51.5 147.5t146.5 50.5q41 0 79 -9.5t75 -32.5q49 42 136 42q36 0 72.5 -8t60.5 -24q25 -17 25 -42q0 -14 -12 -34t-26 -37zM354 519q0 35 8 69 q-16 11 -36 17t-44 6q-38 0 -60.5 -20t-22.5 -68v-47h155v43z" />
<glyph unicode="fi" horiz-adv-x="556" d="M492 -6q0 -1 -15 -2.5t-31 -1.5t-32 3.5t-29 13t-21 25.5t-8 41v300h-157v-373h-135v504q0 39 6 71q14 68 69.5 105t144.5 37q38 0 76 -7t64 -21q36 -19 36 -47q0 -17 -10 -38t-24 -37q-17 17 -51.5 30.5t-76.5 13.5q-48 0 -73.5 -21.5t-25.5 -80.5v-33h293v-482z" />
<glyph unicode="fl" horiz-adv-x="563" d="M499 -6q0 -1 -15 -2.5t-31 -1.5t-32 3.5t-29 13t-21 25.5t-8 41v524q-31 13 -73 13t-66.5 -21t-24.5 -77v-36h117v-103h-117v-373h-135v508q0 23 2.5 44.5t7.5 38.5q18 60 76.5 93t139.5 33q65 0 116 -12t93 -31v-680z" />
<glyph unicode="ffi" horiz-adv-x="850" d="M786 -6q0 -1 -15 -2.5t-31 -1.5t-32 3.5t-29 13t-21 25.5t-8 41v300h-157v-373h-135v373h-159v-373h-135v519q0 97 51.5 147.5t146.5 50.5q36 0 77.5 -9.5t83.5 -35.5q59 45 155 45q38 0 76 -7t64 -21q36 -19 36 -47q0 -17 -10 -38t-24 -37q-17 17 -51.5 30.5t-76.5 13.5 q-48 0 -73.5 -21.5t-25.5 -80.5v-33h293v-482zM358 504q0 43 9 81q-17 12 -38 19t-47 7q-38 0 -60.5 -20t-22.5 -68v-47h159v28z" />
<glyph unicode="ffl" horiz-adv-x="856" d="M792 -6q0 -1 -15 -2.5t-31 -1.5t-32 3.5t-29 13t-21 25.5t-8 41v524q-31 13 -73 13t-66.5 -21t-24.5 -77v-36h117v-103h-117v-373h-135v373h-158v-373h-135v519q0 97 51.5 147.5t146.5 50.5q35 0 78.5 -9t85.5 -35q30 21 69.5 32.5t87.5 11.5q65 0 116 -12t93 -31v-680z M199 476h158v32q0 21 1.5 41t6.5 37q-17 11 -37.5 18t-45.5 7q-38 0 -60.5 -20t-22.5 -68v-47z" />
<glyph unicode="&#xd;" horiz-adv-x="180" />
<glyph unicode=" "  horiz-adv-x="230" />
<glyph unicode="&#x09;" horiz-adv-x="230" />
<glyph unicode="&#xa0;" horiz-adv-x="230" />
<glyph unicode="!" horiz-adv-x="281" d="M215 59q0 -32 -20.5 -53t-54.5 -21q-33 0 -53.5 21t-20.5 53t20.5 52.5t53.5 20.5t54 -20.5t21 -52.5zM205 189q-7 -1 -15 -2q-7 -1 -15 -1.5t-16 -0.5q-16 0 -32 4t-29 14t-21 26.5t-8 41.5v397q7 1 15 2q7 1 15 1.5t16 0.5q16 0 32 -3.5t29 -12.5t21 -24.5t8 -40.5 v-402z" />
<glyph unicode="&#x22;" horiz-adv-x="351" d="M231 678l12 2q6 1 13.5 2t16.5 1q29 0 43 -16t14 -43l-10 -199h-89v253zM58 678l12 2q6 1 13.5 2t16.5 1q29 0 43 -16t14 -43l-10 -199h-89v253z" />
<glyph unicode="#" horiz-adv-x="666" d="M465 181l-21 -155h-95l22 155h-118l-21 -155h-95l22 155h-128l10 74h128l18 129h-128l11 74h128l21 148h94l-21 -148h118l21 148h94l-22 -148h134l-10 -74h-133l-19 -129h133l-10 -74h-133zM400 384h-119l-18 -129h118z" />
<glyph unicode="$" horiz-adv-x="561" d="M98 154q13 -11 29 -22t35.5 -20.5t42.5 -15.5t49 -6q20 0 39 4.5t33.5 14.5t23.5 27t9 41t-8.5 41t-23.5 30t-35.5 22t-45.5 16q-36 10 -69 24.5t-58.5 37t-40.5 54.5t-15 77q0 71 40.5 116.5t102.5 63.5v100h61v-89q5 0 11 0.5t12 0.5h10t10 -1v89h61v-98 q31 -8 52.5 -17.5t31.5 -16.5q26 -17 26 -44q0 -12 -10 -33t-28 -41q-23 20 -61 37.5t-80 17.5q-17 0 -35 -3t-33 -11t-24.5 -22.5t-9.5 -36.5q0 -21 7 -35t21.5 -24.5t37 -20t53.5 -19.5q36 -12 67.5 -28t55.5 -39t38 -54t14 -73q0 -72 -33 -121t-90 -73v-108h-61v92 q-11 -2 -21.5 -3t-21.5 -2v-87h-61v90q-47 5 -77.5 16.5t-45.5 21.5q-11 8 -18.5 19t-7.5 25q0 16 13 41t28 45z" />
<glyph unicode="%" horiz-adv-x="832" d="M362 509q0 -85 -44 -131t-116 -46q-76 0 -118.5 46t-42.5 131t45 130t115 45q74 0 117.5 -45t43.5 -130zM262 510q0 45 -13 71.5t-48 26.5q-34 0 -46.5 -27t-12.5 -72q0 -46 13 -73.5t46 -27.5q35 0 48 27.5t13 74.5zM791 160q0 -85 -44 -131t-116 -46q-75 0 -118 46 t-43 131q0 42 12 75t33.5 55t50.5 33.5t64 11.5q75 0 118 -45t43 -130zM691 161q0 45 -13 71.5t-48 26.5q-33 0 -46 -27t-13 -72q0 -46 13 -73.5t46 -27.5q36 0 48.5 27.5t12.5 74.5zM269 0h-111l378 627q15 25 30 40.5t47 15.5q14 0 24.5 -1t18.5 -3q9 -2 17 -4z" />
<glyph unicode="&#x26;" horiz-adv-x="735" d="M691 13q-34 -20 -72 -20q-49 0 -78.5 21t-54.5 56q-35 -38 -84 -61.5t-125 -23.5q-62 0 -106 16.5t-71.5 44.5t-40.5 65.5t-13 78.5q0 46 15.5 83t39.5 64.5t53.5 47t58.5 31.5q-19 26 -29 50.5t-10 61.5q0 36 15 64t41 48t61 30.5t76 10.5q45 0 75.5 -8.5t50.5 -21.5 q37 -23 37 -47q0 -18 -11 -36.5t-26 -37.5q-31 26 -55 36.5t-48 10.5q-34 0 -52 -16.5t-18 -46.5q0 -20 8.5 -39.5t22.5 -36.5l141 -181q18 37 24 82.5t6 90.5h192v-85h-88q-6 -103 -57 -178zM286 91q41 0 70.5 16t57.5 46l-142 178q-19 -8 -36.5 -20t-31 -29t-21.5 -38.5 t-8 -48.5q0 -47 29 -75.5t82 -28.5z" />
<glyph unicode="'" horiz-adv-x="189" d="M47 678l12 2q6 1 13.5 2t16.5 1q29 0 43 -16t14 -43l-10 -199h-89v253z" />
<glyph unicode="(" horiz-adv-x="321" d="M51 303q0 124 33 218.5t84 145.5q47 47 100 47q15 0 25 -2.5t17 -6.5q-12 -17 -31 -48.5t-38 -80t-32.5 -116.5t-13.5 -158q0 -102 18.5 -178.5t41.5 -129.5q26 -62 60 -106q-10 -6 -22.5 -8.5t-23.5 -2.5q-26 0 -49.5 10t-49.5 35q-23 22 -44.5 55.5t-38 79.5t-26.5 107 t-10 139z" />
<glyph unicode=")" horiz-adv-x="321" d="M270 303q0 -78 -10 -139t-26.5 -107t-38 -79.5t-44.5 -55.5q-26 -25 -49.5 -35t-49.5 -10q-11 0 -23.5 2.5t-22.5 8.5q34 44 60 106q23 53 41.5 129.5t18.5 178.5q0 90 -13.5 158t-32.5 116.5t-38 80t-31 48.5q7 4 17 6.5t25 2.5q53 0 100 -47q51 -51 84 -145.5 t33 -218.5z" />
<glyph unicode="*" horiz-adv-x="411" d="M55 554q-16 8 -16 27q0 11 7 24q14 24 33 24q7 0 14 -4t21 -16l32 -29q18 -16 18 -29q0 -6 -3 -12q-4 -7 -9 -9t-11 -2q-5 0 -11 1t-11 3l-38 12l-13.5 4.5t-12.5 5.5zM93 401q-8 -5 -17 -5q-18 0 -32 23q-8 13 -8 26q0 17 14 25q5 2 10 4.5t15 5.5l41 13q13 5 21 5 q15 0 22 -13q3 -6 3 -11q0 -8 -5.5 -15t-12.5 -13l-30 -27q-4 -5 -10 -10.5t-11 -7.5zM247 360q0 -13 -9 -23t-31 -10q-21 0 -31 8.5t-10 21.5q0 10 4 27l9 42q3 16 9 24.5t19 8.5q14 0 19 -10t7 -22l9 -40q2 -5 3.5 -13.5t1.5 -13.5zM318 403q-5 2 -11 7.5t-10 10.5l-31 27 q-7 6 -12 12.5t-5 14.5q0 6 3 12q7 13 22 13q8 0 21 -5l41 -13q9 -3 14.5 -5.5t10.5 -4.5q14 -8 14 -24q0 -12 -9 -27q-7 -12 -15.5 -17t-16.5 -5q-9 0 -16 4zM358 553q-5 -3 -13 -5.5t-13 -4.5l-39 -12q-5 -2 -11 -3t-11 -1q-6 0 -11 2t-9 9q-3 6 -3 13q0 8 5 14t14 14 l31 29q10 9 18.5 14.5t17.5 5.5q18 0 32 -24q8 -14 8 -24q0 -9 -4.5 -16t-11.5 -11zM248 672q0 -5 -1.5 -13.5t-3.5 -13.5l-9 -40q-2 -12 -7 -22t-19 -10q-13 0 -19 8.5t-9 24.5l-9 42q-4 17 -4 27q0 13 10 21.5t31 8.5q22 0 31 -10t9 -23z" />
<glyph unicode="+" horiz-adv-x="549" d="M338 279v-169h-117v168h-160v113h160v171h117v-171h160v-112h-160z" />
<glyph unicode="," horiz-adv-x="241" d="M120 131q38 0 57 -27t19 -65q0 -27 -9 -57t-25 -54.5t-37 -41t-45 -16.5q-17 0 -30.5 8.5t-19.5 25.5q20 9 40.5 30t22.5 51q-14 11 -28.5 29t-14.5 50q0 24 17.5 45.5t52.5 21.5z" />
<glyph unicode="-" horiz-adv-x="456" d="M137 228q-72 0 -72 63q0 22 3 43h250q33 0 54 -11t21 -52q0 -11 -0.5 -21.5t-1.5 -21.5h-254z" />
<glyph unicode="." horiz-adv-x="248" d="M198 60q0 -32 -20 -53.5t-54 -21.5q-33 0 -53.5 21.5t-20.5 53.5t21 52.5t53 20.5t53 -20.5t21 -52.5z" />
<glyph unicode="/" horiz-adv-x="400" d="M133 0h-127l240 616q11 27 30.5 42.5t54.5 15.5q14 0 24.5 -1t18.5 -3q9 -2 17 -4z" />
<glyph unicode="0" horiz-adv-x="549" d="M521 327q0 -164 -60 -253t-186 -89t-187 86t-61 256q0 79 15.5 142.5t47 108.5t79 69t110.5 24q65 0 111 -23.5t75 -67.5t42.5 -108t13.5 -145zM386 327q0 66 -7.5 111.5t-21.5 73t-34.5 40t-46.5 12.5t-47 -12.5t-35.5 -40t-22 -73t-7.5 -111.5q0 -65 7.5 -110t22 -72.5 t35.5 -40t47 -12.5t46.5 12t34.5 39.5t21.5 72.5t7.5 111z" />
<glyph unicode="1" horiz-adv-x="549" d="M260 0v505l-131 -66q-14 19 -27.5 41t-13.5 41q0 12 7.5 24t24.5 21l142 74q20 10 38.5 17.5t38.5 7.5t34 -5.5t22 -10.5v-649h-135z" />
<glyph unicode="2" horiz-adv-x="549" d="M54 0v96q19 15 44 37t52.5 48t56 54.5t54.5 57.5q39 43 62.5 85.5t23.5 86.5q0 27 -8.5 45t-22 28.5t-30.5 15t-35 4.5q-50 0 -89 -23t-70 -52q-20 23 -33.5 44t-13.5 35q0 12 7 22t17 18t27.5 20t42 23t57 18.5t71.5 7.5q45 0 85 -11t69 -34t46 -60.5t17 -89.5 q0 -37 -12 -72.5t-31.5 -69.5t-44.5 -65t-52 -59q-28 -29 -55 -55.5t-50 -46.5h191q24 0 39.5 -6.5t25 -17t13.5 -23t4 -25.5q0 -11 -0.5 -19t-1.5 -17h-456z" />
<glyph unicode="3" horiz-adv-x="549" d="M482 192q0 -45 -14.5 -83.5t-44.5 -66.5t-75.5 -43.5t-106.5 -15.5q-39 0 -69 4.5t-52.5 11.5t-38 15t-25.5 14q-14 8 -22 20t-8 25q0 29 41 89q11 -11 27.5 -24t37.5 -23.5t46 -17.5t54 -7q22 0 42 5.5t35.5 18.5t25 33t9.5 49q0 33 -13 53t-31 30t-37.5 13t-32.5 3h-51 v101h51q13 0 30 4t32 13.5t25.5 27t10.5 44.5q0 40 -24.5 58.5t-70.5 18.5q-26 0 -47.5 -6t-40.5 -15.5t-35.5 -21t-31.5 -23.5q-20 18 -33 40t-13 36t8 23.5t17 17.5q10 8 27.5 18t42 19t56 15t71.5 6q56 0 96 -13t66 -35.5t38.5 -53t12.5 -66.5q0 -35 -10.5 -61 t-26.5 -44.5t-33.5 -30t-30.5 -17.5q16 -6 36 -16.5t38 -28.5t30 -45.5t12 -67.5z" />
<glyph unicode="4" horiz-adv-x="549" d="M38 159v91l254 352q15 21 38.5 41t61.5 20q13 0 30 -4.5t25 -10.5v-390h31q29 0 40.5 -13t11.5 -35q0 -9 -1 -17.5t-2 -16.5q-1 -9 -2 -17h-78v-159h-136v159h-273zM311 261v222l-165 -222h165z" />
<glyph unicode="5" horiz-adv-x="549" d="M211 551l-14 -128q14 3 35 6.5t42 3.5q49 0 89.5 -12.5t70 -39t45.5 -67t16 -96.5q0 -48 -15 -90t-45.5 -74t-77 -50.5t-109.5 -18.5q-42 0 -74 5.5t-55 13t-38 15.5t-22 14q-10 7 -18 17.5t-8 23.5t11.5 37.5t31.5 53.5q11 -11 28 -23t38.5 -22.5t47 -17.5t54.5 -7 q21 0 41.5 6.5t36.5 20.5t25.5 36t9.5 53q0 38 -12.5 61t-31.5 35.5t-41 16.5t-40 4q-33 0 -60.5 -6t-51.5 -17l-47 20l35 338h359q2 -11 2.5 -18.5t0.5 -18.5q0 -35 -18 -55t-67 -20h-174z" />
<glyph unicode="6" horiz-adv-x="549" d="M509 231q0 -61 -18 -107t-49 -77.5t-73 -47.5t-91 -16q-61 0 -106 20.5t-74.5 58.5t-44 92t-14.5 121q0 102 29 176.5t75.5 123.5t105.5 72.5t119 23.5q39 0 58.5 -11.5t19.5 -48.5q0 -11 -1 -24t-3 -24q-14 2 -24.5 3t-27.5 1q-44 0 -78 -16t-58.5 -40t-41 -52.5 t-23.5 -53.5q17 14 52 28.5t81 14.5q49 0 84.5 -17.5t58 -47.5t33.5 -69.5t11 -82.5zM369 222q0 60 -20 93t-71 33q-15 0 -29.5 -3.5t-27.5 -9t-23 -11.5t-16 -12q-2 -12 -3 -26t-1 -31q0 -27 3.5 -56t14.5 -53t31 -39.5t53 -15.5q40 0 64.5 34t24.5 97z" />
<glyph unicode="7" horiz-adv-x="549" d="M232 0h-144l261 545h-302q-2 8 -3 17q-1 8 -1.5 17t-0.5 17q0 30 19 48.5t61 18.5h333q29 0 40 -9.5t11 -35.5v-40z" />
<glyph unicode="8" horiz-adv-x="549" d="M508 188q0 -54 -18.5 -93t-50.5 -64t-76 -36.5t-95 -11.5q-113 0 -176 48t-63 150q0 62 33 104.5t82 58.5q-46 20 -70 61t-24 86q0 44 17.5 77.5t47.5 56.5t69.5 34.5t83.5 11.5q45 0 84.5 -10.5t69 -32t47 -55t17.5 -78.5q0 -47 -23.5 -87.5t-68.5 -63.5 q56 -17 85 -58.5t29 -97.5zM371 189q0 49 -26 76t-77 27q-50 0 -76.5 -27.5t-26.5 -75.5q0 -52 27.5 -77.5t75.5 -25.5q47 0 75 25.5t28 77.5zM354 492q0 42 -24.5 63.5t-61.5 21.5t-61 -22.5t-24 -63.5q0 -43 23.5 -69t61.5 -26t62 25.5t24 70.5z" />
<glyph unicode="9" horiz-adv-x="549" d="M36 426q0 60 17.5 106t48 77t72.5 46.5t91 15.5q60 0 105 -20.5t75 -58t45 -91.5t15 -120q0 -102 -27.5 -177t-73.5 -124t-105.5 -73t-122.5 -24q-16 0 -30 2.5t-24.5 9t-17 18t-6.5 28.5q0 11 1.5 25.5t3.5 25.5q22 -3 43 -3q52 0 88.5 15t61 38.5t38 51.5t18.5 55 q-17 -17 -49.5 -29t-74.5 -12q-50 0 -86 18.5t-59.5 48.5t-35 69.5t-11.5 81.5zM175 432q0 -60 22 -93.5t73 -33.5q34 0 57.5 11.5t34.5 22.5q2 12 3 28t1 33q0 27 -4 56t-15 53t-31 39.5t-52 15.5q-40 0 -64.5 -34.5t-24.5 -97.5z" />
<glyph unicode=":" horiz-adv-x="248" d="M198 60q0 -32 -20 -53.5t-54 -21.5q-33 0 -53.5 21.5t-20.5 53.5t21 52.5t53 20.5t53 -20.5t21 -52.5zM198 438q0 -32 -20 -53.5t-54 -21.5q-33 0 -53.5 21.5t-20.5 53.5t21 52.5t53 20.5t53 -20.5t21 -52.5z" />
<glyph unicode=";" horiz-adv-x="252" d="M120 131q38 0 57 -27t19 -65q0 -27 -9 -57t-25 -54.5t-37 -41t-45 -16.5q-17 0 -30.5 8.5t-19.5 25.5q20 9 40.5 30t22.5 51q-14 11 -28.5 29t-14.5 50q0 24 17.5 45.5t52.5 21.5zM207 438q0 -32 -20 -53.5t-54 -21.5q-33 0 -53.5 21.5t-20.5 53.5t21 52.5t53 20.5 t53 -20.5t21 -52.5z" />
<glyph unicode="&#x3c;" horiz-adv-x="549" d="M489 95l-430 180v108l430 175v-117l-278 -110l278 -114v-122z" />
<glyph unicode="=" horiz-adv-x="549" d="M55 169v113h439v-113h-439zM55 379v113h439v-113h-439z" />
<glyph unicode="&#x3e;" horiz-adv-x="549" d="M59 217l278 114l-278 110v117l430 -175v-108l-430 -180v122z" />
<glyph unicode="?" horiz-adv-x="461" d="M215 681q43 0 81.5 -10.5t67 -32t45 -53.5t16.5 -75q0 -32 -8 -56.5t-21 -45t-29.5 -36.5t-33.5 -31q-32 -26 -55.5 -52.5t-23.5 -64.5q0 -8 1 -17t3 -18q-6 -2 -15 -2.5t-17 -0.5q-37 0 -60.5 19t-23.5 58q0 35 18.5 61t42.5 49q15 14 29.5 27.5t26 28t18.5 30.5t7 35 q0 45 -27 63.5t-65 18.5q-40 0 -73 -17.5t-56 -35.5q-15 15 -28.5 32t-13.5 36q0 14 11 26.5t28 23.5q27 17 67.5 28.5t87.5 11.5zM279 59q0 -32 -20 -53t-54 -21t-54.5 21t-20.5 53t20.5 52.5t54.5 20.5q32 0 53 -20.5t21 -52.5z" />
<glyph unicode="@" horiz-adv-x="797" d="M508 63q-21 -6 -42 -6q-38 0 -58 18t-20 60v75q-20 0 -53 -2.5t-64.5 -14.5t-54.5 -36t-23 -67q0 -17 6.5 -38t25.5 -40t53.5 -31.5t90.5 -12.5q63 0 112.5 17.5t84 54t53 93t18.5 133.5q0 70 -22 122.5t-62 87t-95 52t-122 17.5q-48 0 -89.5 -9t-74.5 -21.5t-57.5 -27.5 t-38.5 -27q-15 11 -27.5 30t-12.5 31q0 9 5.5 18t19.5 20q18 13 45 26.5t63 25t79.5 18.5t94.5 7q98 0 172 -28.5t123 -78t73.5 -116.5t24.5 -145q0 -87 -24.5 -158.5t-72.5 -123t-118.5 -79.5t-161.5 -28q-72 0 -125 15.5t-87.5 43.5t-51 66.5t-16.5 84.5q0 41 14.5 71 t38 51.5t53.5 35.5t61.5 21.5t62 10.5t54.5 3h11.5t10.5 -1q0 40 -19.5 65.5t-69.5 25.5q-45 0 -78.5 -14.5t-58.5 -29.5q-14 15 -21 31t-7 27t7.5 20.5t29.5 20.5q25 13 62 21.5t84 8.5q86 0 135.5 -41.5t49.5 -128.5v-105q0 -29 1 -56.5t8 -62.5z" />
<glyph unicode="A" horiz-adv-x="633" d="M485 0l-57 164h-231l-55 -164h-136l232 660q12 5 33.5 9.5t46.5 4.5q11 0 24.5 -2t26.5 -8.5t24.5 -18.5t18.5 -33l215 -612h-142zM314 549l-91 -285h179z" />
<glyph unicode="B" horiz-adv-x="584" d="M548 196q0 -58 -19.5 -95.5t-56 -60t-87.5 -31.5t-114 -9h-202v665q51 5 96.5 8t87.5 3q75 0 126 -11.5t81.5 -33.5t43.5 -54t13 -72q0 -33 -9.5 -58t-24.5 -44t-33 -31t-34 -18q18 -5 41 -14.5t43 -27.5t34 -46.5t14 -69.5zM262 99q34 0 61 4t46 15.5t29 31t10 51.5 q0 54 -36 76.5t-93 22.5h-73v-201h56zM377 497q0 47 -32.5 65t-87.5 18q-19 0 -31 -1t-20 -2v-186h66q49 0 77 29.5t28 76.5z" />
<glyph unicode="C" horiz-adv-x="607" d="M547 38q-6 -6 -20 -15t-36.5 -18t-55 -15.5t-74.5 -6.5q-81 0 -140 26t-97.5 72.5t-56.5 110t-18 139.5t19.5 140.5t58.5 111.5t97.5 73.5t137.5 26.5q39 0 70.5 -7t55 -16.5t39 -20t23.5 -17.5q9 -8 15.5 -19t6.5 -24q0 -20 -15 -40t-33 -37q-12 12 -27 24.5t-33.5 22 t-42 16t-52.5 6.5q-51 0 -85.5 -20.5t-55.5 -53.5t-30 -75.5t-9 -86.5q0 -47 9 -90t31 -76t57.5 -53t88.5 -20q28 0 51.5 7t41.5 17t31.5 21t22.5 19q6 -7 14 -17t15 -21t12 -22t5 -20q0 -13 -5 -22t-16 -20z" />
<glyph unicode="D" horiz-adv-x="643" d="M601 346q0 -71 -19 -134t-58 -110t-99 -74.5t-143 -27.5h-213v664q64 8 109.5 10t78.5 2q100 0 166 -26.5t105.5 -71.5t56 -105t16.5 -127zM461 344q0 47 -9 88t-31 71.5t-59.5 48t-94.5 17.5q-29 0 -60 -3v-461h55q59 0 97.5 17.5t61 49t31.5 75.5t9 97z" />
<glyph unicode="E" horiz-adv-x="525" d="M421 106q24 0 40 -6t25.5 -16t13.5 -23t4 -26q0 -11 -0.5 -18.5t-1.5 -16.5h-433v670h417q2 -11 2.5 -18.5t0.5 -18.5q0 -35 -18 -52.5t-67 -17.5h-197v-165h212v-107h-212v-185h214z" />
<glyph unicode="F" horiz-adv-x="508" d="M206 407h215v-107h-215v-300h-137v670h420q2 -11 2.5 -18.5t0.5 -18.5q0 -30 -17.5 -50t-63.5 -20h-205v-156z" />
<glyph unicode="G" horiz-adv-x="667" d="M361 262v102h243v-300q-9 -11 -28 -25t-49 -26.5t-70.5 -21t-93.5 -8.5q-81 0 -140.5 26.5t-98 73t-57 111t-18.5 140.5q0 75 19.5 138.5t59.5 110.5t101 73.5t144 26.5q41 0 79 -9.5t67.5 -24.5t47.5 -33.5t18 -37.5q0 -17 -14.5 -38t-34.5 -38q-12 11 -27.5 23t-35 22 t-44 16.5t-54.5 6.5q-54 0 -90 -20t-57 -52.5t-30 -74.5t-9 -87q0 -48 9.5 -92t31 -77.5t58 -54t90.5 -20.5q26 0 44 4t30 9q14 6 23 14v143h-114z" />
<glyph unicode="H" horiz-adv-x="654" d="M201 398h252v271q8 1 17 2q8 1 16.5 2t16.5 1q13 0 28.5 -3t28.5 -11.5t21.5 -23.5t8.5 -40v-596h-137v290h-252v-290h-137v669l18 2q8 1 15.5 2t14.5 1q15 0 30.5 -3t28.5 -11.5t21.5 -23.5t8.5 -40v-198z" />
<glyph unicode="I" horiz-adv-x="265" d="M201 0h-137v669q8 1 17 2q8 1 15.5 2t14.5 1q14 0 29.5 -3t29 -11t22.5 -23.5t9 -40.5v-596z" />
<glyph unicode="J" horiz-adv-x="266" d="M202 77q0 -38 -5.5 -86t-25 -90.5t-58.5 -72t-106 -29.5q-35 0 -50 13t-19 42q-2 11 -2 22.5v22.5q29 1 53 7.5t40.5 20t25.5 36t9 57.5v649l18 2q8 1 15.5 2t14.5 1q14 0 30 -3t29.5 -11t22 -23.5t8.5 -39.5v-520z" />
<glyph unicode="K" horiz-adv-x="588" d="M255 231q-19 24 -33 51.5t-16 57.5v-340h-137v669q8 1 17 2q8 1 15.5 2t14.5 1q14 0 29.5 -3t29 -11t22.5 -23.5t9 -40.5v-244q2 25 13.5 46.5t27.5 41.5l137 180q23 30 46 42t49 12t47 -8.5t34 -21.5l-221 -295l249 -337q-20 -12 -40 -17.5t-39 -5.5q-67 0 -107 52z" />
<glyph unicode="L" horiz-adv-x="504" d="M69 669l18 2q8 1 15.5 2t14.5 1q14 0 29.5 -3t29 -11t22.5 -23.5t9 -40.5v-485h195q24 0 40 -6t25 -16t12.5 -23t3.5 -26q0 -10 -0.5 -25t-1.5 -15h-412v669z" />
<glyph unicode="M" horiz-adv-x="806" d="M170 674q33 0 51 -15.5t29 -40.5l152 -358l153 354q14 32 35 46t48 14q21 0 40 -2.5t29 -6.5l48 -665h-130l-31 444l-136 -304h-115l-132 291l-29 -431h-131l49 665q10 3 29.5 6t40.5 3z" />
<glyph unicode="N" horiz-adv-x="660" d="M465 208v461l16 2l14 2t14 1q14 0 29.5 -3t28 -11t21 -23.5t8.5 -40.5v-596h-116l-285 440v-440h-131v668q10 2 27 4t34 2q32 0 50 -11t32 -34z" />
<glyph unicode="O" horiz-adv-x="704" d="M655 337q0 -72 -17 -136.5t-54 -113t-95 -76.5t-140 -28q-81 0 -138 28.5t-93 77t-52.5 112.5t-16.5 135q0 70 18 133t56 110.5t96 75.5t138 28q79 0 135.5 -27t92.5 -73.5t53 -109.5t17 -136zM514 336q0 48 -8 91t-27 75.5t-49 51.5t-74 19q-46 0 -77.5 -19t-51 -51.5 t-28 -75.5t-8.5 -91t8.5 -92t27.5 -78t50 -54t76 -20t76 20t49.5 54t27 78t8.5 92z" />
<glyph unicode="P" horiz-adv-x="553" d="M528 473q0 -65 -22 -110t-59.5 -72.5t-87 -39.5t-104.5 -12h-48v-239h-138v666q45 5 92 7.5t85 2.5q146 0 214 -51.5t68 -151.5zM388 466q0 61 -36 87t-92 26q-32 0 -54 -3v-240h33q73 0 111 28.5t38 101.5z" />
<glyph unicode="Q" horiz-adv-x="705" d="M345 -73q8 12 22.5 21.5t33.5 9.5q26 0 45.5 -12t43 -27t55 -28t81.5 -15q-1 -36 -19 -59t-56 -23q-31 0 -63 13t-60 32.5t-50 43t-33 44.5zM656 337q0 -72 -17.5 -136.5t-54.5 -113t-95 -76.5t-139 -28t-138 28.5t-93.5 77t-53 112.5t-16.5 135q0 70 18.5 133 t56.5 110.5t96 75.5t138 28q79 0 135.5 -27t92.5 -73.5t53 -109.5t17 -136zM515 336q0 48 -8 91t-27 75.5t-49 51.5t-74 19q-47 0 -78.5 -19t-51 -51.5t-28 -75.5t-8.5 -91t8.5 -92t27.5 -78t50.5 -54t76.5 -20t76 20t49.5 54t27 78t8.5 92z" />
<glyph unicode="R" horiz-adv-x="575" d="M526 478q0 -41 -10.5 -73.5t-28.5 -56.5t-41 -40t-47 -25l165 -276q-19 -8 -40 -12.5t-40 -4.5q-37 0 -62 16t-46 52l-114 194h-55v-252h-138v666q45 5 92 7.5t85 2.5q145 0 212.5 -49t67.5 -149zM382 465q0 63 -33 88.5t-90 25.5q-18 0 -31 -1t-22 -2v-231h47 q59 0 94 29.5t35 90.5z" />
<glyph unicode="S" horiz-adv-x="518" d="M67 154q14 -11 31 -22.5t37.5 -21t44.5 -15.5t52 -6q21 0 41 5t35.5 15.5t25.5 27.5t10 42q0 26 -11 44t-29 30.5t-41.5 21.5t-49.5 18q-32 11 -64.5 24t-58.5 34t-42.5 53.5t-16.5 82.5q0 48 19 85t52 61.5t76 37t91 12.5q33 0 61.5 -5t51 -12t38 -14.5t23.5 -13.5 q28 -17 28 -45q0 -12 -10.5 -32.5t-29.5 -40.5q-25 20 -65 38t-84 18q-18 0 -37 -3.5t-34.5 -12t-25.5 -23t-10 -37.5q0 -21 10 -36.5t27 -27t39.5 -20.5t46.5 -18q32 -12 65 -25.5t60 -35.5t44 -54.5t17 -81.5q0 -53 -18.5 -93.5t-51.5 -68.5t-79.5 -42t-101.5 -14 q-71 0 -116 14.5t-65 26.5q-12 8 -20 19t-8 25q0 17 13.5 41t29.5 45z" />
<glyph unicode="T" horiz-adv-x="570" d="M218 558h-209v1q-2 12 -2.5 20t-0.5 19q0 27 19.5 49.5t65.5 22.5h470q3 -21 3 -43q0 -13 -4 -25.5t-14 -22t-25.5 -15.5t-38.5 -6h-126v-558h-138v558z" />
<glyph unicode="U" horiz-adv-x="647" d="M201 261q0 -36 4.5 -65t18 -49.5t37.5 -32t63 -11.5q68 0 95 39.5t27 110.5v416l18 2q8 1 15.5 2t14.5 1q14 0 29.5 -3t29 -11.5t22 -23.5t8.5 -40v-326q0 -20 -1 -40t-3 -41q-4 -42 -20.5 -79.5t-48 -65t-78.5 -43.5t-111 -16q-65 0 -110 14t-75 40.5t-46 65t-22 88.5 q-2 18 -3 37t-1 40v399q8 1 17 2q8 1 15.5 2t14.5 1q15 0 30.5 -3t29 -11.5t22 -23.5t8.5 -40v-335z" />
<glyph unicode="V" horiz-adv-x="617" d="M383 -5h-152l-225 669q10 4 30.5 7t43.5 3q38 0 60.5 -19t33.5 -55l137 -455l140 458q11 35 32.5 53t59.5 18q16 0 32 -2.5t36 -7.5z" />
<glyph unicode="W" horiz-adv-x="897" d="M676 -5h-113l-113 350l-109 -350h-112l-223 666q12 5 34.5 9t38.5 4q37 0 57.5 -16.5t30.5 -48.5l130 -428l98 314l-46 170q19 4 35.5 6.5t30.5 2.5q38 0 57.5 -17t28.5 -49l118 -416l113 408q9 32 30 53t58 21q23 0 40 -3.5t31 -7.5z" />
<glyph unicode="X" horiz-adv-x="582" d="M289 221l-128 -221h-150l198 334l-176 318q20 9 42 15.5t45 6.5q54 0 80 -49l97 -181l99 170q18 32 38.5 46t54.5 14q21 0 37.5 -5t35.5 -15l-186 -315l195 -335q-19 -7 -40.5 -11t-38.5 -4q-40 0 -61.5 16t-38.5 45z" />
<glyph unicode="Y" horiz-adv-x="578" d="M357 257v-257h-137v253l-214 401q17 8 40 14t43 6q36 0 53.5 -14t31.5 -40l117 -233l117 231q12 24 32 40t56 16q23 0 40 -4t36 -11z" />
<glyph unicode="Z" horiz-adv-x="556" d="M21 0v92l336 471h-333v1q-1 10 -1.5 18t-0.5 19q0 28 19 48.5t64 20.5h368q26 0 37 -9.5t11 -32.5v-50l-338 -472h268q24 0 40.5 -6t26 -16t13.5 -22.5t4 -25.5q0 -11 -0.5 -19t-1.5 -17h-512z" />
<glyph unicode="[" horiz-adv-x="319" d="M64 -136v853h230v-99h-107v-656h107v-98h-230z" />
<glyph unicode="\" horiz-adv-x="400" d="M9 666q8 2 17 4q8 2 18.5 3t24.5 1q35 0 54.5 -15.5t30.5 -42.5l240 -616h-127z" />
<glyph unicode="]" horiz-adv-x="319" d="M25 -136v98h107v656h-107v99h230v-853h-230z" />
<glyph unicode="^" horiz-adv-x="585" d="M408 284l-115 277l-115 -277h-116l167 383h135l159 -383h-115z" />
<glyph unicode="_" horiz-adv-x="472" d="M24 -180v80h424v-80h-424z" />
<glyph unicode="`" horiz-adv-x="382" d="M106 679q13 11 35.5 22t40.5 11q21 0 35.5 -9.5t28.5 -28.5l82 -116q-9 -8 -28 -14t-33 -6q-33 0 -56 26z" />
<glyph unicode="a" horiz-adv-x="517" d="M453 116q0 -79 23 -115q-18 -7 -33.5 -10t-32.5 -3q-36 0 -54.5 14t-23.5 40q-22 -23 -58 -39t-88 -16q-27 0 -54 7.5t-49 24.5t-36 45.5t-14 69.5q0 51 24.5 83t61.5 50.5t80 25.5t79 9q12 1 23.5 1h21.5v18q0 38 -20.5 54t-66.5 16q-43 0 -76.5 -14t-65.5 -32 q-14 17 -22.5 37.5t-8.5 30.5q0 14 15.5 27t42.5 23.5t62 17t74 6.5q54 0 91.5 -11t61 -34t33.5 -57.5t10 -80.5v-188zM325 232h-14t-14 -1q-25 -2 -49.5 -6t-43.5 -14t-31 -26t-12 -41q0 -28 16 -47.5t54 -19.5q19 0 36 5t30 13t20.5 17.5t7.5 17.5v102z" />
<glyph unicode="b" horiz-adv-x="561" d="M200 443q15 15 44 29.5t75 14.5q39 0 74.5 -11.5t63 -39.5t44 -73.5t16.5 -113.5q0 -78 -18 -129t-46.5 -80.5t-64 -41.5t-71.5 -12q-32 0 -55.5 7.5t-39 16.5t-24 17.5t-10.5 11.5q0 -16 -8 -27.5t-28 -11.5h-88v705q0 1 15 2.5t31 1.5t32.5 -3t29 -12t20.5 -24.5 t8 -40.5v-186zM375 247q0 31 -5 57.5t-16.5 45.5t-31 30t-47.5 11q-42 0 -58.5 -16t-16.5 -36v-217q8 -8 28.5 -19.5t51.5 -11.5q51 0 73 40.5t22 115.5z" />
<glyph unicode="c" horiz-adv-x="472" d="M303 86q22 0 40 5t32 12.5t24 16t15 14.5q11 -12 22.5 -35t11.5 -39q0 -10 -4 -19.5t-17 -19.5q-19 -14 -54 -26t-89 -12q-36 0 -78 10t-78 38t-60 77.5t-24 129.5q0 76 25 124t62 76t78.5 38.5t74.5 10.5q41 0 76 -9t58 -24q19 -12 26.5 -23t7.5 -26q0 -14 -9 -34.5 t-23 -37.5q-16 17 -47 34t-69 17q-66 0 -94 -40.5t-28 -103.5q0 -32 6 -60t20.5 -49t37.5 -33t57 -12z" />
<glyph unicode="d" horiz-adv-x="559" d="M406 0q-17 0 -27 11.5t-10 29.5q-14 -17 -47.5 -35t-85.5 -18q-37 0 -71.5 12t-61.5 40t-43 74.5t-16 115.5t16.5 118t44 79.5t63 45t74.5 14.5q45 0 74 -15.5t43 -30.5v264q0 1 15 2.5t31 1.5t32.5 -3t29 -12t20.5 -24.5t8 -40.5v-629h-89zM184 237q0 -35 5 -63.5 t17 -48.5t32 -31t51 -11q29 0 49.5 12t20.5 34v225q-8 8 -27.5 19t-45.5 11q-52 0 -77 -38t-25 -109z" />
<glyph unicode="e" horiz-adv-x="514" d="M310 85q25 0 44 5.5t34 13.5t26 17.5t20 17.5q12 -15 25 -38.5t13 -38.5q0 -22 -25 -40q-21 -16 -59.5 -27.5t-90.5 -11.5q-47 0 -92.5 12t-81 42t-57.5 80.5t-22 127.5q0 63 19.5 108.5t52 75.5t73.5 44t84 14q56 0 95 -17.5t63.5 -47t35.5 -67.5t11 -80v-14t-0.5 -17 t-1 -17.5t-1.5 -13.5h-294q4 -55 34 -91.5t95 -36.5zM355 288q0 48 -18.5 78t-66.5 30q-41 0 -65.5 -28.5t-24.5 -79.5h175z" />
<glyph unicode="f" d="M382 572q-17 17 -42.5 28t-57.5 11q-38 0 -60.5 -20t-22.5 -68v-47h160v-103h-160v-373h-135v519q0 97 51.5 147.5t146.5 50.5q36 0 72.5 -8t60.5 -24q25 -17 25 -42q0 -14 -12 -34t-26 -37z" />
<glyph unicode="g" horiz-adv-x="553" d="M489 37q0 -59 -11.5 -107.5t-40 -83.5t-75.5 -54t-118 -19q-60 0 -98.5 9t-61.5 22q-20 11 -25.5 23t-5.5 23q0 16 13 37.5t26 38.5q7 -7 19.5 -16t30.5 -17.5t40.5 -14.5t49.5 -6q39 0 63.5 10.5t38.5 30t19.5 47.5t5.5 64v18q-14 -17 -45 -31.5t-78 -14.5 q-37 0 -71.5 11.5t-61.5 39.5t-43 73.5t-16 113.5q0 69 16.5 117t44 78.5t63 44t74.5 13.5q44 0 73 -15t45 -38q8 23 30 33t51 10q8 0 17 -0.5t16 -1.5q8 -1 15 -2v-436zM184 242q0 -70 21 -110.5t79 -40.5q35 0 55 13.5t20 35.5v214q-8 8 -27.5 19t-45.5 11 q-102 0 -102 -142z" />
<glyph unicode="h" horiz-adv-x="561" d="M361 276q0 22 -1.5 41t-8 32.5t-21 21t-40.5 7.5q-37 0 -63.5 -15.5t-26.5 -38.5v-324h-136v705q0 1 15 2.5t31 1.5t32 -3t29 -11.5t21 -24t8 -40.5v-199q8 9 20 19t29 18.5t39.5 13.5t51.5 5q71 0 105 -28t44 -74q5 -23 6.5 -50t1.5 -53v-282h-136v276z" />
<glyph unicode="i" horiz-adv-x="264" d="M200 -6q-4 -2 -18 -3t-30 -1q-20 0 -36 3.5t-27.5 13t-18 25.5t-6.5 41v400q0 1 15 2.5t31 1.5t32 -3t29 -11.5t21 -24t8 -40.5v-404zM201 633q0 -32 -21.5 -52t-51.5 -20q-31 0 -52 20t-21 52t21 52.5t52 20.5q30 0 51.5 -20.5t21.5 -52.5z" />
<glyph unicode="j" horiz-adv-x="264" d="M64 473q0 1 15 2.5t31 1.5t32 -3t29 -11.5t21 -24t8 -40.5v-382v-27.5t-1 -29.5q-3 -58 -21 -94.5t-43 -56.5t-52.5 -27.5t-49.5 -7.5q-44 0 -57 24.5t-13 65.5v8q31 2 50.5 9t31 20t15.5 32t4 45v496zM201 633q0 -32 -21.5 -52t-51.5 -20q-31 0 -52 20t-21 52t21 52.5 t52 20.5q30 0 51.5 -20.5t21.5 -52.5z" />
<glyph unicode="k" horiz-adv-x="522" d="M222 191q-8 10 -14 22.5t-8 27.5v-241h-136v705q0 1 15 2.5t31 1.5t32 -3t29 -12t21 -24.5t8 -40.5v-358q6 27 26 50l106 121q17 20 34.5 31t42.5 11q26 0 46.5 -9.5t39.5 -24.5l-163 -188l187 -248q-14 -10 -35 -17t-44 -7q-36 0 -60 11.5t-47 40.5z" />
<glyph unicode="l" horiz-adv-x="264" d="M200 -6q-5 -2 -19 -3t-31 -1t-32.5 3.5t-27.5 13t-19 25.5t-7 41v632q0 1 15 2.5t31 1.5t32 -3t29 -11.5t21 -24t8 -40.5v-636z" />
<glyph unicode="m" horiz-adv-x="832" d="M201 0h-137v473q5 1 12 2q6 1 14 1.5t19 0.5q32 0 55.5 -11.5t29.5 -40.5q17 23 52.5 42.5t94.5 19.5q56 0 83.5 -20t40.5 -47q21 26 58 46.5t94 20.5q36 0 61.5 -8t43 -22t27 -32.5t12.5 -39.5q4 -23 5.5 -50t1.5 -53v-282h-136v276q0 22 -1 40t-7.5 31t-20 20t-37.5 7 q-26 0 -49.5 -12t-32.5 -26q3 -29 3 -59v-277h-136v276q0 22 -1 41t-8 32.5t-21 21t-40 7.5q-35 0 -57.5 -15.5t-22.5 -38.5v-324z" />
<glyph unicode="n" horiz-adv-x="562" d="M201 0h-137v473q5 1 12 2q6 1 14 1.5t19 0.5q32 0 55.5 -11.5t29.5 -40.5q17 23 52.5 42.5t94.5 19.5q71 0 105 -28t44 -74q5 -23 6.5 -50t1.5 -53v-282h-136v276q0 22 -1.5 41t-8 32.5t-21 21t-40.5 7.5q-37 0 -63.5 -15.5t-26.5 -38.5v-324z" />
<glyph unicode="o" horiz-adv-x="559" d="M515 239q0 -50 -12.5 -96t-41 -81t-73.5 -56t-109 -21t-108.5 20.5t-72.5 55t-41 80t-13 95.5q0 51 15 96.5t44.5 80t74.5 54.5t105 20q63 0 107.5 -20t72 -54t40 -79t12.5 -95zM378 238q0 27 -4 53.5t-15 46.5t-30 32.5t-48 12.5t-48.5 -13t-31 -33.5t-16.5 -46.5 t-5 -53t4.5 -54t15.5 -48.5t30.5 -34.5t48.5 -13q30 0 49.5 13t30.5 34.5t15 48.5t4 55z" />
<glyph unicode="p" horiz-adv-x="561" d="M194 429q16 19 50 38.5t86 19.5q37 0 70.5 -12.5t59.5 -40.5t41.5 -74t15.5 -113q0 -78 -18 -128.5t-46.5 -80t-63.5 -41.5t-70 -12q-29 0 -50.5 6.5t-36.5 14.5t-23 16t-10 11v-251h-135v691q5 1 12 2q6 1 14 1.5t19 0.5q33 0 56 -11t29 -37zM375 244q0 30 -5 56 t-16.5 45t-31 29.5t-47.5 10.5q-42 0 -58.5 -16t-16.5 -35v-212q8 -8 28.5 -19t47.5 -11q51 0 75 40t24 112z" />
<glyph unicode="q" horiz-adv-x="559" d="M495 -218h-135v254q-15 -18 -45 -33t-75 -15q-40 0 -75.5 12.5t-62.5 41t-42.5 74.5t-15.5 113q0 74 18 123.5t47 79.5t64.5 42.5t71.5 12.5q28 0 49 -7t36 -16t24.5 -18.5t12.5 -15.5q7 23 29 35t51 12q9 0 17.5 -0.5t15.5 -1.5q8 -1 15 -2v-691zM184 234 q0 -68 23 -109.5t80 -41.5q32 0 52 12.5t20 31.5v228q-8 8 -27.5 18.5t-45.5 10.5q-52 0 -77 -39t-25 -111z" />
<glyph unicode="r" horiz-adv-x="380" d="M194 426q6 9 16 20t24.5 20t32 15t37.5 6q12 0 25.5 -2t25 -7.5t18.5 -15t7 -23.5q0 -22 -11 -50.5t-22 -48.5q-17 14 -34 21.5t-40 7.5q-31 0 -52 -18t-21 -43v-308h-136v473q5 1 12 2q6 1 14 1.5t19 0.5q32 0 55.5 -12.5t29.5 -38.5z" />
<glyph unicode="s" horiz-adv-x="430" d="M393 418q0 -15 -9.5 -35.5t-20.5 -38.5q-10 8 -24.5 16.5t-32.5 16t-37.5 12.5t-39.5 5q-11 0 -23 -1.5t-21.5 -6t-16 -13t-6.5 -22.5q0 -34 73 -50q30 -6 59.5 -15.5t53 -26.5t38 -43t14.5 -65q0 -40 -15.5 -71t-42.5 -52t-63.5 -32t-79.5 -11q-44 0 -74.5 6.5 t-50.5 15.5q-14 6 -30.5 17.5t-16.5 31.5q0 17 10 35.5t23 38.5q9 -8 22.5 -16.5t31 -16t37.5 -12.5t41 -5q13 0 27 2t24.5 8t17.5 16t7 26q0 29 -22.5 41.5t-67.5 21.5q-29 6 -56 16t-48 26.5t-33.5 41.5t-12.5 61t16 63t42.5 46t61.5 28.5t73 9.5q40 0 71.5 -6t54.5 -16 q44 -18 46 -47z" />
<glyph unicode="t" horiz-adv-x="376" d="M71 72q-7 20 -9 42t-2 44v464q7 1 15 2q7 1 15 1.5t16 0.5q16 0 32 -3t29 -12t21 -24.5t8 -40.5v-70h140v-102h-140v-214q0 -70 57 -70q14 0 26.5 4.5t22.5 10t17.5 11.5t10.5 9q15 -22 23 -38t8 -30q0 -13 -10.5 -25.5t-29.5 -23t-46 -17t-59 -6.5q-62 0 -96.5 24 t-48.5 63z" />
<glyph unicode="u" horiz-adv-x="561" d="M361 474q1 0 16 1.5t29 1.5q17 0 33.5 -4t29 -13t20.5 -24.5t8 -39.5v-396h-91q-25 0 -31.5 13.5t-6.5 39.5q-17 -23 -52.5 -42.5t-94.5 -19.5q-71 0 -105 28t-44 74q-5 23 -6.5 50t-1.5 53v278q7 0 15 1q7 1 14.5 1.5t14.5 0.5q40 0 66 -17t26 -61v-197q0 -22 1.5 -41 t8 -32.5t21 -21t40.5 -7.5q37 0 63.5 15.5t26.5 38.5v320z" />
<glyph unicode="v" horiz-adv-x="485" d="M316 -5h-145l-165 469q34 13 72 13q24 0 39.5 -7t26 -19t17 -29.5t12.5 -38.5l72 -258l76 261q6 21 13 38t17 29t24.5 18t35.5 6q20 0 38 -4t30 -9z" />
<glyph unicode="w" horiz-adv-x="725" d="M557 -5h-106l-81 217l-93 -217h-96l-175 469q18 6 37.5 9.5t33.5 3.5q31 0 52.5 -13t32.5 -44l90 -270l67 163l-48 153q19 6 35.5 8.5t32.5 2.5q26 0 44.5 -13t27.5 -42l86 -262l65 226q12 44 31 67.5t57 23.5q20 0 36.5 -3.5t32.5 -9.5z" />
<glyph unicode="x" horiz-adv-x="469" d="M239 327l54 88q19 31 40 46.5t59 15.5q20 0 37.5 -5t33.5 -12l-152 -228l146 -230q-30 -12 -63 -12q-35 0 -59 10.5t-44 42.5l-60 94l-82 -137h-143l152 237l-140 226q16 5 38.5 10t43.5 5q34 0 53.5 -15t33.5 -41z" />
<glyph unicode="y" horiz-adv-x="494" d="M322 -82q-20 -65 -66.5 -105t-127.5 -40q-44 0 -73.5 13t-29.5 44q0 14 7.5 31t20.5 38q11 -8 29 -14t38 -6q31 0 51 17t34 58l17 50h-62l-154 462q15 5 36.5 8t39.5 3q28 0 49.5 -15t30.5 -46l90 -308l74 269q6 21 13 39t18.5 31.5t27.5 21.5t39 8q19 0 34 -3.5t30 -9.5 z" />
<glyph unicode="z" horiz-adv-x="443" d="M25 0v91l217 279h-220q-1 5 -1 10.5v9.5q0 45 24.5 65.5t69.5 20.5h231q32 0 47 -10.5t15 -37.5v-34l-223 -289h156q47 0 67 -18t20 -56q0 -10 -0.5 -17t-1.5 -14h-401z" />
<glyph unicode="{" horiz-adv-x="351" d="M230 427q0 -48 -16.5 -82.5t-58.5 -51.5q42 -15 58.5 -50t16.5 -83v-132q0 -39 23 -54t54 -15h10.5t10.5 1q3 -17 5 -31t2 -22q0 -29 -19 -37.5t-47 -8.5q-48 0 -81 15t-53.5 38t-29.5 52t-9 57v142q0 83 -65 83v92q40 0 52.5 26t12.5 79v84q0 34 8.5 67.5t29 60t55.5 43 t88 16.5q25 0 41.5 -9t16.5 -36q0 -8 -2 -22t-5 -31q-5 1 -10 1h-10q-31 0 -54.5 -15t-23.5 -54v-123z" />
<glyph unicode="|" horiz-adv-x="271" d="M77 -188v982h112v-982h-112z" />
<glyph unicode="}" horiz-adv-x="351" d="M121 550q0 39 -23.5 54t-54.5 15h-10t-10 -1q-3 17 -5 31t-2 22q0 27 16.5 36t41.5 9q53 0 88 -16.5t55.5 -43t29 -60t8.5 -67.5v-84q0 -53 12.5 -79t52.5 -26v-92q-65 0 -65 -83v-142q0 -28 -9 -57t-29.5 -52t-53.5 -38t-81 -15q-28 0 -47 8.5t-19 37.5q0 8 2 22t5 31 q5 -1 10.5 -1h10.5q31 0 54 15t23 54v132q0 48 16.5 83t58.5 50q-42 17 -58.5 51.5t-16.5 82.5v123z" />
<glyph unicode="~" horiz-adv-x="501" d="M477 655q-4 -81 -39.5 -126t-90.5 -45q-32 0 -54.5 11.5t-42 25.5t-38 25.5t-40.5 11.5q-51 0 -60 -73h-88q5 75 40.5 122.5t98.5 47.5q34 0 58 -11.5t43 -25t35.5 -25t34.5 -11.5q26 0 38.5 19.5t15.5 53.5h89z" />
<glyph unicode="&#xa1;" horiz-adv-x="281" d="M66 401q0 32 20.5 53t54.5 21q33 0 53.5 -21t20.5 -53t-20.5 -52.5t-53.5 -20.5t-54 20.5t-21 52.5zM76 271q7 1 15 2q7 1 15 1.5t16 0.5q16 0 32 -4t29 -14t21 -26.5t8 -41.5v-397q-7 -1 -15 -2q-7 -1 -15 -1.5t-16 -0.5q-16 0 -32 3.5t-29 12.5t-21 24.5t-8 40.5v402z " />
<glyph unicode="&#xa2;" horiz-adv-x="561" d="M337 192q22 0 40 5t32 12.5t24 15.5t15 14q5 -6 11 -15.5t11 -20t8.5 -21t3.5 -17.5q0 -9 -4 -18.5t-17 -19.5q-11 -8 -26 -15t-35 -12v-117h-61v108h-21h-11t-11 1v-109h-61v120q-30 9 -58.5 26t-50 45t-35 68t-13.5 95q0 53 13.5 92t35.5 66.5t50.5 44.5t57.5 26v118 h61v-106q5 0 11 0.5t11 0.5h10.5t10.5 -1v106h61v-116q15 -4 28 -9.5t24 -11.5q19 -12 26.5 -22.5t7.5 -25.5q0 -13 -9 -34t-23 -38q-16 17 -47 33.5t-69 16.5q-66 0 -94 -38t-28 -100q0 -31 6 -58t20.5 -46.5t37.5 -31t57 -11.5z" />
<glyph unicode="&#xa3;" horiz-adv-x="561" d="M122 0v275h-67v95h67v75v25t2 23q4 48 23 82t48.5 55t66.5 31t78 10q65 0 108 -17t60 -30q24 -18 24 -39q0 -14 -12.5 -35.5t-29.5 -39.5q-25 19 -55 35.5t-74 16.5q-21 0 -39.5 -5t-32.5 -17t-22.5 -32t-8.5 -50v-88h197v-95h-197v-169h191q49 0 66 -18.5t17 -52.5 q0 -11 -0.5 -18.5t-1.5 -16.5h-408z" />
<glyph unicode="&#xa4;" horiz-adv-x="538" d="M409 353q0 60 -34.5 100t-96.5 40t-96.5 -39.5t-34.5 -100.5q0 -60 35 -99.5t96 -39.5q62 0 96.5 39.5t34.5 99.5zM477 96l-75 72q-56 -36 -125 -36q-65 0 -121 34l-74 -70l-65 63l75 71q-18 26 -27 58t-9 64q0 68 35 121l-71 66l67 62l66 -62q56 36 125 36q70 0 128 -38 l71 69l67 -63l-76 -71q17 -26 24.5 -56t7.5 -62q0 -33 -8.5 -64.5t-25.5 -57.5l76 -73z" />
<glyph unicode="&#xa5;" horiz-adv-x="561" d="M390 342h104v-63h-140v-74h140v-63h-140v-142h-137v142h-133v63h133v74h-133v63h95l-166 298q17 8 40 14t43 6q36 0 53.5 -14t31.5 -40l106 -197l103 194q13 23 33.5 40t56.5 17q23 0 41 -4t38 -11z" />
<glyph unicode="&#xa6;" horiz-adv-x="271" d="M77 -188v403h112v-403h-112zM189 419h-112v375h112v-375z" />
<glyph unicode="&#xa7;" horiz-adv-x="508" d="M56 294q0 22 6 40.5t15.5 34t21 28t22.5 21.5q-26 20 -40.5 45.5t-14.5 66.5q0 35 14.5 63.5t40.5 48.5t61.5 30.5t77.5 10.5q30 0 62.5 -6t58.5 -16.5t43 -25.5t17 -33t-10.5 -37.5t-24.5 -37.5q-35 25 -73 40.5t-72 15.5t-54 -13t-20 -39q0 -22 22 -39t53 -31l75 -32 q52 -23 83.5 -55.5t31.5 -90.5q0 -42 -21.5 -75t-43.5 -53q20 -18 32 -39t12 -55q0 -39 -15 -69t-41 -50.5t-60 -30.5t-72 -10q-49 0 -88 10t-63 26q-32 21 -32 47q0 17 14.5 38t28.5 37q33 -31 69 -46.5t69 -15.5q29 0 50.5 14t21.5 45q0 26 -20 40.5t-64 31.5l-67 26 q-59 23 -82.5 59.5t-23.5 80.5zM169 305q0 -21 12 -35t47 -29l76 -33q12 11 22.5 29t10.5 38q0 25 -18.5 41t-43.5 26l-70 28q-12 -8 -24 -24.5t-12 -40.5z" />
<glyph unicode="&#xa8;" horiz-adv-x="382" d="M400 619q0 -29 -19 -46.5t-46 -17.5q-28 0 -47 17.5t-19 46.5q0 28 19.5 46t46.5 18t46 -18t19 -46zM194 619q0 -29 -19 -46.5t-46 -17.5q-28 0 -47 17.5t-19 46.5q0 28 19.5 46t46.5 18t46 -18t19 -46z" />
<glyph unicode="&#xa9;" horiz-adv-x="818" d="M754 325q0 -74 -24.5 -139.5t-69.5 -115t-109 -78.5t-143 -29q-81 0 -145 28.5t-108.5 77.5t-67.5 115t-23 141q0 73 24 138.5t69 114.5t108.5 78t143.5 29q79 0 143 -29t109 -78t69 -114.5t24 -138.5zM696 325q0 60 -20 115t-57 97.5t-90 67.5t-119 25t-119 -25 t-90 -67.5t-57 -97.5t-20 -115t19 -115.5t55.5 -98t90 -68t121.5 -25.5q66 0 119 25.5t90 68t57 98t20 115.5zM551 141q-12 -10 -43.5 -25t-83.5 -15q-44 0 -83 13.5t-68.5 41.5t-46.5 71t-17 102q0 58 18 101t48 71.5t68.5 42.5t79.5 14q42 0 70 -8.5t46 -20.5 q20 -13 27 -24t7 -22q0 -15 -11 -30t-24 -29q-21 24 -45.5 37.5t-62.5 13.5q-60 0 -87 -40t-27 -104q0 -30 6 -56.5t20 -46t36.5 -31t55.5 -11.5q21 0 37.5 5t29 12t21.5 15t14 13q4 -5 10 -12t11.5 -15t9.5 -16t4 -14q0 -9 -4.5 -16.5t-15.5 -16.5z" />
<glyph unicode="&#xaa;" horiz-adv-x="426" d="M370 401q0 -29 5.5 -53t14.5 -39q-17 -7 -29 -9.5t-32 -2.5q-26 0 -40.5 10.5t-21.5 26.5q-17 -14 -44.5 -25t-61.5 -11q-22 0 -44 6t-40 19.5t-29.5 35.5t-11.5 55q0 40 19.5 65t48.5 39t62.5 19.5t62.5 5.5h24v11q0 26 -13 38t-45 12q-28 0 -57 -9.5t-56 -24.5 q-11 15 -17 29t-6 26t12.5 22.5t34 18.5t49.5 12.5t59 4.5q86 0 121 -35t35 -107v-140zM255 484q-17 0 -35.5 -3.5t-34 -11t-25.5 -19.5t-10 -31t11.5 -32.5t37.5 -13.5q24 0 40 11.5t16 22.5v77z" />
<glyph unicode="&#xab;" horiz-adv-x="532" d="M393 279l71 -87q18 -23 18 -45q0 -19 -10.5 -40t-21.5 -35l-145 132q-17 16 -27.5 34t-10.5 40t11.5 39.5t28.5 32.5l138 128q33 -37 33 -68q0 -13 -4 -26t-15 -27zM162 279l71 -87q18 -23 18 -45q0 -19 -10.5 -40t-21.5 -35l-145 132q-17 16 -27.5 34t-10.5 40 t11.5 39.5t28.5 32.5l138 128q33 -37 33 -68q0 -13 -4 -26t-15 -27z" />
<glyph unicode="&#xac;" horiz-adv-x="549" d="M392 135v168h-353v113h471v-281h-118z" />
<glyph unicode="&#xad;" horiz-adv-x="456" d="M137 228q-72 0 -72 63q0 22 3 43h250q33 0 54 -11t21 -52q0 -11 -0.5 -21.5t-1.5 -21.5h-254z" />
<glyph unicode="&#xae;" horiz-adv-x="818" d="M589 130q-28 -14 -51 -14q-18 0 -34 8t-27 26l-81 131h-38v-157h-85v419q27 2 64 4t64 2q88 0 128.5 -36t40.5 -92q0 -26 -7 -46t-19 -35.5t-27.5 -26t-31.5 -17.5zM479 415q0 66 -79 66q-14 0 -24 -0.5t-18 -1.5v-133h47q38 0 56 18.5t18 50.5zM754 325 q0 -74 -24.5 -139.5t-69.5 -115.5t-109 -79t-143 -29q-83 0 -147 29t-107.5 79t-66.5 115.5t-23 139.5q0 73 24 138.5t69 114.5t108.5 78t143.5 29q79 0 143 -29t109 -78t69 -114.5t24 -138.5zM695 325q0 60 -20 115t-57 97.5t-90 67.5t-119 25t-119 -25t-89.5 -67.5 t-56.5 -97.5t-20 -115t19 -115.5t55 -98t89 -68t121 -25.5q66 0 119.5 25.5t90.5 68t57 98t20 115.5z" />
<glyph unicode="&#xaf;" horiz-adv-x="382" d="M99 568q-38 0 -51 12.5t-13 38.5q0 11 0.5 18.5t1.5 18.5h241q32 0 50 -9t18 -45q0 -9 -0.5 -17t-1.5 -17h-245z" />
<glyph unicode="&#xb0;" horiz-adv-x="389" d="M334 558q0 -29 -10 -54t-28.5 -43.5t-44.5 -29.5t-57 -11q-32 0 -58 11t-44 29.5t-28 43.5t-10 54q0 28 10 53.5t28.5 44t44.5 29.5t57 11q64 0 102 -39t38 -99zM270 558q0 33 -21.5 55.5t-54.5 22.5q-32 0 -52.5 -22.5t-20.5 -55.5q0 -32 20.5 -55t52.5 -23 q33 0 54.5 23t21.5 55z" />
<glyph unicode="&#xb1;" horiz-adv-x="549" d="M333 279v-167h157v-112h-431v112h157v166h-160v113h160v171h117v-171h160v-112h-160z" />
<glyph unicode="&#xb2;" d="M55 300v71q23 19 53 46.5t59 59.5q21 23 33 43t12 44q0 22 -13.5 35t-38.5 13q-26 0 -47 -14t-35 -28q-15 12 -24.5 25.5t-9.5 24.5t8 21t28 22q23 14 51 19t47 5q28 0 52 -7t42 -21t28 -36t10 -53q0 -40 -18.5 -71.5t-46.5 -60.5q-16 -16 -32.5 -31t-30.5 -28h81 q35 0 49 -9.5t14 -41.5q0 -11 -1 -18.5t-1 -9.5h-269z" />
<glyph unicode="&#xb3;" d="M323 411q0 -55 -36.5 -88.5t-111.5 -33.5q-20 0 -47 5t-49 16q-14 7 -23 16.5t-9 23.5t8 27.5t17 28.5q14 -15 40 -28.5t55 -13.5q23 0 41.5 9.5t18.5 39.5q0 17 -7 27t-17 15t-21 6.5t-18 1.5h-33v68h35q7 0 16.5 1.5t17 6t13 13t5.5 22.5q0 21 -13.5 30t-35.5 9 q-28 0 -49 -11.5t-39 -24.5q-15 11 -24 25.5t-9 24.5q0 8 5 16t21 17q17 10 45 18.5t64 8.5q69 0 100 -28t31 -71q0 -38 -17.5 -58t-37.5 -31q24 -10 44 -29t20 -59z" />
<glyph unicode="&#xb4;" horiz-adv-x="382" d="M240 564q-23 -26 -56 -26q-14 0 -33 6t-28 14l82 116q14 19 28.5 28.5t35.5 9.5q18 0 40.5 -11t35.5 -22z" />
<glyph unicode="&#xb5;" horiz-adv-x="612" d="M514 138q0 -27 6.5 -40t24.5 -13q14 0 31 6l10 -86q-19 -8 -38.5 -11.5t-36.5 -3.5q-35 0 -58 16t-31 45q-18 -25 -46.5 -43t-73.5 -18q-38 0 -63.5 15.5t-36.5 40.5v-235h-127v665h136v-276q0 -51 22 -77t60 -26q25 0 41.5 8.5t26 23t13 34t3.5 41.5v272h137v-338z" />
<glyph unicode="&#xb6;" horiz-adv-x="589" d="M258 -118v373h-18q-46 0 -82 15.5t-61 43t-38 65t-13 81.5q0 52 16 91.5t44.5 66t66 40t81.5 13.5h202q29 0 46.5 -14t17.5 -49v-726h-90v707h-83v-707h-89z" />
<glyph unicode="&#xb7;" horiz-adv-x="308" d="M228 372q0 -32 -20 -53.5t-54 -21.5q-33 0 -53.5 21.5t-20.5 53.5t21 52.5t53 20.5t53 -20.5t21 -52.5z" />
<glyph unicode="&#xb8;" horiz-adv-x="382" d="M271 -132q0 -22 -10 -39.5t-25.5 -30t-36 -19t-41.5 -6.5q-20 0 -34 9t-14 26q0 7 1.5 17.5t5.5 23.5q7 -4 16 -6.5t18 -2.5q16 0 25.5 5t9.5 18q0 12 -6.5 20.5t-14 16.5t-14 17t-6.5 24q0 20 11.5 36.5t19.5 24.5h69q-10 -10 -17 -19t-7 -20t8 -18.5t17 -17.5t17 -23.5 t8 -35.5z" />
<glyph unicode="&#xb9;" d="M171 300v270l-97 -54q-11 14 -22 33t-11 32q0 17 26 32l102 56q14 8 27.5 13t29.5 5q18 0 27.5 -4.5t16.5 -10.5v-372h-99z" />
<glyph unicode="&#xba;" horiz-adv-x="461" d="M415 496q0 -36 -10 -71.5t-31.5 -63.5t-57 -45.5t-86.5 -17.5q-50 0 -85 17t-57 44.5t-32 62.5t-10 71q0 38 12 72.5t35.5 60.5t58.5 41.5t81 15.5q50 0 85 -15.5t56.5 -41.5t31 -59.5t9.5 -70.5zM303 494q0 21 -3.5 39.5t-11.5 32.5t-21.5 22t-34.5 8t-35 -9t-23 -23 t-12.5 -33t-3.5 -38q0 -21 3.5 -40t11.5 -34t22 -23.5t35 -8.5q22 0 36 9t22.5 23.5t11.5 34t3 40.5z" />
<glyph unicode="&#xbb;" horiz-adv-x="532" d="M304 357q-11 14 -15 27t-4 26q0 31 33 68l138 -128q17 -15 28.5 -32.5t11.5 -39.5t-10.5 -40t-27.5 -34l-145 -132q-11 14 -21.5 35t-10.5 40q0 22 18 45l71 87zM73 357q-11 14 -15 27t-4 26q0 31 33 68l138 -128q17 -15 28.5 -32.5t11.5 -39.5t-10.5 -40t-27.5 -34 l-145 -132q-11 14 -21.5 35t-10.5 40q0 22 18 45l71 87z" />
<glyph unicode="&#xbc;" horiz-adv-x="822" d="M273 0h-109l343 627q14 26 29 41t46 15q14 0 24.5 -1.5t18.5 -3.5q9 -3 16 -5zM175 300v270l-97 -54q-11 14 -22 33t-11 32q0 17 26 32l102 56q14 8 27.5 13t29.5 5q18 0 27.5 -4.5t16.5 -10.5v-372h-99zM452 73v63l156 219q10 14 23.5 23.5t32.5 9.5q11 0 23 -2.5 t23 -7.5v-238h17q34 0 34 -32q0 -5 -0.5 -11.5t-1.5 -11.5l-2 -12h-47v-72h-98v72h-160zM612 141v128l-91 -128h91z" />
<glyph unicode="&#xbd;" horiz-adv-x="822" d="M246 0h-109l343 627q14 26 29 41t46 15q14 0 24.5 -1.5t18.5 -3.5q9 -3 16 -5zM156 300v270l-97 -54q-11 14 -22 33t-11 32q0 17 26 32l102 56q14 8 27.5 13t29.5 5q18 0 27.5 -4.5t16.5 -10.5v-372h-99zM494 1v71q23 19 53 46.5t59 59.5q21 23 33 43t12 44 q0 22 -13.5 35t-38.5 13q-26 0 -47 -14t-35 -28q-15 12 -24.5 25.5t-9.5 24.5t8 21t28 22q23 14 51 19t47 5q28 0 52 -7t42 -21t28 -36t10 -53q0 -40 -18.5 -71.5t-46.5 -60.5q-16 -16 -32.5 -31t-30.5 -28h81q35 0 49 -9.5t14 -41.5q0 -11 -1 -18.5t-1 -9.5h-269z" />
<glyph unicode="&#xbe;" horiz-adv-x="822" d="M306 0h-109l343 627q14 26 29 41t46 15q14 0 24.5 -1.5t18.5 -3.5q9 -3 16 -5zM336 411q0 -55 -36.5 -88.5t-111.5 -33.5q-20 0 -47 5t-49 16q-14 7 -23 16.5t-9 23.5t8 27.5t17 28.5q14 -15 40 -28.5t55 -13.5q23 0 41.5 9.5t18.5 39.5q0 17 -7 27t-17 15t-21 6.5 t-18 1.5h-33v68h35q7 0 16.5 1.5t17 6t13 13t5.5 22.5q0 21 -13.5 30t-35.5 9q-28 0 -49 -11.5t-39 -24.5q-15 11 -24 25.5t-9 24.5q0 8 5 16t21 17q17 10 45 18.5t64 8.5q69 0 100 -28t31 -71q0 -38 -17.5 -58t-37.5 -31q24 -10 44 -29t20 -59zM465 73v63l156 219 q10 14 23.5 23.5t32.5 9.5q11 0 23 -2.5t23 -7.5v-238h17q34 0 34 -32q0 -5 -0.5 -11.5t-1.5 -11.5l-2 -12h-47v-72h-98v72h-160zM625 141v128l-91 -128h91z" />
<glyph unicode="&#xbf;" horiz-adv-x="446" d="M244 -221q-43 0 -81.5 10.5t-67 32t-45 53.5t-16.5 75q0 32 8 56.5t21 45t29.5 36.5t33.5 31q32 26 55.5 52.5t23.5 64.5q0 8 -1 17t-3 18q6 2 15 2.5t17 0.5q37 0 60.5 -19t23.5 -58q0 -35 -18.5 -61t-42.5 -49q-15 -14 -29.5 -27.5t-26 -28t-18.5 -30.5t-7 -35 q0 -45 27 -63.5t65 -18.5q40 0 73 17.5t56 35.5q15 -15 28.5 -32t13.5 -36q0 -14 -11 -26.5t-28 -23.5q-27 -17 -67.5 -28.5t-87.5 -11.5zM180 401q0 32 20 53t54 21t54.5 -21t20.5 -53t-20.5 -52.5t-54.5 -20.5q-32 0 -53 20.5t-21 52.5z" />
<glyph unicode="&#xc0;" horiz-adv-x="633" d="M485 0l-57 164h-231l-55 -164h-136l232 660q12 5 33.5 9.5t46.5 4.5q11 0 24.5 -2t26.5 -8.5t24.5 -18.5t18.5 -33l215 -612h-142zM314 549l-91 -285h179zM152 821q13 20 31.5 37t41.5 17q14 0 27 -7t24 -16l111 -90q-11 -13 -28 -24.5t-34 -11.5q-12 0 -24 4.5t-23 11.5 z" />
<glyph unicode="&#xc1;" horiz-adv-x="633" d="M485 0l-57 164h-231l-55 -164h-136l232 660q12 5 33.5 9.5t46.5 4.5q11 0 24.5 -2t26.5 -8.5t24.5 -18.5t18.5 -33l215 -612h-142zM314 549l-91 -285h179zM339 742q-11 -7 -23 -11.5t-24 -4.5q-17 0 -34 11.5t-28 24.5l111 90q11 9 24 16t27 7q23 0 41.5 -17t31.5 -37z " />
<glyph unicode="&#xc2;" horiz-adv-x="633" d="M485 0l-57 164h-231l-55 -164h-136l232 660q12 5 33.5 9.5t46.5 4.5q11 0 24.5 -2t26.5 -8.5t24.5 -18.5t18.5 -33l215 -612h-142zM314 549l-91 -285h179zM315 796l-53 -52q-12 -11 -24.5 -15t-24.5 -4q-13 0 -27.5 4t-22.5 11l87 108q24 29 65 29q39 0 64 -29l88 -110 q-10 -6 -23.5 -10t-25.5 -4q-16 0 -28.5 4.5t-26.5 18.5z" />
<glyph unicode="&#xc3;" horiz-adv-x="633" d="M485 0l-57 164h-231l-55 -164h-136l232 660q12 5 33.5 9.5t46.5 4.5q11 0 24.5 -2t26.5 -8.5t24.5 -18.5t18.5 -33l215 -612h-142zM314 549l-91 -285h179zM386 739q-24 0 -43 6t-34.5 12.5t-29.5 12.5t-29 6q-23 0 -39.5 -12t-32.5 -31q-12 10 -24.5 23.5t-12.5 29.5 q0 14 10 27t25.5 22.5t34.5 15t37 5.5q22 0 39 -6t32 -12.5t29 -12.5t29 -6q22 0 37 10.5t30 33.5q11 -10 25 -25t14 -31q0 -15 -8.5 -27.5t-22.5 -21.5t-31.5 -14t-34.5 -5z" />
<glyph unicode="&#xc4;" horiz-adv-x="633" d="M485 0l-57 164h-231l-55 -164h-136l232 660q12 5 33.5 9.5t46.5 4.5q11 0 24.5 -2t26.5 -8.5t24.5 -18.5t18.5 -33l215 -612h-142zM314 549l-91 -285h179zM477 794q0 -29 -19 -46.5t-46 -17.5q-28 0 -47 17.5t-19 46.5q0 28 19.5 46t46.5 18t46 -18t19 -46zM281 794 q0 -29 -19 -46.5t-46 -17.5q-28 0 -47 17.5t-19 46.5q0 28 19.5 46t46.5 18t46 -18t19 -46z" />
<glyph unicode="&#xc5;" horiz-adv-x="633" d="M427 754q0 -23 -8 -44t-22 -37q-8 -9 -18 -16q7 -5 14 -12q12 -12 19 -33l215 -612h-142l-57 164h-231l-55 -164h-136l232 660l6 2q-6 5 -11 11q-29 33 -29 80q0 24 7.5 44.5t22 36.5t35.5 25t47 9q25 0 46 -9t35 -24.5t22 -36.5t8 -44zM314 549l-91 -285h179zM369 753 q0 25 -14.5 43t-38.5 18q-25 0 -39.5 -18t-14.5 -42t14 -43t40 -19q24 0 38.5 18.5t14.5 42.5z" />
<glyph unicode="&#xc6;" horiz-adv-x="905" d="M801 106q24 0 40 -6t25.5 -16t13.5 -23t4 -26q0 -11 -0.5 -18.5t-1.5 -16.5h-433v170h-204l-91 -170h-148l316 572q12 21 24 39t27 31t34 20.5t45 7.5h414q2 -11 2.5 -18.5t0.5 -18.5q0 -35 -18 -52.5t-67 -17.5h-197v-165h212v-107h-212v-185h214zM289 264h160v300z" />
<glyph unicode="&#xc7;" horiz-adv-x="607" d="M418 -132q0 -22 -10 -39.5t-25.5 -30t-36 -19t-41.5 -6.5q-20 0 -34 9t-14 26q0 7 1.5 17.5t5.5 23.5q7 -4 16 -6.5t18 -2.5q16 0 25.5 5t9.5 18q0 12 -6.5 20.5t-14 16.5t-14 17t-6.5 24q0 20 11 37l6 8q-49 6 -88 23q-59 26 -97.5 72.5t-56.5 110t-18 139.5t19.5 140.5 t58.5 111.5t97.5 73.5t137.5 26.5q39 0 70.5 -7t55 -16.5t39 -20t23.5 -17.5q9 -8 15.5 -19t6.5 -24q0 -20 -15 -40t-33 -37q-12 12 -27 24.5t-33.5 22t-42 16t-52.5 6.5q-51 0 -85.5 -20.5t-55.5 -53.5t-30 -75.5t-9 -86.5q0 -47 9 -90t31 -76t57.5 -53t88.5 -20 q28 0 51.5 7t41.5 17t31.5 21t22.5 19q6 -7 14 -17t15 -21t12 -22t5 -20q0 -13 -5 -22t-16 -20q-6 -6 -20 -15t-36.5 -18t-55.5 -15q-27 -6 -60 -7q-7 -9 -7 -20t8 -18.5t17 -17.5t17 -23.5t8 -35.5z" />
<glyph unicode="&#xc8;" horiz-adv-x="525" d="M421 106q24 0 40 -6t25.5 -16t13.5 -23t4 -26q0 -11 -0.5 -18.5t-1.5 -16.5h-433v670h417q2 -11 2.5 -18.5t0.5 -18.5q0 -35 -18 -52.5t-67 -17.5h-197v-165h212v-107h-212v-185h214zM129 821q13 20 31.5 37t41.5 17q14 0 27 -7t24 -16l111 -90q-11 -13 -28 -24.5 t-34 -11.5q-12 0 -24 4.5t-23 11.5z" />
<glyph unicode="&#xc9;" horiz-adv-x="525" d="M421 106q24 0 40 -6t25.5 -16t13.5 -23t4 -26q0 -11 -0.5 -18.5t-1.5 -16.5h-433v670h417q2 -11 2.5 -18.5t0.5 -18.5q0 -35 -18 -52.5t-67 -17.5h-197v-165h212v-107h-212v-185h214zM287 742q-11 -7 -23 -11.5t-24 -4.5q-17 0 -34 11.5t-28 24.5l111 90q11 9 24 16t27 7 q23 0 41.5 -17t31.5 -37z" />
<glyph unicode="&#xca;" horiz-adv-x="525" d="M421 106q24 0 40 -6t25.5 -16t13.5 -23t4 -26q0 -11 -0.5 -18.5t-1.5 -16.5h-433v670h417q2 -11 2.5 -18.5t0.5 -18.5q0 -35 -18 -52.5t-67 -17.5h-197v-165h212v-107h-212v-185h214zM282 796l-53 -52q-12 -11 -24.5 -15t-24.5 -4q-13 0 -27.5 4t-22.5 11l87 108 q24 29 65 29q39 0 64 -29l88 -110q-10 -6 -23.5 -10t-25.5 -4q-16 0 -28.5 4.5t-26.5 18.5z" />
<glyph unicode="&#xcb;" horiz-adv-x="525" d="M421 106q24 0 40 -6t25.5 -16t13.5 -23t4 -26q0 -11 -0.5 -18.5t-1.5 -16.5h-433v670h417q2 -11 2.5 -18.5t0.5 -18.5q0 -35 -18 -52.5t-67 -17.5h-197v-165h212v-107h-212v-185h214zM440 794q0 -29 -19 -46.5t-46 -17.5q-28 0 -47 17.5t-19 46.5q0 28 19.5 46t46.5 18 t46 -18t19 -46zM244 794q0 -29 -19 -46.5t-46 -17.5q-28 0 -47 17.5t-19 46.5q0 28 19.5 46t46.5 18t46 -18t19 -46z" />
<glyph unicode="&#xcc;" horiz-adv-x="265" d="M201 0h-137v669q8 1 17 2q8 1 15.5 2t14.5 1q14 0 29.5 -3t29 -11t22.5 -23.5t9 -40.5v-596zM-32 821q13 20 31.5 37t41.5 17q14 0 27 -7t24 -16l111 -90q-11 -13 -28 -24.5t-34 -11.5q-12 0 -24 4.5t-23 11.5z" />
<glyph unicode="&#xcd;" horiz-adv-x="265" d="M201 0h-137v669q8 1 17 2q8 1 15.5 2t14.5 1q14 0 29.5 -3t29 -11t22.5 -23.5t9 -40.5v-596zM155 742q-11 -7 -23 -11.5t-24 -4.5q-17 0 -34 11.5t-28 24.5l111 90q11 9 24 16t27 7q23 0 41.5 -17t31.5 -37z" />
<glyph unicode="&#xce;" horiz-adv-x="265" d="M201 0h-137v669q8 1 17 2q8 1 15.5 2t14.5 1q14 0 29.5 -3t29 -11t22.5 -23.5t9 -40.5v-596zM126 796l-53 -52q-12 -11 -24.5 -15t-24.5 -4q-13 0 -27.5 4t-22.5 11l87 108q24 29 65 29q39 0 64 -29l88 -110q-10 -6 -23.5 -10t-25.5 -4q-16 0 -28.5 4.5t-26.5 18.5z" />
<glyph unicode="&#xcf;" horiz-adv-x="265" d="M201 0h-137v669q8 1 17 2q8 1 15.5 2t14.5 1q14 0 29.5 -3t29 -11t22.5 -23.5t9 -40.5v-596zM290 794q0 -29 -19 -46.5t-46 -17.5q-28 0 -47 17.5t-19 46.5q0 28 19.5 46t46.5 18t46 -18t19 -46zM94 794q0 -29 -19 -46.5t-46 -17.5q-28 0 -47 17.5t-19 46.5q0 28 19.5 46 t46.5 18t46 -18t19 -46z" />
<glyph unicode="&#xd0;" horiz-adv-x="651" d="M609 346q0 -71 -17.5 -134t-55.5 -110t-97 -74.5t-142 -27.5h-220v300h-62v88h62v276q64 8 109.5 10t78.5 2q103 0 169.5 -26.5t105.5 -71.5t54 -105t15 -127zM469 344q0 47 -8.5 88.5t-30.5 72t-59.5 48.5t-95.5 18q-29 0 -60 -3v-180h134v-88h-134v-195h39 q62 0 103.5 19t66 51.5t35 76t10.5 92.5z" />
<glyph unicode="&#xd1;" horiz-adv-x="670" d="M470 208v461l16 2l14 2t14 1q14 0 29.5 -3t28 -11t21 -23.5t8.5 -40.5v-596h-116l-285 440v-440h-131v668q10 2 27 4t34 2q32 0 50 -11t32 -34zM402 739q-24 0 -43 6t-34.5 12.5t-29.5 12.5t-29 6q-23 0 -39.5 -12t-32.5 -31q-12 10 -24.5 23.5t-12.5 29.5q0 14 10 27 t25.5 22.5t34.5 15t37 5.5q22 0 39 -6t32 -12.5t29 -12.5t29 -6q22 0 37 10.5t30 33.5q11 -10 25 -25t14 -31q0 -15 -8.5 -27.5t-22.5 -21.5t-31.5 -14t-34.5 -5z" />
<glyph unicode="&#xd2;" horiz-adv-x="704" d="M655 337q0 -72 -17 -136.5t-54 -113t-95 -76.5t-140 -28q-81 0 -138 28.5t-93 77t-52.5 112.5t-16.5 135q0 70 18 133t56 110.5t96 75.5t138 28q79 0 135.5 -27t92.5 -73.5t53 -109.5t17 -136zM514 336q0 48 -8 91t-27 75.5t-49 51.5t-74 19q-46 0 -77.5 -19t-51 -51.5 t-28 -75.5t-8.5 -91t8.5 -92t27.5 -78t50 -54t76 -20t76 20t49.5 54t27 78t8.5 92zM208 821q13 20 31.5 37t41.5 17q14 0 27 -7t24 -16l111 -90q-11 -13 -28 -24.5t-34 -11.5q-12 0 -24 4.5t-23 11.5z" />
<glyph unicode="&#xd3;" horiz-adv-x="704" d="M655 337q0 -72 -17 -136.5t-54 -113t-95 -76.5t-140 -28q-81 0 -138 28.5t-93 77t-52.5 112.5t-16.5 135q0 70 18 133t56 110.5t96 75.5t138 28q79 0 135.5 -27t92.5 -73.5t53 -109.5t17 -136zM514 336q0 48 -8 91t-27 75.5t-49 51.5t-74 19q-46 0 -77.5 -19t-51 -51.5 t-28 -75.5t-8.5 -91t8.5 -92t27.5 -78t50 -54t76 -20t76 20t49.5 54t27 78t8.5 92zM394 742q-11 -7 -23 -11.5t-24 -4.5q-17 0 -34 11.5t-28 24.5l111 90q11 9 24 16t27 7q23 0 41.5 -17t31.5 -37z" />
<glyph unicode="&#xd4;" horiz-adv-x="704" d="M655 337q0 -72 -17 -136.5t-54 -113t-95 -76.5t-140 -28q-81 0 -138 28.5t-93 77t-52.5 112.5t-16.5 135q0 70 18 133t56 110.5t96 75.5t138 28q79 0 135.5 -27t92.5 -73.5t53 -109.5t17 -136zM514 336q0 48 -8 91t-27 75.5t-49 51.5t-74 19q-46 0 -77.5 -19t-51 -51.5 t-28 -75.5t-8.5 -91t8.5 -92t27.5 -78t50 -54t76 -20t76 20t49.5 54t27 78t8.5 92zM360 796l-53 -52q-12 -11 -24.5 -15t-24.5 -4q-13 0 -27.5 4t-22.5 11l87 108q24 29 65 29q39 0 64 -29l88 -110q-10 -6 -23.5 -10t-25.5 -4q-16 0 -28.5 4.5t-26.5 18.5z" />
<glyph unicode="&#xd5;" horiz-adv-x="704" d="M655 337q0 -72 -17 -136.5t-54 -113t-95 -76.5t-140 -28q-81 0 -138 28.5t-93 77t-52.5 112.5t-16.5 135q0 70 18 133t56 110.5t96 75.5t138 28q79 0 135.5 -27t92.5 -73.5t53 -109.5t17 -136zM514 336q0 48 -8 91t-27 75.5t-49 51.5t-74 19q-46 0 -77.5 -19t-51 -51.5 t-28 -75.5t-8.5 -91t8.5 -92t27.5 -78t50 -54t76 -20t76 20t49.5 54t27 78t8.5 92zM430 739q-24 0 -43 6t-34.5 12.5t-29.5 12.5t-29 6q-23 0 -39.5 -12t-32.5 -31q-12 10 -24.5 23.5t-12.5 29.5q0 14 10 27t25.5 22.5t34.5 15t37 5.5q22 0 39 -6t32 -12.5t29 -12.5t29 -6 q22 0 37 10.5t30 33.5q11 -10 25 -25t14 -31q0 -15 -8.5 -27.5t-22.5 -21.5t-31.5 -14t-34.5 -5z" />
<glyph unicode="&#xd6;" horiz-adv-x="704" d="M655 337q0 -72 -17 -136.5t-54 -113t-95 -76.5t-140 -28q-81 0 -138 28.5t-93 77t-52.5 112.5t-16.5 135q0 70 18 133t56 110.5t96 75.5t138 28q79 0 135.5 -27t92.5 -73.5t53 -109.5t17 -136zM514 336q0 48 -8 91t-27 75.5t-49 51.5t-74 19q-46 0 -77.5 -19t-51 -51.5 t-28 -75.5t-8.5 -91t8.5 -92t27.5 -78t50 -54t76 -20t76 20t49.5 54t27 78t8.5 92zM536 823q0 -29 -19 -46.5t-46 -17.5q-28 0 -47 17.5t-19 46.5q0 28 19.5 46t46.5 18t46 -18t19 -46zM330 823q0 -29 -19 -46.5t-46 -17.5q-28 0 -47 17.5t-19 46.5q0 28 19.5 46t46.5 18 t46 -18t19 -46z" />
<glyph unicode="&#xd7;" horiz-adv-x="549" d="M487 207l-84 -84l-130 131l-128 -128l-80 80l128 128l-132 131l84 85l132 -132l128 128l40 -40l40 -40l-129 -129z" />
<glyph unicode="&#xd8;" horiz-adv-x="704" d="M655 337q0 -72 -17 -136.5t-54 -113t-95 -76.5t-140 -28q-75 0 -129 24l-52 -94l-75 35l58 104q-18 16 -33 36q-36 49 -52.5 113t-16.5 135q0 70 18 133t56 110.5t96 75.5t138 28q76 0 131 -25l46 82l73 -37l-50 -90q15 -14 28 -31q36 -46 53 -109t17 -136zM356 573 q-46 0 -77.5 -19t-51 -51.5t-28 -75.5t-8.5 -91t8 -92q7 -37 22 -67l209 377q-30 19 -74 19zM514 336q0 48 -8 91q-6 33 -19 60l-209 -376q30 -19 75 -19t76 20t49.5 54t27 78t8.5 92z" />
<glyph unicode="&#xd9;" horiz-adv-x="647" d="M201 261q0 -36 4.5 -65t18 -49.5t37.5 -32t63 -11.5q68 0 95 39.5t27 110.5v416l18 2q8 1 15.5 2t14.5 1q14 0 29.5 -3t29 -11.5t22 -23.5t8.5 -40v-326q0 -20 -1 -40t-3 -41q-4 -42 -20.5 -79.5t-48 -65t-78.5 -43.5t-111 -16q-65 0 -110 14t-75 40.5t-46 65t-22 88.5 q-2 18 -3 37t-1 40v399q8 1 17 2q8 1 15.5 2t14.5 1q15 0 30.5 -3t29 -11.5t22 -23.5t8.5 -40v-335zM180 821q13 20 31.5 37t41.5 17q14 0 27 -7t24 -16l111 -90q-11 -13 -28 -24.5t-34 -11.5q-12 0 -24 4.5t-23 11.5z" />
<glyph unicode="&#xda;" horiz-adv-x="647" d="M201 261q0 -36 4.5 -65t18 -49.5t37.5 -32t63 -11.5q68 0 95 39.5t27 110.5v416l18 2q8 1 15.5 2t14.5 1q14 0 29.5 -3t29 -11.5t22 -23.5t8.5 -40v-326q0 -20 -1 -40t-3 -41q-4 -42 -20.5 -79.5t-48 -65t-78.5 -43.5t-111 -16q-65 0 -110 14t-75 40.5t-46 65t-22 88.5 q-2 18 -3 37t-1 40v399q8 1 17 2q8 1 15.5 2t14.5 1q15 0 30.5 -3t29 -11.5t22 -23.5t8.5 -40v-335zM355 742q-11 -7 -23 -11.5t-24 -4.5q-17 0 -34 11.5t-28 24.5l111 90q11 9 24 16t27 7q23 0 41.5 -17t31.5 -37z" />
<glyph unicode="&#xdb;" horiz-adv-x="647" d="M201 261q0 -36 4.5 -65t18 -49.5t37.5 -32t63 -11.5q68 0 95 39.5t27 110.5v416l18 2q8 1 15.5 2t14.5 1q14 0 29.5 -3t29 -11.5t22 -23.5t8.5 -40v-326q0 -20 -1 -40t-3 -41q-4 -42 -20.5 -79.5t-48 -65t-78.5 -43.5t-111 -16q-65 0 -110 14t-75 40.5t-46 65t-22 88.5 q-2 18 -3 37t-1 40v399q8 1 17 2q8 1 15.5 2t14.5 1q15 0 30.5 -3t29 -11.5t22 -23.5t8.5 -40v-335zM328 796l-53 -52q-12 -11 -24.5 -15t-24.5 -4q-13 0 -27.5 4t-22.5 11l87 108q24 29 65 29q39 0 64 -29l88 -110q-10 -6 -23.5 -10t-25.5 -4q-16 0 -28.5 4.5t-26.5 18.5z " />
<glyph unicode="&#xdc;" horiz-adv-x="647" d="M201 261q0 -36 4.5 -65t18 -49.5t37.5 -32t63 -11.5q68 0 95 39.5t27 110.5v416l18 2q8 1 15.5 2t14.5 1q14 0 29.5 -3t29 -11.5t22 -23.5t8.5 -40v-326q0 -20 -1 -40t-3 -41q-4 -42 -20.5 -79.5t-48 -65t-78.5 -43.5t-111 -16q-65 0 -110 14t-75 40.5t-46 65t-22 88.5 q-2 18 -3 37t-1 40v399q8 1 17 2q8 1 15.5 2t14.5 1q15 0 30.5 -3t29 -11.5t22 -23.5t8.5 -40v-335zM490 794q0 -29 -19 -46.5t-46 -17.5q-28 0 -47 17.5t-19 46.5q0 28 19.5 46t46.5 18t46 -18t19 -46zM294 794q0 -29 -19 -46.5t-46 -17.5q-28 0 -47 17.5t-19 46.5 q0 28 19.5 46t46.5 18t46 -18t19 -46z" />
<glyph unicode="&#xdd;" horiz-adv-x="578" d="M357 257v-257h-137v253l-214 401q17 8 40 14t43 6q36 0 53.5 -14t31.5 -40l117 -233l117 231q12 24 32 40t56 16q23 0 40 -4t36 -11zM321 742q-11 -7 -23 -11.5t-24 -4.5q-17 0 -34 11.5t-28 24.5l111 90q11 9 24 16t27 7q23 0 41.5 -17t31.5 -37z" />
<glyph unicode="&#xde;" horiz-adv-x="556" d="M206 549q34 3 69 3q129 0 191.5 -53.5t62.5 -147.5q0 -66 -21.5 -111t-58.5 -73t-86 -40.5t-104 -12.5h-52v-114h-138v669q1 0 7 0.5t13.5 1.5t16 1.5t15.5 0.5q15 0 30 -2.5t27 -10t20 -21.5t8 -37v-53zM389 344q0 61 -36.5 87t-92.5 26h-30t-24 -2v-243h31 q73 0 112.5 29t39.5 103z" />
<glyph unicode="&#xdf;" horiz-adv-x="618" d="M385 535q0 33 -24 54.5t-67 21.5q-47 0 -71 -24t-24 -75v-512h-135v516q0 21 2.5 40.5t7.5 35.5q20 62 76.5 93.5t141.5 31.5q45 0 84 -9.5t68 -28.5t45.5 -47.5t16.5 -65.5q0 -35 -15 -60t-33.5 -46t-33.5 -40t-15 -41t13 -36.5t33 -26.5t43 -24.5t43 -31t33 -45 t13 -66.5q0 -34 -12 -64t-35 -52t-57.5 -35t-79.5 -13q-47 0 -78.5 8.5t-52.5 20.5q-17 10 -25 19t-8 25q0 15 11 34t25 39q18 -16 48 -32t69 -16q29 0 48 14.5t19 43.5q0 21 -13 35t-32 25.5t-41.5 23t-41.5 26t-32 35t-13 50.5q0 35 15.5 59.5t34 45.5t34 43t15.5 51z" />
<glyph unicode="&#xe0;" horiz-adv-x="517" d="M453 116q0 -79 23 -115q-18 -7 -33.5 -10t-32.5 -3q-36 0 -54.5 14t-23.5 40q-22 -23 -58 -39t-88 -16q-27 0 -54 7.5t-49 24.5t-36 45.5t-14 69.5q0 51 24.5 83t61.5 50.5t80 25.5t79 9q12 1 23.5 1h21.5v18q0 38 -20.5 54t-66.5 16q-43 0 -76.5 -14t-65.5 -32 q-14 17 -22.5 37.5t-8.5 30.5q0 14 15.5 27t42.5 23.5t62 17t74 6.5q54 0 91.5 -11t61 -34t33.5 -57.5t10 -80.5v-188zM325 232h-14t-14 -1q-25 -2 -49.5 -6t-43.5 -14t-31 -26t-12 -41q0 -28 16 -47.5t54 -19.5q19 0 36 5t30 13t20.5 17.5t7.5 17.5v102zM100 679 q13 11 35.5 22t40.5 11q21 0 35.5 -9.5t28.5 -28.5l82 -116q-9 -8 -28 -14t-33 -6q-33 0 -56 26z" />
<glyph unicode="&#xe1;" horiz-adv-x="517" d="M453 116q0 -79 23 -115q-18 -7 -33.5 -10t-32.5 -3q-36 0 -54.5 14t-23.5 40q-22 -23 -58 -39t-88 -16q-27 0 -54 7.5t-49 24.5t-36 45.5t-14 69.5q0 51 24.5 83t61.5 50.5t80 25.5t79 9q12 1 23.5 1h21.5v18q0 38 -20.5 54t-66.5 16q-43 0 -76.5 -14t-65.5 -32 q-14 17 -22.5 37.5t-8.5 30.5q0 14 15.5 27t42.5 23.5t62 17t74 6.5q54 0 91.5 -11t61 -34t33.5 -57.5t10 -80.5v-188zM325 232h-14t-14 -1q-25 -2 -49.5 -6t-43.5 -14t-31 -26t-12 -41q0 -28 16 -47.5t54 -19.5q19 0 36 5t30 13t20.5 17.5t7.5 17.5v102zM312 564 q-23 -26 -56 -26q-14 0 -33 6t-28 14l82 116q14 19 28.5 28.5t35.5 9.5q18 0 40.5 -11t35.5 -22z" />
<glyph unicode="&#xe2;" horiz-adv-x="517" d="M453 116q0 -79 23 -115q-18 -7 -33.5 -10t-32.5 -3q-36 0 -54.5 14t-23.5 40q-22 -23 -58 -39t-88 -16q-27 0 -54 7.5t-49 24.5t-36 45.5t-14 69.5q0 51 24.5 83t61.5 50.5t80 25.5t79 9q12 1 23.5 1h21.5v18q0 38 -20.5 54t-66.5 16q-43 0 -76.5 -14t-65.5 -32 q-14 17 -22.5 37.5t-8.5 30.5q0 14 15.5 27t42.5 23.5t62 17t74 6.5q54 0 91.5 -11t61 -34t33.5 -57.5t10 -80.5v-188zM325 232h-14t-14 -1q-25 -2 -49.5 -6t-43.5 -14t-31 -26t-12 -41q0 -28 16 -47.5t54 -19.5q19 0 36 5t30 13t20.5 17.5t7.5 17.5v102zM260 625l-59 -67 q-11 -13 -23.5 -16t-24.5 -3q-13 0 -28 4t-23 11l91 126q11 15 29 22t39 7q20 0 38 -6t29 -23l91 -128q-10 -6 -23 -10t-25 -4q-16 0 -29.5 6t-27.5 21z" />
<glyph unicode="&#xe3;" horiz-adv-x="517" d="M453 116q0 -79 23 -115q-18 -7 -33.5 -10t-32.5 -3q-36 0 -54.5 14t-23.5 40q-22 -23 -58 -39t-88 -16q-27 0 -54 7.5t-49 24.5t-36 45.5t-14 69.5q0 51 24.5 83t61.5 50.5t80 25.5t79 9q12 1 23.5 1h21.5v18q0 38 -20.5 54t-66.5 16q-43 0 -76.5 -14t-65.5 -32 q-14 17 -22.5 37.5t-8.5 30.5q0 14 15.5 27t42.5 23.5t62 17t74 6.5q54 0 91.5 -11t61 -34t33.5 -57.5t10 -80.5v-188zM325 232h-14t-14 -1q-25 -2 -49.5 -6t-43.5 -14t-31 -26t-12 -41q0 -28 16 -47.5t54 -19.5q19 0 36 5t30 13t20.5 17.5t7.5 17.5v102zM328 559 q-24 0 -43 6t-34.5 12.5t-29.5 12.5t-29 6q-23 0 -39.5 -12t-32.5 -31q-12 10 -24.5 23.5t-12.5 29.5q0 14 10 27t25.5 22.5t34.5 15t37 5.5q22 0 39 -6t32 -12.5t29 -12.5t29 -6q22 0 37 10.5t30 33.5q11 -10 25 -25t14 -31q0 -15 -8.5 -27.5t-22.5 -21.5t-31.5 -14 t-34.5 -5z" />
<glyph unicode="&#xe4;" horiz-adv-x="517" d="M453 116q0 -79 23 -115q-18 -7 -33.5 -10t-32.5 -3q-36 0 -54.5 14t-23.5 40q-22 -23 -58 -39t-88 -16q-27 0 -54 7.5t-49 24.5t-36 45.5t-14 69.5q0 51 24.5 83t61.5 50.5t80 25.5t79 9q12 1 23.5 1h21.5v18q0 38 -20.5 54t-66.5 16q-43 0 -76.5 -14t-65.5 -32 q-14 17 -22.5 37.5t-8.5 30.5q0 14 15.5 27t42.5 23.5t62 17t74 6.5q54 0 91.5 -11t61 -34t33.5 -57.5t10 -80.5v-188zM325 232h-14t-14 -1q-25 -2 -49.5 -6t-43.5 -14t-31 -26t-12 -41q0 -28 16 -47.5t54 -19.5q19 0 36 5t30 13t20.5 17.5t7.5 17.5v102zM430 619 q0 -29 -19 -46.5t-46 -17.5q-28 0 -47 17.5t-19 46.5q0 28 19.5 46t46.5 18t46 -18t19 -46zM224 619q0 -29 -19 -46.5t-46 -17.5q-28 0 -47 17.5t-19 46.5q0 28 19.5 46t46.5 18t46 -18t19 -46z" />
<glyph unicode="&#xe5;" horiz-adv-x="517" d="M453 116q0 -79 23 -115q-18 -7 -33.5 -10t-32.5 -3q-36 0 -54.5 14t-23.5 40q-22 -23 -58 -39t-88 -16q-27 0 -54 7.5t-49 24.5t-36 45.5t-14 69.5q0 51 24.5 83t61.5 50.5t80 25.5t79 9q12 1 23.5 1h21.5v18q0 38 -20.5 54t-66.5 16q-43 0 -76.5 -14t-65.5 -32 q-14 17 -22.5 37.5t-8.5 30.5q0 14 15.5 27t42.5 23.5t62 17t74 6.5q54 0 91.5 -11t61 -34t33.5 -57.5t10 -80.5v-188zM325 232h-14t-14 -1q-25 -2 -49.5 -6t-43.5 -14t-31 -26t-12 -41q0 -28 16 -47.5t54 -19.5q19 0 36 5t30 13t20.5 17.5t7.5 17.5v102zM371 657 q0 -23 -8 -44t-22 -37t-35 -25t-46 -9q-26 0 -47 9t-35.5 24.5t-22 36.5t-7.5 44t7.5 44t22 36.5t35.5 25t47 9.5q25 0 46 -9t35 -25t22 -36.5t8 -43.5zM313 656q0 25 -14.5 43t-38.5 18q-25 0 -39.5 -18t-14.5 -42q0 -25 14 -43.5t40 -18.5q24 0 38.5 18.5t14.5 42.5z" />
<glyph unicode="&#xe6;" horiz-adv-x="788" d="M584 85q25 0 44 5.5t34 13.5t26 17.5t20 17.5q12 -15 25 -38.5t13 -38.5q0 -22 -25 -40q-21 -16 -59.5 -27.5t-90.5 -11.5q-54 0 -105.5 15t-88.5 57q-11 -11 -27 -23t-38.5 -22.5t-51 -17t-63.5 -6.5q-31 0 -60.5 7t-52.5 24t-37 45t-14 70q0 39 14.5 66.5t38.5 46 t54.5 29t63 16t63.5 7t56 1.5v20q0 38 -20.5 56t-66.5 18q-43 0 -76.5 -14t-65.5 -32q-14 17 -22.5 37t-8.5 30q0 14 15.5 27t42 23.5t60.5 17t71 6.5q57 0 93 -17t60 -43q62 60 152 60q52 0 89 -17.5t60.5 -46.5t34.5 -67t11 -80q0 -11 -0.5 -29t-2.5 -29h-294 q2 -27 10 -51t23.5 -42.5t39 -29t56.5 -10.5zM231 77q17 0 34 5t31.5 12.5t26 16t16.5 16.5q-8 23 -12.5 45t-5.5 54q-23 0 -50.5 -2.5t-52 -10.5t-41 -24.5t-16.5 -44.5t16 -47.5t54 -19.5zM629 293q0 49 -18.5 76t-66.5 27q-41 0 -65 -25.5t-25 -77.5h175z" />
<glyph unicode="&#xe7;" horiz-adv-x="472" d="M346 -132q0 -22 -10 -39.5t-25.5 -30t-36 -19t-41.5 -6.5q-20 0 -34 9t-14 26q0 7 1.5 17.5t5.5 23.5q7 -4 16 -6.5t18 -2.5q16 0 25.5 5t9.5 18q0 12 -6.5 20.5t-14 16.5t-14 17t-6.5 24q0 20 11 37q4 4 6 9q-15 2 -31 6q-42 10 -78 38t-60 77.5t-24 129.5q0 76 25 124 t62 76t78.5 38.5t74.5 10.5q41 0 76 -9t58 -24q19 -12 26.5 -23t7.5 -26q0 -14 -9 -34.5t-23 -37.5q-16 17 -47 34t-69 17q-66 0 -94 -40.5t-28 -103.5q0 -32 6 -60t20.5 -49t37.5 -33t57 -12q22 0 40 5t32 12.5t24 16t15 14.5q11 -12 22.5 -35t11.5 -39q0 -10 -4 -19.5 t-17 -19.5q-19 -14 -54 -26q-29 -10 -70 -11v-1q-7 -9 -7 -20t8 -18.5t17 -17.5t17 -23.5t8 -35.5z" />
<glyph unicode="&#xe8;" horiz-adv-x="514" d="M310 85q25 0 44 5.5t34 13.5t26 17.5t20 17.5q12 -15 25 -38.5t13 -38.5q0 -22 -25 -40q-21 -16 -59.5 -27.5t-90.5 -11.5q-47 0 -92.5 12t-81 42t-57.5 80.5t-22 127.5q0 63 19.5 108.5t52 75.5t73.5 44t84 14q56 0 95 -17.5t63.5 -47t35.5 -67.5t11 -80v-14t-0.5 -17 t-1 -17.5t-1.5 -13.5h-294q4 -55 34 -91.5t95 -36.5zM355 288q0 48 -18.5 78t-66.5 30q-41 0 -65.5 -28.5t-24.5 -79.5h175zM130 679q13 11 35.5 22t40.5 11q21 0 35.5 -9.5t28.5 -28.5l82 -116q-9 -8 -28 -14t-33 -6q-33 0 -56 26z" />
<glyph unicode="&#xe9;" horiz-adv-x="514" d="M310 85q25 0 44 5.5t34 13.5t26 17.5t20 17.5q12 -15 25 -38.5t13 -38.5q0 -22 -25 -40q-21 -16 -59.5 -27.5t-90.5 -11.5q-47 0 -92.5 12t-81 42t-57.5 80.5t-22 127.5q0 63 19.5 108.5t52 75.5t73.5 44t84 14q56 0 95 -17.5t63.5 -47t35.5 -67.5t11 -80v-14t-0.5 -17 t-1 -17.5t-1.5 -13.5h-294q4 -55 34 -91.5t95 -36.5zM355 288q0 48 -18.5 78t-66.5 30q-41 0 -65.5 -28.5t-24.5 -79.5h175zM344 564q-23 -26 -56 -26q-14 0 -33 6t-28 14l82 116q14 19 28.5 28.5t35.5 9.5q18 0 40.5 -11t35.5 -22z" />
<glyph unicode="&#xea;" horiz-adv-x="514" d="M310 85q25 0 44 5.5t34 13.5t26 17.5t20 17.5q12 -15 25 -38.5t13 -38.5q0 -22 -25 -40q-21 -16 -59.5 -27.5t-90.5 -11.5q-47 0 -92.5 12t-81 42t-57.5 80.5t-22 127.5q0 63 19.5 108.5t52 75.5t73.5 44t84 14q56 0 95 -17.5t63.5 -47t35.5 -67.5t11 -80v-14t-0.5 -17 t-1 -17.5t-1.5 -13.5h-294q4 -55 34 -91.5t95 -36.5zM355 288q0 48 -18.5 78t-66.5 30q-41 0 -65.5 -28.5t-24.5 -79.5h175zM280 625l-59 -67q-11 -13 -23.5 -16t-24.5 -3q-13 0 -28 4t-23 11l91 126q11 15 29 22t39 7q20 0 38 -6t29 -23l91 -128q-10 -6 -23 -10t-25 -4 q-16 0 -29.5 6t-27.5 21z" />
<glyph unicode="&#xeb;" horiz-adv-x="514" d="M310 85q25 0 44 5.5t34 13.5t26 17.5t20 17.5q12 -15 25 -38.5t13 -38.5q0 -22 -25 -40q-21 -16 -59.5 -27.5t-90.5 -11.5q-47 0 -92.5 12t-81 42t-57.5 80.5t-22 127.5q0 63 19.5 108.5t52 75.5t73.5 44t84 14q56 0 95 -17.5t63.5 -47t35.5 -67.5t11 -80v-14t-0.5 -17 t-1 -17.5t-1.5 -13.5h-294q4 -55 34 -91.5t95 -36.5zM355 288q0 48 -18.5 78t-66.5 30q-41 0 -65.5 -28.5t-24.5 -79.5h175zM454 619q0 -29 -19 -46.5t-46 -17.5q-28 0 -47 17.5t-19 46.5q0 28 19.5 46t46.5 18t46 -18t19 -46zM248 619q0 -29 -19 -46.5t-46 -17.5 q-28 0 -47 17.5t-19 46.5q0 28 19.5 46t46.5 18t46 -18t19 -46z" />
<glyph unicode="&#xec;" horiz-adv-x="264" d="M200 -6q0 -1 -15 -2.5t-31 -1.5t-32 3.5t-29 13t-21 25.5t-8 41v400q0 1 15 2.5t31 1.5t32 -3t29 -11.5t21 -24t8 -40.5v-404zM-18 679q13 11 35.5 22t40.5 11q21 0 35.5 -9.5t28.5 -28.5l82 -116q-9 -8 -28 -14t-33 -6q-33 0 -56 26z" />
<glyph unicode="&#xed;" horiz-adv-x="264" d="M200 -6q0 -1 -15 -2.5t-31 -1.5t-32 3.5t-29 13t-21 25.5t-8 41v400q0 1 15 2.5t31 1.5t32 -3t29 -11.5t21 -24t8 -40.5v-404zM182 564q-23 -26 -56 -26q-14 0 -33 6t-28 14l82 116q14 19 28.5 28.5t35.5 9.5q18 0 40.5 -11t35.5 -22z" />
<glyph unicode="&#xee;" horiz-adv-x="264" d="M200 -6q0 -1 -15 -2.5t-31 -1.5t-32 3.5t-29 13t-21 25.5t-8 41v400q0 1 15 2.5t31 1.5t32 -3t29 -11.5t21 -24t8 -40.5v-404zM128 625l-59 -67q-11 -13 -23.5 -16t-24.5 -3q-13 0 -28 4t-23 11l91 126q11 15 29 22t39 7q20 0 38 -6t29 -23l91 -128q-10 -6 -23 -10 t-25 -4q-16 0 -29.5 6t-27.5 21z" />
<glyph unicode="&#xef;" horiz-adv-x="264" d="M200 -6q0 -1 -15 -2.5t-31 -1.5t-32 3.5t-29 13t-21 25.5t-8 41v400q0 1 15 2.5t31 1.5t32 -3t29 -11.5t21 -24t8 -40.5v-404zM306 619q0 -29 -19 -46.5t-46 -17.5q-28 0 -47 17.5t-19 46.5q0 28 19.5 46t46.5 18t46 -18t19 -46zM100 619q0 -29 -19 -46.5t-46 -17.5 q-28 0 -47 17.5t-19 46.5q0 28 19.5 46t46.5 18t46 -18t19 -46z" />
<glyph unicode="&#xf0;" horiz-adv-x="557" d="M198 483l-50 62l61 41q-24 11 -52 17t-55 10q8 45 25 66t44 21q23 0 61.5 -11t78.5 -31l84 60l52 -60l-65 -47q34 -28 60 -66.5t43 -83t26 -92.5t9 -94q0 -72 -17 -126t-48.5 -90.5t-76 -54.5t-99.5 -18q-52 0 -95 14.5t-74 44.5t-48 76t-17 109q0 56 17 97.5t46.5 68.5 t68 40.5t81.5 13.5q35 0 63 -10.5t47 -24.5q-14 34 -35.5 67t-48.5 56zM383 258q0 25 -2 40.5t-7 32.5q-19 13 -40 20t-44 7q-56 0 -80.5 -36.5t-24.5 -92.5q0 -72 26 -106t71 -34q22 0 40.5 9t32 29.5t21 52.5t7.5 78z" />
<glyph unicode="&#xf1;" horiz-adv-x="562" d="M201 0h-137v473q5 1 12 2q6 1 14 1.5t19 0.5q32 0 55.5 -11.5t29.5 -40.5q17 23 52.5 42.5t94.5 19.5q71 0 105 -28t44 -74q5 -23 6.5 -50t1.5 -53v-282h-136v276q0 22 -1.5 41t-8 32.5t-21 21t-40.5 7.5q-37 0 -63.5 -15.5t-26.5 -38.5v-324zM361 559q-24 0 -43 6 t-34.5 12.5t-29.5 12.5t-29 6q-23 0 -39.5 -12t-32.5 -31q-12 10 -24.5 23.5t-12.5 29.5q0 14 10 27t25.5 22.5t34.5 15t37 5.5q22 0 39 -6t32 -12.5t29 -12.5t29 -6q22 0 37 10.5t30 33.5q11 -10 25 -25t14 -31q0 -15 -8.5 -27.5t-22.5 -21.5t-31.5 -14t-34.5 -5z" />
<glyph unicode="&#xf2;" horiz-adv-x="559" d="M515 239q0 -50 -12.5 -96t-41 -81t-73.5 -56t-109 -21t-108.5 20.5t-72.5 55t-41 80t-13 95.5q0 51 15 96.5t44.5 80t74.5 54.5t105 20q63 0 107.5 -20t72 -54t40 -79t12.5 -95zM378 238q0 27 -4 53.5t-15 46.5t-30 32.5t-48 12.5t-48.5 -13t-31 -33.5t-16.5 -46.5 t-5 -53t4.5 -54t15.5 -48.5t30.5 -34.5t48.5 -13q30 0 49.5 13t30.5 34.5t15 48.5t4 55zM137 679q13 11 35.5 22t40.5 11q21 0 35.5 -9.5t28.5 -28.5l82 -116q-9 -8 -28 -14t-33 -6q-33 0 -56 26z" />
<glyph unicode="&#xf3;" horiz-adv-x="559" d="M515 239q0 -50 -12.5 -96t-41 -81t-73.5 -56t-109 -21t-108.5 20.5t-72.5 55t-41 80t-13 95.5q0 51 15 96.5t44.5 80t74.5 54.5t105 20q63 0 107.5 -20t72 -54t40 -79t12.5 -95zM378 238q0 27 -4 53.5t-15 46.5t-30 32.5t-48 12.5t-48.5 -13t-31 -33.5t-16.5 -46.5 t-5 -53t4.5 -54t15.5 -48.5t30.5 -34.5t48.5 -13q30 0 49.5 13t30.5 34.5t15 48.5t4 55zM356 564q-23 -26 -56 -26q-14 0 -33 6t-28 14l82 116q14 19 28.5 28.5t35.5 9.5q18 0 40.5 -11t35.5 -22z" />
<glyph unicode="&#xf4;" horiz-adv-x="559" d="M515 239q0 -50 -12.5 -96t-41 -81t-73.5 -56t-109 -21t-108.5 20.5t-72.5 55t-41 80t-13 95.5q0 51 15 96.5t44.5 80t74.5 54.5t105 20q63 0 107.5 -20t72 -54t40 -79t12.5 -95zM378 238q0 27 -4 53.5t-15 46.5t-30 32.5t-48 12.5t-48.5 -13t-31 -33.5t-16.5 -46.5 t-5 -53t4.5 -54t15.5 -48.5t30.5 -34.5t48.5 -13q30 0 49.5 13t30.5 34.5t15 48.5t4 55zM284 625l-59 -67q-11 -13 -23.5 -16t-24.5 -3q-13 0 -28 4t-23 11l91 126q11 15 29 22t39 7q20 0 38 -6t29 -23l91 -128q-10 -6 -23 -10t-25 -4q-16 0 -29.5 6t-27.5 21z" />
<glyph unicode="&#xf5;" horiz-adv-x="559" d="M515 239q0 -50 -12.5 -96t-41 -81t-73.5 -56t-109 -21t-108.5 20.5t-72.5 55t-41 80t-13 95.5q0 51 15 96.5t44.5 80t74.5 54.5t105 20q63 0 107.5 -20t72 -54t40 -79t12.5 -95zM378 238q0 27 -4 53.5t-15 46.5t-30 32.5t-48 12.5t-48.5 -13t-31 -33.5t-16.5 -46.5 t-5 -53t4.5 -54t15.5 -48.5t30.5 -34.5t48.5 -13q30 0 49.5 13t30.5 34.5t15 48.5t4 55zM352 559q-24 0 -43 6t-34.5 12.5t-29.5 12.5t-29 6q-23 0 -39.5 -12t-32.5 -31q-12 10 -24.5 23.5t-12.5 29.5q0 14 10 27t25.5 22.5t34.5 15t37 5.5q22 0 39 -6t32 -12.5t29 -12.5 t29 -6q22 0 37 10.5t30 33.5q11 -10 25 -25t14 -31q0 -15 -8.5 -27.5t-22.5 -21.5t-31.5 -14t-34.5 -5z" />
<glyph unicode="&#xf6;" horiz-adv-x="559" d="M515 239q0 -50 -12.5 -96t-41 -81t-73.5 -56t-109 -21t-108.5 20.5t-72.5 55t-41 80t-13 95.5q0 51 15 96.5t44.5 80t74.5 54.5t105 20q63 0 107.5 -20t72 -54t40 -79t12.5 -95zM378 238q0 27 -4 53.5t-15 46.5t-30 32.5t-48 12.5t-48.5 -13t-31 -33.5t-16.5 -46.5 t-5 -53t4.5 -54t15.5 -48.5t30.5 -34.5t48.5 -13q30 0 49.5 13t30.5 34.5t15 48.5t4 55zM456 619q0 -29 -19 -46.5t-46 -17.5q-28 0 -47 17.5t-19 46.5q0 28 19.5 46t46.5 18t46 -18t19 -46zM250 619q0 -29 -19 -46.5t-46 -17.5q-28 0 -47 17.5t-19 46.5q0 28 19.5 46 t46.5 18t46 -18t19 -46z" />
<glyph unicode="&#xf7;" horiz-adv-x="549" d="M344 160q0 -29 -20 -49t-50 -20t-50 20t-20 49t20 49t50 20t50 -20t20 -49zM56 279v112h437v-112h-437zM344 509q0 -29 -20 -49t-50 -20t-50 20t-20 49q0 30 20 49.5t50 19.5t50 -19.5t20 -49.5z" />
<glyph unicode="&#xf8;" horiz-adv-x="559" d="M515 239q0 -50 -12.5 -96t-41 -81t-73.5 -56t-109 -21t-109 20l-1 1l-52 -76l-59 34l55 80q-8 8 -15 16q-28 35 -41 80.5t-13 95.5q0 51 15 96.5t44.5 80t74.5 54.5t105 20q63 0 107 -20q5 -2 9 -4l45 66l59 -32l-50 -73q5 -6 9 -11q28 -34 40.5 -79t12.5 -95zM329 370 q-19 13 -48 13t-48.5 -13t-31 -33.5t-16.5 -46.5t-5 -53t4 -54q2 -14 6 -26l143 210q-2 2 -4 3zM378 238q0 27 -4 53q-1 7 -3 13l-139 -205q19 -12 47 -12q30 0 49.5 13t30.5 34.5t15 48.5t4 55z" />
<glyph unicode="&#xf9;" horiz-adv-x="561" d="M361 474q1 0 16 1.5t29 1.5q17 0 33.5 -4t29 -13t20.5 -24.5t8 -39.5v-396h-91q-25 0 -31.5 13.5t-6.5 39.5q-17 -23 -52.5 -42.5t-94.5 -19.5q-71 0 -105 28t-44 74q-5 23 -6.5 50t-1.5 53v278q7 0 15 1q7 1 14.5 1.5t14.5 0.5q40 0 66 -17t26 -61v-197q0 -22 1.5 -41 t8 -32.5t21 -21t40.5 -7.5q37 0 63.5 15.5t26.5 38.5v320zM133 679q13 11 35.5 22t40.5 11q21 0 35.5 -9.5t28.5 -28.5l82 -116q-9 -8 -28 -14t-33 -6q-33 0 -56 26z" />
<glyph unicode="&#xfa;" horiz-adv-x="561" d="M361 474q1 0 16 1.5t29 1.5q17 0 33.5 -4t29 -13t20.5 -24.5t8 -39.5v-396h-91q-25 0 -31.5 13.5t-6.5 39.5q-17 -23 -52.5 -42.5t-94.5 -19.5q-71 0 -105 28t-44 74q-5 23 -6.5 50t-1.5 53v278q7 0 15 1q7 1 14.5 1.5t14.5 0.5q40 0 66 -17t26 -61v-197q0 -22 1.5 -41 t8 -32.5t21 -21t40.5 -7.5q37 0 63.5 15.5t26.5 38.5v320zM348 564q-23 -26 -56 -26q-14 0 -33 6t-28 14l82 116q14 19 28.5 28.5t35.5 9.5q18 0 40.5 -11t35.5 -22z" />
<glyph unicode="&#xfb;" horiz-adv-x="561" d="M361 474q1 0 16 1.5t29 1.5q17 0 33.5 -4t29 -13t20.5 -24.5t8 -39.5v-396h-91q-25 0 -31.5 13.5t-6.5 39.5q-17 -23 -52.5 -42.5t-94.5 -19.5q-71 0 -105 28t-44 74q-5 23 -6.5 50t-1.5 53v278q7 0 15 1q7 1 14.5 1.5t14.5 0.5q40 0 66 -17t26 -61v-197q0 -22 1.5 -41 t8 -32.5t21 -21t40.5 -7.5q37 0 63.5 15.5t26.5 38.5v320zM280 625l-59 -67q-11 -13 -23.5 -16t-24.5 -3q-13 0 -28 4t-23 11l91 126q11 15 29 22t39 7q20 0 38 -6t29 -23l91 -128q-10 -6 -23 -10t-25 -4q-16 0 -29.5 6t-27.5 21z" />
<glyph unicode="&#xfc;" horiz-adv-x="561" d="M361 474q1 0 16 1.5t29 1.5q17 0 33.5 -4t29 -13t20.5 -24.5t8 -39.5v-396h-91q-25 0 -31.5 13.5t-6.5 39.5q-17 -23 -52.5 -42.5t-94.5 -19.5q-71 0 -105 28t-44 74q-5 23 -6.5 50t-1.5 53v278q7 0 15 1q7 1 14.5 1.5t14.5 0.5q40 0 66 -17t26 -61v-197q0 -22 1.5 -41 t8 -32.5t21 -21t40.5 -7.5q37 0 63.5 15.5t26.5 38.5v320zM454 619q0 -29 -19 -46.5t-46 -17.5q-28 0 -47 17.5t-19 46.5q0 28 19.5 46t46.5 18t46 -18t19 -46zM248 619q0 -29 -19 -46.5t-46 -17.5q-28 0 -47 17.5t-19 46.5q0 28 19.5 46t46.5 18t46 -18t19 -46z" />
<glyph unicode="&#xfd;" horiz-adv-x="494" d="M322 -82q-20 -65 -66.5 -105t-127.5 -40q-44 0 -73.5 13t-29.5 44q0 14 7.5 31t20.5 38q11 -8 29 -14t38 -6q31 0 51 17t34 58l17 50h-62l-154 462q15 5 36.5 8t39.5 3q28 0 49.5 -15t30.5 -46l90 -308l74 269q6 21 13 39t18.5 31.5t27.5 21.5t39 8q19 0 34 -3.5t30 -9.5 zM316 564q-23 -26 -56 -26q-14 0 -33 6t-28 14l82 116q14 19 28.5 28.5t35.5 9.5q18 0 40.5 -11t35.5 -22z" />
<glyph unicode="&#xfe;" horiz-adv-x="547" d="M64 705q2 0 18 2t33 2q16 0 31.5 -3t26.5 -11t18 -22.5t7 -37.5v-204q7 9 19.5 18.5t29 18t37 14t45.5 5.5q36 0 70 -12.5t60 -40.5t42 -74t16 -113q0 -76 -18 -126t-46.5 -79t-64 -41t-69.5 -12q-29 0 -50.5 6t-36.5 14.5t-23 16t-10 10.5v-254h-135v923zM375 244 q0 30 -5 56t-16.5 45t-31 29.5t-47.5 10.5q-42 0 -58.5 -16t-16.5 -35v-209q8 -8 28 -19t47 -11q51 0 75.5 39t24.5 110z" />
<glyph unicode="&#xff;" horiz-adv-x="494" d="M322 -82q-20 -65 -66.5 -105t-127.5 -40q-44 0 -73.5 13t-29.5 44q0 14 7.5 31t20.5 38q11 -8 29 -14t38 -6q31 0 51 17t34 58l17 50h-62l-154 462q15 5 36.5 8t39.5 3q28 0 49.5 -15t30.5 -46l90 -308l74 269q6 21 13 39t18.5 31.5t27.5 21.5t39 8q19 0 34 -3.5t30 -9.5 zM422 619q0 -29 -19 -46.5t-46 -17.5q-28 0 -47 17.5t-19 46.5q0 28 19.5 46t46.5 18t46 -18t19 -46zM216 619q0 -29 -19 -46.5t-46 -17.5q-28 0 -47 17.5t-19 46.5q0 28 19.5 46t46.5 18t46 -18t19 -46z" />
<glyph unicode="&#x100;" horiz-adv-x="633" d="M485 0l-57 164h-231l-55 -164h-136l232 660q12 5 33.5 9.5t46.5 4.5q11 0 24.5 -2t26.5 -8.5t24.5 -18.5t18.5 -33l215 -612h-142zM314 549l-91 -285h179zM224 752q-38 0 -51 12.5t-13 38.5q0 11 0.5 18.5t1.5 18.5h241q32 0 50 -9t18 -45q0 -9 -0.5 -17t-1.5 -17h-245z " />
<glyph unicode="&#x101;" horiz-adv-x="517" d="M453 116q0 -79 23 -115q-18 -7 -33.5 -10t-32.5 -3q-36 0 -54.5 14t-23.5 40q-22 -23 -58 -39t-88 -16q-27 0 -54 7.5t-49 24.5t-36 45.5t-14 69.5q0 51 24.5 83t61.5 50.5t80 25.5t79 9q12 1 23.5 1h21.5v18q0 38 -20.5 54t-66.5 16q-43 0 -76.5 -14t-65.5 -32 q-14 17 -22.5 37.5t-8.5 30.5q0 14 15.5 27t42.5 23.5t62 17t74 6.5q54 0 91.5 -11t61 -34t33.5 -57.5t10 -80.5v-188zM325 232h-14t-14 -1q-25 -2 -49.5 -6t-43.5 -14t-31 -26t-12 -41q0 -28 16 -47.5t54 -19.5q19 0 36 5t30 13t20.5 17.5t7.5 17.5v102zM166 568 q-38 0 -51 12.5t-13 38.5q0 11 0.5 18.5t1.5 18.5h241q32 0 50 -9t18 -45q0 -9 -0.5 -17t-1.5 -17h-245z" />
<glyph unicode="&#x102;" horiz-adv-x="633" d="M485 0l-57 164h-231l-55 -164h-136l232 660q12 5 33.5 9.5t46.5 4.5q11 0 24.5 -2t26.5 -8.5t24.5 -18.5t18.5 -33l215 -612h-142zM314 549l-91 -285h179zM479 874q-5 -30 -17 -56t-32.5 -46t-49 -31.5t-65.5 -11.5q-67 0 -109 36t-52 111q7 5 21 9t28 4t22 -6.5 t15 -23.5q11 -29 28.5 -43t49.5 -14q31 0 47 14.5t30 41.5q8 16 16 23.5t22 7.5q12 0 25 -5t21 -10z" />
<glyph unicode="&#x103;" horiz-adv-x="517" d="M453 116q0 -79 23 -115q-18 -7 -33.5 -10t-32.5 -3q-36 0 -54.5 14t-23.5 40q-22 -23 -58 -39t-88 -16q-27 0 -54 7.5t-49 24.5t-36 45.5t-14 69.5q0 51 24.5 83t61.5 50.5t80 25.5t79 9q12 1 23.5 1h21.5v18q0 38 -20.5 54t-66.5 16q-43 0 -76.5 -14t-65.5 -32 q-14 17 -22.5 37.5t-8.5 30.5q0 14 15.5 27t42.5 23.5t62 17t74 6.5q54 0 91.5 -11t61 -34t33.5 -57.5t10 -80.5v-188zM325 232h-14t-14 -1q-25 -2 -49.5 -6t-43.5 -14t-31 -26t-12 -41q0 -28 16 -47.5t54 -19.5q19 0 36 5t30 13t20.5 17.5t7.5 17.5v102zM423 686 q-5 -30 -17 -56t-32.5 -46t-49 -31.5t-65.5 -11.5q-67 0 -109 36t-52 111q7 5 21 9t28 4t22 -6.5t15 -23.5q11 -29 28.5 -43t49.5 -14q31 0 47 14.5t30 41.5q8 16 16 23.5t22 7.5q12 0 25 -5t21 -10z" />
<glyph unicode="&#x104;" horiz-adv-x="633" d="M627 0q-28 -6 -48 -19t-33.5 -28.5t-20 -33t-6.5 -32.5q0 -21 9.5 -30.5t24.5 -9.5q16 0 27.5 8t18.5 16q8 -8 15.5 -19t7.5 -24q0 -12 -8 -21.5t-21 -16t-28.5 -10t-31.5 -3.5q-47 0 -75.5 22t-28.5 69q0 44 25 78.5t60 53.5h-29l-57 164h-231l-55 -164h-136l232 660 q12 5 33.5 9.5t46.5 4.5q11 0 24.5 -2t26.5 -8.5t24.5 -18.5t18.5 -33zM314 549l-91 -285h179z" />
<glyph unicode="&#x105;" horiz-adv-x="517" d="M453 116q0 -79 23 -115q-17 -6 -32.5 -17t-28 -26t-20 -33.5t-7.5 -38.5q0 -21 7.5 -30t23.5 -9q15 0 25.5 8t17.5 16q8 -8 16 -20t8 -23q0 -12 -8 -21.5t-21 -16t-29 -10t-31 -3.5q-45 0 -73 21.5t-28 66.5q0 22 7 41t18 35t24.5 29t27.5 23q-34 12 -41 49 q-22 -23 -58 -39t-88 -16q-27 0 -54 7.5t-49 24.5t-36 45.5t-14 69.5q0 51 24.5 83t61.5 50.5t80 25.5t79 9q12 1 23.5 1h21.5v18q0 38 -20.5 54t-66.5 16q-43 0 -76.5 -14t-65.5 -32q-14 17 -22.5 37.5t-8.5 30.5q0 14 15.5 27t42.5 23.5t62 17t74 6.5q54 0 91.5 -11 t61 -34t33.5 -57.5t10 -80.5v-188zM325 232h-14t-14 -1q-25 -2 -49.5 -6t-43.5 -14t-31 -26t-12 -41q0 -28 16 -47.5t54 -19.5q19 0 36 5t30 13t20.5 17.5t7.5 17.5v102z" />
<glyph unicode="&#x106;" horiz-adv-x="607" d="M547 38q-6 -6 -20 -15t-36.5 -18t-55 -15.5t-74.5 -6.5q-81 0 -140 26t-97.5 72.5t-56.5 110t-18 139.5t19.5 140.5t58.5 111.5t97.5 73.5t137.5 26.5q39 0 70.5 -7t55 -16.5t39 -20t23.5 -17.5q9 -8 15.5 -19t6.5 -24q0 -20 -15 -40t-33 -37q-12 12 -27 24.5t-33.5 22 t-42 16t-52.5 6.5q-51 0 -85.5 -20.5t-55.5 -53.5t-30 -75.5t-9 -86.5q0 -47 9 -90t31 -76t57.5 -53t88.5 -20q28 0 51.5 7t41.5 17t31.5 21t22.5 19q6 -7 14 -17t15 -21t12 -22t5 -20q0 -13 -5 -22t-16 -20zM387 742q-11 -7 -23 -11.5t-24 -4.5q-17 0 -34 11.5t-28 24.5 l111 90q11 9 24 16t27 7q23 0 41.5 -17t31.5 -37z" />
<glyph unicode="&#x107;" horiz-adv-x="472" d="M303 86q22 0 40 5t32 12.5t24 16t15 14.5q11 -12 22.5 -35t11.5 -39q0 -10 -4 -19.5t-17 -19.5q-19 -14 -54 -26t-89 -12q-36 0 -78 10t-78 38t-60 77.5t-24 129.5q0 76 25 124t62 76t78.5 38.5t74.5 10.5q41 0 76 -9t58 -24q19 -12 26.5 -23t7.5 -26q0 -14 -9 -34.5 t-23 -37.5q-16 17 -47 34t-69 17q-66 0 -94 -40.5t-28 -103.5q0 -32 6 -60t20.5 -49t37.5 -33t57 -12zM337 564q-23 -26 -56 -26q-14 0 -33 6t-28 14l82 116q14 19 28.5 28.5t35.5 9.5q18 0 40.5 -11t35.5 -22z" />
<glyph unicode="&#x108;" horiz-adv-x="607" d="M547 38q-6 -6 -20 -15t-36.5 -18t-55 -15.5t-74.5 -6.5q-81 0 -140 26t-97.5 72.5t-56.5 110t-18 139.5t19.5 140.5t58.5 111.5t97.5 73.5t137.5 26.5q39 0 70.5 -7t55 -16.5t39 -20t23.5 -17.5q9 -8 15.5 -19t6.5 -24q0 -20 -15 -40t-33 -37q-12 12 -27 24.5t-33.5 22 t-42 16t-52.5 6.5q-51 0 -85.5 -20.5t-55.5 -53.5t-30 -75.5t-9 -86.5q0 -47 9 -90t31 -76t57.5 -53t88.5 -20q28 0 51.5 7t41.5 17t31.5 21t22.5 19q6 -7 14 -17t15 -21t12 -22t5 -20q0 -13 -5 -22t-16 -20zM351 796l-53 -52q-12 -11 -24.5 -15t-24.5 -4q-13 0 -27.5 4 t-22.5 11l87 108q24 29 65 29q39 0 64 -29l88 -110q-10 -6 -23.5 -10t-25.5 -4q-16 0 -28.5 4.5t-26.5 18.5z" />
<glyph unicode="&#x109;" horiz-adv-x="472" d="M303 86q22 0 40 5t32 12.5t24 16t15 14.5q11 -12 22.5 -35t11.5 -39q0 -10 -4 -19.5t-17 -19.5q-19 -14 -54 -26t-89 -12q-36 0 -78 10t-78 38t-60 77.5t-24 129.5q0 76 25 124t62 76t78.5 38.5t74.5 10.5q41 0 76 -9t58 -24q19 -12 26.5 -23t7.5 -26q0 -14 -9 -34.5 t-23 -37.5q-16 17 -47 34t-69 17q-66 0 -94 -40.5t-28 -103.5q0 -32 6 -60t20.5 -49t37.5 -33t57 -12zM276 625l-59 -67q-11 -13 -23.5 -16t-24.5 -3q-13 0 -28 4t-23 11l91 126q11 15 29 22t39 7q20 0 38 -6t29 -23l91 -128q-10 -6 -23 -10t-25 -4q-16 0 -29.5 6t-27.5 21z " />
<glyph unicode="&#x10a;" horiz-adv-x="607" d="M547 38q-6 -6 -20 -15t-36.5 -18t-55 -15.5t-74.5 -6.5q-81 0 -140 26t-97.5 72.5t-56.5 110t-18 139.5t19.5 140.5t58.5 111.5t97.5 73.5t137.5 26.5q39 0 70.5 -7t55 -16.5t39 -20t23.5 -17.5q9 -8 15.5 -19t6.5 -24q0 -20 -15 -40t-33 -37q-12 12 -27 24.5t-33.5 22 t-42 16t-52.5 6.5q-51 0 -85.5 -20.5t-55.5 -53.5t-30 -75.5t-9 -86.5q0 -47 9 -90t31 -76t57.5 -53t88.5 -20q28 0 51.5 7t41.5 17t31.5 21t22.5 19q6 -7 14 -17t15 -21t12 -22t5 -20q0 -13 -5 -22t-16 -20zM425 797q0 -30 -19.5 -48.5t-48.5 -18.5t-49 18.5t-20 48.5 t20 49.5t49 19.5t48.5 -19.5t19.5 -49.5z" />
<glyph unicode="&#x10b;" horiz-adv-x="472" d="M303 86q22 0 40 5t32 12.5t24 16t15 14.5q11 -12 22.5 -35t11.5 -39q0 -10 -4 -19.5t-17 -19.5q-19 -14 -54 -26t-89 -12q-36 0 -78 10t-78 38t-60 77.5t-24 129.5q0 76 25 124t62 76t78.5 38.5t74.5 10.5q41 0 76 -9t58 -24q19 -12 26.5 -23t7.5 -26q0 -14 -9 -34.5 t-23 -37.5q-16 17 -47 34t-69 17q-66 0 -94 -40.5t-28 -103.5q0 -32 6 -60t20.5 -49t37.5 -33t57 -12zM359 622q0 -31 -19.5 -49.5t-48.5 -18.5t-49 18.5t-20 49.5q0 30 20 49t49 19t48.5 -19t19.5 -49z" />
<glyph unicode="&#x10c;" horiz-adv-x="607" d="M547 38q-6 -6 -20 -15t-36.5 -18t-55 -15.5t-74.5 -6.5q-81 0 -140 26t-97.5 72.5t-56.5 110t-18 139.5t19.5 140.5t58.5 111.5t97.5 73.5t137.5 26.5q39 0 70.5 -7t55 -16.5t39 -20t23.5 -17.5q9 -8 15.5 -19t6.5 -24q0 -20 -15 -40t-33 -37q-12 12 -27 24.5t-33.5 22 t-42 16t-52.5 6.5q-51 0 -85.5 -20.5t-55.5 -53.5t-30 -75.5t-9 -86.5q0 -47 9 -90t31 -76t57.5 -53t88.5 -20q28 0 51.5 7t41.5 17t31.5 21t22.5 19q6 -7 14 -17t15 -21t12 -22t5 -20q0 -13 -5 -22t-16 -20zM403 854q14 14 26.5 18.5t28.5 4.5q12 0 25.5 -4t23.5 -10 l-88 -110q-25 -29 -64 -29q-41 0 -65 29l-87 108q8 7 22.5 11t27.5 4q12 0 24.5 -4t24.5 -15l53 -52z" />
<glyph unicode="&#x10d;" horiz-adv-x="472" d="M303 86q22 0 40 5t32 12.5t24 16t15 14.5q11 -12 22.5 -35t11.5 -39q0 -10 -4 -19.5t-17 -19.5q-19 -14 -54 -26t-89 -12q-36 0 -78 10t-78 38t-60 77.5t-24 129.5q0 76 25 124t62 76t78.5 38.5t74.5 10.5q41 0 76 -9t58 -24q19 -12 26.5 -23t7.5 -26q0 -14 -9 -34.5 t-23 -37.5q-16 17 -47 34t-69 17q-66 0 -94 -40.5t-28 -103.5q0 -32 6 -60t20.5 -49t37.5 -33t57 -12zM341 682q14 15 27.5 21t29.5 6q12 0 25 -4t23 -10l-91 -128q-11 -17 -29 -23t-38 -6q-21 0 -39 7t-29 22l-91 126q8 7 23 11t28 4q12 0 24.5 -3t23.5 -16l59 -67z" />
<glyph unicode="&#x10e;" horiz-adv-x="643" d="M601 346q0 -71 -19 -134t-58 -110t-99 -74.5t-143 -27.5h-213v664q64 8 109.5 10t78.5 2q100 0 166 -26.5t105.5 -71.5t56 -105t16.5 -127zM461 344q0 47 -9 88t-31 71.5t-59.5 48t-94.5 17.5q-29 0 -60 -3v-461h55q59 0 97.5 17.5t61 49t31.5 75.5t9 97zM336 854 q14 14 26.5 18.5t28.5 4.5q12 0 25.5 -4t23.5 -10l-88 -110q-25 -29 -64 -29q-41 0 -65 29l-87 108q8 7 22.5 11t27.5 4q12 0 24.5 -4t24.5 -15l53 -52z" />
<glyph unicode="&#x10f;" horiz-adv-x="594" d="M406 0q-17 0 -27 11.5t-10 29.5q-14 -17 -47.5 -35t-85.5 -18q-37 0 -71.5 12t-61.5 40t-43 74.5t-16 115.5t16.5 118t44 79.5t63 45t74.5 14.5q45 0 74 -15.5t43 -30.5v264q0 1 15 2.5t31 1.5t32.5 -3t29 -12t20.5 -24.5t8 -40.5v-629h-89zM184 237q0 -35 5 -63.5 t17 -48.5t32 -31t51 -11q29 0 49.5 12t20.5 34v225q-8 8 -27.5 19t-45.5 11q-52 0 -77 -38t-25 -109zM655 547q-3 -33 -21.5 -47.5t-50.5 -14.5h-9t-9 1v141q0 38 17 60t57 22q8 0 17.5 -0.5t14.5 -1.5z" />
<glyph unicode="&#x110;" horiz-adv-x="651" d="M609 346q0 -71 -17.5 -134t-55.5 -110t-97 -74.5t-142 -27.5h-220v300h-62v88h62v276q64 8 109.5 10t78.5 2q103 0 169.5 -26.5t105.5 -71.5t54 -105t15 -127zM469 344q0 47 -8.5 88.5t-30.5 72t-59.5 48.5t-95.5 18q-29 0 -60 -3v-180h134v-88h-134v-195h39 q62 0 103.5 19t66 51.5t35 76t10.5 92.5z" />
<glyph unicode="&#x111;" horiz-adv-x="559" d="M406 0q-17 0 -27 11.5t-10 29.5q-14 -17 -47.5 -35t-85.5 -18q-37 0 -71.5 12t-61.5 39.5t-43 71.5t-16 109q0 69 16.5 116t44 76.5t63 42t74.5 12.5q45 0 74 -15.5t43 -30.5v117h-171v88h171v79q0 1 15 2.5t31 1.5t32.5 -3t29 -12t20.5 -25.5t8 -42.5h63v-88h-63v-538 h-89zM184 229q0 -30 5 -56.5t17 -46.5t32 -31.5t51 -11.5q29 0 49.5 12t20.5 34v205q-8 8 -27.5 19t-45.5 11q-52 0 -77 -32t-25 -103z" />
<glyph unicode="&#x112;" horiz-adv-x="525" d="M421 106q24 0 40 -6t25.5 -16t13.5 -23t4 -26q0 -11 -0.5 -18.5t-1.5 -16.5h-433v670h417q2 -11 2.5 -18.5t0.5 -18.5q0 -35 -18 -52.5t-67 -17.5h-197v-165h212v-107h-212v-185h214zM181 752q-38 0 -51 12.5t-13 38.5q0 11 0.5 18.5t1.5 18.5h241q32 0 50 -9t18 -45 q0 -9 -0.5 -17t-1.5 -17h-245z" />
<glyph unicode="&#x113;" horiz-adv-x="514" d="M310 85q25 0 44 5.5t34 13.5t26 17.5t20 17.5q12 -15 25 -38.5t13 -38.5q0 -22 -25 -40q-21 -16 -59.5 -27.5t-90.5 -11.5q-47 0 -92.5 12t-81 42t-57.5 80.5t-22 127.5q0 63 19.5 108.5t52 75.5t73.5 44t84 14q56 0 95 -17.5t63.5 -47t35.5 -67.5t11 -80v-14t-0.5 -17 t-1 -17.5t-1.5 -13.5h-294q4 -55 34 -91.5t95 -36.5zM355 288q0 48 -18.5 78t-66.5 30q-41 0 -65.5 -28.5t-24.5 -79.5h175zM185 568q-38 0 -51 12.5t-13 38.5q0 11 0.5 18.5t1.5 18.5h241q32 0 50 -9t18 -45q0 -9 -0.5 -17t-1.5 -17h-245z" />
<glyph unicode="&#x114;" horiz-adv-x="525" d="M421 106q24 0 40 -6t25.5 -16t13.5 -23t4 -26q0 -11 -0.5 -18.5t-1.5 -16.5h-433v670h417q2 -11 2.5 -18.5t0.5 -18.5q0 -35 -18 -52.5t-67 -17.5h-197v-165h212v-107h-212v-185h214zM438 874q-5 -30 -17 -56t-32.5 -46t-49 -31.5t-65.5 -11.5q-67 0 -109 36t-52 111 q7 5 21 9t28 4t22 -6.5t15 -23.5q11 -29 28.5 -43t49.5 -14q31 0 47 14.5t30 41.5q8 16 16 23.5t22 7.5q12 0 25 -5t21 -10z" />
<glyph unicode="&#x115;" horiz-adv-x="514" d="M310 85q25 0 44 5.5t34 13.5t26 17.5t20 17.5q12 -15 25 -38.5t13 -38.5q0 -22 -25 -40q-21 -16 -59.5 -27.5t-90.5 -11.5q-47 0 -92.5 12t-81 42t-57.5 80.5t-22 127.5q0 63 19.5 108.5t52 75.5t73.5 44t84 14q56 0 95 -17.5t63.5 -47t35.5 -67.5t11 -80v-14t-0.5 -17 t-1 -17.5t-1.5 -13.5h-294q4 -55 34 -91.5t95 -36.5zM355 288q0 48 -18.5 78t-66.5 30q-41 0 -65.5 -28.5t-24.5 -79.5h175zM435 686q-5 -30 -17 -56t-32.5 -46t-49 -31.5t-65.5 -11.5q-67 0 -109 36t-52 111q7 5 21 9t28 4t22 -6.5t15 -23.5q11 -29 28.5 -43t49.5 -14 q31 0 47 14.5t30 41.5q8 16 16 23.5t22 7.5q12 0 25 -5t21 -10z" />
<glyph unicode="&#x116;" horiz-adv-x="525" d="M421 106q24 0 40 -6t25.5 -16t13.5 -23t4 -26q0 -11 -0.5 -18.5t-1.5 -16.5h-433v670h417q2 -11 2.5 -18.5t0.5 -18.5q0 -35 -18 -52.5t-67 -17.5h-197v-165h212v-107h-212v-185h214zM353 797q0 -30 -19.5 -48.5t-48.5 -18.5t-49 18.5t-20 48.5t20 49.5t49 19.5 t48.5 -19.5t19.5 -49.5z" />
<glyph unicode="&#x117;" horiz-adv-x="514" d="M310 85q25 0 44 5.5t34 13.5t26 17.5t20 17.5q12 -15 25 -38.5t13 -38.5q0 -22 -25 -40q-21 -16 -59.5 -27.5t-90.5 -11.5q-47 0 -92.5 12t-81 42t-57.5 80.5t-22 127.5q0 63 19.5 108.5t52 75.5t73.5 44t84 14q56 0 95 -17.5t63.5 -47t35.5 -67.5t11 -80v-14t-0.5 -17 t-1 -17.5t-1.5 -13.5h-294q4 -55 34 -91.5t95 -36.5zM355 288q0 48 -18.5 78t-66.5 30q-41 0 -65.5 -28.5t-24.5 -79.5h175zM344 622q0 -31 -19.5 -49.5t-48.5 -18.5t-49 18.5t-20 49.5q0 30 20 49t49 19t48.5 -19t19.5 -49z" />
<glyph unicode="&#x118;" horiz-adv-x="525" d="M421 106q24 0 40 -6t25.5 -16t13.5 -23t4 -26q0 -11 -0.5 -18.5t-1.5 -16.5q-23 -7 -42.5 -20t-33.5 -28.5t-22.5 -33.5t-8.5 -34q0 -37 31 -37q15 0 26 9t18 17q8 -8 16 -21t8 -25t-8 -21t-21 -15.5t-29 -10t-31 -3.5q-45 0 -73 21t-28 66q0 46 25.5 81t61.5 55h-322 v670h417q2 -11 2.5 -18.5t0.5 -18.5q0 -35 -18 -52.5t-67 -17.5h-197v-165h212v-107h-212v-185h214z" />
<glyph unicode="&#x119;" horiz-adv-x="514" d="M310 85q25 0 44 5.5t34 13.5t26 17.5t20 17.5q12 -15 25 -38.5t13 -38.5q0 -23 -25 -40q-18 -12 -37 -26t-34 -30.5t-25 -37t-10 -45.5q0 -36 33 -36q15 0 26.5 8.5t18.5 16.5q8 -8 15.5 -20t7.5 -24t-8.5 -21.5t-21.5 -16t-28.5 -10t-30.5 -3.5q-45 0 -73.5 21t-28.5 67 q0 37 19 67.5t43 51.5q-60 0 -109.5 14.5t-85 45.5t-55 80.5t-19.5 120.5q0 63 19.5 108.5t52 75.5t73.5 44t84 14q56 0 95 -17.5t63.5 -47t35.5 -67.5t11 -80v-14t-0.5 -17t-1 -17.5t-1.5 -13.5h-294q4 -55 34 -91.5t95 -36.5zM355 288q0 48 -18.5 78t-66.5 30 q-41 0 -65.5 -28.5t-24.5 -79.5h175z" />
<glyph unicode="&#x11a;" horiz-adv-x="525" d="M421 106q24 0 40 -6t25.5 -16t13.5 -23t4 -26q0 -11 -0.5 -18.5t-1.5 -16.5h-433v670h417q2 -11 2.5 -18.5t0.5 -18.5q0 -35 -18 -52.5t-67 -17.5h-197v-165h212v-107h-212v-185h214zM324 854q14 14 26.5 18.5t28.5 4.5q12 0 25.5 -4t23.5 -10l-88 -110q-25 -29 -64 -29 q-41 0 -65 29l-87 108q8 7 22.5 11t27.5 4q12 0 24.5 -4t24.5 -15l53 -52z" />
<glyph unicode="&#x11b;" horiz-adv-x="514" d="M310 85q25 0 44 5.5t34 13.5t26 17.5t20 17.5q12 -15 25 -38.5t13 -38.5q0 -22 -25 -40q-21 -16 -59.5 -27.5t-90.5 -11.5q-47 0 -92.5 12t-81 42t-57.5 80.5t-22 127.5q0 63 19.5 108.5t52 75.5t73.5 44t84 14q56 0 95 -17.5t63.5 -47t35.5 -67.5t11 -80v-14t-0.5 -17 t-1 -17.5t-1.5 -13.5h-294q4 -55 34 -91.5t95 -36.5zM355 288q0 48 -18.5 78t-66.5 30q-41 0 -65.5 -28.5t-24.5 -79.5h175zM330 682q14 15 27.5 21t29.5 6q12 0 25 -4t23 -10l-91 -128q-11 -17 -29 -23t-38 -6q-21 0 -39 7t-29 22l-91 126q8 7 23 11t28 4q12 0 24.5 -3 t23.5 -16l59 -67z" />
<glyph unicode="&#x11c;" horiz-adv-x="667" d="M361 262v102h243v-300q-9 -11 -28 -25t-49 -26.5t-70.5 -21t-93.5 -8.5q-81 0 -140.5 26.5t-98 73t-57 111t-18.5 140.5q0 75 19.5 138.5t59.5 110.5t101 73.5t144 26.5q41 0 79 -9.5t67.5 -24.5t47.5 -33.5t18 -37.5q0 -17 -14.5 -38t-34.5 -38q-12 11 -27.5 23t-35 22 t-44 16.5t-54.5 6.5q-54 0 -90 -20t-57 -52.5t-30 -74.5t-9 -87q0 -48 9.5 -92t31 -77.5t58 -54t90.5 -20.5q26 0 44 4t30 9q14 6 23 14v143h-114zM353 796l-53 -52q-12 -11 -24.5 -15t-24.5 -4q-13 0 -27.5 4t-22.5 11l87 108q24 29 65 29q39 0 64 -29l88 -110 q-10 -6 -23.5 -10t-25.5 -4q-16 0 -28.5 4.5t-26.5 18.5z" />
<glyph unicode="&#x11d;" horiz-adv-x="553" d="M489 37q0 -59 -11.5 -107.5t-40 -83.5t-75.5 -54t-118 -19q-60 0 -98.5 9t-61.5 22q-20 11 -25.5 23t-5.5 23q0 16 13 37.5t26 38.5q7 -7 19.5 -16t30.5 -17.5t40.5 -14.5t49.5 -6q39 0 63.5 10.5t38.5 30t19.5 47.5t5.5 64v18q-14 -17 -45 -31.5t-78 -14.5 q-37 0 -71.5 11.5t-61.5 39.5t-43 73.5t-16 113.5q0 69 16.5 117t44 78.5t63 44t74.5 13.5q44 0 73 -15t45 -38q8 23 30 33t51 10q8 0 17 -0.5t16 -1.5q8 -1 15 -2v-436zM184 242q0 -70 21 -110.5t79 -40.5q35 0 55 13.5t20 35.5v214q-8 8 -27.5 19t-45.5 11 q-102 0 -102 -142zM282 625l-59 -67q-11 -13 -23.5 -16t-24.5 -3q-13 0 -28 4t-23 11l91 126q11 15 29 22t39 7q20 0 38 -6t29 -23l91 -128q-10 -6 -23 -10t-25 -4q-16 0 -29.5 6t-27.5 21z" />
<glyph unicode="&#x11e;" horiz-adv-x="667" d="M361 262v102h243v-300q-9 -11 -28 -25t-49 -26.5t-70.5 -21t-93.5 -8.5q-81 0 -140.5 26.5t-98 73t-57 111t-18.5 140.5q0 75 19.5 138.5t59.5 110.5t101 73.5t144 26.5q41 0 79 -9.5t67.5 -24.5t47.5 -33.5t18 -37.5q0 -17 -14.5 -38t-34.5 -38q-12 11 -27.5 23t-35 22 t-44 16.5t-54.5 6.5q-54 0 -90 -20t-57 -52.5t-30 -74.5t-9 -87q0 -48 9.5 -92t31 -77.5t58 -54t90.5 -20.5q26 0 44 4t30 9q14 6 23 14v143h-114zM523 874q-5 -30 -17 -56t-32.5 -46t-49 -31.5t-65.5 -11.5q-67 0 -109 36t-52 111q7 5 21 9t28 4t22 -6.5t15 -23.5 q11 -29 28.5 -43t49.5 -14q31 0 47 14.5t30 41.5q8 16 16 23.5t22 7.5q12 0 25 -5t21 -10z" />
<glyph unicode="&#x11f;" horiz-adv-x="553" d="M489 37q0 -59 -11.5 -107.5t-40 -83.5t-75.5 -54t-118 -19q-60 0 -98.5 9t-61.5 22q-20 11 -25.5 23t-5.5 23q0 16 13 37.5t26 38.5q7 -7 19.5 -16t30.5 -17.5t40.5 -14.5t49.5 -6q39 0 63.5 10.5t38.5 30t19.5 47.5t5.5 64v18q-14 -17 -45 -31.5t-78 -14.5 q-37 0 -71.5 11.5t-61.5 39.5t-43 73.5t-16 113.5q0 69 16.5 117t44 78.5t63 44t74.5 13.5q44 0 73 -15t45 -38q8 23 30 33t51 10q8 0 17 -0.5t16 -1.5q8 -1 15 -2v-436zM184 242q0 -70 21 -110.5t79 -40.5q35 0 55 13.5t20 35.5v214q-8 8 -27.5 19t-45.5 11 q-102 0 -102 -142zM443 686q-5 -30 -17 -56t-32.5 -46t-49 -31.5t-65.5 -11.5q-67 0 -109 36t-52 111q7 5 21 9t28 4t22 -6.5t15 -23.5q11 -29 28.5 -43t49.5 -14q31 0 47 14.5t30 41.5q8 16 16 23.5t22 7.5q12 0 25 -5t21 -10z" />
<glyph unicode="&#x120;" horiz-adv-x="667" d="M361 262v102h243v-300q-9 -11 -28 -25t-49 -26.5t-70.5 -21t-93.5 -8.5q-81 0 -140.5 26.5t-98 73t-57 111t-18.5 140.5q0 75 19.5 138.5t59.5 110.5t101 73.5t144 26.5q41 0 79 -9.5t67.5 -24.5t47.5 -33.5t18 -37.5q0 -17 -14.5 -38t-34.5 -38q-12 11 -27.5 23t-35 22 t-44 16.5t-54.5 6.5q-54 0 -90 -20t-57 -52.5t-30 -74.5t-9 -87q0 -48 9.5 -92t31 -77.5t58 -54t90.5 -20.5q26 0 44 4t30 9q14 6 23 14v143h-114zM434 797q0 -30 -19.5 -48.5t-48.5 -18.5t-49 18.5t-20 48.5t20 49.5t49 19.5t48.5 -19.5t19.5 -49.5z" />
<glyph unicode="&#x121;" horiz-adv-x="553" d="M489 37q0 -59 -11.5 -107.5t-40 -83.5t-75.5 -54t-118 -19q-60 0 -98.5 9t-61.5 22q-20 11 -25.5 23t-5.5 23q0 16 13 37.5t26 38.5q7 -7 19.5 -16t30.5 -17.5t40.5 -14.5t49.5 -6q39 0 63.5 10.5t38.5 30t19.5 47.5t5.5 64v18q-14 -17 -45 -31.5t-78 -14.5 q-37 0 -71.5 11.5t-61.5 39.5t-43 73.5t-16 113.5q0 69 16.5 117t44 78.5t63 44t74.5 13.5q44 0 73 -15t45 -38q8 23 30 33t51 10q8 0 17 -0.5t16 -1.5q8 -1 15 -2v-436zM184 242q0 -70 21 -110.5t79 -40.5q35 0 55 13.5t20 35.5v214q-8 8 -27.5 19t-45.5 11 q-102 0 -102 -142zM354 622q0 -31 -19.5 -49.5t-48.5 -18.5t-49 18.5t-20 49.5q0 30 20 49t49 19t48.5 -19t19.5 -49z" />
<glyph unicode="&#x122;" horiz-adv-x="667" d="M361 262v102h243v-300q-9 -11 -28 -25t-49 -26.5t-70.5 -21t-93.5 -8.5q-81 0 -140.5 26.5t-98 73t-57 111t-18.5 140.5q0 75 19.5 138.5t59.5 110.5t101 73.5t144 26.5q41 0 79 -9.5t67.5 -24.5t47.5 -33.5t18 -37.5q0 -17 -14.5 -38t-34.5 -38q-12 11 -27.5 23t-35 22 t-44 16.5t-54.5 6.5q-54 0 -90 -20t-57 -52.5t-30 -74.5t-9 -87q0 -48 9.5 -92t31 -77.5t58 -54t90.5 -20.5q26 0 44 4t30 9q14 6 23 14v143h-114zM354 -190q-11 -21 -24.5 -31t-37.5 -10q-11 0 -21.5 1.5t-18.5 5.5l46 124q10 26 25 41t42 15q15 0 32 -4.5t28 -9.5z" />
<glyph unicode="&#x123;" horiz-adv-x="553" d="M489 37q0 -59 -11.5 -107.5t-40 -83.5t-75.5 -54t-118 -19q-60 0 -98.5 9t-61.5 22q-20 11 -25.5 23t-5.5 23q0 16 13 37.5t26 38.5q7 -7 19.5 -16t30.5 -17.5t40.5 -14.5t49.5 -6q39 0 63.5 10.5t38.5 30t19.5 47.5t5.5 64v18q-14 -17 -45 -31.5t-78 -14.5 q-37 0 -71.5 11.5t-61.5 39.5t-43 73.5t-16 113.5q0 69 16.5 117t44 78.5t63 44t74.5 13.5q44 0 73 -15t45 -38q8 23 30 33t51 10q8 0 17 -0.5t16 -1.5q8 -1 15 -2v-436zM184 242q0 -70 21 -110.5t79 -40.5q35 0 55 13.5t20 35.5v214q-8 8 -27.5 19t-45.5 11 q-102 0 -102 -142zM283 678q11 21 24.5 31t37.5 10q23 0 37 -7l-46 -124q-10 -26 -25 -41t-42 -15q-15 0 -30.5 4.5t-26.5 9.5z" />
<glyph unicode="&#x124;" horiz-adv-x="654" d="M201 398h252v271q8 1 17 2q8 1 16.5 2t16.5 1q13 0 28.5 -3t28.5 -11.5t21.5 -23.5t8.5 -40v-596h-137v290h-252v-290h-137v669l18 2q8 1 15.5 2t14.5 1q15 0 30.5 -3t28.5 -11.5t21.5 -23.5t8.5 -40v-198zM337 796l-53 -52q-12 -11 -24.5 -15t-24.5 -4q-13 0 -27.5 4 t-22.5 11l87 108q24 29 65 29q39 0 64 -29l88 -110q-10 -6 -23.5 -10t-25.5 -4q-16 0 -28.5 4.5t-26.5 18.5z" />
<glyph unicode="&#x125;" horiz-adv-x="561" d="M361 276q0 22 -1.5 41t-8 32.5t-21 21t-40.5 7.5q-37 0 -63.5 -15.5t-26.5 -38.5v-324h-136v705q0 1 15 2.5t31 1.5t32 -3t29 -11.5t21 -24t8 -40.5v-199q8 9 20 19t29 18.5t39.5 13.5t51.5 5q71 0 105 -28t44 -74q5 -23 6.5 -50t1.5 -53v-282h-136v276zM211 831l-53 -52 q-12 -11 -24.5 -15t-24.5 -4q-13 0 -27.5 4t-22.5 11l87 108q24 29 65 29q39 0 64 -29l88 -110q-10 -6 -23.5 -10t-25.5 -4q-16 0 -28.5 4.5t-26.5 18.5z" />
<glyph unicode="&#x126;" horiz-adv-x="680" d="M0 491v82h77v96l18 2q8 1 15.5 2t14.5 1q15 0 30.5 -3t28.5 -11.5t21.5 -23.5t8.5 -40v-23h252v96q8 1 17 2q8 1 16.5 2t16.5 1q13 0 28.5 -3t28.5 -11.5t21.5 -23.5t8.5 -40v-23h77v-82h-77v-491h-137v290h-252v-290h-137v491h-77zM214 398h252v93h-252v-93z" />
<glyph unicode="&#x127;" horiz-adv-x="561" d="M361 256q0 22 -1.5 41t-8 32.5t-21 21t-40.5 7.5q-37 0 -63.5 -15.5t-26.5 -38.5v-304h-136v538h-70v88h70v79q0 1 15 2.5t31 1.5t32 -3t29 -11.5t21 -24t8 -40.5v-4h183v-88h-183v-127q8 9 20 19t29 18.5t39.5 13.5t51.5 5q71 0 105 -28t44 -74q5 -23 6.5 -50t1.5 -53 v-262h-136v256z" />
<glyph unicode="&#x128;" horiz-adv-x="265" d="M201 0h-137v669q8 1 17 2q8 1 15.5 2t14.5 1q14 0 29.5 -3t29 -11t22.5 -23.5t9 -40.5v-596zM200 739q-24 0 -43 6t-34.5 12.5t-29.5 12.5t-29 6q-23 0 -39.5 -12t-32.5 -31q-12 10 -24.5 23.5t-12.5 29.5q0 14 10 27t25.5 22.5t34.5 15t37 5.5q22 0 39 -6t32 -12.5 t29 -12.5t29 -6q22 0 37 10.5t30 33.5q11 -10 25 -25t14 -31q0 -15 -8.5 -27.5t-22.5 -21.5t-31.5 -14t-34.5 -5z" />
<glyph unicode="&#x129;" horiz-adv-x="264" d="M200 -6q0 -1 -15 -2.5t-31 -1.5t-32 3.5t-29 13t-21 25.5t-8 41v400q0 1 15 2.5t31 1.5t32 -3t29 -11.5t21 -24t8 -40.5v-404zM195 559q-24 0 -43 6t-34.5 12.5t-29.5 12.5t-29 6q-23 0 -39.5 -12t-32.5 -31q-12 10 -24.5 23.5t-12.5 29.5q0 14 10 27t25.5 22.5t34.5 15 t37 5.5q22 0 39 -6t32 -12.5t29 -12.5t29 -6q22 0 37 10.5t30 33.5q11 -10 25 -25t14 -31q0 -15 -8.5 -27.5t-22.5 -21.5t-31.5 -14t-34.5 -5z" />
<glyph unicode="&#x12a;" horiz-adv-x="265" d="M201 0h-137v669q8 1 17 2q8 1 15.5 2t14.5 1q14 0 29.5 -3t29 -11t22.5 -23.5t9 -40.5v-596zM32 754q-38 0 -51 12.5t-13 38.5q0 11 0.5 18.5t1.5 18.5h241q32 0 50 -9t18 -45q0 -9 -0.5 -17t-1.5 -17h-245z" />
<glyph unicode="&#x12b;" horiz-adv-x="264" d="M200 -6q0 -1 -15 -2.5t-31 -1.5t-32 3.5t-29 13t-21 25.5t-8 41v400q0 1 15 2.5t31 1.5t32 -3t29 -11.5t21 -24t8 -40.5v-404zM28 568q-38 0 -51 12.5t-13 38.5q0 11 0.5 18.5t1.5 18.5h241q32 0 50 -9t18 -45q0 -9 -0.5 -17t-1.5 -17h-245z" />
<glyph unicode="&#x12c;" horiz-adv-x="265" d="M201 0h-137v669q8 1 17 2q8 1 15.5 2t14.5 1q14 0 29.5 -3t29 -11t22.5 -23.5t9 -40.5v-596zM289 874q-5 -30 -17 -56t-32.5 -46t-49 -31.5t-65.5 -11.5q-67 0 -109 36t-52 111q7 5 21 9t28 4t22 -6.5t15 -23.5q11 -29 28.5 -43t49.5 -14q31 0 47 14.5t30 41.5 q8 16 16 23.5t22 7.5q12 0 25 -5t21 -10z" />
<glyph unicode="&#x12d;" horiz-adv-x="264" d="M200 -6q0 -1 -15 -2.5t-31 -1.5t-32 3.5t-29 13t-21 25.5t-8 41v400q0 1 15 2.5t31 1.5t32 -3t29 -11.5t21 -24t8 -40.5v-404zM281 686q-5 -30 -17 -56t-32.5 -46t-49 -31.5t-65.5 -11.5q-67 0 -109 36t-52 111q7 5 21 9t28 4t22 -6.5t15 -23.5q11 -29 28.5 -43t49.5 -14 q31 0 47 14.5t30 41.5q8 16 16 23.5t22 7.5q12 0 25 -5t21 -10z" />
<glyph unicode="&#x12e;" horiz-adv-x="275" d="M206 0q-17 -11 -33 -24.5t-28.5 -28.5t-20.5 -32t-8 -33q0 -35 31 -35q15 0 26 8.5t18 16.5q9 -8 17 -20t8 -24t-8.5 -21.5t-21.5 -16t-29 -10t-31 -3.5q-45 0 -73 20.5t-28 68.5q0 22 8 42.5t20 38t27 31t29 22.5h-40v669q8 1 17 2q8 1 15.5 2t14.5 1q14 0 29.5 -3 t29 -11t22.5 -23.5t9 -40.5v-596z" />
<glyph unicode="&#x12f;" horiz-adv-x="264" d="M200 -2q-16 -7 -31 -20.5t-27 -29.5t-19.5 -33t-7.5 -32q0 -36 31 -36q15 0 26 8.5t18 16.5q8 -8 16 -20.5t8 -23.5q0 -12 -8 -21.5t-21.5 -16t-30 -10t-32.5 -3.5q-43 0 -71 21.5t-28 67.5q0 22 7 42t18.5 37.5t26 31.5t29.5 23q-17 8 -28.5 25.5t-11.5 47.5v400 q0 1 15 2.5t31 1.5t32 -3t29 -11.5t21 -24t8 -40.5v-400zM201 613q0 -32 -21.5 -52t-51.5 -20q-31 0 -52 20t-21 52t21 52.5t52 20.5q30 0 51.5 -20.5t21.5 -52.5z" />
<glyph unicode="&#x130;" horiz-adv-x="265" d="M201 0h-137v669q8 1 17 2q8 1 15.5 2t14.5 1q14 0 29.5 -3t29 -11t22.5 -23.5t9 -40.5v-596zM200 797q0 -30 -19.5 -48.5t-48.5 -18.5t-49 18.5t-20 48.5t20 49.5t49 19.5t48.5 -19.5t19.5 -49.5z" />
<glyph unicode="&#x131;" horiz-adv-x="264" d="M200 -6q0 -1 -15 -2.5t-31 -1.5t-32 3.5t-29 13t-21 25.5t-8 41v400q0 1 15 2.5t31 1.5t32 -3t29 -11.5t21 -24t8 -40.5v-404z" />
<glyph unicode="&#x132;" horiz-adv-x="538" d="M206 0h-137v669q8 1 17 2q8 1 15.5 2t14.5 1q14 0 29.5 -3t29 -11t22.5 -23.5t9 -40.5v-596zM474 77q0 -38 -5.5 -86t-25 -90.5t-58.5 -72t-106 -29.5q-35 0 -50 13t-19 42q-2 11 -2 22.5v22.5q29 1 53 7.5t40.5 20t25.5 36t9 57.5v649l18 2q8 1 15.5 2t14.5 1 q14 0 30 -3t29.5 -11t22 -23.5t8.5 -39.5v-520z" />
<glyph unicode="&#x133;" horiz-adv-x="500" d="M200 -6q-4 -2 -18 -3t-30 -1q-20 0 -36 3.5t-27.5 13t-18 25.5t-6.5 41v400q0 1 15 2.5t31 1.5t32 -3t29 -11.5t21 -24t8 -40.5v-404zM201 633q0 -32 -21.5 -52t-51.5 -20q-31 0 -52 20t-21 52t21 52.5t52 20.5q30 0 51.5 -20.5t21.5 -52.5zM300 473q0 1 15 2.5t31 1.5 t32 -3t29 -11.5t21 -24t8 -40.5v-382v-27.5t-1 -29.5q-3 -58 -21 -94.5t-43 -56.5t-52.5 -27.5t-49.5 -7.5q-44 0 -57 24.5t-13 65.5v8q31 2 50.5 9t31 20t15.5 32t4 45v496zM437 633q0 -32 -21.5 -52t-51.5 -20q-31 0 -52 20t-21 52t21 52.5t52 20.5q30 0 51.5 -20.5 t21.5 -52.5z" />
<glyph unicode="&#x134;" horiz-adv-x="266" d="M202 77q0 -38 -5.5 -86t-25 -90.5t-58.5 -72t-106 -29.5q-35 0 -50 13t-19 42q-2 11 -2 22.5v22.5q29 1 53 7.5t40.5 20t25.5 36t9 57.5v649l18 2q8 1 15.5 2t14.5 1q14 0 30 -3t29.5 -11t22 -23.5t8.5 -39.5v-520zM128 796l-53 -52q-12 -11 -24.5 -15t-24.5 -4 q-13 0 -27.5 4t-22.5 11l87 108q24 29 65 29q39 0 64 -29l88 -110q-10 -6 -23.5 -10t-25.5 -4q-16 0 -28.5 4.5t-26.5 18.5z" />
<glyph unicode="&#x135;" horiz-adv-x="264" d="M64 473q0 1 15 2.5t31 1.5t32 -3t29 -11.5t21 -24t8 -40.5v-382v-27.5t-1 -29.5q-3 -58 -21 -94.5t-43 -56.5t-52.5 -27.5t-49.5 -7.5q-44 0 -57 24.5t-13 65.5v8q31 2 50.5 9t31 20t15.5 32t4 45v496zM124 625l-59 -67q-11 -13 -23.5 -16t-24.5 -3q-13 0 -28 4t-23 11 l91 126q11 15 29 22t39 7q20 0 38 -6t29 -23l91 -128q-10 -6 -23 -10t-25 -4q-16 0 -29.5 6t-27.5 21z" />
<glyph unicode="&#x136;" horiz-adv-x="588" d="M255 231q-19 24 -33 51.5t-16 57.5v-340h-137v669q8 1 17 2q8 1 15.5 2t14.5 1q14 0 29.5 -3t29 -11t22.5 -23.5t9 -40.5v-244q2 25 13.5 46.5t27.5 41.5l137 180q23 30 46 42t49 12t47 -8.5t34 -21.5l-221 -295l249 -337q-20 -12 -40 -17.5t-39 -5.5q-67 0 -107 52z M301 -190q-11 -21 -24.5 -31t-37.5 -10q-11 0 -21.5 1.5t-18.5 5.5l46 124q10 26 25 41t42 15q15 0 32 -4.5t28 -9.5z" />
<glyph unicode="&#x137;" horiz-adv-x="522" d="M222 191q-8 10 -14 22.5t-8 27.5v-241h-136v705q0 1 15 2.5t31 1.5t32 -3t29 -12t21 -24.5t8 -40.5v-358q6 27 26 50l106 121q17 20 34.5 31t42.5 11q26 0 46.5 -9.5t39.5 -24.5l-163 -188l187 -248q-14 -10 -35 -17t-44 -7q-36 0 -60 11.5t-47 40.5zM254 -190 q-11 -21 -24.5 -31t-37.5 -10q-11 0 -21.5 1.5t-18.5 5.5l46 124q10 26 25 41t42 15q15 0 32 -4.5t28 -9.5z" />
<glyph unicode="&#x138;" horiz-adv-x="512" d="M222 181q-8 10 -14 20t-8 24v-225h-136v473q0 1 15 2.5t31 1.5t32 -3t29 -12t21 -24.5t8 -40.5v-133q5 20 26 47l100 126q14 19 33 31t44 12q26 0 46.5 -8.5t39.5 -23.5l-156 -194l179 -243q-14 -8 -33.5 -14.5t-41.5 -6.5q-36 0 -59.5 11.5t-46.5 40.5z" />
<glyph unicode="&#x139;" horiz-adv-x="504" d="M69 669l18 2q8 1 15.5 2t14.5 1q14 0 29.5 -3t29 -11t22.5 -23.5t9 -40.5v-485h195q24 0 40 -6t25 -16t12.5 -23t3.5 -26q0 -10 -0.5 -25t-1.5 -15h-412v669zM166 742q-11 -7 -23 -11.5t-24 -4.5q-17 0 -34 11.5t-28 24.5l111 90q11 9 24 16t27 7q23 0 41.5 -17t31.5 -37 z" />
<glyph unicode="&#x13a;" horiz-adv-x="264" d="M200 -6q-5 -2 -19 -3t-31 -1t-32.5 3.5t-27.5 13t-19 25.5t-7 41v632q0 1 15 2.5t31 1.5t32 -3t29 -11.5t21 -24t8 -40.5v-636zM158 782q-11 -7 -23 -11.5t-24 -4.5q-17 0 -34 11.5t-28 24.5l111 90q11 9 24 16t27 7q23 0 41.5 -17t31.5 -37z" />
<glyph unicode="&#x13b;" horiz-adv-x="504" d="M69 669l18 2q8 1 15.5 2t14.5 1q14 0 29.5 -3t29 -11t22.5 -23.5t9 -40.5v-485h195q24 0 40 -6t25 -16t12.5 -23t3.5 -26q0 -10 -0.5 -25t-1.5 -15h-412v669zM269 -190q-11 -21 -24.5 -31t-37.5 -10q-11 0 -21.5 1.5t-18.5 5.5l46 124q10 26 25 41t42 15q15 0 32 -4.5 t28 -9.5z" />
<glyph unicode="&#x13c;" horiz-adv-x="264" d="M200 -6q-5 -2 -19 -3t-31 -1t-32.5 3.5t-27.5 13t-19 25.5t-7 41v632q0 1 15 2.5t31 1.5t32 -3t29 -11.5t21 -24t8 -40.5v-636zM125 -190q-11 -21 -24.5 -31t-37.5 -10q-11 0 -21.5 1.5t-18.5 5.5l46 124q10 26 25 41t42 15q15 0 32 -4.5t28 -9.5z" />
<glyph unicode="&#x13d;" horiz-adv-x="504" d="M69 669l18 2q8 1 15.5 2t14.5 1q14 0 29.5 -3t29 -11t22.5 -23.5t9 -40.5v-485h195q24 0 40 -6t25 -16t12.5 -23t3.5 -26q0 -10 -0.5 -25t-1.5 -15h-412v669zM420 509q-3 -33 -21.5 -47.5t-50.5 -14.5h-9t-9 1v141q0 38 17 60t57 22q8 0 17.5 -0.5t14.5 -1.5z" />
<glyph unicode="&#x13e;" horiz-adv-x="300" d="M200 -6q-5 -2 -19 -3t-31 -1t-32.5 3.5t-27.5 13t-19 25.5t-7 41v632q0 1 15 2.5t31 1.5t32 -3t29 -11.5t21 -24t8 -40.5v-636zM362 547q-3 -33 -21.5 -47.5t-50.5 -14.5h-9t-9 1v141q0 38 17 60t57 22q8 0 17.5 -0.5t14.5 -1.5z" />
<glyph unicode="&#x13f;" horiz-adv-x="504" d="M69 669l18 2q8 1 15.5 2t14.5 1q14 0 29.5 -3t29 -11t22.5 -23.5t9 -40.5v-485h195q24 0 40 -6t25 -16t12.5 -23t3.5 -26q0 -10 -0.5 -25t-1.5 -15h-412v669zM455 378q0 -30 -19.5 -48.5t-48.5 -18.5t-49 18.5t-20 48.5t20 49.5t49 19.5t48.5 -19.5t19.5 -49.5z" />
<glyph unicode="&#x140;" horiz-adv-x="342" d="M200 -6q-5 -2 -19 -3t-31 -1t-32.5 3.5t-27.5 13t-19 25.5t-7 41v632q0 1 15 2.5t31 1.5t32 -3t29 -11.5t21 -24t8 -40.5v-636zM372 413q0 -31 -19.5 -49.5t-48.5 -18.5t-49 18.5t-20 49.5q0 30 20 49t49 19t48.5 -19t19.5 -49z" />
<glyph unicode="&#x141;" horiz-adv-x="504" d="M69 669l18 2q8 1 15.5 2t14.5 1q14 0 29.5 -3t29 -11t22.5 -23.5t9 -40.5v-192l143 65l38 -79l-181 -83v-196h195q24 0 40 -6t25 -16t12.5 -23t3.5 -26q0 -10 -0.5 -25t-1.5 -15h-412v245l-64 -29l-35 80l99 45v328z" />
<glyph unicode="&#x142;" horiz-adv-x="319" d="M221 -6q-5 -2 -19 -3t-31 -1t-32.5 3.5t-27.5 13t-19 25.5t-7 41v203l-55 -31l-44 79l99 55v326q0 1 15 2.5t31 1.5t32 -3t29 -11.5t21 -24t8 -40.5v-186l61 36l45 -75l-106 -63v-348z" />
<glyph unicode="&#x143;" horiz-adv-x="670" d="M470 208v461l16 2l14 2t14 1q14 0 29.5 -3t28 -11t21 -23.5t8.5 -40.5v-596h-116l-285 440v-440h-131v668q10 2 27 4t34 2q32 0 50 -11t32 -34zM363 742q-11 -7 -23 -11.5t-24 -4.5q-17 0 -34 11.5t-28 24.5l111 90q11 9 24 16t27 7q23 0 41.5 -17t31.5 -37z" />
<glyph unicode="&#x144;" horiz-adv-x="562" d="M201 0h-137v473q5 1 12 2q6 1 14 1.5t19 0.5q32 0 55.5 -11.5t29.5 -40.5q17 23 52.5 42.5t94.5 19.5q71 0 105 -28t44 -74q5 -23 6.5 -50t1.5 -53v-282h-136v276q0 22 -1.5 41t-8 32.5t-21 21t-40.5 7.5q-37 0 -63.5 -15.5t-26.5 -38.5v-324zM366 564q-23 -26 -56 -26 q-14 0 -33 6t-28 14l82 116q14 19 28.5 28.5t35.5 9.5q18 0 40.5 -11t35.5 -22z" />
<glyph unicode="&#x145;" horiz-adv-x="670" d="M470 208v461l16 2l14 2t14 1q14 0 29.5 -3t28 -11t21 -23.5t8.5 -40.5v-596h-116l-285 440v-440h-131v668q10 2 27 4t34 2q32 0 50 -11t32 -34zM344 -190q-11 -21 -24.5 -31t-37.5 -10q-11 0 -21.5 1.5t-18.5 5.5l46 124q10 26 25 41t42 15q15 0 32 -4.5t28 -9.5z" />
<glyph unicode="&#x146;" horiz-adv-x="562" d="M201 0h-137v473q5 1 12 2q6 1 14 1.5t19 0.5q32 0 55.5 -11.5t29.5 -40.5q17 23 52.5 42.5t94.5 19.5q71 0 105 -28t44 -74q5 -23 6.5 -50t1.5 -53v-282h-136v276q0 22 -1.5 41t-8 32.5t-21 21t-40.5 7.5q-37 0 -63.5 -15.5t-26.5 -38.5v-324zM273 -190 q-11 -21 -24.5 -31t-37.5 -10q-11 0 -21.5 1.5t-18.5 5.5l46 124q10 26 25 41t42 15q15 0 32 -4.5t28 -9.5z" />
<glyph unicode="&#x147;" horiz-adv-x="670" d="M470 208v461l16 2l14 2t14 1q14 0 29.5 -3t28 -11t21 -23.5t8.5 -40.5v-596h-116l-285 440v-440h-131v668q10 2 27 4t34 2q32 0 50 -11t32 -34zM393 854q14 14 26.5 18.5t28.5 4.5q12 0 25.5 -4t23.5 -10l-88 -110q-25 -29 -64 -29q-41 0 -65 29l-87 108q8 7 22.5 11 t27.5 4q12 0 24.5 -4t24.5 -15l53 -52z" />
<glyph unicode="&#x148;" horiz-adv-x="562" d="M201 0h-137v473q5 1 12 2q6 1 14 1.5t19 0.5q32 0 55.5 -11.5t29.5 -40.5q17 23 52.5 42.5t94.5 19.5q71 0 105 -28t44 -74q5 -23 6.5 -50t1.5 -53v-282h-136v276q0 22 -1.5 41t-8 32.5t-21 21t-40.5 7.5q-37 0 -63.5 -15.5t-26.5 -38.5v-324zM346 682q14 15 27.5 21 t29.5 6q12 0 25 -4t23 -10l-91 -128q-11 -17 -29 -23t-38 -6q-21 0 -39 7t-29 22l-91 126q8 7 23 11t28 4q12 0 24.5 -3t23.5 -16l59 -67z" />
<glyph unicode="&#x149;" horiz-adv-x="562" d="M201 0h-137v473q5 1 12 2q6 1 14 1.5t19 0.5q32 0 55.5 -11.5t29.5 -40.5q17 23 52.5 42.5t94.5 19.5q71 0 105 -28t44 -74q5 -23 6.5 -50t1.5 -53v-282h-136v276q0 22 -1.5 41t-8 32.5t-21 21t-40.5 7.5q-37 0 -63.5 -15.5t-26.5 -38.5v-324zM128 717q30 0 44.5 -21 t14.5 -50q0 -21 -7 -43.5t-19 -42t-28.5 -32t-34.5 -12.5q-13 0 -23.5 6.5t-15.5 20.5q15 7 31 23t18 39q-11 8 -22.5 22t-11.5 39q0 18 13.5 34.5t40.5 16.5z" />
<glyph unicode="&#x14a;" horiz-adv-x="670" d="M470 208v461l16 2l14 2t14 1q14 0 29.5 -3t28 -11t21 -23.5t8.5 -40.5v-542q0 -38 -7 -82.5t-28 -83t-59 -64t-101 -25.5q-35 0 -50 13t-19 42q-2 11 -2 22.5v22.5q29 1 54 7.5t43.5 20t29 36t10.5 57.5l-272 420v-440h-131v668q10 2 27 4t34 2q32 0 50 -11t32 -34z" />
<glyph unicode="&#x14b;" horiz-adv-x="562" d="M201 0h-137v473q5 1 12 2q6 1 14 1.5t19 0.5q32 0 55.5 -11.5t29.5 -40.5q17 23 52.5 42.5t94.5 19.5q71 0 105 -28t44 -74q5 -23 6.5 -50t1.5 -53v-282q0 -20 -1.5 -42t-5.5 -43q-5 -27 -17 -53t-31.5 -45.5t-47.5 -31.5t-64 -12q-44 0 -57 24.5t-13 65.5v8q31 2 50.5 9 t31 20t15.5 32t4 45v299q0 22 -1.5 41t-8 32.5t-21 21t-40.5 7.5q-37 0 -63.5 -15.5t-26.5 -38.5v-324z" />
<glyph unicode="&#x14c;" horiz-adv-x="704" d="M655 337q0 -72 -17 -136.5t-54 -113t-95 -76.5t-140 -28q-81 0 -138 28.5t-93 77t-52.5 112.5t-16.5 135q0 70 18 133t56 110.5t96 75.5t138 28q79 0 135.5 -27t92.5 -73.5t53 -109.5t17 -136zM514 336q0 48 -8 91t-27 75.5t-49 51.5t-74 19q-46 0 -77.5 -19t-51 -51.5 t-28 -75.5t-8.5 -91t8.5 -92t27.5 -78t50 -54t76 -20t76 20t49.5 54t27 78t8.5 92zM262 752q-38 0 -51 12.5t-13 38.5q0 11 0.5 18.5t1.5 18.5h241q32 0 50 -9t18 -45q0 -9 -0.5 -17t-1.5 -17h-245z" />
<glyph unicode="&#x14d;" horiz-adv-x="559" d="M515 239q0 -50 -12.5 -96t-41 -81t-73.5 -56t-109 -21t-108.5 20.5t-72.5 55t-41 80t-13 95.5q0 51 15 96.5t44.5 80t74.5 54.5t105 20q63 0 107.5 -20t72 -54t40 -79t12.5 -95zM378 238q0 27 -4 53.5t-15 46.5t-30 32.5t-48 12.5t-48.5 -13t-31 -33.5t-16.5 -46.5 t-5 -53t4.5 -54t15.5 -48.5t30.5 -34.5t48.5 -13q30 0 49.5 13t30.5 34.5t15 48.5t4 55zM188 568q-38 0 -51 12.5t-13 38.5q0 11 0.5 18.5t1.5 18.5h241q32 0 50 -9t18 -45q0 -9 -0.5 -17t-1.5 -17h-245z" />
<glyph unicode="&#x14e;" horiz-adv-x="704" d="M655 337q0 -72 -17 -136.5t-54 -113t-95 -76.5t-140 -28q-81 0 -138 28.5t-93 77t-52.5 112.5t-16.5 135q0 70 18 133t56 110.5t96 75.5t138 28q79 0 135.5 -27t92.5 -73.5t53 -109.5t17 -136zM514 336q0 48 -8 91t-27 75.5t-49 51.5t-74 19q-46 0 -77.5 -19t-51 -51.5 t-28 -75.5t-8.5 -91t8.5 -92t27.5 -78t50 -54t76 -20t76 20t49.5 54t27 78t8.5 92zM519 874q-5 -30 -17 -56t-32.5 -46t-49 -31.5t-65.5 -11.5q-67 0 -109 36t-52 111q7 5 21 9t28 4t22 -6.5t15 -23.5q11 -29 28.5 -43t49.5 -14q31 0 47 14.5t30 41.5q8 16 16 23.5t22 7.5 q12 0 25 -5t21 -10z" />
<glyph unicode="&#x14f;" horiz-adv-x="559" d="M515 239q0 -50 -12.5 -96t-41 -81t-73.5 -56t-109 -21t-108.5 20.5t-72.5 55t-41 80t-13 95.5q0 51 15 96.5t44.5 80t74.5 54.5t105 20q63 0 107.5 -20t72 -54t40 -79t12.5 -95zM378 238q0 27 -4 53.5t-15 46.5t-30 32.5t-48 12.5t-48.5 -13t-31 -33.5t-16.5 -46.5 t-5 -53t4.5 -54t15.5 -48.5t30.5 -34.5t48.5 -13q30 0 49.5 13t30.5 34.5t15 48.5t4 55zM446 686q-5 -30 -17 -56t-32.5 -46t-49 -31.5t-65.5 -11.5q-67 0 -109 36t-52 111q7 5 21 9t28 4t22 -6.5t15 -23.5q11 -29 28.5 -43t49.5 -14q31 0 47 14.5t30 41.5q8 16 16 23.5 t22 7.5q12 0 25 -5t21 -10z" />
<glyph unicode="&#x150;" horiz-adv-x="704" d="M655 337q0 -72 -17 -136.5t-54 -113t-95 -76.5t-140 -28q-81 0 -138 28.5t-93 77t-52.5 112.5t-16.5 135q0 70 18 133t56 110.5t96 75.5t138 28q79 0 135.5 -27t92.5 -73.5t53 -109.5t17 -136zM514 336q0 48 -8 91t-27 75.5t-49 51.5t-74 19q-46 0 -77.5 -19t-51 -51.5 t-28 -75.5t-8.5 -91t8.5 -92t27.5 -78t50 -54t76 -20t76 20t49.5 54t27 78t8.5 92zM494 742q-11 -7 -23 -11.5t-24 -4.5q-17 0 -32 10.5t-26 23.5l111 90q11 9 23 15.5t26 6.5q23 0 40 -17t31 -34zM286 742q-11 -7 -23 -11.5t-24 -4.5q-17 0 -32 10.5t-26 23.5l111 90 q11 9 23 15.5t26 6.5q23 0 40 -17t31 -34z" />
<glyph unicode="&#x151;" horiz-adv-x="559" d="M515 239q0 -50 -12.5 -96t-41 -81t-73.5 -56t-109 -21t-108.5 20.5t-72.5 55t-41 80t-13 95.5q0 51 15 96.5t44.5 80t74.5 54.5t105 20q63 0 107.5 -20t72 -54t40 -79t12.5 -95zM378 238q0 27 -4 53.5t-15 46.5t-30 32.5t-48 12.5t-48.5 -13t-31 -33.5t-16.5 -46.5 t-5 -53t4.5 -54t15.5 -48.5t30.5 -34.5t48.5 -13q30 0 49.5 13t30.5 34.5t15 48.5t4 55zM419 564q-12 -12 -25 -19t-29 -7q-14 0 -28 6t-23 14l78 107q14 19 28 28.5t35 9.5q18 0 36.5 -10.5t31.5 -21.5zM231 564q-12 -12 -25 -19t-29 -7q-14 0 -28 6t-23 14l78 107 q14 19 28 28.5t35 9.5q18 0 36.5 -10.5t31.5 -21.5z" />
<glyph unicode="&#x152;" horiz-adv-x="912" d="M812 106q25 0 40.5 -6t24 -15.5t11.5 -22t3 -24.5q0 -11 -0.5 -19t-1.5 -19h-524q-81 0 -140.5 25t-98.5 70t-58 107t-19 136q0 69 20.5 129.5t61 105.5t101.5 71t141 26h500q2 -12 2.5 -20.5t0.5 -19.5q0 -12 -3 -24t-11 -21.5t-22.5 -15.5t-38.5 -6h-207v-165h212v-107 h-212v-185h218zM188 338q0 -51 11.5 -95.5t35 -76.5t60.5 -50.5t88 -18.5h73v473h-68q-53 0 -91 -18.5t-62 -50t-35.5 -73.5t-11.5 -90z" />
<glyph unicode="&#x153;" horiz-adv-x="843" d="M639 85q25 0 44 5.5t34 13.5t26 17.5t20 17.5q12 -15 25 -37.5t13 -37.5q0 -22 -25 -40q-21 -16 -59 -27.5t-87 -11.5q-58 0 -107.5 19t-82.5 57q-26 -29 -69 -52.5t-107 -23.5q-59 0 -100.5 20.5t-68 55t-39 80t-12.5 95.5q0 51 15 96.5t44.5 80t74.5 54.5t105 20 q57 0 97 -20t66 -53q35 38 74 55.5t89 17.5q53 0 90.5 -17.5t61.5 -47t35 -67.5t11 -80q0 -11 -0.5 -28t-2.5 -28h-294q3 -59 33.5 -96.5t95.5 -37.5zM378 238q0 27 -4 53.5t-15 46.5t-30 32.5t-48 12.5t-48.5 -13t-31 -33.5t-16.5 -46.5t-5 -53t4.5 -54t15.5 -48.5 t30.5 -34.5t48.5 -13q30 0 49.5 13t30.5 34.5t15 48.5t4 55zM684 284q0 52 -18.5 82t-66.5 30q-41 0 -65 -28.5t-25 -83.5h175z" />
<glyph unicode="&#x154;" horiz-adv-x="575" d="M526 478q0 -41 -10.5 -73.5t-28.5 -56.5t-41 -40t-47 -25l165 -276q-19 -8 -40 -12.5t-40 -4.5q-37 0 -62 16t-46 52l-114 194h-55v-252h-138v666q45 5 92 7.5t85 2.5q145 0 212.5 -49t67.5 -149zM382 465q0 63 -33 88.5t-90 25.5q-18 0 -31 -1t-22 -2v-231h47 q59 0 94 29.5t35 90.5zM298 742q-11 -7 -23 -11.5t-24 -4.5q-17 0 -34 11.5t-28 24.5l111 90q11 9 24 16t27 7q23 0 41.5 -17t31.5 -37z" />
<glyph unicode="&#x155;" horiz-adv-x="380" d="M194 426q6 9 16 20t24.5 20t32 15t37.5 6q12 0 25.5 -2t25 -7.5t18.5 -15t7 -23.5q0 -22 -11 -50.5t-22 -48.5q-17 14 -34 21.5t-40 7.5q-31 0 -52 -18t-21 -43v-308h-136v473q5 1 12 2q6 1 14 1.5t19 0.5q32 0 55.5 -12.5t29.5 -38.5zM281 564q-23 -26 -56 -26 q-14 0 -33 6t-28 14l82 116q14 19 28.5 28.5t35.5 9.5q18 0 40.5 -11t35.5 -22z" />
<glyph unicode="&#x156;" horiz-adv-x="575" d="M526 478q0 -41 -10.5 -73.5t-28.5 -56.5t-41 -40t-47 -25l165 -276q-19 -8 -40 -12.5t-40 -4.5q-37 0 -62 16t-46 52l-114 194h-55v-252h-138v666q45 5 92 7.5t85 2.5q145 0 212.5 -49t67.5 -149zM382 465q0 63 -33 88.5t-90 25.5q-18 0 -31 -1t-22 -2v-231h47 q59 0 94 29.5t35 90.5zM293 -190q-11 -21 -24.5 -31t-37.5 -10q-11 0 -21.5 1.5t-18.5 5.5l46 124q10 26 25 41t42 15q15 0 32 -4.5t28 -9.5z" />
<glyph unicode="&#x157;" horiz-adv-x="380" d="M194 426q6 9 16 20t24.5 20t32 15t37.5 6q12 0 25.5 -2t25 -7.5t18.5 -15t7 -23.5q0 -22 -11 -50.5t-22 -48.5q-17 14 -34 21.5t-40 7.5q-31 0 -52 -18t-21 -43v-308h-136v473q5 1 12 2q6 1 14 1.5t19 0.5q32 0 55.5 -12.5t29.5 -38.5zM111 -190q-11 -21 -24.5 -31 t-37.5 -10q-11 0 -21.5 1.5t-18.5 5.5l46 124q10 26 25 41t42 15q15 0 32 -4.5t28 -9.5z" />
<glyph unicode="&#x158;" horiz-adv-x="575" d="M526 478q0 -41 -10.5 -73.5t-28.5 -56.5t-41 -40t-47 -25l165 -276q-19 -8 -40 -12.5t-40 -4.5q-37 0 -62 16t-46 52l-114 194h-55v-252h-138v666q45 5 92 7.5t85 2.5q145 0 212.5 -49t67.5 -149zM382 465q0 63 -33 88.5t-90 25.5q-18 0 -31 -1t-22 -2v-231h47 q59 0 94 29.5t35 90.5zM306 854q14 14 26.5 18.5t28.5 4.5q12 0 25.5 -4t23.5 -10l-88 -110q-25 -29 -64 -29q-41 0 -65 29l-87 108q8 7 22.5 11t27.5 4q12 0 24.5 -4t24.5 -15l53 -52z" />
<glyph unicode="&#x159;" horiz-adv-x="380" d="M194 426q6 9 16 20t24.5 20t32 15t37.5 6q12 0 25.5 -2t25 -7.5t18.5 -15t7 -23.5q0 -22 -11 -50.5t-22 -48.5q-17 14 -34 21.5t-40 7.5q-31 0 -52 -18t-21 -43v-308h-136v473q5 1 12 2q6 1 14 1.5t19 0.5q32 0 55.5 -12.5t29.5 -38.5zM268 682q14 15 27.5 21t29.5 6 q12 0 25 -4t23 -10l-91 -128q-11 -17 -29 -23t-38 -6q-21 0 -39 7t-29 22l-91 126q8 7 23 11t28 4q12 0 24.5 -3t23.5 -16l59 -67z" />
<glyph unicode="&#x15a;" horiz-adv-x="518" d="M67 154q14 -11 31 -22.5t37.5 -21t44.5 -15.5t52 -6q21 0 41 5t35.5 15.5t25.5 27.5t10 42q0 26 -11 44t-29 30.5t-41.5 21.5t-49.5 18q-32 11 -64.5 24t-58.5 34t-42.5 53.5t-16.5 82.5q0 48 19 85t52 61.5t76 37t91 12.5q33 0 61.5 -5t51 -12t38 -14.5t23.5 -13.5 q28 -17 28 -45q0 -12 -10.5 -32.5t-29.5 -40.5q-25 20 -65 38t-84 18q-18 0 -37 -3.5t-34.5 -12t-25.5 -23t-10 -37.5q0 -21 10 -36.5t27 -27t39.5 -20.5t46.5 -18q32 -12 65 -25.5t60 -35.5t44 -54.5t17 -81.5q0 -53 -18.5 -93.5t-51.5 -68.5t-79.5 -42t-101.5 -14 q-71 0 -116 14.5t-65 26.5q-12 8 -20 19t-8 25q0 17 13.5 41t29.5 45zM290 742q-11 -7 -23 -11.5t-24 -4.5q-17 0 -34 11.5t-28 24.5l111 90q11 9 24 16t27 7q23 0 41.5 -17t31.5 -37z" />
<glyph unicode="&#x15b;" horiz-adv-x="430" d="M393 418q0 -15 -9.5 -35.5t-20.5 -38.5q-10 8 -24.5 16.5t-32.5 16t-37.5 12.5t-39.5 5q-11 0 -23 -1.5t-21.5 -6t-16 -13t-6.5 -22.5q0 -34 73 -50q30 -6 59.5 -15.5t53 -26.5t38 -43t14.5 -65q0 -40 -15.5 -71t-42.5 -52t-63.5 -32t-79.5 -11q-44 0 -74.5 6.5 t-50.5 15.5q-14 6 -30.5 17.5t-16.5 31.5q0 17 10 35.5t23 38.5q9 -8 22.5 -16.5t31 -16t37.5 -12.5t41 -5q13 0 27 2t24.5 8t17.5 16t7 26q0 29 -22.5 41.5t-67.5 21.5q-29 6 -56 16t-48 26.5t-33.5 41.5t-12.5 61t16 63t42.5 46t61.5 28.5t73 9.5q40 0 71.5 -6t54.5 -16 q44 -18 46 -47zM279 564q-23 -26 -56 -26q-14 0 -33 6t-28 14l82 116q14 19 28.5 28.5t35.5 9.5q18 0 40.5 -11t35.5 -22z" />
<glyph unicode="&#x15c;" horiz-adv-x="518" d="M67 154q14 -11 31 -22.5t37.5 -21t44.5 -15.5t52 -6q21 0 41 5t35.5 15.5t25.5 27.5t10 42q0 26 -11 44t-29 30.5t-41.5 21.5t-49.5 18q-32 11 -64.5 24t-58.5 34t-42.5 53.5t-16.5 82.5q0 48 19 85t52 61.5t76 37t91 12.5q33 0 61.5 -5t51 -12t38 -14.5t23.5 -13.5 q28 -17 28 -45q0 -12 -10.5 -32.5t-29.5 -40.5q-25 20 -65 38t-84 18q-18 0 -37 -3.5t-34.5 -12t-25.5 -23t-10 -37.5q0 -21 10 -36.5t27 -27t39.5 -20.5t46.5 -18q32 -12 65 -25.5t60 -35.5t44 -54.5t17 -81.5q0 -53 -18.5 -93.5t-51.5 -68.5t-79.5 -42t-101.5 -14 q-71 0 -116 14.5t-65 26.5q-12 8 -20 19t-8 25q0 17 13.5 41t29.5 45zM263 796l-53 -52q-12 -11 -24.5 -15t-24.5 -4q-13 0 -27.5 4t-22.5 11l87 108q24 29 65 29q39 0 64 -29l88 -110q-10 -6 -23.5 -10t-25.5 -4q-16 0 -28.5 4.5t-26.5 18.5z" />
<glyph unicode="&#x15d;" horiz-adv-x="430" d="M393 418q0 -15 -9.5 -35.5t-20.5 -38.5q-10 8 -24.5 16.5t-32.5 16t-37.5 12.5t-39.5 5q-11 0 -23 -1.5t-21.5 -6t-16 -13t-6.5 -22.5q0 -34 73 -50q30 -6 59.5 -15.5t53 -26.5t38 -43t14.5 -65q0 -40 -15.5 -71t-42.5 -52t-63.5 -32t-79.5 -11q-44 0 -74.5 6.5 t-50.5 15.5q-14 6 -30.5 17.5t-16.5 31.5q0 17 10 35.5t23 38.5q9 -8 22.5 -16.5t31 -16t37.5 -12.5t41 -5q13 0 27 2t24.5 8t17.5 16t7 26q0 29 -22.5 41.5t-67.5 21.5q-29 6 -56 16t-48 26.5t-33.5 41.5t-12.5 61t16 63t42.5 46t61.5 28.5t73 9.5q40 0 71.5 -6t54.5 -16 q44 -18 46 -47zM215 625l-59 -67q-11 -13 -23.5 -16t-24.5 -3q-13 0 -28 4t-23 11l91 126q11 15 29 22t39 7q20 0 38 -6t29 -23l91 -128q-10 -6 -23 -10t-25 -4q-16 0 -29.5 6t-27.5 21z" />
<glyph unicode="&#x15e;" horiz-adv-x="518" d="M312 -132q0 -22 -10 -39.5t-25.5 -30t-36 -19t-41.5 -6.5q-20 0 -34 9t-14 26q0 7 1.5 17.5t5.5 23.5q7 -4 16 -6.5t18 -2.5q16 0 25.5 5t9.5 18q0 12 -6.5 20.5t-14 16.5t-14 17t-6.5 24q0 20 11 37l4 6q-50 3 -84 14q-45 14 -65 26q-12 8 -20 19t-8 25q0 17 13.5 41 t29.5 45q14 -11 31 -22.5t37.5 -21t44.5 -15.5t52 -6q21 0 41 5t35.5 15.5t25.5 27.5t10 42q0 26 -11 44t-29 30.5t-41.5 21.5t-49.5 18q-32 11 -64.5 24t-58.5 34t-42.5 53.5t-16.5 82.5q0 48 19 85t52 61.5t76 37t91 12.5q33 0 61.5 -5t51 -12t38 -14.5t23.5 -13.5 q28 -17 28 -45q0 -12 -10.5 -32.5t-29.5 -40.5q-25 20 -65 38t-84 18q-18 0 -37 -3.5t-34.5 -12t-25.5 -23t-10 -37.5q0 -21 10 -36.5t27 -27t39.5 -20.5t46.5 -18q32 -12 65 -25.5t60 -35.5t44 -54.5t17 -81.5q0 -53 -18.5 -93.5t-51.5 -68.5t-80 -42q-30 -9 -64 -12l-1 -2 q-7 -9 -7 -20t8 -18.5t17 -17.5t17 -23.5t8 -35.5z" />
<glyph unicode="&#x15f;" horiz-adv-x="430" d="M281 -132q0 -22 -10 -39.5t-25.5 -30t-36 -19t-41.5 -6.5q-20 0 -34 9t-14 26q0 7 1.5 17.5t5.5 23.5q7 -4 16 -6.5t18 -2.5q16 0 25.5 5t9.5 18q0 12 -6.5 20.5t-14 16.5t-14 17t-6.5 24q0 20 11 37l6 8q-27 1 -48 6q-30 6 -50 15q-14 6 -30.5 17.5t-16.5 31.5 q0 17 10 35.5t23 38.5q9 -8 22.5 -16.5t31 -16t37.5 -12.5t41 -5q13 0 27 2t24.5 8t17.5 16t7 26q0 29 -22.5 41.5t-67.5 21.5q-29 6 -56 16t-48 26.5t-33.5 41.5t-12.5 61t16 63t42.5 46t61.5 28.5t73 9.5q40 0 71.5 -6t54.5 -16q44 -18 46 -47q0 -15 -9.5 -35.5 t-20.5 -38.5q-10 8 -24.5 16.5t-32.5 16t-37.5 12.5t-39.5 5q-11 0 -23 -1.5t-21.5 -6t-16 -13t-6.5 -22.5q0 -34 73 -50q30 -6 59.5 -15.5t53 -26.5t38 -43t14.5 -65q0 -40 -15.5 -71t-42.5 -52t-64 -32q-17 -5 -37 -8q-1 -2 -3 -5q-7 -9 -7 -20t8 -18.5t17 -17.5t17 -23.5 t8 -35.5z" />
<glyph unicode="&#x160;" horiz-adv-x="518" d="M67 154q14 -11 31 -22.5t37.5 -21t44.5 -15.5t52 -6q21 0 41 5t35.5 15.5t25.5 27.5t10 42q0 26 -11 44t-29 30.5t-41.5 21.5t-49.5 18q-32 11 -64.5 24t-58.5 34t-42.5 53.5t-16.5 82.5q0 48 19 85t52 61.5t76 37t91 12.5q33 0 61.5 -5t51 -12t38 -14.5t23.5 -13.5 q28 -17 28 -45q0 -12 -10.5 -32.5t-29.5 -40.5q-25 20 -65 38t-84 18q-18 0 -37 -3.5t-34.5 -12t-25.5 -23t-10 -37.5q0 -21 10 -36.5t27 -27t39.5 -20.5t46.5 -18q32 -12 65 -25.5t60 -35.5t44 -54.5t17 -81.5q0 -53 -18.5 -93.5t-51.5 -68.5t-79.5 -42t-101.5 -14 q-71 0 -116 14.5t-65 26.5q-12 8 -20 19t-8 25q0 17 13.5 41t29.5 45zM315 854q14 14 26.5 18.5t28.5 4.5q12 0 25.5 -4t23.5 -10l-88 -110q-25 -29 -64 -29q-41 0 -65 29l-87 108q8 7 22.5 11t27.5 4q12 0 24.5 -4t24.5 -15l53 -52z" />
<glyph unicode="&#x161;" horiz-adv-x="430" d="M393 418q0 -15 -9.5 -35.5t-20.5 -38.5q-10 8 -24.5 16.5t-32.5 16t-37.5 12.5t-39.5 5q-11 0 -23 -1.5t-21.5 -6t-16 -13t-6.5 -22.5q0 -34 73 -50q30 -6 59.5 -15.5t53 -26.5t38 -43t14.5 -65q0 -40 -15.5 -71t-42.5 -52t-63.5 -32t-79.5 -11q-44 0 -74.5 6.5 t-50.5 15.5q-14 6 -30.5 17.5t-16.5 31.5q0 17 10 35.5t23 38.5q9 -8 22.5 -16.5t31 -16t37.5 -12.5t41 -5q13 0 27 2t24.5 8t17.5 16t7 26q0 29 -22.5 41.5t-67.5 21.5q-29 6 -56 16t-48 26.5t-33.5 41.5t-12.5 61t16 63t42.5 46t61.5 28.5t73 9.5q40 0 71.5 -6t54.5 -16 q44 -18 46 -47zM274 682q14 15 27.5 21t29.5 6q12 0 25 -4t23 -10l-91 -128q-11 -17 -29 -23t-38 -6q-21 0 -39 7t-29 22l-91 126q8 7 23 11t28 4q12 0 24.5 -3t23.5 -16l59 -67z" />
<glyph unicode="&#x162;" horiz-adv-x="570" d="M218 558h-209v1q-2 12 -2.5 20t-0.5 19q0 27 19.5 49.5t65.5 22.5h470q3 -21 3 -43q0 -13 -4 -25.5t-14 -22t-25.5 -15.5t-38.5 -6h-126v-558h-138v558zM265 -190q-11 -21 -24.5 -31t-37.5 -10q-11 0 -21.5 1.5t-18.5 5.5l46 124q10 26 25 41t42 15q15 0 32 -4.5t28 -9.5 z" />
<glyph unicode="&#x163;" horiz-adv-x="376" d="M71 72q-7 20 -9 42t-2 44v464q7 1 15 2q7 1 15 1.5t16 0.5q16 0 32 -3t29 -12t21 -24.5t8 -40.5v-70h140v-102h-140v-214q0 -70 57 -70q14 0 26.5 4.5t22.5 10t17.5 11.5t10.5 9q15 -22 23 -38t8 -30q0 -13 -10.5 -25.5t-29.5 -23t-46 -17t-59 -6.5q-62 0 -96.5 24 t-48.5 63zM192 -190q-11 -21 -24.5 -31t-37.5 -10q-11 0 -21.5 1.5t-18.5 5.5l46 124q10 26 25 41t42 15q15 0 32 -4.5t28 -9.5z" />
<glyph unicode="&#x164;" horiz-adv-x="570" d="M218 558h-209v1q-2 12 -2.5 20t-0.5 19q0 27 19.5 49.5t65.5 22.5h470q3 -21 3 -43q0 -13 -4 -25.5t-14 -22t-25.5 -15.5t-38.5 -6h-126v-558h-138v558zM337 854q14 14 26.5 18.5t28.5 4.5q12 0 25.5 -4t23.5 -10l-88 -110q-25 -29 -64 -29q-41 0 -65 29l-87 108 q8 7 22.5 11t27.5 4q12 0 24.5 -4t24.5 -15l53 -52z" />
<glyph unicode="&#x165;" horiz-adv-x="376" d="M71 72q-7 20 -9 42t-2 44v464q7 1 15 2q7 1 15 1.5t16 0.5q16 0 32 -3t29 -12t21 -24.5t8 -40.5v-70h140v-102h-140v-214q0 -70 57 -70q14 0 26.5 4.5t22.5 10t17.5 11.5t10.5 9q15 -22 23 -38t8 -30q0 -13 -10.5 -25.5t-29.5 -23t-46 -17t-59 -6.5q-62 0 -96.5 24 t-48.5 63zM345 579.938q-3 -30.6436 -21.5 -44.1084t-50.5 -13.4648h-9t-9 0.928711v130.932q0 35.2861 17 55.7148t57 20.4287q8 0 17.5 -0.463867t14.5 -1.39258z" />
<glyph unicode="&#x166;" horiz-adv-x="570" d="M218 558h-209v1q-2 12 -2.5 20t-0.5 19q0 27 19.5 49.5t65.5 22.5h470q3 -21 3 -43q0 -13 -4 -25.5t-14 -22t-25.5 -15.5t-38.5 -6h-126v-226h156v-82h-156v-250h-138v250h-140v82h140v226z" />
<glyph unicode="&#x167;" horiz-adv-x="382" d="M71 72q-7 20 -9 42t-2 44v464q7 1 15 2q7 1 15 1.5t16 0.5q16 0 32 -3t29 -12t21 -24.5t8 -40.5v-70h140v-102h-140v-73h140v-85h-140v-56q0 -70 57 -70q14 0 26.5 4.5t22.5 10t17.5 11.5t10.5 9q15 -22 23 -38t8 -30q0 -13 -10.5 -25.5t-29.5 -23t-46 -17t-59 -6.5 q-62 0 -96.5 24t-48.5 63z" />
<glyph unicode="&#x168;" horiz-adv-x="647" d="M201 261q0 -36 4.5 -65t18 -49.5t37.5 -32t63 -11.5q68 0 95 39.5t27 110.5v416l18 2q8 1 15.5 2t14.5 1q14 0 29.5 -3t29 -11.5t22 -23.5t8.5 -40v-326q0 -20 -1 -40t-3 -41q-4 -42 -20.5 -79.5t-48 -65t-78.5 -43.5t-111 -16q-65 0 -110 14t-75 40.5t-46 65t-22 88.5 q-2 18 -3 37t-1 40v399q8 1 17 2q8 1 15.5 2t14.5 1q15 0 30.5 -3t29 -11.5t22 -23.5t8.5 -40v-335zM398 739q-24 0 -43 6t-34.5 12.5t-29.5 12.5t-29 6q-23 0 -39.5 -12t-32.5 -31q-12 10 -24.5 23.5t-12.5 29.5q0 14 10 27t25.5 22.5t34.5 15t37 5.5q22 0 39 -6t32 -12.5 t29 -12.5t29 -6q22 0 37 10.5t30 33.5q11 -10 25 -25t14 -31q0 -15 -8.5 -27.5t-22.5 -21.5t-31.5 -14t-34.5 -5z" />
<glyph unicode="&#x169;" horiz-adv-x="561" d="M361 474q1 0 16 1.5t29 1.5q17 0 33.5 -4t29 -13t20.5 -24.5t8 -39.5v-396h-91q-25 0 -31.5 13.5t-6.5 39.5q-17 -23 -52.5 -42.5t-94.5 -19.5q-71 0 -105 28t-44 74q-5 23 -6.5 50t-1.5 53v278q7 0 15 1q7 1 14.5 1.5t14.5 0.5q40 0 66 -17t26 -61v-197q0 -22 1.5 -41 t8 -32.5t21 -21t40.5 -7.5q37 0 63.5 15.5t26.5 38.5v320zM353 559q-24 0 -43 6t-34.5 12.5t-29.5 12.5t-29 6q-23 0 -39.5 -12t-32.5 -31q-12 10 -24.5 23.5t-12.5 29.5q0 14 10 27t25.5 22.5t34.5 15t37 5.5q22 0 39 -6t32 -12.5t29 -12.5t29 -6q22 0 37 10.5t30 33.5 q11 -10 25 -25t14 -31q0 -15 -8.5 -27.5t-22.5 -21.5t-31.5 -14t-34.5 -5z" />
<glyph unicode="&#x16a;" horiz-adv-x="647" d="M201 261q0 -36 4.5 -65t18 -49.5t37.5 -32t63 -11.5q68 0 95 39.5t27 110.5v416l18 2q8 1 15.5 2t14.5 1q14 0 29.5 -3t29 -11.5t22 -23.5t8.5 -40v-326q0 -20 -1 -40t-3 -41q-4 -42 -20.5 -79.5t-48 -65t-78.5 -43.5t-111 -16q-65 0 -110 14t-75 40.5t-46 65t-22 88.5 q-2 18 -3 37t-1 40v399q8 1 17 2q8 1 15.5 2t14.5 1q15 0 30.5 -3t29 -11.5t22 -23.5t8.5 -40v-335zM229 752q-38 0 -51 12.5t-13 38.5q0 11 0.5 18.5t1.5 18.5h241q32 0 50 -9t18 -45q0 -9 -0.5 -17t-1.5 -17h-245z" />
<glyph unicode="&#x16b;" horiz-adv-x="561" d="M361 474q1 0 16 1.5t29 1.5q17 0 33.5 -4t29 -13t20.5 -24.5t8 -39.5v-396h-91q-25 0 -31.5 13.5t-6.5 39.5q-17 -23 -52.5 -42.5t-94.5 -19.5q-71 0 -105 28t-44 74q-5 23 -6.5 50t-1.5 53v278q7 0 15 1q7 1 14.5 1.5t14.5 0.5q40 0 66 -17t26 -61v-197q0 -22 1.5 -41 t8 -32.5t21 -21t40.5 -7.5q37 0 63.5 15.5t26.5 38.5v320zM186 568q-38 0 -51 12.5t-13 38.5q0 11 0.5 18.5t1.5 18.5h241q32 0 50 -9t18 -45q0 -9 -0.5 -17t-1.5 -17h-245z" />
<glyph unicode="&#x16c;" horiz-adv-x="647" d="M201 261q0 -36 4.5 -65t18 -49.5t37.5 -32t63 -11.5q68 0 95 39.5t27 110.5v416l18 2q8 1 15.5 2t14.5 1q14 0 29.5 -3t29 -11.5t22 -23.5t8.5 -40v-326q0 -20 -1 -40t-3 -41q-4 -42 -20.5 -79.5t-48 -65t-78.5 -43.5t-111 -16q-65 0 -110 14t-75 40.5t-46 65t-22 88.5 q-2 18 -3 37t-1 40v399q8 1 17 2q8 1 15.5 2t14.5 1q15 0 30.5 -3t29 -11.5t22 -23.5t8.5 -40v-335zM482 874q-5 -30 -17 -56t-32.5 -46t-49 -31.5t-65.5 -11.5q-67 0 -109 36t-52 111q7 5 21 9t28 4t22 -6.5t15 -23.5q11 -29 28.5 -43t49.5 -14q31 0 47 14.5t30 41.5 q8 16 16 23.5t22 7.5q12 0 25 -5t21 -10z" />
<glyph unicode="&#x16d;" horiz-adv-x="561" d="M361 474q1 0 16 1.5t29 1.5q17 0 33.5 -4t29 -13t20.5 -24.5t8 -39.5v-396h-91q-25 0 -31.5 13.5t-6.5 39.5q-17 -23 -52.5 -42.5t-94.5 -19.5q-71 0 -105 28t-44 74q-5 23 -6.5 50t-1.5 53v278q7 0 15 1q7 1 14.5 1.5t14.5 0.5q40 0 66 -17t26 -61v-197q0 -22 1.5 -41 t8 -32.5t21 -21t40.5 -7.5q37 0 63.5 15.5t26.5 38.5v320zM444 686q-5 -30 -17 -56t-32.5 -46t-49 -31.5t-65.5 -11.5q-67 0 -109 36t-52 111q7 5 21 9t28 4t22 -6.5t15 -23.5q11 -29 28.5 -43t49.5 -14q31 0 47 14.5t30 41.5q8 16 16 23.5t22 7.5q12 0 25 -5t21 -10z" />
<glyph unicode="&#x16e;" horiz-adv-x="647" d="M201 261q0 -36 4.5 -65t18 -49.5t37.5 -32t63 -11.5q68 0 95 39.5t27 110.5v416l18 2q8 1 15.5 2t14.5 1q14 0 29.5 -3t29 -11.5t22 -23.5t8.5 -40v-326q0 -20 -1 -40t-3 -41q-4 -42 -20.5 -79.5t-48 -65t-78.5 -43.5t-111 -16q-65 0 -110 14t-75 40.5t-46 65t-22 88.5 q-2 18 -3 37t-1 40v399q8 1 17 2q8 1 15.5 2t14.5 1q15 0 30.5 -3t29 -11.5t22 -23.5t8.5 -40v-335zM441 813q0 -23 -8 -44t-22 -36.5t-35 -24.5t-46 -9q-53 0 -82.5 33t-29.5 80q0 24 7.5 44.5t22 36.5t35.5 25t47 9q25 0 46 -9t35 -24.5t22 -36.5t8 -44zM383 812 q0 25 -14.5 43t-38.5 18q-25 0 -39.5 -18t-14.5 -42t14 -43t40 -19q24 0 38.5 18.5t14.5 42.5z" />
<glyph unicode="&#x16f;" horiz-adv-x="561" d="M361 474q1 0 16 1.5t29 1.5q17 0 33.5 -4t29 -13t20.5 -24.5t8 -39.5v-396h-91q-25 0 -31.5 13.5t-6.5 39.5q-17 -23 -52.5 -42.5t-94.5 -19.5q-71 0 -105 28t-44 74q-5 23 -6.5 50t-1.5 53v278q7 0 15 1q7 1 14.5 1.5t14.5 0.5q40 0 66 -17t26 -61v-197q0 -22 1.5 -41 t8 -32.5t21 -21t40.5 -7.5q37 0 63.5 15.5t26.5 38.5v320zM391 657q0 -23 -8 -44t-22 -37t-35 -25t-46 -9q-26 0 -47 9t-35.5 24.5t-22 36.5t-7.5 44t7.5 44t22 36.5t35.5 25t47 9.5q25 0 46 -9t35 -25t22 -36.5t8 -43.5zM333 656q0 25 -14.5 43t-38.5 18q-25 0 -39.5 -18 t-14.5 -42q0 -25 14 -43.5t40 -18.5q24 0 38.5 18.5t14.5 42.5z" />
<glyph unicode="&#x170;" horiz-adv-x="647" d="M201 261q0 -36 4.5 -65t18 -49.5t37.5 -32t63 -11.5q68 0 95 39.5t27 110.5v416l18 2q8 1 15.5 2t14.5 1q14 0 29.5 -3t29 -11.5t22 -23.5t8.5 -40v-326q0 -20 -1 -40t-3 -41q-4 -42 -20.5 -79.5t-48 -65t-78.5 -43.5t-111 -16q-65 0 -110 14t-75 40.5t-46 65t-22 88.5 q-2 18 -3 37t-1 40v399q8 1 17 2q8 1 15.5 2t14.5 1q15 0 30.5 -3t29 -11.5t22 -23.5t8.5 -40v-335zM450 742q-11 -7 -23 -11.5t-24 -4.5q-17 0 -32 10.5t-26 23.5l111 90q11 9 23 15.5t26 6.5q23 0 40 -17t31 -34zM242 742q-11 -7 -23 -11.5t-24 -4.5q-17 0 -32 10.5 t-26 23.5l111 90q11 9 23 15.5t26 6.5q23 0 40 -17t31 -34z" />
<glyph unicode="&#x171;" horiz-adv-x="561" d="M361 474q1 0 16 1.5t29 1.5q17 0 33.5 -4t29 -13t20.5 -24.5t8 -39.5v-396h-91q-25 0 -31.5 13.5t-6.5 39.5q-17 -23 -52.5 -42.5t-94.5 -19.5q-71 0 -105 28t-44 74q-5 23 -6.5 50t-1.5 53v278q7 0 15 1q7 1 14.5 1.5t14.5 0.5q40 0 66 -17t26 -61v-197q0 -22 1.5 -41 t8 -32.5t21 -21t40.5 -7.5q37 0 63.5 15.5t26.5 38.5v320zM417 564q-12 -12 -25 -19t-29 -7q-14 0 -28 6t-23 14l78 107q14 19 28 28.5t35 9.5q18 0 36.5 -10.5t31.5 -21.5zM229 564q-12 -12 -25 -19t-29 -7q-14 0 -28 6t-23 14l78 107q14 19 28 28.5t35 9.5 q18 0 36.5 -10.5t31.5 -21.5z" />
<glyph unicode="&#x172;" horiz-adv-x="647" d="M201 261q0 -36 4.5 -65t18 -49.5t37.5 -32t63 -11.5q68 0 95 39.5t27 110.5v416l18 2q8 1 15.5 2t14.5 1q14 0 29.5 -3t29 -11.5t22 -23.5t8.5 -40v-326q0 -20 -1 -40t-3 -41q-12 -114 -117 -180q-17 -11 -31.5 -25.5t-25.5 -31.5t-17 -35t-6 -34q0 -36 32 -36q17 0 28 9 t18 17q8 -9 15 -21.5t7 -23.5q0 -12 -8.5 -21.5t-21.5 -16t-28.5 -10t-30.5 -3.5q-45 0 -74 21.5t-29 67.5q0 38 20 69.5t47 51.5q-9 -1 -18 -1.5t-18 -0.5q-65 0 -110 14t-75 40.5t-46 65t-22 88.5q-2 18 -3 37t-1 40v399q8 1 17 2q8 1 15.5 2t14.5 1q15 0 30.5 -3 t29 -11.5t22 -23.5t8.5 -40v-335z" />
<glyph unicode="&#x173;" horiz-adv-x="561" d="M361 474q1 0 16 1.5t29 1.5q17 0 33.5 -4t29 -13t20.5 -24.5t8 -39.5v-396q-18 -10 -33 -23.5t-26 -29.5t-17.5 -32t-6.5 -31q0 -37 31 -37q15 0 27 9t19 17q8 -9 15 -21.5t7 -23.5q0 -12 -8 -21.5t-21 -16t-28.5 -10t-31.5 -3.5q-45 0 -73.5 21.5t-28.5 67.5 q0 22 7.5 42t19 37.5t26 31.5t28.5 23q-23 1 -29 14.5t-6 38.5q-17 -23 -52.5 -42.5t-94.5 -19.5q-71 0 -105 28t-44 74q-5 23 -6.5 50t-1.5 53v278q7 0 15 1q7 1 14.5 1.5t14.5 0.5q40 0 66 -17t26 -61v-197q0 -22 1.5 -41t8 -32.5t21 -21t40.5 -7.5q37 0 63.5 15.5 t26.5 38.5v320z" />
<glyph unicode="&#x174;" horiz-adv-x="897" d="M676 -5h-113l-113 350l-109 -350h-112l-223 666q12 5 34.5 9t38.5 4q37 0 57.5 -16.5t30.5 -48.5l130 -428l98 314l-46 170q19 4 35.5 6.5t30.5 2.5q38 0 57.5 -17t28.5 -49l118 -416l113 408q9 32 30 53t58 21q23 0 40 -3.5t31 -7.5zM424 796l-53 -52q-12 -11 -24.5 -15 t-24.5 -4q-13 0 -27.5 4t-22.5 11l87 108q24 29 65 29q39 0 64 -29l88 -110q-10 -6 -23.5 -10t-25.5 -4q-16 0 -28.5 4.5t-26.5 18.5z" />
<glyph unicode="&#x175;" horiz-adv-x="725" d="M557 -5h-106l-81 217l-93 -217h-96l-175 469q18 6 37.5 9.5t33.5 3.5q31 0 52.5 -13t32.5 -44l90 -270l67 163l-48 153q19 6 35.5 8.5t32.5 2.5q26 0 44.5 -13t27.5 -42l86 -262l65 226q12 44 31 67.5t57 23.5q20 0 36.5 -3.5t32.5 -9.5zM339 625l-59 -67 q-11 -13 -23.5 -16t-24.5 -3q-13 0 -28 4t-23 11l91 126q11 15 29 22t39 7q20 0 38 -6t29 -23l91 -128q-10 -6 -23 -10t-25 -4q-16 0 -29.5 6t-27.5 21z" />
<glyph unicode="&#x176;" horiz-adv-x="578" d="M357 257v-257h-137v253l-214 401q17 8 40 14t43 6q36 0 53.5 -14t31.5 -40l117 -233l117 231q12 24 32 40t56 16q23 0 40 -4t36 -11zM291 796l-53 -52q-12 -11 -24.5 -15t-24.5 -4q-13 0 -27.5 4t-22.5 11l87 108q24 29 65 29q39 0 64 -29l88 -110q-10 -6 -23.5 -10 t-25.5 -4q-16 0 -28.5 4.5t-26.5 18.5z" />
<glyph unicode="&#x177;" horiz-adv-x="494" d="M322 -82q-20 -65 -66.5 -105t-127.5 -40q-44 0 -73.5 13t-29.5 44q0 14 7.5 31t20.5 38q11 -8 29 -14t38 -6q31 0 51 17t34 58l17 50h-62l-154 462q15 5 36.5 8t39.5 3q28 0 49.5 -15t30.5 -46l90 -308l74 269q6 21 13 39t18.5 31.5t27.5 21.5t39 8q19 0 34 -3.5t30 -9.5 zM251 625l-59 -67q-11 -13 -23.5 -16t-24.5 -3q-13 0 -28 4t-23 11l91 126q11 15 29 22t39 7q20 0 38 -6t29 -23l91 -128q-10 -6 -23 -10t-25 -4q-16 0 -29.5 6t-27.5 21z" />
<glyph unicode="&#x178;" horiz-adv-x="578" d="M357 257v-257h-137v253l-214 401q17 8 40 14t43 6q36 0 53.5 -14t31.5 -40l117 -233l117 231q12 24 32 40t56 16q23 0 40 -4t36 -11zM457 794q0 -29 -19 -46.5t-46 -17.5q-28 0 -47 17.5t-19 46.5q0 28 19.5 46t46.5 18t46 -18t19 -46zM261 794q0 -29 -19 -46.5 t-46 -17.5q-28 0 -47 17.5t-19 46.5q0 28 19.5 46t46.5 18t46 -18t19 -46z" />
<glyph unicode="&#x179;" horiz-adv-x="556" d="M21 0v92l336 471h-333v1q-1 10 -1.5 18t-0.5 19q0 28 19 48.5t64 20.5h368q26 0 37 -9.5t11 -32.5v-50l-338 -472h268q24 0 40.5 -6t26 -16t13.5 -22.5t4 -25.5q0 -11 -0.5 -19t-1.5 -17h-512zM302 742q-11 -7 -23 -11.5t-24 -4.5q-17 0 -34 11.5t-28 24.5l111 90 q11 9 24 16t27 7q23 0 41.5 -17t31.5 -37z" />
<glyph unicode="&#x17a;" horiz-adv-x="443" d="M25 0v91l217 279h-220q-1 5 -1 10.5v9.5q0 45 24.5 65.5t69.5 20.5h231q32 0 47 -10.5t15 -37.5v-34l-223 -289h156q47 0 67 -18t20 -56q0 -10 -0.5 -17t-1.5 -14h-401zM290 564q-23 -26 -56 -26q-14 0 -33 6t-28 14l82 116q14 19 28.5 28.5t35.5 9.5q18 0 40.5 -11 t35.5 -22z" />
<glyph unicode="&#x17b;" horiz-adv-x="556" d="M21 0v92l336 471h-333v1q-1 10 -1.5 18t-0.5 19q0 28 19 48.5t64 20.5h368q26 0 37 -9.5t11 -32.5v-50l-338 -472h268q24 0 40.5 -6t26 -16t13.5 -22.5t4 -25.5q0 -11 -0.5 -19t-1.5 -17h-512zM345 797q0 -30 -19.5 -48.5t-48.5 -18.5t-49 18.5t-20 48.5t20 49.5t49 19.5 t48.5 -19.5t19.5 -49.5z" />
<glyph unicode="&#x17c;" horiz-adv-x="443" d="M25 0v91l217 279h-220q-1 5 -1 10.5v9.5q0 45 24.5 65.5t69.5 20.5h231q32 0 47 -10.5t15 -37.5v-34l-223 -289h156q47 0 67 -18t20 -56q0 -10 -0.5 -17t-1.5 -14h-401zM296 622q0 -31 -19.5 -49.5t-48.5 -18.5t-49 18.5t-20 49.5q0 30 20 49t49 19t48.5 -19t19.5 -49z " />
<glyph unicode="&#x17d;" horiz-adv-x="556" d="M21 0v92l336 471h-333v1q-1 10 -1.5 18t-0.5 19q0 28 19 48.5t64 20.5h368q26 0 37 -9.5t11 -32.5v-50l-338 -472h268q24 0 40.5 -6t26 -16t13.5 -22.5t4 -25.5q0 -11 -0.5 -19t-1.5 -17h-512zM331 854q14 14 26.5 18.5t28.5 4.5q12 0 25.5 -4t23.5 -10l-88 -110 q-25 -29 -64 -29q-41 0 -65 29l-87 108q8 7 22.5 11t27.5 4q12 0 24.5 -4t24.5 -15l53 -52z" />
<glyph unicode="&#x17e;" horiz-adv-x="443" d="M25 0v91l217 279h-220q-1 5 -1 10.5v9.5q0 45 24.5 65.5t69.5 20.5h231q32 0 47 -10.5t15 -37.5v-34l-223 -289h156q47 0 67 -18t20 -56q0 -10 -0.5 -17t-1.5 -14h-401zM284 682q14 15 27.5 21t29.5 6q12 0 25 -4t23 -10l-91 -128q-11 -17 -29 -23t-38 -6q-21 0 -39 7 t-29 22l-91 126q8 7 23 11t28 4q12 0 24.5 -3t23.5 -16l59 -67z" />
<glyph unicode="&#x17f;" horiz-adv-x="333" d="M382 572q-17 17 -42.5 28t-57.5 11q-38 0 -60.5 -20t-22.5 -68v-523h-135v519q0 97 51.5 147.5t146.5 50.5q36 0 72.5 -8t60.5 -24q25 -17 25 -42q0 -14 -12 -34t-26 -37z" />
<glyph unicode="&#x192;" horiz-adv-x="561" d="M317 342l-58 -259q-12 -54 -34 -93.5t-51.5 -64.5t-65.5 -37t-75 -12q-26 0 -44.5 9t-18.5 38q0 22 12 60q57 0 93.5 23t50.5 86l54 250h-91v102h115l16 66q12 51 36 84t54 53t64.5 28t69.5 8q27 0 47 -8t20 -36q0 -11 -2.5 -25.5t-8.5 -32.5q-8 1 -14.5 1h-13.5 q-28 0 -49.5 -7t-37 -23t-27 -42.5t-19.5 -65.5h147v-102h-169z" />
<glyph unicode="&#x218;" horiz-adv-x="518" d="M67 154q14 -11 31 -22.5t37.5 -21t44.5 -15.5t52 -6q21 0 41 5t35.5 15.5t25.5 27.5t10 42q0 26 -11 44t-29 30.5t-41.5 21.5t-49.5 18q-32 11 -64.5 24t-58.5 34t-42.5 53.5t-16.5 82.5q0 48 19 85t52 61.5t76 37t91 12.5q33 0 61.5 -5t51 -12t38 -14.5t23.5 -13.5 q28 -17 28 -45q0 -12 -10.5 -32.5t-29.5 -40.5q-25 20 -65 38t-84 18q-18 0 -37 -3.5t-34.5 -12t-25.5 -23t-10 -37.5q0 -21 10 -36.5t27 -27t39.5 -20.5t46.5 -18q32 -12 65 -25.5t60 -35.5t44 -54.5t17 -81.5q0 -53 -18.5 -93.5t-51.5 -68.5t-79.5 -42t-101.5 -14 q-71 0 -116 14.5t-65 26.5q-12 8 -20 19t-8 25q0 17 13.5 41t29.5 45zM230 -190q-11 -21 -24.5 -31t-37.5 -10q-11 0 -21.5 1.5t-18.5 5.5l46 124q10 26 25 41t42 15q15 0 32 -4.5t28 -9.5z" />
<glyph unicode="&#x219;" horiz-adv-x="430" d="M393 418q0 -15 -9.5 -35.5t-20.5 -38.5q-10 8 -24.5 16.5t-32.5 16t-37.5 12.5t-39.5 5q-11 0 -23 -1.5t-21.5 -6t-16 -13t-6.5 -22.5q0 -34 73 -50q30 -6 59.5 -15.5t53 -26.5t38 -43t14.5 -65q0 -40 -15.5 -71t-42.5 -52t-63.5 -32t-79.5 -11q-44 0 -74.5 6.5 t-50.5 15.5q-14 6 -30.5 17.5t-16.5 31.5q0 17 10 35.5t23 38.5q9 -8 22.5 -16.5t31 -16t37.5 -12.5t41 -5q13 0 27 2t24.5 8t17.5 16t7 26q0 29 -22.5 41.5t-67.5 21.5q-29 6 -56 16t-48 26.5t-33.5 41.5t-12.5 61t16 63t42.5 46t61.5 28.5t73 9.5q40 0 71.5 -6t54.5 -16 q44 -18 46 -47zM190 -190q-11 -21 -24.5 -31t-37.5 -10q-11 0 -21.5 1.5t-18.5 5.5l46 124q10 26 25 41t42 15q15 0 32 -4.5t28 -9.5z" />
<glyph unicode="&#x21a;" horiz-adv-x="570" d="M218 558h-209v1q-2 12 -2.5 20t-0.5 19q0 27 19.5 49.5t65.5 22.5h470q3 -21 3 -43q0 -13 -4 -25.5t-14 -22t-25.5 -15.5t-38.5 -6h-126v-558h-138v558zM266 -190q-11 -21 -24.5 -31t-37.5 -10q-11 0 -21.5 1.5t-18.5 5.5l46 124q10 26 25 41t42 15q15 0 32 -4.5t28 -9.5 z" />
<glyph unicode="&#x21b;" horiz-adv-x="376" d="M71 72q-7 20 -9 42t-2 44v464q7 1 15 2q7 1 15 1.5t16 0.5q16 0 32 -3t29 -12t21 -24.5t8 -40.5v-70h140v-102h-140v-214q0 -70 57 -70q14 0 26.5 4.5t22.5 10t17.5 11.5t10.5 9q15 -22 23 -38t8 -30q0 -13 -10.5 -25.5t-29.5 -23t-46 -17t-59 -6.5q-62 0 -96.5 24 t-48.5 63zM192 -190q-11 -21 -24.5 -31t-37.5 -10q-11 0 -21.5 1.5t-18.5 5.5l46 124q10 26 25 41t42 15q15 0 32 -4.5t28 -9.5z" />
<glyph unicode="&#x237;" horiz-adv-x="264" d="M64 473q0 1 15 2.5t31 1.5t32 -3t29 -11.5t21 -24t8 -40.5v-382v-27.5t-1 -29.5q-3 -58 -21 -94.5t-43 -56.5t-52.5 -27.5t-49.5 -7.5q-44 0 -57 24.5t-13 65.5v8q31 2 50.5 9t31 20t15.5 32t4 45v496z" />
<glyph unicode="&#x2bc;" horiz-adv-x="233" d="M89 703q30 0 44.5 -21t14.5 -50q0 -21 -7 -43.5t-19 -42t-28.5 -32t-34.5 -12.5q-13 0 -23.5 6.5t-15.5 20.5q15 7 31 23t18 39q-11 8 -22.5 22t-11.5 39q0 18 13.5 34.5t40.5 16.5z" />
<glyph unicode="&#x2c6;" horiz-adv-x="382" d="M190 625l-59 -67q-11 -13 -23.5 -16t-24.5 -3q-13 0 -28 4t-23 11l91 126q11 15 29 22t39 7q20 0 38 -6t29 -23l91 -128q-10 -6 -23 -10t-25 -4q-16 0 -29.5 6t-27.5 21z" />
<glyph unicode="&#x2c7;" horiz-adv-x="382" d="M244 682q14 15 27.5 21t29.5 6q12 0 25 -4t23 -10l-91 -128q-11 -17 -29 -23t-38 -6q-21 0 -39 7t-29 22l-91 126q8 7 23 11t28 4q12 0 24.5 -3t23.5 -16l59 -67z" />
<glyph unicode="&#x2c9;" horiz-adv-x="382" d="M105 568q-38 0 -51 12.5t-13 38.5q0 11 0.5 18.5t1.5 18.5h241q32 0 50 -9t18 -45q0 -9 -0.5 -17t-1.5 -17h-245z" />
<glyph unicode="&#x2d8;" horiz-adv-x="382" d="M353 686q-5 -30 -17 -56t-32.5 -46t-49 -31.5t-65.5 -11.5q-67 0 -109 36t-52 111q7 5 21 9t28 4t22 -6.5t15 -23.5q11 -29 28.5 -43t49.5 -14q31 0 47 14.5t30 41.5q8 16 16 23.5t22 7.5q12 0 25 -5t21 -10z" />
<glyph unicode="&#x2d9;" horiz-adv-x="382" d="M259 622q0 -31 -19.5 -49.5t-48.5 -18.5t-49 18.5t-20 49.5q0 30 20 49t49 19t48.5 -19t19.5 -49z" />
<glyph unicode="&#x2da;" horiz-adv-x="382" d="M302 657q0 -23 -8 -44t-22 -37t-35 -25t-46 -9q-26 0 -47 9t-35.5 24.5t-22 36.5t-7.5 44t7.5 44t22 36.5t35.5 25t47 9.5q25 0 46 -9t35 -25t22 -36.5t8 -43.5zM244 656q0 25 -14.5 43t-38.5 18q-25 0 -39.5 -18t-14.5 -42q0 -25 14 -43.5t40 -18.5q24 0 38.5 18.5 t14.5 42.5z" />
<glyph unicode="&#x2db;" horiz-adv-x="382" d="M217 -153q15 0 25 8t17 16q8 -8 17.5 -19.5t9.5 -24.5q0 -12 -7.5 -21.5t-20.5 -16t-29 -9.5t-33 -3q-45 0 -73 21.5t-28 69.5q0 25 10 48t25 42.5t31.5 34.5t29.5 23l85 -11q-15 -11 -31 -25.5t-29 -31.5t-21.5 -34.5t-8.5 -33.5q0 -15 7.5 -24t23.5 -9z" />
<glyph unicode="&#x2dc;" horiz-adv-x="382" d="M265 559q-24 0 -43 6t-34.5 12.5t-29.5 12.5t-29 6q-23 0 -39.5 -12t-32.5 -31q-12 10 -24.5 23.5t-12.5 29.5q0 14 10 27t25.5 22.5t34.5 15t37 5.5q22 0 39 -6t32 -12.5t29 -12.5t29 -6q22 0 37 10.5t30 33.5q11 -10 25 -25t14 -31q0 -15 -8.5 -27.5t-22.5 -21.5 t-31.5 -14t-34.5 -5z" />
<glyph unicode="&#x2dd;" horiz-adv-x="382" d="M291 564q-12 -12 -25 -19t-29 -7q-14 0 -28 6t-23 14l78 107q14 19 28 28.5t35 9.5q18 0 36.5 -10.5t31.5 -21.5zM103 564q-12 -12 -25 -19t-29 -7q-14 0 -28 6t-23 14l78 107q14 19 28 28.5t35 9.5q18 0 36.5 -10.5t31.5 -21.5z" />
<glyph unicode="&#x3a9;" horiz-adv-x="743" d="M675 365q0 -46 -9.5 -85.5t-25.5 -72t-35.5 -58t-39.5 -43.5h118v-106h-254v96q20 15 39.5 39t35 56.5t25 72.5t9.5 88q0 102 -40 153t-117 51q-78 0 -121 -52.5t-43 -153.5q0 -48 9.5 -88t25.5 -71.5t35.5 -55t39.5 -39.5v-96h-255v106h118q-20 18 -40 42t-35.5 55.5 t-25 69.5t-9.5 85q0 69 21.5 126.5t60.5 99t95 64.5t125 23q71 0 125.5 -21.5t92 -61.5t56.5 -96.5t19 -126.5z" />
<glyph unicode="&#x3c0;" horiz-adv-x="689" d="M551 142q0 -29 7.5 -42.5t25.5 -13.5q14 0 23 2t22 7l12 -88q-24 -10 -50.5 -13.5t-46.5 -3.5q-51 0 -83.5 23t-40.5 71q-2 15 -3 31t-1 34v221h-129v-370h-134v370q-25 0 -49 -7t-41 -16l-37 93q32 20 75 28t86 8h456v-106h-92v-228z" />
<glyph unicode="&#x1e80;" horiz-adv-x="897" d="M676 -5h-113l-113 350l-109 -350h-112l-223 666q12 5 34.5 9t38.5 4q37 0 57.5 -16.5t30.5 -48.5l130 -428l98 314l-46 170q19 4 35.5 6.5t30.5 2.5q38 0 57.5 -17t28.5 -49l118 -416l113 408q9 32 30 53t58 21q23 0 40 -3.5t31 -7.5zM264 821q13 20 31.5 37t41.5 17 q14 0 27 -7t24 -16l111 -90q-11 -13 -28 -24.5t-34 -11.5q-12 0 -24 4.5t-23 11.5z" />
<glyph unicode="&#x1e81;" horiz-adv-x="725" d="M557 -5h-106l-81 217l-93 -217h-96l-175 469q18 6 37.5 9.5t33.5 3.5q31 0 52.5 -13t32.5 -44l90 -270l67 163l-48 153q19 6 35.5 8.5t32.5 2.5q26 0 44.5 -13t27.5 -42l86 -262l65 226q12 44 31 67.5t57 23.5q20 0 36.5 -3.5t32.5 -9.5zM208 679q13 11 35.5 22t40.5 11 q21 0 35.5 -9.5t28.5 -28.5l82 -116q-9 -8 -28 -14t-33 -6q-33 0 -56 26z" />
<glyph unicode="&#x1e82;" horiz-adv-x="897" d="M676 -5h-113l-113 350l-109 -350h-112l-223 666q12 5 34.5 9t38.5 4q37 0 57.5 -16.5t30.5 -48.5l130 -428l98 314l-46 170q19 4 35.5 6.5t30.5 2.5q38 0 57.5 -17t28.5 -49l118 -416l113 408q9 32 30 53t58 21q23 0 40 -3.5t31 -7.5zM423 742q-11 -7 -23 -11.5t-24 -4.5 q-17 0 -34 11.5t-28 24.5l111 90q11 9 24 16t27 7q23 0 41.5 -17t31.5 -37z" />
<glyph unicode="&#x1e83;" horiz-adv-x="725" d="M557 -5h-106l-81 217l-93 -217h-96l-175 469q18 6 37.5 9.5t33.5 3.5q31 0 52.5 -13t32.5 -44l90 -270l67 163l-48 153q19 6 35.5 8.5t32.5 2.5q26 0 44.5 -13t27.5 -42l86 -262l65 226q12 44 31 67.5t57 23.5q20 0 36.5 -3.5t32.5 -9.5zM389 564q-23 -26 -56 -26 q-14 0 -33 6t-28 14l82 116q14 19 28.5 28.5t35.5 9.5q18 0 40.5 -11t35.5 -22z" />
<glyph unicode="&#x1e84;" horiz-adv-x="897" d="M676 -5h-113l-113 350l-109 -350h-112l-223 666q12 5 34.5 9t38.5 4q37 0 57.5 -16.5t30.5 -48.5l130 -428l98 314l-46 170q19 4 35.5 6.5t30.5 2.5q38 0 57.5 -17t28.5 -49l118 -416l113 408q9 32 30 53t58 21q23 0 40 -3.5t31 -7.5zM590 794q0 -29 -19 -46.5t-46 -17.5 q-28 0 -47 17.5t-19 46.5q0 28 19.5 46t46.5 18t46 -18t19 -46zM394 794q0 -29 -19 -46.5t-46 -17.5q-28 0 -47 17.5t-19 46.5q0 28 19.5 46t46.5 18t46 -18t19 -46z" />
<glyph unicode="&#x1e85;" horiz-adv-x="725" d="M557 -5h-106l-81 217l-93 -217h-96l-175 469q18 6 37.5 9.5t33.5 3.5q31 0 52.5 -13t32.5 -44l90 -270l67 163l-48 153q19 6 35.5 8.5t32.5 2.5q26 0 44.5 -13t27.5 -42l86 -262l65 226q12 44 31 67.5t57 23.5q20 0 36.5 -3.5t32.5 -9.5zM549 619q0 -29 -19 -46.5 t-46 -17.5q-28 0 -47 17.5t-19 46.5q0 28 19.5 46t46.5 18t46 -18t19 -46zM343 619q0 -29 -19 -46.5t-46 -17.5q-28 0 -47 17.5t-19 46.5q0 28 19.5 46t46.5 18t46 -18t19 -46z" />
<glyph unicode="&#x1ef2;" horiz-adv-x="578" d="M357 257v-257h-137v253l-214 401q17 8 40 14t43 6q36 0 53.5 -14t31.5 -40l117 -233l117 231q12 24 32 40t56 16q23 0 40 -4t36 -11zM120 821q13 20 31.5 37t41.5 17q14 0 27 -7t24 -16l111 -90q-11 -13 -28 -24.5t-34 -11.5q-12 0 -24 4.5t-23 11.5z" />
<glyph unicode="&#x1ef3;" horiz-adv-x="494" d="M322 -82q-20 -65 -66.5 -105t-127.5 -40q-44 0 -73.5 13t-29.5 44q0 14 7.5 31t20.5 38q11 -8 29 -14t38 -6q31 0 51 17t34 58l17 50h-62l-154 462q15 5 36.5 8t39.5 3q28 0 49.5 -15t30.5 -46l90 -308l74 269q6 21 13 39t18.5 31.5t27.5 21.5t39 8q19 0 34 -3.5t30 -9.5 zM119 679q13 11 35.5 22t40.5 11q21 0 35.5 -9.5t28.5 -28.5l82 -116q-9 -8 -28 -14t-33 -6q-33 0 -56 26z" />
<glyph unicode="&#x2013;" horiz-adv-x="512" d="M92 228q-80 0 -80 63q0 22 3 43h409q15 0 28.5 -2t24.5 -9t17.5 -19t6.5 -33q0 -11 -0.5 -21.5t-1.5 -21.5h-407z" />
<glyph unicode="&#x2014;" horiz-adv-x="1012" d="M92 228q-80 0 -80 63q0 22 3 43h909q15 0 28.5 -2t24.5 -9t17.5 -19t6.5 -33q0 -11 -0.5 -21.5t-1.5 -21.5h-907z" />
<glyph unicode="&#x2018;" horiz-adv-x="256" d="M126 443q-38 0 -57 27t-19 65q0 27 9 57t25 54.5t37 41t45 16.5q17 0 30.5 -8.5t19.5 -25.5q-20 -9 -40.5 -30t-22.5 -51q14 -11 28.5 -29t14.5 -50q0 -24 -17.5 -45.5t-52.5 -21.5z" />
<glyph unicode="&#x2019;" horiz-adv-x="256" d="M130 703q38 0 57 -27t19 -65q0 -27 -9 -57t-25 -54.5t-37 -41t-45 -16.5q-17 0 -30.5 8.5t-19.5 25.5q20 9 40.5 30t22.5 51q-14 11 -28.5 29t-14.5 50q0 24 17.5 45.5t52.5 21.5z" />
<glyph unicode="&#x201a;" horiz-adv-x="241" d="M120 131q38 0 57 -27t19 -65q0 -27 -9 -57t-25 -54.5t-37 -41t-45 -16.5q-17 0 -30.5 8.5t-19.5 25.5q20 9 40.5 30t22.5 51q-14 11 -28.5 29t-14.5 50q0 24 17.5 45.5t52.5 21.5z" />
<glyph unicode="&#x201c;" horiz-adv-x="465" d="M335 443q-38 0 -57 27t-19 65q0 27 9 57t25 54.5t37 41t45 16.5q17 0 30.5 -8.5t19.5 -25.5q-20 -9 -40.5 -30t-22.5 -51q14 -11 28.5 -29t14.5 -50q0 -24 -17.5 -45.5t-52.5 -21.5zM126 443q-38 0 -57 27t-19 65q0 27 9 57t25 54.5t37 41t45 16.5q17 0 30.5 -8.5 t19.5 -25.5q-20 -9 -40.5 -30t-22.5 -51q14 -11 28.5 -29t14.5 -50q0 -24 -17.5 -45.5t-52.5 -21.5z" />
<glyph unicode="&#x201d;" horiz-adv-x="465" d="M339 703q38 0 57 -27t19 -65q0 -27 -9 -57t-25 -54.5t-37 -41t-45 -16.5q-17 0 -30.5 8.5t-19.5 25.5q20 9 40.5 30t22.5 51q-14 11 -28.5 29t-14.5 50q0 24 17.5 45.5t52.5 21.5zM130 703q38 0 57 -27t19 -65q0 -27 -9 -57t-25 -54.5t-37 -41t-45 -16.5q-17 0 -30.5 8.5 t-19.5 25.5q20 9 40.5 30t22.5 51q-14 11 -28.5 29t-14.5 50q0 24 17.5 45.5t52.5 21.5z" />
<glyph unicode="&#x201e;" horiz-adv-x="460" d="M339 131q38 0 57 -27t19 -65q0 -27 -9 -57t-25 -54.5t-37 -41t-45 -16.5q-17 0 -30.5 8.5t-19.5 25.5q20 9 40.5 30t22.5 51q-14 11 -28.5 29t-14.5 50q0 24 17.5 45.5t52.5 21.5zM120 131q38 0 57 -27t19 -65q0 -27 -9 -57t-25 -54.5t-37 -41t-45 -16.5q-17 0 -30.5 8.5 t-19.5 25.5q20 9 40.5 30t22.5 51q-14 11 -28.5 29t-14.5 50q0 24 17.5 45.5t52.5 21.5z" />
<glyph unicode="&#x2020;" horiz-adv-x="466" d="M281 -118h-107v504h-81q-21 0 -33.5 6.5t-19 15.5t-8 19.5t-1.5 18.5q0 9 1 21t3 20h140v183q6 0 12 1q5 1 11 1.5t11 0.5q12 0 25 -2.5t23.5 -10t17 -21.5t6.5 -36v-116h90q20 0 32.5 -6t19.5 -15t9.5 -19.5t2.5 -19.5q0 -11 -1 -22.5t-3 -18.5h-150v-504z" />
<glyph unicode="&#x2021;" horiz-adv-x="466" d="M281 165h90q20 0 32.5 -6t19.5 -15t9.5 -19.5t2.5 -19.5q0 -11 -1 -22.5t-3 -18.5h-150v-182h-107v182h-81q-21 0 -33.5 6.5t-19 15.5t-8 19.5t-1.5 18.5q0 9 1 21t3 20h139v230h-81q-21 0 -33.5 6.5t-19 15.5t-8 19.5t-1.5 18.5q0 9 1 21t3 20h140v174q6 0 12 1 q5 1 11 1.5t11 0.5q12 0 25 -2.5t23.5 -10t17 -21.5t6.5 -36v-107h90q20 0 32.5 -6t19.5 -15t9.5 -19.5t2.5 -19.5q0 -11 -1 -22.5t-3 -18.5h-150v-230z" />
<glyph unicode="&#x2022;" horiz-adv-x="401" d="M335 350q0 -27 -10 -51.5t-28 -43t-43 -29t-55 -10.5t-55 10.5t-42.5 29t-27 43t-9.5 51.5q0 28 9.5 52.5t27 43t42.5 29t55 10.5q31 0 56 -10.5t43 -29t27.5 -43t9.5 -52.5z" />
<glyph unicode="&#x2026;" horiz-adv-x="618" d="M385 60q0 -32 -20 -53.5t-54 -21.5q-33 0 -53.5 21.5t-20.5 53.5t21 52.5t53 20.5t53 -20.5t21 -52.5zM588 60q0 -32 -20 -53.5t-54 -21.5q-33 0 -53.5 21.5t-20.5 53.5t21 52.5t53 20.5t53 -20.5t21 -52.5zM179 60q0 -32 -20 -53.5t-54 -21.5q-33 0 -53.5 21.5 t-20.5 53.5t21 52.5t53 20.5t53 -20.5t21 -52.5z" />
<glyph unicode="&#x2030;" horiz-adv-x="1196" d="M362 508q0 -85 -44 -131t-116 -46q-76 0 -118.5 46t-42.5 131t45 130t115 45q74 0 117.5 -45t43.5 -130zM262 509q0 45 -13 71t-48 26q-34 0 -46.5 -26.5t-12.5 -71.5q0 -46 13 -74t46 -28q35 0 48 28t13 75zM789 159q0 -85 -44 -130.5t-116 -45.5q-76 0 -118.5 45.5 t-42.5 130.5q0 86 45 130.5t115 44.5q74 0 117.5 -44.5t43.5 -130.5zM689 160q0 45 -12.5 71.5t-47.5 26.5q-34 0 -47 -27t-13 -72t13 -73t46 -28q35 0 48 27.5t13 74.5zM1155 160q0 -85 -44 -131t-116 -46q-76 0 -118.5 46t-42.5 131t45 130t115 45q74 0 117.5 -45 t43.5 -130zM1055 161q0 45 -13 71.5t-48 26.5q-34 0 -46.5 -27t-12.5 -72q0 -46 13 -73.5t46 -27.5q35 0 48 27.5t13 74.5zM269 0h-111l378 627q15 25 30 40.5t47 15.5q14 0 24.5 -1t18.5 -3q9 -2 17 -4z" />
<glyph unicode="&#x2039;" horiz-adv-x="301" d="M162 279l71 -87q18 -23 18 -45q0 -19 -10.5 -40t-21.5 -35l-145 132q-17 16 -27.5 34t-10.5 40t11.5 39.5t28.5 32.5l138 128q33 -37 33 -68q0 -13 -4 -26t-15 -27z" />
<glyph unicode="&#x203a;" horiz-adv-x="301" d="M73 357q-11 14 -15 27t-4 26q0 31 33 68l138 -128q17 -15 28.5 -32.5t11.5 -39.5t-10.5 -40t-27.5 -34l-145 -132q-11 14 -21.5 35t-10.5 40q0 22 18 45l71 87z" />
<glyph unicode="&#x2044;" horiz-adv-x="84" d="M-90 0h-109l343 627q14 26 29 41t46 15q14 0 24.5 -1.5t18.5 -3.5q9 -3 16 -5z" />
<glyph unicode="&#x2070;" d="M349 485q0 -96 -45 -146t-119 -50q-78 0 -121 51t-43 145q0 98 46 148t118 50q76 0 120 -48t44 -150zM247 486q0 56 -13 89.5t-49 33.5q-35 0 -48 -35t-13 -89q0 -53 12.5 -88t47.5 -35q38 0 50.5 32.5t12.5 91.5z" />
<glyph unicode="&#x2074;" d="M34 372v63l156 219q10 14 23.5 23.5t32.5 9.5q11 0 23 -2.5t23 -7.5v-238h17q34 0 34 -32q0 -5 -0.5 -11.5t-1.5 -11.5l-2 -12h-47v-72h-98v72h-160zM194 440v128l-91 -128h91z" />
<glyph unicode="&#x2075;" d="M86 680h228q1 -6 1.5 -12.5t0.5 -13.5q0 -22 -13.5 -34.5t-48.5 -12.5h-99l-6 -63q23 5 46 5q26 0 49.5 -8t41.5 -23.5t28.5 -38.5t10.5 -52t-8.5 -54t-27 -43.5t-47.5 -29.5t-69 -11q-32 0 -56 6t-38 13q-24 11 -29.5 21t-5.5 17q0 22 29 60q14 -13 37 -27.5t58 -14.5 q23 0 41.5 12t18.5 47q0 19 -6 31t-15.5 18.5t-20.5 8.5t-21 2q-38 0 -71 -14q-7 4 -14 6.5t-14 6.5z" />
<glyph unicode="&#x2076;" d="M329 433q0 -71 -40.5 -107.5t-100.5 -36.5q-73 0 -110.5 45.5t-37.5 123.5q0 45 12.5 86t37 72.5t61.5 50t86 18.5q18 0 36 -5.5t18 -29.5q0 -8 -1 -18.5t-2 -15.5q-9 1 -15.5 1h-14.5q-45 0 -76 -23t-42 -57q14 10 33.5 16t39.5 6q30 0 51.5 -10t36 -27.5t21.5 -40.5 t7 -48zM237 428q0 34 -13 52.5t-39 18.5q-19 0 -33.5 -8t-17.5 -10q-2 -6 -2 -15v-19q0 -16 2.5 -31.5t9 -28t17.5 -20.5t28 -8q21 0 34.5 17t13.5 52z" />
<glyph unicode="&#x2077;" d="M175 299h-98l139 298h-171q0 2 -1.5 14t-1.5 23q0 21 13.5 33t39.5 12h198q19 0 26.5 -6.5t7.5 -23.5v-29z" />
<glyph unicode="&#x2078;" d="M331 411q0 -64 -41.5 -93t-104.5 -29q-69 0 -108 28.5t-39 88.5q0 35 17.5 60.5t43.5 36.5q-20 11 -33 31t-13 47q0 25 10 44.5t28 33t42 21t52 7.5q57 0 95 -25t38 -78q0 -54 -47 -80q29 -11 44.5 -36.5t15.5 -56.5zM239 413q0 26 -13.5 41.5t-40.5 15.5t-41 -15.5 t-14 -41.5q0 -29 14.5 -44t40.5 -15t40 15t14 44zM229 581q0 23 -12 33.5t-32 10.5t-32 -10.5t-12 -33.5q0 -20 12 -33.5t32 -13.5t32 13t12 34z" />
<glyph unicode="&#x2079;" d="M41 542q0 71 40.5 108t100.5 37q72 0 109.5 -45.5t37.5 -122.5q0 -60 -17.5 -103.5t-45.5 -71.5t-63.5 -41.5t-71.5 -13.5q-30 0 -41.5 8.5t-11.5 27.5q0 8 1 18t2 15q9 -2 15 -2h14q42 0 73.5 22.5t43.5 57.5q-28 -20 -69 -20q-29 0 -51 10.5t-36.5 27.5t-22 40t-7.5 48 zM132 545q0 -70 55 -70q20 0 32 7.5t15 8.5q2 7 2.5 17.5t0.5 21.5q0 16 -2.5 32t-8.5 28t-16.5 19.5t-25.5 7.5q-25 0 -38.5 -18.5t-13.5 -53.5z" />
<glyph unicode="&#x2080;" d="M347 186q0 -96 -45 -146t-119 -50q-78 0 -121 51t-43 145q0 98 46 148t118 50q76 0 120 -48t44 -150zM245 187q0 56 -13 89.5t-49 33.5q-35 0 -48 -35t-13 -89q0 -53 12.5 -88t47.5 -35q38 0 50.5 32.5t12.5 91.5z" />
<glyph unicode="&#x2081;" d="M181 1v270l-97 -54q-11 14 -22 33t-11 32q0 17 26 32l102 56q14 8 27.5 13t29.5 5q18 0 27.5 -4.5t16.5 -10.5v-372h-99z" />
<glyph unicode="&#x2082;" d="M65 1v71q23 19 53 46.5t59 59.5q21 23 33 43t12 44q0 22 -13.5 35t-38.5 13q-26 0 -47 -14t-35 -28q-15 12 -24.5 25.5t-9.5 24.5t8 21t28 22q23 14 51 19t47 5q28 0 52 -7t42 -21t28 -36t10 -53q0 -40 -18.5 -71.5t-46.5 -60.5q-16 -16 -32.5 -31t-30.5 -28h81 q35 0 49 -9.5t14 -41.5q0 -11 -1 -18.5t-1 -9.5h-269z" />
<glyph unicode="&#x2083;" d="M333 112q0 -55 -36.5 -88.5t-111.5 -33.5q-20 0 -47 5t-49 16q-14 7 -23 16.5t-9 23.5t8 27.5t17 28.5q14 -15 40 -28.5t55 -13.5q23 0 41.5 9.5t18.5 39.5q0 17 -7 27t-17 15t-21 6.5t-18 1.5h-33v68h35q7 0 16.5 1.5t17 6t13 13t5.5 22.5q0 21 -13.5 30t-35.5 9 q-28 0 -49 -11.5t-39 -24.5q-15 11 -24 25.5t-9 24.5q0 8 5 16t21 17q17 10 45 18.5t64 8.5q69 0 100 -28t31 -71q0 -38 -17.5 -58t-37.5 -31q24 -10 44 -29t20 -59z" />
<glyph unicode="&#x2084;" d="M25 73v63l156 219q10 14 23.5 23.5t32.5 9.5q11 0 23 -2.5t23 -7.5v-238h17q34 0 34 -32q0 -5 -0.5 -11.5t-1.5 -11.5l-2 -12h-47v-72h-98v72h-160zM185 141v128l-91 -128h91z" />
<glyph unicode="&#x2085;" d="M84 381h228q1 -6 1.5 -12.5t0.5 -13.5q0 -22 -13.5 -34.5t-48.5 -12.5h-99l-6 -63q23 5 46 5q26 0 49.5 -8t41.5 -23.5t28.5 -38.5t10.5 -52t-8.5 -54t-27 -43.5t-47.5 -29.5t-69 -11q-32 0 -56 6t-38 13q-24 11 -29.5 21t-5.5 17q0 22 29 60q14 -13 37 -27.5t58 -14.5 q23 0 41.5 12t18.5 47q0 19 -6 31t-15.5 18.5t-20.5 8.5t-21 2q-38 0 -71 -14q-7 4 -14 6.5t-14 6.5z" />
<glyph unicode="&#x2086;" d="M333 134q0 -71 -40.5 -107.5t-100.5 -36.5q-73 0 -110.5 45.5t-37.5 123.5q0 45 12.5 86t37 72.5t61.5 50t86 18.5q18 0 36 -5.5t18 -29.5q0 -8 -1 -18.5t-2 -15.5q-9 1 -15.5 1h-14.5q-45 0 -76 -23t-42 -57q14 10 33.5 16t39.5 6q30 0 51.5 -10t36 -27.5t21.5 -40.5 t7 -48zM241 129q0 34 -13 52.5t-39 18.5q-19 0 -33.5 -8t-17.5 -10q-2 -6 -2 -15v-19q0 -16 2.5 -31.5t9 -28t17.5 -20.5t28 -8q21 0 34.5 17t13.5 52z" />
<glyph unicode="&#x2087;" d="M185 0h-98l139 298h-171q0 2 -1.5 14t-1.5 23q0 21 13.5 33t39.5 12h198q19 0 26.5 -6.5t7.5 -23.5v-29z" />
<glyph unicode="&#x2088;" d="M329 112q0 -64 -41.5 -93t-104.5 -29q-69 0 -108 28.5t-39 88.5q0 35 17.5 60.5t43.5 36.5q-20 11 -33 31t-13 47q0 25 10 44.5t28 33t42 21t52 7.5q57 0 95 -25t38 -78q0 -54 -47 -80q29 -11 44.5 -36.5t15.5 -56.5zM237 114q0 26 -13.5 41.5t-40.5 15.5t-41 -15.5 t-14 -41.5q0 -29 14.5 -44t40.5 -15t40 15t14 44zM227 282q0 23 -12 33.5t-32 10.5t-32 -10.5t-12 -33.5q0 -20 12 -33.5t32 -13.5t32 13t12 34z" />
<glyph unicode="&#x2089;" d="M39 243q0 71 40.5 108t100.5 37q72 0 109.5 -45.5t37.5 -122.5q0 -60 -17.5 -103.5t-45.5 -71.5t-63.5 -41.5t-71.5 -13.5q-30 0 -41.5 8.5t-11.5 27.5q0 8 1 18t2 15q9 -2 15 -2h14q42 0 73.5 22.5t43.5 57.5q-28 -20 -69 -20q-29 0 -51 10.5t-36.5 27.5t-22 40t-7.5 48 zM130 246q0 -70 55 -70q20 0 32 7.5t15 8.5q2 7 2.5 17.5t0.5 21.5q0 16 -2.5 32t-8.5 28t-16.5 19.5t-25.5 7.5q-25 0 -38.5 -18.5t-13.5 -53.5z" />
<glyph unicode="&#x20ac;" horiz-adv-x="561" d="M363 -17q-62 0 -109.5 19t-81 52t-53 76.5t-26.5 92.5h-78v63h72q-1 8 -1 17.5v15.5v16.5t1 20.5h-72v62h78q9 55 31.5 101.5t58 80t82.5 52t104 18.5q47 0 86 -11.5t65 -29.5q37 -25 37 -54q0 -16 -14 -37.5t-33 -38.5q-11 11 -23.5 22t-28.5 20t-36 14.5t-46 5.5 q-34 0 -59.5 -10.5t-43.5 -29.5t-29.5 -45.5t-17.5 -57.5h206v-62h-213q-1 -8 -1 -15.5v-14.5v-18.5t2 -21.5h212v-63h-204q11 -60 46 -96.5t100 -36.5q28 0 49 6.5t37 16t27 20t18 18.5q5 -6 13 -15t15.5 -19.5t12.5 -22t5 -21.5q0 -24 -29 -47q-26 -20 -64 -31.5 t-95 -11.5z" />
<glyph unicode="&#x2113;" horiz-adv-x="468" d="M186 289q54 60 85.5 123.5t31.5 132.5q0 48 -16 67.5t-38 19.5q-26 0 -44.5 -33t-18.5 -109v-201zM412 77q-27 -40 -65.5 -63t-90.5 -23q-70 0 -108 39.5t-38 127.5q-13 -10 -24.5 -18t-24.5 -17q-5 11 -11.5 22t-13.5 22q19 13 37 27.5t36 30.5v212q0 71 9.5 119.5 t28 78t45 42.5t61.5 13q51 0 84 -37.5t33 -106.5q0 -91 -48 -172.5t-136 -163.5v-20q0 -41 6 -66.5t16.5 -39.5t25 -19.5t31.5 -5.5q32 0 61.5 16.5t45.5 39.5z" />
<glyph unicode="&#x2122;" horiz-adv-x="800" d="M417 676q23 0 33.5 -10t16.5 -25l85 -209l80 209q8 20 23 27.5t32 7.5q13 0 25.5 -2.5t19.5 -5.5l18 -364h-84l-9 219l-69 -166h-77l-66 159l-12 -212h-85l24 364q7 3 20.5 5.5t24.5 2.5zM328 673q2 -8 2.5 -17t0.5 -14q0 -16 -9.5 -30.5t-40.5 -14.5h-63v-293h-90v293 h-103q-2 10 -3 18.5t-1 13.5q0 8 2 16t8 14t17.5 10t29.5 4h250z" />
<glyph unicode="&#x2126;" horiz-adv-x="743" d="M675 365q0 -46 -9.5 -85.5t-25.5 -72t-35.5 -58t-39.5 -43.5h118v-106h-254v96q20 15 39.5 39t35 56.5t25 72.5t9.5 88q0 102 -40 153t-117 51q-78 0 -121 -52.5t-43 -153.5q0 -48 9.5 -88t25.5 -71.5t35.5 -55t39.5 -39.5v-96h-255v106h118q-20 18 -40 42t-35.5 55.5 t-25 69.5t-9.5 85q0 69 21.5 126.5t60.5 99t95 64.5t125 23q71 0 125.5 -21.5t92 -61.5t56.5 -96.5t19 -126.5z" />
<glyph unicode="&#x212e;" horiz-adv-x="754" d="M193 340v-230q75 -75 183 -75q79 0 137.5 35.5t106.5 116.5l44 -26q-29 -45 -59 -77.5t-64 -53.5t-74.5 -30.5t-90.5 -9.5q-75 0 -135 27.5t-102.5 74.5t-65.5 111t-23 137t23 137t65.5 111.5t102.5 74.5t135 27q73 0 133 -26t103 -72.5t67 -111t25 -140.5h-511zM561 386 v183q-79 76 -186 76q-109 0 -182 -76v-183h368z" />
<glyph unicode="&#x2153;" horiz-adv-x="822" d="M153 300v270l-97 -54q-11 14 -22 33t-11 32q0 17 26 32l102 56q14 8 27.5 13t29.5 5q18 0 27.5 -4.5t16.5 -10.5v-372h-99zM253 0h-109l343 627q14 26 29 41t46 15q14 0 24.5 -1.5t18.5 -3.5q9 -3 16 -5zM783 112q0 -55 -36.5 -88.5t-111.5 -33.5q-20 0 -47 5t-49 16 q-14 7 -23 16.5t-9 23.5t8 27.5t17 28.5q14 -15 40 -28.5t55 -13.5q23 0 41.5 9.5t18.5 39.5q0 17 -7 27t-17 15t-21 6.5t-18 1.5h-33v68h35q7 0 16.5 1.5t17 6t13 13t5.5 22.5q0 21 -13.5 30t-35.5 9q-28 0 -49 -11.5t-39 -24.5q-15 11 -24 25.5t-9 24.5q0 8 5 16t21 17 q17 10 45 18.5t64 8.5q69 0 100 -28t31 -71q0 -38 -17.5 -58t-37.5 -31q24 -10 44 -29t20 -59z" />
<glyph unicode="&#x2154;" horiz-adv-x="822" d="M55 300v71q23 19 53 46.5t59 59.5q21 23 33 43t12 44q0 22 -13.5 35t-38.5 13q-26 0 -47 -14t-35 -28q-15 12 -24.5 25.5t-9.5 24.5t8 21t28 22q23 14 51 19t47 5q28 0 52 -7t42 -21t28 -36t10 -53q0 -40 -18.5 -71.5t-46.5 -60.5q-16 -16 -32.5 -31t-30.5 -28h81 q35 0 49 -9.5t14 -41.5q0 -11 -1 -18.5t-1 -9.5h-269zM808 112q0 -55 -36.5 -88.5t-111.5 -33.5q-20 0 -47 5t-49 16q-14 7 -23 16.5t-9 23.5t8 27.5t17 28.5q14 -15 40 -28.5t55 -13.5q23 0 41.5 9.5t18.5 39.5q0 17 -7 27t-17 15t-21 6.5t-18 1.5h-33v68h35q7 0 16.5 1.5 t17 6t13 13t5.5 22.5q0 21 -13.5 30t-35.5 9q-28 0 -49 -11.5t-39 -24.5q-15 11 -24 25.5t-9 24.5q0 8 5 16t21 17q17 10 45 18.5t64 8.5q69 0 100 -28t31 -71q0 -38 -17.5 -58t-37.5 -31q24 -10 44 -29t20 -59zM303 0h-109l343 627q14 26 29 41t46 15q14 0 24.5 -1.5 t18.5 -3.5q9 -3 16 -5z" />
<glyph unicode="&#x2155;" horiz-adv-x="822" d="M159 300v270l-97 -54q-11 14 -22 33t-11 32q0 17 26 32l102 56q14 8 27.5 13t29.5 5q18 0 27.5 -4.5t16.5 -10.5v-372h-99zM246 0h-109l343 627q14 26 29 41t46 15q14 0 24.5 -1.5t18.5 -3.5q9 -3 16 -5zM528 381h228q1 -6 1.5 -12.5t0.5 -13.5q0 -22 -13.5 -34.5 t-48.5 -12.5h-99l-6 -63q23 5 46 5q26 0 49.5 -8t41.5 -23.5t28.5 -38.5t10.5 -52t-8.5 -54t-27 -43.5t-47.5 -29.5t-69 -11q-32 0 -56 6t-38 13q-24 11 -29.5 21t-5.5 17q0 22 29 60q14 -13 37 -27.5t58 -14.5q23 0 41.5 12t18.5 47q0 19 -6 31t-15.5 18.5t-20.5 8.5t-21 2 q-38 0 -71 -14q-7 4 -14 6.5t-14 6.5z" />
<glyph unicode="&#x2156;" horiz-adv-x="822" d="M288 0h-109l343 627q14 26 29 41t46 15q14 0 24.5 -1.5t18.5 -3.5q9 -3 16 -5zM44 300v71q23 19 53 46.5t59 59.5q21 23 33 43t12 44q0 22 -13.5 35t-38.5 13q-26 0 -47 -14t-35 -28q-15 12 -24.5 25.5t-9.5 24.5t8 21t28 22q23 14 51 19t47 5q28 0 52 -7t42 -21t28 -36 t10 -53q0 -40 -18.5 -71.5t-46.5 -60.5q-16 -16 -32.5 -31t-30.5 -28h81q35 0 49 -9.5t14 -41.5q0 -11 -1 -18.5t-1 -9.5h-269zM562 381h228q1 -6 1.5 -12.5t0.5 -13.5q0 -22 -13.5 -34.5t-48.5 -12.5h-99l-6 -63q23 5 46 5q26 0 49.5 -8t41.5 -23.5t28.5 -38.5t10.5 -52 t-8.5 -54t-27 -43.5t-47.5 -29.5t-69 -11q-32 0 -56 6t-38 13q-24 11 -29.5 21t-5.5 17q0 22 29 60q14 -13 37 -27.5t58 -14.5q23 0 41.5 12t18.5 47q0 19 -6 31t-15.5 18.5t-20.5 8.5t-21 2q-38 0 -71 -14q-7 4 -14 6.5t-14 6.5z" />
<glyph unicode="&#x2157;" horiz-adv-x="822" d="M270 0h-109l343 627q14 26 29 41t46 15q14 0 24.5 -1.5t18.5 -3.5q9 -3 16 -5zM326 411q0 -55 -36.5 -88.5t-111.5 -33.5q-20 0 -47 5t-49 16q-14 7 -23 16.5t-9 23.5t8 27.5t17 28.5q14 -15 40 -28.5t55 -13.5q23 0 41.5 9.5t18.5 39.5q0 17 -7 27t-17 15t-21 6.5 t-18 1.5h-33v68h35q7 0 16.5 1.5t17 6t13 13t5.5 22.5q0 21 -13.5 30t-35.5 9q-28 0 -49 -11.5t-39 -24.5q-15 11 -24 25.5t-9 24.5q0 8 5 16t21 17q17 10 45 18.5t64 8.5q69 0 100 -28t31 -71q0 -38 -17.5 -58t-37.5 -31q24 -10 44 -29t20 -59zM534 381h228q1 -6 1.5 -12.5 t0.5 -13.5q0 -22 -13.5 -34.5t-48.5 -12.5h-99l-6 -63q23 5 46 5q26 0 49.5 -8t41.5 -23.5t28.5 -38.5t10.5 -52t-8.5 -54t-27 -43.5t-47.5 -29.5t-69 -11q-32 0 -56 6t-38 13q-24 11 -29.5 21t-5.5 17q0 22 29 60q14 -13 37 -27.5t58 -14.5q23 0 41.5 12t18.5 47 q0 19 -6 31t-15.5 18.5t-20.5 8.5t-21 2q-38 0 -71 -14q-7 4 -14 6.5t-14 6.5z" />
<glyph unicode="&#x2158;" horiz-adv-x="822" d="M293 0h-109l343 627q14 26 29 41t46 15q14 0 24.5 -1.5t18.5 -3.5q9 -3 16 -5zM34 372v63l156 219q10 14 23.5 23.5t32.5 9.5q11 0 23 -2.5t23 -7.5v-238h17q34 0 34 -32q0 -5 -0.5 -11.5t-1.5 -11.5l-2 -12h-47v-72h-98v72h-160zM194 440v128l-91 -128h91zM567 381h228 q1 -6 1.5 -12.5t0.5 -13.5q0 -22 -13.5 -34.5t-48.5 -12.5h-99l-6 -63q23 5 46 5q26 0 49.5 -8t41.5 -23.5t28.5 -38.5t10.5 -52t-8.5 -54t-27 -43.5t-47.5 -29.5t-69 -11q-32 0 -56 6t-38 13q-24 11 -29.5 21t-5.5 17q0 22 29 60q14 -13 37 -27.5t58 -14.5q23 0 41.5 12 t18.5 47q0 19 -6 31t-15.5 18.5t-20.5 8.5t-21 2q-38 0 -71 -14q-7 4 -14 6.5t-14 6.5z" />
<glyph unicode="&#x2159;" horiz-adv-x="822" d="M250 0h-109l343 627q14 26 29 41t46 15q14 0 24.5 -1.5t18.5 -3.5q9 -3 16 -5zM163 300v270l-97 -54q-11 14 -22 33t-11 32q0 17 26 32l102 56q14 8 27.5 13t29.5 5q18 0 27.5 -4.5t16.5 -10.5v-372h-99zM754 134q0 -71 -40.5 -107.5t-100.5 -36.5q-73 0 -110.5 45.5 t-37.5 123.5q0 45 12.5 86t37 72.5t61.5 50t86 18.5q18 0 36 -5.5t18 -29.5q0 -8 -1 -18.5t-2 -15.5q-9 1 -15.5 1h-14.5q-45 0 -76 -23t-42 -57q14 10 33.5 16t39.5 6q30 0 51.5 -10t36 -27.5t21.5 -40.5t7 -48zM662 129q0 34 -13 52.5t-39 18.5q-19 0 -33.5 -8t-17.5 -10 q-2 -6 -2 -15v-19q0 -16 2.5 -31.5t9 -28t17.5 -20.5t28 -8q21 0 34.5 17t13.5 52z" />
<glyph unicode="&#x215a;" horiz-adv-x="822" d="M103 680h228q1 -6 1.5 -12.5t0.5 -13.5q0 -22 -13.5 -34.5t-48.5 -12.5h-99l-6 -63q23 5 46 5q26 0 49.5 -8t41.5 -23.5t28.5 -38.5t10.5 -52t-8.5 -54t-27 -43.5t-47.5 -29.5t-69 -11q-32 0 -56 6t-38 13q-24 11 -29.5 21t-5.5 17q0 22 29 60q14 -13 37 -27.5t58 -14.5 q23 0 41.5 12t18.5 47q0 19 -6 31t-15.5 18.5t-20.5 8.5t-21 2q-38 0 -71 -14q-7 4 -14 6.5t-14 6.5zM289 0h-109l343 627q14 26 29 41t46 15q14 0 24.5 -1.5t18.5 -3.5q9 -3 16 -5zM779 134q0 -71 -40.5 -107.5t-100.5 -36.5q-73 0 -110.5 45.5t-37.5 123.5q0 45 12.5 86 t37 72.5t61.5 50t86 18.5q18 0 36 -5.5t18 -29.5q0 -8 -1 -18.5t-2 -15.5q-9 1 -15.5 1h-14.5q-45 0 -76 -23t-42 -57q14 10 33.5 16t39.5 6q30 0 51.5 -10t36 -27.5t21.5 -40.5t7 -48zM687 129q0 34 -13 52.5t-39 18.5q-19 0 -33.5 -8t-17.5 -10q-2 -6 -2 -15v-19 q0 -16 2.5 -31.5t9 -28t17.5 -20.5t28 -8q21 0 34.5 17t13.5 52z" />
<glyph unicode="&#x215b;" horiz-adv-x="822" d="M160 300v270l-97 -54q-11 14 -22 33t-11 32q0 17 26 32l102 56q14 8 27.5 13t29.5 5q18 0 27.5 -4.5t16.5 -10.5v-372h-99zM255 0h-109l343 627q14 26 29 41t46 15q14 0 24.5 -1.5t18.5 -3.5q9 -3 16 -5zM780 112q0 -64 -41.5 -93t-104.5 -29q-69 0 -108 28.5t-39 88.5 q0 35 17.5 60.5t43.5 36.5q-20 11 -33 31t-13 47q0 25 10 44.5t28 33t42 21t52 7.5q57 0 95 -25t38 -78q0 -54 -47 -80q29 -11 44.5 -36.5t15.5 -56.5zM688 114q0 26 -13.5 41.5t-40.5 15.5t-41 -15.5t-14 -41.5q0 -29 14.5 -44t40.5 -15t40 15t14 44zM678 282 q0 23 -12 33.5t-32 10.5t-32 -10.5t-12 -33.5q0 -20 12 -33.5t32 -13.5t32 13t12 34z" />
<glyph unicode="&#x215c;" horiz-adv-x="822" d="M332 411q0 -55 -36.5 -88.5t-111.5 -33.5q-20 0 -47 5t-49 16q-14 7 -23 16.5t-9 23.5t8 27.5t17 28.5q14 -15 40 -28.5t55 -13.5q23 0 41.5 9.5t18.5 39.5q0 17 -7 27t-17 15t-21 6.5t-18 1.5h-33v68h35q7 0 16.5 1.5t17 6t13 13t5.5 22.5q0 21 -13.5 30t-35.5 9 q-28 0 -49 -11.5t-39 -24.5q-15 11 -24 25.5t-9 24.5q0 8 5 16t21 17q17 10 45 18.5t64 8.5q69 0 100 -28t31 -71q0 -38 -17.5 -58t-37.5 -31q24 -10 44 -29t20 -59zM285 0h-109l343 627q14 26 29 41t46 15q14 0 24.5 -1.5t18.5 -3.5q9 -3 16 -5zM800 112q0 -64 -41.5 -93 t-104.5 -29q-69 0 -108 28.5t-39 88.5q0 35 17.5 60.5t43.5 36.5q-20 11 -33 31t-13 47q0 25 10 44.5t28 33t42 21t52 7.5q57 0 95 -25t38 -78q0 -54 -47 -80q29 -11 44.5 -36.5t15.5 -56.5zM708 114q0 26 -13.5 41.5t-40.5 15.5t-41 -15.5t-14 -41.5q0 -29 14.5 -44 t40.5 -15t40 15t14 44zM698 282q0 23 -12 33.5t-32 10.5t-32 -10.5t-12 -33.5q0 -20 12 -33.5t32 -13.5t32 13t12 34z" />
<glyph unicode="&#x215d;" horiz-adv-x="822" d="M273 0h-109l343 627q14 26 29 41t46 15q14 0 24.5 -1.5t18.5 -3.5q9 -3 16 -5zM88 680h228q1 -6 1.5 -12.5t0.5 -13.5q0 -22 -13.5 -34.5t-48.5 -12.5h-99l-6 -63q23 5 46 5q26 0 49.5 -8t41.5 -23.5t28.5 -38.5t10.5 -52t-8.5 -54t-27 -43.5t-47.5 -29.5t-69 -11 q-32 0 -56 6t-38 13q-24 11 -29.5 21t-5.5 17q0 22 29 60q14 -13 37 -27.5t58 -14.5q23 0 41.5 12t18.5 47q0 19 -6 31t-15.5 18.5t-20.5 8.5t-21 2q-38 0 -71 -14q-7 4 -14 6.5t-14 6.5zM782 112q0 -64 -41.5 -93t-104.5 -29q-69 0 -108 28.5t-39 88.5q0 35 17.5 60.5 t43.5 36.5q-20 11 -33 31t-13 47q0 25 10 44.5t28 33t42 21t52 7.5q57 0 95 -25t38 -78q0 -54 -47 -80q29 -11 44.5 -36.5t15.5 -56.5zM690 114q0 26 -13.5 41.5t-40.5 15.5t-41 -15.5t-14 -41.5q0 -29 14.5 -44t40.5 -15t40 15t14 44zM680 282q0 23 -12 33.5t-32 10.5 t-32 -10.5t-12 -33.5q0 -20 12 -33.5t32 -13.5t32 13t12 34z" />
<glyph unicode="&#x215e;" horiz-adv-x="822" d="M228 0h-109l343 627q14 26 29 41t46 15q14 0 24.5 -1.5t18.5 -3.5q9 -3 16 -5zM183 299h-98l139 298h-171q0 2 -1.5 14t-1.5 23q0 21 13.5 33t39.5 12h198q19 0 26.5 -6.5t7.5 -23.5v-29zM758 112q0 -64 -41.5 -93t-104.5 -29q-69 0 -108 28.5t-39 88.5q0 35 17.5 60.5 t43.5 36.5q-20 11 -33 31t-13 47q0 25 10 44.5t28 33t42 21t52 7.5q57 0 95 -25t38 -78q0 -54 -47 -80q29 -11 44.5 -36.5t15.5 -56.5zM666 114q0 26 -13.5 41.5t-40.5 15.5t-41 -15.5t-14 -41.5q0 -29 14.5 -44t40.5 -15t40 15t14 44zM656 282q0 23 -12 33.5t-32 10.5 t-32 -10.5t-12 -33.5q0 -20 12 -33.5t32 -13.5t32 13t12 34z" />
<glyph unicode="&#x2202;" horiz-adv-x="582" d="M526 283q0 -73 -18 -129t-49.5 -93.5t-75 -56.5t-94.5 -19q-50 0 -93 15t-74 46.5t-48.5 79t-17.5 113.5q0 55 16.5 100t45 76t67.5 48t84 17q35 0 60 -7.5t45 -19.5q-15 30 -42 53t-61 39.5t-74 26.5t-81 15l20 99q81 -6 152.5 -33t124 -76.5t83 -122t30.5 -171.5z M393 267q0 30 -4 56t-9 43q-35 20 -78 20q-47 0 -77 -36t-30 -116q0 -75 26.5 -109.5t69.5 -34.5q22 0 40.5 10t32 31.5t21.5 55t8 80.5z" />
<glyph unicode="&#x2206;" horiz-adv-x="669" d="M332 526l-144 -424h290zM16 0l249 670h138l250 -670h-637z" />
<glyph unicode="&#x220f;" horiz-adv-x="678" d="M652 561h-74v-683h-139v683h-200v-683h-138v683h-75v110h626v-110z" />
<glyph unicode="&#x2211;" horiz-adv-x="511" d="M32 -122v86l202 322l-200 297v87h460v-108h-291l181 -273l-188 -302h306v-109h-470z" />
<glyph unicode="&#x2212;" horiz-adv-x="549" d="M59 279v112h431v-112h-431z" />
<glyph unicode="&#x2215;" horiz-adv-x="390" d="M148 0h-127l240 616q11 27 30.5 42.5t54.5 15.5q14 0 24.5 -1t18.5 -3q9 -2 17 -4z" />
<glyph unicode="&#x2219;" horiz-adv-x="258" d="M242 372q0 -32 -20 -53.5t-54 -21.5q-33 0 -53.5 21.5t-20.5 53.5t21 52.5t53 20.5t53 -20.5t21 -52.5z" />
<glyph unicode="&#x221a;" horiz-adv-x="585" d="M342 0h-87l-124 244h-80v109h153l81 -170l186 557l108 -32z" />
<glyph unicode="&#x221e;" horiz-adv-x="660" d="M262 354q-15 35 -30.5 55t-37.5 20q-25 0 -38 -23.5t-13 -50.5q0 -36 14.5 -55.5t36.5 -19.5q14 0 24.5 8t19 19.5t14.5 24t10 22.5zM516 356q0 35 -15 54.5t-37 19.5q-25 0 -40.5 -21.5t-29.5 -53.5q13 -29 30 -52t42 -23q13 0 22.5 7t15.5 18t9 24.5t3 26.5zM609 355 q0 -29 -8 -59.5t-25 -55t-43 -40t-63 -15.5q-38 0 -73.5 22t-67.5 85q-15 -32 -32 -52.5t-35 -32.5t-36.5 -17t-35.5 -5q-36 0 -62 14t-43 37.5t-25.5 54.5t-8.5 64q0 83 38.5 126t100.5 43q43 0 76.5 -22.5t61.5 -85.5q26 54 59.5 80.5t83.5 26.5q29 0 54 -11.5t44 -33 t29.5 -52.5t10.5 -71z" />
<glyph unicode="&#x222b;" horiz-adv-x="413" d="M387 562q-60 -3 -90.5 -27.5t-30.5 -88.5v-386q0 -44 -6 -84q-14 -88 -77 -129t-177 -43v110q61 4 91.5 28.5t30.5 87.5v387q0 45 6 84q14 88 76.5 128.5t176.5 42.5v-110z" />
<glyph unicode="&#x2248;" horiz-adv-x="593" d="M552 187q-20 -17 -54.5 -32t-78.5 -15q-30 0 -62 6t-63.5 13.5t-60.5 13.5t-52 6q-26 0 -49 -9t-40 -20l-51 93q22 15 58 30t73 15q26 0 56 -6t61 -13.5t62.5 -13.5t61.5 -6q26 0 48.5 9t39.5 20zM552 400q-20 -17 -55 -32t-78 -15q-30 0 -62 6t-63.5 13t-60.5 13t-52 6 q-26 0 -49 -8.5t-40 -19.5l-51 92q11 8 26 16t32.5 15t36 11t36.5 4q26 0 56 -6t61 -13.5t62.5 -13.5t61.5 -6q26 0 48.5 9t39.5 20z" />
<glyph unicode="&#x2260;" horiz-adv-x="549" d="M226 169l-66 -134l-66 33l50 101h-89v113h146l48 97h-194v113h251l62 125l65 -33l-46 -92h107v-113h-163l-49 -97h212v-113h-268z" />
<glyph unicode="&#x2264;" horiz-adv-x="549" d="M59 0v113h431v-113h-431zM489 155l-430 170v108l430 165v-117l-278 -100l278 -104v-122z" />
<glyph unicode="&#x2265;" horiz-adv-x="549" d="M59 0v113h431v-113h-431zM60 277l278 104l-278 100v117l430 -165v-108l-430 -170v122z" />
<glyph unicode="&#x25ca;" horiz-adv-x="554" d="M276 539l-104 -182l106 -194l103 193zM488 357l-212 -373l-210 373l210 363z" />
<glyph unicode="&#x25fc;" horiz-adv-x="480" d="M0 480h480v-480h-480v480z" />
<glyph unicode="&#xf001;" horiz-adv-x="556" d="M492 -6q0 -1 -15 -2.5t-31 -1.5t-32 3.5t-29 13t-21 25.5t-8 41v300h-157v-373h-135v504q0 39 6 71q14 68 69.5 105t144.5 37q38 0 76 -7t64 -21q36 -19 36 -47q0 -17 -10 -38t-24 -37q-17 17 -51.5 30.5t-76.5 13.5q-48 0 -73.5 -21.5t-25.5 -80.5v-33h293v-482z" />
<glyph unicode="&#xf002;" horiz-adv-x="563" d="M499 -6q0 -1 -15 -2.5t-31 -1.5t-32 3.5t-29 13t-21 25.5t-8 41v524q-31 13 -73 13t-66.5 -21t-24.5 -77v-36h117v-103h-117v-373h-135v508q0 23 2.5 44.5t7.5 38.5q18 60 76.5 93t139.5 33q65 0 116 -12t93 -31v-680z" />
<glyph unicode="&#xf506;" horiz-adv-x="822" d="M232 0h-109l343 627q14 26 29 41t46 15q14 0 24.5 -1.5t18.5 -3.5q9 -3 16 -5zM147 300v270l-97 -54q-11 14 -22 33t-11 32q0 17 26 32l102 56q14 8 27.5 13t29.5 5q18 0 27.5 -4.5t16.5 -10.5v-372h-99zM617 0h-98l139 298h-171q0 2 -1.5 14t-1.5 23q0 21 13.5 33 t39.5 12h198q19 0 26.5 -6.5t7.5 -23.5v-29z" />
<glyph unicode="&#xf507;" horiz-adv-x="822" d="M291 0h-109l343 627q14 26 29 41t46 15q14 0 24.5 -1.5t18.5 -3.5q9 -3 16 -5zM55 300v71q23 19 53 46.5t59 59.5q21 23 33 43t12 44q0 22 -13.5 35t-38.5 13q-26 0 -47 -14t-35 -28q-15 12 -24.5 25.5t-9.5 24.5t8 21t28 22q23 14 51 19t47 5q28 0 52 -7t42 -21t28 -36 t10 -53q0 -40 -18.5 -71.5t-46.5 -60.5q-16 -16 -32.5 -31t-30.5 -28h81q35 0 49 -9.5t14 -41.5q0 -11 -1 -18.5t-1 -9.5h-269zM659 1h-98l139 298h-171q0 2 -1.5 14t-1.5 23q0 21 13.5 33t39.5 12h198q19 0 26.5 -6.5t7.5 -23.5v-29z" />
<glyph unicode="&#xf508;" horiz-adv-x="822" d="M260 0h-109l343 627q14 26 29 41t46 15q14 0 24.5 -1.5t18.5 -3.5q9 -3 16 -5zM317 411q0 -55 -36.5 -88.5t-111.5 -33.5q-20 0 -47 5t-49 16q-14 7 -23 16.5t-9 23.5t8 27.5t17 28.5q14 -15 40 -28.5t55 -13.5q23 0 41.5 9.5t18.5 39.5q0 17 -7 27t-17 15t-21 6.5 t-18 1.5h-33v68h35q7 0 16.5 1.5t17 6t13 13t5.5 22.5q0 21 -13.5 30t-35.5 9q-28 0 -49 -11.5t-39 -24.5q-15 11 -24 25.5t-9 24.5q0 8 5 16t21 17q17 10 45 18.5t64 8.5q69 0 100 -28t31 -71q0 -38 -17.5 -58t-37.5 -31q24 -10 44 -29t20 -59zM634 1h-98l139 298h-171 q0 2 -1.5 14t-1.5 23q0 21 13.5 33t39.5 12h198q19 0 26.5 -6.5t7.5 -23.5v-29z" />
<glyph unicode="&#xf509;" horiz-adv-x="822" d="M278 0h-109l343 627q14 26 29 41t46 15q14 0 24.5 -1.5t18.5 -3.5q9 -3 16 -5zM31 372v63l156 219q10 14 23.5 23.5t32.5 9.5q11 0 23 -2.5t23 -7.5v-238h17q34 0 34 -32q0 -5 -0.5 -11.5t-1.5 -11.5l-2 -12h-47v-72h-98v72h-160zM191 440v128l-91 -128h91zM653 1h-98 l139 298h-171q0 2 -1.5 14t-1.5 23q0 21 13.5 33t39.5 12h198q19 0 26.5 -6.5t7.5 -23.5v-29z" />
<glyph unicode="&#xf50a;" horiz-adv-x="822" d="M256 0h-109l343 627q14 26 29 41t46 15q14 0 24.5 -1.5t18.5 -3.5q9 -3 16 -5zM77 680h228q1 -6 1.5 -12.5t0.5 -13.5q0 -22 -13.5 -34.5t-48.5 -12.5h-99l-6 -63q23 5 46 5q26 0 49.5 -8t41.5 -23.5t28.5 -38.5t10.5 -52t-8.5 -54t-27 -43.5t-47.5 -29.5t-69 -11 q-32 0 -56 6t-38 13q-24 11 -29.5 21t-5.5 17q0 22 29 60q14 -13 37 -27.5t58 -14.5q23 0 41.5 12t18.5 47q0 19 -6 31t-15.5 18.5t-20.5 8.5t-21 2q-38 0 -71 -14q-7 4 -14 6.5t-14 6.5zM632 1h-98l139 298h-171q0 2 -1.5 14t-1.5 23q0 21 13.5 33t39.5 12h198 q19 0 26.5 -6.5t7.5 -23.5v-29z" />
<glyph unicode="&#xf50b;" horiz-adv-x="822" d="M260 0h-109l343 627q14 26 29 41t46 15q14 0 24.5 -1.5t18.5 -3.5q9 -3 16 -5zM326 433q0 -71 -40.5 -107.5t-100.5 -36.5q-73 0 -110.5 45.5t-37.5 123.5q0 45 12.5 86t37 72.5t61.5 50t86 18.5q18 0 36 -5.5t18 -29.5q0 -8 -1 -18.5t-2 -15.5q-9 1 -15.5 1h-14.5 q-45 0 -76 -23t-42 -57q14 10 33.5 16t39.5 6q30 0 51.5 -10t36 -27.5t21.5 -40.5t7 -48zM234 428q0 34 -13 52.5t-39 18.5q-19 0 -33.5 -8t-17.5 -10q-2 -6 -2 -15v-19q0 -16 2.5 -31.5t9 -28t17.5 -20.5t28 -8q21 0 34.5 17t13.5 52zM633 1h-98l139 298h-171q0 2 -1.5 14 t-1.5 23q0 21 13.5 33t39.5 12h198q19 0 26.5 -6.5t7.5 -23.5v-29z" />
<glyph unicode="&#xf50c;" horiz-adv-x="822" d="M238 0h-109l343 627q14 26 29 41t46 15q14 0 24.5 -1.5t18.5 -3.5q9 -3 16 -5zM150 300v270l-97 -54q-11 14 -22 33t-11 32q0 17 26 32l102 56q14 8 27.5 13t29.5 5q18 0 27.5 -4.5t16.5 -10.5v-372h-99zM474 243q0 71 40.5 108t100.5 37q72 0 109.5 -45.5t37.5 -122.5 q0 -60 -17.5 -103.5t-45.5 -71.5t-63.5 -41.5t-71.5 -13.5q-30 0 -41.5 8.5t-11.5 27.5q0 8 1 18t2 15q9 -2 15 -2h14q42 0 73.5 22.5t43.5 57.5q-28 -20 -69 -20q-29 0 -51 10.5t-36.5 27.5t-22 40t-7.5 48zM565 246q0 -70 55 -70q20 0 32 7.5t15 8.5q2 7 2.5 17.5 t0.5 21.5q0 16 -2.5 32t-8.5 28t-16.5 19.5t-25.5 7.5q-25 0 -38.5 -18.5t-13.5 -53.5z" />
<glyph unicode="&#xf50d;" horiz-adv-x="822" d="M288 0h-109l343 627q14 26 29 41t46 15q14 0 24.5 -1.5t18.5 -3.5q9 -3 16 -5zM47 300v71q23 19 53 46.5t59 59.5q21 23 33 43t12 44q0 22 -13.5 35t-38.5 13q-26 0 -47 -14t-35 -28q-15 12 -24.5 25.5t-9.5 24.5t8 21t28 22q23 14 51 19t47 5q28 0 52 -7t42 -21t28 -36 t10 -53q0 -40 -18.5 -71.5t-46.5 -60.5q-16 -16 -32.5 -31t-30.5 -28h81q35 0 49 -9.5t14 -41.5q0 -11 -1 -18.5t-1 -9.5h-269zM505 243q0 71 40.5 108t100.5 37q72 0 109.5 -45.5t37.5 -122.5q0 -60 -17.5 -103.5t-45.5 -71.5t-63.5 -41.5t-71.5 -13.5q-30 0 -41.5 8.5 t-11.5 27.5q0 8 1 18t2 15q9 -2 15 -2h14q42 0 73.5 22.5t43.5 57.5q-28 -20 -69 -20q-29 0 -51 10.5t-36.5 27.5t-22 40t-7.5 48zM596 246q0 -70 55 -70q20 0 32 7.5t15 8.5q2 7 2.5 17.5t0.5 21.5q0 16 -2.5 32t-8.5 28t-16.5 19.5t-25.5 7.5q-25 0 -38.5 -18.5 t-13.5 -53.5z" />
<glyph unicode="&#xf50e;" horiz-adv-x="822" d="M289 0h-109l343 627q14 26 29 41t46 15q14 0 24.5 -1.5t18.5 -3.5q9 -3 16 -5zM39 372v63l156 219q10 14 23.5 23.5t32.5 9.5q11 0 23 -2.5t23 -7.5v-238h17q34 0 34 -32q0 -5 -0.5 -11.5t-1.5 -11.5l-2 -12h-47v-72h-98v72h-160zM199 440v128l-91 -128h91zM512 243 q0 71 40.5 108t100.5 37q72 0 109.5 -45.5t37.5 -122.5q0 -60 -17.5 -103.5t-45.5 -71.5t-63.5 -41.5t-71.5 -13.5q-30 0 -41.5 8.5t-11.5 27.5q0 8 1 18t2 15q9 -2 15 -2h14q42 0 73.5 22.5t43.5 57.5q-28 -20 -69 -20q-29 0 -51 10.5t-36.5 27.5t-22 40t-7.5 48zM603 246 q0 -70 55 -70q20 0 32 7.5t15 8.5q2 7 2.5 17.5t0.5 21.5q0 16 -2.5 32t-8.5 28t-16.5 19.5t-25.5 7.5q-25 0 -38.5 -18.5t-13.5 -53.5z" />
<glyph unicode="&#xf50f;" horiz-adv-x="822" d="M275 0h-109l343 627q14 26 29 41t46 15q14 0 24.5 -1.5t18.5 -3.5q9 -3 16 -5zM89 680h228q1 -6 1.5 -12.5t0.5 -13.5q0 -22 -13.5 -34.5t-48.5 -12.5h-99l-6 -63q23 5 46 5q26 0 49.5 -8t41.5 -23.5t28.5 -38.5t10.5 -52t-8.5 -54t-27 -43.5t-47.5 -29.5t-69 -11 q-32 0 -56 6t-38 13q-24 11 -29.5 21t-5.5 17q0 22 29 60q14 -13 37 -27.5t58 -14.5q23 0 41.5 12t18.5 47q0 19 -6 31t-15.5 18.5t-20.5 8.5t-21 2q-38 0 -71 -14q-7 4 -14 6.5t-14 6.5zM499 243q0 71 40.5 108t100.5 37q72 0 109.5 -45.5t37.5 -122.5q0 -60 -17.5 -103.5 t-45.5 -71.5t-63.5 -41.5t-71.5 -13.5q-30 0 -41.5 8.5t-11.5 27.5q0 8 1 18t2 15q9 -2 15 -2h14q42 0 73.5 22.5t43.5 57.5q-28 -20 -69 -20q-29 0 -51 10.5t-36.5 27.5t-22 40t-7.5 48zM590 246q0 -70 55 -70q20 0 32 7.5t15 8.5q2 7 2.5 17.5t0.5 21.5q0 16 -2.5 32 t-8.5 28t-16.5 19.5t-25.5 7.5q-25 0 -38.5 -18.5t-13.5 -53.5z" />
<glyph unicode="&#xf510;" horiz-adv-x="822" d="M235 0h-109l343 627q14 26 29 41t46 15q14 0 24.5 -1.5t18.5 -3.5q9 -3 16 -5zM199 299h-98l139 298h-171q0 2 -1.5 14t-1.5 23q0 21 13.5 33t39.5 12h198q19 0 26.5 -6.5t7.5 -23.5v-29zM478 243q0 71 40.5 108t100.5 37q72 0 109.5 -45.5t37.5 -122.5 q0 -60 -17.5 -103.5t-45.5 -71.5t-63.5 -41.5t-71.5 -13.5q-30 0 -41.5 8.5t-11.5 27.5q0 8 1 18t2 15q9 -2 15 -2h14q42 0 73.5 22.5t43.5 57.5q-28 -20 -69 -20q-29 0 -51 10.5t-36.5 27.5t-22 40t-7.5 48zM569 246q0 -70 55 -70q20 0 32 7.5t15 8.5q2 7 2.5 17.5 t0.5 21.5q0 16 -2.5 32t-8.5 28t-16.5 19.5t-25.5 7.5q-25 0 -38.5 -18.5t-13.5 -53.5z" />
<glyph unicode="&#xf511;" horiz-adv-x="822" d="M288 0h-109l343 627q14 26 29 41t46 15q14 0 24.5 -1.5t18.5 -3.5q9 -3 16 -5zM342 411q0 -64 -41.5 -93t-104.5 -29q-69 0 -108 28.5t-39 88.5q0 35 17.5 60.5t43.5 36.5q-20 11 -33 31t-13 47q0 25 10 44.5t28 33t42 21t52 7.5q57 0 95 -25t38 -78q0 -54 -47 -80 q29 -11 44.5 -36.5t15.5 -56.5zM250 413q0 26 -13.5 41.5t-40.5 15.5t-41 -15.5t-14 -41.5q0 -29 14.5 -44t40.5 -15t40 15t14 44zM240 581q0 23 -12 33.5t-32 10.5t-32 -10.5t-12 -33.5q0 -20 12 -33.5t32 -13.5t32 13t12 34zM511 243q0 71 40.5 108t100.5 37 q72 0 109.5 -45.5t37.5 -122.5q0 -60 -17.5 -103.5t-45.5 -71.5t-63.5 -41.5t-71.5 -13.5q-30 0 -41.5 8.5t-11.5 27.5q0 8 1 18t2 15q9 -2 15 -2h14q42 0 73.5 22.5t43.5 57.5q-28 -20 -69 -20q-29 0 -51 10.5t-36.5 27.5t-22 40t-7.5 48zM602 246q0 -70 55 -70 q20 0 32 7.5t15 8.5q2 7 2.5 17.5t0.5 21.5q0 16 -2.5 32t-8.5 28t-16.5 19.5t-25.5 7.5q-25 0 -38.5 -18.5t-13.5 -53.5z" />
<glyph unicode="&#xf800;" horiz-adv-x="552" d="M521 327q0 -164 -60 -253t-186 -89t-187 86t-61 256q0 79 15.5 142.5t47 108.5t79 69t110.5 24q65 0 111 -23.5t75 -67.5t42.5 -108t13.5 -145zM386 327q0 66 -7.5 111.5t-21.5 73t-34.5 40t-46.5 12.5t-47 -12.5t-35.5 -40t-22 -73t-7.5 -111.5q0 -65 7.5 -110t22 -72.5 t35.5 -40t47 -12.5t46.5 12t34.5 39.5t21.5 72.5t7.5 111z" />
<glyph unicode="&#xf801;" horiz-adv-x="440" d="M208 0v505l-131 -66q-14 19 -27.5 41t-13.5 41q0 12 7.5 24t24.5 21l142 74q20 10 38.5 17.5t38.5 7.5t34 -5.5t22 -10.5v-649h-135z" />
<glyph unicode="&#xf802;" horiz-adv-x="520" d="M33 0v96q19 15 44 37t52.5 48t56 54.5t54.5 57.5q39 43 62.5 85.5t23.5 86.5q0 27 -8.5 45t-22 28.5t-30.5 15t-35 4.5q-50 0 -89 -23t-70 -52q-20 23 -33.5 44t-13.5 35q0 12 7 22t17 18t27.5 20t42 23t57 18.5t71.5 7.5q45 0 85 -11t69 -34t46 -60.5t17 -89.5 q0 -37 -12 -72.5t-31.5 -69.5t-44.5 -65t-52 -59q-28 -29 -55 -55.5t-50 -46.5h191q24 0 39.5 -6.5t25 -17t13.5 -23t4 -25.5q0 -11 -0.5 -19t-1.5 -17h-456z" />
<glyph unicode="&#xf803;" horiz-adv-x="521" d="M465 192q0 -45 -14.5 -83.5t-44.5 -66.5t-75.5 -43.5t-106.5 -15.5q-39 0 -69 4.5t-52.5 11.5t-38 15t-25.5 14q-14 8 -22 20t-8 25q0 29 41 89q11 -11 27.5 -24t37.5 -23.5t46 -17.5t54 -7q22 0 42 5.5t35.5 18.5t25 33t9.5 49q0 33 -13 53t-31 30t-37.5 13t-32.5 3h-51 v101h51q13 0 30 4t32 13.5t25.5 27t10.5 44.5q0 40 -24.5 58.5t-70.5 18.5q-26 0 -47.5 -6t-40.5 -15.5t-35.5 -21t-31.5 -23.5q-20 18 -33 40t-13 36t8 23.5t17 17.5q10 8 27.5 18t42 19t56 15t71.5 6q56 0 96 -13t66 -35.5t38.5 -53t12.5 -66.5q0 -35 -10.5 -61 t-26.5 -44.5t-33.5 -30t-30.5 -17.5q16 -6 36 -16.5t38 -28.5t30 -45.5t12 -67.5z" />
<glyph unicode="&#xf804;" horiz-adv-x="544" d="M31 159v91l254 352q15 21 38.5 41t61.5 20q13 0 30 -4.5t25 -10.5v-390h31q29 0 40.5 -13t11.5 -35q0 -9 -1 -17.5t-2 -16.5q-1 -9 -2 -17h-78v-159h-136v159h-273zM304 261v222l-165 -222h165z" />
<glyph unicode="&#xf805;" horiz-adv-x="544" d="M199 551l-14 -128q14 3 35 6.5t42 3.5q49 0 89.5 -12.5t70 -39t45.5 -67t16 -96.5q0 -48 -15 -90t-45.5 -74t-77 -50.5t-109.5 -18.5q-42 0 -74 5.5t-55 13t-38 15.5t-22 14q-10 7 -18 17.5t-8 23.5t11.5 37.5t31.5 53.5q11 -11 28 -23t38.5 -22.5t47 -17.5t54.5 -7 q21 0 41.5 6.5t36.5 20.5t25.5 36t9.5 53q0 38 -12.5 61t-31.5 35.5t-41 16.5t-40 4q-33 0 -60.5 -6t-51.5 -17l-47 20l35 338h359q2 -11 2.5 -18.5t0.5 -18.5q0 -35 -18 -55t-67 -20h-174z" />
<glyph unicode="&#xf806;" horiz-adv-x="552" d="M509 231q0 -61 -18 -107t-49 -77.5t-73 -47.5t-91 -16q-61 0 -106 20.5t-74.5 58.5t-44 92t-14.5 121q0 102 29 176.5t75.5 123.5t105.5 72.5t119 23.5q39 0 58.5 -11.5t19.5 -48.5q0 -11 -1 -24t-3 -24q-14 2 -24.5 3t-27.5 1q-44 0 -78 -16t-58.5 -40t-41 -52.5 t-23.5 -53.5q17 14 52 28.5t81 14.5q49 0 84.5 -17.5t58 -47.5t33.5 -69.5t11 -82.5zM369 222q0 60 -20 93t-71 33q-15 0 -29.5 -3.5t-27.5 -9t-23 -11.5t-16 -12q-2 -12 -3 -26t-1 -31q0 -27 3.5 -56t14.5 -53t31 -39.5t53 -15.5q40 0 64.5 34t24.5 97z" />
<glyph unicode="&#xf807;" horiz-adv-x="494" d="M206 0h-144l261 545h-302q-2 8 -3 17q-1 8 -1.5 17t-0.5 17q0 30 19 48.5t61 18.5h333q29 0 40 -9.5t11 -35.5v-40z" />
<glyph unicode="&#xf808;" horiz-adv-x="552" d="M514 188q0 -54 -18.5 -93t-50.5 -64t-76 -36.5t-95 -11.5q-113 0 -176 48t-63 150q0 62 33 104.5t82 58.5q-46 20 -70 61t-24 86q0 44 17.5 77.5t47.5 56.5t69.5 34.5t83.5 11.5q45 0 84.5 -10.5t69 -32t47 -55t17.5 -78.5q0 -47 -23.5 -87.5t-68.5 -63.5 q56 -17 85 -58.5t29 -97.5zM377 189q0 49 -26 76t-77 27q-50 0 -76.5 -27.5t-26.5 -75.5q0 -52 27.5 -77.5t75.5 -25.5q47 0 75 25.5t28 77.5zM360 492q0 42 -24.5 63.5t-61.5 21.5t-61 -22.5t-24 -63.5q0 -43 23.5 -69t61.5 -26t62 25.5t24 70.5z" />
<glyph unicode="&#xf809;" horiz-adv-x="552" d="M37 426q0 60 17.5 106t48 77t72.5 46.5t91 15.5q60 0 105 -20.5t75 -58t45 -91.5t15 -120q0 -102 -27.5 -177t-73.5 -124t-105.5 -73t-122.5 -24q-16 0 -30 2.5t-24.5 9t-17 18t-6.5 28.5q0 11 1.5 25.5t3.5 25.5q22 -3 43 -3q52 0 88.5 15t61 38.5t38 51.5t18.5 55 q-17 -17 -49.5 -29t-74.5 -12q-50 0 -86 18.5t-59.5 48.5t-35 69.5t-11.5 81.5zM176 432q0 -60 22 -93.5t73 -33.5q34 0 57.5 11.5t34.5 22.5q2 12 3 28t1 33q0 27 -4 56t-15 53t-31 39.5t-52 15.5q-40 0 -64.5 -34.5t-24.5 -97.5z" />
<glyph unicode="&#xf80a;" d="M349 575q0 -96 -45 -146t-119 -50q-78 0 -121 51t-43 145q0 98 46 148t118 50q76 0 120 -48t44 -150zM247 576q0 56 -13 89.5t-49 33.5q-35 0 -48 -35t-13 -89q0 -53 12.5 -88t47.5 -35q38 0 50.5 32.5t12.5 91.5z" />
<glyph unicode="&#xf80b;" d="M171 390v270l-97 -54q-11 14 -22 33t-11 32q0 17 26 32l102 56q14 8 27.5 13t29.5 5q18 0 27.5 -4.5t16.5 -10.5v-372h-99z" />
<glyph unicode="&#xf80c;" d="M55 390v71q23 19 53 46.5t59 59.5q21 23 33 43t12 44q0 22 -13.5 35t-38.5 13q-26 0 -47 -14t-35 -28q-15 12 -24.5 25.5t-9.5 24.5t8 21t28 22q23 14 51 19t47 5q28 0 52 -7t42 -21t28 -36t10 -53q0 -40 -18.5 -71.5t-46.5 -60.5q-16 -16 -32.5 -31t-30.5 -28h81 q35 0 49 -9.5t14 -41.5q0 -11 -1 -18.5t-1 -9.5h-269z" />
<glyph unicode="&#xf80d;" d="M323 501q0 -55 -36.5 -88.5t-111.5 -33.5q-20 0 -47 5t-49 16q-14 7 -23 16.5t-9 23.5t8 27.5t17 28.5q14 -15 40 -28.5t55 -13.5q23 0 41.5 9.5t18.5 39.5q0 17 -7 27t-17 15t-21 6.5t-18 1.5h-33v68h35q7 0 16.5 1.5t17 6t13 13t5.5 22.5q0 21 -13.5 30t-35.5 9 q-28 0 -49 -11.5t-39 -24.5q-15 11 -24 25.5t-9 24.5q0 8 5 16t21 17q17 10 45 18.5t64 8.5q69 0 100 -28t31 -71q0 -38 -17.5 -58t-37.5 -31q24 -10 44 -29t20 -59z" />
<glyph unicode="&#xf80e;" d="M34 462v63l156 219q10 14 23.5 23.5t32.5 9.5q11 0 23 -2.5t23 -7.5v-238h17q34 0 34 -32q0 -5 -0.5 -11.5t-1.5 -11.5l-2 -12h-47v-72h-98v72h-160zM194 530v128l-91 -128h91z" />
<glyph unicode="&#xf80f;" d="M86 770h228q1 -6 1.5 -12.5t0.5 -13.5q0 -22 -13.5 -34.5t-48.5 -12.5h-99l-6 -63q23 5 46 5q26 0 49.5 -8t41.5 -23.5t28.5 -38.5t10.5 -52t-8.5 -54t-27 -43.5t-47.5 -29.5t-69 -11q-32 0 -56 6t-38 13q-24 11 -29.5 21t-5.5 17q0 22 29 60q14 -13 37 -27.5t58 -14.5 q23 0 41.5 12t18.5 47q0 19 -6 31t-15.5 18.5t-20.5 8.5t-21 2q-38 0 -71 -14q-7 4 -14 6.5t-14 6.5z" />
<glyph unicode="&#xf810;" d="M329 523q0 -71 -40.5 -107.5t-100.5 -36.5q-73 0 -110.5 45.5t-37.5 123.5q0 45 12.5 86t37 72.5t61.5 50t86 18.5q18 0 36 -5.5t18 -29.5q0 -8 -1 -18.5t-2 -15.5q-9 1 -15.5 1h-14.5q-45 0 -76 -23t-42 -57q14 10 33.5 16t39.5 6q30 0 51.5 -10t36 -27.5t21.5 -40.5 t7 -48zM237 518q0 34 -13 52.5t-39 18.5q-19 0 -33.5 -8t-17.5 -10q-2 -6 -2 -15v-19q0 -16 2.5 -31.5t9 -28t17.5 -20.5t28 -8q21 0 34.5 17t13.5 52z" />
<glyph unicode="&#xf811;" d="M175 389h-98l139 298h-171q0 2 -1.5 14t-1.5 23q0 21 13.5 33t39.5 12h198q19 0 26.5 -6.5t7.5 -23.5v-29z" />
<glyph unicode="&#xf812;" d="M331 501q0 -64 -41.5 -93t-104.5 -29q-69 0 -108 28.5t-39 88.5q0 35 17.5 60.5t43.5 36.5q-20 11 -33 31t-13 47q0 25 10 44.5t28 33t42 21t52 7.5q57 0 95 -25t38 -78q0 -54 -47 -80q29 -11 44.5 -36.5t15.5 -56.5zM239 503q0 26 -13.5 41.5t-40.5 15.5t-41 -15.5 t-14 -41.5q0 -29 14.5 -44t40.5 -15t40 15t14 44zM229 671q0 23 -12 33.5t-32 10.5t-32 -10.5t-12 -33.5q0 -20 12 -33.5t32 -13.5t32 13t12 34z" />
<glyph unicode="&#xf813;" d="M41 632q0 71 40.5 108t100.5 37q72 0 109.5 -45.5t37.5 -122.5q0 -60 -17.5 -103.5t-45.5 -71.5t-63.5 -41.5t-71.5 -13.5q-30 0 -41.5 8.5t-11.5 27.5q0 8 1 18t2 15q9 -2 15 -2h14q42 0 73.5 22.5t43.5 57.5q-28 -20 -69 -20q-29 0 -51 10.5t-36.5 27.5t-22 40t-7.5 48 zM132 635q0 -70 55 -70q20 0 32 7.5t15 8.5q2 7 2.5 17.5t0.5 21.5q0 16 -2.5 32t-8.5 28t-16.5 19.5t-25.5 7.5q-25 0 -38.5 -18.5t-13.5 -53.5z" />
<glyph unicode="&#xf814;" d="M349 96q0 -96 -45 -146t-119 -50q-78 0 -121 51t-43 145q0 98 46 148t118 50q76 0 120 -48t44 -150zM247 97q0 56 -13 89.5t-49 33.5q-35 0 -48 -35t-13 -89q0 -53 12.5 -88t47.5 -35q38 0 50.5 32.5t12.5 91.5z" />
<glyph unicode="&#xf815;" d="M171 -89v270l-97 -54q-11 14 -22 33t-11 32q0 17 26 32l102 56q14 8 27.5 13t29.5 5q18 0 27.5 -4.5t16.5 -10.5v-372h-99z" />
<glyph unicode="&#xf816;" d="M55 -89v71q23 19 53 46.5t59 59.5q21 23 33 43t12 44q0 22 -13.5 35t-38.5 13q-26 0 -47 -14t-35 -28q-15 12 -24.5 25.5t-9.5 24.5t8 21t28 22q23 14 51 19t47 5q28 0 52 -7t42 -21t28 -36t10 -53q0 -40 -18.5 -71.5t-46.5 -60.5q-16 -16 -32.5 -31t-30.5 -28h81 q35 0 49 -9.5t14 -41.5q0 -11 -1 -18.5t-1 -9.5h-269z" />
<glyph unicode="&#xf817;" d="M323 22q0 -55 -36.5 -88.5t-111.5 -33.5q-20 0 -47 5t-49 16q-14 7 -23 16.5t-9 23.5t8 27.5t17 28.5q14 -15 40 -28.5t55 -13.5q23 0 41.5 9.5t18.5 39.5q0 17 -7 27t-17 15t-21 6.5t-18 1.5h-33v68h35q7 0 16.5 1.5t17 6t13 13t5.5 22.5q0 21 -13.5 30t-35.5 9 q-28 0 -49 -11.5t-39 -24.5q-15 11 -24 25.5t-9 24.5q0 8 5 16t21 17q17 10 45 18.5t64 8.5q69 0 100 -28t31 -71q0 -38 -17.5 -58t-37.5 -31q24 -10 44 -29t20 -59z" />
<glyph unicode="&#xf818;" d="M34 -17v63l156 219q10 14 23.5 23.5t32.5 9.5q11 0 23 -2.5t23 -7.5v-238h17q34 0 34 -32q0 -5 -0.5 -11.5t-1.5 -11.5l-2 -12h-47v-72h-98v72h-160zM194 51v128l-91 -128h91z" />
<glyph unicode="&#xf819;" d="M86 291h228q1 -6 1.5 -12.5t0.5 -13.5q0 -22 -13.5 -34.5t-48.5 -12.5h-99l-6 -63q23 5 46 5q26 0 49.5 -8t41.5 -23.5t28.5 -38.5t10.5 -52t-8.5 -54t-27 -43.5t-47.5 -29.5t-69 -11q-32 0 -56 6t-38 13q-24 11 -29.5 21t-5.5 17q0 22 29 60q14 -13 37 -27.5t58 -14.5 q23 0 41.5 12t18.5 47q0 19 -6 31t-15.5 18.5t-20.5 8.5t-21 2q-38 0 -71 -14q-7 4 -14 6.5t-14 6.5z" />
<glyph unicode="&#xf81a;" d="M329 44q0 -71 -40.5 -107.5t-100.5 -36.5q-73 0 -110.5 45.5t-37.5 123.5q0 45 12.5 86t37 72.5t61.5 50t86 18.5q18 0 36 -5.5t18 -29.5q0 -8 -1 -18.5t-2 -15.5q-9 1 -15.5 1h-14.5q-45 0 -76 -23t-42 -57q14 10 33.5 16t39.5 6q30 0 51.5 -10t36 -27.5t21.5 -40.5 t7 -48zM237 39q0 34 -13 52.5t-39 18.5q-19 0 -33.5 -8t-17.5 -10q-2 -6 -2 -15v-19q0 -16 2.5 -31.5t9 -28t17.5 -20.5t28 -8q21 0 34.5 17t13.5 52z" />
<glyph unicode="&#xf81b;" d="M175 -90h-98l139 298h-171q0 2 -1.5 14t-1.5 23q0 21 13.5 33t39.5 12h198q19 0 26.5 -6.5t7.5 -23.5v-29z" />
<glyph unicode="&#xf81c;" d="M331 22q0 -64 -41.5 -93t-104.5 -29q-69 0 -108 28.5t-39 88.5q0 35 17.5 60.5t43.5 36.5q-20 11 -33 31t-13 47q0 25 10 44.5t28 33t42 21t52 7.5q57 0 95 -25t38 -78q0 -54 -47 -80q29 -11 44.5 -36.5t15.5 -56.5zM239 24q0 26 -13.5 41.5t-40.5 15.5t-41 -15.5 t-14 -41.5q0 -29 14.5 -44t40.5 -15t40 15t14 44zM229 192q0 23 -12 33.5t-32 10.5t-32 -10.5t-12 -33.5q0 -20 12 -33.5t32 -13.5t32 13t12 34z" />
<glyph unicode="&#xf81d;" d="M41 153q0 71 40.5 108t100.5 37q72 0 109.5 -45.5t37.5 -122.5q0 -60 -17.5 -103.5t-45.5 -71.5t-63.5 -41.5t-71.5 -13.5q-30 0 -41.5 8.5t-11.5 27.5q0 8 1 18t2 15q9 -2 15 -2h14q42 0 73.5 22.5t43.5 57.5q-28 -20 -69 -20q-29 0 -51 10.5t-36.5 27.5t-22 40t-7.5 48 zM132 156q0 -70 55 -70q20 0 32 7.5t15 8.5q2 7 2.5 17.5t0.5 21.5q0 16 -2.5 32t-8.5 28t-16.5 19.5t-25.5 7.5q-25 0 -38.5 -18.5t-13.5 -53.5z" />
<glyph horiz-adv-x="264" d="M200 -6q-4 -2 -18 -3t-30 -1q-20 0 -36 3.5t-27.5 13t-18 25.5t-6.5 41v400q0 1 15 2.5t31 1.5t32 -3t29 -11.5t21 -24t8 -40.5v-404zM201 633q0 -32 -21.5 -52t-51.5 -20q-31 0 -52 20t-21 52t21 52.5t52 20.5q30 0 51.5 -20.5t21.5 -52.5z" />
<glyph horiz-adv-x="699" d="M255 231q-19 24 -33 51.5t-16 57.5v-340h-137v669q8 1 17 2q8 1 15.5 2t14.5 1q14 0 29.5 -3t29 -11t22.5 -23.5t9 -40.5v-244q2 25 13.5 46.5t27.5 41.5l137 180q23 30 46 42t49 12t47 -8.5t34 -21.5l-221 -295l249 -337q-20 -12 -40 -17.5t-39 -5.5q-67 0 -107 52z M639 443q-38 0 -57 27t-19 65q0 27 9 57t25 54.5t37 41t45 16.5q17 0 30.5 -8.5t19.5 -25.5q-20 -9 -40.5 -30t-22.5 -51q14 -11 28.5 -29t14.5 -50q0 -24 -17.5 -45.5t-52.5 -21.5z" />
<glyph horiz-adv-x="770" d="M575 208v461l16 2l14 2t14 1q14 0 29.5 -3t28 -11t21 -23.5t8.5 -40.5v-596h-116l-285 440v-440h-131v668q10 2 27 4t34 2q32 0 50 -11t32 -34zM65 703q30 0 44.5 -21t14.5 -50q0 -21 -7 -43.5t-19 -42t-28.5 -32t-34.5 -12.5q-13 0 -23.5 6.5t-15.5 20.5q15 7 31 23 t18 39q-11 8 -22.5 22t-11.5 39q0 18 13.5 34.5t40.5 16.5z" />
<glyph horiz-adv-x="382" d="M285 538q-11 -7 -23 -11.5t-24 -4.5q-17 0 -32 10.5t-26 23.5l111 90q11 9 23 15.5t26 6.5q23 0 40 -17t31 -34zM77 538q-11 -7 -23 -11.5t-24 -4.5q-17 0 -32 10.5t-26 23.5l111 90q11 9 23 15.5t26 6.5q23 0 40 -17t31 -34z" />
<glyph horiz-adv-x="382" d="M271 -132q0 -22 -10 -39.5t-25.5 -30t-36 -19t-41.5 -6.5q-20 0 -34 9t-14 26q0 7 1.5 17.5t5.5 23.5q7 -4 16 -6.5t18 -2.5q16 0 25.5 5t9.5 18q0 12 -6.5 20.5t-14 16.5t-14 17t-6.5 24q0 20 11.5 36.5t19.5 24.5h69q-10 -10 -17 -19t-7 -20t8 -18.5t17 -17.5t17 -23.5 t8 -35.5z" />
<glyph horiz-adv-x="382" d="M265 535q-24 0 -43 6t-34.5 12.5t-29.5 12.5t-29 6q-23 0 -39.5 -12t-32.5 -31q-12 10 -24.5 23.5t-12.5 29.5q0 14 10 27t25.5 22.5t34.5 15t37 5.5q22 0 39 -6t32 -12.5t29 -12.5t29 -6q22 0 37 10.5t30 33.5q11 -10 25 -25t14 -31q0 -15 -8.5 -27.5t-22.5 -21.5 t-31.5 -14t-34.5 -5z" />
<glyph horiz-adv-x="382" d="M217 -153q15 0 25 8t17 16q8 -8 17.5 -19.5t9.5 -24.5q0 -12 -7.5 -21.5t-20.5 -16t-29 -9.5t-33 -3q-45 0 -73 21.5t-28 69.5q0 25 10 48t25 42.5t31.5 34.5t29.5 23l85 -11q-15 -11 -31 -25.5t-29 -31.5t-21.5 -34.5t-8.5 -33.5q0 -15 7.5 -24t23.5 -9z" />
<glyph horiz-adv-x="382" d="M302 609q0 -23 -8 -44t-22 -36.5t-35 -24.5t-46 -9q-53 0 -82.5 33t-29.5 80q0 24 7.5 44.5t22 36.5t35.5 25t47 9q25 0 46 -9t35 -24.5t22 -36.5t8 -44zM244 608q0 25 -14.5 43t-38.5 18q-25 0 -39.5 -18t-14.5 -42t14 -43t40 -19q24 0 38.5 18.5t14.5 42.5z" />
<glyph horiz-adv-x="382" d="M239 650q14 14 26.5 18.5t28.5 4.5q12 0 25.5 -4t23.5 -10l-88 -110q-25 -29 -64 -29q-41 0 -65 29l-87 108q8 7 22.5 11t27.5 4q12 0 24.5 -4t24.5 -15l53 -52z" />
<glyph horiz-adv-x="382" d="M99 548q-38 0 -51 12.5t-13 38.5q0 11 0.5 18.5t1.5 18.5h241q32 0 50 -9t18 -45q0 -9 -0.5 -17t-1.5 -17h-245z" />
<glyph horiz-adv-x="382" d="M354 590q0 -29 -19 -46.5t-46 -17.5q-28 0 -47 17.5t-19 46.5q0 28 19.5 46t46.5 18t46 -18t19 -46zM158 590q0 -29 -19 -46.5t-46 -17.5q-28 0 -47 17.5t-19 46.5q0 28 19.5 46t46.5 18t46 -18t19 -46z" />
<glyph horiz-adv-x="382" d="M259 593q0 -30 -19.5 -48.5t-48.5 -18.5t-49 18.5t-20 48.5t20 49.5t49 19.5t48.5 -19.5t19.5 -49.5z" />
<glyph horiz-adv-x="382" d="M191 592l-53 -52q-12 -11 -24.5 -15t-24.5 -4q-13 0 -27.5 4t-22.5 11l87 108q24 29 65 29q39 0 64 -29l88 -110q-10 -6 -23.5 -10t-25.5 -4q-16 0 -28.5 4.5t-26.5 18.5z" />
<glyph horiz-adv-x="382" d="M180 538q-11 -7 -23 -11.5t-24 -4.5q-17 0 -34 11.5t-28 24.5l111 90q11 9 24 16t27 7q23 0 41.5 -17t31.5 -37z" />
<glyph horiz-adv-x="382" d="M71 617q13 20 31.5 37t41.5 17q14 0 27 -7t24 -16l111 -90q-11 -13 -28 -24.5t-34 -11.5q-12 0 -24 4.5t-23 11.5z" />
<glyph horiz-adv-x="382" d="M353 670q-5 -30 -17 -56t-32.5 -46t-49 -31.5t-65.5 -11.5q-67 0 -109 36t-52 111q7 5 21 9t28 4t22 -6.5t15 -23.5q11 -29 28.5 -43t49.5 -14q31 0 47 14.5t30 41.5q8 16 16 23.5t22 7.5q12 0 25 -5t21 -10z" />
<glyph horiz-adv-x="382" d="M208 -190q-11 -21 -24.5 -31t-37.5 -10q-11 0 -21.5 1.5t-18.5 5.5l46 124q10 26 25 41t42 15q15 0 32 -4.5t28 -9.5z" />
<glyph horiz-adv-x="382" d="M230 547q-3 -33 -21.5 -47.5t-50.5 -14.5h-9t-9 1v141q0 38 17 60t57 22q8 0 17.5 -0.5t14.5 -1.5z" />
<glyph horiz-adv-x="382" d="M208 -190q-11 -21 -24.5 -31t-37.5 -10q-11 0 -21.5 1.5t-18.5 5.5l46 124q10 26 25 41t42 15q15 0 32 -4.5t28 -9.5z" />
<glyph horiz-adv-x="382" d="M177 678q11 21 24.5 31t37.5 10q23 0 37 -7l-46 -124q-10 -26 -25 -41t-42 -15q-15 0 -30.5 4.5t-26.5 9.5z" />
</font>
</defs>
</svg>
